<?xml version="1.0" encoding="UTF-8"?>
<svg xmlns="http://www.w3.org/2000/svg" viewBox="0 0 1920 1080">
  <defs>
    <style>
      .cls-1 {
        fill: #f19c2e;
      }

      .cls-2 {
        fill: #706539;
      }

      .cls-3 {
        fill: #231815;
      }

      .cls-4 {
        fill: #ddaf5e;
      }

      .cls-5 {
        fill: #cae3e5;
      }

      .cls-6 {
        fill: #849d1c;
      }

      .cls-7 {
        fill: #4793a0;
      }

      .cls-8 {
        fill: #a07a3d;
      }

      .cls-9 {
        fill: #93c2cc;
      }

      .cls-10 {
        fill: #6bb6b8;
      }

      .cls-11 {
        fill: #edf4f4;
      }

      .cls-12 {
        fill: #a3ced6;
      }

      .cls-13 {
        fill: #d56453;
      }

      .cls-14 {
        fill: #a9c245;
      }

      .cls-15 {
        fill: #c0dee2;
      }

      .cls-16 {
        fill: #8db23d;
      }

      .cls-17 {
        fill: #b3dae0;
      }

      .cls-18 {
        fill: #723d20;
      }

      .cls-19 {
        fill: #ad3b2f;
      }

      .cls-20 {
        fill: #caefee;
      }

      .cls-21 {
        fill: #3a3736;
      }

      .cls-22 {
        fill: #82b539;
      }

      .cls-23 {
        fill: #87b0c1;
      }

      .cls-24 {
        fill: #a09c87;
      }

      .cls-25 {
        fill: #8d542e;
      }

      .cls-26 {
        fill: #9bbecc;
      }

      .cls-27 {
        fill: #ffcc2c;
      }
    </style>
  </defs>
  <g id="Capa_2" data-name="Capa 2">
    <rect class="cls-20" x="1" width="1918.82" height="822"/>
    <path class="cls-17" d="M893.09,613.16c4.5-11.69,6.91-23.98,6.91-36.66,0-77.6-89.77-140.5-200.5-140.5-52.41,0-100.11,14.1-135.83,37.17.22-2.37.33-4.76.33-7.17,0-78.42-117.97-142-263.5-142-52.06,0-100.59,8.14-141.46,22.18-25.79-19.36-70.81-32.18-122.04-32.18-12.79,0-25.19.8-37,2.3v135.4c11.81,1.5,24.21,2.3,37,2.3.32,0,.63,0,.95,0-.62,3.96-.95,7.96-.95,12.01,0,78.42,117.97,142,263.5,142,80.1,0,151.84-19.26,200.16-49.66-1.09,5.94-1.66,12-1.66,18.16,0,77.6,89.77,140.5,200.5,140.5,16.97,0,33.44-1.48,49.18-4.26,18.26,30.89,71.94,53.26,135.32,53.26,78.42,0,142-34.25,142-76.5s-58.72-73.81-132.91-76.34Z"/>
    <path class="cls-11" d="M762,731.63c0-36.46-48.39-67.58-116.54-79.88,1.44-3.19,2.21-6.47,2.21-9.84,0-19.25-24.76-36.07-61.61-45.13.57-2.33.87-4.7.87-7.11,0-33.96-58.38-61.5-130.41-61.5-20.51,0-39.91,2.24-57.18,6.21-.5-38.37-55.48-69.4-123.25-69.4-46.21,0-86.47,14.43-107.58,35.77-28.28-11.66-68.07-18.92-112.15-18.92-19.51,0-38.18,1.42-55.38,4.03v114.94s0,0,0,0h0v230.64l719.91,34.54-25.98-67.98c40.92-15.68,67.07-39.59,67.07-66.39Z"/>
    <polygon class="cls-23" points="1611 408 1634 393 1634 309 1611 324 1611 408"/>
    <polygon class="cls-26" points="1863 408 1634 393 1634 309 1863 324 1863 408"/>
    <path class="cls-11" d="M1920,438.57c-43.4-9.8-117.92-3.02-165.73,14.97-52.31-55.04-232.78-43.68-232.18,34.07,0,.07,0,.13,0,.2-77.37-15.58-188.24,2.61-187.36,54.56-.04,2.61.2,5.13.7,7.57-35.64,7.7-61.92,22.59-61.37,44.67-.1,3.98.69,7.72,2.23,11.23-64.96,10.19-117.14,36.35-116.43,78.5-.51,30.64,26.94,52.83,66.92,66.57l-25.88,67.79,719.1-34.54v-230.64h0s0,0,0,0v-114.94Z"/>
    <path class="cls-11" d="M802,174.5c0-11.32-64.69-20.5-144.5-20.5-28.32,0-54.73,1.16-77.03,3.15-20.39-13.7-63.54-23.15-113.47-23.15-69.59,0-126,18.36-126,41,0,7.52,6.22,14.56,17.07,20.62-51.3,3.04-90.07,17.06-90.07,33.88,0,19.05,49.7,34.5,111,34.5,46.39,0,86.13-8.85,102.72-21.41,28.04,2.17,59.94,3.41,93.78,3.41,111.84,0,202.5-13.43,202.5-30,0-8.91-26.22-16.91-67.85-22.4,53.77-2.99,91.85-10.41,91.85-19.1Z"/>
    <path class="cls-11" d="M1629.12,224.5c41.66-5.23,67.93-13.07,67.99-21.98.1-16.57-90.47-30.57-202.31-31.27-33.84-.21-65.75.82-93.8,2.82-16.51-12.66-56.19-21.76-102.58-22.05-61.3-.38-111.09,14.75-111.21,33.8-.11,16.83,38.58,31.08,89.86,34.45-10.89,5.99-17.15,12.99-17.2,20.51-.14,22.64,56.15,41.35,125.74,41.79,49.93.31,93.13-8.87,113.61-22.44,22.29,2.14,48.69,3.46,77.01,3.64,79.8.5,144.55-8.27,144.63-19.59.05-8.69-37.98-16.35-91.72-19.67Z"/>
    <polygon class="cls-9" points="1598 824 1421 824 1421 408 1598 389 1598 824"/>
    <polygon class="cls-12" points="1888 806 1598 806 1598 389 1888 408 1888 806"/>
    <rect class="cls-9" x="1232" y="583" width="189" height="224"/>
    <polygon class="cls-15" points="1454 490.5 1439 494 1439 428.47 1454 422.59 1454 490.5"/>
    <polygon class="cls-15" points="1488 487.32 1473 490.81 1473 425.28 1488 419.4 1488 487.32"/>
    <polygon class="cls-15" points="1527 482.32 1512 485.81 1512 420.28 1527 414.4 1527 482.32"/>
    <polygon class="cls-15" points="1569 482.32 1554 485.81 1554 420.28 1569 414.4 1569 482.32"/>
    <polygon class="cls-15" points="1454 611.32 1439 614.81 1439 549.28 1454 543.4 1454 611.32"/>
    <polygon class="cls-15" points="1527 692.32 1512 695.81 1512 630.28 1527 624.4 1527 692.32"/>
    <polygon class="cls-15" points="1569 590.32 1554 593.81 1554 528.28 1569 522.4 1569 590.32"/>
    <polygon class="cls-15" points="1263 662.32 1248 665.81 1248 600.28 1263 594.4 1263 662.32"/>
    <polygon class="cls-15" points="1322 751.32 1307 754.81 1307 689.28 1322 683.4 1322 751.32"/>
    <polygon class="cls-15" points="1378 659.32 1363 662.81 1363 597.28 1378 591.4 1378 659.32"/>
    <polygon class="cls-5" points="1858 494 1634 482 1634 418 1858 430 1858 494"/>
    <polygon class="cls-5" points="1858 594.34 1634 582.34 1634 518.34 1858 530.34 1858 594.34"/>
    <polygon class="cls-5" points="1863 679.34 1639 667.34 1639 603.34 1863 615.34 1863 679.34"/>
  </g>
  <g id="Capa_1" data-name="Capa 1">
    <g>
      <ellipse class="cls-6" cx="866.62" cy="790.69" rx="29.47" ry="48.48" transform="translate(-81.86 1481.05) rotate(-78.43)"/>
      <ellipse class="cls-6" cx="782.08" cy="807.82" rx="47.06" ry="53.71" transform="translate(-166.22 1411.93) rotate(-78.43)"/>
      <ellipse class="cls-6" cx="721.79" cy="803.72" rx="55.14" ry="34.7" transform="translate(-210.4 1349.59) rotate(-78.43)"/>
      <ellipse class="cls-6" cx="692.64" cy="802.24" rx="40.54" ry="105.7" transform="translate(-232.25 1319.85) rotate(-78.43)"/>
      <path class="cls-6" d="M592.19,801.35c11.73-16.08,30.16-30.61,58.45-24.81s47.99,26.3,43.99,45.79c-3.99,19.5-29.7,22.19-58.45,24.81-62.3,5.68-57.49-27.3-43.99-45.79Z"/>
      <ellipse class="cls-6" cx="655.79" cy="768.05" rx="40.4" ry="62.74" transform="translate(-228.21 1256.41) rotate(-78.43)"/>
    </g>
    <g>
      <g>
        <rect class="cls-24" x="913.61" y="708.03" width="139.71" height="7.78"/>
        <rect class="cls-24" x="910.8" y="649.27" width="141.12" height="6.38"/>
        <rect class="cls-24" x="924.27" y="654.02" width="3.37" height="56.41"/>
        <rect class="cls-24" x="941.38" y="654.02" width="3.09" height="56.41"/>
        <rect class="cls-24" x="956.25" y="654.02" width="3.37" height="56.41"/>
        <rect class="cls-24" x="970.42" y="654.34" width="3.37" height="56.41"/>
        <rect class="cls-24" x="987.53" y="654.34" width="3.09" height="56.41"/>
        <rect class="cls-24" x="1002.4" y="654.34" width="3.37" height="56.41"/>
        <rect class="cls-24" x="1016.57" y="654.34" width="3.37" height="56.41"/>
        <rect class="cls-24" x="1033.68" y="654.34" width="3.09" height="56.41"/>
      </g>
      <rect class="cls-19" x="1049.6" y="584.79" width="12.83" height="226.73"/>
      <rect class="cls-13" x="1059.11" y="584.79" width="15.69" height="226.73"/>
      <g>
        <rect class="cls-2" x="1016.25" y="708.71" width="157.81" height="7.78"/>
        <rect class="cls-2" x="1013.08" y="649.95" width="159.39" height="6.38"/>
        <rect class="cls-2" x="1028.29" y="654.7" width="3.8" height="56.41"/>
        <rect class="cls-2" x="1047.62" y="654.7" width="3.49" height="56.41"/>
        <rect class="cls-2" x="1064.41" y="654.7" width="3.8" height="56.41"/>
        <rect class="cls-2" x="1080.42" y="655.02" width="3.8" height="56.41"/>
        <rect class="cls-2" x="1099.75" y="655.02" width="3.49" height="56.41"/>
        <rect class="cls-2" x="1116.54" y="655.02" width="3.8" height="56.41"/>
        <rect class="cls-2" x="1132.54" y="655.02" width="3.8" height="56.41"/>
        <rect class="cls-2" x="1151.87" y="655.02" width="3.49" height="56.41"/>
      </g>
      <rect class="cls-2" x="919.91" y="708.71" width="96.33" height="7.78"/>
      <rect class="cls-19" x="904.39" y="577.22" width="12.83" height="226.73"/>
      <path class="cls-1" d="M1172.47,505.01l-73.47,79.38-28.76,20.49c-2.11,1.51-5.08.52-5.87-1.95l-5.77-18.06-35.35,21.04c-1.86,1.1-4.26.46-5.31-1.43l-11.16-20.08-20.89,19.49c-1.96,1.83-5.15,1.13-6.16-1.36l-7.17-17.66-25.8,19.66c-2.05,1.57-5.04.69-5.92-1.74l-6.78-18.64-22.13,20.1c-1.89,1.71-4.89,1.14-6.02-1.15l-9.4-19.19-22.35,19.61c-2.16,1.9-5.56.82-6.25-1.97l-4.44-18.11-18.81,19.78c-1.96,2.06-5.39,1.35-6.37-1.32l-6.43-17.51-20.68,17.78c-2.5,2.15-6.36.35-6.33-2.94l.15-14.83h0c-3.76,2.2,60.67-79.38,62.82-79.38,3.01,0,304.64,0,304.64,0Z"/>
      <rect class="cls-13" x="913.89" y="577.22" width="15.69" height="226.73"/>
      <polygon class="cls-19" points="933.49 562.49 846.39 562.49 846.39 581.5 933.49 581.5 982.02 581.5 982.02 803.96 995.97 803.96 995.97 581.34 1012.05 585.46 1168.83 585.46 1168.83 803.96 1183.41 803.96 1183.41 572.95 1191.33 585.3 1219.85 585.3 1226.66 580.87 1222.38 565.82 933.49 562.49"/>
      <polygon class="cls-13" points="995.97 803.96 995.97 581.34 933.49 581.34 933.49 562.49 1226.66 562.49 1226.66 580.87 1193.7 580.87 1193.7 803.96 1174.06 803.96 1174.06 581.5 1016.25 581.5 1016.25 803.96 995.97 803.96"/>
      <path class="cls-27" d="M869.42,504.97l74.29,79.38,29.08,20.49c2.14,1.51,5.14.52,5.94-1.95l5.84-18.06,35.75,21.04c1.88,1.1,4.31.46,5.37-1.43l11.28-20.08,21.12,19.49c1.98,1.83,5.21,1.13,6.23-1.36l7.26-17.66,26.09,19.66c2.08,1.57,5.1.69,5.99-1.74l6.85-18.64,22.38,20.1c1.91,1.71,4.95,1.14,6.08-1.15l9.51-19.19,22.6,19.61c2.19,1.9,5.62.82,6.32-1.97l4.49-18.11,19.02,19.78c1.98,2.06,5.45,1.35,6.44-1.32l6.5-17.51,20.91,17.78c2.53,2.15,6.43.35,6.4-2.94l-1.43-20.3s-60.07-73.91-62.25-73.91h-308.06Z"/>
      <polygon class="cls-7" points="921.73 704.45 982.02 706.99 910.41 803.96 841.77 797.82 921.73 704.45"/>
      <path class="cls-10" d="M982.02,712.38v-5.22c0-3.13-3.97-4.47-5.87-1.98l-65.69,86.08c-1.33,1.74-2.55,4.7-2.4,6.88l2.34,5.82,71.61-91.58Z"/>
      <path class="cls-10" d="M921.12,705.48h0c0-4.96-6.24-7.16-9.35-3.3l-68.25,84.59c-1.43,1.77-2.13,4.01-1.96,6.27l.22,4.78,79.34-92.33Z"/>
    </g>
    <g>
      <ellipse class="cls-6" cx="1644.74" cy="813.22" rx="48.48" ry="29.47"/>
      <ellipse class="cls-6" cx="1724.12" cy="779.47" rx="53.71" ry="47.06"/>
      <ellipse class="cls-6" cx="1784.01" cy="771.39" rx="34.7" ry="55.14"/>
      <ellipse class="cls-6" cx="1812.87" cy="766.99" rx="105.7" ry="40.54"/>
      <path class="cls-6" d="M1911.45,747.71c-8.26,18.11-23.41,36.04-52.29,36.04s-52.29-16.13-52.29-36.04,24.64-27.7,52.29-36.04c59.89-18.06,61.79,15.21,52.29,36.04Z"/>
      <ellipse class="cls-6" cx="1855.83" cy="793.1" rx="62.74" ry="40.4"/>
    </g>
    <g>
      <ellipse class="cls-6" cx="507.9" cy="784.52" rx="48.48" ry="29.47" transform="translate(-114.55 87.39) rotate(-8.84)"/>
      <ellipse class="cls-6" cx="424.28" cy="763.37" rx="53.71" ry="47.06" transform="translate(-112.29 74.29) rotate(-8.84)"/>
      <ellipse class="cls-6" cx="363.85" cy="764.59" rx="34.7" ry="55.14" transform="translate(-113.2 65.01) rotate(-8.84)"/>
      <ellipse class="cls-6" cx="288.84" cy="785.26" rx="105.7" ry="40.54" transform="translate(-117.27 53.73) rotate(-8.84)"/>
      <path class="cls-6" d="M234.29,760.79c10.95,16.62,28.67,32.01,57.2,27.57,28.53-4.44,49.19-23.98,46.13-43.65s-28.6-23.58-57.2-27.57c-61.96-8.64-58.72,24.53-46.13,43.65Z"/>
      <ellipse class="cls-6" cx="191.7" cy="792.82" rx="62.74" ry="40.4" transform="translate(-119.58 38.89) rotate(-8.84)"/>
    </g>
    <rect class="cls-14" x="0" y="797.82" width="1920" height="282.18"/>
    <ellipse class="cls-22" cx="587.66" cy="873.27" rx="161.34" ry="10.27"/>
    <line class="cls-25" x1="950.43" y1="798.9" x2="834.77" y2="763.66"/>
    <g>
      <polyline class="cls-18" points="464.03 837.34 553.27 817.24 556.65 811.66 467.28 832.51"/>
      <polygon class="cls-8" points="467.28 832.51 556.65 812.91 543.66 778.52 456.99 791.43 467.28 832.51"/>
      <polygon class="cls-21" points="593.02 851.53 596.16 850.18 590.7 831.8 587.21 830.53 593.02 851.53"/>
      <polygon class="cls-3" points="572.87 828.47 556.65 837.91 566.4 842.27 578.62 834.57 582.62 847.41 593.02 851.53 588.4 833.7 572.87 828.47"/>
      <polygon class="cls-21" points="504.77 878.38 507.92 876.44 502.45 849.85 498.96 848.01 504.77 878.38"/>
      <polygon class="cls-25" points="457.28 791.38 453.19 796.13 464.03 837.34 467.28 832.51 457.28 791.38"/>
      <polygon class="cls-21" points="478.15 864.99 483.66 863.82 492.9 855.69 487.56 850.19 478.15 864.99"/>
      <polygon class="cls-3" points="484.62 845.03 468.41 858.69 478.15 864.99 490.37 853.86 494.37 872.42 504.77 878.38 500.15 852.6 484.62 845.03"/>
      <g>
        <polygon class="cls-25" points="513.41 858.82 603.56 835.07 603.56 828.47 513.41 850.03 513.41 858.82"/>
        <polygon class="cls-18" points="513.41 858.82 467.33 843.31 467.33 835.62 513.41 850.03 513.41 858.82"/>
        <polygon class="cls-8" points="467.26 835.71 557.07 817.24 603.56 828.61 513.41 850.03 467.26 835.71"/>
      </g>
    </g>
    <path class="cls-22" d="M1801.56,805.84c-18.69.73-103.53,21.05-155.01,18.55-23.11-1.12-48.68-7.28-91.06-6.49-.91.02-20.48.44-20.74,3.2-.29,3.14,28.81,7.48,28.54,11.18-.17,2.36-61.63,16.34-77.94,21.4,0,0-41.5,5.24-219.09,4.63h0c153.31,20.44,279.27,23.31,368.25,21.81,160.72-2.71,248.65-20.46,248.31-23.37-.35-2.98-96.28-19.01-78.91-50.35-.41-.62-1.87-.58-2.35-.56Z"/>
    <path class="cls-22" d="M155.85,867.29l4.29-6.51,5.24,6.82c-4.51-1.84,15.43-19.65,15.43-19.65,0,0-8.29,19.53-4.99,19.65l6.18-3.49v4.9"/>
    <path class="cls-22" d="M.2,983.14s194.94-5.73,422.06,56.19l44.73-16.05-28.91,18.73,90.85-11.85-60.56,17.96,77.77,3.44-70.2,3.06s55.75-2.36,119.06,25.39c0,0-595,0-594.8,0,2.24,0,0-96.86,0-96.86Z"/>
    <path class="cls-22" d="M1919.57,1079.84h-655.26l-46.31-43.29,51.46,21.65-7.72-26.72,23.16,13.31s105.48-58.94,185.24-55.77l-16.29-35.49,36.02,28.52,12.86-22.18,11.15,22.18s226.46-32.96,314.74-32.32l13.48-25.65v22.49l42.26-34.22-17.15,41.2s43.84-3.8,52.37,1.27v125.05Z"/>
    <path class="cls-22" d="M36.25,837.89c-48.96-17,85.82-12.09,138.21-12.09s94.84,9.56,94.84,21.35,72.72,65.74-94.84,21.35c-50.88-13.48-127.83-27.01-138.21-30.61Z"/>
    <ellipse class="cls-22" cx="990.58" cy="869.29" rx="111.25" ry="14.1"/>
    <ellipse class="cls-16" cx="920.74" cy="1019.35" rx="220.47" ry="23.14"/>
    <path class="cls-22" d="M1363.23,808.3l-6.76-10.26-8.27,10.75c7.11-2.9-24.33-30.98-24.33-30.98,0,0,13.07,30.78,7.87,30.98l-9.74-5.5v7.72"/>
    <path class="cls-22" d="M1592.81,797.6l-3.02-4.58-3.69,4.79c3.17-1.29-10.85-13.82-10.85-13.82,0,0,5.83,13.73,3.51,13.82l-4.35-2.46v3.44"/>
    <path class="cls-4" d="M1920,888s-986.11,8.71-1014,20-464.52,13.63-523,8S-1,875.03,0,903,0,963,0,963c0,0,653.04,19.39,738.96,12.4,91.04-7.4,269.81-1.34,380.04-.4s552.22-6.19,574-6,227-5,227-5v-76Z"/>
    <path class="cls-22" d="M520.78,1014.3l6.76-10.26,8.27,10.75c-7.11-2.9,24.33-30.98,24.33-30.98,0,0-13.07,30.78-7.87,30.98l9.74-5.5v7.72"/>
  </g>
</svg>