<?xml version="1.0" encoding="UTF-8"?>
<svg xmlns="http://www.w3.org/2000/svg" version="1.1" xmlns:xlink="http://www.w3.org/1999/xlink" viewBox="0 0 1920 1080">
  <!-- Generator: Adobe Illustrator 29.0.0, SVG Export Plug-In . SVG Version: 2.1.0 Build 186)  -->
  <defs>
    <style>
      .st0 {
        fill: #648e65;
      }

      .st1, .st2 {
        fill: #d3eaf4;
      }

      .st3 {
        fill: #b2ccd8;
      }

      .st4 {
        fill: #a8715d;
      }

      .st5 {
        fill: #603426;
      }

      .st6 {
        stroke: #d6c994;
        stroke-miterlimit: 10;
        stroke-width: 5px;
      }

      .st6, .st7 {
        fill: none;
      }

      .st8 {
        fill: #b18c7b;
      }

      .st9 {
        fill: #9cf2e2;
        mix-blend-mode: screen;
        opacity: .25;
      }

      .st10 {
        font-family: MyriadPro-Regular, 'Myriad Pro';
        font-size: 18.55px;
      }

      .st11 {
        fill: #d65143;
      }

      .st12 {
        fill: #8ecaee;
      }

      .st13 {
        fill: #f3ede1;
      }

      .st14 {
        fill: #e2f1f2;
      }

      .st15 {
        fill: #dddbd4;
      }

      .st16 {
        isolation: isolate;
      }

      .st17 {
        fill: #99593d;
      }

      .st2 {
        mix-blend-mode: lighten;
        opacity: .5;
      }

      .st18 {
        fill: #8da574;
      }

      .st19 {
        fill: #ffffe6;
      }

      .st20 {
        fill: #f2e9c6;
      }

      .st21 {
        clip-path: url(#clippath);
      }

      .st22 {
        fill: #aad3e7;
      }
    </style>
    <clipPath id="clippath">
      <rect class="st7" x="1.5" y="844.5" width="1919" height="235"/>
    </clipPath>
  </defs>
  <g class="st16">
    <g id="Capa_2">
      <rect class="st3" width="1920" height="841"/>
      <rect class="st4" x="434" y="288" width="770" height="343"/>
      <rect class="st0" x="449" y="288" width="755" height="331"/>
      <polygon class="st2" points="486 120 10 667 71 667 555 120 486 120"/>
      <polygon class="st2" points="652 120 176 667 237 667 721 120 652 120"/>
      <polygon class="st2" points="1318 126 842 673 903 673 1387 126 1318 126"/>
    </g>
    <g id="Capa_1">
      <rect class="st9" y="150" width="1012" height="530"/>
      <rect class="st15" x="1" y="1" width="1920" height="119"/>
      <rect class="st4" y="264" width="1000" height="35"/>
      <rect class="st4" y="120" width="1000" height="35"/>
      <rect class="st17" y="144" width="1000" height="11"/>
      <rect class="st17" y="288" width="1000" height="11"/>
      <rect class="st4" x="581" y="120" width="40" height="565"/>
      <rect class="st4" x="823" y="120" width="40" height="565"/>
      <rect class="st4" x="91" y="120" width="40" height="565"/>
      <rect class="st4" x="333" y="120" width="40" height="565"/>
      <polygon class="st13" points="1547.19 120 1500.22 120 1117.42 120 1075.44 120 999.48 120 999.48 281 999.48 333 999.48 333.31 999.48 428 999.48 679.81 183.9 679.81 183.9 680 1 680 1 700.23 1 841 1218.37 841 1218.37 724.27 1218.37 677.92 1218.37 345.74 1500.22 345.74 1500.22 604.96 1500.22 841 1920 841 1920 604.96 1920 120 1547.19 120"/>
      <polygon class="st17" points="1501 816 1501 346 1219 346 1219 816 1 816 1 840 1219 840 1501 840 1920 840 1920 816 1501 816"/>
      <rect class="st8" x="1234" y="366" width="248" height="474"/>
      <rect class="st4" x="1242" y="375" width="232" height="465"/>
      <rect class="st22" x="1256" y="396" width="208" height="233"/>
      <rect class="st12" x="1450" y="656" width="14" height="56"/>
      <rect class="st20" x="2" y="845" width="1919" height="235"/>
      <polyline class="st19" points="1110 5 1049.61 92 872.39 92 812 5"/>
      <g class="st21">
        <g>
          <polygon class="st6" points="-13 844 1907 844 2330.46 1088.13 -436.46 1088.13 -13 844"/>
          <line class="st6" x1="-290" y1="1004" x2="2185" y2="1004"/>
          <line class="st6" x1="-144" y1="919.87" x2="2039" y2="919.87"/>
          <line class="st6" x1="1427" y1="844" x2="1638.73" y2="1088.13"/>
          <line class="st6" x1="947" y1="844" x2="947" y2="1088.13"/>
          <line class="st6" x1="467" y1="844" x2="255.27" y2="1088.13"/>
        </g>
      </g>
      <rect class="st4" y="667" width="1032" height="35"/>
      <polyline class="st19" points="1836 5 1775.61 92 1598.39 92 1538 5"/>
      <polygon class="st19" points="312.61 92 135.39 92 75 5 373 5 312.61 92"/>
      <g>
        <polygon class="st1" points="1256 533 1256 562.1 1422.1 396 1393 396 1256 533"/>
        <polygon class="st1" points="1364.28 629 1464 529.28 1464 498 1333 629 1364.28 629"/>
      </g>
      <rect class="st4" x="992" y="120" width="40" height="565"/>
      <rect class="st4" x="1708" y="324" width="212" height="203"/>
      <rect class="st18" x="1712.18" y="328" width="203.65" height="195"/>
      <rect class="st14" x="1745" y="334.85" width="101" height="122.3"/>
      <circle class="st5" cx="1796" cy="344" r="7"/>
      <path class="st11" d="M1817.14,362.33l-2.06-2.75h-1.39l3.45-2.75-4.81-1.37,4.12-1.37s-7.56-6.18-8.24-4.81-3.44,10.99-3.44,10.99c0,0-4.81-6.18-17.86-2.75,0,0-6.18-12.37-8.93-8.24,0,0-8.93,6.18-8.24,10.31.69,4.12,3.44,20.61,10.99,10.99l3.44,13.05,5.5,3.44.69,6.18s2.75,0,3.44,1.37-1.37,2.75-1.37,3.44,4.12,1.37,4.12,2.06-2.06,3.44-1.37,4.12,4.81.69,4.81.69c0,0,7.56,1.37,4.12-2.06,0,0-2.06-.69-2.75,0,0,0-1.37-1.37-1.37-2.06s1.68-2.33,1.87-4.26c.19-1.92-2.56.14-1.87-1.92s1.37,0,1.37-1.37-1.37-.69-1.37-1.37,1.37-4.81,1.37-4.81l4.81-3.44,2.98-13.05s3.9,5.5,7.33.69c3.44-4.81,3.44-9.62,3.44-9.62l-2.75.69ZM1786.91,379.51s-.69-4.12.69-9.62l4.12,10.99-4.81-1.37ZM1804.6,379.51l-4.81,1.37,4.12-10.99c1.37,5.5.69,9.62.69,9.62Z"/>
      <text class="st10" transform="translate(1759.04 433.92)"><tspan x="0" y="0">SE BUSCA!</tspan></text>
      <rect class="st14" x="1881" y="344" width="39" height="169"/>
      <rect class="st11" x="1889" y="357" width="31" height="9"/>
      <rect x="1889" y="496" width="31" height="3"/>
      <rect x="1889" y="486" width="31" height="3"/>
      <rect x="1889" y="426" width="31" height="3"/>
      <rect x="1889" y="416" width="31" height="3"/>
      <rect x="1889" y="406" width="31" height="3"/>
      <rect x="1889" y="396" width="31" height="3"/>
      <rect x="1889" y="386" width="31" height="3"/>
    </g>
  </g>
</svg>