<?xml version="1.0" encoding="UTF-8"?>
<svg id="Capa_2" data-name="Capa 2" xmlns="http://www.w3.org/2000/svg" xmlns:xlink="http://www.w3.org/1999/xlink" viewBox="0 0 1923.5 1081.5">
  <defs>
    <style>
      .cls-1 {
        fill: #24293f;
      }

      .cls-2 {
        fill: url(#Degradado_sin_nombre_14);
        stroke: #7c5a2a;
      }

      .cls-2, .cls-3 {
        stroke-width: 7px;
      }

      .cls-2, .cls-3, .cls-4, .cls-5 {
        stroke-miterlimit: 10;
      }

      .cls-6 {
        fill: #805b54;
      }

      .cls-7 {
        fill: #fff;
      }

      .cls-8 {
        fill: #89c64e;
      }

      .cls-9 {
        fill: #edf4f4;
      }

      .cls-10, .cls-4, .cls-5 {
        fill: none;
      }

      .cls-11 {
        fill: #4a9944;
      }

      .cls-12 {
        fill: #86444f;
      }

      .cls-3 {
        fill: url(#Degradado_sin_nombre_15);
        stroke: #7c5a2b;
      }

      .cls-13 {
        clip-path: url(#clippath-1);
      }

      .cls-14 {
        fill: #a9c245;
      }

      .cls-4 {
        stroke-width: 2.17px;
      }

      .cls-4, .cls-5 {
        stroke: #1d1d1b;
      }

      .cls-15 {
        fill: #db6b7e;
      }

      .cls-16 {
        fill: #acc95b;
      }

      .cls-17 {
        fill: #9ac146;
      }

      .cls-18 {
        fill: #76b956;
      }

      .cls-5 {
        stroke-width: 1.96px;
      }

      .cls-19 {
        fill: #f8f9f2;
      }

      .cls-20 {
        fill: #f4f9d9;
      }

      .cls-21 {
        fill: #8bc146;
      }

      .cls-22 {
        fill: #d3d392;
      }

      .cls-23 {
        fill: #382c1e;
      }

      .cls-24 {
        fill: #f3d490;
      }

      .cls-25 {
        clip-path: url(#clippath);
      }

      .cls-26 {
        fill: #e5e6a0;
      }

      .cls-27 {
        fill: #5f8e9e;
      }
    </style>
    <linearGradient id="Degradado_sin_nombre_14" data-name="Degradado sin nombre 14" x1="1457" y1="584" x2="1457" y2="4" gradientUnits="userSpaceOnUse">
      <stop offset="0" stop-color="#d1fdfe"/>
      <stop offset=".05" stop-color="#caf9fc"/>
      <stop offset=".24" stop-color="#b3ecf6"/>
      <stop offset=".45" stop-color="#a3e3f2"/>
      <stop offset=".68" stop-color="#99deef"/>
      <stop offset="1" stop-color="#97ddef"/>
    </linearGradient>
    <clipPath id="clippath">
      <polygon class="cls-10" points="1916 572 997 572 997.16 0 1915.68 0 1916 572"/>
    </clipPath>
    <linearGradient id="Degradado_sin_nombre_15" data-name="Degradado sin nombre 15" x1="1331.72" y1="598" x2="1331.72" y2="1078" gradientUnits="userSpaceOnUse">
      <stop offset="0" stop-color="#d1fdfe"/>
      <stop offset=".36" stop-color="#cefbfd"/>
      <stop offset=".58" stop-color="#c6f6fb"/>
      <stop offset=".76" stop-color="#b7eff7"/>
      <stop offset=".92" stop-color="#a3e3f2"/>
      <stop offset="1" stop-color="#97ddef"/>
    </linearGradient>
    <clipPath id="clippath-1">
      <path class="cls-10" d="M382.94,896.83c-342.33-20.82-144.41-360.13-99.13-421.14,22.17-29.87,40.13-80.7,41.2-123.63,8.61,5.26,28.74,15.97,56.47,16.33,29.41.38,50.77-11.09,59.35-16.33-.45,44.57,18.1,92.45,41.25,123.63,45.28,61,243.2,400.31-99.13,421.14Z"/>
    </clipPath>
  </defs>
  <g id="Capa_1-2" data-name="Capa 1">
    <g>
      <polygon class="cls-14" points="1919.91 1073.96 .57 1073.96 0 0 1920.32 0 1919.91 1073.96"/>
      <path class="cls-27" d="M1206.57,449.13l-18.63-71.61c-5.77-2.69-12.23-5.44-16.36-6.41-5.17-1.21,3.52-6.6,11.84-10.96l-2.98-11.46-30.85-11.32h27.91l-2.92-11.24-39.98-49.91h27l-5.38-20.69c-14.38-17.19-33.02-39.62-36.61-44.67-3.73-5.24,14.95,7.44,29.62,17.79l-4.63-17.79h502.82L1576.44,0H299.89l-75.97,215.08h614.78l-11.01,46,28-16.48-35.15,46.33-1.53,6.38h49.67l-45.98,31.63,26.99,25.3-40.99,6.33-5.41,2.42-17.59,73.49L0,444.92l.59,635.08h1919.32l-.59-630.87h-712.75Z"/>
      <path class="cls-17" d="M76.72,46.81s150.91,0,89.26,23.67c-61.65,23.67-101.57,30.76-41.58,61.53,59.99,30.76,149.24,56.8,66.43,85.19-82.82,28.4-146.31,54.43-32.21,63.9,114.1,9.47,229.12,73.36,136.19,87.56-92.94,14.2-162.87-9.47-92.02,16.57,70.85,26.03,138.03,47.33-11.96,35.5-149.99-11.83-242.93-42.6-149.07-52.06,93.86-9.47,186.79-9.47,116.86-37.86-69.93-28.4-142.63-75.73-97.54-106.49,45.09-30.76,102.14-49.7,47.85-78.09C54.64,117.81,13.23,75.21,52.8,70.48c39.57-4.73,114.1,11.83,23.92-23.67Z"/>
      <polygon class="cls-2" points="1920 584 994 584 994.16 4 1919.68 4 1920 584"/>
      <g class="cls-25">
        <path class="cls-9" d="M1434.41,142.87c0-15.34-64.48-27.77-144.03-27.77-28.23,0-54.56,1.57-76.78,4.27-20.33-18.57-63.33-31.37-113.1-31.37-69.36,0-125.59,24.87-125.59,55.55,0,10.18,6.2,19.72,17.01,27.93-51.13,4.12-89.78,23.11-89.78,45.91,0,25.81,49.53,46.74,110.64,46.74,46.24,0,85.85-11.99,102.38-29,27.95,2.95,59.74,4.62,93.48,4.62,111.47,0,201.84-18.2,201.84-40.64,0-12.07-26.14-22.91-67.63-30.35,53.59-4.05,91.55-14.1,91.55-25.87Z"/>
        <path class="cls-9" d="M2251.25,195.53c41.52-6.61,67.71-16.5,67.76-27.75.1-20.92-90.18-38.6-201.65-39.48-33.73-.27-65.53,1.03-93.5,3.56-16.46-15.99-56.01-27.48-102.25-27.84-61.1-.49-110.73,18.62-110.85,42.68-.11,21.25,38.45,39.25,89.56,43.5-10.85,7.56-17.1,16.41-17.14,25.9-.14,28.59,55.97,52.22,125.33,52.77,49.77.4,92.83-11.2,113.24-28.34,22.21,2.7,48.53,4.37,76.76,4.59,79.54.63,144.08-10.44,144.16-24.74.05-10.97-37.85-20.64-91.43-24.84Z"/>
      </g>
      <g>
        <rect class="cls-22" x="1409.61" y="292.68" width="189.66" height="209.22" transform="translate(7.14 -26.12) rotate(1)"/>
        <ellipse class="cls-26" cx="1603.07" cy="399.86" rx="105.46" ry="21.26" transform="translate(1175.38 1995.72) rotate(-89)"/>
        <ellipse class="cls-23" cx="1603.07" cy="399.86" rx="44.29" ry="8.93" transform="translate(1175.38 1995.72) rotate(-89)"/>
        <path class="cls-20" d="M1600.23,499.48s-2.86,7.46-5.81,5.7c-1.3-.77-43.73-1.93-90.74-2.98-13.62-.3-27.62-.6-41.12-.88-27.09-.55-52.15-1.02-68.02-1.31-10.81-.2-17.36-.31-17.36-.31,0,0-29.61-58.36-15.01-115.09,14.6-56.74,27.75-176.87,12.15-184.8l10.63.18,17.41,26.25,14.46.25-4.09-9.43,8.37-16.44s13.69-4.44,17.94-4.37c4.25.07,7.45,12.04,7.45,12.04l-5.27,9.69,15.94,12.61,13.26-4.45-8.98-21.85,16.6-.56,9.99,12.51-11.77,16.38,18.25,2.02,10.73-30.01,22.41,7.62-14.77,18.03,20.33,5.03,3.17-11-4.19-3.48,4.38-7.58,16.17-.57,5.31,12.85-.18,10.2,15.16,8.77,5.26-33.51,16.16-.14s-40.88,41.99-22.51,169.95c4.79,33.42,13.64,72.71,28.3,118.65Z"/>
        <path class="cls-8" d="M1468.86,486.41c-6.23,5.25-7.77,10.54-6.29,14.91-27.09-.55-52.15-1.02-68.02-1.31,1.33-10.4-1.91-23.91-15.38-40.68-37.05-46.15,23.84-13.69,28.63-8.01,4.91,5.81,11.38,30.39,20.02,22.89,8.64-7.51,13.51-18.48-.23-35.73-13.73-17.25-3.41-40.59,7.15-44.53,8.02-2.99,31.46,6.46,30.79,15-1.43,18.17-12.74,23.17-26.28,68.02-13.54,44.85,8.82,6.53,19.45-17.95,10.63-24.48,34.77-13.5,37.08-4.46,2.58,10.1-6.64,14.77-26.92,31.85Z"/>
        <path class="cls-8" d="M1600.23,499.48s-2.86,7.46-5.81,5.7c-1.3-.77-43.73-1.93-90.74-2.98,10.68-11.74-15.8-15.77-.03-35.17,17.38-21.39,6.62,10.75,25.3,12.77,18.68,2.03,9.26-18.98-15.56-34.72-24.82-15.74-7.66-51.17,5.14-50.95,14.03.24,2.44,6.42,7.17,27.77,4.73,21.35,9.65,7.4,37.11-30.4,3.23-4.46,6.28-7.96,9.13-10.68,4.79,33.42,13.64,72.71,28.3,118.65Z"/>
      </g>
      <polygon class="cls-3" points="1918 1078 745.44 1078 745.64 598 1917.59 598 1918 1078"/>
      <rect class="cls-16" x="748" y="782.8" width="1166" height="295.2"/>
      <g>
        <rect class="cls-22" x="1212.76" y="733.98" width="230.9" height="254.71" transform="translate(476.9 2195.99) rotate(-90.43)"/>
        <ellipse class="cls-26" cx="1328.33" cy="741.22" rx="128.39" ry="25.89" transform="translate(-5.55 10.03) rotate(-.43)"/>
        <ellipse class="cls-23" cx="1328.33" cy="741.22" rx="53.92" ry="10.87" transform="translate(-5.55 10.03) rotate(-.43)"/>
        <path class="cls-22" d="M1190.67,955.86s-3.16,14.4-3.48,16.62c-.31,2.23-12.26,10.22-12.26,10.22l-118.15.63-155.75-9.09,9.4-3.74,12.81-.26,15.19,2.69-20.64-5.36,6.21-2.48c2.3,1.38,4.1,2.49,4.1,2.49l5.86.26s-2.62-2.2-5.2-4.63l3.87-1.55,258.03-5.8Z"/>
        <path class="cls-8" d="M1264.43,836.48s-32.7-17.5-24.7,2.5,29.23,11.87,6.62,29.43c-22.62,17.57-39.62,16.57-29.62,29.57s-3.35,19.07,14.83,19.54,25.17,3.46,31.17-4.54-24.7-4.91,12.65-19.95c37.35-15.05,14.35-1.05,55.35-30.05s113.22-30,51.11-41c-62.11-11-84.11-16-93.11-7s-11.26,26-8.13,32-16.17-10.5-16.17-10.5Z"/>
        <path class="cls-20" d="M1456.42,975.82s-24.3.07-58.18,1.14c-6.41.2-13.15.43-20.15.7-29.51,1.17-63.36,3.08-94.03,6.18-76.36,7.72-249.6,2.76-227.28-.52,31.24-4.58,94.06-11,150.26-33.54,40.28-16.14,87.43-52.02,129.81-89.6,56.13-49.75,103.91-102.51,116.29-116.42,2.04-2.29,3.11-3.52,3.11-3.52l.12,169.43.03,46.13.02,20.01Z"/>
        <path class="cls-8" d="M1456.62,955.82c-.07,0-.15-.02-.22-.01-12.66-.94-28.94,2.49-48.86,15.47-3.46,2.26-6.54,4.14-9.3,5.68-6.41.2-13.15.43-20.15.7.71-9.89,14.99-30.37,18.9-33.04,6.92-4.75,36.67-11.45,27.29-19.37-9.38-7.9-22.87-12.19-43.48,1.12-20.61,13.33-49.3,4.24-54.4-5.57-3.87-7.45,6.98-29.68,17.38-29.27,22.16.89,28.56,11.36,83.52,22.92,54.97,11.55,7.7-8.44-22.39-17.8-30.1-9.35-17.42-32.27-6.47-34.67,12.21-2.68,18.16,5.85,39.53,24.44,6.56,5.71,13.04,7.02,18.33,5.53.02,6.05.05,11.97.07,17.71.08,18.41.18,34.78.25,46.14Z"/>
        <path class="cls-8" d="M1455.91,859.02c-14.6-12.65-18.72,19.71-42.8,1.1-26.55-20.51,12.88-8.37,14.78-31.17,1.9-22.8-23.38-10.69-41.78,19.99-11.76,19.61-33.82,18.59-48.25,11.25,56.13-49.75,103.91-102.51,116.29-116.42,1.97,1.26,3.65,2.94,2.65,4.72-.89,1.61-1.02,53.28-.88,110.53Z"/>
      </g>
      <path class="cls-21" d="M822,1021l-77-26,68,12-62-44,57,16s-41-73-48-87,81,77,82,79l8-74,10,72,37.11-30.4-27.11,52.4,43,10-47.98,20"/>
      <path class="cls-21" d="M1677,1043l77-26-68,12,62-44-57,16s41-73,48-87c7-14-81,77-82,79l-8-74-10,72-37.11-30.4,27.11,52.4-43,10,47.98,20"/>
      <path class="cls-21" d="M1819,838l-77-26,68,12-62-44,57,16s-41-73-48-87c-7-14,81,77,82,79l8-74,10,72,37.11-30.4-27.11,52.4,43,10-47.98,20"/>
      <path class="cls-21" d="M978,820l-77-26,68,12-31-40,26,12s17-71,10-85c-7-14,23,75,24,77l51-70-36,79,50-24-48,48,54-3-47.98,20"/>
      <g>
        <ellipse class="cls-6" cx="381.35" cy="613.5" rx="242.63" ry="266.79"/>
        <path class="cls-18" d="M627.02,635.59c4.14-.8,31.75-6.65,46.72-33.24,18.67-33.16-.02-67.15-.94-68.76-41.47-18.94-85.77-37.76-132.82-55.96-48.7-18.84-95.65-35.19-140.45-49.43-10.13,6.02-16.27,17.03-15.99,28.73.42,17.11,14.36,26.12,15.39,26.76,35.27,20.47,71.84,42.99,109.34,67.76,42.66,28.18,82.23,56.42,118.75,84.14Z"/>
        <path class="cls-11" d="M569.76,760.71s-72.49,144.7-109.52,193.37c-7.29,9.58-19.71,13.59-31.13,9.92l-60.75-19.52c-11.73-3.77-19.69-14.75-19.67-27.14l.11-87.16,220.96-69.47Z"/>
        <path class="cls-18" d="M283.4,475.7c45.28-61,73.02-185.95-24.83-224.9,0,0-21.91-10.29-4.38-33.81,17.53-23.52,39.8-87.46,128.34-89.67,88.54,2.2,110.82,66.15,128.34,89.67,17.53,23.52-4.38,33.81-4.38,33.81-97.85,38.95-70.1,163.9-24.83,224.9,45.28,61,243.2,400.31-99.13,421.14-342.33-20.82-144.41-360.13-99.13-421.14Z"/>
        <ellipse class="cls-7" cx="475.28" cy="162.9" rx="34.22" ry="57.9"/>
        <ellipse class="cls-1" cx="477.24" cy="164.34" rx="17.68" ry="21.51"/>
        <ellipse class="cls-7" cx="466.44" cy="142.83" rx="10.8" ry="13.13"/>
        <path class="cls-24" d="M382.94,896.83c-342.33-20.82-144.41-360.13-99.13-421.14,22.17-29.87,40.13-80.7,41.2-123.63,8.61,5.26,28.74,15.97,56.47,16.33,29.41.38,50.77-11.09,59.35-16.33-.45,44.57,18.1,92.45,41.25,123.63,45.28,61,243.2,400.31-99.13,421.14Z"/>
        <ellipse class="cls-7" cx="346.6" cy="160.36" rx="34.22" ry="55.36"/>
        <path class="cls-4" d="M578.47,756.09c-39.11,17.54-112.25,44.12-206.89,42.07-83.56-1.81-148.49-25.16-186.17-42.07"/>
        <path class="cls-5" d="M542.33,582.68c-31.92,17.54-91.61,44.12-168.85,42.07-68.2-1.81-119.02-25.53-149.77-42.44"/>
        <path class="cls-4" d="M459,435.86c-39.11,17.54-115.83,17.49-156.37,7.29"/>
        <ellipse class="cls-1" cx="346.4" cy="164.34" rx="17.68" ry="21.51"/>
        <path class="cls-18" d="M358.56,984.14l52.26-27.58c10.09-5.33,15.32-17.15,12.93-29.22l-16.19-81.67c-.44-2.22-1.25-4.36-2.41-6.32-8.16-13.81-34.4-53.06-82.63-68.34-39.27-12.44-103.42-9.72-119.25,23.43-16.25,34.04,26.46,83.49,50.94,111.83,36.6,42.37,77.62,65.56,104.35,77.86Z"/>
        <path class="cls-18" d="M78.41,644.96c-4.01-1.29-30.74-10.4-42.46-38.59-14.62-35.16,7.95-66.67,9.06-68.16,43.42-13.84,89.62-27.22,138.49-39.66,50.58-12.87,99.13-23.49,145.3-32.26,9.35,7.19,14.15,18.86,12.48,30.44-2.44,16.94-17.34,24.21-18.44,24.73-37.44,16.1-76.41,34.08-116.57,54.19-45.69,22.87-88.31,46.18-127.85,69.32Z"/>
        <ellipse class="cls-7" cx="335.6" cy="142.83" rx="10.8" ry="13.13"/>
        <g class="cls-13">
          <path class="cls-10" d="M578.47,578.65c-20.46,16.54-89.93,68.46-192.78,69.7-107.5,1.29-180.41-53.64-200.28-69.7"/>
          <path class="cls-10" d="M578.47,412.65c-20.73,16.35-91.85,68.28-196.53,68.28-104.68,0-175.8-51.93-196.53-68.28"/>
        </g>
        <g>
          <path class="cls-12" d="M351.89,258.86c.6,6.99,3.17,14.53,9.83,20.71,8.15,7.58,22.45,13.14,46.75,13.17h0c.21.01.4,0,.6,0,.21,0,.4.01.61.01h0c24.3-.04,38.59-5.6,46.75-13.19,6.66-6.18,9.22-13.72,9.83-20.71,1.33-15.69-26.97-20.48-36.85-15.97-3.35,1.54-8.73,3.58-13.19,5.19-4.47,1.62-9.79,1.58-14.21-.1-4.43-1.68-9.77-3.75-13.29-5.09-9.95-3.78-38.19.28-36.85,15.97Z"/>
          <path class="cls-15" d="M361.73,279.57c8.15,7.58,22.45,13.14,46.75,13.17h0c.21.01.4,0,.6,0,.21,0,.4.01.61.01h0c24.3-.04,38.59-5.6,46.75-13.19-5.94-10.43-24.9-18.05-47.37-18.05-22.47,0-41.41,7.62-47.35,18.05Z"/>
        </g>
      </g>
      <path class="cls-19" d="M1635.97,364.78c-.03,94.78-39.97,164.22-39.97,164.22"/>
      <path class="cls-19" d="M1390.47,523.61s-53.06-20.35-69.26-95.48"/>
      <path class="cls-19" d="M1671,219s5,126.71-16,180.86c0,0,55-104.86,16-180.86Z"/>
      <path class="cls-19" d="M1349.72,223.5s-37.72,103.5-7.72,163.5c0,0-1.56-134,7.72-163.5Z"/>
      <path class="cls-19" d="M1417.87,536.98s70.09,15.02,98.61,3.02"/>
      <path class="cls-19" d="M1482.83,523.61s34.17,19.39,98.17-4.61"/>
    </g>
  </g>
</svg>