<?xml version="1.0" encoding="UTF-8"?>
<svg xmlns="http://www.w3.org/2000/svg" xmlns:xlink="http://www.w3.org/1999/xlink" viewBox="0 0 1920 1080">
  <defs>
    <style>
      .cls-1 {
        fill: #821028;
      }

      .cls-2 {
        fill: #53847b;
      }

      .cls-3 {
        fill: #d38529;
      }

      .cls-4 {
        fill: #959fab;
      }

      .cls-5 {
        fill: #f2b9b1;
      }

      .cls-6 {
        fill: #bba590;
      }

      .cls-7 {
        fill: #407768;
      }

      .cls-8 {
        fill: #032036;
      }

      .cls-8, .cls-9, .cls-10 {
        opacity: .3;
      }

      .cls-11 {
        fill: #89c64e;
      }

      .cls-12 {
        fill: #5e8e76;
      }

      .cls-13 {
        fill: none;
      }

      .cls-14 {
        fill: #b1c6dd;
      }

      .cls-15 {
        fill: #d65143;
      }

      .cls-16 {
        fill: #6e76af;
      }

      .cls-9 {
        fill: #01577a;
      }

      .cls-17 {
        clip-path: url(#clippath-1);
      }

      .cls-18 {
        isolation: isolate;
      }

      .cls-19 {
        fill: #14161c;
      }

      .cls-20 {
        fill: #d3d3d3;
      }

      .cls-21 {
        clip-path: url(#clippath-3);
      }

      .cls-22 {
        fill: #a1aace;
      }

      .cls-23 {
        fill: #e5e4c7;
      }

      .cls-24 {
        fill: #b4b8bf;
      }

      .cls-25 {
        fill: #9a7c6f;
      }

      .cls-26 {
        fill: url(#Degradado_sin_nombre_3);
      }

      .cls-27 {
        fill: #a3e0e8;
        mix-blend-mode: luminosity;
        opacity: .68;
      }

      .cls-28 {
        fill: #e2f2ef;
      }

      .cls-29 {
        fill: #f8dbd7;
      }

      .cls-30 {
        fill: #006991;
        opacity: .67;
      }

      .cls-31 {
        clip-path: url(#clippath-2);
      }

      .cls-32 {
        fill: #dcdcdc;
      }

      .cls-33 {
        fill: #f4f9d9;
      }

      .cls-34 {
        fill: #43140e;
      }

      .cls-35 {
        fill: #ecaa53;
      }

      .cls-36 {
        fill: #af8445;
        mix-blend-mode: multiply;
        opacity: .63;
      }

      .cls-37 {
        fill: #fffffe;
      }

      .cls-38 {
        clip-path: url(#clippath);
      }

      .cls-10 {
        fill: #003752;
      }

      .cls-39 {
        fill: #ca7346;
      }
    </style>
    <linearGradient id="Degradado_sin_nombre_3" data-name="Degradado sin nombre 3" x1="486.17" y1="1360.69" x2="1433.83" y2="-280.69" gradientUnits="userSpaceOnUse">
      <stop offset="0" stop-color="#012b3d"/>
      <stop offset="1" stop-color="#000"/>
    </linearGradient>
    <clipPath id="clippath">
      <rect class="cls-13" width="1920" height="1080"/>
    </clipPath>
    <clipPath id="clippath-1">
      <path class="cls-13" d="M1584.92,628.91c.31,4.77,10.68,54,21.89,92.79,11.21,38.79,63.35,120,111.8,49.65,48.45-70.35,58.42-163.78,38.29-196.12-20.12-32.34-9.23-54.88-60.59-58.18-51.36-3.29-75.14-17.51-93.57,23.54-18.43,41.06-18.31,90.77-18.31,90.77"/>
    </clipPath>
    <clipPath id="clippath-2">
      <ellipse class="cls-13" cx="586.93" cy="528.17" rx="26.55" ry="25.37"/>
    </clipPath>
    <clipPath id="clippath-3">
      <path class="cls-13" d="M1390.22,539.97c14.31-5.51,96.93-22.45,96.93-22.45,0,0,34.53,42.97,25.27,65.1-9.26,22.13-15.76,42.42-15.76,42.42,0,0-34.89,36.16-45.54,59.21-10.65,23.05-29.61,51.63-29.61,51.63,0,0-70.56-19.03-85.03-54.35-14.47-35.32-8.13-108.44-8.13-108.44l53.35-38.44,8.53,5.32Z"/>
    </clipPath>
  </defs>
  <g class="cls-18">
    <g id="Capa_2" data-name="Capa 2">
      <g id="Capa_2-2" data-name="Capa 2">
        <rect class="cls-26" width="1920" height="1080"/>
        <g class="cls-38">
          <ellipse class="cls-8" cx="694" cy="751" rx="752" ry="540.21"/>
          <ellipse class="cls-10" cx="694" cy="751" rx="544.22" ry="390.95"/>
        </g>
        <ellipse class="cls-9" cx="694" cy="751" rx="327.6" ry="235.34"/>
        <path class="cls-37" d="M814,122s3,17-16,17c0,0,17,0,16,16,0,0,0-15,17-15,0,0-18,1-17-18Z"/>
        <g>
          <path class="cls-37" d="M703,196s3,17-16,17c0,0,17,0,16,16,0,0,0-15,17-15,0,0-18,1-17-18Z"/>
          <path class="cls-37" d="M1439.97,122.35s3,17-16,17c0,0,17,0,16,16,0,0,0-15,17-15,0,0-18,1-17-18Z"/>
          <path class="cls-37" d="M336.48,88.68s3,17-16,17c0,0,17,0,16,16,0,0,0-15,17-15,0,0-18,1-17-18Z"/>
          <path class="cls-37" d="M98.48,219.68s3,17-16,17c0,0,17,0,16,16,0,0,0-15,17-15,0,0-18,1-17-18Z"/>
          <path class="cls-37" d="M240.45,450.03s3,17-16,17c0,0,17,0,16,16,0,0,0-15,17-15,0,0-18,1-17-18Z"/>
          <path class="cls-37" d="M1310.71,681.93s3,17-16,17c0,0,17,0,16,16,0,0,0-15,17-15,0,0-18,1-17-18Z"/>
          <path class="cls-37" d="M1713.73,449.75s3,17-16,17c0,0,17,0,16,16,0,0,0-15,17-15,0,0-18,1-17-18Z"/>
          <path class="cls-37" d="M1293.73,270.75s3,17-16,17c0,0,17,0,16,16,0,0,0-15,17-15,0,0-18,1-17-18Z"/>
          <path class="cls-37" d="M1679.7,122.1s3,17-16,17c0,0,17,0,16,16,0,0,0-15,17-15,0,0-18,1-17-18Z"/>
          <path class="cls-37" d="M1731.7,750.75s-3,17,16,17c0,0-17,0-16,16,0,0,0-15-17-15,0,0,18,1,17-18Z"/>
          <path class="cls-37" d="M1825.7,864.75s-3,17,16,17c0,0-17,0-16,16,0,0,0-15-17-15,0,0,18,1,17-18Z"/>
          <path class="cls-37" d="M1523.73,865.1s-3,17,16,17c0,0-17,0-16,16,0,0,0-15-17-15,0,0,18,1,17-18Z"/>
          <path class="cls-37" d="M522.95,954.28s-15.56,7.47-20.68-10.82c0,0,4.58,16.37-11.09,19.72,0,0,14.44-4.04,19.03,12.33,0,0-5.82-17.06,12.75-21.22Z"/>
          <path class="cls-37" d="M332.63,760.42s-15.56,7.47-20.68-10.82c0,0,4.58,16.37-11.09,19.72,0,0,14.44-4.04,19.03,12.33,0,0-5.82-17.06,12.75-21.22Z"/>
          <path class="cls-37" d="M149.09,959.24s-15.56,7.47-20.68-10.82c0,0,4.58,16.37-11.09,19.72,0,0,14.44-4.04,19.03,12.33,0,0-5.82-17.06,12.75-21.22Z"/>
          <path class="cls-37" d="M960.02,762.14s-15.56,7.47-20.68-10.82c0,0,4.58,16.37-11.09,19.72,0,0,14.44-4.04,19.03,12.33,0,0-5.82-17.06,12.75-21.22Z"/>
          <path class="cls-37" d="M394.21,164.63s1.75,9.92-9.34,9.92c0,0,9.92,0,9.34,9.34,0,0,0-8.76,9.92-8.76,0,0-10.51.58-9.92-10.51Z"/>
          <path class="cls-37" d="M824.46,121.63s1.75,9.92-9.34,9.92c0,0,9.92,0,9.34,9.34,0,0,0-8.76,9.92-8.76,0,0-10.51.58-9.92-10.51Z"/>
          <path class="cls-37" d="M180.23,101.97s1.75,9.92-9.34,9.92c0,0,9.92,0,9.34,9.34,0,0,0-8.76,9.92-8.76,0,0-10.51.58-9.92-10.51Z"/>
          <path class="cls-37" d="M41.28,178.45s1.75,9.92-9.34,9.92c0,0,9.92,0,9.34,9.34,0,0,0-8.76,9.92-8.76,0,0-10.51.58-9.92-10.51Z"/>
          <path class="cls-37" d="M124.16,312.94s1.75,9.92-9.34,9.92c0,0,9.92,0,9.34,9.34,0,0,0-8.76,9.92-8.76,0,0-10.51.58-9.92-10.51Z"/>
          <path class="cls-37" d="M749,448.33s1.75,9.92-9.34,9.92c0,0,9.92,0,9.34,9.34,0,0,0-8.76,9.92-8.76,0,0-10.51.58-9.92-10.51Z"/>
          <path class="cls-37" d="M984.29,312.78s1.75,9.92-9.34,9.92c0,0,9.92,0,9.34,9.34,0,0,0-8.76,9.92-8.76,0,0-10.51.58-9.92-10.51Z"/>
          <path class="cls-37" d="M739.09,208.27s1.75,9.92-9.34,9.92c0,0,9.92,0,9.34,9.34,0,0,0-8.76,9.92-8.76,0,0-10.51.58-9.92-10.51Z"/>
          <path class="cls-37" d="M964.42,121.49s1.75,9.92-9.34,9.92c0,0,9.92,0,9.34,9.34,0,0,0-8.76,9.92-8.76,0,0-10.51.58-9.92-10.51Z"/>
          <path class="cls-37" d="M994.78,488.51s-1.75,9.92,9.34,9.92c0,0-9.92,0-9.34,9.34,0,0,0-8.76-9.92-8.76,0,0,10.51.58,9.92-10.51Z"/>
          <path class="cls-37" d="M1049.66,555.06s-1.75,9.92,9.34,9.92c0,0-9.92,0-9.34,9.34,0,0,0-8.76-9.92-8.76,0,0,10.51.58,9.92-10.51Z"/>
          <path class="cls-37" d="M873.36,555.27s-1.75,9.92,9.34,9.92c0,0-9.92,0-9.34,9.34,0,0,0-8.76-9.92-8.76,0,0,10.51.58,9.92-10.51Z"/>
          <path class="cls-37" d="M289.09,607.33s-9.09,4.36-12.08-6.32c0,0,2.68,9.56-6.48,11.51,0,0,8.43-2.36,11.11,7.2,0,0-3.4-9.96,7.44-12.39Z"/>
          <path class="cls-37" d="M177.98,494.15s-9.09,4.36-12.08-6.32c0,0,2.68,9.56-6.48,11.51,0,0,8.43-2.36,11.11,7.2,0,0-3.4-9.96,7.44-12.39Z"/>
          <path class="cls-37" d="M70.82,610.23s-9.09,4.36-12.08-6.32c0,0,2.68,9.56-6.48,11.51,0,0,8.43-2.36,11.11,7.2,0,0-3.4-9.96,7.44-12.39Z"/>
          <path class="cls-37" d="M544.26,495.16s-9.09,4.36-12.08-6.32c0,0,2.68,9.56-6.48,11.51,0,0,8.43-2.36,11.11,7.2,0,0-3.4-9.96,7.44-12.39Z"/>
          <path class="cls-37" d="M994.1,530.27s1.75,9.92-9.34,9.92c0,0,9.92,0,9.34,9.34,0,0,0-8.76,9.92-8.76,0,0-10.51.58-9.92-10.51Z"/>
          <path class="cls-37" d="M1424.36,487.27s1.75,9.92-9.34,9.92c0,0,9.92,0,9.34,9.34,0,0,0-8.76,9.92-8.76,0,0-10.51.58-9.92-10.51Z"/>
          <path class="cls-37" d="M780.12,467.61s1.75,9.92-9.34,9.92c0,0,9.92,0,9.34,9.34,0,0,0-8.76,9.92-8.76,0,0-10.51.58-9.92-10.51Z"/>
          <path class="cls-37" d="M641.17,544.09s1.75,9.92-9.34,9.92c0,0,9.92,0,9.34,9.34,0,0,0-8.76,9.92-8.76,0,0-10.51.58-9.92-10.51Z"/>
          <path class="cls-37" d="M724.05,678.58s1.75,9.92-9.34,9.92c0,0,9.92,0,9.34,9.34,0,0,0-8.76,9.92-8.76,0,0-10.51.58-9.92-10.51Z"/>
          <path class="cls-37" d="M1348.89,813.96s1.75,9.92-9.34,9.92c0,0,9.92,0,9.34,9.34,0,0,0-8.76,9.92-8.76,0,0-10.51.58-9.92-10.51Z"/>
          <path class="cls-37" d="M1584.18,678.42s1.75,9.92-9.34,9.92c0,0,9.92,0,9.34,9.34,0,0,0-8.76,9.92-8.76,0,0-10.51.58-9.92-10.51Z"/>
          <path class="cls-37" d="M1338.98,573.91s1.75,9.92-9.34,9.92c0,0,9.92,0,9.34,9.34,0,0,0-8.76,9.92-8.76,0,0-10.51.58-9.92-10.51Z"/>
          <path class="cls-37" d="M1564.31,487.13s1.75,9.92-9.34,9.92c0,0,9.92,0,9.34,9.34,0,0,0-8.76,9.92-8.76,0,0-10.51.58-9.92-10.51Z"/>
          <path class="cls-37" d="M1594.67,854.15s-1.75,9.92,9.34,9.92c0,0-9.92,0-9.34,9.34,0,0,0-8.76-9.92-8.76,0,0,10.51.58,9.92-10.51Z"/>
          <path class="cls-37" d="M1649.55,920.7s-1.75,9.92,9.34,9.92c0,0-9.92,0-9.34,9.34,0,0,0-8.76-9.92-8.76,0,0,10.51.58,9.92-10.51Z"/>
          <path class="cls-37" d="M1473.26,920.91s-1.75,9.92,9.34,9.92c0,0-9.92,0-9.34,9.34,0,0,0-8.76-9.92-8.76,0,0,10.51.58,9.92-10.51Z"/>
          <path class="cls-37" d="M888.98,972.97s-9.09,4.36-12.08-6.32c0,0,2.68,9.56-6.48,11.51,0,0,8.43-2.36,11.11,7.2,0,0-3.4-9.96,7.44-12.39Z"/>
          <path class="cls-37" d="M777.87,859.79s-9.09,4.36-12.08-6.32c0,0,2.68,9.56-6.48,11.51,0,0,8.43-2.36,11.11,7.2,0,0-3.4-9.96,7.44-12.39Z"/>
          <path class="cls-37" d="M670.72,975.87s-9.09,4.36-12.08-6.32c0,0,2.68,9.56-6.48,11.51,0,0,8.43-2.36,11.11,7.2,0,0-3.4-9.96,7.44-12.39Z"/>
          <path class="cls-37" d="M1144.15,860.79s-9.09,4.36-12.08-6.32c0,0,2.68,9.56-6.48,11.51,0,0,8.43-2.36,11.11,7.2,0,0-3.4-9.96,7.44-12.39Z"/>
          <path class="cls-37" d="M1783.14,76.17s3,17-16,17c0,0,17,0,16,16,0,0,0-15,17-15,0,0-18,1-17-18Z"/>
          <path class="cls-37" d="M1545.14,207.17s3,17-16,17c0,0,17,0,16,16,0,0,0-15,17-15,0,0-18,1-17-18Z"/>
          <path class="cls-37" d="M1626.88,89.47s1.75,9.92-9.34,9.92c0,0,9.92,0,9.34,9.34,0,0,0-8.76,9.92-8.76,0,0-10.51.58-9.92-10.51Z"/>
          <path class="cls-37" d="M1487.93,165.95s1.75,9.92-9.34,9.92c0,0,9.92,0,9.34,9.34,0,0,0-8.76,9.92-8.76,0,0-10.51.58-9.92-10.51Z"/>
          <path class="cls-37" d="M1570.81,300.43s1.75,9.92-9.34,9.92c0,0,9.92,0,9.34,9.34,0,0,0-8.76,9.92-8.76,0,0-10.51.58-9.92-10.51Z"/>
        </g>
        <circle class="cls-30" cx="694" cy="751" r="88.25"/>
        <g class="cls-17">
          <path class="cls-4" d="M1675.73,672.95l-10.98-21.07-12.5-7.23,28.57-9.55-30.1-14.32,31.78-6.55-1.28-10.52c-10.78-10.57-23.67-19.53-32.23-30.41-24.24-30.81-62.63,65.13-62.63,65.13,0,0,4.05-20.15-59.72-37.88l.02-.08c-.19-.03-.37-.05-.56-.07-.18-.05-.36-.1-.55-.15l-.02.08c-65.66-8.37-69.74,11.77-69.74,11.77,0,0,1.81-103.32-32.48-84.32-34.29,19.01-94.72,10.35-76.94,104.66,17.77,94.31,61.05,37.06,61.05,37.06l7.26,89.83s32.85,45.83,67.94,53.73v.04c34.79,9.38,84.57-23,84.57-23l41.52-80s17.69,69.55,70.64-10.49c7.25-10.95,12.38-20.69,15.81-29.43l-19.42,2.78Z"/>
        </g>
        <path class="cls-5" d="M1664.75,651.89l-12.5-7.23,20.67-6.91c-.68-2.49-1.45-4.99-2.3-7.5l-19.9-9.47,15.08-3.11c-8.11-19.13-18.22-35.23-18.22-35.23,0,0-52.87,67.1-53.1,68.23l15.4,43.17s48.24,6.2,63.4-24.92c.06-.12.11-.24.16-.36l-8.69-16.67Z"/>
        <g>
          <path class="cls-12" d="M809.45,380.61c0,6.03-.33,11.98-.97,17.86-8.72,80.26-75.58,144.17-159.98,153.2-4.9.53-9.85.87-14.86,1.02-.64.02-1.28.03-1.92.05-.53,0-1.07.02-1.6.02-.73,0-1.47.02-2.2.02-65.58,0-123.02-32.97-154.93-82.39-16.88-26.13-26.6-56.87-26.6-89.76,0-59.02,31.31-111.1,79.04-142.11.97-.64,1.95-1.26,2.94-1.87,28.58-17.81,62.79-28.17,99.55-28.17,41.39,0,79.54,13.14,110.08,35.25,37.49,27.16,63.5,67.86,69.91,114.39.78,5.68,1.27,11.44,1.45,17.28.05,1.74.09,3.48.09,5.24Z"/>
          <path class="cls-2" d="M611.13,286.53c-6.25,0-129.61.78-51.53,27.33,78.08,26.55,148.34,31.23,74.17,43.72s-87.44,36.7-46.06,42.94c41.38,6.25,73.39,11.71,100.72,10.93,27.33-.78,125.43,10.16,50.22-10.53-75.2-20.7-124.39-14.45-84.57-25.38,39.82-10.93,76.51-19.52,80.42-27.33s27.33-26.55-32.79-34.35c-60.12-7.81-128.83-3.9-60.12-17.18,68.71-13.27,89.01-12.49,83.54-15.62-5.47-3.12,21.08-8.59-53.09-10.93-74.17-2.34-168.64-17.18-112.43,0,56.21,17.18,51.53,16.4,51.53,16.4Z"/>
          <path class="cls-7" d="M809.45,380.61c0,6.03-.33,11.98-.97,17.86-8.72,80.26-75.58,144.17-159.98,153.2-5.02.52-9.99.87-14.86,1.02-.64.02-1.28.03-1.92.05-.53,0-1.07.02-1.6.02-.73,0-1.47.02-2.2.02-65.58,0-123.02-32.97-154.93-82.39-16.88-26.13-26.6-56.87-26.6-89.76,0-59.02,31.31-111.1,79.04-142.11-5.12,56.78-2.6,245.46,66.96,258.84,0,0-47.63,11.71-7.81,26.55,39.82,14.83,38.26-3.12,35.13-13.27,13.92,1.42,66.98,5.16,117.11-30.45,61.14-43.42,69.86-111.22,71.07-122.06.78,5.68,1.27,11.44,1.45,17.28.05,1.74.09,3.48.09,5.24Z"/>
          <path class="cls-6" d="M802.33,372.8c-.3.37-.52.99-.69,1.95-1.56,8.59-9.37,57-24.2,83.54-14.83,26.55-60.12,39.04-119.46,19.52-28.53-9.38-34.5-19.13-26.05-28.72,9.1-10.35,35.01-20.52,67.43-29.84,62.46-17.96,45.28-15.62-10.15-48.41-4.96-2.93-9.22-5.5-12.87-7.82-15.07-9.54-19.54-14.58-18.02-21.56,2.23-10.24,17.36-24.63,30.89-63.53,6.17-17.75,19.21-27.69,35.41-32.57,9.82-2.96,20.51-.61,28.29,6.07,28.81,24.77,49.2,58.19,56.59,95.94.08.4.15.8.2,1.19,1.31,8.72-1.84,17.24-7.37,24.22Z"/>
          <path class="cls-6" d="M616.55,420.8c-4.04,5.52-6.44,12.42-9.08,19.39-5.57,14.71-12.23,29.75-37.85,32.93-23.6,2.93-53.01,3.72-76.5,1.43-15.76-1.54-29.53-11.27-36.22-25.62-9.78-20.95-15.19-44.07-15.19-68.35,0-31.37,9.04-60.78,24.83-86.11,11.02-17.66,25.31-33.35,42.12-46.32,12.91-9.97,30.34-12.32,45.18-5.54,11.83,5.41,18.53,14.85,14.62,30.58-3.01,12.14-7.55,22.04-12.27,30.36-10.13,17.86-21.1,28.47-19.45,38.46,0,0,0,.02,0,.02.35,2.12,1.26,4.2,2.87,6.32,1.51,2.01,3.66,4.06,6.53,6.19,3.57,2.65,8.27,5.43,14.3,8.46,51.51,25.77,68.68,40.62,56.09,57.79Z"/>
          <path class="cls-25" d="M607.47,440.2c-5.57,14.71-12.23,29.75-37.85,32.93-23.6,2.93-53.01,3.72-76.5,1.43-15.76-1.54-29.53-11.27-36.22-25.62-9.78-20.95-15.19-44.07-15.19-68.35,0-31.37,9.04-60.78,24.83-86.11,1.09.88,1.72,1.42,1.72,1.42,0,0-55.43,169.42,32.01,168.64,87.44-.78,71.83,2.34,96.03-20.3,3.69-3.44,7.51-4.59,11.17-4.04Z"/>
          <path class="cls-25" d="M802.33,372.8c-.3.37-.52.99-.69,1.95-1.56,8.59-9.37,57-24.2,83.54-14.83,26.55-60.12,39.04-119.46,19.52-28.53-9.38-34.5-19.13-26.05-28.72,18.96,6.06,49.62,20.32,76.02,27.15,45.28,11.71,62.46-20.3,68.71-32.01,6.25-11.71,20.3-64.02,24.98-81.2,2.39-8.77,5.4-12.66,8.07-14.46,1.31,8.72-1.84,17.24-7.37,24.22Z"/>
          <ellipse class="cls-25" cx="737.62" cy="327.91" rx="12.49" ry="7.03"/>
          <ellipse class="cls-25" cx="759.09" cy="300.58" rx="1.95" ry="3.9"/>
          <ellipse class="cls-25" cx="719.27" cy="434.48" rx="12.88" ry="2.73"/>
          <ellipse class="cls-25" cx="581.86" cy="392.32" rx="19.13" ry="3.51"/>
          <path class="cls-25" d="M546.16,354.56c-2.47-1.03-4.71-3.2-6.53-6.19,1.51,2.01,3.66,4.06,6.53,6.19Z"/>
          <path class="cls-25" d="M536.74,342.02c-1.34-4.11-2.12-8.95-2.12-14.11,0-15.09,6.64-27.33,14.83-27.33,2.42,0,4.72,1.07,6.74,2.97-10.13,17.86-21.1,28.47-19.45,38.46Z"/>
          <ellipse class="cls-25" cx="529.54" cy="262.32" rx="13.66" ry="3.12"/>
          <path class="cls-25" d="M714.19,351.33c0,6.46-16.26,11.71-36.31,11.71-.52,0-1.04,0-1.55-.02-15.07-9.54-19.54-14.58-18.02-21.56,5.64-1.17,12.36-1.85,19.57-1.85,20.05,0,36.31,5.25,36.31,11.71Z"/>
          <ellipse class="cls-7" cx="600.98" cy="511" rx="9.76" ry="15.62" transform="translate(-104.99 862.99) rotate(-66.87)"/>
          <ellipse class="cls-25" cx="495.97" cy="420.04" rx="15.22" ry="3.9"/>
          <g class="cls-31">
            <g>
              <path class="cls-19" d="M595.43,496.93h0s0,0,0,0l-26.59,39.32c1.4-2.08,7.21-.6,12.97,3.3,5.76,3.9,9.29,8.74,7.89,10.81l26.78-39.59-.03-.02c.93-2.21-2.54-6.8-8.05-10.52-5.5-3.72-11.05-5.24-12.76-3.55l-.03-.02-.19.27Z"/>
              <path class="cls-35" d="M589.92,550.03l6.82-10.08c1.4-2.08-2.13-6.92-7.89-10.81-5.76-3.9-11.57-5.37-12.97-3.3l-6.82,10.08,20.86,14.11Z"/>
              <ellipse class="cls-3" cx="579.36" cy="543.17" rx="4.54" ry="12.59" transform="translate(-195.15 718.74) rotate(-55.93)"/>
              <ellipse class="cls-32" cx="579.49" cy="542.98" rx="2.77" ry="7.68" transform="translate(-194.93 718.76) rotate(-55.93)"/>
              <path class="cls-24" d="M576.63,541.21l-1.29,1.91,5.56,3.76,1.29-1.91s.07-.06.09-.1c.38-.56-.57-1.86-2.12-2.9s-3.1-1.44-3.48-.88c-.03.04-.04.08-.06.12Z"/>
              <ellipse class="cls-20" cx="578.12" cy="544.99" rx="1.22" ry="3.38" transform="translate(-197.2 718.52) rotate(-55.93)"/>
              <polygon class="cls-1" points="582.63 533.34 584.56 534.65 583.01 536.94 583.86 537.52 585.41 535.23 587.34 536.53 588.15 535.34 586.21 534.03 587.83 531.65 586.98 531.08 585.36 533.46 583.43 532.15 582.63 533.34"/>
              <path class="cls-27" d="M599.72,496.81c2,.82,4.73,2.21,7.53,4.51,2.45,2.02,4.18,4.12,5.34,5.76l-25.35,36.86c.49.6,1.8,2.33,1.94,2.57l24.33-35.38,2.07-3.01.32-.47c-.44-.82-1.09-1.71-1.89-2.63l-.79,1.16c-1.02-1.56-2.93-4.06-6.09-6.19-2.89-1.94-5.64-2.79-7.39-3.19Z"/>
              <path class="cls-36" d="M602.57,497.09c-1.65-.65-3.16-1.03-4.38-1.09l-27.03,39.31c.27,0,.55,0,.85.04.88.09,1.88.32,2.97.69.21.07.43.15.64.23l26.94-39.18Z"/>
            </g>
          </g>
          <path class="cls-28" d="M617.38,506.7c0,.78,10.15,6.25,3.12,13.27s-19.88,9.74-8.38,9.16c11.5-.58,16.19-.58,14.63-10.73-1.56-10.15-9.37-19.52-9.37-11.71Z"/>
          <path class="cls-28" d="M593.18,497.33c-1.37.76-16.8,3.35-17.18,6.25-.37,2.89-7.81,4.68-3.12-.78s27.33-9.37,20.3-5.47Z"/>
          <path class="cls-7" d="M615.04,494.21c8.59,4.68,3.9,9.37-1.56,5.47-5.47-3.9-1.56-4.68-10.15-4.68s-18.74-3.12-7.81-3.9c10.93-.78,19.52,3.12,19.52,3.12Z"/>
          <path class="cls-33" d="M725.12,491.09h.36c-.33.06-.36,0-.36,0Z"/>
          <path class="cls-33" d="M794.61,439.56l-8.59,42.16-11.71,19.52-7.81-14.05-9.37,14.05-7.03-10.15-4.87,6.33-2.94,3.82-10.15-10.15h-6.67c1.25-.25,6.83-2.44,31.65-17.96,25.15-15.72,11.31-17.26-15.81-44.98-6.57-6.71-13.91-14.94-21.67-25.29-12.52-16.7-16.01-24.91-13.98-30.2,4.41-11.53,35.02-9.25,55.36-51,26.5-54.39-30.45-74.17-30.45-74.17,14.03-10.2,41.09,15.54,50.53,25.31h0c2.12,2.19,3.34,3.58,3.34,3.58l8.72,31.16s-19.65,50.82-21.21,50.04c-.77-.38-3.76,7.6-6.62,15.88-3.01,8.69-5.87,17.69-5.87,17.69l8.59,11.83,26.55,36.58Z"/>
          <path class="cls-11" d="M766.5,348.21c19.52-16.4,12.49-17.18,10.93-27.33-1.56-10.15,2.34-29.66,3.69-48.07,2.12,2.19,3.34,3.57,3.34,3.57l8.72,31.16s-19.65,50.82-21.21,50.04c-.77-.38-3.76,7.6-6.62,15.88-3.15.2-6.43.19-9.78-.27-17.18-2.34-8.59-8.59,10.93-24.98Z"/>
          <path class="cls-11" d="M794.61,439.56l-8.59,42.16-11.71,19.52-7.81-14.05-9.37,14.05-7.03-10.15-4.87,6.33c1.66-4.19,4.27-8.93,7.21-14.14,10.15-17.96,16.4-5.47,25.77-17.18s-9.37-19.52-3.37-24c6-4.49,7.28-4.11-6.78-20.5-10.86-12.67-11.46-12.75,0-18.62l26.55,36.58Z"/>
          <path class="cls-11" d="M741.33,428.15c-6.57-6.71-13.91-14.94-21.67-25.29-12.52-16.7-16.01-24.91-13.98-30.2,11.27,4.02,22.64,10.81,19.44,16.15-4.68,7.81,0,21.08,10.93,23.42,10.93,2.34,16.78,11.54,5.27,15.92Z"/>
        </g>
        <path class="cls-29" d="M1377.62,893.52s-103.51-46.39-123.74-84.35c-20.72-38.87-19.01-6.9-7.27,10.77,11.74,17.67,79.5,76.22,127.92,89.05l3.1-15.48Z"/>
        <ellipse class="cls-25" cx="467.5" cy="392.5" rx="10.5" ry="3.5"/>
        <ellipse class="cls-25" cx="729.5" cy="299.5" rx="10.5" ry="3.5"/>
        <ellipse class="cls-25" cx="776.5" cy="372.5" rx="10.5" ry="3.5"/>
        <ellipse class="cls-25" cx="561.5" cy="451.5" rx="10.5" ry="3.5"/>
        <ellipse class="cls-25" cx="503.5" cy="280.5" rx="10.5" ry="3.5" transform="translate(-.4 560.28) rotate(-58.16)"/>
        <rect class="cls-39" x="466" y="203" width="9" height="88" transform="translate(-36.85 405.04) rotate(-45)"/>
        <rect class="cls-39" x="379.73" y="125.8" width="9" height="101.3" transform="translate(200.64 -204.42) rotate(39.6)"/>
        <path class="cls-34" d="M457.87,341.79c-.07.32-2.91,2.54-2.38,4.71s.96,7.73,2.18,8.97c1.22,1.24,2.96.82,3.18,4.28.23,3.47,1.09,8.93,1.2,9.36s1.39,1.96,1.9,2.14.16-2.49,3.09-3.05c2.93-.56,2.71-.81,2.57-1.39s.25,1.01.42,1.74-.21-.25-1.12-.19-2.24.24-2.21,1-1.67,1.32-.35,3.61c1.32,2.28,1.15,5.39.12,8.7s-1.29,3.53-.07,4.15c1.22.62.27-2.67,1.29.91s1.52,4.38,1.99,5.03-.11.18-1.45.35-1.29-.91-2.2-.23-1.09,1.18-1.77.28-2.09-6.08-1.53-8.82c.56-2.74,2.63-4.31,2.71-5.87s.1-4.01-1.23-5.06-3.53-.67-3.96-1.8-.57-.47-.2-2.71-.76-4.41-.21-5.92c.55-1.51-2.1-4.85-2.35-5.25s-.39-.98-1.94-1.06-3.93-.43-6.07.25c-2.14.67-4.34,1.05-5.25,2.35s-.67,2.92-.89,3.28-1.68,2.55-1.68,2.55c0,0,.78-2.49.89-2.67s-.56-2.32.2-2.96,3.08-1.82,3.08-1.82l5.76-2.16,2.64.13s1.19-.14,1.63-.24-.63-2.6-.63-2.6l-1.24-3.22.56-2.13.52-2.27,2.07-2.19,1-1.64,1.3-2.13-1.58,3.6Z"/>
        <path class="cls-34" d="M578.72,405.35c-.23.24-3.8.68-4.47,2.81-.67,2.13-3.16,7.12-2.76,8.81s2.11,2.22.52,5.31c-1.59,3.09-3.66,8.21-3.8,8.64s.19,2.4.52,2.82,1.42-2.05,4.22-1.02c2.8,1.03,2.74.7,2.92.13s-.31.99-.53,1.71-.05-.33-.86-.74-2.04-.95-2.41-.28-2.11.27-2.16,2.91c-.05,2.64-1.79,5.21-4.38,7.52-2.59,2.31-2.92,2.36-2.19,3.53.73,1.16,1.61-2.15.64,1.45s-.95,4.54-.89,5.34-.19.1-1.42-.44c-1.23-.54-.64-1.45-1.77-1.33s-1.55.45-1.66-.68,1.34-6.29,3.24-8.35,4.48-2.34,5.35-3.63c.87-1.29,2.15-3.38,1.56-4.97-.59-1.59-2.68-2.4-2.47-3.58.21-1.18-.25-.7,1.23-2.42,1.47-1.72,1.62-4.17,2.87-5.19,1.25-1.01.7-5.24.69-5.71s.17-1.04-1.12-1.91-3.15-2.39-5.33-2.91-4.26-1.33-5.71-.69-2.08,2.16-2.45,2.35-2.75,1.32-2.75,1.32c0,0,1.95-1.73,2.13-1.83s.71-2.27,1.7-2.43,3.58.03,3.58.03l6.05,1.11,2.19,1.47s1.09.5,1.52.63.8-2.56.8-2.56l.6-3.4,1.57-1.54,1.62-1.68,2.9-.81,1.7-.89,2.21-1.16-3.21,2.27Z"/>
        <path class="cls-34" d="M713.75,250.83c-.02.33-2.46,2.98-1.59,5.04s2.19,7.48,3.59,8.5,3.05.33,3.83,3.72c.78,3.39,2.52,8.63,2.69,9.05s1.69,1.71,2.22,1.81c.53.1-.24-2.48,2.56-3.51,2.8-1.02,2.55-1.24,2.32-1.79s.41.96.7,1.65-.25-.22-1.13,0c-.88.21-2.17.59-2.02,1.34s-1.44,1.58.23,3.62,2.01,5.13,1.52,8.57-.7,3.69.6,4.11-.16-2.68,1.42.69c1.59,3.37,2.21,4.08,2.77,4.65s-.08.2-1.37.58-1.42-.69-2.21.13-.89,1.34-1.7.56-3.04-5.67-2.93-8.46c.11-2.79,1.9-4.68,1.73-6.23s-.55-3.97-2.03-4.8c-1.48-.83-3.6-.1-4.2-1.14s-.64-.37-.63-2.64c.01-2.27-1.46-4.23-1.16-5.81.3-1.58-2.85-4.45-3.16-4.81s-.54-.9-2.09-.73c-1.55.17-3.95.21-5.95,1.22-2,1.01-4.11,1.74-4.81,3.16s-.19,2.99-.35,3.38-1.25,2.79-1.25,2.79c0,0,.37-2.58.44-2.77s-.93-2.19-.28-2.95,2.75-2.29,2.75-2.29l5.33-3.06,2.62-.3s1.16-.33,1.57-.5-1.04-2.47-1.04-2.47l-1.74-2.98.21-2.19.15-2.33,1.69-2.49.72-1.78.94-2.32-.98,3.81Z"/>
        <path class="cls-34" d="M721.94,424.93c-.32.1-3.66-1.22-5.27.33s-6.19,4.73-6.64,6.41.79,2.96-2.09,4.91-7.15,5.45-7.47,5.76-.99,2.19-.89,2.72,2.23-1.12,4.19,1.13c1.96,2.25,2.07,1.93,2.5,1.52s-.75.72-1.29,1.24.11-.31-.4-1.06c-.51-.75-1.34-1.81-1.98-1.4s-1.99-.77-3.29,1.52c-1.3,2.29-4.07,3.72-7.45,4.5s-3.7.67-3.62,2.04c.08,1.37,2.44-1.11-.13,1.58-2.58,2.69-3.01,3.53-3.34,4.26s-.21,0-1.03-1.07.13-1.58-.91-2.02c-1.04-.44-1.57-.34-1.13-1.39.44-1.04,4.19-4.87,6.84-5.77,2.65-.9,5.05.09,6.43-.62,1.38-.71,3.51-1.94,3.75-3.62.24-1.68-1.2-3.39-.45-4.33s.12-.73,2.24-1.54c2.12-.8,3.42-2.89,5.01-3.17,1.58-.29,3.13-4.26,3.35-4.68s.65-.83-.07-2.21c-.71-1.38-1.62-3.61-3.28-5.11s-3.1-3.21-4.68-3.35c-1.58-.13-2.86.9-3.28.89s-3.05-.16-3.05-.16c0,0,2.54-.59,2.75-.58s1.71-1.65,2.66-1.32,3.13,1.74,3.13,1.74l4.77,3.88,1.22,2.34s.72.96,1.03,1.28,1.93-1.86,1.93-1.86l2.15-2.7,2.12-.59,2.22-.7,2.94.68,1.92.03,2.5.05-3.9.46Z"/>
        <path class="cls-34" d="M812.94,341.93c-.32.1-3.66-1.22-5.27.33s-6.19,4.73-6.64,6.41.79,2.96-2.09,4.91-7.15,5.45-7.47,5.76-.99,2.19-.89,2.72,2.23-1.12,4.19,1.13c1.96,2.25,2.07,1.93,2.5,1.52s-.75.72-1.29,1.24.11-.31-.4-1.06c-.51-.75-1.34-1.81-1.98-1.4s-1.99-.77-3.29,1.52c-1.3,2.29-4.07,3.72-7.45,4.5s-3.7.67-3.62,2.04c.08,1.37,2.44-1.11-.13,1.58-2.58,2.69-3.01,3.53-3.34,4.26s-.21,0-1.03-1.07.13-1.58-.91-2.02c-1.04-.44-1.57-.34-1.13-1.39.44-1.04,4.19-4.87,6.84-5.77,2.65-.9,5.05.09,6.43-.62,1.38-.71,3.51-1.94,3.75-3.62.24-1.68-1.2-3.39-.45-4.33s.12-.73,2.24-1.54c2.12-.8,3.42-2.89,5.01-3.17,1.58-.29,3.13-4.26,3.35-4.68s.65-.83-.07-2.21c-.71-1.38-1.62-3.61-3.28-5.11s-3.1-3.21-4.68-3.35c-1.58-.13-2.86.9-3.28.89s-3.05-.16-3.05-.16c0,0,2.54-.59,2.75-.58s1.71-1.65,2.66-1.32,3.13,1.74,3.13,1.74l4.77,3.88,1.22,2.34s.72.96,1.03,1.28,1.93-1.86,1.93-1.86l2.15-2.7,2.12-.59,2.22-.7,2.94.68,1.92.03,2.5.05-3.9.46Z"/>
        <polygon class="cls-22" points="1450.2 555.56 1284.28 870.73 1275.67 913.39 1644.25 987.74 1653.81 940.34 1616.73 591.28 1450.2 555.56"/>
        <polygon class="cls-14" points="1421.53 650.56 1308.55 876.86 1476.72 923.12 1289.97 882.98 1301.68 875.48 1434.21 597.56 1421.53 650.56"/>
        <path class="cls-16" d="M1653.81,940.34l-37.08-349.06-166.53-35.72-7.27,14.27,31.37,6.33-85.83,223.11,95.44-220.15,23.33,5.73-70.25,272.3,83.78-268.55s39,9.43,38.81,9.87l-44.17,274.5,57.7-270.75,20.59,4.15-7.95,231.46,22.45-227.52,17.91,320.75-260.72-47.66,264.6,74.08-3.16,15.68-349.7-66.87-1.43,7.11,368.58,74.35,9.56-47.4Z"/>
        <path class="cls-29" d="M1328.07,565s-101.79,8.14-121.96,21.13c0,0,70.98,13.91,79.15,18.14l-17.95,28.67s-50.2,12.96-60.16,28.61c0,0,5.18-4.77,42.08,6.3l-15.99,56.84s-19.89-5.46-21.86,19.61c0,0,19.36-15.49,20.07-9.18.21,1.84,1.99,54.11,1.99,54.11-1.2-.52-151.03-53.45-151.38-52.56s-35.31,99.62-11.9,161.25c0,0,18.34-104.16,32.43-118.38,0,0,21.02,16,18.71,17.91-1.39,1.15-.07,39.19,4.82,62.33.14-.72,8.82-47.05,12.23-55.65,0,0,31.97,15.24,45.01,7.22,0,0-5.81,14.65-3.35,29.73,0,0,19.15-37.6,48.56-39.59l-81.4,205.09s78.5,5.6,89.22-67.53c0,0-47.21,46.83-56.02,43.01l27.47-55.02s29.93-11.57,40.66-27.94c0,0-24.36,6.97-28.69,3.7,0,0,14.96-43.62,13.23-47.52,0,0,3.89,2.03,12.05-3.19-.22.06-5.36,1.45-8.01-3.47l1.54-41.72,66.04,18.07s42.4-105.66,29.96-127.51c0,0-30.29,88.14-36.13,95.77l-5.74-5.64s1.42-31.94,1.81-44.74c-.18.83-7.83,37.3-14.18,40.44l-7.76-.56s.16-23.34-2.57-20.73c-.76.72-5.24,19.1-8.54,21.53,0,0-13.39-.54-17.24,7.95l83.78-226.48ZM1239.84,790.26c3.65,1.58,5.39,5.94,3.88,9.74s-5.69,5.6-9.34,4.02c-3.65-1.58-5.39-5.94-3.88-9.74,1.51-3.8,5.69-5.6,9.34-4.02Z"/>
        <path class="cls-15" d="M1587.49,771.36s21.72,28.87,25.19-54.09l-25.19,54.09"/>
        <path class="cls-15" d="M1515.57,700.75l2.25,59.62s-31.21,18.19-2.25-59.62Z"/>
        <g>
          <path class="cls-23" d="M369,209l-4.36,8.73,4.88,4.04,10.48,1.23s-3.54,2.45-3.55,4.49l12.47,10.32c4.47.48,8.61.96,9.13.68.95-.5,2.6.89,2.6.89,0,0-1.4,2.67-2.92,5.72l7.81,6.46c1.46-.33,2.46-.56,2.46-.56h1l-1.3,2.35,7.43,6.15,10.87-.49-3,7,10.9,9.02c1.77-.84,3.1-1.43,3.1-1.02,0,.55-.6,1.69-.98,2.78l20.81,17.21,4.19-5.07-6.02-4.93h7l2-6,2-2,4.83,1.07,2.68-3.24-3.51-9.83,7.83,4.61h0l12.65-15.29-3.49-1.31s2.86-.95,5.9-1.61l3.81-4.61c-.93-1-1.71-1.79-1.71-1.79l-2-3s4.31-.62,8.49-.99l2.06-2.49c-3.58-1.66-7.55-3.52-7.55-3.52,0,0,2-8,7-6,2.24.9,4.47,1.79,6.35,2.5l4.5-5.44-32.28-26.7c-3.35,2.56-6.57,5.1-6.57,4.64,0-.51.26-5.19.52-9.65l-54.16-44.8-4.35,1.45v-5.05l-8-6.62-57.02,68.93,5.42,4.48c1.04-.31,11.6-2.74,11.6-2.74Z"/>
          <path class="cls-23" d="M357.42,211.76l.12.1c0-.07-.04-.11-.12-.1Z"/>
        </g>
        <g>
          <g class="cls-21">
            <path class="cls-4" d="M1705.1,683.7l-10.12-21.24-11.75-7.17,27.24-10.11-28.35-14.12,30.23-7.1-1.06-10.67c-10.07-10.58-22.18-19.5-30.14-30.43-22.56-30.95-60.32,67.03-60.32,67.03,0,0,4.13-20.52-56.11-37.63l.02-.08c-.18-.02-.35-.04-.53-.06-.17-.05-.34-.1-.52-.15l-.02.08c-62.16-7.58-66.31,12.94-66.31,12.94,0,0,3.17-104.96-29.62-85.17-32.79,19.78-89.99,11.85-74.46,107.38,15.53,95.53,57.38,36.77,57.38,36.77l5.62,91.13s30.51,46.09,63.69,53.61v.04c32.87,9.03,80.54-24.55,80.54-24.55l40.51-81.83s15.8,70.39,67.15-11.65c7.03-11.23,12.04-21.19,15.41-30.11l-18.46,3.1Z"/>
          </g>
          <path class="cls-5" d="M1474.49,637.18c.23-1.15-20.16-84.47-20.16-84.47,0,0-56.35,42.74-55.25,71.65,1.33,35.07,45.6,47.6,45.6,47.6l29.82-34.78Z"/>
        </g>
        <path class="cls-15" d="M439.93,175.25l-5.68-.4-1.51,1.74.3-7.31-6.94,4.54,2.75-6.66s-15.96,2.77-14.98,5.12,10.06,16.24,10.06,16.24c0,0-12.98-.68-22.84,19.42,0,0-22.23-5.67-20.04,2.25,0,0-1.94,17.92,3.98,21.53,5.92,3.61,29.58,18.07,25.72-1.86l20.1,9.86,10.28-3.17,8.5,5.85s2.98-3.45,5.45-2.82,1.96,4.71,2.82,5.45,6.2-3.68,7.06-2.93c.86.75,2.07,6.31,3.68,6.2,1.61-.12,6.08-5.29,6.08-5.29,0,0,9.93-7.99,1.89-7.41,0,0-3.1,1.84-2.98,3.45,0,0-3.22.23-4.08-.51-.86-.75-1.1-4.63-3.31-6.97-2.2-2.33-2.6,3.36-4.44.26-1.84-3.1,1.49-1.72-.23-3.22-1.72-1.49-2.35.98-3.22.23-.86-.75-4.54-6.94-4.54-6.94l.91-9.76-13.15-17.9s11.12,1.08,8.82-8.45c-2.3-9.53-8.34-14.75-8.34-14.75l-2.12,4.19ZM428.66,231.81s-5.92-3.61-11.32-11.3l18.26,6.76-6.94,4.54ZM447.86,209.62l-3.5,7.52-9.31-17.1c8.39,4.24,12.81,9.58,12.81,9.58Z"/>
        <ellipse class="cls-25" cx="502" cy="278" rx="7" ry="3" transform="translate(-32.18 487.61) rotate(-50.4)"/>
      </g>
    </g>
  </g>
</svg>