<?xml version="1.0" encoding="UTF-8"?>
<svg id="Capa_2" data-name="Capa 2" xmlns="http://www.w3.org/2000/svg" xmlns:xlink="http://www.w3.org/1999/xlink" viewBox="0 0 1920 1080">
  <defs>
    <style>
      .cls-1 {
        fill: #821028;
      }

      .cls-2 {
        fill: #53847b;
      }

      .cls-3 {
        fill: #d38529;
      }

      .cls-4 {
        fill: #01577a;
      }

      .cls-4, .cls-5, .cls-6, .cls-7, .cls-8, .cls-9, .cls-10 {
        isolation: isolate;
      }

      .cls-4, .cls-6, .cls-9 {
        opacity: .3;
      }

      .cls-11 {
        fill: #959fab;
      }

      .cls-12 {
        fill: #f2b9b1;
      }

      .cls-13 {
        fill: #bba590;
      }

      .cls-14 {
        fill: #407768;
      }

      .cls-15 {
        fill: #89c64e;
      }

      .cls-16 {
        fill: #5e8e76;
      }

      .cls-17 {
        fill: #fff;
        stroke: #000;
        stroke-miterlimit: 10;
      }

      .cls-5 {
        fill: #af8445;
        mix-blend-mode: multiply;
        opacity: .63;
      }

      .cls-18 {
        fill: none;
      }

      .cls-19 {
        fill: #b1c6dd;
      }

      .cls-20 {
        fill: #d65143;
      }

      .cls-21 {
        fill: #6e76af;
      }

      .cls-22 {
        clip-path: url(#clippath-1);
      }

      .cls-6 {
        fill: #003752;
      }

      .cls-23 {
        fill: #14161c;
      }

      .cls-8 {
        fill: #a3e0e8;
        mix-blend-mode: luminosity;
        opacity: .68;
      }

      .cls-24 {
        fill: #d3d3d3;
      }

      .cls-25 {
        clip-path: url(#clippath-3);
      }

      .cls-26 {
        fill: #a1aace;
      }

      .cls-27 {
        fill: #e5e4c7;
      }

      .cls-28 {
        fill: #b4b8bf;
      }

      .cls-29 {
        fill: #9a7c6f;
      }

      .cls-30 {
        fill: url(#Degradado_sin_nombre);
      }

      .cls-31 {
        fill: #e2f2ef;
      }

      .cls-9 {
        fill: #032036;
      }

      .cls-10 {
        fill: #006991;
        opacity: .67;
      }

      .cls-32 {
        fill: #f8dbd7;
      }

      .cls-33 {
        clip-path: url(#clippath-2);
      }

      .cls-34 {
        fill: #dcdcdc;
      }

      .cls-35 {
        fill: #f4f9d9;
      }

      .cls-36 {
        fill: #43140e;
      }

      .cls-37 {
        fill: #ecaa53;
      }

      .cls-38 {
        fill: #fffffe;
      }

      .cls-39 {
        clip-path: url(#clippath);
      }

      .cls-40 {
        fill: #ca7346;
      }
    </style>
    <linearGradient id="Degradado_sin_nombre" data-name="Degradado sin nombre" x1="486.17" y1="-476.78" x2="1433.83" y2="1164.61" gradientTransform="translate(0 883.91) scale(1 -1)" gradientUnits="userSpaceOnUse">
      <stop offset="0" stop-color="#012b3d"/>
      <stop offset="1" stop-color="#000"/>
    </linearGradient>
    <clipPath id="clippath">
      <rect class="cls-18" width="1920" height="1080"/>
    </clipPath>
    <clipPath id="clippath-1">
      <path class="cls-18" d="M1584.92,628.91c.31,4.77,10.68,54,21.89,92.79s63.35,120,111.8,49.65c48.45-70.35,58.42-163.78,38.29-196.12-20.12-32.34-9.23-54.88-60.59-58.18-51.36-3.29-75.14-17.51-93.57,23.54-18.43,41.06-18.31,90.77-18.31,90.77l.49-2.45Z"/>
    </clipPath>
    <clipPath id="clippath-2">
      <ellipse class="cls-18" cx="586.93" cy="528.17" rx="26.55" ry="25.37"/>
    </clipPath>
    <clipPath id="clippath-3">
      <path class="cls-18" d="M1390.22,539.97c14.31-5.51,96.93-22.45,96.93-22.45,0,0,34.53,42.97,25.27,65.1-9.26,22.13-15.76,42.42-15.76,42.42,0,0-34.89,36.16-45.54,59.21-10.65,23.05-29.61,51.63-29.61,51.63,0,0-70.56-19.03-85.03-54.35-14.47-35.32-8.13-108.44-8.13-108.44l53.35-38.44,8.53,5.32h-.01Z"/>
    </clipPath>
  </defs>
  <g id="Capa_1-2" data-name="Capa 1">
    <g class="cls-7">
      <g id="Capa_2-2" data-name="Capa 2">
        <g id="Capa_2-2" data-name="Capa 2-2">
          <rect class="cls-30" width="1920" height="1080"/>
          <g class="cls-39">
            <g>
              <ellipse class="cls-9" cx="694" cy="751" rx="752" ry="540.21"/>
              <ellipse class="cls-6" cx="694" cy="751" rx="544.22" ry="390.95"/>
            </g>
          </g>
          <ellipse class="cls-4" cx="694" cy="751" rx="327.6" ry="235.34"/>
          <path class="cls-38" d="M814,122s3,17-16,17c0,0,17,0,16,16,0,0,0-15,17-15,0,0-18,1-17-18Z"/>
          <g>
            <path class="cls-38" d="M703,196s3,17-16,17c0,0,17,0,16,16,0,0,0-15,17-15,0,0-18,1-17-18Z"/>
            <path class="cls-38" d="M1439.97,122.35s3,17-16,17c0,0,17,0,16,16,0,0,0-15,17-15,0,0-18,1-17-18Z"/>
            <path class="cls-38" d="M336.48,88.68s3,17-16,17c0,0,17,0,16,16,0,0,0-15,17-15,0,0-18,1-17-18Z"/>
            <path class="cls-38" d="M98.48,219.68s3,17-16,17c0,0,17,0,16,16,0,0,0-15,17-15,0,0-18,1-17-18Z"/>
            <path class="cls-38" d="M240.45,450.03s3,17-16,17c0,0,17,0,16,16,0,0,0-15,17-15,0,0-18,1-17-18h0Z"/>
            <path class="cls-38" d="M1310.71,681.93s3,17-16,17c0,0,17,0,16,16,0,0,0-15,17-15,0,0-18,1-17-18Z"/>
            <path class="cls-38" d="M1713.73,449.75s3,17-16,17c0,0,17,0,16,16,0,0,0-15,17-15,0,0-18,1-17-18Z"/>
            <path class="cls-38" d="M1293.73,270.75s3,17-16,17c0,0,17,0,16,16,0,0,0-15,17-15,0,0-18,1-17-18Z"/>
            <path class="cls-38" d="M1679.7,122.1s3,17-16,17c0,0,17,0,16,16,0,0,0-15,17-15,0,0-18,1-17-18Z"/>
            <path class="cls-38" d="M1731.7,750.75s-3,17,16,17c0,0-17,0-16,16,0,0,0-15-17-15,0,0,18,1,17-18Z"/>
            <path class="cls-38" d="M1825.7,864.75s-3,17,16,17c0,0-17,0-16,16,0,0,0-15-17-15,0,0,18,1,17-18Z"/>
            <path class="cls-38" d="M1523.73,865.1s-3,17,16,17c0,0-17,0-16,16,0,0,0-15-17-15,0,0,18,1,17-18Z"/>
            <path class="cls-38" d="M522.95,954.28s-15.56,7.47-20.68-10.82c0,0,4.58,16.37-11.09,19.72,0,0,14.44-4.04,19.03,12.33,0,0-5.82-17.06,12.75-21.22h-.01Z"/>
            <path class="cls-38" d="M332.63,760.42s-15.56,7.47-20.68-10.82c0,0,4.58,16.37-11.09,19.72,0,0,14.44-4.04,19.03,12.33,0,0-5.82-17.06,12.75-21.22h-.01Z"/>
            <path class="cls-38" d="M149.09,959.24s-15.56,7.47-20.68-10.82c0,0,4.58,16.37-11.09,19.72,0,0,14.44-4.04,19.03,12.33,0,0-5.82-17.06,12.75-21.22h-.01Z"/>
            <path class="cls-38" d="M960.02,762.14s-15.56,7.47-20.68-10.82c0,0,4.58,16.37-11.09,19.72,0,0,14.44-4.04,19.03,12.33,0,0-5.82-17.06,12.75-21.22h-.01Z"/>
            <path class="cls-38" d="M394.21,164.63s1.75,9.92-9.34,9.92c0,0,9.92,0,9.34,9.34,0,0,0-8.76,9.92-8.76,0,0-10.51.58-9.92-10.51h0Z"/>
            <path class="cls-38" d="M824.46,121.63s1.75,9.92-9.34,9.92c0,0,9.92,0,9.34,9.34,0,0,0-8.76,9.92-8.76,0,0-10.51.58-9.92-10.51h0Z"/>
            <path class="cls-38" d="M180.23,101.97s1.75,9.92-9.34,9.92c0,0,9.92,0,9.34,9.34,0,0,0-8.76,9.92-8.76,0,0-10.51.58-9.92-10.51h0Z"/>
            <path class="cls-38" d="M41.28,178.45s1.75,9.92-9.34,9.92c0,0,9.92,0,9.34,9.34,0,0,0-8.76,9.92-8.76,0,0-10.51.58-9.92-10.51h0Z"/>
            <path class="cls-38" d="M124.16,312.94s1.75,9.92-9.34,9.92c0,0,9.92,0,9.34,9.34,0,0,0-8.76,9.92-8.76,0,0-10.51.58-9.92-10.51h0Z"/>
            <path class="cls-38" d="M749,448.33s1.75,9.92-9.34,9.92c0,0,9.92,0,9.34,9.34,0,0,0-8.76,9.92-8.76,0,0-10.51.58-9.92-10.51h0Z"/>
            <path class="cls-38" d="M984.29,312.78s1.75,9.92-9.34,9.92c0,0,9.92,0,9.34,9.34,0,0,0-8.76,9.92-8.76,0,0-10.51.58-9.92-10.51h0Z"/>
            <path class="cls-38" d="M739.09,208.27s1.75,9.92-9.34,9.92c0,0,9.92,0,9.34,9.34,0,0,0-8.76,9.92-8.76,0,0-10.51.58-9.92-10.51h0Z"/>
            <path class="cls-38" d="M964.42,121.49s1.75,9.92-9.34,9.92c0,0,9.92,0,9.34,9.34,0,0,0-8.76,9.92-8.76,0,0-10.51.58-9.92-10.51h0Z"/>
            <path class="cls-38" d="M994.78,488.51s-1.75,9.92,9.34,9.92c0,0-9.92,0-9.34,9.34,0,0,0-8.76-9.92-8.76,0,0,10.51.58,9.92-10.51h0Z"/>
            <path class="cls-38" d="M1049.66,555.06s-1.75,9.92,9.34,9.92c0,0-9.92,0-9.34,9.34,0,0,0-8.76-9.92-8.76,0,0,10.51.58,9.92-10.51h0Z"/>
            <path class="cls-38" d="M873.36,555.27s-1.75,9.92,9.34,9.92c0,0-9.92,0-9.34,9.34,0,0,0-8.76-9.92-8.76,0,0,10.51.58,9.92-10.51h0Z"/>
            <path class="cls-38" d="M289.09,607.33s-9.09,4.36-12.08-6.32c0,0,2.68,9.56-6.48,11.51,0,0,8.43-2.36,11.11,7.2,0,0-3.4-9.96,7.44-12.39h.01Z"/>
            <path class="cls-38" d="M177.98,494.15s-9.09,4.36-12.08-6.32c0,0,2.68,9.56-6.48,11.51,0,0,8.43-2.36,11.11,7.2,0,0-3.4-9.96,7.44-12.39h0Z"/>
            <path class="cls-38" d="M70.82,610.23s-9.09,4.36-12.08-6.32c0,0,2.68,9.56-6.48,11.51,0,0,8.43-2.36,11.11,7.2,0,0-3.4-9.96,7.44-12.39h.01Z"/>
            <path class="cls-38" d="M544.26,495.16s-9.09,4.36-12.08-6.32c0,0,2.68,9.56-6.48,11.51,0,0,8.43-2.36,11.11,7.2,0,0-3.4-9.96,7.44-12.39h.01Z"/>
            <path class="cls-38" d="M994.1,530.27s1.75,9.92-9.34,9.92c0,0,9.92,0,9.34,9.34,0,0,0-8.76,9.92-8.76,0,0-10.51.58-9.92-10.51h0Z"/>
            <path class="cls-38" d="M1424.36,487.27s1.75,9.92-9.34,9.92c0,0,9.92,0,9.34,9.34,0,0,0-8.76,9.92-8.76,0,0-10.51.58-9.92-10.51h0Z"/>
            <path class="cls-38" d="M780.12,467.61s1.75,9.92-9.34,9.92c0,0,9.92,0,9.34,9.34,0,0,0-8.76,9.92-8.76,0,0-10.51.58-9.92-10.51h0Z"/>
            <path class="cls-38" d="M641.17,544.09s1.75,9.92-9.34,9.92c0,0,9.92,0,9.34,9.34,0,0,0-8.76,9.92-8.76,0,0-10.51.58-9.92-10.51h0Z"/>
            <path class="cls-38" d="M724.05,678.58s1.75,9.92-9.34,9.92c0,0,9.92,0,9.34,9.34,0,0,0-8.76,9.92-8.76,0,0-10.51.58-9.92-10.51h0Z"/>
            <path class="cls-38" d="M1348.89,813.96s1.75,9.92-9.34,9.92c0,0,9.92,0,9.34,9.34,0,0,0-8.76,9.92-8.76,0,0-10.51.58-9.92-10.51h0Z"/>
            <path class="cls-38" d="M1584.18,678.42s1.75,9.92-9.34,9.92c0,0,9.92,0,9.34,9.34,0,0,0-8.76,9.92-8.76,0,0-10.51.58-9.92-10.51h0Z"/>
            <path class="cls-38" d="M1338.98,573.91s1.75,9.92-9.34,9.92c0,0,9.92,0,9.34,9.34,0,0,0-8.76,9.92-8.76,0,0-10.51.58-9.92-10.51h0Z"/>
            <path class="cls-38" d="M1564.31,487.13s1.75,9.92-9.34,9.92c0,0,9.92,0,9.34,9.34,0,0,0-8.76,9.92-8.76,0,0-10.51.58-9.92-10.51h0Z"/>
            <path class="cls-38" d="M1594.67,854.15s-1.75,9.92,9.34,9.92c0,0-9.92,0-9.34,9.34,0,0,0-8.76-9.92-8.76,0,0,10.51.58,9.92-10.51h0Z"/>
            <path class="cls-38" d="M1649.55,920.7s-1.75,9.92,9.34,9.92c0,0-9.92,0-9.34,9.34,0,0,0-8.76-9.92-8.76,0,0,10.51.58,9.92-10.51h0Z"/>
            <path class="cls-38" d="M1473.26,920.91s-1.75,9.92,9.34,9.92c0,0-9.92,0-9.34,9.34,0,0,0-8.76-9.92-8.76,0,0,10.51.58,9.92-10.51h0Z"/>
            <path class="cls-38" d="M888.98,972.97s-9.09,4.36-12.08-6.32c0,0,2.68,9.56-6.48,11.51,0,0,8.43-2.36,11.11,7.2,0,0-3.4-9.96,7.44-12.39h.01Z"/>
            <path class="cls-38" d="M777.87,859.79s-9.09,4.36-12.08-6.32c0,0,2.68,9.56-6.48,11.51,0,0,8.43-2.36,11.11,7.2,0,0-3.4-9.96,7.44-12.39h.01Z"/>
            <path class="cls-38" d="M670.72,975.87s-9.09,4.36-12.08-6.32c0,0,2.68,9.56-6.48,11.51,0,0,8.43-2.36,11.11,7.2,0,0-3.4-9.96,7.44-12.39h.01Z"/>
            <path class="cls-38" d="M1144.15,860.79s-9.09,4.36-12.08-6.32c0,0,2.68,9.56-6.48,11.51,0,0,8.43-2.36,11.11,7.2,0,0-3.4-9.96,7.44-12.39h.01Z"/>
            <path class="cls-38" d="M1783.14,76.17s3,17-16,17c0,0,17,0,16,16,0,0,0-15,17-15,0,0-18,1-17-18Z"/>
            <path class="cls-38" d="M1545.14,207.17s3,17-16,17c0,0,17,0,16,16,0,0,0-15,17-15,0,0-18,1-17-18Z"/>
            <path class="cls-38" d="M1626.88,89.47s1.75,9.92-9.34,9.92c0,0,9.92,0,9.34,9.34,0,0,0-8.76,9.92-8.76,0,0-10.51.58-9.92-10.51h0Z"/>
            <path class="cls-38" d="M1487.93,165.95s1.75,9.92-9.34,9.92c0,0,9.92,0,9.34,9.34,0,0,0-8.76,9.92-8.76,0,0-10.51.58-9.92-10.51h0Z"/>
            <path class="cls-38" d="M1570.81,300.43s1.75,9.92-9.34,9.92c0,0,9.92,0,9.34,9.34,0,0,0-8.76,9.92-8.76,0,0-10.51.58-9.92-10.51h0Z"/>
          </g>
          <circle class="cls-10" cx="694" cy="751" r="88.25"/>
          <g class="cls-22">
            <path class="cls-11" d="M1675.73,672.95l-10.98-21.07-12.5-7.23,28.57-9.55-30.1-14.32,31.78-6.55-1.28-10.52c-10.78-10.57-23.67-19.53-32.23-30.41-24.24-30.81-62.63,65.13-62.63,65.13,0,0,4.05-20.15-59.72-37.88l.02-.08c-.19-.03-.37-.05-.56-.07-.18-.05-.36-.1-.55-.15l-.02.08c-65.66-8.37-69.74,11.77-69.74,11.77,0,0,1.81-103.32-32.48-84.32-34.29,19.01-94.72,10.35-76.94,104.66,17.77,94.31,61.05,37.06,61.05,37.06l7.26,89.83s32.85,45.83,67.94,53.73v.04c34.79,9.38,84.57-23,84.57-23l41.52-80s17.69,69.55,70.64-10.49c7.25-10.95,12.38-20.69,15.81-29.43l-19.42,2.78h0Z"/>
          </g>
          <path class="cls-12" d="M1664.75,651.89l-12.5-7.23,20.67-6.91c-.68-2.49-1.45-4.99-2.3-7.5l-19.9-9.47,15.08-3.11c-8.11-19.13-18.22-35.23-18.22-35.23,0,0-52.87,67.1-53.1,68.23l15.4,43.17s48.24,6.2,63.4-24.92c.06-.12.11-.24.16-.36l-8.69-16.67h0Z"/>
          <g>
            <path class="cls-16" d="M809.45,380.61c0,6.03-.33,11.98-.97,17.86-8.72,80.26-75.58,144.17-159.98,153.2-4.9.53-9.85.87-14.86,1.02-.64.02-1.28.03-1.92.05-.53,0-1.07.02-1.6.02-.73,0-1.47.02-2.2.02-65.58,0-123.02-32.97-154.93-82.39-16.88-26.13-26.6-56.87-26.6-89.76,0-59.02,31.31-111.1,79.04-142.11.97-.64,1.95-1.26,2.94-1.87,28.58-17.81,62.79-28.17,99.55-28.17,41.39,0,79.54,13.14,110.08,35.25,37.49,27.16,63.5,67.86,69.91,114.39.78,5.68,1.27,11.44,1.45,17.28.05,1.74.09,3.48.09,5.24v-.03Z"/>
            <path class="cls-2" d="M611.13,286.53c-6.25,0-129.61.78-51.53,27.33,78.08,26.55,148.34,31.23,74.17,43.72-74.17,12.49-87.44,36.7-46.06,42.94,41.38,6.25,73.39,11.71,100.72,10.93,27.33-.78,125.43,10.16,50.22-10.53-75.2-20.7-124.39-14.45-84.57-25.38,39.82-10.93,76.51-19.52,80.42-27.33s27.33-26.55-32.79-34.35c-60.12-7.81-128.83-3.9-60.12-17.18,68.71-13.27,89.01-12.49,83.54-15.62-5.47-3.12,21.08-8.59-53.09-10.93-74.17-2.34-168.64-17.18-112.43,0,56.21,17.18,51.53,16.4,51.53,16.4h0Z"/>
            <path class="cls-14" d="M809.45,380.61c0,6.03-.33,11.98-.97,17.86-8.72,80.26-75.58,144.17-159.98,153.2-5.02.52-9.99.87-14.86,1.02-.64.02-1.28.03-1.92.05-.53,0-1.07.02-1.6.02-.73,0-1.47.02-2.2.02-65.58,0-123.02-32.97-154.93-82.39-16.88-26.13-26.6-56.87-26.6-89.76,0-59.02,31.31-111.1,79.04-142.11-5.12,56.78-2.6,245.46,66.96,258.84,0,0-47.63,11.71-7.81,26.55,39.82,14.83,38.26-3.12,35.13-13.27,13.92,1.42,66.98,5.16,117.11-30.45,61.14-43.42,69.86-111.22,71.07-122.06.78,5.68,1.27,11.44,1.45,17.28.05,1.74.09,3.48.09,5.24l.02-.04Z"/>
            <path class="cls-13" d="M802.33,372.8c-.3.37-.52.99-.69,1.95-1.56,8.59-9.37,57-24.2,83.54-14.83,26.55-60.12,39.04-119.46,19.52-28.53-9.38-34.5-19.13-26.05-28.72,9.1-10.35,35.01-20.52,67.43-29.84,62.46-17.96,45.28-15.62-10.15-48.41-4.96-2.93-9.22-5.5-12.87-7.82-15.07-9.54-19.54-14.58-18.02-21.56,2.23-10.24,17.36-24.63,30.89-63.53,6.17-17.75,19.21-27.69,35.41-32.57,9.82-2.96,20.51-.61,28.29,6.07,28.81,24.77,49.2,58.19,56.59,95.94.08.4.15.8.2,1.19,1.31,8.72-1.84,17.24-7.37,24.22v.02Z"/>
            <path class="cls-13" d="M616.55,420.8c-4.04,5.52-6.44,12.42-9.08,19.39-5.57,14.71-12.23,29.75-37.85,32.93-23.6,2.93-53.01,3.72-76.5,1.43-15.76-1.54-29.53-11.27-36.22-25.62-9.78-20.95-15.19-44.07-15.19-68.35,0-31.37,9.04-60.78,24.83-86.11,11.02-17.66,25.31-33.35,42.12-46.32,12.91-9.97,30.34-12.32,45.18-5.54,11.83,5.41,18.53,14.85,14.62,30.58-3.01,12.14-7.55,22.04-12.27,30.36-10.13,17.86-21.1,28.47-19.45,38.46v.02c.35,2.12,1.26,4.2,2.87,6.32,1.51,2.01,3.66,4.06,6.53,6.19,3.57,2.65,8.27,5.43,14.3,8.46,51.51,25.77,68.68,40.62,56.09,57.79h.02Z"/>
            <path class="cls-29" d="M607.47,440.2c-5.57,14.71-12.23,29.75-37.85,32.93-23.6,2.93-53.01,3.72-76.5,1.43-15.76-1.54-29.53-11.27-36.22-25.62-9.78-20.95-15.19-44.07-15.19-68.35,0-31.37,9.04-60.78,24.83-86.11,1.09.88,1.72,1.42,1.72,1.42,0,0-55.43,169.42,32.01,168.64,87.44-.78,71.83,2.34,96.03-20.3,3.69-3.44,7.51-4.59,11.17-4.04h0Z"/>
            <path class="cls-29" d="M802.33,372.8c-.3.37-.52.99-.69,1.95-1.56,8.59-9.37,57-24.2,83.54-14.83,26.55-60.12,39.04-119.46,19.52-28.53-9.38-34.5-19.13-26.05-28.72,18.96,6.06,49.62,20.32,76.02,27.15,45.28,11.71,62.46-20.3,68.71-32.01,6.25-11.71,20.3-64.02,24.98-81.2,2.39-8.77,5.4-12.66,8.07-14.46,1.31,8.72-1.84,17.24-7.37,24.22h-.01Z"/>
            <ellipse class="cls-29" cx="737.62" cy="327.91" rx="12.49" ry="7.03"/>
            <ellipse class="cls-29" cx="759.09" cy="300.58" rx="1.95" ry="3.9"/>
            <ellipse class="cls-29" cx="719.27" cy="434.48" rx="12.88" ry="2.73"/>
            <ellipse class="cls-29" cx="581.86" cy="392.32" rx="19.13" ry="3.51"/>
            <path class="cls-29" d="M546.16,354.56c-2.47-1.03-4.71-3.2-6.53-6.19,1.51,2.01,3.66,4.06,6.53,6.19Z"/>
            <path class="cls-29" d="M536.74,342.02c-1.34-4.11-2.12-8.95-2.12-14.11,0-15.09,6.64-27.33,14.83-27.33,2.42,0,4.72,1.07,6.74,2.97-10.13,17.86-21.1,28.47-19.45,38.46h0Z"/>
            <ellipse class="cls-29" cx="529.54" cy="262.32" rx="13.66" ry="3.12"/>
            <path class="cls-29" d="M714.19,351.33c0,6.46-16.26,11.71-36.31,11.71-.52,0-1.04,0-1.55-.02-15.07-9.54-19.54-14.58-18.02-21.56,5.64-1.17,12.36-1.85,19.57-1.85,20.05,0,36.31,5.25,36.31,11.71h0Z"/>
            <ellipse class="cls-14" cx="601.01" cy="511.05" rx="9.76" ry="15.62" transform="translate(-105.05 863) rotate(-66.87)"/>
            <ellipse class="cls-29" cx="495.97" cy="420.04" rx="15.22" ry="3.9"/>
            <g class="cls-33">
              <g>
                <path class="cls-23" d="M595.43,496.93h0l-26.59,39.32c1.4-2.08,7.21-.6,12.97,3.3,5.76,3.9,9.29,8.74,7.89,10.81l26.78-39.59-.03-.02c.93-2.21-2.54-6.8-8.05-10.52-5.5-3.72-11.05-5.24-12.76-3.55l-.03-.02-.19.27h.01Z"/>
                <path class="cls-37" d="M589.92,550.03l6.82-10.08c1.4-2.08-2.13-6.92-7.89-10.81-5.76-3.9-11.57-5.37-12.97-3.3l-6.82,10.08,20.86,14.11Z"/>
                <ellipse class="cls-3" cx="579.35" cy="543.11" rx="4.54" ry="12.59" transform="translate(-195.09 718.76) rotate(-55.93)"/>
                <ellipse class="cls-34" cx="579.48" cy="542.92" rx="2.77" ry="7.68" transform="translate(-194.87 718.79) rotate(-55.93)"/>
                <path class="cls-28" d="M576.63,541.21l-1.29,1.91,5.56,3.76,1.29-1.91s.07-.06.09-.1c.38-.56-.57-1.86-2.12-2.9s-3.1-1.44-3.48-.88c-.03.04-.04.08-.06.12h0Z"/>
                <ellipse class="cls-24" cx="578.11" cy="544.94" rx="1.22" ry="3.38" transform="translate(-197.15 718.54) rotate(-55.93)"/>
                <polygon class="cls-1" points="582.63 533.34 584.56 534.65 583.01 536.94 583.86 537.52 585.41 535.23 587.34 536.53 588.15 535.34 586.21 534.03 587.83 531.65 586.98 531.08 585.36 533.46 583.43 532.15 582.63 533.34"/>
                <path class="cls-8" d="M599.72,496.81c2,.82,4.73,2.21,7.53,4.51,2.45,2.02,4.18,4.12,5.34,5.76l-25.35,36.86c.49.6,1.8,2.33,1.94,2.57l24.33-35.38,2.07-3.01.32-.47c-.44-.82-1.09-1.71-1.89-2.63l-.79,1.16c-1.02-1.56-2.93-4.06-6.09-6.19-2.89-1.94-5.64-2.79-7.39-3.19h-.02Z"/>
                <path class="cls-5" d="M602.57,497.09c-1.65-.65-3.16-1.03-4.38-1.09l-27.03,39.31c.27,0,.55,0,.85.04.88.09,1.88.32,2.97.69.21.07.43.15.64.23l26.94-39.18h.01Z"/>
              </g>
            </g>
            <path class="cls-31" d="M617.38,506.7c0,.78,10.15,6.25,3.12,13.27-7.03,7.02-19.88,9.74-8.38,9.16s16.19-.58,14.63-10.73c-1.56-10.15-9.37-19.52-9.37-11.71h0Z"/>
            <path class="cls-31" d="M593.18,497.33c-1.37.76-16.8,3.35-17.18,6.25-.37,2.89-7.81,4.68-3.12-.78,4.69-5.46,27.33-9.37,20.3-5.47Z"/>
            <path class="cls-14" d="M615.04,494.21c8.59,4.68,3.9,9.37-1.56,5.47-5.47-3.9-1.56-4.68-10.15-4.68s-18.74-3.12-7.81-3.9,19.52,3.12,19.52,3.12h0Z"/>
            <path class="cls-35" d="M725.12,491.09h.36c-.33.06-.36,0-.36,0Z"/>
            <path class="cls-35" d="M794.61,439.56l-8.59,42.16-11.71,19.52-7.81-14.05-9.37,14.05-7.03-10.15-4.87,6.33-2.94,3.82-10.15-10.15h-6.67c1.25-.25,6.83-2.44,31.65-17.96,25.15-15.72,11.31-17.26-15.81-44.98-6.57-6.71-13.91-14.94-21.67-25.29-12.52-16.7-16.01-24.91-13.98-30.2,4.41-11.53,35.02-9.25,55.36-51,26.5-54.39-30.45-74.17-30.45-74.17,14.03-10.2,41.09,15.54,50.53,25.31h0c2.12,2.19,3.34,3.58,3.34,3.58l8.72,31.16s-19.65,50.82-21.21,50.04c-.77-.38-3.76,7.6-6.62,15.88-3.01,8.69-5.87,17.69-5.87,17.69l8.59,11.83,26.55,36.58h.01Z"/>
            <path class="cls-15" d="M766.5,348.21c19.52-16.4,12.49-17.18,10.93-27.33-1.56-10.15,2.34-29.66,3.69-48.07,2.12,2.19,3.34,3.57,3.34,3.57l8.72,31.16s-19.65,50.82-21.21,50.04c-.77-.38-3.76,7.6-6.62,15.88-3.15.2-6.43.19-9.78-.27-17.18-2.34-8.59-8.59,10.93-24.98h0Z"/>
            <path class="cls-15" d="M794.61,439.56l-8.59,42.16-11.71,19.52-7.81-14.05-9.37,14.05-7.03-10.15-4.87,6.33c1.66-4.19,4.27-8.93,7.21-14.14,10.15-17.96,16.4-5.47,25.77-17.18,9.37-11.71-9.37-19.52-3.37-24,6-4.49,7.28-4.11-6.78-20.5-10.86-12.67-11.46-12.75,0-18.62l26.55,36.58h0Z"/>
            <path class="cls-15" d="M741.33,428.15c-6.57-6.71-13.91-14.94-21.67-25.29-12.52-16.7-16.01-24.91-13.98-30.2,11.27,4.02,22.64,10.81,19.44,16.15-4.68,7.81,0,21.08,10.93,23.42,10.93,2.34,16.78,11.54,5.27,15.92h0Z"/>
          </g>
          <path class="cls-32" d="M1377.62,893.52s-103.51-46.39-123.74-84.35c-20.72-38.87-19.01-6.9-7.27,10.77,11.74,17.67,79.5,76.22,127.92,89.05l3.1-15.48h-.01Z"/>
          <ellipse class="cls-29" cx="467.5" cy="392.5" rx="10.5" ry="3.5"/>
          <ellipse class="cls-29" cx="729.5" cy="299.5" rx="10.5" ry="3.5"/>
          <ellipse class="cls-29" cx="776.5" cy="372.5" rx="10.5" ry="3.5"/>
          <ellipse class="cls-29" cx="561.5" cy="451.5" rx="10.5" ry="3.5"/>
          <ellipse class="cls-29" cx="503.51" cy="280.52" rx="10.5" ry="3.5" transform="translate(-.43 560.28) rotate(-58.16)"/>
          <rect class="cls-40" x="466" y="203" width="9" height="88" transform="translate(-36.85 405.04) rotate(-45)"/>
          <rect class="cls-40" x="333.57" y="171.95" width="101.3" height="9" transform="translate(3.35 360.03) rotate(-50.4)"/>
          <path class="cls-36" d="M457.87,341.79c-.07.32-2.91,2.54-2.38,4.71s.96,7.73,2.18,8.97,2.96.82,3.18,4.28c.23,3.47,1.09,8.93,1.2,9.36s1.39,1.96,1.9,2.14.16-2.49,3.09-3.05,2.71-.81,2.57-1.39.25,1.01.42,1.74-.21-.25-1.12-.19-2.24.24-2.21,1-1.67,1.32-.35,3.61c1.32,2.28,1.15,5.39.12,8.7-1.03,3.31-1.29,3.53-.07,4.15s.27-2.67,1.29.91,1.52,4.38,1.99,5.03-.11.18-1.45.35-1.29-.91-2.2-.23-1.09,1.18-1.77.28-2.09-6.08-1.53-8.82c.56-2.74,2.63-4.31,2.71-5.87.08-1.56.1-4.01-1.23-5.06-1.33-1.05-3.53-.67-3.96-1.8-.43-1.13-.57-.47-.2-2.71.37-2.24-.76-4.41-.21-5.92.55-1.51-2.1-4.85-2.35-5.25s-.39-.98-1.94-1.06-3.93-.43-6.07.25c-2.14.67-4.34,1.05-5.25,2.35s-.67,2.92-.89,3.28-1.68,2.55-1.68,2.55c0,0,.78-2.49.89-2.67s-.56-2.32.2-2.96,3.08-1.82,3.08-1.82l5.76-2.16,2.64.13s1.19-.14,1.63-.24-.63-2.6-.63-2.6l-1.24-3.22.56-2.13.52-2.27,2.07-2.19,1-1.64,1.3-2.13-1.58,3.6h.01Z"/>
          <path class="cls-36" d="M578.72,405.35c-.23.24-3.8.68-4.47,2.81-.67,2.13-3.16,7.12-2.76,8.81s2.11,2.22.52,5.31c-1.59,3.09-3.66,8.21-3.8,8.64s.19,2.4.52,2.82,1.42-2.05,4.22-1.02,2.74.7,2.92.13-.31.99-.53,1.71-.05-.33-.86-.74-2.04-.95-2.41-.28-2.11.27-2.16,2.91-1.79,5.21-4.38,7.52-2.92,2.36-2.19,3.53c.73,1.16,1.61-2.15.64,1.45-.97,3.6-.95,4.54-.89,5.34s-.19.1-1.42-.44-.64-1.45-1.77-1.33-1.55.45-1.66-.68c-.11-1.13,1.34-6.29,3.24-8.35s4.48-2.34,5.35-3.63,2.15-3.38,1.56-4.97-2.68-2.4-2.47-3.58c.21-1.18-.25-.7,1.23-2.42,1.47-1.72,1.62-4.17,2.87-5.19,1.25-1.01.7-5.24.69-5.71s.17-1.04-1.12-1.91-3.15-2.39-5.33-2.91-4.26-1.33-5.71-.69-2.08,2.16-2.45,2.35-2.75,1.32-2.75,1.32c0,0,1.95-1.73,2.13-1.83s.71-2.27,1.7-2.43,3.58.03,3.58.03l6.05,1.11,2.19,1.47s1.09.5,1.52.63.8-2.56.8-2.56l.6-3.4,1.57-1.54,1.62-1.68,2.9-.81,1.7-.89,2.21-1.16-3.21,2.27h0Z"/>
          <path class="cls-36" d="M713.75,250.83c-.02.33-2.46,2.98-1.59,5.04.87,2.06,2.19,7.48,3.59,8.5,1.4,1.02,3.05.33,3.83,3.72.78,3.39,2.52,8.63,2.69,9.05s1.69,1.71,2.22,1.81c.53.1-.24-2.48,2.56-3.51,2.8-1.02,2.55-1.24,2.32-1.79s.41.96.7,1.65-.25-.22-1.13,0c-.88.21-2.17.59-2.02,1.34s-1.44,1.58.23,3.62,2.01,5.13,1.52,8.57c-.49,3.44-.7,3.69.6,4.11s-.16-2.68,1.42.69c1.59,3.37,2.21,4.08,2.77,4.65s-.08.2-1.37.58-1.42-.69-2.21.13-.89,1.34-1.7.56-3.04-5.67-2.93-8.46c.11-2.79,1.9-4.68,1.73-6.23s-.55-3.97-2.03-4.8c-1.48-.83-3.6-.1-4.2-1.14s-.64-.37-.63-2.64c.01-2.27-1.46-4.23-1.16-5.81.3-1.58-2.85-4.45-3.16-4.81s-.54-.9-2.09-.73c-1.55.17-3.95.21-5.95,1.22s-4.11,1.74-4.81,3.16-.19,2.99-.35,3.38-1.25,2.79-1.25,2.79c0,0,.37-2.58.44-2.77s-.93-2.19-.28-2.95,2.75-2.29,2.75-2.29l5.33-3.06,2.62-.3s1.16-.33,1.57-.5-1.04-2.47-1.04-2.47l-1.74-2.98.21-2.19.15-2.33,1.69-2.49.72-1.78.94-2.32-.98,3.81.02-.03Z"/>
          <path class="cls-36" d="M721.94,424.93c-.32.1-3.66-1.22-5.27.33s-6.19,4.73-6.64,6.41.79,2.96-2.09,4.91c-2.88,1.95-7.15,5.45-7.47,5.76s-.99,2.19-.89,2.72,2.23-1.12,4.19,1.13c1.96,2.25,2.07,1.93,2.5,1.52s-.75.72-1.29,1.24.11-.31-.4-1.06-1.34-1.81-1.98-1.4-1.99-.77-3.29,1.52c-1.3,2.29-4.07,3.72-7.45,4.5s-3.7.67-3.62,2.04,2.44-1.11-.13,1.58c-2.58,2.69-3.01,3.53-3.34,4.26s-.21,0-1.03-1.07.13-1.58-.91-2.02-1.57-.34-1.13-1.39c.44-1.04,4.19-4.87,6.84-5.77s5.05.09,6.43-.62,3.51-1.94,3.75-3.62c.24-1.68-1.2-3.39-.45-4.33s.12-.73,2.24-1.54c2.12-.8,3.42-2.89,5.01-3.17,1.58-.29,3.13-4.26,3.35-4.68s.65-.83-.07-2.21c-.71-1.38-1.62-3.61-3.28-5.11s-3.1-3.21-4.68-3.35c-1.58-.13-2.86.9-3.28.89s-3.05-.16-3.05-.16c0,0,2.54-.59,2.75-.58s1.71-1.65,2.66-1.32,3.13,1.74,3.13,1.74l4.77,3.88,1.22,2.34s.72.96,1.03,1.28,1.93-1.86,1.93-1.86l2.15-2.7,2.12-.59,2.22-.7,2.94.68,1.92.03,2.5.05-3.9.46v-.02Z"/>
          <path class="cls-36" d="M812.94,341.93c-.32.1-3.66-1.22-5.27.33s-6.19,4.73-6.64,6.41.79,2.96-2.09,4.91c-2.88,1.95-7.15,5.45-7.47,5.76s-.99,2.19-.89,2.72,2.23-1.12,4.19,1.13c1.96,2.25,2.07,1.93,2.5,1.52s-.75.72-1.29,1.24.11-.31-.4-1.06-1.34-1.81-1.98-1.4-1.99-.77-3.29,1.52c-1.3,2.29-4.07,3.72-7.45,4.5-3.38.78-3.7.67-3.62,2.04s2.44-1.11-.13,1.58c-2.58,2.69-3.01,3.53-3.34,4.26s-.21,0-1.03-1.07.13-1.58-.91-2.02-1.57-.34-1.13-1.39c.44-1.04,4.19-4.87,6.84-5.77s5.05.09,6.43-.62,3.51-1.94,3.75-3.62c.24-1.68-1.2-3.39-.45-4.33s.12-.73,2.24-1.54c2.12-.8,3.42-2.89,5.01-3.17,1.58-.29,3.13-4.26,3.35-4.68s.65-.83-.07-2.21c-.71-1.38-1.62-3.61-3.28-5.11s-3.1-3.21-4.68-3.35c-1.58-.13-2.86.9-3.28.89s-3.05-.16-3.05-.16c0,0,2.54-.59,2.75-.58s1.71-1.65,2.66-1.32,3.13,1.74,3.13,1.74l4.77,3.88,1.22,2.34s.72.96,1.03,1.28,1.93-1.86,1.93-1.86l2.15-2.7,2.12-.59,2.22-.7,2.94.68,1.92.03,2.5.05-3.9.46v-.02Z"/>
          <polygon class="cls-26" points="1450.2 555.56 1284.28 870.73 1275.67 913.39 1644.25 987.74 1653.81 940.34 1616.73 591.28 1450.2 555.56"/>
          <polygon class="cls-19" points="1421.53 650.56 1308.55 876.86 1476.72 923.12 1289.97 882.98 1301.68 875.48 1434.21 597.56 1421.53 650.56"/>
          <path class="cls-21" d="M1653.81,940.34l-37.08-349.06-166.53-35.72-7.27,14.27,31.37,6.33-85.83,223.11,95.44-220.15,23.33,5.73-70.25,272.3,83.78-268.55s39,9.43,38.81,9.87l-44.17,274.5,57.7-270.75,20.59,4.15-7.95,231.46,22.45-227.52,17.91,320.75-260.72-47.66,264.6,74.08-3.16,15.68-349.7-66.87-1.43,7.11,368.58,74.35,9.56-47.4h-.03Z"/>
          <path class="cls-32" d="M1328.07,565s-101.79,8.14-121.96,21.13c0,0,70.98,13.91,79.15,18.14l-17.95,28.67s-50.2,12.96-60.16,28.61c0,0,5.18-4.77,42.08,6.3l-15.99,56.84s-19.89-5.46-21.86,19.61c0,0,19.36-15.49,20.07-9.18.21,1.84,1.99,54.11,1.99,54.11-1.2-.52-151.03-53.45-151.38-52.56s-35.31,99.62-11.9,161.25c0,0,18.34-104.16,32.43-118.38,0,0,21.02,16,18.71,17.91-1.39,1.15-.07,39.19,4.82,62.33.14-.72,8.82-47.05,12.23-55.65,0,0,31.97,15.24,45.01,7.22,0,0-5.81,14.65-3.35,29.73,0,0,19.15-37.6,48.56-39.59l-81.4,205.09s78.5,5.6,89.22-67.53c0,0-47.21,46.83-56.02,43.01l27.47-55.02s29.93-11.57,40.66-27.94c0,0-24.36,6.97-28.69,3.7,0,0,14.96-43.62,13.23-47.52,0,0,3.89,2.03,12.05-3.19-.22.06-5.36,1.45-8.01-3.47l1.54-41.72,66.04,18.07s42.4-105.66,29.96-127.51c0,0-30.29,88.14-36.13,95.77l-5.74-5.64s1.42-31.94,1.81-44.74c-.18.83-7.83,37.3-14.18,40.44l-7.76-.56s.16-23.34-2.57-20.73c-.76.72-5.24,19.1-8.54,21.53,0,0-13.39-.54-17.24,7.95l83.78-226.48h.02ZM1239.84,790.26c3.65,1.58,5.39,5.94,3.88,9.74-1.51,3.8-5.69,5.6-9.34,4.02-3.65-1.58-5.39-5.94-3.88-9.74,1.51-3.8,5.69-5.6,9.34-4.02Z"/>
          <path class="cls-20" d="M1587.49,771.36s21.72,28.87,25.19-54.09l-25.19,54.09"/>
          <path class="cls-20" d="M1515.57,700.75l2.25,59.62s-31.21,18.19-2.25-59.62Z"/>
          <g>
            <path class="cls-27" d="M369,209l-4.36,8.73,4.88,4.04,10.48,1.23s-3.54,2.45-3.55,4.49l12.47,10.32c4.47.48,8.61.96,9.13.68.95-.5,2.6.89,2.6.89,0,0-1.4,2.67-2.92,5.72l7.81,6.46c1.46-.33,2.46-.56,2.46-.56h1l-1.3,2.35,7.43,6.15,10.87-.49-3,7,10.9,9.02c1.77-.84,3.1-1.43,3.1-1.02,0,.55-.6,1.69-.98,2.78l20.81,17.21,4.19-5.07-6.02-4.93h7l2-6,2-2,4.83,1.07,2.68-3.24-3.51-9.83,7.83,4.61h0l12.65-15.29-3.49-1.31s2.86-.95,5.9-1.61l3.81-4.61c-.93-1-1.71-1.79-1.71-1.79l-2-3s4.31-.62,8.49-.99l2.06-2.49c-3.58-1.66-7.55-3.52-7.55-3.52,0,0,2-8,7-6,2.24.9,4.47,1.79,6.35,2.5l4.5-5.44-32.28-26.7c-3.35,2.56-6.57,5.1-6.57,4.64,0-.51.26-5.19.52-9.65l-54.16-44.8-4.35,1.45v-5.05l-8-6.62-57.02,68.93,5.42,4.48c1.04-.31,11.6-2.74,11.6-2.74h0Z"/>
            <path class="cls-27" d="M357.42,211.76l.12.1c0-.07-.04-.11-.12-.1Z"/>
          </g>
          <g>
            <g class="cls-25">
              <path class="cls-11" d="M1705.1,683.7l-10.12-21.24-11.75-7.17,27.24-10.11-28.35-14.12,30.23-7.1-1.06-10.67c-10.07-10.58-22.18-19.5-30.14-30.43-22.56-30.95-60.32,67.03-60.32,67.03,0,0,4.13-20.52-56.11-37.63l.02-.08c-.18-.02-.35-.04-.53-.06-.17-.05-.34-.1-.52-.15l-.02.08c-62.16-7.58-66.31,12.94-66.31,12.94,0,0,3.17-104.96-29.62-85.17-32.79,19.78-89.99,11.85-74.46,107.38,15.53,95.53,57.38,36.77,57.38,36.77l5.62,91.13s30.51,46.09,63.69,53.61v.04c32.87,9.03,80.54-24.55,80.54-24.55l40.51-81.83s15.8,70.39,67.15-11.65c7.03-11.23,12.04-21.19,15.41-30.11l-18.46,3.1h-.02Z"/>
            </g>
            <path class="cls-12" d="M1474.49,637.18c.23-1.15-20.16-84.47-20.16-84.47,0,0-56.35,42.74-55.25,71.65,1.33,35.07,45.6,47.6,45.6,47.6l29.82-34.78h0Z"/>
          </g>
          <path class="cls-20" d="M439.93,175.25l-5.68-.4-1.51,1.74.3-7.31-6.94,4.54,2.75-6.66s-15.96,2.77-14.98,5.12,10.06,16.24,10.06,16.24c0,0-12.98-.68-22.84,19.42,0,0-22.23-5.67-20.04,2.25,0,0-1.94,17.92,3.98,21.53,5.92,3.61,29.58,18.07,25.72-1.86l20.1,9.86,10.28-3.17,8.5,5.85s2.98-3.45,5.45-2.82,1.96,4.71,2.82,5.45,6.2-3.68,7.06-2.93,2.07,6.31,3.68,6.2c1.61-.12,6.08-5.29,6.08-5.29,0,0,9.93-7.99,1.89-7.41,0,0-3.1,1.84-2.98,3.45,0,0-3.22.23-4.08-.51-.86-.75-1.1-4.63-3.31-6.97-2.2-2.33-2.6,3.36-4.44.26s1.49-1.72-.23-3.22c-1.72-1.49-2.35.98-3.22.23-.86-.75-4.54-6.94-4.54-6.94l.91-9.76-13.15-17.9s11.12,1.08,8.82-8.45-8.34-14.75-8.34-14.75l-2.12,4.19v.02ZM428.66,231.81s-5.92-3.61-11.32-11.3l18.26,6.76-6.94,4.54h0ZM447.86,209.62l-3.5,7.52-9.31-17.1c8.39,4.24,12.81,9.58,12.81,9.58Z"/>
          <ellipse class="cls-29" cx="502.01" cy="278.02" rx="7" ry="3" transform="translate(-32.2 487.61) rotate(-50.4)"/>
        </g>
      </g>
    </g>
    <g>
      <path class="cls-17" d="M624.93,951.29c1.13-5.08,2.2-10.06,3.22-14.92.41-1.96.84-4.06,1.27-6.3.43-2.24.88-4.51,1.33-6.81.45-2.3.87-4.47,1.24-6.53.38-2.05.68-3.85.9-5.4,1.51-.45,3.14-.87,4.89-1.24,1.75-.38,3.32-.57,4.72-.57,2.26,0,4.05.48,5.37,1.44,1.32.96,2.26,2.25,2.82,3.87.57,1.62.85,3.39.85,5.31,0,2.11-.39,4.13-1.16,6.07-.77,1.94-1.81,3.68-3.11,5.23-1.3,1.54-2.79,2.77-4.46,3.67-1.68.9-3.42,1.36-5.23,1.36h-.62c-.3,1.28-.58,2.67-.85,4.18-.26,1.51-.49,2.9-.68,4.18-.15.75-.28,1.51-.4,2.26-.11.75-.23,1.51-.34,2.26l-9.77,1.92ZM638.1,930.55c.87-.23,1.73-.8,2.6-1.72.87-.92,1.58-2.1,2.15-3.53.57-1.43.85-2.99.85-4.69,0-1.39-.31-2.45-.93-3.16-.62-.71-1.31-1.07-2.06-1.07-.41,2.49-.83,4.84-1.24,7.06-.42,2.22-.87,4.6-1.36,7.12Z"/>
      <path class="cls-17" d="M646.74,951.29l2.94-14.69c.45-2.71.94-5.5,1.47-8.36.53-2.86,1.03-5.69,1.5-8.48.47-2.79.84-5.4,1.1-7.85,2.15-.68,4.46-1.18,6.95-1.5,2.49-.32,4.95-.48,7.4-.48,2.86,0,4.81.62,5.85,1.87,1.04,1.24,1.55,2.92,1.55,5.03,0,1.92-.45,3.85-1.36,5.79-.9,1.94-2.08,3.69-3.53,5.25-1.45,1.56-3.04,2.8-4.77,3.7.68,1.51,1.4,3.16,2.18,4.94.77,1.79,1.5,3.49,2.18,5.11.38.94.76,1.88,1.16,2.82.4.94.78,1.88,1.16,2.83l-8.76,3.05-2.03-6.78c-.56-1.88-1.08-3.7-1.55-5.45-.47-1.75-.74-2.99-.82-3.7l-.73.23c-.11.6-.24,1.25-.37,1.95-.13.7-.27,1.46-.42,2.29-.15.83-.3,1.63-.45,2.4-.15.77-.3,1.54-.45,2.29l-1.02,5.37-9.15,2.37ZM660.02,926.77c.68-.07,1.52-.37,2.51-.88,1-.51,2-1.14,2.99-1.89,1-.75,1.84-1.53,2.51-2.32.68-.79,1.02-1.49,1.02-2.09,0-.75-.44-1.25-1.33-1.5-.89-.25-2.04-.37-3.48-.37h-1.24c-.23.04-.43.06-.62.06h-.56l-1.81,8.98Z"/>
      <path class="cls-17" d="M672.05,951.29l7.4-40.17,17.85-1.53c-.26.83-.49,1.68-.68,2.54-.19.72-.37,1.46-.54,2.23-.17.77-.31,1.46-.42,2.06-.49.04-1.19.07-2.09.08-.9.02-1.83.04-2.77.06-.94.02-1.75.03-2.43.03h-1.07l-1.98,10.11,3.28-.17c.41-.04.84-.06,1.27-.06h2.4c.34,0,.6-.02.79-.06-.08.53-.14,1.05-.2,1.55-.06.51-.12,1.03-.2,1.55l-.51,3.11c-.19.04-.43.06-.73.06h-1.07c-.41.04-.85.06-1.3.06s-.89.02-1.3.06c-.49.04-1,.06-1.53.06s-1.09.02-1.69.06l-1.92,10.4,8.25-1.3-.56,6.44-18.25,2.83Z"/>
      <path class="cls-17" d="M700.53,951.35c-1.51,0-3.01-.4-4.52-1.21-1.51-.81-2.96-2.1-4.35-3.87l4.18-8.19c.41.72,1.03,1.39,1.84,2.03.81.64,1.67,1.15,2.57,1.53.9.38,1.68.56,2.32.56.98,0,1.91-.3,2.8-.9.88-.6,1.33-1.41,1.33-2.43,0-1.32-.6-2.52-1.81-3.62-1.21-1.09-2.56-2.17-4.07-3.22-1.47-1.05-2.82-2.25-4.04-3.59-1.22-1.34-1.84-2.87-1.84-4.6,0-1.96.56-3.78,1.7-5.45,1.13-1.68,2.6-3.14,4.41-4.41,1.81-1.26,3.74-2.24,5.79-2.94,2.05-.7,4-1.05,5.85-1.05,1.32,0,2.54.22,3.67.65s2.03,1.14,2.71,2.12c.68.98,1.02,2.3,1.02,3.96,0,.26,0,.53-.03.79-.02.26-.05.53-.08.79-.04.26-.08.54-.14.82-.06.28-.1.57-.14.88l-8.19,2.37c.07-.3.14-.6.2-.9.06-.3.08-.6.08-.9,0-1.13-.2-1.95-.59-2.46-.4-.51-.91-.76-1.55-.76-.34,0-.83.18-1.47.54-.64.36-1.21.85-1.72,1.47-.51.62-.76,1.31-.76,2.06,0,1.24.52,2.27,1.55,3.08,1.04.81,2.23,1.63,3.59,2.46.64.38,1.36.97,2.15,1.78.79.81,1.48,1.9,2.06,3.28.58,1.38.88,3.14.88,5.28,0,2.79-.69,5.24-2.06,7.34-1.38,2.11-3.23,3.76-5.57,4.94-2.34,1.19-4.92,1.78-7.74,1.78Z"/>
      <path class="cls-17" d="M715.44,951.18c.53-2.18,1.05-4.66,1.58-7.43.53-2.77,1.05-5.64,1.58-8.62.53-2.97,1.02-5.84,1.47-8.59.41-2.41.82-4.86,1.21-7.34.4-2.49.78-4.99,1.16-7.51l8.81-1.41-2.54,14.86c-.56,3.5-1.06,6.65-1.5,9.44-.43,2.79-.85,5.42-1.24,7.91-.4,2.49-.8,5.03-1.21,7.63-.72,0-1.58.05-2.6.14s-2.03.21-3.05.34-1.87.25-2.57.37c-.7.11-1.06.19-1.1.23Z"/>
      <path class="cls-17" d="M736.8,951.46c-2.49,0-4.52-.96-6.1-2.88s-2.37-4.82-2.37-8.7c0-2.15.26-4.41.79-6.78.53-2.37,1.26-4.71,2.2-7.01.94-2.3,2.03-4.43,3.28-6.38,2-3.16,4.29-5.74,6.89-7.74,2.6-2,5.33-2.99,8.19-2.99,2.26,0,4,.57,5.23,1.72,1.22,1.15,2.08,2.62,2.57,4.41.49,1.79.73,3.64.73,5.57,0,4.48-.69,8.65-2.06,12.51-1.38,3.86-3.16,7.13-5.34,9.8-2.18,2.75-4.51,4.85-6.98,6.3-2.47,1.45-4.81,2.17-7.03,2.17ZM739.85,942.14c1.7,0,3.19-.56,4.49-1.69,1.3-1.13,2.4-2.57,3.31-4.32.9-1.75,1.58-3.59,2.03-5.51s.68-3.65.68-5.2c0-.6-.06-1.25-.17-1.95-.11-.7-.36-1.31-.73-1.84-.38-.53-.96-.79-1.75-.79-1.73,0-3.3.63-4.69,1.89-1.39,1.26-2.56,2.85-3.5,4.77-.94,1.96-1.64,3.88-2.09,5.76-.45,1.88-.68,3.6-.68,5.14,0,.79.28,1.61.85,2.46.56.85,1.32,1.27,2.26,1.27Z"/>
      <path class="cls-17" d="M754.71,951.51c1.13-5.42,2.2-10.68,3.22-15.76.83-4.78,1.64-9.38,2.43-13.79.79-4.41,1.36-8.46,1.69-12.15.26.04.5.06.71.06h1.72c.98,0,2.07-.03,3.28-.08,1.21-.06,2.32-.1,3.33-.14.26,1.32.52,2.62.76,3.9.24,1.28.46,2.52.65,3.73.19,1.05.4,2.14.62,3.25.23,1.11.45,2.23.68,3.36.19,1.13.39,2.17.59,3.14.21.96.39,1.84.54,2.63.45-2.22.88-4.41,1.27-6.55.4-2.15.78-4.09,1.16-5.82l1.64-7.57,6.89-.85c-.64,2.86-1.24,5.67-1.81,8.42-.56,2.75-1.09,5.41-1.58,7.97-.94,4.6-1.77,8.93-2.49,13-.72,4.07-1.26,7.61-1.64,10.62.41,0,.35.05-.2.14-.55.09-1.35.23-2.4.4-1.06.17-2.19.39-3.39.65-1.21.26-2.28.58-3.22.96-.11-1.51-.23-2.98-.34-4.41-.11-1.43-.25-2.83-.4-4.18-.23-2.41-.49-4.8-.79-7.17-.3-2.37-.6-4.26-.9-5.65-.26,1.66-.58,3.55-.96,5.68-.38,2.13-.79,4.27-1.24,6.41l-1.58,7.91-8.25,1.92Z"/>
      <path class="cls-17" d="M794.6,951.12c.08-.64.15-1.26.23-1.86.08-.6.15-1.21.23-1.81l.34-3.16c.04-.53.08-1.02.11-1.47.04-.45.07-.87.11-1.24h-4.92l-2.26,8.14c-.83.11-1.81.24-2.94.37-1.13.13-2.19.25-3.16.37-.6.08-1.2.15-1.78.23-.58.08-1.18.15-1.78.23l4.46-14.8c.53-1.77,1.13-3.79,1.81-6.05.68-2.26,1.36-4.58,2.06-6.95.7-2.37,1.36-4.6,1.98-6.7.62-2.09,1.12-3.85,1.5-5.28,2.56-.19,5.17-.41,7.83-.68,2.66-.26,5.24-.62,7.77-1.07-.19,2.11-.37,4.49-.54,7.15-.17,2.66-.32,5.4-.45,8.22-.13,2.82-.27,5.61-.42,8.36-.08,2.6-.17,5.28-.28,8.05-.11,2.77-.23,5.6-.34,8.5-.57.08-1.13.15-1.7.23-.56.08-1.13.15-1.69.23-.94.15-1.98.32-3.11.51s-2.15.36-3.05.51ZM792.06,935.92c.23,0,.65-.02,1.27-.06.62-.04,1.21-.08,1.78-.11.56-.04.9-.06,1.02-.06,0-.49.07-1.49.23-3,.15-1.51.3-3.09.45-4.75.08-.98.16-1.99.25-3.02.09-1.04.2-2.1.31-3.19l.34-4.92-.85.06-1.3,4.86-3.5,14.18Z"/>
      <path class="cls-17" d="M815.9,951.29l7.4-40.17,17.85-1.53c-.26.83-.49,1.68-.68,2.54-.19.72-.37,1.46-.54,2.23-.17.77-.31,1.46-.42,2.06-.49.04-1.19.07-2.09.08-.9.02-1.83.04-2.77.06-.94.02-1.75.03-2.43.03h-1.07l-1.98,10.11,3.28-.17c.41-.04.84-.06,1.27-.06h2.4c.34,0,.6-.02.79-.06-.08.53-.14,1.05-.2,1.55-.06.51-.12,1.03-.2,1.55l-.51,3.11c-.19.04-.43.06-.73.06h-1.07c-.41.04-.85.06-1.3.06s-.89.02-1.3.06c-.49.04-1,.06-1.53.06s-1.09.02-1.69.06l-1.92,10.4,8.25-1.3-.56,6.44-18.25,2.83Z"/>
      <path class="cls-17" d="M844.37,951.35c-1.51,0-3.01-.4-4.52-1.21-1.51-.81-2.96-2.1-4.35-3.87l4.18-8.19c.41.72,1.03,1.39,1.84,2.03.81.64,1.67,1.15,2.57,1.53.9.38,1.68.56,2.32.56.98,0,1.91-.3,2.8-.9.88-.6,1.33-1.41,1.33-2.43,0-1.32-.6-2.52-1.81-3.62-1.21-1.09-2.56-2.17-4.07-3.22-1.47-1.05-2.82-2.25-4.04-3.59-1.22-1.34-1.84-2.87-1.84-4.6,0-1.96.56-3.78,1.7-5.45,1.13-1.68,2.6-3.14,4.41-4.41,1.81-1.26,3.74-2.24,5.79-2.94,2.05-.7,4-1.05,5.85-1.05,1.32,0,2.54.22,3.67.65s2.03,1.14,2.71,2.12c.68.98,1.02,2.3,1.02,3.96,0,.26,0,.53-.03.79-.02.26-.05.53-.08.79-.04.26-.08.54-.14.82-.06.28-.1.57-.14.88l-8.19,2.37c.07-.3.14-.6.2-.9.06-.3.08-.6.08-.9,0-1.13-.2-1.95-.59-2.46-.4-.51-.91-.76-1.55-.76-.34,0-.83.18-1.47.54-.64.36-1.21.85-1.72,1.47-.51.62-.76,1.31-.76,2.06,0,1.24.52,2.27,1.55,3.08,1.04.81,2.23,1.63,3.59,2.46.64.38,1.36.97,2.15,1.78.79.81,1.48,1.9,2.06,3.28.58,1.38.88,3.14.88,5.28,0,2.79-.69,5.24-2.06,7.34-1.38,2.11-3.23,3.76-5.57,4.94-2.34,1.19-4.92,1.78-7.74,1.78Z"/>
      <path class="cls-17" d="M858.84,951.29c1.13-5.08,2.2-10.06,3.22-14.92.41-1.96.84-4.06,1.27-6.3.43-2.24.88-4.51,1.33-6.81.45-2.3.87-4.47,1.24-6.53.38-2.05.68-3.85.9-5.4,1.51-.45,3.14-.87,4.89-1.24,1.75-.38,3.32-.57,4.72-.57,2.26,0,4.05.48,5.37,1.44,1.32.96,2.26,2.25,2.82,3.87.57,1.62.85,3.39.85,5.31,0,2.11-.39,4.13-1.16,6.07-.77,1.94-1.81,3.68-3.11,5.23-1.3,1.54-2.79,2.77-4.46,3.67-1.68.9-3.42,1.36-5.23,1.36h-.62c-.3,1.28-.58,2.67-.85,4.18-.26,1.51-.49,2.9-.68,4.18-.15.75-.28,1.51-.4,2.26-.11.75-.23,1.51-.34,2.26l-9.77,1.92ZM872,930.55c.87-.23,1.73-.8,2.6-1.72.87-.92,1.58-2.1,2.15-3.53.57-1.43.85-2.99.85-4.69,0-1.39-.31-2.45-.93-3.16-.62-.71-1.31-1.07-2.06-1.07-.41,2.49-.83,4.84-1.24,7.06-.42,2.22-.87,4.6-1.36,7.12Z"/>
      <path class="cls-17" d="M894.38,951.12c.08-.64.15-1.26.23-1.86.08-.6.15-1.21.23-1.81l.34-3.16c.04-.53.08-1.02.11-1.47.04-.45.07-.87.11-1.24h-4.92l-2.26,8.14c-.83.11-1.81.24-2.94.37-1.13.13-2.19.25-3.16.37-.6.08-1.2.15-1.78.23-.58.08-1.18.15-1.78.23l4.46-14.8c.53-1.77,1.13-3.79,1.81-6.05.68-2.26,1.36-4.58,2.06-6.95.7-2.37,1.36-4.6,1.98-6.7.62-2.09,1.12-3.85,1.5-5.28,2.56-.19,5.17-.41,7.83-.68,2.66-.26,5.24-.62,7.77-1.07-.19,2.11-.37,4.49-.54,7.15-.17,2.66-.32,5.4-.45,8.22-.13,2.82-.27,5.61-.42,8.36-.08,2.6-.17,5.28-.28,8.05-.11,2.77-.23,5.6-.34,8.5-.57.08-1.13.15-1.7.23-.56.08-1.13.15-1.69.23-.94.15-1.98.32-3.11.51s-2.15.36-3.05.51ZM891.83,935.92c.23,0,.65-.02,1.27-.06.62-.04,1.21-.08,1.78-.11.56-.04.9-.06,1.02-.06,0-.49.07-1.49.23-3,.15-1.51.3-3.09.45-4.75.08-.98.16-1.99.25-3.02.09-1.04.2-2.1.31-3.19l.34-4.92-.85.06-1.3,4.86-3.5,14.18Z"/>
      <path class="cls-17" d="M914.04,951.35c-2.37,0-4.31-1.11-5.82-3.33-1.51-2.22-2.26-5.27-2.26-9.15,0-3.54.49-7.03,1.47-10.48.98-3.45,2.35-6.54,4.12-9.29,1.77-2.75,3.87-4.96,6.3-6.64,2.43-1.68,5.11-2.51,8.05-2.51,1.85,0,3.43.72,4.75,2.15,1.32,1.43,1.98,3.35,1.98,5.76v1.07c0,.11-.02.25-.06.4l-7.4,1.98c-.45-.94-.98-1.41-1.58-1.41-.9,0-1.86.73-2.85,2.2-1,1.47-1.95,3.22-2.85,5.25-.6,1.36-1.14,2.75-1.61,4.18-.47,1.43-.84,2.77-1.1,4.01-.26,1.24-.4,2.26-.4,3.05,0,1.17.17,2.02.51,2.54.26.49.68.73,1.24.73s1.19-.27,1.86-.82c.68-.55,1.31-1.23,1.89-2.06.58-.83.97-1.66,1.16-2.49l6.44,2.6c-1.85,4.22-4.04,7.32-6.58,9.29-2.54,1.98-4.96,2.97-7.26,2.97Z"/>
      <path class="cls-17" d="M926.81,951.18c.64-2.22,1.27-4.75,1.89-7.57.62-2.82,1.22-5.71,1.81-8.67.58-2.96,1.14-5.75,1.67-8.39.49-2.41.96-4.86,1.41-7.34.45-2.49.9-4.99,1.36-7.51l8.81-1.41c-.49,2.52-.98,5.02-1.47,7.49-.49,2.47-.98,4.93-1.47,7.37-.53,2.64-1.07,5.42-1.64,8.36-.57,2.94-1.11,5.83-1.64,8.67-.53,2.84-1.02,5.49-1.47,7.94-.68,0-1.53.05-2.54.14-1.02.09-2.03.21-3.05.34s-1.87.25-2.57.37c-.7.11-1.06.19-1.1.23Z"/>
      <path class="cls-17" d="M948.67,951.46c-2.49,0-4.52-.96-6.1-2.88s-2.37-4.82-2.37-8.7c0-2.15.26-4.41.79-6.78.53-2.37,1.26-4.71,2.2-7.01.94-2.3,2.03-4.43,3.28-6.38,2-3.16,4.29-5.74,6.89-7.74,2.6-2,5.33-2.99,8.19-2.99,2.26,0,4,.57,5.23,1.72,1.22,1.15,2.08,2.62,2.57,4.41.49,1.79.73,3.64.73,5.57,0,4.48-.69,8.65-2.06,12.51-1.38,3.86-3.15,7.13-5.34,9.8-2.18,2.75-4.51,4.85-6.98,6.3-2.47,1.45-4.81,2.17-7.03,2.17ZM951.72,942.14c1.7,0,3.19-.56,4.49-1.69,1.3-1.13,2.4-2.57,3.31-4.32.9-1.75,1.58-3.59,2.03-5.51.45-1.92.68-3.65.68-5.2,0-.6-.06-1.25-.17-1.95-.11-.7-.36-1.31-.73-1.84s-.96-.79-1.75-.79c-1.73,0-3.3.63-4.69,1.89-1.39,1.26-2.56,2.85-3.5,4.77-.94,1.96-1.64,3.88-2.09,5.76-.45,1.88-.68,3.6-.68,5.14,0,.79.28,1.61.85,2.46.56.85,1.32,1.27,2.26,1.27Z"/>
      <path class="cls-17" d="M977.15,951.29c1.13-5.08,2.2-10.06,3.22-14.92.41-1.96.84-4.06,1.27-6.3.43-2.24.88-4.51,1.33-6.81.45-2.3.87-4.47,1.24-6.53.38-2.05.68-3.85.9-5.4,1.51-.45,3.14-.87,4.89-1.24,1.75-.38,3.32-.57,4.72-.57,2.26,0,4.05.48,5.37,1.44,1.32.96,2.26,2.25,2.83,3.87.56,1.62.85,3.39.85,5.31,0,2.11-.39,4.13-1.16,6.07-.77,1.94-1.81,3.68-3.11,5.23-1.3,1.54-2.79,2.77-4.46,3.67-1.68.9-3.42,1.36-5.23,1.36h-.62c-.3,1.28-.58,2.67-.85,4.18-.26,1.51-.49,2.9-.68,4.18-.15.75-.28,1.51-.4,2.26-.11.75-.23,1.51-.34,2.26l-9.77,1.92ZM990.31,930.55c.87-.23,1.73-.8,2.6-1.72.87-.92,1.58-2.1,2.15-3.53.56-1.43.85-2.99.85-4.69,0-1.39-.31-2.45-.93-3.16-.62-.71-1.31-1.07-2.06-1.07-.42,2.49-.83,4.84-1.24,7.06-.41,2.22-.87,4.6-1.36,7.12Z"/>
      <path class="cls-17" d="M1013.36,951.12c.08-.64.15-1.26.23-1.86.08-.6.15-1.21.23-1.81l.34-3.16c.04-.53.07-1.02.11-1.47.04-.45.08-.87.11-1.24h-4.92l-2.26,8.14c-.83.11-1.81.24-2.94.37-1.13.13-2.19.25-3.16.37-.6.08-1.2.15-1.78.23-.58.08-1.18.15-1.78.23l4.46-14.8c.53-1.77,1.13-3.79,1.81-6.05s1.37-4.58,2.06-6.95c.7-2.37,1.36-4.6,1.98-6.7.62-2.09,1.12-3.85,1.5-5.28,2.56-.19,5.17-.41,7.83-.68,2.66-.26,5.25-.62,7.77-1.07-.19,2.11-.37,4.49-.54,7.15-.17,2.66-.32,5.4-.45,8.22-.13,2.82-.27,5.61-.42,8.36-.08,2.6-.17,5.28-.28,8.05-.11,2.77-.23,5.6-.34,8.5-.56.08-1.13.15-1.69.23-.57.08-1.13.15-1.7.23-.94.15-1.98.32-3.11.51s-2.15.36-3.05.51ZM1010.82,935.92c.23,0,.65-.02,1.27-.06.62-.04,1.21-.08,1.78-.11.57-.04.9-.06,1.02-.06,0-.49.08-1.49.23-3,.15-1.51.3-3.09.45-4.75.08-.98.16-1.99.25-3.02.09-1.04.2-2.1.31-3.19l.34-4.92-.85.06-1.3,4.86-3.5,14.18Z"/>
      <path class="cls-17" d="M1023.42,951.29l2.94-14.69c.45-2.71.94-5.5,1.47-8.36s1.03-5.69,1.5-8.48c.47-2.79.84-5.4,1.1-7.85,2.15-.68,4.46-1.18,6.95-1.5,2.49-.32,4.95-.48,7.4-.48,2.86,0,4.81.62,5.85,1.87,1.04,1.24,1.55,2.92,1.55,5.03,0,1.92-.45,3.85-1.36,5.79-.9,1.94-2.08,3.69-3.53,5.25-1.45,1.56-3.04,2.8-4.77,3.7.68,1.51,1.4,3.16,2.17,4.94.77,1.79,1.5,3.49,2.18,5.11.38.94.76,1.88,1.16,2.82.4.94.78,1.88,1.16,2.83l-8.76,3.05-2.03-6.78c-.56-1.88-1.08-3.7-1.55-5.45-.47-1.75-.74-2.99-.82-3.7l-.73.23c-.11.6-.24,1.25-.37,1.95-.13.7-.27,1.46-.42,2.29s-.3,1.63-.45,2.4c-.15.77-.3,1.54-.45,2.29l-1.02,5.37-9.15,2.37ZM1036.7,926.77c.68-.07,1.52-.37,2.51-.88,1-.51,2-1.14,2.99-1.89,1-.75,1.84-1.53,2.51-2.32s1.02-1.49,1.02-2.09c0-.75-.44-1.25-1.33-1.5-.89-.25-2.04-.37-3.47-.37h-1.24c-.23.04-.43.06-.62.06h-.56l-1.81,8.98Z"/>
      <path class="cls-17" d="M1062.91,951.12c.08-.64.15-1.26.23-1.86.08-.6.15-1.21.23-1.81l.34-3.16c.04-.53.07-1.02.11-1.47.04-.45.08-.87.11-1.24h-4.92l-2.26,8.14c-.83.11-1.81.24-2.94.37-1.13.13-2.19.25-3.16.37-.6.08-1.2.15-1.78.23-.58.08-1.18.15-1.78.23l4.46-14.8c.53-1.77,1.13-3.79,1.81-6.05s1.37-4.58,2.06-6.95c.7-2.37,1.36-4.6,1.98-6.7.62-2.09,1.12-3.85,1.5-5.28,2.56-.19,5.17-.41,7.83-.68,2.66-.26,5.25-.62,7.77-1.07-.19,2.11-.37,4.49-.54,7.15-.17,2.66-.32,5.4-.45,8.22-.13,2.82-.27,5.61-.42,8.36-.08,2.6-.17,5.28-.28,8.05-.11,2.77-.23,5.6-.34,8.5-.56.08-1.13.15-1.69.23-.57.08-1.13.15-1.7.23-.94.15-1.98.32-3.11.51s-2.15.36-3.05.51ZM1060.37,935.92c.23,0,.65-.02,1.27-.06.62-.04,1.21-.08,1.78-.11.57-.04.9-.06,1.02-.06,0-.49.08-1.49.23-3,.15-1.51.3-3.09.45-4.75.08-.98.16-1.99.25-3.02.09-1.04.2-2.1.31-3.19l.34-4.92-.85.06-1.3,4.86-3.5,14.18Z"/>
      <path class="cls-17" d="M1094.04,951.35c-2.37,0-4.31-1.11-5.82-3.33-1.51-2.22-2.26-5.27-2.26-9.15,0-3.54.49-7.03,1.47-10.48.98-3.45,2.35-6.54,4.12-9.29,1.77-2.75,3.87-4.96,6.3-6.64,2.43-1.68,5.11-2.51,8.05-2.51,1.85,0,3.43.72,4.75,2.15,1.32,1.43,1.98,3.35,1.98,5.76v1.07c0,.11-.02.25-.06.4l-7.4,1.98c-.45-.94-.98-1.41-1.58-1.41-.9,0-1.86.73-2.85,2.2-1,1.47-1.95,3.22-2.85,5.25-.6,1.36-1.14,2.75-1.61,4.18-.47,1.43-.84,2.77-1.1,4.01-.26,1.24-.4,2.26-.4,3.05,0,1.17.17,2.02.51,2.54.26.49.68.73,1.24.73s1.19-.27,1.87-.82c.68-.55,1.31-1.23,1.89-2.06.58-.83.97-1.66,1.16-2.49l6.44,2.6c-1.85,4.22-4.04,7.32-6.58,9.29-2.54,1.98-4.96,2.97-7.26,2.97Z"/>
      <path class="cls-17" d="M1117.38,951.46c-2.49,0-4.52-.96-6.1-2.88-1.58-1.92-2.37-4.82-2.37-8.7,0-2.15.26-4.41.79-6.78.53-2.37,1.26-4.71,2.2-7.01.94-2.3,2.03-4.43,3.28-6.38,2-3.16,4.29-5.74,6.89-7.74,2.6-2,5.33-2.99,8.19-2.99,2.26,0,4,.57,5.23,1.72,1.22,1.15,2.08,2.62,2.57,4.41.49,1.79.73,3.64.73,5.57,0,4.48-.69,8.65-2.06,12.51-1.38,3.86-3.16,7.13-5.34,9.8-2.18,2.75-4.51,4.85-6.98,6.3-2.47,1.45-4.81,2.17-7.03,2.17ZM1120.43,942.14c1.7,0,3.19-.56,4.49-1.69,1.3-1.13,2.4-2.57,3.3-4.32.9-1.75,1.58-3.59,2.03-5.51s.68-3.65.68-5.2c0-.6-.06-1.25-.17-1.95-.11-.7-.36-1.31-.73-1.84-.38-.53-.96-.79-1.75-.79-1.73,0-3.3.63-4.69,1.89s-2.56,2.85-3.5,4.77c-.94,1.96-1.64,3.88-2.09,5.76-.45,1.88-.68,3.6-.68,5.14,0,.79.28,1.61.85,2.46.56.85,1.32,1.27,2.26,1.27Z"/>
      <path class="cls-17" d="M1135.29,951.51c1.13-5.42,2.2-10.68,3.22-15.76.83-4.78,1.64-9.38,2.43-13.79.79-4.41,1.36-8.46,1.7-12.15.26.04.5.06.71.06h1.72c.98,0,2.07-.03,3.28-.08,1.21-.06,2.32-.1,3.33-.14.26,1.32.52,2.62.76,3.9.24,1.28.46,2.52.65,3.73.19,1.05.4,2.14.62,3.25.23,1.11.45,2.23.68,3.36.19,1.13.39,2.17.59,3.14.21.96.39,1.84.54,2.63.45-2.22.88-4.41,1.27-6.55.4-2.15.78-4.09,1.16-5.82l1.64-7.57,6.89-.85c-.64,2.86-1.24,5.67-1.81,8.42-.56,2.75-1.09,5.41-1.58,7.97-.94,4.6-1.77,8.93-2.49,13-.72,4.07-1.26,7.61-1.64,10.62.41,0,.35.05-.2.14s-1.35.23-2.4.4c-1.06.17-2.19.39-3.39.65-1.21.26-2.28.58-3.22.96-.11-1.51-.23-2.98-.34-4.41-.11-1.43-.25-2.83-.4-4.18-.23-2.41-.49-4.8-.79-7.17s-.6-4.26-.9-5.65c-.26,1.66-.58,3.55-.96,5.68-.38,2.13-.79,4.27-1.24,6.41l-1.58,7.91-8.25,1.92Z"/>
      <path class="cls-17" d="M1165.63,951.29c.41-2.07.84-4.13,1.27-6.19.43-2.05.84-4.08,1.21-6.07,1.43-7.16,2.6-14.01,3.5-20.57-.42-.08-.85-.12-1.3-.14-.45-.02-.89,0-1.3.03-.9.08-1.79-.04-2.66-.34.04-.3.06-.63.06-.99v-2.32c0-.4.02-.78.06-1.16.04-.41.06-.86.06-1.33s.02-.95.06-1.44c.98.08,1.96.13,2.94.17.98.04,1.96.06,2.94.06,2.79,0,5.45-.09,7.99-.28,2.54-.19,4.89-.41,7.03-.68l-.62,3.05-.51,2.66c-.19.98-.36,1.75-.51,2.32-.41.11-.83.21-1.24.28-.42.08-.83.13-1.24.17-.42.04-.84.09-1.27.17-.43.08-.86.15-1.27.23-.56,2.79-1.03,5.2-1.38,7.23-.36,2.03-.68,3.98-.96,5.85-.28,1.86-.61,3.91-.99,6.13-.64,3.81-1.21,7.67-1.7,11.58l-10.17,1.58Z"/>
      <path class="cls-17" d="M1181.28,951.18c.53-2.18,1.05-4.66,1.58-7.43s1.05-5.64,1.58-8.62c.53-2.97,1.02-5.84,1.47-8.59.41-2.41.82-4.86,1.21-7.34.4-2.49.78-4.99,1.16-7.51l8.81-1.41-2.54,14.86c-.56,3.5-1.06,6.65-1.5,9.44-.43,2.79-.85,5.42-1.24,7.91-.4,2.49-.8,5.03-1.21,7.63-.72,0-1.58.05-2.6.14-1.02.09-2.03.21-3.05.34s-1.87.25-2.57.37c-.7.11-1.06.19-1.1.23Z"/>
      <path class="cls-17" d="M1192.69,951.51c1.13-5.42,2.2-10.68,3.22-15.76.83-4.78,1.64-9.38,2.43-13.79.79-4.41,1.36-8.46,1.7-12.15.26.04.5.06.71.06h1.72c.98,0,2.07-.03,3.28-.08,1.21-.06,2.32-.1,3.33-.14.26,1.32.52,2.62.76,3.9.24,1.28.46,2.52.65,3.73.19,1.05.4,2.14.62,3.25.23,1.11.45,2.23.68,3.36.19,1.13.39,2.17.59,3.14.21.96.39,1.84.54,2.63.45-2.22.88-4.41,1.27-6.55.4-2.15.78-4.09,1.16-5.82l1.64-7.57,6.89-.85c-.64,2.86-1.24,5.67-1.81,8.42-.56,2.75-1.09,5.41-1.58,7.97-.94,4.6-1.77,8.93-2.49,13-.72,4.07-1.26,7.61-1.64,10.62.41,0,.35.05-.2.14s-1.35.23-2.4.4c-1.06.17-2.19.39-3.39.65-1.21.26-2.28.58-3.22.96-.11-1.51-.23-2.98-.34-4.41-.11-1.43-.25-2.83-.4-4.18-.23-2.41-.49-4.8-.79-7.17s-.6-4.26-.9-5.65c-.26,1.66-.58,3.55-.96,5.68-.38,2.13-.79,4.27-1.24,6.41l-1.58,7.91-8.25,1.92Z"/>
      <path class="cls-17" d="M1227.27,952.25c-1.13,0-2.28-.25-3.45-.73-1.17-.49-2.15-1.24-2.94-2.26-.79-1.02-1.19-2.32-1.19-3.9v-.45c0-.19.02-.34.06-.45.11-.98.27-2.26.48-3.84s.46-3.3.76-5.17c.3-1.86.61-3.72.93-5.57.32-1.84.61-3.52.88-5.03.56-3.01,1.02-5.44,1.36-7.29.34-1.84.61-3.27.82-4.27s.37-1.74.48-2.23c.41-.04.86-.08,1.33-.14s.97-.1,1.5-.14c.53-.08,1.04-.13,1.55-.17.51-.04,1.01-.08,1.5-.11l3.45-.34c-.49,2.3-.95,4.47-1.38,6.53-.43,2.05-.84,4-1.21,5.85l-2.6,12.49c-.23.94-.4,1.73-.51,2.37-.15.6-.31,1.37-.48,2.29-.17.92-.25,1.76-.25,2.51,0,.6.15,1.1.45,1.5s.68.59,1.13.59c.64,0,1.17-.25,1.58-.73s.75-1.09,1.02-1.81c.26-.71.47-1.44.62-2.17s.28-1.33.4-1.78c.38-1.73.72-3.42,1.05-5.06.32-1.64.66-3.38,1.02-5.23.36-1.85.76-3.97,1.21-6.38.3-1.66.61-3.34.93-5.06s.63-3.46.93-5.23l8.59-.56c-.68,3.62-1.34,7.25-1.98,10.9-.26,1.39-.56,2.96-.88,4.69s-.67,3.48-1.04,5.25c-.38,1.77-.73,3.45-1.04,5.03-.32,1.58-.61,2.94-.88,4.07-.75,3.09-1.92,5.51-3.5,7.26-1.58,1.75-3.32,2.99-5.23,3.7s-3.72,1.07-5.45,1.07Z"/>
      <path class="cls-17" d="M1256.25,951.12c.08-.64.15-1.26.23-1.86.08-.6.15-1.21.23-1.81l.34-3.16c.04-.53.07-1.02.11-1.47.04-.45.08-.87.11-1.24h-4.92l-2.26,8.14c-.83.11-1.81.24-2.94.37-1.13.13-2.19.25-3.16.37-.6.08-1.2.15-1.78.23-.58.08-1.18.15-1.78.23l4.46-14.8c.53-1.77,1.13-3.79,1.81-6.05s1.37-4.58,2.06-6.95c.7-2.37,1.36-4.6,1.98-6.7.62-2.09,1.12-3.85,1.5-5.28,2.56-.19,5.17-.41,7.83-.68,2.66-.26,5.25-.62,7.77-1.07-.19,2.11-.37,4.49-.54,7.15-.17,2.66-.32,5.4-.45,8.22-.13,2.82-.27,5.61-.42,8.36-.08,2.6-.17,5.28-.28,8.05-.11,2.77-.23,5.6-.34,8.5-.56.08-1.13.15-1.69.23-.57.08-1.13.15-1.7.23-.94.15-1.98.32-3.11.51s-2.15.36-3.05.51ZM1253.71,935.92c.23,0,.65-.02,1.27-.06.62-.04,1.21-.08,1.78-.11.57-.04.9-.06,1.02-.06,0-.49.08-1.49.23-3,.15-1.51.3-3.09.45-4.75.08-.98.16-1.99.25-3.02.09-1.04.2-2.1.31-3.19l.34-4.92-.85.06-1.3,4.86-3.5,14.18Z"/>
      <path class="cls-17" d="M1266.31,951.29l2.94-14.69c.45-2.71.94-5.5,1.47-8.36s1.03-5.69,1.5-8.48c.47-2.79.84-5.4,1.1-7.85,2.15-.68,4.46-1.18,6.95-1.5,2.49-.32,4.95-.48,7.4-.48,2.86,0,4.81.62,5.85,1.87,1.04,1.24,1.55,2.92,1.55,5.03,0,1.92-.45,3.85-1.36,5.79-.9,1.94-2.08,3.69-3.53,5.25-1.45,1.56-3.04,2.8-4.77,3.7.68,1.51,1.4,3.16,2.17,4.94.77,1.79,1.5,3.49,2.18,5.11.38.94.76,1.88,1.16,2.82.4.94.78,1.88,1.16,2.83l-8.76,3.05-2.03-6.78c-.56-1.88-1.08-3.7-1.55-5.45-.47-1.75-.74-2.99-.82-3.7l-.73.23c-.11.6-.24,1.25-.37,1.95-.13.7-.27,1.46-.42,2.29s-.3,1.63-.45,2.4c-.15.77-.3,1.54-.45,2.29l-1.02,5.37-9.15,2.37ZM1279.59,926.77c.68-.07,1.52-.37,2.51-.88,1-.51,2-1.14,2.99-1.89,1-.75,1.84-1.53,2.51-2.32s1.02-1.49,1.02-2.09c0-.75-.44-1.25-1.33-1.5-.89-.25-2.04-.37-3.47-.37h-1.24c-.23.04-.43.06-.62.06h-.56l-1.81,8.98Z"/>
    </g>
  </g>
</svg>