<?xml version="1.0" encoding="UTF-8"?>
<svg id="Capa_2" data-name="Capa 2" xmlns="http://www.w3.org/2000/svg" xmlns:xlink="http://www.w3.org/1999/xlink" viewBox="0 0 1921 1072.5">
  <defs>
    <style>
      .cls-1 {
        fill: url(#Degradado_sin_nombre_5);
      }

      .cls-2 {
        stroke: #ceeae9;
        stroke-width: 5.79px;
      }

      .cls-2, .cls-3, .cls-4, .cls-5, .cls-6, .cls-7, .cls-8 {
        stroke-miterlimit: 10;
      }

      .cls-2, .cls-3, .cls-9, .cls-7 {
        fill: none;
      }

      .cls-10 {
        clip-path: url(#clippath-4);
      }

      .cls-11 {
        fill: #24293f;
      }

      .cls-3 {
        stroke-width: 1.96px;
      }

      .cls-3, .cls-7 {
        stroke: #1d1d1b;
      }

      .cls-12 {
        fill: #805b54;
      }

      .cls-13 {
        fill: #bba590;
      }

      .cls-14, .cls-4 {
        fill: #fff;
      }

      .cls-15 {
        fill: #89c64e;
      }

      .cls-4 {
        stroke: #000;
      }

      .cls-16 {
        fill: #edf4f4;
      }

      .cls-17 {
        clip-path: url(#clippath-1);
      }

      .cls-18 {
        fill: #a9c245;
      }

      .cls-19 {
        fill: #75b234;
      }

      .cls-20 {
        clip-path: url(#clippath-3);
      }

      .cls-21 {
        fill: #1d1d1b;
      }

      .cls-22 {
        fill: #acc95b;
      }

      .cls-23 {
        fill: #9ac146;
      }

      .cls-24 {
        fill: #76b956;
      }

      .cls-25 {
        clip-path: url(#clippath-2);
      }

      .cls-5 {
        fill: #54af32;
        stroke: #121c30;
      }

      .cls-5, .cls-6, .cls-8 {
        stroke-width: 7px;
      }

      .cls-26 {
        fill: #f4f9d9;
      }

      .cls-27 {
        fill: #8bc146;
      }

      .cls-28 {
        fill: #d3d392;
      }

      .cls-6 {
        fill: url(#Degradado_sin_nombre_3-2);
      }

      .cls-6, .cls-8 {
        stroke: #7c5a2b;
      }

      .cls-7 {
        stroke-width: 2.17px;
      }

      .cls-29 {
        fill: #382c1e;
      }

      .cls-30 {
        fill: #f3d490;
      }

      .cls-31 {
        clip-path: url(#clippath);
      }

      .cls-32 {
        fill: #e5e6a0;
      }

      .cls-33 {
        fill: #5f8e9e;
      }

      .cls-8 {
        fill: url(#Degradado_sin_nombre_3);
      }
    </style>
    <clipPath id="clippath">
      <rect class="cls-9" x="4" y="1.5" width="1917" height="1071"/>
    </clipPath>
    <linearGradient id="Degradado_sin_nombre_5" data-name="Degradado sin nombre 5" x1="709.68" y1="-485.42" x2="709.68" y2="876.44" gradientTransform="translate(0 877.91) scale(1 -1)" gradientUnits="userSpaceOnUse">
      <stop offset="0" stop-color="#d1fdfe"/>
      <stop offset="1" stop-color="#97ddef"/>
    </linearGradient>
    <clipPath id="clippath-1">
      <polygon class="cls-9" points="1919.37 1363.96 -500.02 1361.75 -503.39 1.16 1919.37 1.16 1919.37 1363.96"/>
    </clipPath>
    <linearGradient id="Degradado_sin_nombre_3" data-name="Degradado sin nombre 3" x1="590.72" y1="874.41" x2="590.72" y2="394.41" gradientTransform="translate(0 877.91) scale(1 -1)" gradientUnits="userSpaceOnUse">
      <stop offset="0" stop-color="#d1fdfe"/>
      <stop offset=".36" stop-color="#cefbfd"/>
      <stop offset=".58" stop-color="#c6f6fb"/>
      <stop offset=".76" stop-color="#b7eff7"/>
      <stop offset=".92" stop-color="#a3e3f2"/>
      <stop offset="1" stop-color="#97ddef"/>
    </linearGradient>
    <linearGradient id="Degradado_sin_nombre_3-2" data-name="Degradado sin nombre 3" y1="334.41" y2="-145.59" xlink:href="#Degradado_sin_nombre_3"/>
    <clipPath id="clippath-2">
      <polygon class="cls-9" points="1177 1023.5 4.44 1023.5 4.64 543.5 1176.59 543.5 1177 1023.5"/>
    </clipPath>
    <clipPath id="clippath-3">
      <rect class="cls-9" x="736" y="39.5" width="1185" height="1033"/>
    </clipPath>
    <clipPath id="clippath-4">
      <path class="cls-9" d="M1306.92,1597.34c-639.97-38.93-269.96-673.25-185.32-787.29,41.45-55.84,75.01-150.87,77.02-231.13,16.09,9.84,53.72,29.85,105.57,30.53,54.97.71,94.91-20.73,110.94-30.53-.84,83.32,33.84,172.84,77.11,231.13,84.64,114.04,454.65,748.36-185.32,787.29h0Z"/>
    </clipPath>
  </defs>
  <g id="Capa_1-2" data-name="Capa 1">
    <g id="Capa_1-2" data-name="Capa 1-2">
      <g>
        <g class="cls-31">
          <g>
            <polygon class="cls-1" points="1921.07 1363.33 -501.7 1363.33 -501.29 1.47 1920.22 1.47 1921.07 1363.33"/>
            <path class="cls-16" d="M441.48,1259.03c0-33.06-59.55-61.28-143.41-72.43,1.78-2.89,2.72-5.87,2.72-8.92,0-17.46-30.47-32.7-75.81-40.92.7-2.11,1.07-4.26,1.07-6.44,0-30.8-71.85-55.76-160.47-55.76-25.24,0-49.11,2.03-70.36,5.63-.61-34.8-68.28-62.93-151.66-62.93-56.86,0-106.41,13.08-132.38,32.44-34.81-10.58-83.77-17.16-138.01-17.16-24,0-46.98,1.29-68.15,3.65v104.22h.01-.01l-6.15,223.86,882.31-2.72-22.23-42.32c50.35-14.22,82.53-35.9,82.53-60.2h0Z"/>
            <path class="cls-16" d="M514.87,183.87c0-14.29-81.64-25.87-182.34-25.87-35.74,0-69.07,1.46-97.2,3.98-25.73-17.29-80.17-29.22-143.18-29.22-87.81,0-158.99,23.16-158.99,51.74,0,9.48,7.85,18.37,21.54,26.01-64.73,3.84-113.66,21.52-113.66,42.76,0,24.04,62.71,43.53,140.07,43.53,58.54,0,108.68-11.16,129.62-27.01,35.38,2.74,75.63,4.3,118.34,4.3,141.12,0,255.53-16.95,255.53-37.86,0-11.24-33.09-21.34-85.61-28.27,67.85-3.77,115.9-13.14,115.9-24.1h-.02Z"/>
            <g class="cls-17">
              <path class="cls-16" d="M1919.37,919.62c-54.77-12.36-148.8-3.81-209.12,18.89-66.01-69.45-293.73-55.12-292.98,43v.25c-97.63-19.66-237.54,3.29-236.42,68.85-.05,3.29.25,6.47.89,9.55-44.97,9.72-78.13,28.51-77.44,56.37-.12,5.02.87,9.74,2.81,14.17-81.97,12.85-147.82,45.87-146.91,99.05-.64,38.66,33.99,66.66,84.44,84.01l-32.65,85.54,907.4-43.58v-291.03h0v-145.04l-.02-.03Z"/>
            </g>
            <path class="cls-16" d="M1558.58,246.97c52.57-6.6,85.72-16.49,85.79-27.73.13-20.91-114.16-38.57-255.28-39.46-42.71-.27-82.97,1.03-118.36,3.56-20.84-15.98-70.91-27.46-129.44-27.82-77.35-.49-140.19,18.61-140.34,42.65-.13,21.24,48.68,39.22,113.39,43.47-13.74,7.56-21.64,16.39-21.7,25.88-.18,28.57,70.86,52.18,158.67,52.73,63,.4,117.52-11.19,143.36-28.32,28.12,2.7,61.44,4.37,97.18,4.59,100.7.63,182.41-10.44,182.5-24.72.07-10.96-47.92-20.63-115.74-24.82h-.03Z"/>
            <path class="cls-16" d="M1919.82,502.29c-54.77-10.46-148.8-3.22-209.12,15.99-66.01-58.78-293.73-46.64-292.98,36.39v.21c-97.63-16.64-237.54,2.79-236.42,58.27-.05,2.78.25,5.48.89,8.08-44.97,8.23-78.13,24.13-77.44,47.7-.12,4.25.87,8.24,2.81,11.99-81.97,10.88-147.82,38.81-146.91,83.82-.64,32.72,33.99,56.41,84.44,71.09l-32.65,72.39,907.4-36.88v-246.29h0v-122.74l-.02-.02Z"/>
            <path class="cls-16" d="M1548.98,240.89c52.57-5.59,85.72-13.96,85.79-23.47.13-17.69-114.16-32.64-255.28-33.39-42.71-.23-82.97.88-118.36,3.01-20.84-13.52-70.91-23.24-129.44-23.55-77.35-.41-140.19,15.75-140.34,36.1-.13,17.97,48.68,33.19,113.39,36.79-13.74,6.4-21.64,13.87-21.7,21.9-.18,24.18,70.86,44.16,158.67,44.63,63,.33,117.52-9.47,143.36-23.96,28.12,2.28,61.44,3.69,97.18,3.88,100.7.53,182.41-8.83,182.5-20.92.07-9.28-47.92-17.46-115.74-21.01h-.03Z"/>
            <path class="cls-16" d="M459.4,900.89c0-46.01-61.07-85.28-147.05-100.8,1.82-4.02,2.79-8.17,2.79-12.41,0-24.29-31.24-45.51-77.74-56.94.72-2.94,1.1-5.93,1.1-8.97,0-42.86-73.67-77.6-164.55-77.6-25.88,0-50.36,2.82-72.15,7.84-.63-48.42-70.01-87.57-155.52-87.57-58.31,0-109.12,18.21-135.75,45.14-35.69-14.72-85.9-23.88-141.52-23.88-24.62,0-48.17,1.8-69.88,5.08v145.04h.01-.01v291.04l908.43,43.58-32.78-85.78c51.63-19.78,84.63-49.96,84.63-83.78h-.01Z"/>
            <polygon class="cls-18" points="1921.48 1356.53 -501.31 1356.53 -502.03 864.4 1922 864.4 1921.48 1356.53"/>
            <path class="cls-33" d="M1021.03,1072.28l-23.51-33.14c-7.29-1.24-15.43-2.52-20.65-2.97-6.52-.56,4.44-3.05,14.95-5.07l-3.76-5.3-38.95-5.24h35.23l-3.69-5.2-50.47-23.1h34.08l-6.79-9.58c-18.15-7.96-41.68-18.34-46.21-20.68-4.71-2.43,18.87,3.44,37.39,8.23l-5.84-8.23h634.71l-89.59-97.6H-123.47l-95.9,99.55h776.04l-13.9,21.29,35.35-7.63-44.36,21.45-1.93,2.95h62.7l-58.05,14.64,34.07,11.71-51.74,2.93-6.82,1.12-22.2,34.02-991.82,3.9.74,293.95H1921.48l-.74-292h-899.71,0Z"/>
            <path class="cls-23" d="M1849.51,928.54c71.23-32.1,63.66-27.09-28.46-41.13-92.12-14.05-282.66-11.04-271.3,9.03,11.36,20.07,17.67,54.18,76.97,65.21,57.55,10.71-71.93,17.06-205.68,23.08,0,0,75.71,18.06-88.33,20.07-164.04,2.01-263.73-23.08-283.92-2.01-20.19,21.07-122.4,13.04,2.52,27.09,124.92,14.05,167.83,22.07,123.66,25.08-44.17,3.01-132.5,14.05,15.14,13.04,147.64-1,437.86,8.03,466.89,0,29.02-8.03-60.57-11.04,8.83-18.06,69.4-7.02,225.87-6.02,229.66-25.08s-10.09-17.06-32.81-55.18c-22.71-38.12-84.41-9.03-13.18-41.13h.01ZM1586.35,1023.85c-12.62,8.03-23.98,7.02-126.19,1-102.21-6.02-2.52-3.01,60.57-9.03,63.09-6.02-3.79-5.02-39.12-13.04-35.33-8.03,50.47-4.01,50.47-4.01,41.64-10.03,42.9-3.01,7.57,2.01-35.33,5.02-3.79,4.01,32.81,6.02,36.59,2.01,26.5,9.03,13.88,17.06h.01Z"/>
            <path class="cls-23" d="M112.5,979.23s-208.21,8.83-172.87,25.24c35.33,16.4,32.81-3.79,165.3,12.62,132.5,16.4,170.35,64.35,222.09,36.59s182.97-73.19,21.45-60.57-282.66,13.88-205.68,1.26c76.97-12.62,175.4-34.07-30.28-15.14h-.01Z"/>
            <path class="cls-23" d="M1649.44,1019.61s53,29.02,42.9,35.33c-10.09,6.31-7.57,7.57,61.83,2.52,69.4-5.05,136.28-21.45,69.4-23.98"/>
            <path class="cls-2" d="M766.63,941.24c114.64,0,207.58-33.76,207.58-75.4,0-.11,0-.21-.01-.32h-415.13c0,.11-.01.21-.01.32,0,41.64,92.93,75.4,207.58,75.4h-.01Z"/>
            <path class="cls-2" d="M767.26,895.81c49.48,0,88.33-24.45,89.59-30.28h-179.18c-1.26,5.84,40.11,30.28,89.59,30.28Z"/>
            <ellipse class="cls-16" cx="763.27" cy="732.63" rx="206.94" ry="30.92"/>
            <ellipse class="cls-16" cx="763.27" cy="733.89" rx="206.94" ry="30.92"/>
            <ellipse class="cls-16" cx="763.27" cy="735.15" rx="206.94" ry="30.92"/>
            <ellipse class="cls-16" cx="763.27" cy="736.42" rx="206.94" ry="30.92"/>
            <ellipse class="cls-16" cx="763.27" cy="737.68" rx="206.94" ry="30.92"/>
            <ellipse class="cls-16" cx="763.27" cy="738.94" rx="206.94" ry="30.92"/>
            <ellipse class="cls-16" cx="763.27" cy="740.2" rx="206.94" ry="30.92"/>
            <ellipse class="cls-16" cx="763.27" cy="741.46" rx="206.94" ry="30.92"/>
            <ellipse class="cls-16" cx="763.27" cy="742.73" rx="206.94" ry="30.92"/>
            <ellipse class="cls-16" cx="763.27" cy="743.99" rx="206.94" ry="30.92"/>
            <ellipse class="cls-16" cx="763.27" cy="745.25" rx="206.94" ry="30.92"/>
            <ellipse class="cls-16" cx="763.27" cy="746.51" rx="206.94" ry="30.92"/>
            <ellipse class="cls-16" cx="763.27" cy="747.77" rx="206.94" ry="30.92"/>
            <ellipse class="cls-16" cx="763.27" cy="749.04" rx="206.94" ry="30.92"/>
            <ellipse class="cls-16" cx="763.27" cy="750.3" rx="206.94" ry="30.92"/>
            <ellipse class="cls-16" cx="763.27" cy="751.56" rx="206.94" ry="30.92"/>
            <ellipse class="cls-16" cx="763.27" cy="752.82" rx="206.94" ry="30.92"/>
          </g>
        </g>
        <path class="cls-23" d="M72.72,39.31s150.91,0,89.26,23.67c-61.65,23.67-101.57,30.76-41.58,61.53,59.99,30.76,149.24,56.8,66.43,85.19-82.82,28.4-146.31,54.43-32.21,63.9,114.1,9.47,229.12,73.36,136.19,87.56-92.94,14.2-162.87-9.47-92.02,16.57,70.85,26.03,138.03,47.33-11.96,35.5-149.99-11.83-242.93-42.6-149.07-52.06,93.86-9.47,186.79-9.47,116.86-37.86-69.93-28.4-142.63-75.73-97.54-106.49,45.09-30.76,102.14-49.7,47.85-78.09C50.64,110.31,9.23,67.71,48.8,62.98c39.57-4.73,114.1,11.83,23.92-23.67Z"/>
        <polygon class="cls-8" points="1177 483.5 4.44 483.5 4.64 3.5 1176.59 3.5 1177 483.5"/>
        <rect class="cls-13" x="7" y="188.3" width="1166" height="295.2"/>
        <path class="cls-22" d="M341,402.5c-.29.16-.57.32-.85.49-.27-3.02.85-.49.85-.49Z"/>
        <path class="cls-19" d="M699,348.5s19.65,6.57,20.83,12.29-12.83,10.71,4.17,12.71,30,0,28,7-11,5-18,14-21,8-37,7-12.87-9.34-7.43-9.67,16.22-12.14,7.83-13.73c-8.39-1.6-38.91-8.87-27.65-13.73,11.26-4.86,29.26-15.86,29.26-15.86h-.01Z"/>
        <path class="cls-15" d="M465,333.5c-2,0-116,5-107,11s53,17-1,16-99-16-117-5,22,14-16,17-64.14-14-54.57,3.5-20.43,23.5,20.57,21.5,42-7,59-11,38.7-3.1,55.85,6.95c17.15,10.05,41.8,16.03,55.98,9.54,14.17-6.49-11.83-14.49,21.17-17.49s53.61,5.57,90.81-.22c37.19-5.78,107.37-18.25,50.28-24.01-57.09-5.77-66.39,18.43-77.74,8.33s53.04-24.29,20.35-33.7"/>
        <path class="cls-22" d="M7,188.3v295.2h1166V188.3H7ZM753,404.5l-36.92,10-41.17-21.05-1.91,22.05-11-18,3.06,19.61-18.06-19.61,3.11,22.74-5.11-11.74-5,10-8.39-25.05-15.61,22.09v-12.04l-19.15,16.22-3.85-26.27-16,21.05-5-10-3.07,16.26-36.93-18.26-12,20-12-19-12,26-12-24-6.83,21-9.17-17c-6,12-14,17-14,17,1-7-4.33-14.09-4.33-14.09-2.34,14.92-15.67,16.09-15.67,16.09-3-14-13-21-13-21,3,11-13,24-13,24l-20-31-13.09,15-6.91-16-11.35,16c-13.35-1-15.65-7.26-15.65-7.26-.51-2.58-.76-4.23-.85-5.25-8.53,5.01-14.15,12.51-14.15,12.51l-21.15-22.05-8.2,19.05-2.65-7-27,7,14.46-25.67-59.68,17.67,1.22-26-15,26-50.39-11.05,10.39-27.95-20.83,17.67,37.57-59.22-19.31,1.14,55.57-25.59-63,2,14-17.43,68,.43,9,14,7,13,11-13,18,16,.7-18.46,16.3,9.46,2.85-9.46,30.93,22,6.22-26.54,42.3,26.54,16.7-28.54,48.67,24.3v-17.76l14.33,9.46,12-20,218,23,34-23-2,18,19.35-7.46-9.35,25.46,18.22,2.45-24.22,19.55,28,2-3.26,15.77,17.74,21.9-32.48,2.33,13,19h0Z"/>
        <g>
          <rect class="cls-28" x="459.86" y="151.38" width="254.71" height="230.9" transform="translate(-1.99 4.41) rotate(-.43)"/>
          <ellipse class="cls-32" cx="587.33" cy="146.74" rx="128.39" ry="25.89" transform="translate(-1.08 4.41) rotate(-.43)"/>
          <ellipse class="cls-29" cx="587.33" cy="146.74" rx="53.92" ry="10.87" transform="translate(-1.08 4.41) rotate(-.43)"/>
          <path class="cls-28" d="M449.67,361.36s-3.16,14.4-3.48,16.62c-.31,2.23-12.26,10.22-12.26,10.22l-118.15.63-155.75-9.09,9.4-3.74,12.81-.26,15.19,2.69-20.64-5.36,6.21-2.48c2.3,1.38,4.1,2.49,4.1,2.49l5.86.26s-2.62-2.2-5.2-4.63l3.87-1.55,258.03-5.8h.01Z"/>
          <path class="cls-15" d="M523.43,241.98s-32.7-17.5-24.7,2.5c8,20,29.23,11.87,6.62,29.43-22.62,17.57-39.62,16.57-29.62,29.57s-3.35,19.07,14.83,19.54c18.17.46,25.17,3.46,31.17-4.54s-24.7-4.91,12.65-19.95c37.35-15.05,14.35-1.05,55.35-30.05s113.22-30,51.11-41c-62.11-11-84.11-16-93.11-7s-11.26,26-8.13,32-16.17-10.5-16.17-10.5h0Z"/>
          <path class="cls-26" d="M715.42,381.32s-24.3.07-58.18,1.14c-6.41.2-13.15.43-20.15.7-29.51,1.17-63.36,3.08-94.03,6.18-76.36,7.72-249.6,2.76-227.28-.52,31.24-4.58,94.06-11,150.26-33.54,40.28-16.14,87.43-52.02,129.81-89.6,56.13-49.75,103.91-102.51,116.29-116.42,2.04-2.29,3.11-3.52,3.11-3.52l.12,169.43.03,46.13.02,20.01h0Z"/>
          <path class="cls-15" d="M715.62,361.32c-.07,0-.15-.02-.22-.01-12.66-.94-28.94,2.49-48.86,15.47-3.46,2.26-6.54,4.14-9.3,5.68-6.41.2-13.15.43-20.15.7.71-9.89,14.99-30.37,18.9-33.04,6.92-4.75,36.67-11.45,27.29-19.37-9.38-7.9-22.87-12.19-43.48,1.12-20.61,13.33-49.3,4.24-54.4-5.57-3.87-7.45,6.98-29.68,17.38-29.27,22.16.89,28.56,11.36,83.52,22.92,54.97,11.55,7.7-8.44-22.39-17.8-30.1-9.35-17.42-32.27-6.47-34.67,12.21-2.68,18.16,5.85,39.53,24.44,6.56,5.71,13.04,7.02,18.33,5.53.02,6.05.05,11.97.07,17.71.08,18.41.18,34.78.25,46.14v.02Z"/>
          <path class="cls-15" d="M714.91,264.52c-14.6-12.65-18.72,19.71-42.8,1.1-26.55-20.51,12.88-8.37,14.78-31.17,1.9-22.8-23.38-10.69-41.78,19.99-11.76,19.61-33.82,18.59-48.25,11.25,56.13-49.75,103.91-102.51,116.29-116.42,1.97,1.26,3.65,2.94,2.65,4.72-.89,1.61-1.02,53.28-.88,110.53h-.01Z"/>
        </g>
        <g>
          <rect class="cls-28" x="1587.65" y="379.82" width="230.9" height="254.71" transform="translate(-72.96 565.37) rotate(-18.46)"/>
          <ellipse class="cls-32" cx="1588.85" cy="544.49" rx="25.89" ry="128.39" transform="translate(-90.65 531.12) rotate(-18.46)"/>
          <ellipse class="cls-29" cx="1588.85" cy="544.49" rx="10.87" ry="53.92" transform="translate(-90.65 531.12) rotate(-18.46)"/>
          <path class="cls-28" d="M1813.74,578.46s14.35,3.35,16.57,3.7c2.22.34,10.05,12.33,10.05,12.33l-1.05,117.44-11.3,154.66-3.6-9.4-.08-12.73,2.91-15.06-5.66,20.43-2.39-6.21c1.41-2.27,2.55-4.04,2.55-4.04l.34-5.82s-2.24,2.57-4.7,5.1l-1.49-3.87-2.13-256.54h-.02Z"/>
          <path class="cls-15" d="M1699.22,575.65s-6.52,36.51,10.02,22.71,2.24-31.47,25.94-15.4c23.7,16.07,28.02,32.54,37.28,19.01,9.27-13.53,19.17-2.72,13.99-20.15-5.19-17.42-4.5-25.01-13.96-28.24s2.98,25-22.89-5.85c-25.87-30.86-5.44-13.32-45.7-43.33-40.27-30.01-63.57-98.37-54.81-35.91s10.82,84.93,22.17,90.7c11.34,5.77,28.21,2.66,32.95-2.17,4.74-4.83-4.98,18.63-4.98,18.63h-.01Z"/>
          <path class="cls-26" d="M1772.29,349.95s7.59,23.08,19.1,54.97c2.17,6.03,4.48,12.37,6.91,18.95,10.25,27.7,21.16,59.94,34.98,87.5,46.73,93.14,5.75,357.35-4.27,337.14-14.03-28.29,34.56-206.89-4.27-253.36-27.82-33.3-76.53-67.03-125.38-95.7-64.68-37.97-129.64-67.07-146.7-74.54-2.81-1.23-4.31-1.87-4.31-1.87l161.07-52.56,43.85-14.31,19.02-6.21h0Z"/>
          <path class="cls-15" d="M1753.21,355.95c.02.07.03.15.06.21,3.03,12.33,11.32,26.75,29.84,41.67,3.21,2.59,5.96,4.94,8.28,7.08,2.17,6.03,4.48,12.37,6.91,18.95-9.62,2.39-33.52-4.85-37.27-7.75-6.66-5.11-22.24-31.32-26.86-19.95-4.61,11.37-4.51,25.52,14.53,40.99,19.05,15.47,19.3,45.57,11.54,53.46-5.89,5.99-30.39,2.55-33.21-7.47-6.02-21.35,1.96-30.68-4.06-86.52-6.03-55.85-10.41-4.71-9.99,26.8.43,31.51-25.29,26.55-30.96,16.88-6.33-10.79-.06-19.08,11.01-45.15,3.4-8,2.64-14.58-.42-19.14,5.74-1.9,11.37-3.75,16.82-5.55,17.48-5.78,33.02-10.94,43.8-14.52h-.02Z"/>
          <path class="cls-15" d="M1661.38,386.6c-7.51,17.8,24.53,11.7,14.3,40.36-11.28,31.6-11.95-9.66-34.21-4.41-22.27,5.25-2.93,25.54,31.94,33.54,22.28,5.12,28.15,26.4,25.63,42.4-64.68-37.97-129.64-67.07-146.7-74.54.59-2.27,1.66-4.38,3.66-3.98,1.81.35,50.98-15.52,105.38-33.38h0Z"/>
        </g>
        <path class="cls-27" d="M81,426.5L4,400.5l68,12-62-44,57,16s-41-73-48-87,81,77,82,79l8-74,10,72,37.11-30.4-27.11,52.4,43,10-47.98,20"/>
        <path class="cls-27" d="M936,448.5l77-26-68,12,62-44-57,16s41-73,48-87-81,77-82,79l-8-74-10,72-37.11-30.4,27.11,52.4-43,10,47.98,20"/>
        <path class="cls-27" d="M1078,243.5l-77-26,68,12-62-44,57,16s-41-73-48-87,81,77,82,79l8-74,10,72,37.11-30.4-27.11,52.4,43,10-47.98,20"/>
        <path class="cls-27" d="M237,225.5l-77-26,68,12-31-40,26,12s17-71,10-85,23,75,24,77l51-70-36,79,50-24-48,48,54-3-47.98,20"/>
        <path class="cls-22" d="M341,402.5c-.29.16-.57.32-.85.49-.27-3.02.85-.49.85-.49Z"/>
        <polygon class="cls-6" points="1177 1023.5 4.44 1023.5 4.64 543.5 1176.59 543.5 1177 1023.5"/>
        <rect class="cls-13" x="7" y="746.3" width="1166" height="295.2"/>
        <path class="cls-22" d="M341,960.5c-.29.16-.57.32-.85.49-.27-3.02.85-.49.85-.49Z"/>
        <path class="cls-19" d="M699,906.5s19.65,6.57,20.83,12.29c1.17,5.71-12.83,10.71,4.17,12.71s30,0,28,7-11,5-18,14-21,8-37,7-12.87-9.34-7.43-9.67c5.43-.33,16.22-12.14,7.83-13.73s-38.91-8.87-27.65-13.73,29.26-15.86,29.26-15.86h-.01Z"/>
        <path class="cls-15" d="M465,891.5c-2,0-116,5-107,11s53,17-1,16-99-16-117-5,22,14-16,17-64.14-14-54.57,3.5-20.43,23.5,20.57,21.5,42-7,59-11,38.7-3.1,55.85,6.95,41.8,16.03,55.98,9.54c14.17-6.49-11.83-14.49,21.17-17.49s53.61,5.57,90.81-.22c37.19-5.78,107.37-18.25,50.28-24.01-57.09-5.77-66.39,18.43-77.74,8.33-11.35-10.1,53.04-24.29,20.35-33.7"/>
        <path class="cls-22" d="M7,746.3v295.2h1166v-295.2H7ZM753,962.5l-36.92,10-41.17-21.05-1.91,22.05-11-18,3.06,19.61-18.06-19.61,3.11,22.74-5.11-11.74-5,10-8.39-25.05-15.61,22.09v-12.04l-19.15,16.22-3.85-26.27-16,21.05-5-10-3.07,16.26-36.93-18.26-12,20-12-19-12,26-12-24-6.83,21-9.17-17c-6,12-14,17-14,17,1-7-4.33-14.09-4.33-14.09-2.34,14.92-15.67,16.09-15.67,16.09-3-14-13-21-13-21,3,11-13,24-13,24l-20-31-13.09,15-6.91-16-11.35,16c-13.35-1-15.65-7.26-15.65-7.26-.51-2.58-.76-4.23-.85-5.25-8.53,5.01-14.15,12.51-14.15,12.51l-21.15-22.05-8.2,19.05-2.65-7-27,7,14.46-25.67-59.68,17.67,1.22-26-15,26-50.39-11.05,10.39-27.95-20.83,17.67,37.57-59.22-19.31,1.14,55.57-25.59-63,2,14-17.43,68,.43,9,14,7,13,11-13,18,16,.7-18.46,16.3,9.46,2.85-9.46,30.93,22,6.22-26.54,42.3,26.54,16.7-28.54,48.67,24.3v-17.76l14.33,9.46,12-20,218,23,34-23-2,18,19.35-7.46-9.35,25.46,18.22,2.45-24.22,19.55,28,2-3.26,15.77,17.74,21.9-32.48,2.33,13,19Z"/>
        <g>
          <rect class="cls-28" x="459.87" y="709.41" width="254.71" height="230.9" transform="translate(-6.17 4.43) rotate(-.43)"/>
          <ellipse class="cls-32" cx="587.32" cy="704.74" rx="128.39" ry="25.89" transform="translate(-5.27 4.43) rotate(-.43)"/>
          <ellipse class="cls-29" cx="587.32" cy="704.74" rx="53.92" ry="10.87" transform="translate(-5.27 4.43) rotate(-.43)"/>
          <path class="cls-28" d="M449.67,919.36s-3.16,14.4-3.48,16.62c-.31,2.23-12.26,10.22-12.26,10.22l-118.15.63-155.75-9.09,9.4-3.74,12.81-.26,15.19,2.69-20.64-5.36,6.21-2.48c2.3,1.38,4.1,2.49,4.1,2.49l5.86.26s-2.62-2.2-5.2-4.63l3.87-1.55,258.03-5.8h.01Z"/>
          <path class="cls-15" d="M523.43,799.98s-32.7-17.5-24.7,2.5,29.23,11.87,6.62,29.43-39.62,16.57-29.62,29.57-3.35,19.07,14.83,19.54,25.17,3.46,31.17-4.54-24.7-4.91,12.65-19.95,14.35-1.05,55.35-30.05,113.22-30,51.11-41c-62.11-11-84.11-16-93.11-7s-11.26,26-8.13,32-16.17-10.5-16.17-10.5Z"/>
          <path class="cls-26" d="M715.42,939.32s-24.3.07-58.18,1.14c-6.41.2-13.15.43-20.15.7-29.51,1.17-63.36,3.08-94.03,6.18-76.36,7.72-249.6,2.76-227.28-.52,31.24-4.58,94.06-11,150.26-33.54,40.28-16.14,87.43-52.02,129.81-89.6,56.13-49.75,103.91-102.51,116.29-116.42,2.04-2.29,3.11-3.52,3.11-3.52l.12,169.43.03,46.13.02,20.01h0Z"/>
          <path class="cls-15" d="M715.62,919.32c-.07,0-.15-.02-.22-.01-12.66-.94-28.94,2.49-48.86,15.47-3.46,2.26-6.54,4.14-9.3,5.68-6.41.2-13.15.43-20.15.7.71-9.89,14.99-30.37,18.9-33.04,6.92-4.75,36.67-11.45,27.29-19.37-9.38-7.9-22.87-12.19-43.48,1.12-20.61,13.33-49.3,4.24-54.4-5.57-3.87-7.45,6.98-29.68,17.38-29.27,22.16.89,28.56,11.36,83.52,22.92,54.97,11.55,7.7-8.44-22.39-17.8-30.1-9.35-17.42-32.27-6.47-34.67,12.21-2.68,18.16,5.85,39.53,24.44,6.56,5.71,13.04,7.02,18.33,5.53.02,6.05.05,11.97.07,17.71.08,18.41.18,34.78.25,46.14v.02Z"/>
          <path class="cls-15" d="M714.91,822.52c-14.6-12.65-18.72,19.71-42.8,1.1-26.55-20.51,12.88-8.37,14.78-31.17,1.9-22.8-23.38-10.69-41.78,19.99-11.76,19.61-33.82,18.59-48.25,11.25,56.13-49.75,103.91-102.51,116.29-116.42,1.97,1.26,3.65,2.94,2.65,4.72-.89,1.61-1.02,53.28-.88,110.53h-.01Z"/>
        </g>
        <path class="cls-27" d="M81,984.5l-77-26,68,12-62-44,57,16s-41-73-48-87,81,77,82,79l8-74,10,72,37.11-30.4-27.11,52.4,43,10-47.98,20"/>
        <path class="cls-27" d="M936,1006.5l77-26-68,12,62-44-57,16s41-73,48-87-81,77-82,79l-8-74-10,72-37.11-30.4,27.11,52.4-43,10,47.98,20"/>
        <path class="cls-27" d="M1078,801.5l-77-26,68,12-62-44,57,16s-41-73-48-87,81,77,82,79l8-74,10,72,37.11-30.4-27.11,52.4,43,10-47.98,20"/>
        <path class="cls-27" d="M237,783.5l-77-26,68,12-31-40,26,12s17-71,10-85,23,75,24,77l51-70-36,79,50-24-48,48,54-3-47.98,20"/>
        <path class="cls-22" d="M341,960.5c-.29.16-.57.32-.85.49-.27-3.02.85-.49.85-.49Z"/>
        <g class="cls-25">
          <path class="cls-24" d="M368.24,940.77c9.12-1.77,70.04-14.67,103.07-73.32,41.19-73.15-.04-148.14-2.07-151.7-91.5-41.78-189.22-83.3-293.03-123.45-107.44-41.56-211.03-77.64-309.86-109.05-22.35,13.27-35.9,37.57-35.27,63.38.93,37.74,31.68,57.62,33.95,59.03,77.82,45.16,158.49,94.84,241.22,149.49,94.12,62.17,181.4,124.48,261.98,185.62h0Z"/>
        </g>
        <g class="cls-20">
          <g>
            <ellipse class="cls-12" cx="1303.93" cy="1067.67" rx="453.57" ry="498.75"/>
            <path class="cls-24" d="M1565.79,448.15c-94.58,17.89-141.38,84.22-157.36,162.3-17.68,6.58-61.03,19.97-114.93,8.76-50.26-10.45-80.65-27.48-94.9-40.4,14.54-78.51-6.65-166.94-87.78-219.02,0,0-36.52-26.69,4.01-63.61,40.55-36.92,104.21-146.32,267.48-118.82,161.72,35.61,179.8,160.89,203.57,210.3,23.79,49.41-20.09,60.49-20.09,60.49h0Z"/>
            <path class="cls-24" d="M1426.17,881c-9.54-20.69-7.26-44.89,6.01-63.09,19.41-26.61,51.47-25.5,53.82-25.37,78.6,6.5,161.5,11.18,248.36,13.33,10.69.26,21.32.48,31.9.66,14.88,21.69,21.78,45.5,18.3,69.36-5.28,36.19-33.39,65.45-74.29,83.24-2.09-.51-4.18-1-6.27-1.51-98.19-23.88-190.89-49.77-277.82-76.63h0Z"/>
            <path class="cls-24" d="M1791.38,909.34c-.66,4.19-1.33,8.36-2,12.54-26.97,25.22-58.74,38.59-91.39,35.27-21.52-2.19-41.22-11.41-58.25-26.06-.63-13.09-1.33-26.26-2.09-39.52-5.69-98.68-14.5-192.21-25.36-280.14,5.34-6.17,41.81-46.88,100.62-46.44,73.34.55,111.93,64.59,113.72,67.69-8.56,87.8-20.05,180.21-35.24,276.66h-.01Z"/>
            <ellipse class="cls-14" cx="1538" cy="275.35" rx="108.24" ry="63.97" transform="translate(974.5 1732.65) rotate(-79.01)"/>
            <ellipse class="cls-11" cx="1541.08" cy="278.69" rx="40.21" ry="33.06" transform="translate(973.71 1738.38) rotate(-79.01)"/>
            <ellipse class="cls-14" cx="1528.93" cy="235.37" rx="24.55" ry="20.19" transform="translate(1006.41 1691.4) rotate(-79.01)"/>
            <path class="cls-30" d="M1421.4,1582.28c-12.43,2.71-25.41,5.12-38.96,7.22-1.93.3-3.87.58-5.83.88-1.94.28-3.91.56-5.91.82-19.76,2.73-40.68,4.79-62.79,6.13-639.82-39-269.84-673.24-185.21-787.28,43.2-58.2,77.88-147.56,77.13-230.76,16.45,9.96,53.9,29.48,105.23,30.15,55.06.73,95.06-20.68,111.16-30.51-.84,83.3,33.86,172.83,77.11,231.12,79.1,106.54,407.28,667.3-71.94,772.23h0Z"/>
            <path class="cls-30" d="M1307.9,1597.33h-.11c-641.48-38.92-270.6-673.24-185.77-787.28,41.56-55.84,75.21-150.88,77.21-231.14.19.11.39.24.6.37.75,83.21-33.93,172.57-77.13,230.76-84.63,114.04-454.61,748.28,185.21,787.28h0Z"/>
            <path class="cls-30" d="M1421.4,1582.28c479.21-104.93,151.03-665.69,71.94-772.23-43.26-58.29-77.96-147.82-77.11-231.12.02,0,.02-.02.04-.02-.84,83.32,33.93,172.85,77.3,231.14,79.26,106.56,408.25,667.32-72.16,772.23h-.01Z"/>
            <ellipse class="cls-14" cx="1302.76" cy="224.82" rx="103.48" ry="63.97" transform="translate(833.7 1460.83) rotate(-79.01)"/>
            <path class="cls-3" d="M1604.89,1010.05c-59.67,32.79-171.26,82.48-315.65,78.65-127.49-3.37-222.49-47.72-279.98-79.34"/>
            <path class="cls-7" d="M1449.11,735.57c-73.12,32.79-216.54,32.69-292.33,13.62"/>
            <ellipse class="cls-11" cx="1300.97" cy="232.06" rx="40.21" ry="33.06" transform="translate(825.15 1464.93) rotate(-79.01)"/>
            <path class="cls-24" d="M864.65,1174.16c-7.88.1-60.66-.14-98.22-43.12-46.83-53.6-25.59-122.88-24.51-126.18,68.71-50.37,142.62-101.58,221.83-152.71,81.97-52.92,161.7-100.64,238.28-143.66,20.84,7.17,36.29,25,40.23,46.52,5.76,31.46-16.32,53.23-17.97,54.8-56.77,50.82-115.12,105.88-174.33,165.42-67.36,67.73-129.01,134.4-185.31,198.95v-.02Z"/>
            <ellipse class="cls-14" cx="1288.82" cy="188.74" rx="24.55" ry="20.19" transform="translate(857.84 1417.94) rotate(-79.01)"/>
            <g class="cls-10">
              <g>
                <path class="cls-9" d="M1672.45,1002.52c-38.26,30.92-168.12,127.98-360.39,130.29-200.96,2.42-337.26-100.27-374.42-130.29"/>
                <path class="cls-9" d="M1672.45,692.19c-38.76,30.57-171.71,127.65-367.4,127.65s-328.65-97.07-367.41-127.65"/>
              </g>
            </g>
            <path class="cls-21" d="M1267.83,379.24c2.2,3.05,6.01,4.07,9.55,4.56,3.6.48,7.26.52,10.91.57,3.66.05,7.33.09,11.01.4,5.52.46,11.22,1.55,16.14,4.33,4.69,2.66,9.61,4.99,14.82,6.33,7.07,1.88,14.6,1.82,21.6,4.45,3.58,1.31,6.9,3,10.13,4.93,13.11,7.65,21.75,20.68,28.36,33.92,3.3,6.28,6.43,12.94,11.32,18.01,7.19,7.72,19.03,8.29,28.01,3.39,6.24-3.17,11.86-7.82,17.62-12.32,12.82-10.44,28.2-20.19,45.47-19.54,5.64-.11,11.49,1.71,16.46,3.97,3.35,1.45,6.62,2.69,10.1,3.24,3.47.61,7.14.49,10.65.22,3.77-.25,7.53.13,11.18.82,3.65.71,7.2,1.76,10.7,2.79,6.71,2.04,14.73,4.27,20.47-1.02l.23.25c-1.32,1.3-2.89,2.37-4.64,3.05-5.32,2.08-11.19.38-16.45-.85-3.55-.88-7.08-1.76-10.64-2.28-7.38-1.43-14.47.78-21.91-.3-7.38-.83-13.8-5.24-20.95-6.25-18.5-2.42-34.48,7.63-48.2,19.04-8.61,6.69-17.83,14.93-29.36,16.33-7.87.97-16.22-1.9-21.62-7.71-7.71-8.25-11.43-19.26-17.02-28.63-3.58-6.23-7.82-12.04-13.06-16.85-5.2-4.79-11.35-8.76-17.9-11.37-6.74-2.66-14.21-2.77-21.22-4.89-3.6-1.04-7.06-2.51-10.35-4.25-3.26-1.63-6.13-3.84-9.6-5.04-3.34-1.24-6.9-1.94-10.49-2.37-3.6-.44-7.25-.62-10.9-.8-6.76-.59-16.05,0-20.43-6.11h0v-.02Z"/>
          </g>
        </g>
        <g>
          <path class="cls-5" d="M1672.5,245.75c-6.67,0-11.59-2.04-14.75-6.12-3.17-4.08-4.75-8.96-4.75-14.62,0-4.33,1.08-8.58,3.25-12.75,2.16-4.16,5.33-7.66,9.5-10.5,4.16-2.83,9.25-4.25,15.25-4.25,9.16,0,15.88,2,20.12,6,4.24,4,6.38,8.59,6.38,13.75,0,4.67-1.38,9.21-4.12,13.62-2.75,4.42-6.75,8-12,10.75s-11.54,4.12-18.88,4.12ZM1666.25,181c0-9,1.29-17.04,3.88-24.12,2.58-7.08,5.88-13.38,9.88-18.88s8.08-10.25,12.25-14.25c6.33-6.16,12.16-11.58,17.5-16.25,5.33-4.66,8-8.83,8-12.5,0-1-.67-2.38-2-4.12-1.34-1.75-3.42-2.62-6.25-2.62-3,0-6.84,1.25-11.5,3.75-4.67,2.5-9.5,5.62-14.5,9.38s-9.67,7.62-14,11.62l-13.25-30.75c8.5-7.66,18.08-13.71,28.75-18.12,10.66-4.41,21.5-6.62,32.5-6.62,6.83,0,13.25,1,19.25,3s10.88,5.34,14.62,10c3.75,4.67,5.62,11,5.62,19,0,11.5-2.71,21.04-8.12,28.62-5.42,7.59-11.71,14.04-18.88,19.38-7.5,5.5-14.54,11.42-21.12,17.75-6.59,6.34-10.96,13.92-13.12,22.75l-29.5,3v-.02Z"/>
          <path class="cls-5" d="M1759.5,245.75c-5,0-9.12-1.21-12.38-3.62-3.26-2.41-5.67-5.41-7.25-9-1.58-3.58-2.38-7.21-2.38-10.88,0-6.66,2.21-12.46,6.62-17.38,4.41-4.91,10.54-7.38,18.38-7.38,9.66,0,16.91,2.29,21.75,6.88,4.83,4.59,7.25,9.79,7.25,15.62,0,6.67-2.75,12.62-8.25,17.88s-13.42,7.88-23.75,7.88h.01ZM1760,182.25c2.66-10.33,5.25-20.58,7.75-30.75,2.5-10.16,5-20.33,7.5-30.5,2.33-10.16,4.79-20.38,7.38-30.62,2.58-10.25,5.21-20.46,7.88-30.62,9.5-1.5,18.16-2.75,26-3.75,7.83-1,14.25-1.91,19.25-2.75-9,21-17.21,42.12-24.62,63.38-7.42,21.25-14.79,42.62-22.12,64.12-4.84,0-9.67.17-14.5.5-4.84.34-9.67.67-14.5,1h-.02Z"/>
        </g>
      </g>
    </g>
    <g>
      <path class="cls-4" d="M625.43,948.29c1.13-5.08,2.2-10.06,3.22-14.92.41-1.96.84-4.06,1.27-6.3.43-2.24.88-4.51,1.33-6.81.45-2.3.87-4.47,1.24-6.53.38-2.05.68-3.85.9-5.4,1.51-.45,3.14-.87,4.89-1.24,1.75-.38,3.32-.57,4.72-.57,2.26,0,4.05.48,5.37,1.44,1.32.96,2.26,2.25,2.83,3.87.57,1.62.85,3.39.85,5.31,0,2.11-.39,4.13-1.16,6.07-.77,1.94-1.81,3.68-3.11,5.23-1.3,1.54-2.79,2.77-4.46,3.67-1.68.9-3.42,1.36-5.23,1.36h-.62c-.3,1.28-.58,2.67-.85,4.18-.26,1.51-.49,2.9-.68,4.18-.15.75-.28,1.51-.4,2.26s-.23,1.51-.34,2.26l-9.77,1.92ZM638.59,927.55c.87-.23,1.73-.8,2.6-1.72.87-.92,1.58-2.1,2.15-3.53.57-1.43.85-2.99.85-4.69,0-1.39-.31-2.45-.93-3.16-.62-.71-1.31-1.07-2.06-1.07-.41,2.49-.83,4.84-1.24,7.06-.42,2.22-.87,4.6-1.36,7.12Z"/>
      <path class="cls-4" d="M647.24,948.29l2.94-14.69c.45-2.71.94-5.5,1.47-8.36s1.03-5.69,1.5-8.48c.47-2.79.84-5.4,1.1-7.85,2.15-.68,4.46-1.18,6.95-1.5,2.49-.32,4.95-.48,7.4-.48,2.86,0,4.81.62,5.85,1.87,1.04,1.24,1.55,2.92,1.55,5.03,0,1.92-.45,3.85-1.36,5.79-.9,1.94-2.08,3.69-3.53,5.25-1.45,1.56-3.04,2.8-4.77,3.7.68,1.51,1.4,3.16,2.17,4.94.77,1.79,1.5,3.49,2.18,5.11.38.94.76,1.88,1.16,2.82.4.94.78,1.88,1.16,2.83l-8.76,3.05-2.03-6.78c-.56-1.88-1.08-3.7-1.55-5.45-.47-1.75-.74-2.99-.82-3.7l-.74.23c-.11.6-.24,1.25-.37,1.95-.13.7-.27,1.46-.42,2.29s-.3,1.63-.45,2.4c-.15.77-.3,1.54-.45,2.29l-1.02,5.37-9.15,2.37ZM660.52,923.77c.68-.07,1.52-.37,2.51-.88,1-.51,2-1.14,3-1.89,1-.75,1.84-1.53,2.51-2.32.68-.79,1.02-1.49,1.02-2.09,0-.75-.44-1.25-1.33-1.5-.89-.25-2.04-.37-3.47-.37h-1.24c-.23.04-.43.06-.62.06h-.57l-1.81,8.98Z"/>
      <path class="cls-4" d="M672.55,948.29l7.4-40.17,17.85-1.53c-.26.83-.49,1.68-.68,2.54-.19.72-.37,1.46-.54,2.23-.17.77-.31,1.46-.42,2.06-.49.04-1.19.07-2.09.08-.9.02-1.83.04-2.77.06-.94.02-1.75.03-2.43.03h-1.07l-1.98,10.11,3.28-.17c.41-.04.84-.06,1.27-.06h2.4c.34,0,.6-.02.79-.06-.08.53-.14,1.05-.2,1.55-.06.51-.12,1.03-.2,1.55l-.51,3.11c-.19.04-.43.06-.73.06h-1.07c-.42.04-.85.06-1.3.06s-.89.02-1.3.06c-.49.04-1,.06-1.53.06s-1.09.02-1.69.06l-1.92,10.4,8.25-1.3-.57,6.44-18.25,2.83Z"/>
      <path class="cls-4" d="M701.03,948.35c-1.51,0-3.01-.4-4.52-1.21-1.51-.81-2.96-2.1-4.35-3.87l4.18-8.19c.41.72,1.03,1.39,1.84,2.03.81.64,1.67,1.15,2.57,1.53s1.68.56,2.32.56c.98,0,1.91-.3,2.8-.9.88-.6,1.33-1.41,1.33-2.43,0-1.32-.6-2.52-1.81-3.62-1.21-1.09-2.56-2.17-4.07-3.22-1.47-1.05-2.82-2.25-4.04-3.59-1.22-1.34-1.84-2.87-1.84-4.6,0-1.96.57-3.78,1.7-5.45,1.13-1.68,2.6-3.14,4.41-4.41,1.81-1.26,3.74-2.24,5.79-2.94,2.05-.7,4-1.05,5.85-1.05,1.32,0,2.54.22,3.67.65s2.03,1.14,2.71,2.12c.68.98,1.02,2.3,1.02,3.96,0,.26,0,.53-.03.79-.02.26-.05.53-.08.79-.04.26-.08.54-.14.82s-.1.57-.14.88l-8.19,2.37c.08-.3.14-.6.2-.9.06-.3.08-.6.08-.9,0-1.13-.2-1.95-.59-2.46-.4-.51-.91-.76-1.55-.76-.34,0-.83.18-1.47.54-.64.36-1.21.85-1.72,1.47-.51.62-.76,1.31-.76,2.06,0,1.24.52,2.27,1.55,3.08,1.04.81,2.23,1.63,3.59,2.46.64.38,1.36.97,2.15,1.78.79.81,1.48,1.9,2.06,3.28.58,1.38.88,3.14.88,5.28,0,2.79-.69,5.24-2.06,7.34s-3.23,3.76-5.57,4.94c-2.34,1.19-4.92,1.78-7.74,1.78Z"/>
      <path class="cls-4" d="M715.94,948.18c.53-2.18,1.05-4.66,1.58-7.43s1.05-5.64,1.58-8.62c.53-2.97,1.02-5.84,1.47-8.59.41-2.41.82-4.86,1.21-7.34.4-2.49.78-4.99,1.16-7.51l8.81-1.41-2.54,14.86c-.57,3.5-1.07,6.65-1.5,9.44s-.85,5.42-1.24,7.91c-.4,2.49-.8,5.03-1.21,7.63-.72,0-1.58.05-2.6.14-1.02.09-2.03.21-3.05.34-1.02.13-1.87.25-2.57.37-.7.11-1.07.19-1.1.23Z"/>
      <path class="cls-4" d="M737.3,948.46c-2.49,0-4.52-.96-6.1-2.88s-2.37-4.82-2.37-8.7c0-2.15.26-4.41.79-6.78s1.26-4.71,2.2-7.01c.94-2.3,2.03-4.43,3.28-6.38,2-3.16,4.29-5.74,6.89-7.74,2.6-2,5.33-2.99,8.19-2.99,2.26,0,4,.57,5.23,1.72,1.22,1.15,2.08,2.62,2.57,4.41.49,1.79.73,3.64.73,5.57,0,4.48-.69,8.65-2.06,12.51-1.38,3.86-3.16,7.13-5.34,9.8-2.18,2.75-4.51,4.85-6.98,6.3-2.47,1.45-4.81,2.17-7.03,2.17ZM740.35,939.14c1.7,0,3.19-.56,4.49-1.69,1.3-1.13,2.4-2.57,3.31-4.32.9-1.75,1.58-3.59,2.03-5.51s.68-3.65.68-5.2c0-.6-.06-1.25-.17-1.95-.11-.7-.36-1.31-.73-1.84-.38-.53-.96-.79-1.75-.79-1.73,0-3.3.63-4.69,1.89-1.39,1.26-2.56,2.85-3.5,4.77-.94,1.96-1.64,3.88-2.09,5.76-.45,1.88-.68,3.6-.68,5.14,0,.79.28,1.61.85,2.46.56.85,1.32,1.27,2.26,1.27Z"/>
      <path class="cls-4" d="M755.21,948.51c1.13-5.42,2.2-10.68,3.22-15.76.83-4.78,1.64-9.38,2.43-13.79.79-4.41,1.36-8.46,1.69-12.15.26.04.5.06.71.06h1.72c.98,0,2.07-.03,3.28-.08,1.21-.06,2.32-.1,3.33-.14.26,1.32.52,2.62.76,3.9.25,1.28.46,2.52.65,3.73.19,1.05.4,2.14.62,3.25.23,1.11.45,2.23.68,3.36.19,1.13.39,2.17.59,3.14.21.96.39,1.84.54,2.63.45-2.22.88-4.41,1.27-6.55.4-2.15.78-4.09,1.16-5.82l1.64-7.57,6.89-.85c-.64,2.86-1.24,5.67-1.81,8.42-.56,2.75-1.09,5.41-1.58,7.97-.94,4.6-1.77,8.93-2.49,13-.72,4.07-1.26,7.61-1.64,10.62.41,0,.35.05-.2.14s-1.35.23-2.4.4c-1.05.17-2.18.39-3.39.65-1.21.26-2.28.58-3.22.96-.11-1.51-.23-2.98-.34-4.41s-.25-2.83-.4-4.18c-.23-2.41-.49-4.8-.79-7.17-.3-2.37-.6-4.26-.9-5.65-.26,1.66-.58,3.55-.96,5.68-.38,2.13-.79,4.27-1.24,6.41l-1.58,7.91-8.25,1.92Z"/>
      <path class="cls-4" d="M795.1,948.12c.08-.64.15-1.26.23-1.86.08-.6.15-1.21.23-1.81l.34-3.16c.04-.53.08-1.02.11-1.47.04-.45.07-.87.11-1.24h-4.92l-2.26,8.14c-.83.11-1.81.24-2.94.37-1.13.13-2.18.25-3.16.37-.6.08-1.2.15-1.78.23-.58.08-1.18.15-1.78.23l4.46-14.8c.53-1.77,1.13-3.79,1.81-6.05.68-2.26,1.37-4.58,2.06-6.95.7-2.37,1.36-4.6,1.98-6.7s1.12-3.85,1.5-5.28c2.56-.19,5.17-.41,7.83-.68,2.66-.26,5.25-.62,7.77-1.07-.19,2.11-.37,4.49-.54,7.15-.17,2.66-.32,5.4-.45,8.22-.13,2.82-.27,5.61-.42,8.36-.08,2.6-.17,5.28-.28,8.05-.11,2.77-.23,5.6-.34,8.5-.57.08-1.13.15-1.7.23-.57.08-1.13.15-1.7.23-.94.15-1.98.32-3.11.51s-2.15.36-3.05.51ZM792.55,932.92c.23,0,.65-.02,1.27-.06.62-.04,1.21-.08,1.78-.11.56-.04.9-.06,1.02-.06,0-.49.08-1.49.23-3,.15-1.51.3-3.09.45-4.75.08-.98.16-1.99.25-3.02.09-1.04.2-2.1.31-3.19l.34-4.92-.85.06-1.3,4.86-3.5,14.18Z"/>
      <path class="cls-4" d="M816.4,948.29l7.4-40.17,17.85-1.53c-.26.83-.49,1.68-.68,2.54-.19.72-.37,1.46-.54,2.23-.17.77-.31,1.46-.42,2.06-.49.04-1.19.07-2.09.08s-1.83.04-2.77.06c-.94.02-1.75.03-2.43.03h-1.07l-1.98,10.11,3.28-.17c.41-.04.84-.06,1.27-.06h2.4c.34,0,.6-.02.79-.06-.08.53-.14,1.05-.2,1.55-.06.51-.12,1.03-.2,1.55l-.51,3.11c-.19.04-.43.06-.73.06h-1.07c-.41.04-.85.06-1.3.06s-.89.02-1.3.06c-.49.04-1,.06-1.53.06s-1.09.02-1.7.06l-1.92,10.4,8.25-1.3-.56,6.44-18.25,2.83Z"/>
      <path class="cls-4" d="M844.87,948.35c-1.51,0-3.01-.4-4.52-1.21-1.51-.81-2.96-2.1-4.35-3.87l4.18-8.19c.41.72,1.03,1.39,1.84,2.03.81.64,1.67,1.15,2.57,1.53.9.38,1.68.56,2.32.56.98,0,1.91-.3,2.8-.9.88-.6,1.33-1.41,1.33-2.43,0-1.32-.6-2.52-1.81-3.62-1.21-1.09-2.56-2.17-4.07-3.22-1.47-1.05-2.82-2.25-4.04-3.59-1.22-1.34-1.84-2.87-1.84-4.6,0-1.96.56-3.78,1.7-5.45,1.13-1.68,2.6-3.14,4.41-4.41,1.81-1.26,3.74-2.24,5.79-2.94,2.05-.7,4-1.05,5.85-1.05,1.32,0,2.54.22,3.67.65s2.03,1.14,2.71,2.12c.68.98,1.02,2.3,1.02,3.96,0,.26,0,.53-.03.79-.02.26-.05.53-.08.79-.04.26-.08.54-.14.82-.06.28-.1.57-.14.88l-8.19,2.37c.07-.3.14-.6.2-.9.06-.3.08-.6.08-.9,0-1.13-.2-1.95-.59-2.46-.4-.51-.91-.76-1.55-.76-.34,0-.83.18-1.47.54-.64.36-1.21.85-1.72,1.47-.51.62-.76,1.31-.76,2.06,0,1.24.52,2.27,1.55,3.08,1.04.81,2.23,1.63,3.59,2.46.64.38,1.36.97,2.15,1.78.79.81,1.48,1.9,2.06,3.28.58,1.38.88,3.14.88,5.28,0,2.79-.69,5.24-2.06,7.34-1.38,2.11-3.23,3.76-5.57,4.94-2.34,1.19-4.92,1.78-7.74,1.78Z"/>
      <path class="cls-4" d="M859.34,948.29c1.13-5.08,2.2-10.06,3.22-14.92.41-1.96.84-4.06,1.27-6.3.43-2.24.88-4.51,1.33-6.81.45-2.3.87-4.47,1.24-6.53.38-2.05.68-3.85.9-5.4,1.51-.45,3.14-.87,4.89-1.24,1.75-.38,3.32-.57,4.72-.57,2.26,0,4.05.48,5.37,1.44,1.32.96,2.26,2.25,2.82,3.87.57,1.62.85,3.39.85,5.31,0,2.11-.39,4.13-1.16,6.07-.77,1.94-1.81,3.68-3.11,5.23-1.3,1.54-2.79,2.77-4.46,3.67-1.68.9-3.42,1.36-5.23,1.36h-.62c-.3,1.28-.58,2.67-.85,4.18-.26,1.51-.49,2.9-.68,4.18-.15.75-.28,1.51-.4,2.26-.11.75-.23,1.51-.34,2.26l-9.77,1.92ZM872.5,927.55c.87-.23,1.73-.8,2.6-1.72.87-.92,1.58-2.1,2.15-3.53.57-1.43.85-2.99.85-4.69,0-1.39-.31-2.45-.93-3.16-.62-.71-1.31-1.07-2.06-1.07-.42,2.49-.83,4.84-1.24,7.06-.42,2.22-.87,4.6-1.36,7.12Z"/>
      <path class="cls-4" d="M894.87,948.12c.08-.64.15-1.26.23-1.86.08-.6.15-1.21.23-1.81l.34-3.16c.04-.53.08-1.02.11-1.47.04-.45.07-.87.11-1.24h-4.92l-2.26,8.14c-.83.11-1.81.24-2.94.37-1.13.13-2.18.25-3.16.37-.6.08-1.2.15-1.78.23-.58.08-1.18.15-1.78.23l4.46-14.8c.53-1.77,1.13-3.79,1.81-6.05.68-2.26,1.37-4.58,2.06-6.95.7-2.37,1.36-4.6,1.98-6.7s1.12-3.85,1.5-5.28c2.56-.19,5.17-.41,7.83-.68,2.66-.26,5.25-.62,7.77-1.07-.19,2.11-.37,4.49-.54,7.15-.17,2.66-.32,5.4-.45,8.22-.13,2.82-.27,5.61-.42,8.36-.08,2.6-.17,5.28-.28,8.05-.11,2.77-.23,5.6-.34,8.5-.57.08-1.13.15-1.7.23-.57.08-1.13.15-1.7.23-.94.15-1.98.32-3.11.51s-2.15.36-3.05.51ZM892.33,932.92c.23,0,.65-.02,1.27-.06.62-.04,1.21-.08,1.78-.11.56-.04.9-.06,1.02-.06,0-.49.08-1.49.23-3,.15-1.51.3-3.09.45-4.75.08-.98.16-1.99.25-3.02.09-1.04.2-2.1.31-3.19l.34-4.92-.85.06-1.3,4.86-3.5,14.18Z"/>
      <path class="cls-4" d="M914.54,948.35c-2.37,0-4.31-1.11-5.82-3.33-1.51-2.22-2.26-5.27-2.26-9.15,0-3.54.49-7.03,1.47-10.48.98-3.45,2.35-6.54,4.12-9.29,1.77-2.75,3.87-4.96,6.3-6.64,2.43-1.68,5.11-2.51,8.05-2.51,1.84,0,3.43.72,4.75,2.15,1.32,1.43,1.98,3.35,1.98,5.76v1.07c0,.11-.02.25-.06.4l-7.4,1.98c-.45-.94-.98-1.41-1.58-1.41-.9,0-1.86.73-2.85,2.2-1,1.47-1.95,3.22-2.85,5.25-.6,1.36-1.14,2.75-1.61,4.18-.47,1.43-.84,2.77-1.1,4.01s-.4,2.26-.4,3.05c0,1.17.17,2.02.51,2.54.26.49.68.73,1.24.73s1.19-.27,1.86-.82c.68-.55,1.31-1.23,1.89-2.06.58-.83.97-1.66,1.16-2.49l6.44,2.6c-1.85,4.22-4.04,7.32-6.58,9.29-2.54,1.98-4.96,2.97-7.26,2.97Z"/>
      <path class="cls-4" d="M927.3,948.18c.64-2.22,1.27-4.75,1.89-7.57.62-2.82,1.22-5.71,1.81-8.67s1.14-5.75,1.67-8.39c.49-2.41.96-4.86,1.41-7.34.45-2.49.9-4.99,1.36-7.51l8.81-1.41c-.49,2.52-.98,5.02-1.47,7.49-.49,2.47-.98,4.93-1.47,7.37-.53,2.64-1.07,5.42-1.64,8.36-.57,2.94-1.11,5.83-1.64,8.67-.53,2.84-1.02,5.49-1.47,7.94-.68,0-1.53.05-2.54.14-1.02.09-2.03.21-3.05.34-1.02.13-1.87.25-2.57.37-.7.11-1.06.19-1.1.23Z"/>
      <path class="cls-4" d="M949.17,948.46c-2.49,0-4.52-.96-6.1-2.88s-2.37-4.82-2.37-8.7c0-2.15.26-4.41.79-6.78s1.26-4.71,2.2-7.01c.94-2.3,2.03-4.43,3.28-6.38,2-3.16,4.29-5.74,6.89-7.74,2.6-2,5.33-2.99,8.19-2.99,2.26,0,4,.57,5.23,1.72,1.22,1.15,2.08,2.62,2.57,4.41.49,1.79.73,3.64.73,5.57,0,4.48-.69,8.65-2.06,12.51-1.38,3.86-3.15,7.13-5.34,9.8-2.18,2.75-4.51,4.85-6.98,6.3-2.47,1.45-4.81,2.17-7.03,2.17ZM952.22,939.14c1.7,0,3.19-.56,4.49-1.69,1.3-1.13,2.4-2.57,3.31-4.32.9-1.75,1.58-3.59,2.03-5.51.45-1.92.68-3.65.68-5.2,0-.6-.06-1.25-.17-1.95-.11-.7-.36-1.31-.73-1.84s-.96-.79-1.75-.79c-1.73,0-3.3.63-4.69,1.89-1.39,1.26-2.56,2.85-3.5,4.77-.94,1.96-1.64,3.88-2.09,5.76-.45,1.88-.68,3.6-.68,5.14,0,.79.28,1.61.85,2.46.56.85,1.32,1.27,2.26,1.27Z"/>
      <path class="cls-4" d="M977.64,948.29c1.13-5.08,2.2-10.06,3.22-14.92.41-1.96.84-4.06,1.27-6.3.43-2.24.88-4.51,1.33-6.81.45-2.3.87-4.47,1.24-6.53.38-2.05.68-3.85.9-5.4,1.51-.45,3.14-.87,4.89-1.24,1.75-.38,3.32-.57,4.72-.57,2.26,0,4.05.48,5.37,1.44,1.32.96,2.26,2.25,2.83,3.87.56,1.62.85,3.39.85,5.31,0,2.11-.39,4.13-1.16,6.07-.77,1.94-1.81,3.68-3.11,5.23-1.3,1.54-2.79,2.77-4.46,3.67-1.68.9-3.42,1.36-5.23,1.36h-.62c-.3,1.28-.58,2.67-.85,4.18-.26,1.51-.49,2.9-.68,4.18-.15.75-.28,1.51-.4,2.26-.11.75-.23,1.51-.34,2.26l-9.77,1.92ZM990.81,927.55c.87-.23,1.73-.8,2.6-1.72.87-.92,1.58-2.1,2.15-3.53.56-1.43.85-2.99.85-4.69,0-1.39-.31-2.45-.93-3.16-.62-.71-1.31-1.07-2.06-1.07-.42,2.49-.83,4.84-1.24,7.06-.41,2.22-.87,4.6-1.36,7.12Z"/>
      <path class="cls-4" d="M1013.86,948.12c.08-.64.15-1.26.23-1.86.08-.6.15-1.21.23-1.81l.34-3.16c.04-.53.07-1.02.11-1.47.04-.45.08-.87.11-1.24h-4.92l-2.26,8.14c-.83.11-1.81.24-2.94.37-1.13.13-2.19.25-3.16.37-.6.08-1.2.15-1.78.23-.58.08-1.18.15-1.78.23l4.46-14.8c.53-1.77,1.13-3.79,1.81-6.05s1.37-4.58,2.06-6.95c.7-2.37,1.36-4.6,1.98-6.7.62-2.09,1.12-3.85,1.5-5.28,2.56-.19,5.17-.41,7.83-.68,2.66-.26,5.25-.62,7.77-1.07-.19,2.11-.37,4.49-.54,7.15-.17,2.66-.32,5.4-.45,8.22-.13,2.82-.27,5.61-.42,8.36-.08,2.6-.17,5.28-.28,8.05-.11,2.77-.23,5.6-.34,8.5-.56.08-1.13.15-1.69.23-.57.08-1.13.15-1.7.23-.94.15-1.98.32-3.11.51s-2.15.36-3.05.51ZM1011.32,932.92c.23,0,.65-.02,1.27-.06.62-.04,1.21-.08,1.78-.11.57-.04.9-.06,1.02-.06,0-.49.08-1.49.23-3,.15-1.51.3-3.09.45-4.75.08-.98.16-1.99.25-3.02.09-1.04.2-2.1.31-3.19l.34-4.92-.85.06-1.3,4.86-3.5,14.18Z"/>
      <path class="cls-4" d="M1023.92,948.29l2.94-14.69c.45-2.71.94-5.5,1.47-8.36s1.03-5.69,1.5-8.48c.47-2.79.84-5.4,1.1-7.85,2.15-.68,4.46-1.18,6.95-1.5,2.49-.32,4.95-.48,7.4-.48,2.86,0,4.81.62,5.85,1.87,1.04,1.24,1.55,2.92,1.55,5.03,0,1.92-.45,3.85-1.36,5.79-.9,1.94-2.08,3.69-3.53,5.25-1.45,1.56-3.04,2.8-4.77,3.7.68,1.51,1.4,3.16,2.17,4.94.77,1.79,1.5,3.49,2.18,5.11.38.94.76,1.88,1.16,2.82.4.94.78,1.88,1.16,2.83l-8.76,3.05-2.03-6.78c-.56-1.88-1.08-3.7-1.55-5.45-.47-1.75-.74-2.99-.82-3.7l-.73.23c-.11.6-.24,1.25-.37,1.95-.13.7-.27,1.46-.42,2.29s-.3,1.63-.45,2.4c-.15.77-.3,1.54-.45,2.29l-1.02,5.37-9.15,2.37ZM1037.2,923.77c.68-.07,1.52-.37,2.51-.88,1-.51,2-1.14,2.99-1.89,1-.75,1.84-1.53,2.51-2.32s1.02-1.49,1.02-2.09c0-.75-.44-1.25-1.33-1.5-.89-.25-2.04-.37-3.47-.37h-1.24c-.23.04-.43.06-.62.06h-.56l-1.81,8.98Z"/>
      <path class="cls-4" d="M1063.41,948.12c.08-.64.15-1.26.23-1.86.08-.6.15-1.21.23-1.81l.34-3.16c.04-.53.07-1.02.11-1.47.04-.45.08-.87.11-1.24h-4.92l-2.26,8.14c-.83.11-1.81.24-2.94.37-1.13.13-2.19.25-3.16.37-.6.08-1.2.15-1.78.23-.58.08-1.18.15-1.78.23l4.46-14.8c.53-1.77,1.13-3.79,1.81-6.05s1.37-4.58,2.06-6.95c.7-2.37,1.36-4.6,1.98-6.7.62-2.09,1.12-3.85,1.5-5.28,2.56-.19,5.17-.41,7.83-.68,2.66-.26,5.25-.62,7.77-1.07-.19,2.11-.37,4.49-.54,7.15-.17,2.66-.32,5.4-.45,8.22-.13,2.82-.27,5.61-.42,8.36-.08,2.6-.17,5.28-.28,8.05-.11,2.77-.23,5.6-.34,8.5-.56.08-1.13.15-1.69.23-.57.08-1.13.15-1.7.23-.94.15-1.98.32-3.11.51s-2.15.36-3.05.51ZM1060.87,932.92c.23,0,.65-.02,1.27-.06.62-.04,1.21-.08,1.78-.11.57-.04.9-.06,1.02-.06,0-.49.08-1.49.23-3,.15-1.51.3-3.09.45-4.75.08-.98.16-1.99.25-3.02.09-1.04.2-2.1.31-3.19l.34-4.92-.85.06-1.3,4.86-3.5,14.18Z"/>
      <path class="cls-4" d="M1094.54,948.35c-2.37,0-4.31-1.11-5.82-3.33-1.51-2.22-2.26-5.27-2.26-9.15,0-3.54.49-7.03,1.47-10.48.98-3.45,2.35-6.54,4.12-9.29,1.77-2.75,3.87-4.96,6.3-6.64,2.43-1.68,5.11-2.51,8.05-2.51,1.85,0,3.43.72,4.75,2.15,1.32,1.43,1.98,3.35,1.98,5.76v1.07c0,.11-.02.25-.06.4l-7.4,1.98c-.45-.94-.98-1.41-1.58-1.41-.9,0-1.86.73-2.85,2.2-1,1.47-1.95,3.22-2.85,5.25-.6,1.36-1.14,2.75-1.61,4.18-.47,1.43-.84,2.77-1.1,4.01-.26,1.24-.4,2.26-.4,3.05,0,1.17.17,2.02.51,2.54.26.49.68.73,1.24.73s1.19-.27,1.87-.82c.68-.55,1.31-1.23,1.89-2.06.58-.83.97-1.66,1.16-2.49l6.44,2.6c-1.85,4.22-4.04,7.32-6.58,9.29-2.54,1.98-4.96,2.97-7.26,2.97Z"/>
      <path class="cls-4" d="M1117.88,948.46c-2.49,0-4.52-.96-6.1-2.88-1.58-1.92-2.37-4.82-2.37-8.7,0-2.15.26-4.41.79-6.78.53-2.37,1.26-4.71,2.2-7.01.94-2.3,2.03-4.43,3.28-6.38,2-3.16,4.29-5.74,6.89-7.74,2.6-2,5.33-2.99,8.19-2.99,2.26,0,4,.57,5.23,1.72,1.22,1.15,2.08,2.62,2.57,4.41.49,1.79.73,3.64.73,5.57,0,4.48-.69,8.65-2.06,12.51-1.38,3.86-3.16,7.13-5.34,9.8-2.18,2.75-4.51,4.85-6.98,6.3-2.47,1.45-4.81,2.17-7.03,2.17ZM1120.93,939.14c1.7,0,3.19-.56,4.49-1.69,1.3-1.13,2.4-2.57,3.3-4.32.9-1.75,1.58-3.59,2.03-5.51s.68-3.65.68-5.2c0-.6-.06-1.25-.17-1.95-.11-.7-.36-1.31-.73-1.84-.38-.53-.96-.79-1.75-.79-1.73,0-3.3.63-4.69,1.89s-2.56,2.85-3.5,4.77c-.94,1.96-1.64,3.88-2.09,5.76-.45,1.88-.68,3.6-.68,5.14,0,.79.28,1.61.85,2.46.56.85,1.32,1.27,2.26,1.27Z"/>
      <path class="cls-4" d="M1135.79,948.51c1.13-5.42,2.2-10.68,3.22-15.76.83-4.78,1.64-9.38,2.43-13.79.79-4.41,1.36-8.46,1.7-12.15.26.04.5.06.71.06h1.72c.98,0,2.07-.03,3.28-.08,1.21-.06,2.32-.1,3.33-.14.26,1.32.52,2.62.76,3.9.24,1.28.46,2.52.65,3.73.19,1.05.4,2.14.62,3.25.23,1.11.45,2.23.68,3.36.19,1.13.39,2.17.59,3.14.21.96.39,1.84.54,2.63.45-2.22.88-4.41,1.27-6.55.4-2.15.78-4.09,1.16-5.82l1.64-7.57,6.89-.85c-.64,2.86-1.24,5.67-1.81,8.42-.56,2.75-1.09,5.41-1.58,7.97-.94,4.6-1.77,8.93-2.49,13-.72,4.07-1.26,7.61-1.64,10.62.41,0,.35.05-.2.14s-1.35.23-2.4.4c-1.06.17-2.19.39-3.39.65-1.21.26-2.28.58-3.22.96-.11-1.51-.23-2.98-.34-4.41-.11-1.43-.25-2.83-.4-4.18-.23-2.41-.49-4.8-.79-7.17s-.6-4.26-.9-5.65c-.26,1.66-.58,3.55-.96,5.68-.38,2.13-.79,4.27-1.24,6.41l-1.58,7.91-8.25,1.92Z"/>
      <path class="cls-4" d="M1166.13,948.29c.41-2.07.84-4.13,1.27-6.19.43-2.05.84-4.08,1.21-6.07,1.43-7.16,2.6-14.01,3.5-20.57-.42-.08-.85-.12-1.3-.14-.45-.02-.89,0-1.3.03-.9.08-1.79-.04-2.66-.34.04-.3.06-.63.06-.99v-2.32c0-.4.02-.78.06-1.16.04-.41.06-.86.06-1.33s.02-.95.06-1.44c.98.08,1.96.13,2.94.17.98.04,1.96.06,2.94.06,2.79,0,5.45-.09,7.99-.28,2.54-.19,4.89-.41,7.03-.68l-.62,3.05-.51,2.66c-.19.98-.36,1.75-.51,2.32-.41.11-.83.21-1.24.28-.42.08-.83.13-1.24.17-.42.04-.84.09-1.27.17-.43.08-.86.15-1.27.23-.56,2.79-1.03,5.2-1.38,7.23-.36,2.03-.68,3.98-.96,5.85-.28,1.86-.61,3.91-.99,6.13-.64,3.81-1.21,7.67-1.7,11.58l-10.17,1.58Z"/>
      <path class="cls-4" d="M1181.78,948.18c.53-2.18,1.05-4.66,1.58-7.43s1.05-5.64,1.58-8.62c.53-2.97,1.02-5.84,1.47-8.59.41-2.41.82-4.86,1.21-7.34.4-2.49.78-4.99,1.16-7.51l8.81-1.41-2.54,14.86c-.56,3.5-1.06,6.65-1.5,9.44-.43,2.79-.85,5.42-1.24,7.91-.4,2.49-.8,5.03-1.21,7.63-.72,0-1.58.05-2.6.14-1.02.09-2.03.21-3.05.34s-1.87.25-2.57.37c-.7.11-1.06.19-1.1.23Z"/>
      <path class="cls-4" d="M1193.19,948.51c1.13-5.42,2.2-10.68,3.22-15.76.83-4.78,1.64-9.38,2.43-13.79.79-4.41,1.36-8.46,1.7-12.15.26.04.5.06.71.06h1.72c.98,0,2.07-.03,3.28-.08,1.21-.06,2.32-.1,3.33-.14.26,1.32.52,2.62.76,3.9.24,1.28.46,2.52.65,3.73.19,1.05.4,2.14.62,3.25.23,1.11.45,2.23.68,3.36.19,1.13.39,2.17.59,3.14.21.96.39,1.84.54,2.63.45-2.22.88-4.41,1.27-6.55.4-2.15.78-4.09,1.16-5.82l1.64-7.57,6.89-.85c-.64,2.86-1.24,5.67-1.81,8.42-.56,2.75-1.09,5.41-1.58,7.97-.94,4.6-1.77,8.93-2.49,13-.72,4.07-1.26,7.61-1.64,10.62.41,0,.35.05-.2.14s-1.35.23-2.4.4c-1.06.17-2.19.39-3.39.65-1.21.26-2.28.58-3.22.96-.11-1.51-.23-2.98-.34-4.41-.11-1.43-.25-2.83-.4-4.18-.23-2.41-.49-4.8-.79-7.17s-.6-4.26-.9-5.65c-.26,1.66-.58,3.55-.96,5.68-.38,2.13-.79,4.27-1.24,6.41l-1.58,7.91-8.25,1.92Z"/>
      <path class="cls-4" d="M1227.77,949.25c-1.13,0-2.28-.25-3.45-.73-1.17-.49-2.15-1.24-2.94-2.26-.79-1.02-1.19-2.32-1.19-3.9v-.45c0-.19.02-.34.06-.45.11-.98.27-2.26.48-3.84s.46-3.3.76-5.17c.3-1.86.61-3.72.93-5.57.32-1.84.61-3.52.88-5.03.56-3.01,1.02-5.44,1.36-7.29.34-1.84.61-3.27.82-4.27s.37-1.74.48-2.23c.41-.04.86-.08,1.33-.14s.97-.1,1.5-.14c.53-.08,1.04-.13,1.55-.17.51-.04,1.01-.08,1.5-.11l3.45-.34c-.49,2.3-.95,4.47-1.38,6.53-.43,2.05-.84,4-1.21,5.85l-2.6,12.49c-.23.94-.4,1.73-.51,2.37-.15.6-.31,1.37-.48,2.29-.17.92-.25,1.76-.25,2.51,0,.6.15,1.1.45,1.5s.68.59,1.13.59c.64,0,1.17-.25,1.58-.73s.75-1.09,1.02-1.81c.26-.71.47-1.44.62-2.17s.28-1.33.4-1.78c.38-1.73.72-3.42,1.05-5.06.32-1.64.66-3.38,1.02-5.23.36-1.85.76-3.97,1.21-6.38.3-1.66.61-3.34.93-5.06s.63-3.46.93-5.23l8.59-.56c-.68,3.62-1.34,7.25-1.98,10.9-.26,1.39-.56,2.96-.88,4.69s-.67,3.48-1.04,5.25c-.38,1.77-.73,3.45-1.04,5.03-.32,1.58-.61,2.94-.88,4.07-.75,3.09-1.92,5.51-3.5,7.26-1.58,1.75-3.32,2.99-5.23,3.7s-3.72,1.07-5.45,1.07Z"/>
      <path class="cls-4" d="M1256.75,948.12c.08-.64.15-1.26.23-1.86.08-.6.15-1.21.23-1.81l.34-3.16c.04-.53.07-1.02.11-1.47.04-.45.08-.87.11-1.24h-4.92l-2.26,8.14c-.83.11-1.81.24-2.94.37-1.13.13-2.19.25-3.16.37-.6.08-1.2.15-1.78.23-.58.08-1.18.15-1.78.23l4.46-14.8c.53-1.77,1.13-3.79,1.81-6.05s1.37-4.58,2.06-6.95c.7-2.37,1.36-4.6,1.98-6.7.62-2.09,1.12-3.85,1.5-5.28,2.56-.19,5.17-.41,7.83-.68,2.66-.26,5.25-.62,7.77-1.07-.19,2.11-.37,4.49-.54,7.15-.17,2.66-.32,5.4-.45,8.22-.13,2.82-.27,5.61-.42,8.36-.08,2.6-.17,5.28-.28,8.05-.11,2.77-.23,5.6-.34,8.5-.56.08-1.13.15-1.69.23-.57.08-1.13.15-1.7.23-.94.15-1.98.32-3.11.51s-2.15.36-3.05.51ZM1254.21,932.92c.23,0,.65-.02,1.27-.06.62-.04,1.21-.08,1.78-.11.57-.04.9-.06,1.02-.06,0-.49.08-1.49.23-3,.15-1.51.3-3.09.45-4.75.08-.98.16-1.99.25-3.02.09-1.04.2-2.1.31-3.19l.34-4.92-.85.06-1.3,4.86-3.5,14.18Z"/>
      <path class="cls-4" d="M1266.81,948.29l2.94-14.69c.45-2.71.94-5.5,1.47-8.36s1.03-5.69,1.5-8.48c.47-2.79.84-5.4,1.1-7.85,2.15-.68,4.46-1.18,6.95-1.5,2.49-.32,4.95-.48,7.4-.48,2.86,0,4.81.62,5.85,1.87,1.04,1.24,1.55,2.92,1.55,5.03,0,1.92-.45,3.85-1.36,5.79-.9,1.94-2.08,3.69-3.53,5.25-1.45,1.56-3.04,2.8-4.77,3.7.68,1.51,1.4,3.16,2.17,4.94.77,1.79,1.5,3.49,2.18,5.11.38.94.76,1.88,1.16,2.82.4.94.78,1.88,1.16,2.83l-8.76,3.05-2.03-6.78c-.56-1.88-1.08-3.7-1.55-5.45-.47-1.75-.74-2.99-.82-3.7l-.73.23c-.11.6-.24,1.25-.37,1.95-.13.7-.27,1.46-.42,2.29s-.3,1.63-.45,2.4c-.15.77-.3,1.54-.45,2.29l-1.02,5.37-9.15,2.37ZM1280.09,923.77c.68-.07,1.52-.37,2.51-.88,1-.51,2-1.14,2.99-1.89,1-.75,1.84-1.53,2.51-2.32s1.02-1.49,1.02-2.09c0-.75-.44-1.25-1.33-1.5-.89-.25-2.04-.37-3.47-.37h-1.24c-.23.04-.43.06-.62.06h-.56l-1.81,8.98Z"/>
    </g>
  </g>
</svg>