<?xml version="1.0" encoding="utf-8"?>
<!-- Generator: Adobe Illustrator 24.0.2, SVG Export Plug-In . SVG Version: 6.00 Build 0)  -->
<svg version="1.1" xmlns="http://www.w3.org/2000/svg" xmlns:xlink="http://www.w3.org/1999/xlink" x="0px" y="0px"
	 viewBox="0 0 1920 1080" style="enable-background:new 0 0 1920 1080;" xml:space="preserve">
<style type="text/css">
	.st0{fill:#A5DBDB;}
	.st1{fill:#89B7C6;}
	.st2{fill:#D3E2E5;}
	.st3{fill:#CAD5D8;}
	.st4{fill:#8B9CA3;}
	.st5{fill:#B4D8CF;}
	.st6{fill:#90C7B2;}
	.st7{fill:#62A52F;}
	.st8{fill:#57A02B;}
	.st9{fill:#A9C245;}
	.st10{fill:#BCC691;}
	.st11{fill:#5F8E9E;}
	.st12{fill:#A6AEB2;}
	.st13{fill:#B1B8BA;}
	.st14{fill:#C69158;}
	.st15{fill:#CAE4EA;}
	.st16{fill:none;stroke:#CEEAE9;stroke-width:5.7937;stroke-miterlimit:10;}
	.st17{fill:#9AC146;}
	.st18{fill:none;stroke:#CEEAE9;stroke-width:7.1395;stroke-miterlimit:10;}
	.st19{fill:#81B537;}
	.st20{fill:#5F869B;}
	.st21{fill:#9BABCE;}
	.st22{fill:#E8E8A3;}
	.st23{fill:#A3B3E5;}
</style>
<g id="Capa_3">
	<rect x="2" class="st0" width="1920" height="649"/>
	<polygon class="st1" points="0,197 187,197 206,403 295,513 373,501 363,186 453,186 453,96 491,96 491,217 533,259 533,534.5 
		589,534.5 589,218 653,218 728.5,142.5 728.5,67 847,67 847,163 807,203 807,583 1185,583 1185,387 1318,387 1318,295 1377,295 
		1377,153 1424.5,105.5 1462,143 1462,298 1536,298 1536,403 1642,403 1642,568 1764.4,568 1764.4,403 1844,403 1844,130 1920,130 
		1920,628 0,628 	"/>
	<path class="st2" d="M1783,90c-14.4,0-27.9,1-39.9,2.8c1.2-3.5,1.9-7.1,1.9-10.8c0-28.7-39-52-87-52c-46,0-83.6,21.3-86.8,48.3
		c-4.5-0.2-9.1-0.3-13.7-0.3c-64.9,0-117.5,22.4-117.5,50c0,27.6,52.6,50,117.5,50c60.9,0,110.9-19.7,116.9-44.9
		c10.4-1.2,20.2-3.5,29-6.7c14.1,8.6,44.4,14.6,79.6,14.6c48.6,0,88-11.4,88-25.5S1831.6,90,1783,90z"/>
	<path class="st3" d="M1729.8,108.8c-8.4,0-16.2,0.6-23.2,1.6c0.7-2,1.1-4.1,1.1-6.3c0-16.7-22.7-30.3-50.7-30.3
		c-26.8,0-48.7,12.4-50.5,28.2c-2.6-0.1-5.3-0.2-8-0.2c-37.8,0-68.4,13-68.4,29.1c0,16.1,30.6,29.1,68.4,29.1
		c35.4,0,64.6-11.5,68.1-26.2c6.1-0.7,11.8-2,16.9-3.9c8.2,5,25.9,8.5,46.4,8.5c28.3,0,51.2-6.6,51.2-14.9
		S1758.1,108.8,1729.8,108.8z"/>
	<path class="st2" d="M438,63c0-21.5-45.7-39-102-39c-32.8,0-61.9,5.9-80.6,15.1c-1.1,0-2.3-0.1-3.4-0.1
		c-25.5,0-46.9,12.1-51.9,28.2c-3-0.1-6-0.2-9.1-0.2c-43.6,0-79,14.6-79,32.5c0,17.9,35.4,32.5,79,32.5c29.6,0,55.4-6.7,68.9-16.6
		c12.2,3.5,29.2,5.6,48.1,5.6c37,0,67-8.3,67-18.5c0-1.1-0.4-2.2-1.1-3.3C411.5,93.5,438,79.4,438,63z"/>
	<path class="st3" d="M371.6,80.1c0-12.8-27.1-23.1-60.4-23.1c-19.4,0-36.7,3.5-47.7,8.9c-0.7,0-1.4,0-2,0
		c-15.1,0-27.8,7.2-30.7,16.7c-1.8-0.1-3.6-0.1-5.4-0.1c-25.9,0-46.8,8.6-46.8,19.3c0,10.6,21,19.3,46.8,19.3
		c17.5,0,32.8-4,40.8-9.8c7.2,2.1,17.3,3.3,28.5,3.3c21.9,0,39.7-4.9,39.7-11c0-0.7-0.2-1.3-0.6-1.9
		C355.9,98.2,371.6,89.8,371.6,80.1z"/>
	<path class="st2" d="M1271,534c-1.4,0-2.8,0-4.2,0c7.1-3.7,11.2-8,11.2-12.6c0-11.6-25.8-21.3-60.7-24c1.8-1.5,2.7-3.1,2.7-4.7
		c0-8.9-28.2-16.2-63-16.2c-7.2,0-14.1,0.3-20.5,0.9c-9.8-0.4-20.4-0.6-31.5-0.6c-14.4,0-27.9,0.3-39.9,0.9c1.2-1.1,1.9-2.3,1.9-3.5
		c0-5.6-13.6-10.6-34.7-13.7c4.8-11.2-8.8-21.2-31.1-22.4c-22.9-1.3-46.2,7.1-52.1,18.7c-0.3,0.5-0.5,1-0.6,1.5
		c-11.6,0.9-22,2.3-30.6,4c-12.2-1.2-26.1-1.8-40.9-1.8c-48.6,0-88,7.2-88,16.2c0,0.7,0.3,1.5,0.8,2.2c-17.4,2.9-27.8,6.6-27.8,10.7
		c0,8,40.7,14.7,94.7,16.2c-51.2,3.2-89.1,12-94.1,22.5c-12.8-0.5-26.5-0.7-40.6-0.7c-75.7,0-137,7.3-137,16.3S646.3,560,722,560
		c45.4,0,85.6-2.6,110.5-6.7c20.1,2.1,43.3,3.4,68,3.4c44.4,0,83.9-4,109.3-10.1c23.2,6,66.8,10.1,116.7,10.1c0.2,0,0.5,0,0.7,0
		c-0.1,0.4-0.2,0.9-0.2,1.3c0,13.3,64.5,24,144,24s144-10.7,144-24S1350.5,534,1271,534z"/>
	<path class="st3" d="M1152.3,542.6c-0.9,0-1.7,0-2.5,0c4.3-3,6.8-6.5,6.8-10.2c0-9.4-15.6-17.3-36.6-19.5c1.1-1.2,1.6-2.5,1.6-3.8
		c0-7.3-17-13.1-38-13.1c-4.3,0-8.5,0.3-12.4,0.7c-5.9-0.3-12.3-0.4-18.9-0.4c-8.6,0-16.8,0.3-24,0.7c0.7-0.9,1.1-1.9,1.1-2.9
		c0-4.6-8.2-8.6-20.9-11.1c2.9-9.1-5.3-17.2-18.8-18.2c-13.8-1-27.8,5.8-31.4,15.2c-0.2,0.4-0.3,0.8-0.4,1.2
		c-7,0.7-13.3,1.8-18.4,3.2c-7.4-1-15.7-1.5-24.6-1.5c-29.3,0-53,5.9-53,13.1c0,0.6,0.2,1.2,0.5,1.8c-10.5,2.3-16.8,5.4-16.8,8.7
		c0,6.5,24.5,11.9,57.1,13.1c-30.8,2.6-53.7,9.7-56.7,18.3c-7.7-0.4-15.9-0.6-24.4-0.6c-45.6,0-82.5,5.9-82.5,13.3
		s37,13.3,82.5,13.3c27.3,0,51.5-2.1,66.6-5.4c12.1,1.7,26.1,2.7,41,2.7c26.8,0,50.6-3.2,65.8-8.2c14,4.9,40.2,8.2,70.3,8.2
		c0.1,0,0.3,0,0.4,0c-0.1,0.3-0.1,0.7-0.1,1.1c0,10.8,38.8,19.5,86.7,19.5s86.7-8.7,86.7-19.5C1239,551.3,1200.2,542.6,1152.3,542.6
		z"/>
</g>
<g id="Capa_1">
	<polyline class="st4" points="1843.6,568 1918,568 1918,468 1869.9,468 1869.9,517.6 1843.6,517.6 	"/>
	<rect x="737" y="409" class="st5" width="99" height="10"/>
	<rect x="733" y="471" class="st5" width="108" height="9"/>
	<rect x="807" y="417" class="st5" width="10" height="57"/>
	<rect x="777" y="417" class="st5" width="10" height="57"/>
	<rect x="752" y="417" class="st5" width="10" height="57"/>
	<rect x="730" y="354" class="st5" width="17" height="214"/>
	<rect x="830" y="354" class="st6" width="17" height="214"/>
	<g>
		<rect x="657" y="409" class="st6" width="99" height="10"/>
		<rect x="653" y="471" class="st6" width="108" height="9"/>
	</g>
	<path class="st7" d="M0,387c0,0,19-73,53-33c54.7,64.3,39,26,122,18s48,14,95,42c48.9,29.1-4,39,55,31s53-23,87,29s-15.9,70,34,52
		c36-13,33-4,50,11c39.5,34.8-52,15,11,26s70-13,76,14s7,4,6,31c-0.7,2.4-588.5,28.2-589,18C-0.2,622.3,0,387,0,387z"/>
	<path class="st8" d="M-0.1,433.4c0,0,0.1-53.4,28.1-46.4s51,43,98,32s82-27,97,14s-8,36,38,52s49,13,57,38s82-13,88,9s54,29-8,40
		c0,0-399-1-398-4S-0.1,433.4-0.1,433.4z"/>
	<rect y="568" class="st9" width="1921" height="485"/>
	<path class="st10" d="M766,479.5l70-14.5c0,0,73,89,124,103l-87,40C873,608,761,517,766,479.5z"/>
	<path class="st11" d="M1207,781l-18.6-34c-5.8-1.3-12.2-2.6-16.4-3c-5.2-0.6,3.5-3.1,11.8-5.2l-3-5.4L1150,728h27.9l-2.9-5.3
		l-40-23.7h27l-5.4-9.8c-14.4-8.2-33-18.8-36.6-21.2c-3.7-2.5,15,3.5,29.6,8.4l-4.6-8.4h503l-71-100H300l-76,102h615l-11,21.8
		l28-7.8l-35.2,22l-1.5,3H869l-46,15l27,12l-41,3l-5.4,1.1L786,775L0,779v301h1920V781H1207z"/>
	<rect x="1415" y="517.6" class="st12" width="428.6" height="50.4"/>
	<rect x="1465.4" y="468" class="st13" width="404.5" height="49.6"/>
	<path class="st6" d="M839,465h-72v-47.3l66-14.7v-16l-66,14.7V354h-17v111h-13v-48h-10v48h-20v-48h-10v48h-15v-48h-10v48h-15V354
		h-17v78h-34v-78h-17v78h-63v-78h-17v214h17v-76h63v76h17v-76h34v76h17v-94.1c19.7,1,67.8,3.8,93,5.2V568h17v-88.2L839,465z
		 M578,444v36h-27v-36H578z M526,444h14v36h-14V444z M606,444h13v36h-13V444z M630,480v-36h10v36H630z"/>
	<rect x="520" y="306" class="st14" width="69" height="8"/>
	<polygon class="st15" points="440,403 270,608 298,608 440,435 440,608 465,608 465,387 465,324 500.2,288.8 500.2,354 526,354 
		526,208 501,208 501,260 438.5,322.5 	"/>
	<rect x="1284" y="306" transform="matrix(-1 -4.489488e-11 4.489488e-11 -1 2637 620)" class="st14" width="69" height="8"/>
	<polygon class="st15" points="1433,403 1603,608 1575,608 1433,435 1433,608 1408,608 1408,387 1408,324 1372.8,288.8 1372.8,354 
		1347,354 1347,208 1372,208 1372,260 1434.5,322.5 	"/>
	<path class="st16" d="M977.5,630c90.9,0,164.5-26.8,164.5-59.8c0-0.1,0-0.2,0-0.3H813c0,0.1,0,0.2,0,0.3
		C813,603.2,886.6,630,977.5,630z"/>
	<path class="st16" d="M978,594c39.2,0,70-19.4,71-24H907C906,574.6,938.8,594,978,594z"/>
	<path class="st17" d="M1867.6,629c56.4-32,50.4-27-22.6-41s-224-11-215,9s14,54,61,65c45.6,10.7-57,17-163,23c0,0,60,18-70,20
		s-209-23-225-2s-97,13,2,27s133,22,98,25s-105,14,12,13s347,8,370,0s-48-11,7-18s179-6,182-25s-8-17-26-55S1811.1,661,1867.6,629z
		 M1659,724c-10,8-19,7-100,1s-2-3,48-9s-3-5-31-13s40-4,40-4c33-10,34-3,6,2s-3,4,26,6S1669,716,1659,724z"/>
	<path class="st18" d="M656.4,572H480l-25.8,63.4c3.1,0,6.2,0.1,9.3,0.1c106.6,0,193-27.5,193-61.5
		C656.5,573.3,656.5,572.7,656.4,572z"/>
	<path class="st18" d="M1217.3,572.5h176.4l25.8,63.4c-3.1,0-6.2,0.1-9.3,0.1c-106.6,0-193-27.5-193-61.5
		C1217.2,573.8,1217.3,573.2,1217.3,572.5z"/>
	<path class="st17" d="M509,694c0,0-165,7-137,20s26-3,131,10s135,51,176,29s145-58,17-48s-224,11-163,1S672,679,509,694z"/>
	<path class="st17" d="M74.7,594c0,0,151,0,89.3,10s-101.6,13-41.6,26s149.3,24,66.5,36s-146.4,23-32.2,27s229.2,31,136.2,37
		s-162.9-4-92,7s138.1,20-12,15s-243-18-149.1-22s186.9-4,116.9-16S14,682,59.1,669s102.2-21,47.9-33s-95.7-30-56.2-32
		S165,609,74.7,594z"/>
	<polyline class="st9" points="276,672 291,659 282,674 313,663 297,672 318,668 311,674 	"/>
	<path class="st9" d="M495,674c0-2,8-23,8-20s0,21,0,21l6-9l2,5l13-7l-7,10"/>
	<path class="st19" d="M241,640l22-9l-19,3l21-7h-18c0,0,19-31,18-30s-21,26-21,26"/>
	<polyline class="st19" points="1311,674 1261,653 1286,674 1246,664 1265,678 1249,678 1261,682 	"/>
	<polyline class="st9" points="1582,569 1568,558 1588,576 1579.2,578.7 1596,583 1588.3,589.7 1601,590 	"/>
	<path class="st19" d="M1543,670l-16-21.1l8,21.1l-31-13c0,0,0,1,5,6s7,7,7,7l-41-7l28,12"/>
	<path class="st17" d="M1709,691c0,0,42,23,34,28s-6,6,49,2s108-17,55-19"/>
	<path class="st20" d="M1657,921c-40,0-77.6,2-110.1,5.4c15.4-6.3,24.1-13.4,24.1-20.9c0-26.2-105.9-47.5-236.5-47.5
		S1098,879.3,1098,905.5s105.9,47.5,236.5,47.5c41.9,0,81.3-2.2,115.4-6c-10.9,4.9-16.9,10.4-16.9,16c0,23.2,100.3,42,224,42
		s224-18.8,224-42C1881,939.8,1780.7,921,1657,921z"/>
	<path class="st20" d="M1083.1,768.1c-11.3-6.5-54.3-11.4-105.6-11.4c-59.9,0-108.5,6.6-108.5,14.9c0,6.2,27.9,11.5,67.4,13.7
		c-4.2,2.3-6.4,4.7-6.4,7.3c0,13.5,64.2,24.5,143.5,24.5s143.5-11,143.5-24.5C1217,779.5,1157.9,768.9,1083.1,768.1z"/>
	<path class="st20" d="M465.5,883c-14.3,0-28.2,0.5-41.5,1.5c0-24-57.1-43.5-127.5-43.5c-70.4,0-127.5,19.5-127.5,43.5
		c0,23.9,56.7,43.4,126.7,43.5c-0.5,1.5-0.7,3-0.7,4.5c0,27.3,76.3,49.5,170.5,49.5S636,959.8,636,932.5
		C636,905.2,559.7,883,465.5,883z"/>
	<polygon class="st21" points="465,324 500,289 501,278 453.5,325.5 453.5,406 282,608 298,608 440,435 440,436 454,419 454,608 
		465,608 465,387 	"/>
	<rect x="514" y="208" class="st21" width="12" height="146"/>
	<path class="st21" d="M1433,403l1.5-80.5L1373,261v-53h-10v146h10v-77l47,47v82c0,0,167.5,202,169.8,202c0.7,0,5.5-0.8,11.6-2
		L1433,403z"/>
	<polygon class="st21" points="1419,420 1419,608 1433,608 1433,435 	"/>
	<polygon class="st1" points="746,625 647,625 647.1,606.5 465,608 465,595 647.6,595 648,580 747,580 	"/>
	<polygon class="st1" points="1763,625 1664,625 1665,608 1601,608 1593,596 1665,596 1665,580 1764,580 	"/>
	<path class="st13" d="M1809.6,653l-16.3-4.7c-4.7-4.7,10.5-23.3,10.5-23.3c0-12.8,5.8-36.2,5.8-36.2V369.5h-7l-14-38.5l21-14h5.8
		l21,14l-14,38.5h-7v219.3c0,0,5.8,23.3,5.8,36.2c0,0,15.2,18.7,10.5,23.3l-16.3,4.7"/>
	<polyline class="st22" points="1788.6,331 1813.1,325.2 1836.4,331 1822.4,369.5 1802.6,369.5 1788.6,331 	"/>
	<polyline class="st22" points="112.6,331 137.1,325.2 160.4,331 146.4,369.5 126.6,369.5 112.6,331 	"/>
	<path class="st13" d="M126.6,321.6l-14.1,9.4l14,38.5h7v219.3c0,0-5.8,23.3-5.8,36.2c0,0-15.2,18.7-10.5,23.3l16.3,4.7h5.8
		l16.3-4.7c4.7-4.7-10.5-23.3-10.5-23.3c0-12.8-5.8-36.2-5.8-36.2V369.5h7l14-38.5l-21-14h-5.8L126.6,321.6"/>
	<path class="st23" d="M1827.5,333l-7,31l-6.5,5.5V585c0,0,3.9,34.7,1.7,43.4c0,0,11.8,11.6,8.8,21.6c0,0,0.5,0.1,1.3,0.3l7-2
		c4.7-4.7-10.5-23.3-10.5-23.3c0-12.8-5.8-36.2-5.8-36.2V369.5h7l14-38.5l-21-14h-3.8l1.9,8L1827.5,333z"/>
	<polyline class="st22" points="1800,331.5 1813.8,325.7 1827,331.5 1819.1,370 1807.9,370 1800,331.5 	"/>
	<polyline class="st22" points="1807,331 1813.7,325.2 1820,331 1816.2,369.5 1810.8,369.5 1807,331 	"/>
	<path class="st23" d="M150.5,333l-7,31l-6.5,5.5V585c0,0,3.9,34.7,1.7,43.4c0,0,11.8,11.6,8.8,21.6c0,0,0.5,0.1,1.3,0.3l7-2
		c4.7-4.7-10.5-23.3-10.5-23.3c0-12.8-5.8-36.2-5.8-36.2V369.5h7l14-38.5l-21-14h-3.8l1.9,8L150.5,333z"/>
	<polyline class="st22" points="112.6,331 137.1,325.2 160.4,331 146.4,369.5 126.6,369.5 112.6,331 	"/>
	<polyline class="st22" points="123,331 136.8,325.2 150,331 142.1,369.5 130.9,369.5 123,331 	"/>
	<polyline class="st22" points="130,331 136.7,325.2 143,331 139.2,369.5 133.8,369.5 130,331 	"/>
</g>
</svg>
