<?xml version="1.0" encoding="UTF-8"?>
<svg id="Capa_2" data-name="Capa 2" xmlns="http://www.w3.org/2000/svg" xmlns:xlink="http://www.w3.org/1999/xlink" viewBox="0 0 1923.5 1081.5">
  <defs>
    <style>
      .cls-1 {
        fill: #24293f;
      }

      .cls-2 {
        stroke-width: 1.96px;
      }

      .cls-2, .cls-3, .cls-4, .cls-5, .cls-6 {
        stroke-miterlimit: 10;
      }

      .cls-2, .cls-7, .cls-4 {
        fill: none;
      }

      .cls-2, .cls-4 {
        stroke: #1d1d1b;
      }

      .cls-8 {
        fill: #805b54;
      }

      .cls-9, .cls-3 {
        fill: #fff;
      }

      .cls-10 {
        fill: #89c64e;
      }

      .cls-3 {
        stroke: #000;
      }

      .cls-11 {
        fill: #edf4f4;
      }

      .cls-12 {
        fill: #4a9944;
      }

      .cls-13 {
        fill: #86444f;
      }

      .cls-14 {
        clip-path: url(#clippath-1);
      }

      .cls-15 {
        fill: #a9c245;
      }

      .cls-16 {
        fill: #db6b7e;
      }

      .cls-17 {
        fill: #acc95b;
      }

      .cls-18 {
        fill: #9ac146;
      }

      .cls-19 {
        fill: #76b956;
      }

      .cls-20 {
        fill: #f8f9f2;
      }

      .cls-21 {
        fill: #f4f9d9;
      }

      .cls-22 {
        fill: #8bc146;
      }

      .cls-23 {
        fill: #d3d392;
      }

      .cls-4 {
        stroke-width: 2.17px;
      }

      .cls-24 {
        fill: #382c1e;
      }

      .cls-25 {
        fill: #f3d490;
      }

      .cls-5 {
        fill: url(#Degradado_sin_nombre_4);
        stroke: #7c5a2a;
      }

      .cls-5, .cls-6 {
        stroke-width: 7px;
      }

      .cls-26 {
        clip-path: url(#clippath);
      }

      .cls-27 {
        fill: #e5e6a0;
      }

      .cls-28 {
        fill: #5f8e9e;
      }

      .cls-6 {
        fill: url(#Degradado_sin_nombre_3);
        stroke: #7c5a2b;
      }
    </style>
    <linearGradient id="Degradado_sin_nombre_4" data-name="Degradado sin nombre 4" x1="1457" y1="299.91" x2="1457" y2="879.91" gradientTransform="translate(0 883.91) scale(1 -1)" gradientUnits="userSpaceOnUse">
      <stop offset="0" stop-color="#d1fdfe"/>
      <stop offset=".05" stop-color="#caf9fc"/>
      <stop offset=".24" stop-color="#b3ecf6"/>
      <stop offset=".45" stop-color="#a3e3f2"/>
      <stop offset=".68" stop-color="#99deef"/>
      <stop offset="1" stop-color="#97ddef"/>
    </linearGradient>
    <clipPath id="clippath">
      <polygon class="cls-7" points="1916 572 997 572 997.16 0 1915.68 0 1916 572"/>
    </clipPath>
    <linearGradient id="Degradado_sin_nombre_3" data-name="Degradado sin nombre 3" x1="1331.72" y1="285.91" x2="1331.72" y2="-194.09" gradientTransform="translate(0 883.91) scale(1 -1)" gradientUnits="userSpaceOnUse">
      <stop offset="0" stop-color="#d1fdfe"/>
      <stop offset=".36" stop-color="#cefbfd"/>
      <stop offset=".58" stop-color="#c6f6fb"/>
      <stop offset=".76" stop-color="#b7eff7"/>
      <stop offset=".92" stop-color="#a3e3f2"/>
      <stop offset="1" stop-color="#97ddef"/>
    </linearGradient>
    <clipPath id="clippath-1">
      <path class="cls-7" d="M382.94,896.83c-342.33-20.82-144.41-360.13-99.13-421.14,22.17-29.87,40.13-80.7,41.2-123.63,8.61,5.26,28.74,15.97,56.47,16.33,29.41.38,50.77-11.09,59.35-16.33-.45,44.57,18.1,92.45,41.25,123.63,45.28,61,243.2,400.31-99.13,421.14h-.01Z"/>
    </clipPath>
  </defs>
  <g id="Capa_1-2" data-name="Capa 1">
    <g id="Capa_1-2" data-name="Capa 1-2">
      <g>
        <polygon class="cls-15" points="1919.91 1073.96 .57 1073.96 0 0 1920.32 0 1919.91 1073.96"/>
        <path class="cls-28" d="M1206.57,449.13l-18.63-71.61c-5.77-2.69-12.23-5.44-16.36-6.41-5.17-1.21,3.52-6.6,11.84-10.96l-2.98-11.46-30.85-11.32h27.91l-2.92-11.24-39.98-49.91h27l-5.38-20.69c-14.38-17.19-33.02-39.62-36.61-44.67-3.73-5.24,14.95,7.44,29.62,17.79l-4.63-17.79h502.82L1576.44,0H299.89l-75.97,215.08h614.78l-11.01,46,28-16.48-35.15,46.33-1.53,6.38h49.67l-45.98,31.63,26.99,25.3-40.99,6.33-5.41,2.42-17.59,73.49L0,444.92l.59,635.08h1919.32l-.59-630.87h-712.75Z"/>
        <path class="cls-18" d="M76.72,46.81s150.91,0,89.26,23.67c-61.65,23.67-101.57,30.76-41.58,61.53,59.99,30.76,149.24,56.8,66.43,85.19-82.82,28.4-146.31,54.43-32.21,63.9s229.12,73.36,136.19,87.56c-92.94,14.2-162.87-9.47-92.02,16.57,70.85,26.03,138.03,47.33-11.96,35.5-149.99-11.83-242.93-42.6-149.07-52.06,93.86-9.47,186.79-9.47,116.86-37.86-69.93-28.4-142.63-75.73-97.54-106.49,45.09-30.76,102.14-49.7,47.85-78.09C54.64,117.81,13.23,75.21,52.8,70.48c39.57-4.73,114.1,11.83,23.92-23.67Z"/>
        <polygon class="cls-5" points="1920 584 994 584 994.16 4 1919.68 4 1920 584"/>
        <g class="cls-26">
          <g>
            <path class="cls-11" d="M1434.41,142.87c0-15.34-64.48-27.77-144.03-27.77-28.23,0-54.56,1.57-76.78,4.27-20.33-18.57-63.33-31.37-113.1-31.37-69.36,0-125.59,24.87-125.59,55.55,0,10.18,6.2,19.72,17.01,27.93-51.13,4.12-89.78,23.11-89.78,45.91,0,25.81,49.53,46.74,110.64,46.74,46.24,0,85.85-11.99,102.38-29,27.95,2.95,59.74,4.62,93.48,4.62,111.47,0,201.84-18.2,201.84-40.64,0-12.07-26.14-22.91-67.63-30.35,53.59-4.05,91.55-14.1,91.55-25.87v-.02Z"/>
            <path class="cls-11" d="M2251.25,195.53c41.52-6.61,67.71-16.5,67.76-27.75.1-20.92-90.18-38.6-201.65-39.48-33.73-.27-65.53,1.03-93.5,3.56-16.46-15.99-56.01-27.48-102.25-27.84-61.1-.49-110.73,18.62-110.85,42.68-.11,21.25,38.45,39.25,89.56,43.5-10.85,7.56-17.1,16.41-17.14,25.9-.14,28.59,55.97,52.22,125.33,52.77,49.77.4,92.83-11.2,113.24-28.34,22.21,2.7,48.53,4.37,76.76,4.59,79.54.63,144.08-10.44,144.16-24.74.05-10.97-37.85-20.64-91.43-24.84h.01Z"/>
          </g>
        </g>
        <g>
          <rect class="cls-23" x="1399.81" y="302.54" width="209.22" height="189.66" transform="translate(1080.86 1894.62) rotate(-89)"/>
          <ellipse class="cls-27" cx="1603.16" cy="399.87" rx="105.46" ry="21.26" transform="translate(1175.37 1995.81) rotate(-89)"/>
          <ellipse class="cls-24" cx="1603.16" cy="399.87" rx="44.29" ry="8.93" transform="translate(1175.37 1995.81) rotate(-89)"/>
          <path class="cls-21" d="M1600.23,499.48s-2.86,7.46-5.81,5.7c-1.3-.77-43.73-1.93-90.74-2.98-13.62-.3-27.62-.6-41.12-.88-27.09-.55-52.15-1.02-68.02-1.31-10.81-.2-17.36-.31-17.36-.31,0,0-29.61-58.36-15.01-115.09,14.6-56.74,27.75-176.87,12.15-184.8l10.63.18,17.41,26.25,14.46.25-4.09-9.43,8.37-16.44s13.69-4.44,17.94-4.37,7.45,12.04,7.45,12.04l-5.27,9.69,15.94,12.61,13.26-4.45-8.98-21.85,16.6-.56,9.99,12.51-11.77,16.38,18.25,2.02,10.73-30.01,22.41,7.62-14.77,18.03,20.33,5.03,3.17-11-4.19-3.48,4.38-7.58,16.17-.57,5.31,12.85-.18,10.2,15.16,8.77,5.26-33.51,16.16-.14s-40.88,41.99-22.51,169.95c4.79,33.42,13.64,72.71,28.3,118.65v.03Z"/>
          <path class="cls-10" d="M1468.86,486.41c-6.23,5.25-7.77,10.54-6.29,14.91-27.09-.55-52.15-1.02-68.02-1.31,1.33-10.4-1.91-23.91-15.38-40.68-37.05-46.15,23.84-13.69,28.63-8.01,4.91,5.81,11.38,30.39,20.02,22.89,8.64-7.51,13.51-18.48-.23-35.73-13.73-17.25-3.41-40.59,7.15-44.53,8.02-2.99,31.46,6.46,30.79,15-1.43,18.17-12.74,23.17-26.28,68.02-13.54,44.85,8.82,6.53,19.45-17.95,10.63-24.48,34.77-13.5,37.08-4.46,2.58,10.1-6.64,14.77-26.92,31.85h0Z"/>
          <path class="cls-10" d="M1600.23,499.48s-2.86,7.46-5.81,5.7c-1.3-.77-43.73-1.93-90.74-2.98,10.68-11.74-15.8-15.77-.03-35.17,17.38-21.39,6.62,10.75,25.3,12.77,18.68,2.03,9.26-18.98-15.56-34.72-24.82-15.74-7.66-51.17,5.14-50.95,14.03.24,2.44,6.42,7.17,27.77,4.73,21.35,9.65,7.4,37.11-30.4,3.23-4.46,6.28-7.96,9.13-10.68,4.79,33.42,13.64,72.71,28.3,118.65h-.01Z"/>
        </g>
        <polygon class="cls-6" points="1918 1078 745.44 1078 745.64 598 1917.59 598 1918 1078"/>
        <rect class="cls-17" x="748" y="782.8" width="1166" height="295.2"/>
        <g>
          <rect class="cls-23" x="1200.89" y="745.9" width="254.71" height="230.9" transform="translate(-6.43 9.99) rotate(-.43)"/>
          <ellipse class="cls-27" cx="1328.31" cy="741.26" rx="128.39" ry="25.89" transform="translate(-5.53 9.99) rotate(-.43)"/>
          <ellipse class="cls-24" cx="1328.31" cy="741.26" rx="53.92" ry="10.87" transform="translate(-5.53 9.99) rotate(-.43)"/>
          <path class="cls-23" d="M1190.67,955.86s-3.16,14.4-3.48,16.62c-.31,2.23-12.26,10.22-12.26,10.22l-118.15.63-155.75-9.09,9.4-3.74,12.81-.26,15.19,2.69-20.64-5.36,6.21-2.48c2.3,1.38,4.1,2.49,4.1,2.49l5.86.26s-2.62-2.2-5.2-4.63l3.87-1.55,258.03-5.8h.01Z"/>
          <path class="cls-10" d="M1264.43,836.48s-32.7-17.5-24.7,2.5,29.23,11.87,6.62,29.43c-22.62,17.57-39.62,16.57-29.62,29.57s-3.35,19.07,14.83,19.54,25.17,3.46,31.17-4.54-24.7-4.91,12.65-19.95c37.35-15.05,14.35-1.05,55.35-30.05s113.22-30,51.11-41c-62.11-11-84.11-16-93.11-7s-11.26,26-8.13,32c3.13,6-16.17-10.5-16.17-10.5Z"/>
          <path class="cls-21" d="M1456.42,975.82s-24.3.07-58.18,1.14c-6.41.2-13.15.43-20.15.7-29.51,1.17-63.36,3.08-94.03,6.18-76.36,7.72-249.6,2.76-227.28-.52,31.24-4.58,94.06-11,150.26-33.54,40.28-16.14,87.43-52.02,129.81-89.6,56.13-49.75,103.91-102.51,116.29-116.42,2.04-2.29,3.11-3.52,3.11-3.52l.12,169.43.03,46.13.02,20.01h0Z"/>
          <path class="cls-10" d="M1456.62,955.82c-.07,0-.15-.02-.22-.01-12.66-.94-28.94,2.49-48.86,15.47-3.46,2.26-6.54,4.14-9.3,5.68-6.41.2-13.15.43-20.15.7.71-9.89,14.99-30.37,18.9-33.04,6.92-4.75,36.67-11.45,27.29-19.37-9.38-7.9-22.87-12.19-43.48,1.12-20.61,13.33-49.3,4.24-54.4-5.57-3.87-7.45,6.98-29.68,17.38-29.27,22.16.89,28.56,11.36,83.52,22.92,54.97,11.55,7.7-8.44-22.39-17.8-30.1-9.35-17.42-32.27-6.47-34.67,12.21-2.68,18.16,5.85,39.53,24.44,6.56,5.71,13.04,7.02,18.33,5.53.02,6.05.05,11.97.07,17.71.08,18.41.18,34.78.25,46.14v.02Z"/>
          <path class="cls-10" d="M1455.91,859.02c-14.6-12.65-18.72,19.71-42.8,1.1-26.55-20.51,12.88-8.37,14.78-31.17,1.9-22.8-23.38-10.69-41.78,19.99-11.76,19.61-33.82,18.59-48.25,11.25,56.13-49.75,103.91-102.51,116.29-116.42,1.97,1.26,3.65,2.94,2.65,4.72-.89,1.61-1.02,53.28-.88,110.53h-.01Z"/>
        </g>
        <path class="cls-22" d="M822,1021l-77-26,68,12-62-44,57,16s-41-73-48-87,81,77,82,79l8-74,10,72,37.11-30.4-27.11,52.4,43,10-47.98,20"/>
        <path class="cls-22" d="M1677,1043l77-26-68,12,62-44-57,16s41-73,48-87-81,77-82,79l-8-74-10,72-37.11-30.4,27.11,52.4-43,10,47.98,20"/>
        <path class="cls-22" d="M1819,838l-77-26,68,12-62-44,57,16s-41-73-48-87,81,77,82,79l8-74,10,72,37.11-30.4-27.11,52.4,43,10-47.98,20"/>
        <path class="cls-22" d="M978,820l-77-26,68,12-31-40,26,12s17-71,10-85,23,75,24,77l51-70-36,79,50-24-48,48,54-3-47.98,20"/>
        <g>
          <ellipse class="cls-8" cx="381.35" cy="613.5" rx="242.63" ry="266.79"/>
          <path class="cls-19" d="M627.02,635.59c4.14-.8,31.75-6.65,46.72-33.24,18.67-33.16-.02-67.15-.94-68.76-41.47-18.94-85.77-37.76-132.82-55.96-48.7-18.84-95.65-35.19-140.45-49.43-10.13,6.02-16.27,17.03-15.99,28.73.42,17.11,14.36,26.12,15.39,26.76,35.27,20.47,71.84,42.99,109.34,67.76,42.66,28.18,82.23,56.42,118.75,84.14h0Z"/>
          <path class="cls-12" d="M569.76,760.71s-72.49,144.7-109.52,193.37c-7.29,9.58-19.71,13.59-31.13,9.92l-60.75-19.52c-11.73-3.77-19.69-14.75-19.67-27.14l.11-87.16,220.96-69.47h0Z"/>
          <path class="cls-19" d="M283.4,475.7c45.28-61,73.02-185.95-24.83-224.9,0,0-21.91-10.29-4.38-33.81,17.53-23.52,39.8-87.46,128.34-89.67,88.54,2.2,110.82,66.15,128.34,89.67,17.53,23.52-4.38,33.81-4.38,33.81-97.85,38.95-70.1,163.9-24.83,224.9,45.28,61,243.2,400.31-99.13,421.14-342.33-20.82-144.41-360.13-99.13-421.14Z"/>
          <ellipse class="cls-9" cx="475.28" cy="162.9" rx="34.22" ry="57.9"/>
          <ellipse class="cls-1" cx="477.24" cy="164.34" rx="17.68" ry="21.51"/>
          <ellipse class="cls-9" cx="466.44" cy="142.83" rx="10.8" ry="13.13"/>
          <path class="cls-25" d="M382.94,896.83c-342.33-20.82-144.41-360.13-99.13-421.14,22.17-29.87,40.13-80.7,41.2-123.63,8.61,5.26,28.74,15.97,56.47,16.33,29.41.38,50.77-11.09,59.35-16.33-.45,44.57,18.1,92.45,41.25,123.63,45.28,61,243.2,400.31-99.13,421.14h-.01Z"/>
          <ellipse class="cls-9" cx="346.6" cy="160.36" rx="34.22" ry="55.36"/>
          <path class="cls-4" d="M578.47,756.09c-39.11,17.54-112.25,44.12-206.89,42.07-83.56-1.81-148.49-25.16-186.17-42.07"/>
          <path class="cls-2" d="M542.33,582.68c-31.92,17.54-91.61,44.12-168.85,42.07-68.2-1.81-119.02-25.53-149.77-42.44"/>
          <path class="cls-4" d="M459,435.86c-39.11,17.54-115.83,17.49-156.37,7.29"/>
          <ellipse class="cls-1" cx="346.4" cy="164.34" rx="17.68" ry="21.51"/>
          <path class="cls-19" d="M358.56,984.14l52.26-27.58c10.09-5.33,15.32-17.15,12.93-29.22l-16.19-81.67c-.44-2.22-1.25-4.36-2.41-6.32-8.16-13.81-34.4-53.06-82.63-68.34-39.27-12.44-103.42-9.72-119.25,23.43-16.25,34.04,26.46,83.49,50.94,111.83,36.6,42.37,77.62,65.56,104.35,77.86h0Z"/>
          <path class="cls-19" d="M78.41,644.96c-4.01-1.29-30.74-10.4-42.46-38.59-14.62-35.16,7.95-66.67,9.06-68.16,43.42-13.84,89.62-27.22,138.49-39.66,50.58-12.87,99.13-23.49,145.3-32.26,9.35,7.19,14.15,18.86,12.48,30.44-2.44,16.94-17.34,24.21-18.44,24.73-37.44,16.1-76.41,34.08-116.57,54.19-45.69,22.87-88.31,46.18-127.85,69.32h-.01Z"/>
          <ellipse class="cls-9" cx="335.6" cy="142.83" rx="10.8" ry="13.13"/>
          <g class="cls-14">
            <g>
              <path class="cls-7" d="M578.47,578.65c-20.46,16.54-89.93,68.46-192.78,69.7-107.5,1.29-180.41-53.64-200.28-69.7"/>
              <path class="cls-7" d="M578.47,412.65c-20.73,16.35-91.85,68.28-196.53,68.28s-175.8-51.93-196.53-68.28"/>
            </g>
          </g>
          <g>
            <path class="cls-13" d="M351.89,258.86c.6,6.99,3.17,14.53,9.83,20.71,8.15,7.58,22.45,13.14,46.75,13.17h0c.21.01.4,0,.6,0,.21,0,.4.01.61.01h0c24.3-.04,38.59-5.6,46.75-13.19,6.66-6.18,9.22-13.72,9.83-20.71,1.33-15.69-26.97-20.48-36.85-15.97-3.35,1.54-8.73,3.58-13.19,5.19-4.47,1.62-9.79,1.58-14.21-.1-4.43-1.68-9.77-3.75-13.29-5.09-9.95-3.78-38.19.28-36.85,15.97h.02Z"/>
            <path class="cls-16" d="M361.73,279.57c8.15,7.58,22.45,13.14,46.75,13.17h0c.21.01.4,0,.6,0,.21,0,.4.01.61.01h0c24.3-.04,38.59-5.6,46.75-13.19-5.94-10.43-24.9-18.05-47.37-18.05s-41.41,7.62-47.35,18.05h.01Z"/>
          </g>
        </g>
        <path class="cls-20" d="M1635.97,364.78c-.03,94.78-39.97,164.22-39.97,164.22"/>
        <path class="cls-20" d="M1390.47,523.61s-53.06-20.35-69.26-95.48"/>
        <path class="cls-20" d="M1671,219s5,126.71-16,180.86c0,0,55-104.86,16-180.86h0Z"/>
        <path class="cls-20" d="M1349.72,223.5s-37.72,103.5-7.72,163.5c0,0-1.56-134,7.72-163.5Z"/>
        <path class="cls-20" d="M1417.87,536.98s70.09,15.02,98.61,3.02"/>
        <path class="cls-20" d="M1482.83,523.61s34.17,19.39,98.17-4.61"/>
      </g>
    </g>
    <g>
      <path class="cls-3" d="M625.09,951.29c1.13-5.08,2.2-10.06,3.22-14.92.41-1.96.84-4.06,1.27-6.3.43-2.24.88-4.51,1.33-6.81.45-2.3.87-4.47,1.24-6.53.38-2.05.68-3.85.9-5.4,1.51-.45,3.14-.87,4.89-1.24,1.75-.38,3.32-.57,4.72-.57,2.26,0,4.05.48,5.37,1.44,1.32.96,2.26,2.25,2.82,3.87.57,1.62.85,3.39.85,5.31,0,2.11-.39,4.13-1.16,6.07-.77,1.94-1.81,3.68-3.11,5.23-1.3,1.54-2.79,2.77-4.46,3.67-1.68.9-3.42,1.36-5.23,1.36h-.62c-.3,1.28-.58,2.67-.85,4.18-.26,1.51-.49,2.9-.68,4.18-.15.75-.28,1.51-.4,2.26-.11.75-.23,1.51-.34,2.26l-9.77,1.92ZM638.26,930.55c.87-.23,1.73-.8,2.6-1.72.87-.92,1.58-2.1,2.15-3.53.57-1.43.85-2.99.85-4.69,0-1.39-.31-2.45-.93-3.16-.62-.71-1.31-1.07-2.06-1.07-.41,2.49-.83,4.84-1.24,7.06-.42,2.22-.87,4.6-1.36,7.12Z"/>
      <path class="cls-3" d="M646.9,951.29l2.94-14.69c.45-2.71.94-5.5,1.47-8.36.53-2.86,1.03-5.69,1.5-8.48.47-2.79.84-5.4,1.1-7.85,2.15-.68,4.46-1.18,6.95-1.5,2.49-.32,4.95-.48,7.4-.48,2.86,0,4.81.62,5.85,1.87,1.04,1.24,1.55,2.92,1.55,5.03,0,1.92-.45,3.85-1.36,5.79-.9,1.94-2.08,3.69-3.53,5.25-1.45,1.56-3.04,2.8-4.77,3.7.68,1.51,1.4,3.16,2.18,4.94.77,1.79,1.5,3.49,2.18,5.11.38.94.76,1.88,1.16,2.82.4.94.78,1.88,1.16,2.83l-8.76,3.05-2.03-6.78c-.56-1.88-1.08-3.7-1.55-5.45-.47-1.75-.74-2.99-.82-3.7l-.73.23c-.11.6-.24,1.25-.37,1.95-.13.7-.27,1.46-.42,2.29-.15.83-.3,1.63-.45,2.4-.15.77-.3,1.54-.45,2.29l-1.02,5.37-9.15,2.37ZM660.18,926.77c.68-.07,1.52-.37,2.51-.88,1-.51,2-1.14,2.99-1.89,1-.75,1.84-1.53,2.51-2.32.68-.79,1.02-1.49,1.02-2.09,0-.75-.44-1.25-1.33-1.5-.89-.25-2.04-.37-3.48-.37h-1.24c-.23.04-.43.06-.62.06h-.56l-1.81,8.98Z"/>
      <path class="cls-3" d="M672.21,951.29l7.4-40.17,17.85-1.53c-.26.83-.49,1.68-.68,2.54-.19.72-.37,1.46-.54,2.23-.17.77-.31,1.46-.42,2.06-.49.04-1.19.07-2.09.08-.9.02-1.83.04-2.77.06-.94.02-1.75.03-2.43.03h-1.07l-1.98,10.11,3.28-.17c.41-.04.84-.06,1.27-.06h2.4c.34,0,.6-.02.79-.06-.08.53-.14,1.05-.2,1.55-.06.51-.12,1.03-.2,1.55l-.51,3.11c-.19.04-.43.06-.73.06h-1.07c-.41.04-.85.06-1.3.06s-.89.02-1.3.06c-.49.04-1,.06-1.53.06s-1.09.02-1.69.06l-1.92,10.4,8.25-1.3-.56,6.44-18.25,2.83Z"/>
      <path class="cls-3" d="M700.69,951.35c-1.51,0-3.01-.4-4.52-1.21-1.51-.81-2.96-2.1-4.35-3.87l4.18-8.19c.41.72,1.03,1.39,1.84,2.03.81.64,1.67,1.15,2.57,1.53.9.38,1.68.56,2.32.56.98,0,1.91-.3,2.8-.9.88-.6,1.33-1.41,1.33-2.43,0-1.32-.6-2.52-1.81-3.62-1.21-1.09-2.56-2.17-4.07-3.22-1.47-1.05-2.82-2.25-4.04-3.59-1.22-1.34-1.84-2.87-1.84-4.6,0-1.96.56-3.78,1.7-5.45,1.13-1.68,2.6-3.14,4.41-4.41,1.81-1.26,3.74-2.24,5.79-2.94,2.05-.7,4-1.05,5.85-1.05,1.32,0,2.54.22,3.67.65s2.03,1.14,2.71,2.12c.68.98,1.02,2.3,1.02,3.96,0,.26,0,.53-.03.79-.02.26-.05.53-.08.79-.04.26-.08.54-.14.82-.06.28-.1.57-.14.88l-8.19,2.37c.07-.3.14-.6.2-.9.06-.3.08-.6.08-.9,0-1.13-.2-1.95-.59-2.46-.4-.51-.91-.76-1.55-.76-.34,0-.83.18-1.47.54-.64.36-1.21.85-1.72,1.47-.51.62-.76,1.31-.76,2.06,0,1.24.52,2.27,1.55,3.08,1.04.81,2.23,1.63,3.59,2.46.64.38,1.36.97,2.15,1.78.79.81,1.48,1.9,2.06,3.28.58,1.38.88,3.14.88,5.28,0,2.79-.69,5.24-2.06,7.34-1.38,2.11-3.23,3.76-5.57,4.94-2.34,1.19-4.92,1.78-7.74,1.78Z"/>
      <path class="cls-3" d="M715.6,951.18c.53-2.18,1.05-4.66,1.58-7.43.53-2.77,1.05-5.64,1.58-8.62.53-2.97,1.02-5.84,1.47-8.59.41-2.41.82-4.86,1.21-7.34.4-2.49.78-4.99,1.16-7.51l8.81-1.41-2.54,14.86c-.56,3.5-1.06,6.65-1.5,9.44-.43,2.79-.85,5.42-1.24,7.91-.4,2.49-.8,5.03-1.21,7.63-.72,0-1.58.05-2.6.14s-2.03.21-3.05.34-1.87.25-2.57.37c-.7.11-1.06.19-1.1.23Z"/>
      <path class="cls-3" d="M736.96,951.46c-2.49,0-4.52-.96-6.1-2.88s-2.37-4.82-2.37-8.7c0-2.15.26-4.41.79-6.78.53-2.37,1.26-4.71,2.2-7.01.94-2.3,2.03-4.43,3.28-6.38,2-3.16,4.29-5.74,6.89-7.74,2.6-2,5.33-2.99,8.19-2.99,2.26,0,4,.57,5.23,1.72,1.22,1.15,2.08,2.62,2.57,4.41.49,1.79.73,3.64.73,5.57,0,4.48-.69,8.65-2.06,12.51-1.38,3.86-3.16,7.13-5.34,9.8-2.18,2.75-4.51,4.85-6.98,6.3-2.47,1.45-4.81,2.17-7.03,2.17ZM740.01,942.14c1.7,0,3.19-.56,4.49-1.69,1.3-1.13,2.4-2.57,3.31-4.32.9-1.75,1.58-3.59,2.03-5.51s.68-3.65.68-5.2c0-.6-.06-1.25-.17-1.95-.11-.7-.36-1.31-.73-1.84-.38-.53-.96-.79-1.75-.79-1.73,0-3.3.63-4.69,1.89-1.39,1.26-2.56,2.85-3.5,4.77-.94,1.96-1.64,3.88-2.09,5.76-.45,1.88-.68,3.6-.68,5.14,0,.79.28,1.61.85,2.46.56.85,1.32,1.27,2.26,1.27Z"/>
      <path class="cls-3" d="M754.87,951.51c1.13-5.42,2.2-10.68,3.22-15.76.83-4.78,1.64-9.38,2.43-13.79.79-4.41,1.36-8.46,1.69-12.15.26.04.5.06.71.06h1.72c.98,0,2.07-.03,3.28-.08,1.21-.06,2.32-.1,3.33-.14.26,1.32.52,2.62.76,3.9.24,1.28.46,2.52.65,3.73.19,1.05.4,2.14.62,3.25.23,1.11.45,2.23.68,3.36.19,1.13.39,2.17.59,3.14.21.96.39,1.84.54,2.63.45-2.22.88-4.41,1.27-6.55.4-2.15.78-4.09,1.16-5.82l1.64-7.57,6.89-.85c-.64,2.86-1.24,5.67-1.81,8.42-.56,2.75-1.09,5.41-1.58,7.97-.94,4.6-1.77,8.93-2.49,13-.72,4.07-1.26,7.61-1.64,10.62.41,0,.35.05-.2.14-.55.09-1.35.23-2.4.4-1.06.17-2.19.39-3.39.65-1.21.26-2.28.58-3.22.96-.11-1.51-.23-2.98-.34-4.41-.11-1.43-.25-2.83-.4-4.18-.23-2.41-.49-4.8-.79-7.17-.3-2.37-.6-4.26-.9-5.65-.26,1.66-.58,3.55-.96,5.68-.38,2.13-.79,4.27-1.24,6.41l-1.58,7.91-8.25,1.92Z"/>
      <path class="cls-3" d="M794.76,951.12c.08-.64.15-1.26.23-1.86.08-.6.15-1.21.23-1.81l.34-3.16c.04-.53.08-1.02.11-1.47.04-.45.07-.87.11-1.24h-4.92l-2.26,8.14c-.83.11-1.81.24-2.94.37-1.13.13-2.19.25-3.16.37-.6.08-1.2.15-1.78.23-.58.08-1.18.15-1.78.23l4.46-14.8c.53-1.77,1.13-3.79,1.81-6.05.68-2.26,1.36-4.58,2.06-6.95.7-2.37,1.36-4.6,1.98-6.7.62-2.09,1.12-3.85,1.5-5.28,2.56-.19,5.17-.41,7.83-.68,2.66-.26,5.24-.62,7.77-1.07-.19,2.11-.37,4.49-.54,7.15-.17,2.66-.32,5.4-.45,8.22-.13,2.82-.27,5.61-.42,8.36-.08,2.6-.17,5.28-.28,8.05-.11,2.77-.23,5.6-.34,8.5-.57.08-1.13.15-1.7.23-.56.08-1.13.15-1.69.23-.94.15-1.98.32-3.11.51s-2.15.36-3.05.51ZM792.22,935.92c.23,0,.65-.02,1.27-.06.62-.04,1.21-.08,1.78-.11.56-.04.9-.06,1.02-.06,0-.49.07-1.49.23-3,.15-1.51.3-3.09.45-4.75.08-.98.16-1.99.25-3.02.09-1.04.2-2.1.31-3.19l.34-4.92-.85.06-1.3,4.86-3.5,14.18Z"/>
      <path class="cls-3" d="M816.06,951.29l7.4-40.17,17.85-1.53c-.26.83-.49,1.68-.68,2.54-.19.72-.37,1.46-.54,2.23-.17.77-.31,1.46-.42,2.06-.49.04-1.19.07-2.09.08-.9.02-1.83.04-2.77.06-.94.02-1.75.03-2.43.03h-1.07l-1.98,10.11,3.28-.17c.41-.04.84-.06,1.27-.06h2.4c.34,0,.6-.02.79-.06-.08.53-.14,1.05-.2,1.55-.06.51-.12,1.03-.2,1.55l-.51,3.11c-.19.04-.43.06-.73.06h-1.07c-.41.04-.85.06-1.3.06s-.89.02-1.3.06c-.49.04-1,.06-1.53.06s-1.09.02-1.69.06l-1.92,10.4,8.25-1.3-.56,6.44-18.25,2.83Z"/>
      <path class="cls-3" d="M844.53,951.35c-1.51,0-3.01-.4-4.52-1.21-1.51-.81-2.96-2.1-4.35-3.87l4.18-8.19c.41.72,1.03,1.39,1.84,2.03.81.64,1.67,1.15,2.57,1.53.9.38,1.68.56,2.32.56.98,0,1.91-.3,2.8-.9.88-.6,1.33-1.41,1.33-2.43,0-1.32-.6-2.52-1.81-3.62-1.21-1.09-2.56-2.17-4.07-3.22-1.47-1.05-2.82-2.25-4.04-3.59-1.22-1.34-1.84-2.87-1.84-4.6,0-1.96.56-3.78,1.7-5.45,1.13-1.68,2.6-3.14,4.41-4.41,1.81-1.26,3.74-2.24,5.79-2.94,2.05-.7,4-1.05,5.85-1.05,1.32,0,2.54.22,3.67.65s2.03,1.14,2.71,2.12c.68.98,1.02,2.3,1.02,3.96,0,.26,0,.53-.03.79-.02.26-.05.53-.08.79-.04.26-.08.54-.14.82-.06.28-.1.57-.14.88l-8.19,2.37c.07-.3.14-.6.2-.9.06-.3.08-.6.08-.9,0-1.13-.2-1.95-.59-2.46-.4-.51-.91-.76-1.55-.76-.34,0-.83.18-1.47.54-.64.36-1.21.85-1.72,1.47-.51.62-.76,1.31-.76,2.06,0,1.24.52,2.27,1.55,3.08,1.04.81,2.23,1.63,3.59,2.46.64.38,1.36.97,2.15,1.78.79.81,1.48,1.9,2.06,3.28.58,1.38.88,3.14.88,5.28,0,2.79-.69,5.24-2.06,7.34-1.38,2.11-3.23,3.76-5.57,4.94-2.34,1.19-4.92,1.78-7.74,1.78Z"/>
      <path class="cls-3" d="M859,951.29c1.13-5.08,2.2-10.06,3.22-14.92.41-1.96.84-4.06,1.27-6.3.43-2.24.88-4.51,1.33-6.81.45-2.3.87-4.47,1.24-6.53.38-2.05.68-3.85.9-5.4,1.51-.45,3.14-.87,4.89-1.24,1.75-.38,3.32-.57,4.72-.57,2.26,0,4.05.48,5.37,1.44,1.32.96,2.26,2.25,2.82,3.87.57,1.62.85,3.39.85,5.31,0,2.11-.39,4.13-1.16,6.07-.77,1.94-1.81,3.68-3.11,5.23-1.3,1.54-2.79,2.77-4.46,3.67-1.68.9-3.42,1.36-5.23,1.36h-.62c-.3,1.28-.58,2.67-.85,4.18-.26,1.51-.49,2.9-.68,4.18-.15.75-.28,1.51-.4,2.26-.11.75-.23,1.51-.34,2.26l-9.77,1.92ZM872.16,930.55c.87-.23,1.73-.8,2.6-1.72.87-.92,1.58-2.1,2.15-3.53.57-1.43.85-2.99.85-4.69,0-1.39-.31-2.45-.93-3.16-.62-.71-1.31-1.07-2.06-1.07-.41,2.49-.83,4.84-1.24,7.06-.42,2.22-.87,4.6-1.36,7.12Z"/>
      <path class="cls-3" d="M894.54,951.12c.08-.64.15-1.26.23-1.86.08-.6.15-1.21.23-1.81l.34-3.16c.04-.53.08-1.02.11-1.47.04-.45.07-.87.11-1.24h-4.92l-2.26,8.14c-.83.11-1.81.24-2.94.37-1.13.13-2.19.25-3.16.37-.6.08-1.2.15-1.78.23-.58.08-1.18.15-1.78.23l4.46-14.8c.53-1.77,1.13-3.79,1.81-6.05.68-2.26,1.36-4.58,2.06-6.95.7-2.37,1.36-4.6,1.98-6.7.62-2.09,1.12-3.85,1.5-5.28,2.56-.19,5.17-.41,7.83-.68,2.66-.26,5.24-.62,7.77-1.07-.19,2.11-.37,4.49-.54,7.15-.17,2.66-.32,5.4-.45,8.22-.13,2.82-.27,5.61-.42,8.36-.08,2.6-.17,5.28-.28,8.05-.11,2.77-.23,5.6-.34,8.5-.57.08-1.13.15-1.7.23-.56.08-1.13.15-1.69.23-.94.15-1.98.32-3.11.51s-2.15.36-3.05.51ZM891.99,935.92c.23,0,.65-.02,1.27-.06.62-.04,1.21-.08,1.78-.11.56-.04.9-.06,1.02-.06,0-.49.07-1.49.23-3,.15-1.51.3-3.09.45-4.75.08-.98.16-1.99.25-3.02.09-1.04.2-2.1.31-3.19l.34-4.92-.85.06-1.3,4.86-3.5,14.18Z"/>
      <path class="cls-3" d="M914.2,951.35c-2.37,0-4.31-1.11-5.82-3.33-1.51-2.22-2.26-5.27-2.26-9.15,0-3.54.49-7.03,1.47-10.48.98-3.45,2.35-6.54,4.12-9.29,1.77-2.75,3.87-4.96,6.3-6.64,2.43-1.68,5.11-2.51,8.05-2.51,1.85,0,3.43.72,4.75,2.15,1.32,1.43,1.98,3.35,1.98,5.76v1.07c0,.11-.02.25-.06.4l-7.4,1.98c-.45-.94-.98-1.41-1.58-1.41-.9,0-1.86.73-2.85,2.2-1,1.47-1.95,3.22-2.85,5.25-.6,1.36-1.14,2.75-1.61,4.18-.47,1.43-.84,2.77-1.1,4.01-.26,1.24-.4,2.26-.4,3.05,0,1.17.17,2.02.51,2.54.26.49.68.73,1.24.73s1.19-.27,1.86-.82c.68-.55,1.31-1.23,1.89-2.06.58-.83.97-1.66,1.16-2.49l6.44,2.6c-1.85,4.22-4.04,7.32-6.58,9.29-2.54,1.98-4.96,2.97-7.26,2.97Z"/>
      <path class="cls-3" d="M926.97,951.18c.64-2.22,1.27-4.75,1.89-7.57.62-2.82,1.22-5.71,1.81-8.67.58-2.96,1.14-5.75,1.67-8.39.49-2.41.96-4.86,1.41-7.34.45-2.49.9-4.99,1.36-7.51l8.81-1.41c-.49,2.52-.98,5.02-1.47,7.49-.49,2.47-.98,4.93-1.47,7.37-.53,2.64-1.07,5.42-1.64,8.36-.57,2.94-1.11,5.83-1.64,8.67-.53,2.84-1.02,5.49-1.47,7.94-.68,0-1.53.05-2.54.14-1.02.09-2.03.21-3.05.34s-1.87.25-2.57.37c-.7.11-1.06.19-1.1.23Z"/>
      <path class="cls-3" d="M948.83,951.46c-2.49,0-4.52-.96-6.1-2.88s-2.37-4.82-2.37-8.7c0-2.15.26-4.41.79-6.78.53-2.37,1.26-4.71,2.2-7.01.94-2.3,2.03-4.43,3.28-6.38,2-3.16,4.29-5.74,6.89-7.74,2.6-2,5.33-2.99,8.19-2.99,2.26,0,4,.57,5.23,1.72,1.22,1.15,2.08,2.62,2.57,4.41.49,1.79.73,3.64.73,5.57,0,4.48-.69,8.65-2.06,12.51-1.38,3.86-3.15,7.13-5.34,9.8-2.18,2.75-4.51,4.85-6.98,6.3-2.47,1.45-4.81,2.17-7.03,2.17ZM951.88,942.14c1.7,0,3.19-.56,4.49-1.69,1.3-1.13,2.4-2.57,3.31-4.32.9-1.75,1.58-3.59,2.03-5.51.45-1.92.68-3.65.68-5.2,0-.6-.06-1.25-.17-1.95-.11-.7-.36-1.31-.73-1.84s-.96-.79-1.75-.79c-1.73,0-3.3.63-4.69,1.89-1.39,1.26-2.56,2.85-3.5,4.77-.94,1.96-1.64,3.88-2.09,5.76-.45,1.88-.68,3.6-.68,5.14,0,.79.28,1.61.85,2.46.56.85,1.32,1.27,2.26,1.27Z"/>
      <path class="cls-3" d="M977.31,951.29c1.13-5.08,2.2-10.06,3.22-14.92.41-1.96.84-4.06,1.27-6.3.43-2.24.88-4.51,1.33-6.81.45-2.3.87-4.47,1.24-6.53.38-2.05.68-3.85.9-5.4,1.51-.45,3.14-.87,4.89-1.24,1.75-.38,3.32-.57,4.72-.57,2.26,0,4.05.48,5.37,1.44,1.32.96,2.26,2.25,2.83,3.87.56,1.62.85,3.39.85,5.31,0,2.11-.39,4.13-1.16,6.07-.77,1.94-1.81,3.68-3.11,5.23-1.3,1.54-2.79,2.77-4.46,3.67-1.68.9-3.42,1.36-5.23,1.36h-.62c-.3,1.28-.58,2.67-.85,4.18-.26,1.51-.49,2.9-.68,4.18-.15.75-.28,1.51-.4,2.26-.11.75-.23,1.51-.34,2.26l-9.77,1.92ZM990.47,930.55c.87-.23,1.73-.8,2.6-1.72.87-.92,1.58-2.1,2.15-3.53.56-1.43.85-2.99.85-4.69,0-1.39-.31-2.45-.93-3.16-.62-.71-1.31-1.07-2.06-1.07-.42,2.49-.83,4.84-1.24,7.06-.41,2.22-.87,4.6-1.36,7.12Z"/>
      <path class="cls-3" d="M1013.52,951.12c.08-.64.15-1.26.23-1.86.08-.6.15-1.21.23-1.81l.34-3.16c.04-.53.07-1.02.11-1.47.04-.45.08-.87.11-1.24h-4.92l-2.26,8.14c-.83.11-1.81.24-2.94.37-1.13.13-2.19.25-3.16.37-.6.08-1.2.15-1.78.23-.58.08-1.18.15-1.78.23l4.46-14.8c.53-1.77,1.13-3.79,1.81-6.05s1.37-4.58,2.06-6.95c.7-2.37,1.36-4.6,1.98-6.7.62-2.09,1.12-3.85,1.5-5.28,2.56-.19,5.17-.41,7.83-.68,2.66-.26,5.25-.62,7.77-1.07-.19,2.11-.37,4.49-.54,7.15-.17,2.66-.32,5.4-.45,8.22-.13,2.82-.27,5.61-.42,8.36-.08,2.6-.17,5.28-.28,8.05-.11,2.77-.23,5.6-.34,8.5-.56.08-1.13.15-1.69.23-.57.08-1.13.15-1.7.23-.94.15-1.98.32-3.11.51s-2.15.36-3.05.51ZM1010.98,935.92c.23,0,.65-.02,1.27-.06.62-.04,1.21-.08,1.78-.11.57-.04.9-.06,1.02-.06,0-.49.08-1.49.23-3,.15-1.51.3-3.09.45-4.75.08-.98.16-1.99.25-3.02.09-1.04.2-2.1.31-3.19l.34-4.92-.85.06-1.3,4.86-3.5,14.18Z"/>
      <path class="cls-3" d="M1023.58,951.29l2.94-14.69c.45-2.71.94-5.5,1.47-8.36s1.03-5.69,1.5-8.48c.47-2.79.84-5.4,1.1-7.85,2.15-.68,4.46-1.18,6.95-1.5,2.49-.32,4.95-.48,7.4-.48,2.86,0,4.81.62,5.85,1.87,1.04,1.24,1.55,2.92,1.55,5.03,0,1.92-.45,3.85-1.36,5.79-.9,1.94-2.08,3.69-3.53,5.25-1.45,1.56-3.04,2.8-4.77,3.7.68,1.51,1.4,3.16,2.17,4.94.77,1.79,1.5,3.49,2.18,5.11.38.94.76,1.88,1.16,2.82.4.94.78,1.88,1.16,2.83l-8.76,3.05-2.03-6.78c-.56-1.88-1.08-3.7-1.55-5.45-.47-1.75-.74-2.99-.82-3.7l-.73.23c-.11.6-.24,1.25-.37,1.95-.13.7-.27,1.46-.42,2.29s-.3,1.63-.45,2.4c-.15.77-.3,1.54-.45,2.29l-1.02,5.37-9.15,2.37ZM1036.86,926.77c.68-.07,1.52-.37,2.51-.88,1-.51,2-1.14,2.99-1.89,1-.75,1.84-1.53,2.51-2.32s1.02-1.49,1.02-2.09c0-.75-.44-1.25-1.33-1.5-.89-.25-2.04-.37-3.47-.37h-1.24c-.23.04-.43.06-.62.06h-.56l-1.81,8.98Z"/>
      <path class="cls-3" d="M1063.07,951.12c.08-.64.15-1.26.23-1.86.08-.6.15-1.21.23-1.81l.34-3.16c.04-.53.07-1.02.11-1.47.04-.45.08-.87.11-1.24h-4.92l-2.26,8.14c-.83.11-1.81.24-2.94.37-1.13.13-2.19.25-3.16.37-.6.08-1.2.15-1.78.23-.58.08-1.18.15-1.78.23l4.46-14.8c.53-1.77,1.13-3.79,1.81-6.05s1.37-4.58,2.06-6.95c.7-2.37,1.36-4.6,1.98-6.7.62-2.09,1.12-3.85,1.5-5.28,2.56-.19,5.17-.41,7.83-.68,2.66-.26,5.25-.62,7.77-1.07-.19,2.11-.37,4.49-.54,7.15-.17,2.66-.32,5.4-.45,8.22-.13,2.82-.27,5.61-.42,8.36-.08,2.6-.17,5.28-.28,8.05-.11,2.77-.23,5.6-.34,8.5-.56.08-1.13.15-1.69.23-.57.08-1.13.15-1.7.23-.94.15-1.98.32-3.11.51s-2.15.36-3.05.51ZM1060.53,935.92c.23,0,.65-.02,1.27-.06.62-.04,1.21-.08,1.78-.11.57-.04.9-.06,1.02-.06,0-.49.08-1.49.23-3,.15-1.51.3-3.09.45-4.75.08-.98.16-1.99.25-3.02.09-1.04.2-2.1.31-3.19l.34-4.92-.85.06-1.3,4.86-3.5,14.18Z"/>
      <path class="cls-3" d="M1094.2,951.35c-2.37,0-4.31-1.11-5.82-3.33-1.51-2.22-2.26-5.27-2.26-9.15,0-3.54.49-7.03,1.47-10.48.98-3.45,2.35-6.54,4.12-9.29,1.77-2.75,3.87-4.96,6.3-6.64,2.43-1.68,5.11-2.51,8.05-2.51,1.85,0,3.43.72,4.75,2.15,1.32,1.43,1.98,3.35,1.98,5.76v1.07c0,.11-.02.25-.06.4l-7.4,1.98c-.45-.94-.98-1.41-1.58-1.41-.9,0-1.86.73-2.85,2.2-1,1.47-1.95,3.22-2.85,5.25-.6,1.36-1.14,2.75-1.61,4.18-.47,1.43-.84,2.77-1.1,4.01-.26,1.24-.4,2.26-.4,3.05,0,1.17.17,2.02.51,2.54.26.49.68.73,1.24.73s1.19-.27,1.87-.82c.68-.55,1.31-1.23,1.89-2.06.58-.83.97-1.66,1.16-2.49l6.44,2.6c-1.85,4.22-4.04,7.32-6.58,9.29-2.54,1.98-4.96,2.97-7.26,2.97Z"/>
      <path class="cls-3" d="M1117.54,951.46c-2.49,0-4.52-.96-6.1-2.88-1.58-1.92-2.37-4.82-2.37-8.7,0-2.15.26-4.41.79-6.78.53-2.37,1.26-4.71,2.2-7.01.94-2.3,2.03-4.43,3.28-6.38,2-3.16,4.29-5.74,6.89-7.74,2.6-2,5.33-2.99,8.19-2.99,2.26,0,4,.57,5.23,1.72,1.22,1.15,2.08,2.62,2.57,4.41.49,1.79.73,3.64.73,5.57,0,4.48-.69,8.65-2.06,12.51-1.38,3.86-3.16,7.13-5.34,9.8-2.18,2.75-4.51,4.85-6.98,6.3-2.47,1.45-4.81,2.17-7.03,2.17ZM1120.59,942.14c1.7,0,3.19-.56,4.49-1.69,1.3-1.13,2.4-2.57,3.3-4.32.9-1.75,1.58-3.59,2.03-5.51s.68-3.65.68-5.2c0-.6-.06-1.25-.17-1.95-.11-.7-.36-1.31-.73-1.84-.38-.53-.96-.79-1.75-.79-1.73,0-3.3.63-4.69,1.89s-2.56,2.85-3.5,4.77c-.94,1.96-1.64,3.88-2.09,5.76-.45,1.88-.68,3.6-.68,5.14,0,.79.28,1.61.85,2.46.56.85,1.32,1.27,2.26,1.27Z"/>
      <path class="cls-3" d="M1135.45,951.51c1.13-5.42,2.2-10.68,3.22-15.76.83-4.78,1.64-9.38,2.43-13.79.79-4.41,1.36-8.46,1.7-12.15.26.04.5.06.71.06h1.72c.98,0,2.07-.03,3.28-.08,1.21-.06,2.32-.1,3.33-.14.26,1.32.52,2.62.76,3.9.24,1.28.46,2.52.65,3.73.19,1.05.4,2.14.62,3.25.23,1.11.45,2.23.68,3.36.19,1.13.39,2.17.59,3.14.21.96.39,1.84.54,2.63.45-2.22.88-4.41,1.27-6.55.4-2.15.78-4.09,1.16-5.82l1.64-7.57,6.89-.85c-.64,2.86-1.24,5.67-1.81,8.42-.56,2.75-1.09,5.41-1.58,7.97-.94,4.6-1.77,8.93-2.49,13-.72,4.07-1.26,7.61-1.64,10.62.41,0,.35.05-.2.14s-1.35.23-2.4.4c-1.06.17-2.19.39-3.39.65-1.21.26-2.28.58-3.22.96-.11-1.51-.23-2.98-.34-4.41-.11-1.43-.25-2.83-.4-4.18-.23-2.41-.49-4.8-.79-7.17s-.6-4.26-.9-5.65c-.26,1.66-.58,3.55-.96,5.68-.38,2.13-.79,4.27-1.24,6.41l-1.58,7.91-8.25,1.92Z"/>
      <path class="cls-3" d="M1165.79,951.29c.41-2.07.84-4.13,1.27-6.19.43-2.05.84-4.08,1.21-6.07,1.43-7.16,2.6-14.01,3.5-20.57-.42-.08-.85-.12-1.3-.14-.45-.02-.89,0-1.3.03-.9.08-1.79-.04-2.66-.34.04-.3.06-.63.06-.99v-2.32c0-.4.02-.78.06-1.16.04-.41.06-.86.06-1.33s.02-.95.06-1.44c.98.08,1.96.13,2.94.17.98.04,1.96.06,2.94.06,2.79,0,5.45-.09,7.99-.28,2.54-.19,4.89-.41,7.03-.68l-.62,3.05-.51,2.66c-.19.98-.36,1.75-.51,2.32-.41.11-.83.21-1.24.28-.42.08-.83.13-1.24.17-.42.04-.84.09-1.27.17-.43.08-.86.15-1.27.23-.56,2.79-1.03,5.2-1.38,7.23-.36,2.03-.68,3.98-.96,5.85-.28,1.86-.61,3.91-.99,6.13-.64,3.81-1.21,7.67-1.7,11.58l-10.17,1.58Z"/>
      <path class="cls-3" d="M1181.44,951.18c.53-2.18,1.05-4.66,1.58-7.43s1.05-5.64,1.58-8.62c.53-2.97,1.02-5.84,1.47-8.59.41-2.41.82-4.86,1.21-7.34.4-2.49.78-4.99,1.16-7.51l8.81-1.41-2.54,14.86c-.56,3.5-1.06,6.65-1.5,9.44-.43,2.79-.85,5.42-1.24,7.91-.4,2.49-.8,5.03-1.21,7.63-.72,0-1.58.05-2.6.14-1.02.09-2.03.21-3.05.34s-1.87.25-2.57.37c-.7.11-1.06.19-1.1.23Z"/>
      <path class="cls-3" d="M1192.85,951.51c1.13-5.42,2.2-10.68,3.22-15.76.83-4.78,1.64-9.38,2.43-13.79.79-4.41,1.36-8.46,1.7-12.15.26.04.5.06.71.06h1.72c.98,0,2.07-.03,3.28-.08,1.21-.06,2.32-.1,3.33-.14.26,1.32.52,2.62.76,3.9.24,1.28.46,2.52.65,3.73.19,1.05.4,2.14.62,3.25.23,1.11.45,2.23.68,3.36.19,1.13.39,2.17.59,3.14.21.96.39,1.84.54,2.63.45-2.22.88-4.41,1.27-6.55.4-2.15.78-4.09,1.16-5.82l1.64-7.57,6.89-.85c-.64,2.86-1.24,5.67-1.81,8.42-.56,2.75-1.09,5.41-1.58,7.97-.94,4.6-1.77,8.93-2.49,13-.72,4.07-1.26,7.61-1.64,10.62.41,0,.35.05-.2.14s-1.35.23-2.4.4c-1.06.17-2.19.39-3.39.65-1.21.26-2.28.58-3.22.96-.11-1.51-.23-2.98-.34-4.41-.11-1.43-.25-2.83-.4-4.18-.23-2.41-.49-4.8-.79-7.17s-.6-4.26-.9-5.65c-.26,1.66-.58,3.55-.96,5.68-.38,2.13-.79,4.27-1.24,6.41l-1.58,7.91-8.25,1.92Z"/>
      <path class="cls-3" d="M1227.43,952.25c-1.13,0-2.28-.25-3.45-.73-1.17-.49-2.15-1.24-2.94-2.26-.79-1.02-1.19-2.32-1.19-3.9v-.45c0-.19.02-.34.06-.45.11-.98.27-2.26.48-3.84s.46-3.3.76-5.17c.3-1.86.61-3.72.93-5.57.32-1.84.61-3.52.88-5.03.56-3.01,1.02-5.44,1.36-7.29.34-1.84.61-3.27.82-4.27s.37-1.74.48-2.23c.41-.04.86-.08,1.33-.14s.97-.1,1.5-.14c.53-.08,1.04-.13,1.55-.17.51-.04,1.01-.08,1.5-.11l3.45-.34c-.49,2.3-.95,4.47-1.38,6.53-.43,2.05-.84,4-1.21,5.85l-2.6,12.49c-.23.94-.4,1.73-.51,2.37-.15.6-.31,1.37-.48,2.29-.17.92-.25,1.76-.25,2.51,0,.6.15,1.1.45,1.5s.68.59,1.13.59c.64,0,1.17-.25,1.58-.73s.75-1.09,1.02-1.81c.26-.71.47-1.44.62-2.17s.28-1.33.4-1.78c.38-1.73.72-3.42,1.05-5.06.32-1.64.66-3.38,1.02-5.23.36-1.85.76-3.97,1.21-6.38.3-1.66.61-3.34.93-5.06s.63-3.46.93-5.23l8.59-.56c-.68,3.62-1.34,7.25-1.98,10.9-.26,1.39-.56,2.96-.88,4.69s-.67,3.48-1.04,5.25c-.38,1.77-.73,3.45-1.04,5.03-.32,1.58-.61,2.94-.88,4.07-.75,3.09-1.92,5.51-3.5,7.26-1.58,1.75-3.32,2.99-5.23,3.7s-3.72,1.07-5.45,1.07Z"/>
      <path class="cls-3" d="M1256.41,951.12c.08-.64.15-1.26.23-1.86.08-.6.15-1.21.23-1.81l.34-3.16c.04-.53.07-1.02.11-1.47.04-.45.08-.87.11-1.24h-4.92l-2.26,8.14c-.83.11-1.81.24-2.94.37-1.13.13-2.19.25-3.16.37-.6.08-1.2.15-1.78.23-.58.08-1.18.15-1.78.23l4.46-14.8c.53-1.77,1.13-3.79,1.81-6.05s1.37-4.58,2.06-6.95c.7-2.37,1.36-4.6,1.98-6.7.62-2.09,1.12-3.85,1.5-5.28,2.56-.19,5.17-.41,7.83-.68,2.66-.26,5.25-.62,7.77-1.07-.19,2.11-.37,4.49-.54,7.15-.17,2.66-.32,5.4-.45,8.22-.13,2.82-.27,5.61-.42,8.36-.08,2.6-.17,5.28-.28,8.05-.11,2.77-.23,5.6-.34,8.5-.56.08-1.13.15-1.69.23-.57.08-1.13.15-1.7.23-.94.15-1.98.32-3.11.51s-2.15.36-3.05.51ZM1253.87,935.92c.23,0,.65-.02,1.27-.06.62-.04,1.21-.08,1.78-.11.57-.04.9-.06,1.02-.06,0-.49.08-1.49.23-3,.15-1.51.3-3.09.45-4.75.08-.98.16-1.99.25-3.02.09-1.04.2-2.1.31-3.19l.34-4.92-.85.06-1.3,4.86-3.5,14.18Z"/>
      <path class="cls-3" d="M1266.47,951.29l2.94-14.69c.45-2.71.94-5.5,1.47-8.36s1.03-5.69,1.5-8.48c.47-2.79.84-5.4,1.1-7.85,2.15-.68,4.46-1.18,6.95-1.5,2.49-.32,4.95-.48,7.4-.48,2.86,0,4.81.62,5.85,1.87,1.04,1.24,1.55,2.92,1.55,5.03,0,1.92-.45,3.85-1.36,5.79-.9,1.94-2.08,3.69-3.53,5.25-1.45,1.56-3.04,2.8-4.77,3.7.68,1.51,1.4,3.16,2.17,4.94.77,1.79,1.5,3.49,2.18,5.11.38.94.76,1.88,1.16,2.82.4.94.78,1.88,1.16,2.83l-8.76,3.05-2.03-6.78c-.56-1.88-1.08-3.7-1.55-5.45-.47-1.75-.74-2.99-.82-3.7l-.73.23c-.11.6-.24,1.25-.37,1.95-.13.7-.27,1.46-.42,2.29s-.3,1.63-.45,2.4c-.15.77-.3,1.54-.45,2.29l-1.02,5.37-9.15,2.37ZM1279.75,926.77c.68-.07,1.52-.37,2.51-.88,1-.51,2-1.14,2.99-1.89,1-.75,1.84-1.53,2.51-2.32s1.02-1.49,1.02-2.09c0-.75-.44-1.25-1.33-1.5-.89-.25-2.04-.37-3.47-.37h-1.24c-.23.04-.43.06-.62.06h-.56l-1.81,8.98Z"/>
    </g>
  </g>
</svg>