<?xml version="1.0" encoding="UTF-8"?>
<svg id="Capa_2" data-name="Capa 2" xmlns="http://www.w3.org/2000/svg" xmlns:xlink="http://www.w3.org/1999/xlink" viewBox="0 0 1921 1072.5">
  <defs>
    <style>
      .cls-1 {
        stroke: #ceeae9;
        stroke-width: 5.79px;
      }

      .cls-1, .cls-2, .cls-3, .cls-4 {
        fill: none;
      }

      .cls-1, .cls-5, .cls-6, .cls-3, .cls-4, .cls-7 {
        stroke-miterlimit: 10;
      }

      .cls-8 {
        clip-path: url(#clippath-4);
      }

      .cls-9 {
        fill: #24293f;
      }

      .cls-10 {
        fill: #805b54;
      }

      .cls-11 {
        fill: #bba590;
      }

      .cls-12 {
        fill: #fff;
      }

      .cls-13 {
        fill: #89c64e;
      }

      .cls-14 {
        fill: #edf4f4;
      }

      .cls-5 {
        fill: url(#Degradado_sin_nombre_15);
      }

      .cls-5, .cls-6 {
        stroke: #7c5a2b;
      }

      .cls-5, .cls-6, .cls-7 {
        stroke-width: 7px;
      }

      .cls-15 {
        clip-path: url(#clippath-1);
      }

      .cls-16 {
        fill: #a9c245;
      }

      .cls-6 {
        fill: url(#Degradado_sin_nombre_15-2);
      }

      .cls-17 {
        fill: #75b234;
      }

      .cls-3 {
        stroke-width: 2.17px;
      }

      .cls-3, .cls-4 {
        stroke: #1d1d1b;
      }

      .cls-18 {
        clip-path: url(#clippath-3);
      }

      .cls-19 {
        fill: #1d1d1b;
      }

      .cls-20 {
        fill: #acc95b;
      }

      .cls-21 {
        fill: #9ac146;
      }

      .cls-22 {
        fill: #76b956;
      }

      .cls-4 {
        stroke-width: 1.96px;
      }

      .cls-23 {
        clip-path: url(#clippath-2);
      }

      .cls-7 {
        fill: #54af32;
        stroke: #121c30;
      }

      .cls-24 {
        fill: #f4f9d9;
      }

      .cls-25 {
        fill: #8bc146;
      }

      .cls-26 {
        fill: #d3d392;
      }

      .cls-27 {
        fill: #382c1e;
      }

      .cls-28 {
        fill: url(#Degradado_sin_nombre_30);
      }

      .cls-29 {
        fill: #f3d490;
      }

      .cls-30 {
        clip-path: url(#clippath);
      }

      .cls-31 {
        fill: #e5e6a0;
      }

      .cls-32 {
        fill: #5f8e9e;
      }
    </style>
    <clipPath id="clippath">
      <rect class="cls-2" x="4" y="1.5" width="1917" height="1071"/>
    </clipPath>
    <linearGradient id="Degradado_sin_nombre_30" data-name="Degradado sin nombre 30" x1="709.68" y1="1363.33" x2="709.68" y2="1.47" gradientUnits="userSpaceOnUse">
      <stop offset="0" stop-color="#d1fdfe"/>
      <stop offset="1" stop-color="#97ddef"/>
    </linearGradient>
    <clipPath id="clippath-1">
      <polygon class="cls-2" points="1919.37 1363.96 -500.02 1361.75 -503.39 1.16 1919.37 1.16 1919.37 1363.96"/>
    </clipPath>
    <linearGradient id="Degradado_sin_nombre_15" data-name="Degradado sin nombre 15" x1="590.72" y1="3.5" x2="590.72" y2="483.5" gradientUnits="userSpaceOnUse">
      <stop offset="0" stop-color="#d1fdfe"/>
      <stop offset=".36" stop-color="#cefbfd"/>
      <stop offset=".58" stop-color="#c6f6fb"/>
      <stop offset=".76" stop-color="#b7eff7"/>
      <stop offset=".92" stop-color="#a3e3f2"/>
      <stop offset="1" stop-color="#97ddef"/>
    </linearGradient>
    <linearGradient id="Degradado_sin_nombre_15-2" data-name="Degradado sin nombre 15" y1="543.5" y2="1023.5" xlink:href="#Degradado_sin_nombre_15"/>
    <clipPath id="clippath-2">
      <polygon class="cls-2" points="1177 1023.5 4.44 1023.5 4.64 543.5 1176.59 543.5 1177 1023.5"/>
    </clipPath>
    <clipPath id="clippath-3">
      <rect class="cls-2" x="736" y="39.5" width="1185" height="1033"/>
    </clipPath>
    <clipPath id="clippath-4">
      <path class="cls-2" d="M1306.92,1597.34c-639.97-38.93-269.96-673.25-185.32-787.29,41.45-55.84,75.01-150.87,77.02-231.13,16.09,9.84,53.72,29.85,105.57,30.53,54.97.71,94.91-20.73,110.94-30.53-.84,83.32,33.84,172.84,77.11,231.13,84.64,114.04,454.65,748.36-185.32,787.29Z"/>
    </clipPath>
  </defs>
  <g id="Capa_1-2" data-name="Capa 1">
    <g>
      <g class="cls-30">
        <g>
          <polygon class="cls-28" points="1921.07 1363.33 -501.7 1363.33 -501.29 1.47 1920.22 1.47 1921.07 1363.33"/>
          <path class="cls-14" d="M441.48,1259.03c0-33.06-59.55-61.28-143.41-72.43,1.78-2.89,2.72-5.87,2.72-8.92,0-17.46-30.47-32.7-75.81-40.92.7-2.11,1.07-4.26,1.07-6.44,0-30.8-71.85-55.76-160.47-55.76-25.24,0-49.11,2.03-70.36,5.63-.61-34.8-68.28-62.93-151.66-62.93-56.86,0-106.41,13.08-132.38,32.44-34.81-10.58-83.77-17.16-138.01-17.16-24,0-46.98,1.29-68.15,3.65v104.22s0,0,.01,0h-.01s-6.15,223.86-6.15,223.86l882.31-2.72-22.23-42.32c50.35-14.22,82.53-35.9,82.53-60.2Z"/>
          <path class="cls-14" d="M514.87,183.87c0-14.29-81.64-25.87-182.34-25.87-35.74,0-69.07,1.46-97.2,3.98-25.73-17.29-80.17-29.22-143.18-29.22-87.81,0-158.99,23.16-158.99,51.74,0,9.48,7.85,18.37,21.54,26.01-64.73,3.84-113.66,21.52-113.66,42.76,0,24.04,62.71,43.53,140.07,43.53,58.54,0,108.68-11.16,129.62-27.01,35.38,2.74,75.63,4.3,118.34,4.3,141.12,0,255.53-16.95,255.53-37.86,0-11.24-33.09-21.34-85.61-28.27,67.85-3.77,115.9-13.14,115.9-24.1Z"/>
          <g class="cls-15">
            <path class="cls-14" d="M1919.37,919.62c-54.77-12.36-148.8-3.81-209.12,18.89-66.01-69.45-293.73-55.12-292.98,43,0,.08,0,.16,0,.25-97.63-19.66-237.54,3.29-236.42,68.85-.05,3.29.25,6.47.89,9.55-44.97,9.72-78.13,28.51-77.44,56.37-.12,5.02.87,9.74,2.81,14.17-81.97,12.85-147.82,45.87-146.91,99.05-.64,38.66,33.99,66.66,84.44,84.01l-32.65,85.54,907.4-43.58v-291.03h0s0,0,0,0v-145.04Z"/>
          </g>
          <path class="cls-14" d="M1558.58,246.97c52.57-6.6,85.72-16.49,85.79-27.73.13-20.91-114.16-38.57-255.28-39.46-42.71-.27-82.97,1.03-118.36,3.56-20.84-15.98-70.91-27.46-129.44-27.82-77.35-.49-140.19,18.61-140.34,42.65-.13,21.24,48.68,39.22,113.39,43.47-13.74,7.56-21.64,16.39-21.7,25.88-.18,28.57,70.86,52.18,158.67,52.73,63,.4,117.52-11.19,143.36-28.32,28.12,2.7,61.44,4.37,97.18,4.59,100.7.63,182.41-10.44,182.5-24.72.07-10.96-47.92-20.63-115.74-24.82Z"/>
          <path class="cls-14" d="M1919.82,502.29c-54.77-10.46-148.8-3.22-209.12,15.99-66.01-58.78-293.73-46.64-292.98,36.39,0,.07,0,.14,0,.21-97.63-16.64-237.54,2.79-236.42,58.27-.05,2.78.25,5.48.89,8.08-44.97,8.23-78.13,24.13-77.44,47.7-.12,4.25.87,8.24,2.81,11.99-81.97,10.88-147.82,38.81-146.91,83.82-.64,32.72,33.99,56.41,84.44,71.09l-32.65,72.39,907.4-36.88v-246.29h0s0,0,0,0v-122.74Z"/>
          <path class="cls-14" d="M1548.98,240.89c52.57-5.59,85.72-13.96,85.79-23.47.13-17.69-114.16-32.64-255.28-33.39-42.71-.23-82.97.88-118.36,3.01-20.84-13.52-70.91-23.24-129.44-23.55-77.35-.41-140.19,15.75-140.34,36.1-.13,17.97,48.68,33.19,113.39,36.79-13.74,6.4-21.64,13.87-21.7,21.9-.18,24.18,70.86,44.16,158.67,44.63,63,.33,117.52-9.47,143.36-23.96,28.12,2.28,61.44,3.69,97.18,3.88,100.7.53,182.41-8.83,182.5-20.92.07-9.28-47.92-17.46-115.74-21.01Z"/>
          <path class="cls-14" d="M459.4,900.89c0-46.01-61.07-85.28-147.05-100.8,1.82-4.02,2.79-8.17,2.79-12.41,0-24.29-31.24-45.51-77.74-56.94.72-2.94,1.1-5.93,1.1-8.97,0-42.86-73.67-77.6-164.55-77.6-25.88,0-50.36,2.82-72.15,7.84-.63-48.42-70.01-87.57-155.52-87.57-58.31,0-109.12,18.21-135.75,45.14-35.69-14.72-85.9-23.88-141.52-23.88-24.62,0-48.17,1.8-69.88,5.08v145.04s0,0,.01,0h-.01v291.04l908.43,43.58-32.78-85.78c51.63-19.78,84.63-49.96,84.63-83.78Z"/>
          <polygon class="cls-16" points="1921.48 1356.53 -501.31 1356.53 -502.03 864.4 1922 864.4 1921.48 1356.53"/>
          <path class="cls-32" d="M1021.03,1072.28l-23.51-33.14c-7.29-1.24-15.43-2.52-20.65-2.97-6.52-.56,4.44-3.05,14.95-5.07l-3.76-5.3-38.95-5.24h35.23l-3.69-5.2-50.47-23.1h34.08l-6.79-9.58c-18.15-7.96-41.68-18.34-46.21-20.68-4.71-2.43,18.87,3.44,37.39,8.23l-5.84-8.23h634.71l-89.59-97.6H-123.47l-95.9,99.55h776.04l-13.9,21.29,35.35-7.63-44.36,21.45-1.93,2.95h62.7l-58.05,14.64,34.07,11.71-51.74,2.93-6.82,1.12-22.2,34.02-991.82,3.9.74,293.95H1921.48l-.74-292h-899.71Z"/>
          <path class="cls-21" d="M1849.51,928.54c71.23-32.1,63.66-27.09-28.46-41.13-92.12-14.05-282.66-11.04-271.3,9.03,11.36,20.07,17.67,54.18,76.97,65.21,57.55,10.71-71.93,17.06-205.68,23.08,0,0,75.71,18.06-88.33,20.07-164.04,2.01-263.73-23.08-283.92-2.01s-122.4,13.04,2.52,27.09c124.92,14.05,167.83,22.07,123.66,25.08-44.17,3.01-132.5,14.05,15.14,13.04,147.64-1,437.86,8.03,466.89,0,29.02-8.03-60.57-11.04,8.83-18.06,69.4-7.02,225.87-6.02,229.66-25.08s-10.09-17.06-32.81-55.18c-22.71-38.12-84.41-9.03-13.18-41.13ZM1586.35,1023.85c-12.62,8.03-23.98,7.02-126.19,1-102.21-6.02-2.52-3.01,60.57-9.03,63.09-6.02-3.79-5.02-39.12-13.04-35.33-8.03,50.47-4.01,50.47-4.01,41.64-10.03,42.9-3.01,7.57,2.01-35.33,5.02-3.79,4.01,32.81,6.02,36.59,2.01,26.5,9.03,13.88,17.06Z"/>
          <path class="cls-21" d="M112.5,979.23s-208.21,8.83-172.87,25.24c35.33,16.4,32.81-3.79,165.3,12.62,132.5,16.4,170.35,64.35,222.09,36.59,51.74-27.76,182.97-73.19,21.45-60.57s-282.66,13.88-205.68,1.26c76.97-12.62,175.4-34.07-30.28-15.14Z"/>
          <path class="cls-21" d="M1649.44,1019.61s53,29.02,42.9,35.33c-10.09,6.31-7.57,7.57,61.83,2.52,69.4-5.05,136.28-21.45,69.4-23.98"/>
          <path class="cls-1" d="M766.63,941.24c114.64,0,207.58-33.76,207.58-75.4,0-.11,0-.21-.01-.32h-415.13c0,.11-.01.21-.01.32,0,41.64,92.93,75.4,207.58,75.4Z"/>
          <path class="cls-1" d="M767.26,895.81c49.48,0,88.33-24.45,89.59-30.28h-179.18c-1.26,5.84,40.11,30.28,89.59,30.28Z"/>
          <ellipse class="cls-14" cx="763.27" cy="732.63" rx="206.94" ry="30.92"/>
          <ellipse class="cls-14" cx="763.27" cy="733.89" rx="206.94" ry="30.92"/>
          <ellipse class="cls-14" cx="763.27" cy="735.15" rx="206.94" ry="30.92"/>
          <ellipse class="cls-14" cx="763.27" cy="736.42" rx="206.94" ry="30.92"/>
          <ellipse class="cls-14" cx="763.27" cy="737.68" rx="206.94" ry="30.92"/>
          <ellipse class="cls-14" cx="763.27" cy="738.94" rx="206.94" ry="30.92"/>
          <ellipse class="cls-14" cx="763.27" cy="740.2" rx="206.94" ry="30.92"/>
          <ellipse class="cls-14" cx="763.27" cy="741.46" rx="206.94" ry="30.92"/>
          <ellipse class="cls-14" cx="763.27" cy="742.73" rx="206.94" ry="30.92"/>
          <ellipse class="cls-14" cx="763.27" cy="743.99" rx="206.94" ry="30.92"/>
          <ellipse class="cls-14" cx="763.27" cy="745.25" rx="206.94" ry="30.92"/>
          <ellipse class="cls-14" cx="763.27" cy="746.51" rx="206.94" ry="30.92"/>
          <ellipse class="cls-14" cx="763.27" cy="747.77" rx="206.94" ry="30.92"/>
          <ellipse class="cls-14" cx="763.27" cy="749.04" rx="206.94" ry="30.92"/>
          <ellipse class="cls-14" cx="763.27" cy="750.3" rx="206.94" ry="30.92"/>
          <ellipse class="cls-14" cx="763.27" cy="751.56" rx="206.94" ry="30.92"/>
          <ellipse class="cls-14" cx="763.27" cy="752.82" rx="206.94" ry="30.92"/>
        </g>
      </g>
      <path class="cls-21" d="M72.72,39.31s150.91,0,89.26,23.67c-61.65,23.67-101.57,30.76-41.58,61.53,59.99,30.76,149.24,56.8,66.43,85.19-82.82,28.4-146.31,54.43-32.21,63.9,114.1,9.47,229.12,73.36,136.19,87.56-92.94,14.2-162.87-9.47-92.02,16.57,70.85,26.03,138.03,47.33-11.96,35.5-149.99-11.83-242.93-42.6-149.07-52.06,93.86-9.47,186.79-9.47,116.86-37.86-69.93-28.4-142.63-75.73-97.54-106.49,45.09-30.76,102.14-49.7,47.85-78.09C50.64,110.31,9.23,67.71,48.8,62.98c39.57-4.73,114.1,11.83,23.92-23.67Z"/>
      <polygon class="cls-5" points="1177 483.5 4.44 483.5 4.64 3.5 1176.59 3.5 1177 483.5"/>
      <rect class="cls-11" x="7" y="188.3" width="1166" height="295.2"/>
      <path class="cls-20" d="M341,402.5c-.29.16-.57.32-.85.49-.27-3.02.85-.49.85-.49Z"/>
      <path class="cls-17" d="M699,348.5s19.65,6.57,20.83,12.29-12.83,10.71,4.17,12.71,30,0,28,7-11,5-18,14-21,8-37,7-12.87-9.34-7.43-9.67,16.22-12.14,7.83-13.73c-8.39-1.6-38.91-8.87-27.65-13.73,11.26-4.86,29.26-15.86,29.26-15.86Z"/>
      <path class="cls-13" d="M465,333.5c-2,0-116,5-107,11s53,17-1,16-99-16-117-5,22,14-16,17-64.14-14-54.57,3.5-20.43,23.5,20.57,21.5,42-7,59-11,38.7-3.1,55.85,6.95c17.15,10.05,41.8,16.03,55.98,9.54,14.17-6.49-11.83-14.49,21.17-17.49s53.61,5.57,90.81-.22c37.19-5.78,107.37-18.25,50.28-24.01-57.09-5.77-66.39,18.43-77.74,8.33s53.04-24.29,20.35-33.7"/>
      <path class="cls-20" d="M7,188.3v295.2h1166V188.3H7ZM753,404.5l-36.92,10-41.17-21.05-1.91,22.05-11-18,3.06,19.61-18.06-19.61,3.11,22.74-5.11-11.74-5,10-8.39-25.05-15.61,22.09v-12.04l-19.15,16.22-3.85-26.27-16,21.05-5-10-3.07,16.26-36.93-18.26-12,20-12-19-12,26-12-24-6.83,21-9.17-17c-6,12-14,17-14,17,1-7-4.33-14.09-4.33-14.09-2.34,14.92-15.67,16.09-15.67,16.09-3-14-13-21-13-21,3,11-13,24-13,24l-20-31-13.09,15-6.91-16-11.35,16c-13.35-1-15.65-7.26-15.65-7.26-.51-2.58-.76-4.23-.85-5.25-8.53,5.01-14.15,12.51-14.15,12.51l-21.15-22.05-8.2,19.05-2.65-7-27,7,14.46-25.67-59.68,17.67,1.22-26-15,26-50.39-11.05,10.39-27.95-20.83,17.67,37.57-59.22-19.31,1.14,55.57-25.59-63,2,14-17.43,68,.43,9,14,7,13,11-13,18,16,.7-18.46,16.3,9.46,2.85-9.46,30.93,22,6.22-26.54,42.3,26.54,16.7-28.54,48.67,24.3v-17.76l14.33,9.46,12-20,218,23,34-23-2,18,19.35-7.46-9.35,25.46,18.22,2.45-24.22,19.55,28,2-3.26,15.77,17.74,21.9-32.48,2.33,13,19Z"/>
      <g>
        <rect class="cls-26" x="471.76" y="139.48" width="230.9" height="254.71" transform="translate(324.8 856.03) rotate(-90.43)"/>
        <ellipse class="cls-31" cx="587.34" cy="146.72" rx="128.39" ry="25.89" transform="translate(-1.09 4.43) rotate(-.43)"/>
        <ellipse class="cls-27" cx="587.34" cy="146.72" rx="53.92" ry="10.87" transform="translate(-1.09 4.43) rotate(-.43)"/>
        <path class="cls-26" d="M449.67,361.36s-3.16,14.4-3.48,16.62c-.31,2.23-12.26,10.22-12.26,10.22l-118.15.63-155.75-9.09,9.4-3.74,12.81-.26,15.19,2.69-20.64-5.36,6.21-2.48c2.3,1.38,4.1,2.49,4.1,2.49l5.86.26s-2.62-2.2-5.2-4.63l3.87-1.55,258.03-5.8Z"/>
        <path class="cls-13" d="M523.43,241.98s-32.7-17.5-24.7,2.5,29.23,11.87,6.62,29.43c-22.62,17.57-39.62,16.57-29.62,29.57s-3.35,19.07,14.83,19.54c18.17.46,25.17,3.46,31.17-4.54s-24.7-4.91,12.65-19.95c37.35-15.05,14.35-1.05,55.35-30.05,41-29,113.22-30,51.11-41-62.11-11-84.11-16-93.11-7s-11.26,26-8.13,32-16.17-10.5-16.17-10.5Z"/>
        <path class="cls-24" d="M715.42,381.32s-24.3.07-58.18,1.14c-6.41.2-13.15.43-20.15.7-29.51,1.17-63.36,3.08-94.03,6.18-76.36,7.72-249.6,2.76-227.28-.52,31.24-4.58,94.06-11,150.26-33.54,40.28-16.14,87.43-52.02,129.81-89.6,56.13-49.75,103.91-102.51,116.29-116.42,2.04-2.29,3.11-3.52,3.11-3.52l.12,169.43.03,46.13.02,20.01Z"/>
        <path class="cls-13" d="M715.62,361.32c-.07,0-.15-.02-.22-.01-12.66-.94-28.94,2.49-48.86,15.47-3.46,2.26-6.54,4.14-9.3,5.68-6.41.2-13.15.43-20.15.7.71-9.89,14.99-30.37,18.9-33.04,6.92-4.75,36.67-11.45,27.29-19.37-9.38-7.9-22.87-12.19-43.48,1.12-20.61,13.33-49.3,4.24-54.4-5.57-3.87-7.45,6.98-29.68,17.38-29.27,22.16.89,28.56,11.36,83.52,22.92,54.97,11.55,7.7-8.44-22.39-17.8-30.1-9.35-17.42-32.27-6.47-34.67,12.21-2.68,18.16,5.85,39.53,24.44,6.56,5.71,13.04,7.02,18.33,5.53.02,6.05.05,11.97.07,17.71.08,18.41.18,34.78.25,46.14Z"/>
        <path class="cls-13" d="M714.91,264.52c-14.6-12.65-18.72,19.71-42.8,1.1-26.55-20.51,12.88-8.37,14.78-31.17,1.9-22.8-23.38-10.69-41.78,19.99-11.76,19.61-33.82,18.59-48.25,11.25,56.13-49.75,103.91-102.51,116.29-116.42,1.97,1.26,3.65,2.94,2.65,4.72-.89,1.61-1.02,53.28-.88,110.53Z"/>
      </g>
      <g>
        <rect class="cls-26" x="1587.66" y="379.96" width="230.9" height="254.71" transform="translate(3479.22 449.11) rotate(161.54)"/>
        <ellipse class="cls-31" cx="1588.86" cy="544.37" rx="25.89" ry="128.39" transform="translate(-90.62 531.23) rotate(-18.46)"/>
        <ellipse class="cls-27" cx="1588.86" cy="544.37" rx="10.87" ry="53.92" transform="translate(-90.62 531.23) rotate(-18.46)"/>
        <path class="cls-26" d="M1813.74,578.46s14.35,3.35,16.57,3.7c2.22.34,10.05,12.33,10.05,12.33l-1.05,117.44-11.3,154.66-3.6-9.4-.08-12.73,2.91-15.06-5.66,20.43-2.39-6.21c1.41-2.27,2.55-4.04,2.55-4.04l.34-5.82s-2.24,2.57-4.7,5.1l-1.49-3.87-2.13-256.54Z"/>
        <path class="cls-13" d="M1699.22,575.65s-6.52,36.51,10.02,22.71c16.54-13.8,2.24-31.47,25.94-15.4,23.7,16.07,28.02,32.54,37.28,19.01,9.27-13.53,19.17-2.72,13.99-20.15-5.19-17.42-4.5-25.01-13.96-28.24-9.46-3.23,2.98,25-22.89-5.85-25.87-30.86-5.44-13.32-45.7-43.33-40.27-30.01-63.57-98.37-54.81-35.91s10.82,84.93,22.17,90.7c11.34,5.77,28.21,2.66,32.95-2.17s-4.98,18.63-4.98,18.63Z"/>
        <path class="cls-24" d="M1772.29,349.95s7.59,23.08,19.1,54.97c2.17,6.03,4.48,12.37,6.91,18.95,10.25,27.7,21.16,59.94,34.98,87.5,46.73,93.14,5.75,357.35-4.27,337.14-14.03-28.29,34.56-206.89-4.27-253.36-27.82-33.3-76.53-67.03-125.38-95.7-64.68-37.97-129.64-67.07-146.7-74.54-2.81-1.23-4.31-1.87-4.31-1.87l161.07-52.56,43.85-14.31,19.02-6.21Z"/>
        <path class="cls-13" d="M1753.21,355.95c.02.07.03.15.06.21,3.03,12.33,11.32,26.75,29.84,41.67,3.21,2.59,5.96,4.94,8.28,7.08,2.17,6.03,4.48,12.37,6.91,18.95-9.62,2.39-33.52-4.85-37.27-7.75-6.66-5.11-22.24-31.32-26.86-19.95-4.61,11.37-4.51,25.52,14.53,40.99,19.05,15.47,19.3,45.57,11.54,53.46-5.89,5.99-30.39,2.55-33.21-7.47-6.02-21.35,1.96-30.68-4.06-86.52-6.03-55.85-10.41-4.71-9.99,26.8.43,31.51-25.29,26.55-30.96,16.88-6.33-10.79-.06-19.08,11.01-45.15,3.4-8,2.64-14.58-.42-19.14,5.74-1.9,11.37-3.75,16.82-5.55,17.48-5.78,33.02-10.94,43.8-14.52Z"/>
        <path class="cls-13" d="M1661.38,386.6c-7.51,17.8,24.53,11.7,14.3,40.36-11.28,31.6-11.95-9.66-34.21-4.41-22.27,5.25-2.93,25.54,31.94,33.54,22.28,5.12,28.15,26.4,25.63,42.4-64.68-37.97-129.64-67.07-146.7-74.54.59-2.27,1.66-4.38,3.66-3.98,1.81.35,50.98-15.52,105.38-33.38Z"/>
      </g>
      <path class="cls-25" d="M81,426.5l-77-26,68,12-62-44,57,16s-41-73-48-87,81,77,82,79l8-74,10,72,37.11-30.4-27.11,52.4,43,10-47.98,20"/>
      <path class="cls-25" d="M936,448.5l77-26-68,12,62-44-57,16s41-73,48-87c7-14-81,77-82,79l-8-74-10,72-37.11-30.4,27.11,52.4-43,10,47.98,20"/>
      <path class="cls-25" d="M1078,243.5l-77-26,68,12-62-44,57,16s-41-73-48-87,81,77,82,79l8-74,10,72,37.11-30.4-27.11,52.4,43,10-47.98,20"/>
      <path class="cls-25" d="M237,225.5l-77-26,68,12-31-40,26,12s17-71,10-85c-7-14,23,75,24,77l51-70-36,79,50-24-48,48,54-3-47.98,20"/>
      <path class="cls-20" d="M341,402.5c-.29.16-.57.32-.85.49-.27-3.02.85-.49.85-.49Z"/>
      <polygon class="cls-6" points="1177 1023.5 4.44 1023.5 4.64 543.5 1176.59 543.5 1177 1023.5"/>
      <rect class="cls-11" x="7" y="746.3" width="1166" height="295.2"/>
      <path class="cls-20" d="M341,960.5c-.29.16-.57.32-.85.49-.27-3.02.85-.49.85-.49Z"/>
      <path class="cls-17" d="M699,906.5s19.65,6.57,20.83,12.29c1.17,5.71-12.83,10.71,4.17,12.71s30,0,28,7-11,5-18,14-21,8-37,7-12.87-9.34-7.43-9.67c5.43-.33,16.22-12.14,7.83-13.73s-38.91-8.87-27.65-13.73,29.26-15.86,29.26-15.86Z"/>
      <path class="cls-13" d="M465,891.5c-2,0-116,5-107,11s53,17-1,16-99-16-117-5,22,14-16,17-64.14-14-54.57,3.5-20.43,23.5,20.57,21.5,42-7,59-11,38.7-3.1,55.85,6.95c17.15,10.05,41.8,16.03,55.98,9.54,14.17-6.49-11.83-14.49,21.17-17.49s53.61,5.57,90.81-.22c37.19-5.78,107.37-18.25,50.28-24.01-57.09-5.77-66.39,18.43-77.74,8.33-11.35-10.1,53.04-24.29,20.35-33.7"/>
      <path class="cls-20" d="M7,746.3v295.2h1166v-295.2H7ZM753,962.5l-36.92,10-41.17-21.05-1.91,22.05-11-18,3.06,19.61-18.06-19.61,3.11,22.74-5.11-11.74-5,10-8.39-25.05-15.61,22.09v-12.04l-19.15,16.22-3.85-26.27-16,21.05-5-10-3.07,16.26-36.93-18.26-12,20-12-19-12,26-12-24-6.83,21-9.17-17c-6,12-14,17-14,17,1-7-4.33-14.09-4.33-14.09-2.34,14.92-15.67,16.09-15.67,16.09-3-14-13-21-13-21,3,11-13,24-13,24l-20-31-13.09,15-6.91-16-11.35,16c-13.35-1-15.65-7.26-15.65-7.26-.51-2.58-.76-4.23-.85-5.25-8.53,5.01-14.15,12.51-14.15,12.51l-21.15-22.05-8.2,19.05-2.65-7-27,7,14.46-25.67-59.68,17.67,1.22-26-15,26-50.39-11.05,10.39-27.95-20.83,17.67,37.57-59.22-19.31,1.14,55.57-25.59-63,2,14-17.43,68,.43,9,14,7,13,11-13,18,16,.7-18.46,16.3,9.46,2.85-9.46,30.93,22,6.22-26.54,42.3,26.54,16.7-28.54,48.67,24.3v-17.76l14.33,9.46,12-20,218,23,34-23-2,18,19.35-7.46-9.35,25.46,18.22,2.45-24.22,19.55,28,2-3.26,15.77,17.74,21.9-32.48,2.33,13,19Z"/>
      <g>
        <rect class="cls-26" x="471.76" y="697.48" width="230.9" height="254.71" transform="translate(-233.18 1418.24) rotate(-90.43)"/>
        <ellipse class="cls-31" cx="587.34" cy="704.72" rx="128.39" ry="25.89" transform="translate(-5.29 4.45) rotate(-.43)"/>
        <ellipse class="cls-27" cx="587.34" cy="704.72" rx="53.92" ry="10.87" transform="translate(-5.29 4.45) rotate(-.43)"/>
        <path class="cls-26" d="M449.67,919.36s-3.16,14.4-3.48,16.62c-.31,2.23-12.26,10.22-12.26,10.22l-118.15.63-155.75-9.09,9.4-3.74,12.81-.26,15.19,2.69-20.64-5.36,6.21-2.48c2.3,1.38,4.1,2.49,4.1,2.49l5.86.26s-2.62-2.2-5.2-4.63l3.87-1.55,258.03-5.8Z"/>
        <path class="cls-13" d="M523.43,799.98s-32.7-17.5-24.7,2.5,29.23,11.87,6.62,29.43-39.62,16.57-29.62,29.57-3.35,19.07,14.83,19.54,25.17,3.46,31.17-4.54-24.7-4.91,12.65-19.95,14.35-1.05,55.35-30.05,113.22-30,51.11-41c-62.11-11-84.11-16-93.11-7s-11.26,26-8.13,32-16.17-10.5-16.17-10.5Z"/>
        <path class="cls-24" d="M715.42,939.32s-24.3.07-58.18,1.14c-6.41.2-13.15.43-20.15.7-29.51,1.17-63.36,3.08-94.03,6.18-76.36,7.72-249.6,2.76-227.28-.52,31.24-4.58,94.06-11,150.26-33.54,40.28-16.14,87.43-52.02,129.81-89.6,56.13-49.75,103.91-102.51,116.29-116.42,2.04-2.29,3.11-3.52,3.11-3.52l.12,169.43.03,46.13.02,20.01Z"/>
        <path class="cls-13" d="M715.62,919.32c-.07,0-.15-.02-.22-.01-12.66-.94-28.94,2.49-48.86,15.47-3.46,2.26-6.54,4.14-9.3,5.68-6.41.2-13.15.43-20.15.7.71-9.89,14.99-30.37,18.9-33.04,6.92-4.75,36.67-11.45,27.29-19.37-9.38-7.9-22.87-12.19-43.48,1.12-20.61,13.33-49.3,4.24-54.4-5.57-3.87-7.45,6.98-29.68,17.38-29.27,22.16.89,28.56,11.36,83.52,22.92,54.97,11.55,7.7-8.44-22.39-17.8-30.1-9.35-17.42-32.27-6.47-34.67,12.21-2.68,18.16,5.85,39.53,24.44,6.56,5.71,13.04,7.02,18.33,5.53.02,6.05.05,11.97.07,17.71.08,18.41.18,34.78.25,46.14Z"/>
        <path class="cls-13" d="M714.91,822.52c-14.6-12.65-18.72,19.71-42.8,1.1-26.55-20.51,12.88-8.37,14.78-31.17,1.9-22.8-23.38-10.69-41.78,19.99-11.76,19.61-33.82,18.59-48.25,11.25,56.13-49.75,103.91-102.51,116.29-116.42,1.97,1.26,3.65,2.94,2.65,4.72-.89,1.61-1.02,53.28-.88,110.53Z"/>
      </g>
      <path class="cls-25" d="M81,984.5l-77-26,68,12-62-44,57,16s-41-73-48-87,81,77,82,79l8-74,10,72,37.11-30.4-27.11,52.4,43,10-47.98,20"/>
      <path class="cls-25" d="M936,1006.5l77-26-68,12,62-44-57,16s41-73,48-87c7-14-81,77-82,79l-8-74-10,72-37.11-30.4,27.11,52.4-43,10,47.98,20"/>
      <path class="cls-25" d="M1078,801.5l-77-26,68,12-62-44,57,16s-41-73-48-87,81,77,82,79l8-74,10,72,37.11-30.4-27.11,52.4,43,10-47.98,20"/>
      <path class="cls-25" d="M237,783.5l-77-26,68,12-31-40,26,12s17-71,10-85c-7-14,23,75,24,77l51-70-36,79,50-24-48,48,54-3-47.98,20"/>
      <path class="cls-20" d="M341,960.5c-.29.16-.57.32-.85.49-.27-3.02.85-.49.85-.49Z"/>
      <g class="cls-23">
        <path class="cls-22" d="M368.24,940.77c9.12-1.77,70.04-14.67,103.07-73.32,41.19-73.15-.04-148.14-2.07-151.7-91.5-41.78-189.22-83.3-293.03-123.45-107.44-41.56-211.03-77.64-309.86-109.05-22.35,13.27-35.9,37.57-35.27,63.38.93,37.74,31.68,57.62,33.95,59.03,77.82,45.16,158.49,94.84,241.22,149.49,94.12,62.17,181.4,124.48,261.98,185.62Z"/>
      </g>
      <g class="cls-18">
        <g>
          <ellipse class="cls-10" cx="1303.93" cy="1067.67" rx="453.57" ry="498.75"/>
          <path class="cls-22" d="M1565.79,448.15c-94.58,17.89-141.38,84.22-157.36,162.3-17.68,6.58-61.03,19.97-114.93,8.76-50.26-10.45-80.65-27.48-94.9-40.4,14.54-78.51-6.65-166.94-87.78-219.02,0,0-36.52-26.69,4.01-63.61,40.55-36.92,104.21-146.32,267.48-118.82,161.72,35.61,179.8,160.89,203.57,210.3,23.79,49.41-20.09,60.49-20.09,60.49Z"/>
          <path class="cls-22" d="M1426.17,881c-9.54-20.69-7.26-44.89,6.01-63.09,19.41-26.61,51.47-25.5,53.82-25.37,78.6,6.5,161.5,11.18,248.36,13.33,10.69.26,21.32.48,31.9.66,14.88,21.69,21.78,45.5,18.3,69.36-5.28,36.19-33.39,65.45-74.29,83.24-2.09-.51-4.18-1-6.27-1.51-98.19-23.88-190.89-49.77-277.82-76.63Z"/>
          <path class="cls-22" d="M1791.38,909.34c-.66,4.19-1.33,8.36-2,12.54-26.97,25.22-58.74,38.59-91.39,35.27-21.52-2.19-41.22-11.41-58.25-26.06-.63-13.09-1.33-26.26-2.09-39.52-5.69-98.68-14.5-192.21-25.36-280.14,5.34-6.17,41.81-46.88,100.62-46.44,73.34.55,111.93,64.59,113.72,67.69-8.56,87.8-20.05,180.21-35.24,276.66Z"/>
          <ellipse class="cls-12" cx="1538.01" cy="275.35" rx="108.24" ry="63.97" transform="translate(974.5 1732.66) rotate(-79.01)"/>
          <ellipse class="cls-9" cx="1541.09" cy="278.69" rx="40.21" ry="33.06" transform="translate(973.71 1738.39) rotate(-79.01)"/>
          <ellipse class="cls-12" cx="1528.94" cy="235.38" rx="24.55" ry="20.19" transform="translate(1006.4 1691.4) rotate(-79.01)"/>
          <path class="cls-29" d="M1421.4,1582.28c-12.43,2.71-25.41,5.12-38.96,7.22-1.93.3-3.87.58-5.83.88-1.94.28-3.91.56-5.91.82-19.76,2.73-40.68,4.79-62.79,6.13-639.82-39-269.84-673.24-185.21-787.28,43.2-58.2,77.88-147.56,77.13-230.76,16.45,9.96,53.9,29.48,105.23,30.15,55.06.73,95.06-20.68,111.16-30.51-.84,83.3,33.86,172.83,77.11,231.12,79.1,106.54,407.28,667.3-71.94,772.23Z"/>
          <path class="cls-29" d="M1307.9,1597.33h-.11c-641.48-38.92-270.6-673.24-185.77-787.28,41.56-55.84,75.21-150.88,77.21-231.14.19.11.39.24.6.37.75,83.21-33.93,172.57-77.13,230.76-84.63,114.04-454.61,748.28,185.21,787.28Z"/>
          <path class="cls-29" d="M1421.4,1582.28c479.21-104.93,151.03-665.69,71.94-772.23-43.26-58.29-77.96-147.82-77.11-231.12.02,0,.02-.02.04-.02-.84,83.32,33.93,172.85,77.3,231.14,79.26,106.56,408.25,667.32-72.16,772.23Z"/>
          <ellipse class="cls-12" cx="1302.76" cy="224.83" rx="103.48" ry="63.97" transform="translate(833.7 1460.83) rotate(-79.01)"/>
          <path class="cls-4" d="M1604.89,1010.05c-59.67,32.79-171.26,82.48-315.65,78.65-127.49-3.37-222.49-47.72-279.98-79.34"/>
          <path class="cls-3" d="M1449.11,735.57c-73.12,32.79-216.54,32.69-292.33,13.62"/>
          <ellipse class="cls-9" cx="1300.98" cy="232.06" rx="40.21" ry="33.06" transform="translate(825.15 1464.94) rotate(-79.01)"/>
          <path class="cls-22" d="M864.65,1174.16c-7.88.1-60.66-.14-98.22-43.12-46.83-53.6-25.59-122.88-24.51-126.18,68.71-50.37,142.62-101.58,221.83-152.71,81.97-52.92,161.7-100.64,238.28-143.66,20.84,7.17,36.29,25,40.23,46.52,5.76,31.46-16.32,53.23-17.97,54.8-56.77,50.82-115.12,105.88-174.33,165.42-67.36,67.73-129.01,134.4-185.31,198.95Z"/>
          <ellipse class="cls-12" cx="1288.83" cy="188.74" rx="24.55" ry="20.19" transform="translate(857.84 1417.95) rotate(-79.01)"/>
          <g class="cls-8">
            <path class="cls-2" d="M1672.45,1002.52c-38.26,30.92-168.12,127.98-360.39,130.29-200.96,2.42-337.26-100.27-374.42-130.29"/>
            <path class="cls-2" d="M1672.45,692.19c-38.76,30.57-171.71,127.65-367.4,127.65-195.69,0-328.65-97.07-367.41-127.65"/>
          </g>
          <path class="cls-19" d="M1267.83,379.24c2.2,3.05,6.01,4.07,9.55,4.56,3.6.48,7.26.52,10.91.57,3.66.05,7.33.09,11.01.4,5.52.46,11.22,1.55,16.14,4.33,4.69,2.66,9.61,4.99,14.82,6.33,7.07,1.88,14.6,1.82,21.6,4.45,3.58,1.31,6.9,3,10.13,4.93,13.11,7.65,21.75,20.68,28.36,33.92,3.3,6.28,6.43,12.94,11.32,18.01,7.19,7.72,19.03,8.29,28.01,3.39,6.24-3.17,11.86-7.82,17.62-12.32,12.82-10.44,28.2-20.19,45.47-19.54,5.64-.11,11.49,1.71,16.46,3.97,3.35,1.45,6.62,2.69,10.1,3.24,3.47.61,7.14.49,10.65.22,3.77-.25,7.53.13,11.18.82,3.65.71,7.2,1.76,10.7,2.79,6.71,2.04,14.73,4.27,20.47-1.02,0,0,.23.25.23.25-1.32,1.3-2.89,2.37-4.64,3.05-5.32,2.08-11.19.38-16.45-.85-3.55-.88-7.08-1.76-10.64-2.28-7.38-1.43-14.47.78-21.91-.3-7.38-.83-13.8-5.24-20.95-6.25-18.5-2.42-34.48,7.63-48.2,19.04-8.61,6.69-17.83,14.93-29.36,16.33-7.87.97-16.22-1.9-21.62-7.71-7.71-8.25-11.43-19.26-17.02-28.63-3.58-6.23-7.82-12.04-13.06-16.85-5.2-4.79-11.35-8.76-17.9-11.37-6.74-2.66-14.21-2.77-21.22-4.89-3.6-1.04-7.06-2.51-10.35-4.25-3.26-1.63-6.13-3.84-9.6-5.04-3.34-1.24-6.9-1.94-10.49-2.37-3.6-.44-7.25-.62-10.9-.8-6.76-.59-16.05,0-20.43-6.11h0Z"/>
        </g>
      </g>
      <g>
        <path class="cls-7" d="M1672.5,245.75c-6.67,0-11.59-2.04-14.75-6.12-3.17-4.08-4.75-8.96-4.75-14.62,0-4.33,1.08-8.58,3.25-12.75,2.16-4.16,5.33-7.66,9.5-10.5,4.16-2.83,9.25-4.25,15.25-4.25,9.16,0,15.88,2,20.12,6s6.38,8.59,6.38,13.75c0,4.67-1.38,9.21-4.12,13.62-2.75,4.42-6.75,8-12,10.75s-11.54,4.12-18.88,4.12ZM1666.25,181c0-9,1.29-17.04,3.88-24.12,2.58-7.08,5.88-13.38,9.88-18.88s8.08-10.25,12.25-14.25c6.33-6.16,12.16-11.58,17.5-16.25,5.33-4.66,8-8.83,8-12.5,0-1-.67-2.38-2-4.12-1.34-1.75-3.42-2.62-6.25-2.62-3,0-6.84,1.25-11.5,3.75-4.67,2.5-9.5,5.62-14.5,9.38s-9.67,7.62-14,11.62l-13.25-30.75c8.5-7.66,18.08-13.71,28.75-18.12,10.66-4.41,21.5-6.62,32.5-6.62,6.83,0,13.25,1,19.25,3s10.88,5.34,14.62,10c3.75,4.67,5.62,11,5.62,19,0,11.5-2.71,21.04-8.12,28.62-5.42,7.59-11.71,14.04-18.88,19.38-7.5,5.5-14.54,11.42-21.12,17.75-6.59,6.34-10.96,13.92-13.12,22.75l-29.5,3Z"/>
        <path class="cls-7" d="M1759.5,245.75c-5,0-9.12-1.21-12.38-3.62s-5.67-5.41-7.25-9c-1.58-3.58-2.38-7.21-2.38-10.88,0-6.66,2.21-12.46,6.62-17.38,4.41-4.91,10.54-7.38,18.38-7.38,9.66,0,16.91,2.29,21.75,6.88,4.83,4.59,7.25,9.79,7.25,15.62,0,6.67-2.75,12.62-8.25,17.88s-13.42,7.88-23.75,7.88ZM1760,182.25c2.66-10.33,5.25-20.58,7.75-30.75,2.5-10.16,5-20.33,7.5-30.5,2.33-10.16,4.79-20.38,7.38-30.62,2.58-10.25,5.21-20.46,7.88-30.62,9.5-1.5,18.16-2.75,26-3.75,7.83-1,14.25-1.91,19.25-2.75-9,21-17.21,42.12-24.62,63.38-7.42,21.25-14.79,42.62-22.12,64.12-4.84,0-9.67.17-14.5.5-4.84.34-9.67.67-14.5,1Z"/>
      </g>
    </g>
  </g>
</svg>