<?xml version="1.0" encoding="UTF-8"?>
<svg id="Capa_2" data-name="Capa 2" xmlns="http://www.w3.org/2000/svg" xmlns:xlink="http://www.w3.org/1999/xlink" viewBox="0 0 1921 1080.5">
  <defs>
    <style>
      .cls-1 {
        fill: #f19c2e;
      }

      .cls-2 {
        fill: #706539;
      }

      .cls-3 {
        stroke: #ceeae9;
        stroke-width: 5.79px;
      }

      .cls-3, .cls-4, .cls-5 {
        fill: none;
      }

      .cls-3, .cls-5 {
        stroke-miterlimit: 10;
      }

      .cls-6 {
        fill: #cae3e5;
      }

      .cls-7 {
        fill: #c68859;
      }

      .cls-8 {
        fill: #4793a0;
      }

      .cls-9 {
        fill: #fff;
      }

      .cls-10 {
        fill: #93c2cc;
      }

      .cls-11 {
        fill: #6bb6b8;
      }

      .cls-12 {
        fill: #edf4f4;
      }

      .cls-13 {
        fill: #a3ced6;
      }

      .cls-14 {
        fill: #d56453;
      }

      .cls-15 {
        fill: #a9c245;
      }

      .cls-16 {
        fill: #c0dee2;
      }

      .cls-17 {
        fill: url(#Degradado_sin_nombre_2);
      }

      .cls-18 {
        isolation: isolate;
      }

      .cls-19 {
        fill: #ad3b2f;
      }

      .cls-20 {
        fill: #9ac146;
      }

      .cls-21 {
        fill: #5f869b;
      }

      .cls-5 {
        stroke: #995222;
        stroke-width: 8.72px;
      }

      .cls-22 {
        fill: #87b0c1;
      }

      .cls-23 {
        fill: #a09c87;
      }

      .cls-24 {
        clip-path: url(#clippath);
      }

      .cls-25 {
        fill: #9bbecc;
      }

      .cls-26 {
        fill: #ffcc2c;
      }

      .cls-27 {
        fill: #5f8e9e;
      }
    </style>
    <linearGradient id="Degradado_sin_nombre_2" data-name="Degradado sin nombre 2" x1="961" y1="-5269.65" x2="961" y2="-4189.65" gradientTransform="translate(0 -4189.15) scale(1 -1)" gradientUnits="userSpaceOnUse">
      <stop offset="0" stop-color="#d1fdfe"/>
      <stop offset="1" stop-color="#97ddef"/>
    </linearGradient>
    <clipPath id="clippath">
      <rect class="cls-4" width="1920" height="1080"/>
    </clipPath>
  </defs>
  <g id="Capa_4" data-name="Capa 4">
    <polygon class="cls-17" points="1921 1080.5 1 1080.5 1.04 .5 1921 .5 1921 1080.5"/>
    <path class="cls-12" d="M748,997.09c0-26.19-47.19-48.56-113.65-57.4,1.37-2.11,2.12-4.56,2.16-7.07,0-13.83-24.15-25.91-60.08-32.42.55-1.65.84-3.37.85-5.11,0-24.4-56.94-44.19-127.17-44.19-18.68-.06-37.33,1.43-55.76,4.47-.49-27.58-54.11-49.87-120.19-49.87-45.07,0-84.33,10.37-104.91,25.71-27.58-8.39-66.38-13.6-109.37-13.6-18.04-.03-36.07.93-54,2.89v82.6h0l-4.88,177.4,699.22-2.16-17.62-33.54c39.9-11.26,65.4-28.45,65.4-47.71Z"/>
    <path class="cls-12" d="M807,144.8c0-11.32-64.7-20.5-144.5-20.5-28.32,0-54.74,1.15-77,3.15-20.5-13.7-63.61-23.15-113.5-23.15-69.59,0-126,18.35-126,41,0,7.51,6.22,14.56,17.07,20.61-51.34,3.09-90.07,17.09-90.07,33.89,0,19,49.69,34.5,111,34.5,46.39,0,86.12-8.85,102.72-21.41,28,2.18,59.93,3.41,93.78,3.41,111.84,0,202.5-13.43,202.5-30,0-8.91-26.23-16.91-67.85-22.41,53.73-2.98,91.85-10.41,91.85-19.09Z"/>
    <g class="cls-24">
      <path class="cls-12" d="M1920,727.86c-43.4-9.79-117.92-3-165.73,15-52.31-55-232.77-43.68-232.18,34.07v.2c-77.37-15.58-188.24,2.61-187.36,54.56-.04,2.54.19,5.08.7,7.57-35.63,7.7-61.91,22.59-61.37,44.67-.09,3.86.67,7.69,2.23,11.22-65,10.19-117.14,36.35-116.43,78.5-.51,30.64,26.94,52.83,66.92,66.57l-25.88,67.78,719.1-34.54v-230.65h0v-114.95Z"/>
    </g>
    <path class="cls-12" d="M1634.07,194.8c41.66-5.23,67.93-13.07,68-22,.1-16.57-90.47-30.57-202.31-31.27-33.84-.21-65.75.82-93.8,2.82-16.51-12.66-56.19-21.76-102.58-22.05-61.3-.38-111.1,14.75-111.22,33.8-.1,16.83,38.58,31.09,89.86,34.45-10.89,6-17.15,13-17.2,20.51-.14,22.64,56.15,41.35,125.74,41.79,49.93.31,93.13-8.87,113.61-22.44,22.29,2.14,48.69,3.46,77,3.64,79.81.5,144.56-8.28,144.63-19.6.05-8.66-37.98-16.33-91.73-19.65Z"/>
    <polygon class="cls-22" points="1608.35 345.27 1631.35 332.58 1631.35 261.49 1608.35 274.19 1608.35 345.27"/>
    <polygon class="cls-25" points="1860.35 345.27 1631.35 332.58 1631.35 261.5 1860.35 274.19 1860.35 345.27"/>
    <path class="cls-12" d="M1917.35,371.14c-43.4-8.29-117.92-2.55-165.73,12.67-52.31-46.58-232.77-37-232.18,28.84v.16c-77.37-13.18-188.24,2.19-187.36,46.19-.04,2.15.19,4.31.7,6.4-35.63,6.52-61.91,19.12-61.37,37.8-.08,3.31.68,6.58,2.23,9.51-65,8.61-117.14,30.75-116.42,66.42-.51,25.93,26.93,44.71,66.91,56.34l-25.87,57.37,719.09-29.23v-195.19h0v-97.28Z"/>
    <path class="cls-12" d="M1626.47,190c41.65-4.43,67.93-11.06,68-18.6.11-14-90.47-25.87-202.3-26.46-33.85-.18-65.75.69-93.81,2.38-16.51-10.72-56.19-18.41-102.58-18.66-61.3-.32-111.09,12.48-111.21,28.61-.11,14.24,38.58,26.3,89.85,29.15-10.88,5.07-17.15,11-17.2,17.36-.14,19.16,56.16,35,125.74,35.36,49.93.26,93.14-7.5,113.61-19,22.29,1.81,48.7,2.93,77,3.08,79.8.42,144.55-7,144.62-16.58.06-7.36-37.98-13.84-91.72-16.64Z"/>
    <polygon class="cls-10" points="1595.35 697.32 1418.35 697.32 1418.35 345.27 1595.35 329.2 1595.35 697.32"/>
    <polygon class="cls-13" points="1885.35 682.09 1595.35 682.09 1595.35 329.2 1885.35 345.27 1885.35 682.09"/>
    <polygon class="cls-16" points="1451.35 415.1 1436.35 418.05 1436.35 362.6 1451.35 357.62 1451.35 415.1"/>
    <polygon class="cls-16" points="1485.35 412.4 1470.35 415.36 1470.35 359.9 1485.35 354.92 1485.35 412.4"/>
    <polygon class="cls-16" points="1524.35 408.17 1509.35 411.12 1509.35 355.67 1524.35 350.69 1524.35 408.17"/>
    <polygon class="cls-16" points="1566.35 408.17 1551.35 411.12 1551.35 355.67 1566.35 350.69 1566.35 408.17"/>
    <polygon class="cls-6" points="1855.35 418.05 1631.35 407.9 1631.35 353.74 1855.35 363.89 1855.35 418.05"/>
    <polygon class="cls-6" points="1855 533.56 1631 521.56 1631 457.56 1855 469.56 1855 533.56"/>
    <polygon class="cls-6" points="1855 646.56 1631 634.56 1631 570.56 1855 582.56 1855 646.56"/>
    <path class="cls-12" d="M763,713c0-36.45-48.39-67.58-116.54-79.88,1.44-3.08,2.19-6.43,2.21-9.83,0-19.26-24.76-36.07-61.61-45.13.57-2.33.87-4.71.87-7.11,0-34-58.38-61.49-130.4-61.49-19.23-.08-38.41,2-57.18,6.21-.5-38.37-55.48-69.4-123.25-69.4-46.21,0-86.47,14.43-107.57,35.78-28.29-11.67-68.07-18.93-112.15-18.93-18.53-.05-37.05,1.29-55.38,4v114.99h0v230.64l719.91,34.54-26-68c40.94-15.65,67.09-39.57,67.09-66.39Z"/>
    <rect class="cls-23" x="152.3" y="582.07" width="179.63" height="10.01"/>
    <rect class="cls-23" x="148.69" y="506.52" width="181.44" height="8.2"/>
    <rect class="cls-23" x="166.01" y="512.63" width="4.33" height="72.52"/>
    <rect class="cls-23" x="188.01" y="512.63" width="3.97" height="72.52"/>
    <rect class="cls-23" x="207.13" y="512.63" width="4.33" height="72.52"/>
    <rect class="cls-23" x="225.34" y="513.04" width="4.33" height="72.52"/>
    <rect class="cls-23" x="247.35" y="513.04" width="3.97" height="72.52"/>
    <rect class="cls-23" x="266.47" y="513.04" width="4.33" height="72.52"/>
    <rect class="cls-23" x="284.68" y="513.04" width="4.33" height="72.52"/>
    <rect class="cls-23" x="306.68" y="513.04" width="3.97" height="72.52"/>
    <rect class="cls-19" x="327.15" y="423.61" width="16.5" height="291.51"/>
    <rect class="cls-14" x="339.37" y="423.61" width="20.17" height="291.51"/>
    <rect class="cls-2" x="284.26" y="582.95" width="202.9" height="10.01"/>
    <rect class="cls-2" x="280.19" y="507.4" width="204.93" height="8.2"/>
    <rect class="cls-2" x="299.75" y="513.51" width="4.89" height="72.52"/>
    <rect class="cls-2" x="324.6" y="513.51" width="4.48" height="72.52"/>
    <rect class="cls-2" x="346.19" y="513.51" width="4.89" height="72.52"/>
    <rect class="cls-2" x="366.77" y="513.92" width="4.89" height="72.52"/>
    <rect class="cls-2" x="391.62" y="513.92" width="4.48" height="72.52"/>
    <rect class="cls-2" x="413.21" y="513.92" width="4.89" height="72.52"/>
    <rect class="cls-2" x="433.79" y="513.92" width="4.89" height="72.52"/>
    <rect class="cls-2" x="458.64" y="513.92" width="4.48" height="72.52"/>
    <rect class="cls-2" x="160.41" y="582.95" width="123.86" height="10.01"/>
    <rect class="cls-19" x="140.44" y="413.89" width="16.5" height="291.51"/>
    <path class="cls-1" d="M485.13,321.05l-94.46,102.06-37,26.34c-2.22,1.58-5.3,1.06-6.87-1.16-.29-.41-.52-.87-.68-1.35l-7.42-23.22-45.45,27c-2.33,1.39-5.35.63-6.74-1.71-.03-.04-.05-.09-.08-.13l-14.34-25.82-26.86,25.07c-1.99,1.86-5.1,1.75-6.95-.24-.41-.44-.74-.95-.97-1.51l-9.23-22.71-33.15,25.33c-2.17,1.65-5.26,1.23-6.91-.93-.3-.39-.54-.83-.71-1.3l-8.71-24-28.46,25.84c-2.01,1.83-5.12,1.68-6.95-.33-.31-.34-.58-.73-.78-1.15l-12.09-24.63-28.73,25.21c-2.06,1.78-5.18,1.55-6.95-.51-.5-.58-.86-1.27-1.05-2.02l-5.71-23.29-24.21,25.43c-1.87,1.97-4.98,2.05-6.96.18-.55-.52-.97-1.17-1.23-1.88l-8.27-22.51-26.59,22.89c-2.07,1.77-5.18,1.54-6.95-.53-.78-.91-1.2-2.06-1.19-3.26l.2-19.07h0c-4.84,2.84,78-102.06,80.77-102.06l391.68-.03Z"/>
    <rect class="cls-14" x="152.67" y="413.89" width="20.17" height="291.51"/>
    <polygon class="cls-19" points="177.86 394.95 65.89 394.95 65.89 419.39 177.86 419.39 240.26 419.39 240.26 705.41 258.19 705.41 258.19 419.19 278.87 424.49 480.44 424.49 480.44 705.41 499.18 705.41 499.18 408.39 509.37 424.28 546.03 424.28 554.79 418.58 549.29 399.23 177.86 394.95"/>
    <polygon class="cls-14" points="258.19 705.41 258.19 419.19 177.86 419.19 177.86 394.95 554.79 394.95 554.79 418.58 512.42 418.58 512.42 705.41 487.16 705.41 487.16 419.39 284.26 419.39 284.26 705.41 258.19 705.41"/>
    <path class="cls-26" d="M95.49,321l95.51,102.06,37.4,26.34c2.26,1.59,5.38,1.06,6.97-1.2.28-.4.51-.84.66-1.31l7.51-23.22,46,27.05c2.38,1.41,5.44.62,6.85-1.75.02-.03.03-.06.05-.09l14.51-25.82,27.15,25.06c2.03,1.87,5.19,1.74,7.07-.29.39-.43.71-.92.93-1.45l9.32-22.71,33.52,25.33c2.2,1.67,5.34,1.23,7-.97.29-.39.53-.81.7-1.27l8.81-24,28.78,25.85c2.05,1.85,5.21,1.68,7.06-.37.3-.33.56-.71.76-1.11l12.22-24.67,29.06,25.21c2.09,1.81,5.24,1.59,7.05-.5.51-.59.87-1.28,1.07-2.03l5.77-23.29,24.46,25.42c1.91,1.99,5.08,2.05,7.07.14.53-.51.95-1.14,1.21-1.83l8.36-22.51,26.89,22.86c2.11,1.78,5.27,1.51,7.05-.6.75-.89,1.17-2.02,1.17-3.19l-1.84-26.14s-77.23-95-80-95H95.49Z"/>
    <polygon class="cls-8" points="162.75 577.47 240.26 580.73 148.19 705.41 59.94 697.51 162.75 577.47"/>
    <path class="cls-11" d="M240.26,587.66v-6.66c0-2.32-1.88-4.2-4.2-4.2-1.31,0-2.55.61-3.34,1.65l-84.46,110.63c-1.7,2.23-3.28,6-3.08,8.84l3,7.49,92.08-117.75Z"/>
    <path class="cls-11" d="M162,578.8h0c-.01-3.73-3.05-6.75-6.78-6.74-2.02,0-3.94.92-5.22,2.49l-87.82,108.76c-1.83,2.27-2.73,5.15-2.52,8.06l.28,6.14,102.06-118.71Z"/>
    <polygon class="cls-15" points="1920.42 1078.52 1.08 1074.11 1.08 684.11 1921 684.11 1920.42 1078.52"/>
    <path class="cls-27" d="M1208,849.24l-18.63-26.24c-5.78-1-12.23-2-16.37-2.35-5.17-.45,3.52-2.42,11.85-4l-3-4.2-30.85-4.2h27.92l-2.92-4.12-40-18.31h27l-5.39-7.59c-14.38-6.31-33-14.53-36.62-16.39-3.62-1.86,15,2.73,29.63,6.53l-4.63-6.53h503l-71-77.34H301l-76,78.89h615l-11,16.88,28-6-35.16,17-1.53,2.34h49.69l-46,11.61,27,9.28-41,2.32-5.41.88-17.59,26.9L1,847.7v232.8h1920v-231.26h-713Z"/>
    <path class="cls-20" d="M1864.64,734.93c56.44-25.44,50.44-21.46-22.56-32.6-73-11.14-224-8.74-215,7.16,9,15.9,14,42.93,61,51.68,45.61,8.49-57,13.52-163,18.29,0,0,60,14.31-70,15.9s-209-18.29-225-1.59c-16,16.7-97,10.33,2,21.47,99,11.14,133,17.49,98,19.87-35,2.38-105,11.13,12,10.34,117-.79,347,6.36,370,0,23-6.36-48-8.75,7-14.31,55-5.56,179-4.77,182-19.88,3-15.11-8-13.52-26-43.73s-66.89-7.16-10.44-32.6ZM1656.08,810.46c-10,6.37-19,5.57-100,.8-81-4.77-2-2.39,48-7.16,50-4.77-3-4-31-10.33-28-6.33,40-3.18,40-3.18,33-8,34-2.39,6,1.59-28,3.98-3,3.18,26,4.77,29,1.59,21,7.15,11,13.51h0Z"/>
    <path class="cls-20" d="M488.08,775.11s-165,7-137,20,26-3,131,10c105,13,135,51,176,29s145-58,17-48-224,11-163,1,139-27-24-12Z"/>
    <path class="cls-20" d="M77.83,701.11s151,0,89.29,8.59c-61.71,8.59-101.61,11.17-41.6,22.3,60.01,11.13,149.3,20.67,66.48,31-82.82,10.33-146.36,19.77-32.22,23.21,114.14,3.44,229.22,26.62,136.22,31.79-93,5.17-162.93-3.44-92.05,6,70.88,9.44,138.05,17.19-11.95,12.89s-243-15.47-149.15-18.89c93.85-3.42,186.86-3.44,116.9-13.75-69.96-10.31-142.67-27.5-97.57-38.67,45.1-11.17,102.18-18,47.87-28.36-54.31-10.36-95.73-25.8-56.15-27.52,39.58-1.72,114.1,4.3,23.93-8.59Z"/>
    <path class="cls-20" d="M1706.08,807.11s42,23,34,28-6,6,49,2,108-17,55-19"/>
    <path class="cls-21" d="M1668.08,968.11c-36.76-.1-73.51,1.71-110.08,5.42,15.44-6.31,24.13-13.41,24.13-20.92,0-26.24-105.88-47.5-236.5-47.5s-236.5,21.26-236.5,47.5,105.89,47.5,236.5,47.5c38.55.12,77.09-1.88,115.42-6-10.89,4.94-16.92,10.36-16.92,16,0,23.19,100.29,42,224,42s224-18.81,224-42-100.34-42-224.05-42Z"/>
    <path class="cls-21" d="M1074.14,884.16c-11.35-6.54-54.3-11.41-105.56-11.41-59.92,0-108.5,6.65-108.5,14.86,0,6.21,27.86,11.53,67.39,13.74-4.15,2.3-6.39,4.73-6.39,7.26,0,13.53,64.25,24.5,143.5,24.5s143.5-11,143.5-24.5c0-12.99-59.14-23.61-133.94-24.45Z"/>
    <path class="cls-21" d="M445.58,964.11c-14.31,0-28.21.51-41.5,1.48,0-24-57.1-43.48-127.5-43.48s-127.5,19.47-127.5,43.5,56.66,43.35,126.71,43.49c-.46,1.46-.7,2.98-.71,4.51,0,27.33,76.34,49.5,170.5,49.5s170.5-22.17,170.5-49.5-76.33-49.5-170.5-49.5Z"/>
    <path class="cls-3" d="M1006.47,745c90.85,0,164.5-26.75,164.5-59.75v-.25h-328.97v.25c0,33,73.62,59.75,164.47,59.75Z"/>
    <path class="cls-3" d="M1007,709c39.21,0,70-19.37,71-24h-142c-1,4.63,31.76,24,71,24Z"/>
    <ellipse class="cls-12" cx="1003.81" cy="579.68" rx="164" ry="24.5"/>
    <ellipse class="cls-12" cx="1003.81" cy="580.68" rx="164" ry="24.5"/>
    <ellipse class="cls-12" cx="1003.81" cy="581.68" rx="164" ry="24.5"/>
    <ellipse class="cls-12" cx="1003.81" cy="582.68" rx="164" ry="24.5"/>
    <ellipse class="cls-12" cx="1003.81" cy="583.68" rx="164" ry="24.5"/>
    <ellipse class="cls-12" cx="1003.81" cy="584.68" rx="164" ry="24.5"/>
    <ellipse class="cls-12" cx="1003.81" cy="585.68" rx="164" ry="24.5"/>
    <ellipse class="cls-12" cx="1003.81" cy="586.68" rx="164" ry="24.5"/>
    <ellipse class="cls-12" cx="1003.81" cy="587.68" rx="164" ry="24.5"/>
    <ellipse class="cls-12" cx="1003.81" cy="588.68" rx="164" ry="24.5"/>
    <ellipse class="cls-12" cx="1003.81" cy="589.68" rx="164" ry="24.5"/>
    <ellipse class="cls-12" cx="1003.81" cy="590.68" rx="164" ry="24.5"/>
    <ellipse class="cls-12" cx="1003.81" cy="591.68" rx="164" ry="24.5"/>
    <ellipse class="cls-12" cx="1003.81" cy="592.68" rx="164" ry="24.5"/>
    <ellipse class="cls-12" cx="1003.81" cy="593.68" rx="164" ry="24.5"/>
    <ellipse class="cls-12" cx="1003.81" cy="594.68" rx="164" ry="24.5"/>
    <ellipse class="cls-12" cx="1003.81" cy="595.68" rx="164" ry="24.5"/>
    <g>
      <g>
        <polygon class="cls-7" points="1486.31 765.03 434.69 765.03 543.18 860.54 1380.03 860.54 1486.31 765.03"/>
        <polygon class="cls-7" points="1366.77 286.04 554.23 286.04 638.05 191.32 1284.66 191.32 1366.77 286.04"/>
        <rect class="cls-7" x="259.23" y="282.75" width="1402.54" height="486.35"/>
      </g>
      <rect class="cls-5" x="293.33" y="309.92" width="1334.34" height="432.01"/>
    </g>
    <g class="cls-18">
      <path class="cls-9" d="M671.33,240.42c-.68,2.6-1.34,5.2-1.98,7.82-.64,2.62-1.28,5.22-1.91,7.82-.6,2.6-1.22,5.19-1.88,7.79-.66,2.6-1.33,5.21-2.01,7.85-2.42.38-4.64.7-6.64.96-2,.25-3.64.49-4.91.7,2.3-5.36,4.39-10.75,6.29-16.18,1.89-5.42,3.78-10.88,5.65-16.37,1.23,0,2.47-.04,3.7-.13,1.23-.08,2.47-.17,3.7-.25ZM671.46,224.21c1.28,0,2.33.31,3.16.92.83.62,1.45,1.38,1.85,2.3.4.92.61,1.84.61,2.78,0,1.7-.56,3.18-1.69,4.44-1.13,1.25-2.69,1.88-4.69,1.88-2.47,0-4.32-.58-5.55-1.76-1.23-1.17-1.85-2.5-1.85-3.99,0-1.7.71-3.22,2.14-4.56,1.42-1.34,3.43-2.01,6.03-2.01Z"/>
      <path class="cls-9" d="M684.35,273.6c-1.7,0-3.4-.46-5.11-1.37-1.7-.91-3.34-2.37-4.91-4.37l4.72-9.25c.47.81,1.16,1.57,2.07,2.3.92.72,1.88,1.3,2.9,1.72,1.02.43,1.89.64,2.62.64,1.11,0,2.16-.34,3.16-1.02,1-.68,1.5-1.6,1.5-2.74,0-1.49-.68-2.85-2.04-4.09-1.36-1.23-2.89-2.45-4.59-3.64-1.66-1.19-3.18-2.54-4.56-4.05-1.38-1.51-2.07-3.24-2.07-5.2,0-2.21.64-4.27,1.91-6.16,1.28-1.89,2.94-3.55,4.98-4.98,2.04-1.42,4.22-2.53,6.54-3.32,2.32-.79,4.52-1.18,6.6-1.18,1.49,0,2.87.25,4.15.73,1.28.49,2.3,1.29,3.06,2.39.77,1.11,1.15,2.6,1.15,4.47,0,.3-.01.6-.03.89-.02.3-.05.6-.1.89-.04.3-.1.61-.16.92-.06.32-.12.65-.16.99l-9.25,2.68c.08-.34.16-.68.22-1.02.06-.34.1-.68.1-1.02,0-1.28-.22-2.2-.67-2.78-.45-.57-1.03-.86-1.76-.86-.38,0-.94.2-1.66.61-.72.4-1.37.96-1.95,1.66-.57.7-.86,1.48-.86,2.33,0,1.4.58,2.56,1.76,3.48,1.17.92,2.52,1.84,4.05,2.78.72.43,1.53,1.1,2.42,2.01.89.92,1.67,2.15,2.33,3.7.66,1.55.99,3.54.99,5.97,0,3.15-.78,5.91-2.33,8.3-1.55,2.38-3.65,4.24-6.29,5.58-2.64,1.34-5.55,2.01-8.74,2.01Z"/>
      <path class="cls-9" d="M701.38,273.54l8.36-45.37,20.17-1.72c-.3.94-.55,1.89-.77,2.87-.21.81-.41,1.65-.61,2.52-.19.87-.35,1.65-.48,2.33-.55.04-1.34.07-2.36.09-1.02.02-2.06.04-3.13.06-1.06.02-1.98.03-2.74.03h-1.21l-2.23,11.42,3.7-.19c.47-.04.95-.06,1.44-.06h2.71c.38,0,.68-.02.89-.06-.09.6-.16,1.18-.22,1.76-.06.57-.14,1.16-.22,1.76l-.57,3.51c-.21.04-.49.06-.83.06h-1.21c-.47.04-.96.06-1.47.06s-1,.02-1.47.06c-.55.04-1.13.06-1.72.06s-1.23.02-1.91.06l-2.17,11.74,9.32-1.47-.64,7.28-20.61,3.19Z"/>
      <path class="cls-9" d="M723.4,273.6c.47-3.36.97-6.74,1.5-10.15.53-3.4,1.08-6.69,1.66-9.86.57-3.17,1.12-6.03,1.63-8.58.55-2.77,1.1-5.57,1.66-8.42.55-2.85,1.13-5.72,1.72-8.61l11.17-1.47-3.32,14.42c-.6,2.51-1.2,5.2-1.82,8.07-.62,2.87-1.18,5.65-1.69,8.33-.51,2.68-.92,5.06-1.21,7.15,1.06-.09,2.2-.14,3.41-.16,1.21-.02,2.29-.03,3.22-.03.04.98.13,2.01.25,3.1.13,1.08.27,2.02.41,2.81.15.79.22,1.22.22,1.31h-.48c-.15,0-.31-.02-.48-.06h-1.02c-1.66,0-3.5.07-5.52.22-2.02.15-4.02.38-6,.7-1.98.32-3.75.73-5.33,1.24Z"/>
      <path class="cls-9" d="M742.42,273.54l8.36-45.37,20.17-1.72c-.3.94-.55,1.89-.77,2.87-.21.81-.41,1.65-.61,2.52-.19.87-.35,1.65-.48,2.33-.55.04-1.34.07-2.36.09-1.02.02-2.06.04-3.13.06-1.06.02-1.98.03-2.74.03h-1.21l-2.23,11.42,3.7-.19c.47-.04.95-.06,1.44-.06h2.71c.38,0,.68-.02.89-.06-.09.6-.16,1.18-.22,1.76-.06.57-.14,1.16-.22,1.76l-.57,3.51c-.21.04-.49.06-.83.06h-1.21c-.47.04-.96.06-1.47.06s-1,.02-1.47.06c-.55.04-1.13.06-1.72.06s-1.23.02-1.91.06l-2.17,11.74,9.32-1.47-.64,7.28-20.61,3.19Z"/>
      <path class="cls-9" d="M775.28,273.6c-2.68,0-4.87-1.25-6.57-3.77-1.7-2.51-2.55-5.96-2.55-10.34,0-4,.55-7.95,1.66-11.84,1.11-3.89,2.66-7.39,4.66-10.5,2-3.1,4.37-5.6,7.12-7.5,2.74-1.89,5.78-2.84,9.09-2.84,2.08,0,3.87.81,5.36,2.43,1.49,1.62,2.23,3.79,2.23,6.51v1.21c0,.13-.02.28-.06.45l-8.36,2.23c-.51-1.06-1.11-1.6-1.79-1.6-1.02,0-2.1.83-3.22,2.49-1.13,1.66-2.2,3.64-3.22,5.94-.68,1.53-1.29,3.11-1.82,4.72-.53,1.62-.95,3.13-1.24,4.53-.3,1.4-.45,2.55-.45,3.45,0,1.32.19,2.28.57,2.87.3.55.77.83,1.4.83s1.34-.31,2.11-.93,1.48-1.39,2.14-2.33c.66-.93,1.09-1.87,1.31-2.81l7.27,2.94c-2.08,4.77-4.56,8.26-7.43,10.5-2.87,2.23-5.6,3.35-8.2,3.35Z"/>
      <path class="cls-9" d="M801.7,273.6c-2.68,0-4.87-1.25-6.57-3.77-1.7-2.51-2.55-5.96-2.55-10.34,0-4,.55-7.95,1.66-11.84,1.11-3.89,2.66-7.39,4.66-10.5,2-3.1,4.37-5.6,7.12-7.5,2.74-1.89,5.78-2.84,9.09-2.84,2.08,0,3.87.81,5.36,2.43,1.49,1.62,2.23,3.79,2.23,6.51v1.21c0,.13-.02.28-.06.45l-8.36,2.23c-.51-1.06-1.11-1.6-1.79-1.6-1.02,0-2.1.83-3.22,2.49-1.13,1.66-2.2,3.64-3.22,5.94-.68,1.53-1.29,3.11-1.82,4.72-.53,1.62-.95,3.13-1.24,4.53-.3,1.4-.45,2.55-.45,3.45,0,1.32.19,2.28.57,2.87.3.55.77.83,1.4.83s1.34-.31,2.11-.93c.77-.62,1.48-1.39,2.14-2.33.66-.93,1.09-1.87,1.31-2.81l7.27,2.94c-2.08,4.77-4.56,8.26-7.43,10.5-2.87,2.23-5.6,3.35-8.2,3.35Z"/>
      <path class="cls-9" d="M816.82,273.41c.6-2.47,1.19-5.26,1.79-8.39.6-3.13,1.19-6.37,1.79-9.73.6-3.36,1.15-6.59,1.66-9.7.47-2.72.92-5.49,1.37-8.3.45-2.81.88-5.64,1.31-8.49l9.96-1.6-2.87,16.78c-.64,3.96-1.2,7.51-1.69,10.66-.49,3.15-.96,6.13-1.4,8.93-.45,2.81-.91,5.68-1.37,8.61-.81,0-1.79.05-2.94.16s-2.3.23-3.45.38c-1.15.15-2.12.29-2.9.41-.79.13-1.2.21-1.24.25Z"/>
      <path class="cls-9" d="M840.94,273.73c-2.81,0-5.11-1.08-6.89-3.25-1.79-2.17-2.68-5.44-2.68-9.83,0-2.42.3-4.98.89-7.66.6-2.68,1.42-5.32,2.49-7.91,1.06-2.59,2.3-5,3.7-7.21,2.25-3.57,4.85-6.49,7.79-8.74,2.94-2.25,6.02-3.38,9.25-3.38,2.55,0,4.52.65,5.9,1.95,1.38,1.3,2.35,2.96,2.9,4.98.55,2.02.83,4.12.83,6.29,0,5.06-.78,9.77-2.33,14.14-1.55,4.36-3.56,8.05-6.03,11.07-2.47,3.11-5.1,5.48-7.88,7.12-2.79,1.64-5.43,2.46-7.95,2.46ZM844.39,263.2c1.91,0,3.61-.64,5.07-1.92,1.47-1.28,2.71-2.9,3.73-4.88,1.02-1.98,1.79-4.05,2.3-6.22s.77-4.13.77-5.87c0-.68-.06-1.41-.19-2.2-.13-.79-.41-1.48-.83-2.07-.43-.6-1.09-.89-1.98-.89-1.96,0-3.72.71-5.3,2.14-1.57,1.42-2.89,3.22-3.96,5.39-1.06,2.21-1.85,4.38-2.36,6.51-.51,2.13-.77,4.06-.77,5.81,0,.89.32,1.82.96,2.78.64.96,1.49,1.44,2.55,1.44Z"/>
      <path class="cls-9" d="M861.17,273.79c1.28-6.13,2.49-12.06,3.64-17.8.94-5.4,1.85-10.59,2.74-15.57.89-4.98,1.53-9.55,1.91-13.72.3.04.56.06.8.06h1.95c1.1,0,2.34-.03,3.7-.09,1.36-.06,2.62-.12,3.77-.16.3,1.49.58,2.96.86,4.4.28,1.45.52,2.85.73,4.21.21,1.19.45,2.42.7,3.67.26,1.25.51,2.52.77,3.8.21,1.28.44,2.46.67,3.54.23,1.08.44,2.07.61,2.97.51-2.51.99-4.98,1.44-7.4.45-2.43.88-4.62,1.31-6.57l1.85-8.55,7.79-.96c-.72,3.23-1.4,6.4-2.04,9.51-.64,3.11-1.23,6.11-1.79,9-1.06,5.19-2,10.08-2.81,14.68-.81,4.59-1.42,8.59-1.85,12,.47,0,.39.05-.22.16-.62.11-1.52.25-2.71.45-1.19.19-2.47.44-3.83.73-1.36.3-2.57.66-3.64,1.09-.13-1.7-.25-3.36-.38-4.98s-.28-3.19-.45-4.72c-.26-2.72-.55-5.42-.89-8.11-.34-2.68-.68-4.81-1.02-6.38-.3,1.87-.66,4.01-1.08,6.41-.43,2.4-.89,4.82-1.4,7.24l-1.79,8.93-9.32,2.17Z"/>
      <path class="cls-9" d="M906.23,273.34c.08-.72.17-1.42.26-2.11.08-.68.17-1.36.25-2.04l.38-3.57c.04-.6.08-1.15.13-1.66.04-.51.08-.98.13-1.4h-5.55l-2.55,9.19c-.94.13-2.04.27-3.32.41-1.28.15-2.47.29-3.57.41-.68.09-1.35.17-2.01.26s-1.33.17-2.01.25l5.04-16.72c.6-2,1.28-4.28,2.04-6.83.77-2.55,1.54-5.17,2.33-7.85.79-2.68,1.53-5.2,2.23-7.56.7-2.36,1.27-4.35,1.69-5.97,2.89-.21,5.84-.47,8.84-.77,3-.3,5.92-.7,8.77-1.21-.21,2.38-.41,5.07-.61,8.07-.19,3-.36,6.1-.51,9.29-.15,3.19-.31,6.34-.48,9.44-.09,2.94-.19,5.97-.32,9.09-.13,3.13-.25,6.33-.38,9.6-.64.09-1.28.17-1.91.26-.64.09-1.28.17-1.92.25-1.06.17-2.23.36-3.51.57-1.28.21-2.42.4-3.45.57ZM903.35,256.18c.25,0,.73-.02,1.44-.06.7-.04,1.37-.08,2.01-.13.64-.04,1.02-.06,1.15-.06,0-.55.08-1.68.25-3.38.17-1.7.34-3.49.51-5.36.08-1.1.18-2.24.29-3.41.11-1.17.22-2.37.35-3.61l.38-5.55-.96.06-1.47,5.49-3.96,16.02Z"/>
      <path class="cls-9" d="M946.3,273.34c.08-.72.17-1.42.26-2.11.08-.68.17-1.36.25-2.04l.38-3.57c.04-.6.08-1.15.13-1.66.04-.51.08-.98.13-1.4h-5.55l-2.55,9.19c-.94.13-2.04.27-3.32.41-1.28.15-2.47.29-3.57.41-.68.09-1.35.17-2.01.26s-1.33.17-2.01.25l5.04-16.72c.6-2,1.28-4.28,2.04-6.83.77-2.55,1.54-5.17,2.33-7.85.79-2.68,1.53-5.2,2.23-7.56.7-2.36,1.27-4.35,1.69-5.97,2.89-.21,5.84-.47,8.84-.77,3-.3,5.92-.7,8.77-1.21-.21,2.38-.41,5.07-.61,8.07-.19,3-.36,6.1-.51,9.29-.15,3.19-.31,6.34-.48,9.44-.09,2.94-.19,5.97-.32,9.09-.13,3.13-.25,6.33-.38,9.6-.64.09-1.28.17-1.91.26-.64.09-1.28.17-1.92.25-1.06.17-2.23.36-3.51.57-1.28.21-2.42.4-3.45.57ZM943.43,256.18c.25,0,.73-.02,1.44-.06.7-.04,1.37-.08,2.01-.13.64-.04,1.02-.06,1.15-.06,0-.55.08-1.68.25-3.38.17-1.7.34-3.49.51-5.36.08-1.1.18-2.24.29-3.41.11-1.17.22-2.37.35-3.61l.38-5.55-.96.06-1.47,5.49-3.96,16.02Z"/>
      <path class="cls-9" d="M975.59,273.54c.47-2.34.95-4.67,1.44-6.99.49-2.32.95-4.61,1.37-6.86,1.62-8.08,2.94-15.83,3.96-23.23-.47-.08-.96-.14-1.47-.16-.51-.02-1-.01-1.47.03-1.02.09-2.02-.04-3-.38.04-.34.06-.71.06-1.12v-2.62c0-.45.02-.88.06-1.31.04-.47.06-.97.06-1.5s.02-1.07.06-1.63c1.1.09,2.21.15,3.32.19,1.1.04,2.21.06,3.32.06,3.15,0,6.16-.11,9.03-.32,2.87-.21,5.52-.47,7.95-.77l-.7,3.45-.57,3c-.21,1.11-.41,1.98-.57,2.62-.47.13-.94.23-1.4.32-.47.09-.94.15-1.4.19-.47.04-.95.11-1.44.19s-.97.17-1.44.25c-.64,3.15-1.16,5.87-1.56,8.17-.41,2.3-.77,4.5-1.09,6.6-.32,2.11-.69,4.41-1.12,6.92-.72,4.3-1.36,8.66-1.91,13.08l-11.49,1.79Z"/>
      <path class="cls-9" d="M1003.48,274.62c-1.28,0-2.57-.28-3.89-.83-1.32-.55-2.42-1.4-3.32-2.55-.89-1.15-1.34-2.62-1.34-4.4v-.51c0-.21.02-.38.06-.51.13-1.1.31-2.55.54-4.34.23-1.79.52-3.73.86-5.84.34-2.11.69-4.2,1.05-6.29.36-2.08.69-3.98.99-5.68.64-3.4,1.15-6.15,1.53-8.23.38-2.08.69-3.69.93-4.82.23-1.13.41-1.97.54-2.52.47-.04.97-.09,1.5-.16.53-.06,1.09-.12,1.69-.16.6-.08,1.18-.15,1.76-.19.57-.04,1.14-.09,1.69-.13l3.89-.38c-.55,2.6-1.07,5.05-1.56,7.37-.49,2.32-.95,4.52-1.37,6.6l-2.94,14.1c-.25,1.06-.45,1.96-.57,2.68-.17.68-.35,1.54-.54,2.58-.19,1.04-.29,1.99-.29,2.84,0,.68.17,1.24.51,1.69.34.45.77.67,1.28.67.72,0,1.32-.28,1.79-.83.47-.55.85-1.23,1.15-2.04.3-.81.53-1.63.7-2.46.17-.83.32-1.5.45-2.01.42-1.96.82-3.86,1.18-5.71.36-1.85.74-3.82,1.15-5.9.4-2.08.86-4.49,1.37-7.21.34-1.87.69-3.78,1.05-5.71.36-1.94.71-3.9,1.05-5.9l9.7-.64c-.77,4.09-1.51,8.19-2.23,12.32-.3,1.57-.63,3.34-.99,5.3-.36,1.96-.76,3.94-1.18,5.94-.43,2-.82,3.89-1.18,5.68-.36,1.79-.69,3.32-.99,4.59-.85,3.49-2.17,6.22-3.96,8.2-1.79,1.98-3.76,3.37-5.9,4.18-2.15.81-4.2,1.21-6.16,1.21Z"/>
      <path class="cls-9" d="M1046.36,275c-1.57,0-3.07-.34-4.5-1.02-1.43-.68-2.65-1.72-3.67-3.13-1.06-1.36-1.89-3.08-2.49-5.17-.6-2.08-.89-4.53-.89-7.34,0-5.49.79-10.27,2.36-14.36,1.57-4.08,3.57-7.49,6-10.21,2.38-2.72,4.95-4.74,7.69-6.06,2.74-1.32,5.31-1.98,7.69-1.98s4.17.5,5.62,1.5c1.45,1,2.51,2.33,3.19,3.99.68,1.66,1.02,3.51,1.02,5.55l-8.74,1.66c-.38-1.7-.89-2.91-1.53-3.64-.64-.72-1.36-1.08-2.17-1.08-.94,0-1.9.51-2.9,1.53-1,1.02-1.98,2.39-2.94,4.12-.96,1.72-1.82,3.65-2.58,5.78-.77,2.13-1.39,4.32-1.88,6.57-.49,2.26-.78,4.38-.86,6.38,0,2.64.39,4.52,1.18,5.65.79,1.13,1.8,1.69,3.03,1.69s2.37-.38,3.54-1.15c1.17-.77,2.15-1.8,2.94-3.09.79-1.3,1.2-2.76,1.24-4.37l-6.83,1.02,1.21-6.32,5.87-.77c1.62-.21,3.33-.47,5.14-.77,1.81-.3,3.39-.57,4.75-.83-.3,4.34-1.14,8.14-2.52,11.39s-3.09,5.95-5.14,8.07-4.18,3.72-6.41,4.79c-2.23,1.06-4.37,1.6-6.41,1.6Z"/>
      <path class="cls-9" d="M1074.5,274.62c-1.28,0-2.57-.28-3.89-.83-1.32-.55-2.42-1.4-3.32-2.55-.89-1.15-1.34-2.62-1.34-4.4v-.51c0-.21.02-.38.06-.51.13-1.1.31-2.55.54-4.34.23-1.79.52-3.73.86-5.84.34-2.11.69-4.2,1.05-6.29.36-2.08.69-3.98.99-5.68.64-3.4,1.15-6.15,1.53-8.23s.69-3.69.93-4.82c.23-1.13.41-1.97.54-2.52.47-.04.97-.09,1.5-.16.53-.06,1.09-.12,1.69-.16.6-.08,1.18-.15,1.76-.19.57-.04,1.14-.09,1.69-.13l3.89-.38c-.55,2.6-1.07,5.05-1.56,7.37-.49,2.32-.95,4.52-1.37,6.6l-2.94,14.1c-.25,1.06-.45,1.96-.57,2.68-.17.68-.35,1.54-.54,2.58-.19,1.04-.29,1.99-.29,2.84,0,.68.17,1.24.51,1.69.34.45.77.67,1.28.67.72,0,1.32-.28,1.79-.83.47-.55.85-1.23,1.15-2.04.3-.81.53-1.63.7-2.46.17-.83.32-1.5.45-2.01.42-1.96.82-3.86,1.18-5.71.36-1.85.74-3.82,1.15-5.9.4-2.08.86-4.49,1.37-7.21.34-1.87.69-3.78,1.05-5.71.36-1.94.71-3.9,1.05-5.9l9.7-.64c-.77,4.09-1.51,8.19-2.23,12.32-.3,1.57-.63,3.34-.99,5.3-.36,1.96-.76,3.94-1.18,5.94-.43,2-.82,3.89-1.18,5.68-.36,1.79-.69,3.32-.99,4.59-.85,3.49-2.17,6.22-3.96,8.2-1.79,1.98-3.76,3.37-5.9,4.18-2.15.81-4.2,1.21-6.16,1.21Z"/>
      <path class="cls-9" d="M1107.24,273.34c.08-.72.17-1.42.26-2.11.08-.68.17-1.36.25-2.04l.38-3.57c.04-.6.08-1.15.13-1.66.04-.51.08-.98.13-1.4h-5.55l-2.55,9.19c-.94.13-2.04.27-3.32.41-1.28.15-2.47.29-3.57.41-.68.09-1.35.17-2.01.26s-1.33.17-2.01.25l5.04-16.72c.6-2,1.28-4.28,2.04-6.83.77-2.55,1.54-5.17,2.33-7.85.79-2.68,1.53-5.2,2.23-7.56.7-2.36,1.27-4.35,1.69-5.97,2.89-.21,5.84-.47,8.84-.77,3-.3,5.92-.7,8.77-1.21-.21,2.38-.41,5.07-.61,8.07-.19,3-.36,6.1-.51,9.29-.15,3.19-.31,6.34-.48,9.44-.09,2.94-.19,5.97-.32,9.09-.13,3.13-.25,6.33-.38,9.6-.64.09-1.28.17-1.91.26-.64.09-1.28.17-1.92.25-1.06.17-2.23.36-3.51.57-1.28.21-2.42.4-3.45.57ZM1104.37,256.18c.25,0,.73-.02,1.44-.06.7-.04,1.37-.08,2.01-.13.64-.04,1.02-.06,1.15-.06,0-.55.08-1.68.25-3.38.17-1.7.34-3.49.51-5.36.08-1.1.18-2.24.29-3.41.11-1.17.22-2.37.35-3.61l.38-5.55-.96.06-1.47,5.49-3.96,16.02Z"/>
      <path class="cls-9" d="M1118.6,273.54l3.32-16.59c.51-3.06,1.06-6.21,1.66-9.44.6-3.23,1.16-6.42,1.69-9.57.53-3.15.95-6.1,1.24-8.87,2.42-.77,5.04-1.33,7.85-1.69,2.81-.36,5.59-.54,8.36-.54,3.23,0,5.43.7,6.6,2.11,1.17,1.4,1.76,3.3,1.76,5.68,0,2.17-.51,4.35-1.53,6.54-1.02,2.19-2.35,4.17-3.99,5.94-1.64,1.77-3.44,3.16-5.39,4.18.77,1.7,1.58,3.56,2.46,5.58.87,2.02,1.69,3.95,2.46,5.78.42,1.06.86,2.13,1.31,3.19.45,1.06.88,2.13,1.31,3.19l-9.89,3.45-2.3-7.66c-.64-2.13-1.22-4.18-1.76-6.16-.53-1.98-.84-3.37-.93-4.18l-.83.25c-.13.68-.27,1.41-.41,2.2-.15.79-.31,1.65-.48,2.58s-.34,1.84-.51,2.71c-.17.87-.34,1.73-.51,2.58l-1.15,6.06-10.34,2.68ZM1133.6,245.84c.77-.09,1.71-.41,2.84-.99s2.25-1.29,3.38-2.14c1.13-.85,2.07-1.72,2.84-2.62.77-.89,1.15-1.68,1.15-2.36,0-.85-.5-1.41-1.5-1.69-1-.28-2.31-.41-3.92-.41h-1.4c-.25.04-.49.06-.7.06h-.64l-2.04,10.15Z"/>
      <path class="cls-9" d="M1150.51,273.79c-.6,0-1.19-.03-1.79-.1-.6-.06-1.19-.14-1.79-.22l3.38-17.17c.43-2.34.88-4.82,1.37-7.43.49-2.62.97-5.21,1.44-7.79.47-2.57.88-4.97,1.24-7.18.36-2.21.65-4.08.86-5.62,1.83-.34,3.68-.66,5.55-.96,1.87-.3,3.79-.45,5.74-.45,3.15,0,5.64.65,7.47,1.95,1.83,1.3,3.15,3,3.96,5.1.81,2.11,1.21,4.41,1.21,6.92,0,2.25-.32,4.63-.96,7.11-.64,2.49-1.54,4.96-2.71,7.4-1.17,2.45-2.56,4.75-4.18,6.92-2.51,3.36-5.56,6.12-9.16,8.26-3.6,2.15-7.48,3.22-11.65,3.22ZM1158.1,265.75c1.49-.98,2.9-2.47,4.24-4.47,1.34-2,2.61-4.4,3.8-7.21,1.06-2.6,1.89-5.05,2.49-7.37.6-2.32.89-4.24.89-5.78s-.44-2.81-1.31-3.7-2.24-1.34-4.12-1.34c-.68,3.66-1.37,7.04-2.07,10.15-.7,3.11-1.38,6.23-2.04,9.38-.66,3.15-1.29,6.6-1.88,10.34Z"/>
      <path class="cls-9" d="M1175.14,273.41c.6-2.47,1.19-5.26,1.79-8.39.6-3.13,1.19-6.37,1.79-9.73.6-3.36,1.15-6.59,1.66-9.7.47-2.72.92-5.49,1.37-8.3.45-2.81.88-5.64,1.31-8.49l9.96-1.6-2.87,16.78c-.64,3.96-1.2,7.51-1.69,10.66-.49,3.15-.96,6.13-1.4,8.93-.45,2.81-.91,5.68-1.37,8.61-.81,0-1.79.05-2.94.16s-2.3.23-3.45.38c-1.15.15-2.12.29-2.9.41-.79.13-1.2.21-1.24.25Z"/>
      <path class="cls-9" d="M1204.24,273.34c.08-.72.17-1.42.26-2.11.08-.68.17-1.36.25-2.04l.38-3.57c.04-.6.08-1.15.13-1.66.04-.51.08-.98.13-1.4h-5.55l-2.55,9.19c-.94.13-2.04.27-3.32.41-1.28.15-2.47.29-3.57.41-.68.09-1.35.17-2.01.26s-1.33.17-2.01.25l5.04-16.72c.6-2,1.28-4.28,2.04-6.83.77-2.55,1.54-5.17,2.33-7.85.79-2.68,1.53-5.2,2.23-7.56.7-2.36,1.27-4.35,1.69-5.97,2.89-.21,5.84-.47,8.84-.77,3-.3,5.92-.7,8.77-1.21-.21,2.38-.41,5.07-.61,8.07-.19,3-.36,6.1-.51,9.29-.15,3.19-.31,6.34-.48,9.44-.09,2.94-.19,5.97-.32,9.09-.13,3.13-.25,6.33-.38,9.6-.64.09-1.28.17-1.91.26-.64.09-1.28.17-1.92.25-1.06.17-2.23.36-3.51.57-1.28.21-2.42.4-3.45.57ZM1199.83,224.65c-.04-.21-.06-.44-.06-.67v-2.81c0-.36.02-.71.06-1.05v-2.17c1.45-1.49,2.85-2.88,4.21-4.18,1.36-1.3,2.68-2.52,3.96-3.67,1.28-1.15,2.51-2.32,3.7-3.51s2.34-2.38,3.45-3.57c.21,2.89.34,5.55.38,7.98,0,1.24.04,2.48.13,3.73.08,1.26.21,2.54.38,3.86-1.24.51-2.53,1.02-3.89,1.53-1.36.51-2.77,1.02-4.21,1.53-1.45.55-2.85,1.07-4.21,1.56s-2.66.97-3.89,1.44ZM1201.37,256.18c.25,0,.73-.02,1.44-.06.7-.04,1.37-.08,2.01-.13.64-.04,1.02-.06,1.15-.06,0-.55.08-1.68.25-3.38.17-1.7.34-3.49.51-5.36.08-1.1.18-2.24.29-3.41.11-1.17.22-2.37.35-3.61l.38-5.55-.96.06-1.47,5.49-3.96,16.02Z"/>
      <path class="cls-9" d="M1215.66,273.79c1.28-6.13,2.49-12.06,3.64-17.8.94-5.4,1.85-10.59,2.74-15.57s1.53-9.55,1.91-13.72c.3.04.56.06.8.06h1.95c1.1,0,2.34-.03,3.7-.09,1.36-.06,2.62-.12,3.77-.16.3,1.49.58,2.96.86,4.4.28,1.45.52,2.85.73,4.21.21,1.19.45,2.42.7,3.67.26,1.25.51,2.52.77,3.8.21,1.28.44,2.46.67,3.54.23,1.08.44,2.07.61,2.97.51-2.51.99-4.98,1.44-7.4.45-2.43.88-4.62,1.31-6.57l1.85-8.55,7.79-.96c-.72,3.23-1.4,6.4-2.04,9.51-.64,3.11-1.23,6.11-1.79,9-1.06,5.19-2,10.08-2.81,14.68s-1.42,8.59-1.85,12c.47,0,.39.05-.22.16-.62.11-1.52.25-2.71.45-1.19.19-2.47.44-3.83.73-1.36.3-2.57.66-3.64,1.09-.13-1.7-.25-3.36-.38-4.98s-.28-3.19-.45-4.72c-.26-2.72-.55-5.42-.89-8.11-.34-2.68-.68-4.81-1.02-6.38-.3,1.87-.66,4.01-1.08,6.41-.43,2.4-.89,4.82-1.4,7.24l-1.79,8.93-9.32,2.17Z"/>
      <path class="cls-9" d="M1249.55,274.94c-1.28,0-2.33-.31-3.16-.92-.83-.62-1.45-1.38-1.85-2.3-.4-.91-.61-1.84-.61-2.78,0-1.7.56-3.18,1.69-4.43,1.13-1.25,2.69-1.88,4.69-1.88,2.47,0,4.32.59,5.55,1.76,1.23,1.17,1.85,2.5,1.85,3.99,0,1.7-.7,3.22-2.11,4.56-1.4,1.34-3.42,2.01-6.06,2.01ZM1249.67,258.73c.68-2.64,1.34-5.25,1.98-7.85.64-2.59,1.28-5.19,1.91-7.79.6-2.59,1.22-5.2,1.88-7.82.66-2.62,1.33-5.22,2.01-7.82,2.42-.38,4.64-.7,6.64-.96s3.64-.49,4.91-.7c-2.3,5.36-4.39,10.75-6.29,16.18s-3.78,10.88-5.65,16.37c-1.23,0-2.47.04-3.7.13-1.23.09-2.47.17-3.7.26Z"/>
    </g>
    <g class="cls-18">
      <g class="cls-18">
        <path class="cls-9" d="M769.39,795.07c.8-3.59,1.56-7.11,2.28-10.54.29-1.38.59-2.87.9-4.45.31-1.58.62-3.19.94-4.81.32-1.62.61-3.16.88-4.61.27-1.45.48-2.72.64-3.81,1.06-.32,2.22-.61,3.46-.88,1.24-.27,2.35-.4,3.33-.4,1.6,0,2.86.34,3.79,1.02.93.68,1.6,1.59,2,2.74.4,1.14.6,2.4.6,3.75,0,1.49-.27,2.92-.82,4.29-.55,1.37-1.28,2.6-2.2,3.69-.92,1.09-1.97,1.96-3.16,2.6-1.18.64-2.42.96-3.69.96h-.44c-.21.91-.41,1.89-.6,2.96-.19,1.06-.35,2.05-.48,2.95-.11.53-.2,1.07-.28,1.6-.08.53-.16,1.07-.24,1.6l-6.91,1.36ZM778.7,780.41c.61-.16,1.22-.57,1.84-1.22.61-.65,1.12-1.48,1.52-2.5.4-1.01.6-2.12.6-3.31,0-.98-.22-1.73-.66-2.24-.44-.51-.93-.76-1.46-.76-.29,1.76-.59,3.42-.88,4.99-.29,1.57-.61,3.25-.96,5.03Z"/>
        <path class="cls-9" d="M784.81,795.07l2.08-10.38c.32-1.92.67-3.89,1.04-5.91.37-2.02.73-4.02,1.06-5.99.33-1.97.59-3.82.78-5.55,1.52-.48,3.15-.83,4.91-1.06s3.5-.34,5.23-.34c2.02,0,3.4.44,4.13,1.32.73.88,1.1,2.06,1.1,3.55,0,1.36-.32,2.72-.96,4.09-.64,1.37-1.47,2.61-2.5,3.71-1.02,1.1-2.15,1.98-3.37,2.62.48,1.06.99,2.23,1.54,3.49.55,1.26,1.06,2.47,1.54,3.61.27.67.54,1.33.82,2,.28.67.55,1.33.82,2l-6.19,2.16-1.44-4.79c-.4-1.33-.77-2.62-1.1-3.85-.33-1.24-.53-2.11-.58-2.62l-.52.16c-.08.43-.17.89-.26,1.38-.09.49-.19,1.03-.3,1.62-.11.59-.21,1.15-.32,1.7-.11.55-.21,1.09-.32,1.62l-.72,3.79-6.47,1.68ZM794.2,777.74c.48-.05,1.07-.26,1.78-.62.71-.36,1.41-.81,2.12-1.34.71-.53,1.3-1.08,1.78-1.64.48-.56.72-1.05.72-1.48,0-.53-.31-.89-.94-1.06-.63-.17-1.45-.26-2.46-.26h-.88c-.16.03-.31.04-.44.04h-.4l-1.28,6.35Z"/>
        <path class="cls-9" d="M802.7,795.07l5.23-28.4,12.62-1.08c-.19.59-.35,1.18-.48,1.8-.13.51-.26,1.03-.38,1.58s-.22,1.03-.3,1.46c-.35.03-.84.05-1.48.06-.64.01-1.29.03-1.96.04-.67.01-1.24.02-1.72.02h-.76l-1.4,7.15,2.32-.12c.29-.03.59-.04.9-.04h1.7c.24,0,.43-.01.56-.04-.05.37-.1.74-.14,1.1-.04.36-.09.73-.14,1.1l-.36,2.2c-.13.03-.31.04-.52.04h-.76c-.29.03-.6.04-.92.04s-.63.01-.92.04c-.35.03-.71.04-1.08.04s-.77.01-1.2.04l-1.36,7.35,5.83-.92-.4,4.55-12.9,2Z"/>
        <path class="cls-9" d="M822.83,795.11c-1.06,0-2.13-.29-3.19-.86-1.07-.57-2.09-1.48-3.08-2.74l2.96-5.79c.29.51.72.98,1.3,1.44.57.45,1.18.81,1.82,1.08s1.18.4,1.64.4c.69,0,1.35-.21,1.98-.64.63-.43.94-1,.94-1.72,0-.93-.43-1.78-1.28-2.56s-1.81-1.53-2.88-2.28c-1.04-.75-1.99-1.59-2.86-2.54s-1.3-2.03-1.3-3.26c0-1.38.4-2.67,1.2-3.85.8-1.18,1.84-2.22,3.11-3.11,1.28-.89,2.64-1.58,4.09-2.08s2.83-.74,4.13-.74c.93,0,1.8.15,2.6.46s1.44.81,1.92,1.5c.48.69.72,1.62.72,2.8,0,.19,0,.37-.02.56-.01.19-.03.37-.06.56s-.06.38-.1.58c-.04.2-.07.41-.1.62l-5.79,1.68c.05-.21.1-.43.14-.64.04-.21.06-.43.06-.64,0-.8-.14-1.38-.42-1.74-.28-.36-.65-.54-1.1-.54-.24,0-.59.13-1.04.38s-.86.6-1.22,1.04c-.36.44-.54.92-.54,1.46,0,.88.37,1.6,1.1,2.18.73.57,1.58,1.15,2.54,1.74.45.27.96.69,1.52,1.26.56.57,1.05,1.34,1.46,2.32.41.97.62,2.22.62,3.73,0,1.97-.49,3.7-1.46,5.19-.97,1.49-2.28,2.66-3.93,3.49-1.65.84-3.47,1.26-5.47,1.26Z"/>
        <path class="cls-9" d="M833.38,794.99c.37-1.54.75-3.3,1.12-5.25.37-1.96.75-3.99,1.12-6.09.37-2.1.72-4.13,1.04-6.07.29-1.7.58-3.43.86-5.19.28-1.76.55-3.53.82-5.31l6.23-1-1.8,10.5c-.4,2.48-.75,4.7-1.06,6.67-.31,1.97-.6,3.83-.88,5.59-.28,1.76-.57,3.55-.86,5.39-.51,0-1.12.03-1.84.1-.72.07-1.44.15-2.16.24-.72.09-1.33.18-1.82.26s-.75.13-.78.16Z"/>
        <path class="cls-9" d="M848.47,795.19c-1.76,0-3.19-.68-4.31-2.04-1.12-1.36-1.68-3.41-1.68-6.15,0-1.52.19-3.12.56-4.79.37-1.68.89-3.33,1.56-4.95.67-1.62,1.44-3.13,2.32-4.51,1.41-2.24,3.04-4.06,4.87-5.47,1.84-1.41,3.77-2.12,5.79-2.12,1.6,0,2.83.41,3.69,1.22s1.47,1.85,1.82,3.11c.35,1.26.52,2.58.52,3.93,0,3.17-.49,6.12-1.46,8.85-.97,2.73-2.23,5.04-3.77,6.93-1.54,1.94-3.19,3.43-4.93,4.45-1.74,1.02-3.4,1.54-4.97,1.54ZM850.63,788.6c1.2,0,2.26-.4,3.17-1.2.92-.8,1.7-1.82,2.34-3.06.64-1.24,1.12-2.54,1.44-3.89.32-1.36.48-2.58.48-3.67,0-.43-.04-.89-.12-1.38s-.25-.92-.52-1.3c-.27-.37-.68-.56-1.24-.56-1.22,0-2.33.45-3.31,1.34-.98.89-1.81,2.02-2.48,3.37-.67,1.38-1.16,2.74-1.48,4.07-.32,1.33-.48,2.54-.48,3.63,0,.56.2,1.14.6,1.74.4.6.93.9,1.6.9Z"/>
        <path class="cls-9" d="M861.13,795.23c.8-3.83,1.56-7.55,2.28-11.14.59-3.38,1.16-6.63,1.72-9.74s.96-5.98,1.2-8.59c.19.03.35.04.5.04h1.22c.69,0,1.46-.02,2.32-.06.85-.04,1.64-.07,2.36-.1.19.93.37,1.85.54,2.76.17.91.33,1.78.46,2.64.13.75.28,1.51.44,2.3.16.79.32,1.58.48,2.38.13.8.27,1.54.42,2.22.15.68.27,1.3.38,1.86.32-1.57.62-3.11.9-4.63s.55-2.89.82-4.11l1.16-5.35,4.87-.6c-.45,2.02-.88,4.01-1.28,5.95-.4,1.94-.77,3.82-1.12,5.63-.67,3.25-1.25,6.31-1.76,9.19-.51,2.88-.89,5.38-1.16,7.51.29,0,.25.03-.14.1-.39.07-.95.16-1.7.28-.75.12-1.54.27-2.4.46-.85.19-1.61.41-2.28.68-.08-1.06-.16-2.1-.24-3.11-.08-1.01-.17-2-.28-2.96-.16-1.7-.35-3.39-.56-5.07-.21-1.68-.43-3.01-.64-3.99-.19,1.17-.41,2.51-.68,4.01-.27,1.5-.56,3.02-.88,4.53l-1.12,5.59-5.83,1.36Z"/>
        <path class="cls-9" d="M889.33,794.95c.05-.45.11-.89.16-1.32s.11-.85.16-1.28l.24-2.24c.03-.37.05-.72.08-1.04.03-.32.05-.61.08-.88h-3.47l-1.6,5.75c-.59.08-1.28.17-2.08.26-.8.09-1.54.18-2.24.26-.43.05-.85.11-1.26.16-.41.05-.83.11-1.26.16l3.15-10.46c.37-1.25.8-2.68,1.28-4.27.48-1.6.96-3.23,1.46-4.91.49-1.68.96-3.26,1.4-4.73.44-1.48.79-2.72,1.06-3.73,1.81-.13,3.65-.29,5.53-.48s3.71-.44,5.49-.76c-.13,1.49-.26,3.18-.38,5.05s-.23,3.81-.32,5.81c-.09,2-.19,3.97-.3,5.91-.05,1.84-.12,3.73-.2,5.69s-.16,3.96-.24,6.01c-.4.05-.8.11-1.2.16-.4.05-.8.11-1.2.16-.67.11-1.4.23-2.2.36-.8.13-1.52.25-2.16.36ZM887.53,784.21c.16,0,.46-.01.9-.04.44-.03.86-.05,1.26-.08.4-.03.64-.04.72-.04,0-.35.05-1.05.16-2.12s.21-2.18.32-3.35c.05-.69.11-1.4.18-2.14s.14-1.48.22-2.26l.24-3.47-.6.04-.92,3.43-2.48,10.02Z"/>
        <path class="cls-9" d="M904.39,795.07l5.23-28.4,12.62-1.08c-.19.59-.35,1.18-.48,1.8-.13.51-.26,1.03-.38,1.58s-.22,1.03-.3,1.46c-.35.03-.84.05-1.48.06-.64.01-1.29.03-1.96.04-.67.01-1.24.02-1.72.02h-.76l-1.4,7.15,2.32-.12c.29-.03.59-.04.9-.04h1.7c.24,0,.43-.01.56-.04-.05.37-.1.74-.14,1.1-.04.36-.09.73-.14,1.1l-.36,2.2c-.13.03-.31.04-.52.04h-.76c-.29.03-.6.04-.92.04s-.63.01-.92.04c-.35.03-.71.04-1.08.04s-.77.01-1.2.04l-1.36,7.35,5.83-.92-.4,4.55-12.9,2Z"/>
        <path class="cls-9" d="M917.89,795.23c.8-3.83,1.56-7.55,2.28-11.14.59-3.38,1.16-6.63,1.72-9.74.56-3.11.96-5.98,1.2-8.59.19.03.35.04.5.04h1.22c.69,0,1.46-.02,2.32-.06.85-.04,1.64-.07,2.36-.1.19.93.37,1.85.54,2.76.17.91.33,1.78.46,2.64.13.75.28,1.51.44,2.3.16.79.32,1.58.48,2.38.13.8.27,1.54.42,2.22.15.68.27,1.3.38,1.86.32-1.57.62-3.11.9-4.63s.55-2.89.82-4.11l1.16-5.35,4.87-.6c-.45,2.02-.88,4.01-1.28,5.95-.4,1.94-.77,3.82-1.12,5.63-.67,3.25-1.25,6.31-1.76,9.19s-.89,5.38-1.16,7.51c.29,0,.25.03-.14.1-.39.07-.95.16-1.7.28-.75.12-1.54.27-2.4.46-.85.19-1.61.41-2.28.68-.08-1.06-.16-2.1-.24-3.11-.08-1.01-.17-2-.28-2.96-.16-1.7-.35-3.39-.56-5.07-.21-1.68-.43-3.01-.64-3.99-.19,1.17-.41,2.51-.68,4.01-.27,1.5-.56,3.02-.88,4.53l-1.12,5.59-5.83,1.36Z"/>
        <path class="cls-9" d="M939.33,795.07c.29-1.46.59-2.92.9-4.37s.59-2.88.86-4.29c1.01-5.06,1.84-9.9,2.48-14.54-.29-.05-.6-.09-.92-.1-.32-.01-.63,0-.92.02-.64.05-1.26-.03-1.88-.24.03-.21.04-.45.04-.7v-1.64c0-.28.01-.55.04-.82.03-.29.04-.61.04-.94s.01-.67.04-1.02c.69.05,1.38.09,2.08.12.69.03,1.38.04,2.08.04,1.97,0,3.85-.07,5.65-.2,1.8-.13,3.45-.29,4.97-.48l-.44,2.16-.36,1.88c-.13.69-.25,1.24-.36,1.64-.29.08-.59.15-.88.2-.29.05-.59.09-.88.12-.29.03-.59.07-.9.12s-.61.11-.9.16c-.4,1.97-.73,3.67-.98,5.11-.25,1.44-.48,2.82-.68,4.13-.2,1.32-.43,2.76-.7,4.33-.45,2.69-.85,5.42-1.2,8.19l-7.19,1.12Z"/>
        <path class="cls-9" d="M950.52,795.07l5.23-28.4,12.62-1.08c-.19.59-.35,1.18-.48,1.8-.13.51-.26,1.03-.38,1.58s-.22,1.03-.3,1.46c-.35.03-.84.05-1.48.06-.64.01-1.29.03-1.96.04-.67.01-1.24.02-1.72.02h-.76l-1.4,7.15,2.32-.12c.29-.03.59-.04.9-.04h1.7c.24,0,.43-.01.56-.04-.05.37-.1.74-.14,1.1-.04.36-.09.73-.14,1.1l-.36,2.2c-.13.03-.31.04-.52.04h-.76c-.29.03-.6.04-.92.04s-.63.01-.92.04c-.35.03-.71.04-1.08.04s-.77.01-1.2.04l-1.36,7.35,5.83-.92-.4,4.55-12.9,2Z"/>
        <path class="cls-9" d="M963.98,795.07l2.08-10.38c.32-1.92.67-3.89,1.04-5.91.37-2.02.73-4.02,1.06-5.99.33-1.97.59-3.82.78-5.55,1.52-.48,3.15-.83,4.91-1.06s3.5-.34,5.23-.34c2.02,0,3.4.44,4.13,1.32.73.88,1.1,2.06,1.1,3.55,0,1.36-.32,2.72-.96,4.09-.64,1.37-1.47,2.61-2.5,3.71-1.02,1.1-2.15,1.98-3.37,2.62.48,1.06.99,2.23,1.54,3.49.55,1.26,1.06,2.47,1.54,3.61.27.67.54,1.33.82,2,.28.67.55,1.33.82,2l-6.19,2.16-1.44-4.79c-.4-1.33-.77-2.62-1.1-3.85-.33-1.24-.53-2.11-.58-2.62l-.52.16c-.08.43-.17.89-.26,1.38-.09.49-.19,1.03-.3,1.62-.11.59-.21,1.15-.32,1.7-.11.55-.21,1.09-.32,1.62l-.72,3.79-6.47,1.68ZM973.36,777.74c.48-.05,1.07-.26,1.78-.62.71-.36,1.41-.81,2.12-1.34.71-.53,1.3-1.08,1.78-1.64.48-.56.72-1.05.72-1.48,0-.53-.31-.89-.94-1.06-.63-.17-1.45-.26-2.46-.26h-.88c-.16.03-.31.04-.44.04h-.4l-1.28,6.35Z"/>
        <path class="cls-9" d="M989.22,795.07c.8-3.59,1.56-7.11,2.28-10.54.29-1.38.59-2.87.9-4.45.31-1.58.62-3.19.94-4.81.32-1.62.61-3.16.88-4.61.27-1.45.48-2.72.64-3.81,1.06-.32,2.22-.61,3.46-.88,1.24-.27,2.35-.4,3.33-.4,1.6,0,2.86.34,3.79,1.02.93.68,1.6,1.59,2,2.74.4,1.14.6,2.4.6,3.75,0,1.49-.27,2.92-.82,4.29-.55,1.37-1.28,2.6-2.2,3.69-.92,1.09-1.97,1.96-3.16,2.6-1.18.64-2.42.96-3.69.96h-.44c-.21.91-.41,1.89-.6,2.96-.19,1.06-.35,2.05-.48,2.95-.11.53-.2,1.07-.28,1.6-.08.53-.16,1.07-.24,1.6l-6.91,1.36ZM998.52,780.41c.61-.16,1.22-.57,1.84-1.22.61-.65,1.12-1.48,1.52-2.5.4-1.01.6-2.12.6-3.31,0-.98-.22-1.73-.66-2.24-.44-.51-.93-.76-1.46-.76-.29,1.76-.59,3.42-.88,4.99-.29,1.57-.61,3.25-.96,5.03Z"/>
        <path class="cls-9" d="M1014.82,794.95c.05-.45.11-.89.16-1.32s.11-.85.16-1.28l.24-2.24c.03-.37.05-.72.08-1.04.03-.32.05-.61.08-.88h-3.47l-1.6,5.75c-.59.08-1.28.17-2.08.26-.8.09-1.54.18-2.24.26-.43.05-.85.11-1.26.16-.41.05-.83.11-1.26.16l3.15-10.46c.37-1.25.8-2.68,1.28-4.27.48-1.6.96-3.23,1.46-4.91s.96-3.26,1.4-4.73c.44-1.48.79-2.72,1.06-3.73,1.81-.13,3.65-.29,5.53-.48s3.71-.44,5.49-.76c-.13,1.49-.26,3.18-.38,5.05s-.23,3.81-.32,5.81c-.09,2-.19,3.97-.3,5.91-.05,1.84-.12,3.73-.2,5.69s-.16,3.96-.24,6.01c-.4.05-.8.11-1.2.16-.4.05-.8.11-1.2.16-.67.11-1.4.23-2.2.36-.8.13-1.52.25-2.16.36ZM1013.02,784.21c.16,0,.46-.01.9-.04.44-.03.86-.05,1.26-.08.4-.03.64-.04.72-.04,0-.35.05-1.05.16-2.12s.21-2.18.32-3.35c.05-.69.11-1.4.18-2.14s.14-1.48.22-2.26l.24-3.47-.6.04-.92,3.43-2.48,10.02Z"/>
        <path class="cls-9" d="M1021.93,795.07l2.08-10.38c.32-1.92.67-3.89,1.04-5.91.37-2.02.73-4.02,1.06-5.99.33-1.97.59-3.82.78-5.55,1.52-.48,3.15-.83,4.91-1.06s3.5-.34,5.23-.34c2.02,0,3.4.44,4.13,1.32.73.88,1.1,2.06,1.1,3.55,0,1.36-.32,2.72-.96,4.09-.64,1.37-1.47,2.61-2.5,3.71-1.02,1.1-2.15,1.98-3.37,2.62.48,1.06.99,2.23,1.54,3.49.55,1.26,1.06,2.47,1.54,3.61.27.67.54,1.33.82,2,.28.67.55,1.33.82,2l-6.19,2.16-1.44-4.79c-.4-1.33-.77-2.62-1.1-3.85-.33-1.24-.53-2.11-.58-2.62l-.52.16c-.08.43-.17.89-.26,1.38-.09.49-.19,1.03-.3,1.62-.11.59-.21,1.15-.32,1.7-.11.55-.21,1.09-.32,1.62l-.72,3.79-6.47,1.68ZM1031.31,777.74c.48-.05,1.07-.26,1.78-.62.71-.36,1.41-.81,2.12-1.34.71-.53,1.3-1.08,1.78-1.64.48-.56.72-1.05.72-1.48,0-.53-.31-.89-.94-1.06-.63-.17-1.45-.26-2.46-.26h-.88c-.16.03-.31.04-.44.04h-.4l-1.28,6.35Z"/>
        <path class="cls-9" d="M1049.85,794.95c.05-.45.11-.89.16-1.32s.11-.85.16-1.28l.24-2.24c.03-.37.05-.72.08-1.04.03-.32.05-.61.08-.88h-3.47l-1.6,5.75c-.59.08-1.28.17-2.08.26-.8.09-1.54.18-2.24.26-.43.05-.85.11-1.26.16-.41.05-.83.11-1.26.16l3.15-10.46c.37-1.25.8-2.68,1.28-4.27.48-1.6.96-3.23,1.46-4.91.49-1.68.96-3.26,1.4-4.73.44-1.48.79-2.72,1.06-3.73,1.81-.13,3.65-.29,5.53-.48s3.71-.44,5.49-.76c-.13,1.49-.26,3.18-.38,5.05s-.23,3.81-.32,5.81c-.09,2-.19,3.97-.3,5.91-.05,1.84-.12,3.73-.2,5.69s-.16,3.96-.24,6.01c-.4.05-.8.11-1.2.16-.4.05-.8.11-1.2.16-.67.11-1.4.23-2.2.36-.8.13-1.52.25-2.16.36ZM1048.05,784.21c.16,0,.46-.01.9-.04.44-.03.86-.05,1.26-.08.4-.03.64-.04.72-.04,0-.35.05-1.05.16-2.12.11-1.06.21-2.18.32-3.35.05-.69.11-1.4.18-2.14s.14-1.48.22-2.26l.24-3.47-.6.04-.92,3.43-2.48,10.02Z"/>
        <path class="cls-9" d="M1068.78,795.07c-.75,0-1.55-.16-2.42-.48-.87-.32-1.82-.87-2.86-1.64l2.76-6.15c.13.27.39.5.78.7.39.2.8.3,1.26.3.35,0,.65-.28.92-.84.27-.56.49-1.24.66-2.04.17-.8.31-1.55.42-2.26.11-.71.17-1.2.2-1.5.27-1.3.52-2.6.76-3.87.24-1.28.47-2.57.68-3.87.21-1.28.46-2.56.74-3.83.28-1.28.57-2.56.86-3.83,1.2-.11,2.38-.27,3.54-.5,1.16-.23,2.32-.5,3.49-.82-.4,1.36-.81,2.9-1.24,4.61s-.84,3.49-1.24,5.33c-.4,1.84-.78,3.62-1.14,5.35-.36,1.73-.67,3.29-.94,4.67-.24,1.12-.53,2.3-.88,3.53s-.8,2.4-1.36,3.47c-.56,1.08-1.25,1.96-2.06,2.64-.81.68-1.79,1.02-2.94,1.02Z"/>
        <path class="cls-9" d="M1082.32,795.75c-.8,0-1.61-.17-2.44-.52-.83-.35-1.52-.88-2.08-1.6-.56-.72-.84-1.64-.84-2.76v-.32c0-.13.01-.24.04-.32.08-.69.19-1.6.34-2.72.15-1.12.33-2.34.54-3.65.21-1.32.43-2.63.66-3.93.23-1.3.43-2.49.62-3.55.4-2.13.72-3.85.96-5.15.24-1.3.43-2.31.58-3.02.15-.71.26-1.23.34-1.58.29-.03.6-.06.94-.1.33-.04.69-.07,1.06-.1.37-.05.74-.09,1.1-.12.36-.03.71-.05,1.06-.08l2.44-.24c-.35,1.62-.67,3.16-.98,4.61s-.59,2.83-.86,4.13l-1.84,8.83c-.16.67-.28,1.22-.36,1.68-.11.43-.22.97-.34,1.62-.12.65-.18,1.25-.18,1.78,0,.43.11.78.32,1.06.21.28.48.42.8.42.45,0,.83-.17,1.12-.52.29-.35.53-.77.72-1.28.19-.51.33-1.02.44-1.54.11-.52.2-.94.28-1.26.27-1.22.51-2.42.74-3.57.23-1.16.47-2.39.72-3.69.25-1.3.54-2.81.86-4.51.21-1.17.43-2.36.66-3.58.23-1.21.45-2.44.66-3.69l6.07-.4c-.48,2.56-.95,5.13-1.4,7.71-.19.99-.39,2.09-.62,3.31-.23,1.23-.47,2.46-.74,3.71-.27,1.25-.51,2.44-.74,3.55-.23,1.12-.43,2.08-.62,2.88-.53,2.18-1.36,3.89-2.48,5.13-1.12,1.24-2.35,2.11-3.69,2.62-1.34.51-2.63.76-3.85.76Z"/>
        <path class="cls-9" d="M1101.36,795.99c-.98,0-1.92-.21-2.82-.64-.89-.43-1.66-1.08-2.3-1.96-.67-.85-1.18-1.93-1.56-3.23s-.56-2.84-.56-4.59c0-3.43.49-6.43,1.48-8.99.98-2.56,2.24-4.69,3.75-6.39,1.49-1.7,3.1-2.97,4.81-3.79,1.72-.83,3.32-1.24,4.81-1.24s2.61.31,3.51.94c.91.63,1.57,1.46,2,2.5.43,1.04.64,2.2.64,3.47l-5.47,1.04c-.24-1.06-.56-1.82-.96-2.28-.4-.45-.85-.68-1.36-.68-.59,0-1.19.32-1.82.96-.63.64-1.24,1.5-1.84,2.58s-1.14,2.28-1.62,3.61c-.48,1.33-.87,2.7-1.18,4.11-.31,1.41-.49,2.74-.54,3.99,0,1.65.25,2.83.74,3.53.49.71,1.12,1.06,1.9,1.06s1.48-.24,2.22-.72c.73-.48,1.34-1.12,1.84-1.94.49-.81.75-1.72.78-2.74l-4.27.64.76-3.95,3.67-.48c1.01-.13,2.08-.29,3.22-.48,1.13-.19,2.12-.36,2.98-.52-.19,2.72-.71,5.09-1.58,7.13-.87,2.04-1.94,3.72-3.21,5.05-1.28,1.33-2.62,2.33-4.01,2.99s-2.74,1-4.01,1Z"/>
        <path class="cls-9" d="M1122.73,794.95c.05-.45.11-.89.16-1.32s.11-.85.16-1.28l.24-2.24c.03-.37.05-.72.08-1.04.03-.32.05-.61.08-.88h-3.47l-1.6,5.75c-.59.08-1.28.17-2.08.26-.8.09-1.54.18-2.24.26-.43.05-.85.11-1.26.16-.41.05-.83.11-1.26.16l3.15-10.46c.37-1.25.8-2.68,1.28-4.27.48-1.6.96-3.23,1.46-4.91.49-1.68.96-3.26,1.4-4.73.44-1.48.79-2.72,1.06-3.73,1.81-.13,3.65-.29,5.53-.48s3.71-.44,5.49-.76c-.13,1.49-.26,3.18-.38,5.05-.12,1.88-.23,3.81-.32,5.81-.09,2-.19,3.97-.3,5.91-.05,1.84-.12,3.73-.2,5.69s-.16,3.96-.24,6.01c-.4.05-.8.11-1.2.16-.4.05-.8.11-1.2.16-.67.11-1.4.23-2.2.36-.8.13-1.52.25-2.16.36ZM1120.94,784.21c.16,0,.46-.01.9-.04.44-.03.86-.05,1.26-.08.4-.03.64-.04.72-.04,0-.35.05-1.05.16-2.12s.21-2.18.32-3.35c.05-.69.11-1.4.18-2.14s.14-1.48.22-2.26l.24-3.47-.6.04-.92,3.43-2.48,10.02Z"/>
        <path class="cls-9" d="M1129.84,795.07l2.08-10.38c.32-1.92.67-3.89,1.04-5.91.37-2.02.73-4.02,1.06-5.99s.59-3.82.78-5.55c1.52-.48,3.15-.83,4.91-1.06s3.5-.34,5.23-.34c2.02,0,3.4.44,4.13,1.32s1.1,2.06,1.1,3.55c0,1.36-.32,2.72-.96,4.09-.64,1.37-1.47,2.61-2.5,3.71-1.02,1.1-2.15,1.98-3.37,2.62.48,1.06.99,2.23,1.54,3.49.55,1.26,1.06,2.47,1.54,3.61.27.67.54,1.33.82,2,.28.67.55,1.33.82,2l-6.19,2.16-1.44-4.79c-.4-1.33-.77-2.62-1.1-3.85-.33-1.24-.53-2.11-.58-2.62l-.52.16c-.08.43-.17.89-.26,1.38-.09.49-.19,1.03-.3,1.62-.11.59-.21,1.15-.32,1.7-.11.55-.21,1.09-.32,1.62l-.72,3.79-6.47,1.68ZM1139.23,777.74c.48-.05,1.07-.26,1.78-.62.71-.36,1.41-.81,2.12-1.34.71-.53,1.3-1.08,1.78-1.64.48-.56.72-1.05.72-1.48,0-.53-.31-.89-.94-1.06-.63-.17-1.45-.26-2.46-.26h-.88c-.16.03-.31.04-.44.04h-.4l-1.28,6.35Z"/>
      </g>
      <g class="cls-18">
        <path class="cls-9" d="M675.26,837.41c.8-3.59,1.56-7.11,2.28-10.54.29-1.38.59-2.87.9-4.45.31-1.58.62-3.19.94-4.81.32-1.62.61-3.16.88-4.61s.48-2.72.64-3.81c1.06-.32,2.22-.61,3.46-.88,1.24-.27,2.35-.4,3.33-.4,1.6,0,2.86.34,3.79,1.02.93.68,1.6,1.59,2,2.74.4,1.14.6,2.4.6,3.75,0,1.49-.27,2.92-.82,4.29-.55,1.37-1.28,2.6-2.2,3.69-.92,1.09-1.97,1.96-3.16,2.6-1.18.64-2.42.96-3.69.96h-.44c-.21.91-.41,1.89-.6,2.96-.19,1.06-.35,2.05-.48,2.95-.11.53-.2,1.07-.28,1.6-.08.53-.16,1.07-.24,1.6l-6.91,1.36ZM684.56,822.75c.61-.16,1.22-.57,1.84-1.22.61-.65,1.12-1.48,1.52-2.5.4-1.01.6-2.12.6-3.31,0-.98-.22-1.73-.66-2.24-.44-.51-.93-.76-1.46-.76-.29,1.76-.59,3.42-.88,4.99-.29,1.57-.61,3.25-.96,5.03Z"/>
        <path class="cls-9" d="M690.67,837.41l2.08-10.38c.32-1.92.67-3.89,1.04-5.91.37-2.02.73-4.02,1.06-5.99.33-1.97.59-3.82.78-5.55,1.52-.48,3.15-.83,4.91-1.06s3.5-.34,5.23-.34c2.02,0,3.4.44,4.13,1.32s1.1,2.06,1.1,3.55c0,1.36-.32,2.72-.96,4.09-.64,1.37-1.47,2.61-2.5,3.71-1.02,1.1-2.15,1.98-3.37,2.62.48,1.06.99,2.23,1.54,3.49.55,1.26,1.06,2.47,1.54,3.61.27.67.54,1.33.82,2,.28.67.55,1.33.82,2l-6.19,2.16-1.44-4.79c-.4-1.33-.77-2.62-1.1-3.85-.33-1.24-.53-2.11-.58-2.62l-.52.16c-.08.43-.17.89-.26,1.38-.09.49-.19,1.03-.3,1.62-.11.59-.21,1.15-.32,1.7-.11.55-.21,1.09-.32,1.62l-.72,3.79-6.47,1.68ZM700.06,820.08c.48-.05,1.07-.26,1.78-.62.71-.36,1.41-.81,2.12-1.34.71-.53,1.3-1.08,1.78-1.64.48-.56.72-1.05.72-1.48,0-.53-.31-.89-.94-1.06-.63-.17-1.45-.26-2.46-.26h-.88c-.16.03-.31.04-.44.04h-.4l-1.28,6.35Z"/>
        <path class="cls-9" d="M708.57,837.41l5.23-28.4,12.62-1.08c-.19.59-.35,1.18-.48,1.8-.13.51-.26,1.03-.38,1.58s-.22,1.03-.3,1.46c-.35.03-.84.05-1.48.06-.64.01-1.29.03-1.96.04-.67.01-1.24.02-1.72.02h-.76l-1.4,7.15,2.32-.12c.29-.03.59-.04.9-.04h1.7c.24,0,.43-.01.56-.04-.05.37-.1.74-.14,1.1-.04.36-.09.73-.14,1.1l-.36,2.2c-.13.03-.31.04-.52.04h-.76c-.29.03-.6.04-.92.04s-.63.01-.92.04c-.35.03-.71.04-1.08.04s-.77.01-1.2.04l-1.36,7.35,5.83-.92-.4,4.55-12.9,2Z"/>
        <path class="cls-9" d="M728.7,837.45c-1.06,0-2.13-.29-3.19-.86-1.07-.57-2.09-1.48-3.08-2.74l2.96-5.79c.29.51.72.98,1.3,1.44.57.45,1.18.81,1.82,1.08s1.18.4,1.64.4c.69,0,1.35-.21,1.98-.64.63-.43.94-1,.94-1.72,0-.93-.43-1.78-1.28-2.56s-1.81-1.53-2.88-2.28c-1.04-.75-1.99-1.59-2.86-2.54s-1.3-2.03-1.3-3.26c0-1.38.4-2.67,1.2-3.85.8-1.18,1.84-2.22,3.11-3.11,1.28-.89,2.64-1.58,4.09-2.08,1.45-.49,2.83-.74,4.13-.74.93,0,1.8.15,2.6.46s1.44.81,1.92,1.5c.48.69.72,1.62.72,2.8,0,.19,0,.37-.02.56-.01.19-.03.37-.06.56s-.06.38-.1.58c-.04.2-.07.41-.1.62l-5.79,1.68c.05-.21.1-.43.14-.64.04-.21.06-.43.06-.64,0-.8-.14-1.38-.42-1.74-.28-.36-.65-.54-1.1-.54-.24,0-.59.13-1.04.38s-.86.6-1.22,1.04c-.36.44-.54.92-.54,1.46,0,.88.37,1.6,1.1,2.18.73.57,1.58,1.15,2.54,1.74.45.27.96.69,1.52,1.26.56.57,1.05,1.34,1.46,2.32.41.97.62,2.22.62,3.73,0,1.97-.49,3.7-1.46,5.19-.97,1.49-2.28,2.66-3.93,3.49-1.65.84-3.47,1.26-5.47,1.26Z"/>
        <path class="cls-9" d="M739.24,837.33c.37-1.54.75-3.3,1.12-5.25.37-1.96.75-3.99,1.12-6.09.37-2.1.72-4.13,1.04-6.07.29-1.7.58-3.43.86-5.19.28-1.76.55-3.53.82-5.31l6.23-1-1.8,10.5c-.4,2.48-.75,4.7-1.06,6.67-.31,1.97-.6,3.83-.88,5.59-.28,1.76-.57,3.55-.86,5.39-.51,0-1.12.03-1.84.1-.72.07-1.44.15-2.16.24-.72.09-1.33.18-1.82.26s-.75.13-.78.16Z"/>
        <path class="cls-9" d="M754.34,837.53c-1.76,0-3.19-.68-4.31-2.04-1.12-1.36-1.68-3.41-1.68-6.15,0-1.52.19-3.12.56-4.79.37-1.68.89-3.33,1.56-4.95.67-1.62,1.44-3.13,2.32-4.51,1.41-2.24,3.04-4.06,4.87-5.47,1.84-1.41,3.77-2.12,5.79-2.12,1.6,0,2.83.41,3.69,1.22.87.81,1.47,1.85,1.82,3.11.35,1.26.52,2.58.52,3.93,0,3.17-.49,6.12-1.46,8.85-.97,2.73-2.23,5.04-3.77,6.93-1.54,1.94-3.19,3.43-4.93,4.45-1.74,1.02-3.4,1.54-4.97,1.54ZM756.49,830.94c1.2,0,2.26-.4,3.17-1.2.92-.8,1.7-1.82,2.34-3.06.64-1.24,1.12-2.54,1.44-3.89.32-1.36.48-2.58.48-3.67,0-.43-.04-.89-.12-1.38s-.25-.92-.52-1.3c-.27-.37-.68-.56-1.24-.56-1.22,0-2.33.45-3.31,1.34s-1.81,2.02-2.48,3.37c-.67,1.38-1.16,2.74-1.48,4.07-.32,1.33-.48,2.54-.48,3.63,0,.56.2,1.14.6,1.74.4.6.93.9,1.6.9Z"/>
        <path class="cls-9" d="M767,837.57c.8-3.83,1.56-7.55,2.28-11.14.59-3.38,1.16-6.63,1.72-9.74.56-3.11.96-5.98,1.2-8.59.19.03.35.04.5.04h1.22c.69,0,1.46-.02,2.32-.06.85-.04,1.64-.07,2.36-.1.19.93.37,1.85.54,2.76.17.91.33,1.78.46,2.64.13.75.28,1.51.44,2.3.16.79.32,1.58.48,2.38.13.8.27,1.54.42,2.22.15.68.27,1.3.38,1.86.32-1.57.62-3.11.9-4.63s.55-2.89.82-4.11l1.16-5.35,4.87-.6c-.45,2.02-.88,4.01-1.28,5.95-.4,1.94-.77,3.82-1.12,5.63-.67,3.25-1.25,6.31-1.76,9.19s-.89,5.38-1.16,7.51c.29,0,.25.03-.14.1-.39.07-.95.16-1.7.28-.75.12-1.54.27-2.4.46-.85.19-1.61.41-2.28.68-.08-1.06-.16-2.1-.24-3.11-.08-1.01-.17-2-.28-2.96-.16-1.7-.35-3.39-.56-5.07-.21-1.68-.43-3.01-.64-3.99-.19,1.17-.41,2.51-.68,4.01-.27,1.5-.56,3.02-.88,4.53l-1.12,5.59-5.83,1.36Z"/>
        <path class="cls-9" d="M795.19,837.29c.05-.45.11-.89.16-1.32s.11-.85.16-1.28l.24-2.24c.03-.37.05-.72.08-1.04.03-.32.05-.61.08-.88h-3.47l-1.6,5.75c-.59.08-1.28.17-2.08.26-.8.09-1.54.18-2.24.26-.43.05-.85.11-1.26.16-.41.05-.83.11-1.26.16l3.15-10.46c.37-1.25.8-2.68,1.28-4.27.48-1.6.96-3.23,1.46-4.91.49-1.68.96-3.26,1.4-4.73.44-1.48.79-2.72,1.06-3.73,1.81-.13,3.65-.29,5.53-.48s3.71-.44,5.49-.76c-.13,1.49-.26,3.18-.38,5.05s-.23,3.81-.32,5.81c-.09,2-.19,3.97-.3,5.91-.05,1.84-.12,3.73-.2,5.69s-.16,3.96-.24,6.01c-.4.05-.8.11-1.2.16-.4.05-.8.11-1.2.16-.67.11-1.4.23-2.2.36-.8.13-1.52.25-2.16.36ZM793.4,826.54c.16,0,.46-.01.9-.04.44-.03.86-.05,1.26-.08.4-.03.64-.04.72-.04,0-.35.05-1.05.16-2.12.11-1.06.21-2.18.32-3.35.05-.69.11-1.4.18-2.14s.14-1.48.22-2.26l.24-3.47-.6.04-.92,3.43-2.48,10.02Z"/>
        <path class="cls-9" d="M810.09,837.41l2.08-10.38c.32-1.92.67-3.89,1.04-5.91.37-2.02.73-4.02,1.06-5.99.33-1.97.59-3.82.78-5.55,1.52-.48,3.15-.83,4.91-1.06s3.5-.34,5.23-.34c2.02,0,3.4.44,4.13,1.32s1.1,2.06,1.1,3.55c0,1.36-.32,2.72-.96,4.09-.64,1.37-1.47,2.61-2.5,3.71-1.02,1.1-2.15,1.98-3.37,2.62.48,1.06.99,2.23,1.54,3.49.55,1.26,1.06,2.47,1.54,3.61.27.67.54,1.33.82,2,.28.67.55,1.33.82,2l-6.19,2.16-1.44-4.79c-.4-1.33-.77-2.62-1.1-3.85-.33-1.24-.53-2.11-.58-2.62l-.52.16c-.08.43-.17.89-.26,1.38-.09.49-.19,1.03-.3,1.62-.11.59-.21,1.15-.32,1.7-.11.55-.21,1.09-.32,1.62l-.72,3.79-6.47,1.68ZM819.48,820.08c.48-.05,1.07-.26,1.78-.62.71-.36,1.41-.81,2.12-1.34.71-.53,1.3-1.08,1.78-1.64.48-.56.72-1.05.72-1.48,0-.53-.31-.89-.94-1.06-.63-.17-1.45-.26-2.46-.26h-.88c-.16.03-.31.04-.44.04h-.4l-1.28,6.35Z"/>
        <path class="cls-9" d="M835.33,837.41c.8-3.59,1.56-7.11,2.28-10.54.29-1.38.59-2.87.9-4.45.31-1.58.62-3.19.94-4.81.32-1.62.61-3.16.88-4.61s.48-2.72.64-3.81c1.06-.32,2.22-.61,3.46-.88,1.24-.27,2.35-.4,3.33-.4,1.6,0,2.86.34,3.79,1.02.93.68,1.6,1.59,2,2.74.4,1.14.6,2.4.6,3.75,0,1.49-.27,2.92-.82,4.29-.55,1.37-1.28,2.6-2.2,3.69s-1.97,1.96-3.16,2.6c-1.18.64-2.42.96-3.69.96h-.44c-.21.91-.41,1.89-.6,2.96-.19,1.06-.35,2.05-.48,2.95-.11.53-.2,1.07-.28,1.6-.08.53-.16,1.07-.24,1.6l-6.91,1.36ZM844.64,822.75c.61-.16,1.22-.57,1.84-1.22.61-.65,1.12-1.48,1.52-2.5.4-1.01.6-2.12.6-3.31,0-.98-.22-1.73-.66-2.24-.44-.51-.93-.76-1.46-.76-.29,1.76-.59,3.42-.88,4.99-.29,1.57-.61,3.25-.96,5.03Z"/>
        <path class="cls-9" d="M860.93,837.29c.05-.45.11-.89.16-1.32s.11-.85.16-1.28l.24-2.24c.03-.37.05-.72.08-1.04.03-.32.05-.61.08-.88h-3.47l-1.6,5.75c-.59.08-1.28.17-2.08.26-.8.09-1.54.18-2.24.26-.43.05-.85.11-1.26.16-.41.05-.83.11-1.26.16l3.15-10.46c.37-1.25.8-2.68,1.28-4.27.48-1.6.96-3.23,1.46-4.91.49-1.68.96-3.26,1.4-4.73.44-1.48.79-2.72,1.06-3.73,1.81-.13,3.65-.29,5.53-.48s3.71-.44,5.49-.76c-.13,1.49-.26,3.18-.38,5.05s-.23,3.81-.32,5.81c-.09,2-.19,3.97-.3,5.91-.05,1.84-.12,3.73-.2,5.69s-.16,3.96-.24,6.01c-.4.05-.8.11-1.2.16-.4.05-.8.11-1.2.16-.67.11-1.4.23-2.2.36-.8.13-1.52.25-2.16.36ZM859.14,826.54c.16,0,.46-.01.9-.04.44-.03.86-.05,1.26-.08.4-.03.64-.04.72-.04,0-.35.05-1.05.16-2.12s.21-2.18.32-3.35c.05-.69.11-1.4.18-2.14s.14-1.48.22-2.26l.24-3.47-.6.04-.92,3.43-2.48,10.02Z"/>
        <path class="cls-9" d="M868.04,837.41l2.08-10.38c.32-1.92.67-3.89,1.04-5.91.37-2.02.73-4.02,1.06-5.99s.59-3.82.78-5.55c1.52-.48,3.15-.83,4.91-1.06s3.5-.34,5.23-.34c2.02,0,3.4.44,4.13,1.32s1.1,2.06,1.1,3.55c0,1.36-.32,2.72-.96,4.09-.64,1.37-1.47,2.61-2.5,3.71-1.02,1.1-2.15,1.98-3.37,2.62.48,1.06.99,2.23,1.54,3.49.55,1.26,1.06,2.47,1.54,3.61.27.67.54,1.33.82,2,.28.67.55,1.33.82,2l-6.19,2.16-1.44-4.79c-.4-1.33-.77-2.62-1.1-3.85-.33-1.24-.53-2.11-.58-2.62l-.52.16c-.08.43-.17.89-.26,1.38-.09.49-.19,1.03-.3,1.62-.11.59-.21,1.15-.32,1.7-.11.55-.21,1.09-.32,1.62l-.72,3.79-6.47,1.68ZM877.43,820.08c.48-.05,1.07-.26,1.78-.62.71-.36,1.41-.81,2.12-1.34.71-.53,1.3-1.08,1.78-1.64.48-.56.72-1.05.72-1.48,0-.53-.31-.89-.94-1.06-.63-.17-1.45-.26-2.46-.26h-.88c-.16.03-.31.04-.44.04h-.4l-1.28,6.35Z"/>
        <path class="cls-9" d="M895.96,837.29c.05-.45.11-.89.16-1.32s.11-.85.16-1.28l.24-2.24c.03-.37.05-.72.08-1.04.03-.32.05-.61.08-.88h-3.47l-1.6,5.75c-.59.08-1.28.17-2.08.26-.8.09-1.54.18-2.24.26-.43.05-.85.11-1.26.16-.41.05-.83.11-1.26.16l3.15-10.46c.37-1.25.8-2.68,1.28-4.27.48-1.6.96-3.23,1.46-4.91.49-1.68.96-3.26,1.4-4.73.44-1.48.79-2.72,1.06-3.73,1.81-.13,3.65-.29,5.53-.48s3.71-.44,5.49-.76c-.13,1.49-.26,3.18-.38,5.05s-.23,3.81-.32,5.81c-.09,2-.19,3.97-.3,5.91-.05,1.84-.12,3.73-.2,5.69-.08,1.96-.16,3.96-.24,6.01-.4.05-.8.11-1.2.16-.4.05-.8.11-1.2.16-.67.11-1.4.23-2.2.36-.8.13-1.52.25-2.16.36ZM894.16,826.54c.16,0,.46-.01.9-.04.44-.03.86-.05,1.26-.08.4-.03.64-.04.72-.04,0-.35.05-1.05.16-2.12s.21-2.18.32-3.35c.05-.69.11-1.4.18-2.14s.14-1.48.22-2.26l.24-3.47-.6.04-.92,3.43-2.48,10.02Z"/>
        <path class="cls-9" d="M910.86,837.41l2.08-10.38c.32-1.92.67-3.89,1.04-5.91.37-2.02.73-4.02,1.06-5.99.33-1.97.59-3.82.78-5.55,1.52-.48,3.15-.83,4.91-1.06s3.5-.34,5.23-.34c2.02,0,3.4.44,4.13,1.32s1.1,2.06,1.1,3.55c0,1.36-.32,2.72-.96,4.09-.64,1.37-1.47,2.61-2.5,3.71-1.02,1.1-2.15,1.98-3.37,2.62.48,1.06.99,2.23,1.54,3.49.55,1.26,1.06,2.47,1.54,3.61.27.67.54,1.33.82,2,.28.67.55,1.33.82,2l-6.19,2.16-1.44-4.79c-.4-1.33-.77-2.62-1.1-3.85-.33-1.24-.53-2.11-.58-2.62l-.52.16c-.08.43-.17.89-.26,1.38-.09.49-.19,1.03-.3,1.62-.11.59-.21,1.15-.32,1.7-.11.55-.21,1.09-.32,1.62l-.72,3.79-6.47,1.68ZM920.24,820.08c.48-.05,1.07-.26,1.78-.62.71-.36,1.41-.81,2.12-1.34.71-.53,1.3-1.08,1.78-1.64.48-.56.72-1.05.72-1.48,0-.53-.31-.89-.94-1.06-.63-.17-1.45-.26-2.46-.26h-.88c-.16.03-.31.04-.44.04h-.4l-1.28,6.35Z"/>
        <path class="cls-9" d="M928.75,837.41l5.23-28.4,12.62-1.08c-.19.59-.35,1.18-.48,1.8-.13.51-.26,1.03-.38,1.58s-.22,1.03-.3,1.46c-.35.03-.84.05-1.48.06-.64.01-1.29.03-1.96.04-.67.01-1.24.02-1.72.02h-.76l-1.4,7.15,2.32-.12c.29-.03.59-.04.9-.04h1.7c.24,0,.43-.01.56-.04-.05.37-.1.74-.14,1.1-.04.36-.09.73-.14,1.1l-.36,2.2c-.13.03-.31.04-.52.04h-.76c-.29.03-.6.04-.92.04s-.63.01-.92.04c-.35.03-.71.04-1.08.04s-.77.01-1.2.04l-1.36,7.35,5.83-.92-.4,4.55-12.9,2Z"/>
        <path class="cls-9" d="M942.25,837.33c.37-1.54.75-3.3,1.12-5.25.37-1.96.75-3.99,1.12-6.09.37-2.1.72-4.13,1.04-6.07.29-1.7.58-3.43.86-5.19.28-1.76.55-3.53.82-5.31l6.23-1-1.8,10.5c-.4,2.48-.75,4.7-1.06,6.67-.31,1.97-.6,3.83-.88,5.59-.28,1.76-.57,3.55-.86,5.39-.51,0-1.12.03-1.84.1-.72.07-1.44.15-2.16.24-.72.09-1.33.18-1.82.26s-.75.13-.78.16Z"/>
        <path class="cls-9" d="M950.32,837.57c.8-3.83,1.56-7.55,2.28-11.14.59-3.38,1.16-6.63,1.72-9.74.56-3.11.96-5.98,1.2-8.59.19.03.35.04.5.04h1.22c.69,0,1.46-.02,2.32-.06.85-.04,1.64-.07,2.36-.1.19.93.37,1.85.54,2.76.17.91.33,1.78.46,2.64.13.75.28,1.51.44,2.3.16.79.32,1.58.48,2.38.13.8.27,1.54.42,2.22.15.68.27,1.3.38,1.86.32-1.57.62-3.11.9-4.63s.55-2.89.82-4.11l1.16-5.35,4.87-.6c-.45,2.02-.88,4.01-1.28,5.95-.4,1.94-.77,3.82-1.12,5.63-.67,3.25-1.25,6.31-1.76,9.19-.51,2.88-.89,5.38-1.16,7.51.29,0,.25.03-.14.1-.39.07-.95.16-1.7.28-.75.12-1.54.27-2.4.46-.85.19-1.61.41-2.28.68-.08-1.06-.16-2.1-.24-3.11-.08-1.01-.17-2-.28-2.96-.16-1.7-.35-3.39-.56-5.07-.21-1.68-.43-3.01-.64-3.99-.19,1.17-.41,2.51-.68,4.01-.27,1.5-.56,3.02-.88,4.53l-1.12,5.59-5.83,1.36Z"/>
        <path class="cls-9" d="M968.37,837.33c.37-1.54.75-3.3,1.12-5.25.37-1.96.75-3.99,1.12-6.09.37-2.1.72-4.13,1.04-6.07.29-1.7.58-3.43.86-5.19.28-1.76.55-3.53.82-5.31l6.23-1-1.8,10.5c-.4,2.48-.75,4.7-1.06,6.67-.31,1.97-.6,3.83-.88,5.59-.28,1.76-.57,3.55-.86,5.39-.51,0-1.12.03-1.84.1-.72.07-1.44.15-2.16.24-.72.09-1.33.18-1.82.26s-.75.13-.78.16Z"/>
        <path class="cls-9" d="M983.5,837.45c-1.68,0-3.05-.79-4.11-2.36s-1.6-3.73-1.6-6.47c0-2.5.35-4.97,1.04-7.41s1.66-4.63,2.92-6.57c1.25-1.94,2.74-3.51,4.45-4.69,1.72-1.18,3.61-1.78,5.69-1.78,1.3,0,2.42.51,3.35,1.52.93,1.01,1.4,2.37,1.4,4.07v.76c0,.08-.01.17-.04.28l-5.23,1.4c-.32-.67-.69-1-1.12-1-.64,0-1.31.52-2.02,1.56-.71,1.04-1.38,2.28-2.02,3.71-.43.96-.81,1.94-1.14,2.96-.33,1.01-.59,1.96-.78,2.84s-.28,1.6-.28,2.16c0,.83.12,1.42.36,1.8.19.35.48.52.88.52s.84-.19,1.32-.58c.48-.39.92-.87,1.34-1.46.41-.59.68-1.17.82-1.76l4.55,1.84c-1.3,2.98-2.86,5.17-4.65,6.57-1.8,1.4-3.51,2.1-5.13,2.1Z"/>
        <path class="cls-9" d="M992.97,837.33c.37-1.54.75-3.3,1.12-5.25.37-1.96.75-3.99,1.12-6.09.37-2.1.72-4.13,1.04-6.07.29-1.7.58-3.43.86-5.19.28-1.76.55-3.53.82-5.31l6.23-1-1.8,10.5c-.4,2.48-.75,4.7-1.06,6.67-.31,1.97-.6,3.83-.88,5.59-.28,1.76-.57,3.55-.86,5.39-.51,0-1.12.03-1.84.1-.72.07-1.44.15-2.16.24-.72.09-1.33.18-1.82.26s-.75.13-.78.16Z"/>
        <path class="cls-9" d="M1011.18,837.29c.05-.45.11-.89.16-1.32s.11-.85.16-1.28l.24-2.24c.03-.37.05-.72.08-1.04.03-.32.05-.61.08-.88h-3.47l-1.6,5.75c-.59.08-1.28.17-2.08.26-.8.09-1.54.18-2.24.26-.43.05-.85.11-1.26.16-.41.05-.83.11-1.26.16l3.15-10.46c.37-1.25.8-2.68,1.28-4.27.48-1.6.96-3.23,1.46-4.91s.96-3.26,1.4-4.73c.44-1.48.79-2.72,1.06-3.73,1.81-.13,3.65-.29,5.53-.48s3.71-.44,5.49-.76c-.13,1.49-.26,3.18-.38,5.05s-.23,3.81-.32,5.81c-.09,2-.19,3.97-.3,5.91-.05,1.84-.12,3.73-.2,5.69s-.16,3.96-.24,6.01c-.4.05-.8.11-1.2.16-.4.05-.8.11-1.2.16-.67.11-1.4.23-2.2.36-.8.13-1.52.25-2.16.36ZM1009.39,826.54c.16,0,.46-.01.9-.04.44-.03.86-.05,1.26-.08.4-.03.64-.04.72-.04,0-.35.05-1.05.16-2.12s.21-2.18.32-3.35c.05-.69.11-1.4.18-2.14s.14-1.48.22-2.26l.24-3.47-.6.04-.92,3.43-2.48,10.02Z"/>
        <path class="cls-9" d="M1018.29,837.41l2.08-10.38c.32-1.92.67-3.89,1.04-5.91.37-2.02.73-4.02,1.06-5.99.33-1.97.59-3.82.78-5.55,1.52-.48,3.15-.83,4.91-1.06s3.5-.34,5.23-.34c2.02,0,3.4.44,4.13,1.32s1.1,2.06,1.1,3.55c0,1.36-.32,2.72-.96,4.09-.64,1.37-1.47,2.61-2.5,3.71-1.02,1.1-2.15,1.98-3.37,2.62.48,1.06.99,2.23,1.54,3.49.55,1.26,1.06,2.47,1.54,3.61.27.67.54,1.33.82,2,.28.67.55,1.33.82,2l-6.19,2.16-1.44-4.79c-.4-1.33-.77-2.62-1.1-3.85-.33-1.24-.53-2.11-.58-2.62l-.52.16c-.08.43-.17.89-.26,1.38-.09.49-.19,1.03-.3,1.62-.11.59-.21,1.15-.32,1.7-.11.55-.21,1.09-.32,1.62l-.72,3.79-6.47,1.68ZM1027.68,820.08c.48-.05,1.07-.26,1.78-.62.71-.36,1.41-.81,2.12-1.34.71-.53,1.3-1.08,1.78-1.64.48-.56.72-1.05.72-1.48,0-.53-.31-.89-.94-1.06-.63-.17-1.45-.26-2.46-.26h-.88c-.16.03-.31.04-.44.04h-.4l-1.28,6.35Z"/>
        <path class="cls-9" d="M1044.13,837.45c.29-2.1.61-4.22.94-6.35.33-2.13.68-4.19,1.04-6.17.36-1.98.7-3.77,1.02-5.37.35-1.73.69-3.49,1.04-5.27.35-1.78.71-3.58,1.08-5.39l6.99-.92-2.08,9.03c-.37,1.57-.75,3.26-1.14,5.05s-.74,3.53-1.06,5.21-.57,3.17-.76,4.47c.67-.05,1.38-.09,2.14-.1.76-.01,1.43-.02,2.02-.02.03.61.08,1.26.16,1.94s.17,1.26.26,1.76c.09.49.14.77.14.82h-.3c-.09,0-.19-.01-.3-.04h-.64c-1.04,0-2.19.05-3.46.14s-2.52.24-3.75.44c-1.24.2-2.35.46-3.34.78Z"/>
        <path class="cls-9" d="M1066.06,837.29c.05-.45.11-.89.16-1.32s.11-.85.16-1.28l.24-2.24c.03-.37.05-.72.08-1.04.03-.32.05-.61.08-.88h-3.47l-1.6,5.75c-.59.08-1.28.17-2.08.26-.8.09-1.54.18-2.24.26-.43.05-.85.11-1.26.16-.41.05-.83.11-1.26.16l3.15-10.46c.37-1.25.8-2.68,1.28-4.27.48-1.6.96-3.23,1.46-4.91.49-1.68.96-3.26,1.4-4.73.44-1.48.79-2.72,1.06-3.73,1.81-.13,3.65-.29,5.53-.48s3.71-.44,5.49-.76c-.13,1.49-.26,3.18-.38,5.05s-.23,3.81-.32,5.81c-.09,2-.19,3.97-.3,5.91-.05,1.84-.12,3.73-.2,5.69-.08,1.96-.16,3.96-.24,6.01-.4.05-.8.11-1.2.16-.4.05-.8.11-1.2.16-.67.11-1.4.23-2.2.36-.8.13-1.52.25-2.16.36ZM1064.26,826.54c.16,0,.46-.01.9-.04.44-.03.86-.05,1.26-.08.4-.03.64-.04.72-.04,0-.35.05-1.05.16-2.12.11-1.06.21-2.18.32-3.35.05-.69.11-1.4.18-2.14s.14-1.48.22-2.26l.24-3.47-.6.04-.92,3.43-2.48,10.02Z"/>
        <path class="cls-9" d="M1080.68,837.41c.8-3.59,1.56-7.11,2.28-10.54.29-1.38.59-2.87.9-4.45.31-1.58.62-3.19.94-4.81.32-1.62.61-3.16.88-4.61s.48-2.72.64-3.81c1.06-.32,2.22-.61,3.46-.88,1.24-.27,2.35-.4,3.33-.4,1.6,0,2.86.34,3.79,1.02.93.68,1.6,1.59,2,2.74.4,1.14.6,2.4.6,3.75,0,1.49-.27,2.92-.82,4.29-.55,1.37-1.28,2.6-2.2,3.69s-1.97,1.96-3.16,2.6c-1.18.64-2.42.96-3.69.96h-.44c-.21.91-.41,1.89-.6,2.96-.19,1.06-.35,2.05-.48,2.95-.11.53-.2,1.07-.28,1.6-.08.53-.16,1.07-.24,1.6l-6.91,1.36ZM1089.98,822.75c.61-.16,1.22-.57,1.84-1.22.61-.65,1.12-1.48,1.52-2.5.4-1.01.6-2.12.6-3.31,0-.98-.22-1.73-.66-2.24-.44-.51-.93-.76-1.46-.76-.29,1.76-.59,3.42-.88,4.99-.29,1.57-.61,3.25-.96,5.03Z"/>
        <path class="cls-9" d="M1102.52,838.09c-.8,0-1.61-.17-2.44-.52-.83-.35-1.52-.88-2.08-1.6-.56-.72-.84-1.64-.84-2.76v-.32c0-.13.01-.24.04-.32.08-.69.19-1.6.34-2.72.15-1.12.33-2.34.54-3.65.21-1.32.43-2.63.66-3.93.23-1.3.43-2.49.62-3.55.4-2.13.72-3.85.96-5.15.24-1.3.43-2.31.58-3.02.15-.71.26-1.23.34-1.58.29-.03.6-.06.94-.1.33-.04.69-.07,1.06-.1.37-.05.74-.09,1.1-.12.36-.03.71-.05,1.06-.08l2.44-.24c-.35,1.62-.67,3.16-.98,4.61s-.59,2.83-.86,4.13l-1.84,8.83c-.16.67-.28,1.22-.36,1.68-.11.43-.22.97-.34,1.62-.12.65-.18,1.25-.18,1.78,0,.43.11.78.32,1.06.21.28.48.42.8.42.45,0,.83-.17,1.12-.52.29-.35.53-.77.72-1.28.19-.51.33-1.02.44-1.54.11-.52.2-.94.28-1.26.27-1.22.51-2.42.74-3.57.23-1.16.47-2.39.72-3.69.25-1.3.54-2.81.86-4.51.21-1.17.43-2.36.66-3.58.23-1.21.45-2.44.66-3.69l6.07-.4c-.48,2.56-.95,5.13-1.4,7.71-.19.99-.39,2.09-.62,3.31-.23,1.23-.47,2.46-.74,3.71-.27,1.25-.51,2.44-.74,3.55-.23,1.12-.43,2.08-.62,2.88-.53,2.18-1.36,3.89-2.48,5.13-1.12,1.24-2.35,2.11-3.69,2.62-1.34.51-2.63.76-3.85.76Z"/>
        <path class="cls-9" d="M1112.87,837.57c.8-3.83,1.56-7.55,2.28-11.14.59-3.38,1.16-6.63,1.72-9.74.56-3.11.96-5.98,1.2-8.59.19.03.35.04.5.04h1.22c.69,0,1.46-.02,2.32-.06.85-.04,1.64-.07,2.36-.1.19.93.37,1.85.54,2.76.17.91.33,1.78.46,2.64.13.75.28,1.51.44,2.3.16.79.32,1.58.48,2.38.13.8.27,1.54.42,2.22.15.68.27,1.3.38,1.86.32-1.57.62-3.11.9-4.63s.55-2.89.82-4.11l1.16-5.35,4.87-.6c-.45,2.02-.88,4.01-1.28,5.95-.4,1.94-.77,3.82-1.12,5.63-.67,3.25-1.25,6.31-1.76,9.19-.51,2.88-.89,5.38-1.16,7.51.29,0,.25.03-.14.1-.39.07-.95.16-1.7.28-.75.12-1.54.27-2.4.46-.85.19-1.61.41-2.28.68-.08-1.06-.16-2.1-.24-3.11-.08-1.01-.17-2-.28-2.96-.16-1.7-.35-3.39-.56-5.07-.21-1.68-.43-3.01-.64-3.99-.19,1.17-.41,2.51-.68,4.01-.27,1.5-.56,3.02-.88,4.53l-1.12,5.59-5.83,1.36Z"/>
        <path class="cls-9" d="M1134.31,837.41c.29-1.46.59-2.92.9-4.37.31-1.45.59-2.88.86-4.29,1.01-5.06,1.84-9.9,2.48-14.54-.29-.05-.6-.09-.92-.1-.32-.01-.63,0-.92.02-.64.05-1.26-.03-1.88-.24.03-.21.04-.45.04-.7v-1.64c0-.28.01-.55.04-.82.03-.29.04-.61.04-.94s.01-.67.04-1.02c.69.05,1.38.09,2.08.12.69.03,1.38.04,2.08.04,1.97,0,3.85-.07,5.65-.2,1.8-.13,3.45-.29,4.97-.48l-.44,2.16-.36,1.88c-.13.69-.25,1.24-.36,1.64-.29.08-.59.15-.88.2-.29.05-.59.09-.88.12-.29.03-.59.07-.9.12s-.61.11-.9.16c-.4,1.97-.73,3.67-.98,5.11-.25,1.44-.48,2.82-.68,4.13-.2,1.32-.43,2.76-.7,4.33-.45,2.69-.85,5.42-1.2,8.19l-7.19,1.12Z"/>
        <path class="cls-9" d="M1151.77,838.09c-.8,0-1.61-.17-2.44-.52-.83-.35-1.52-.88-2.08-1.6-.56-.72-.84-1.64-.84-2.76v-.32c0-.13.01-.24.04-.32.08-.69.19-1.6.34-2.72.15-1.12.33-2.34.54-3.65.21-1.32.43-2.63.66-3.93.23-1.3.43-2.49.62-3.55.4-2.13.72-3.85.96-5.15.24-1.3.43-2.31.58-3.02.15-.71.26-1.23.34-1.58.29-.03.6-.06.94-.1.33-.04.69-.07,1.06-.1.37-.05.74-.09,1.1-.12.36-.03.71-.05,1.06-.08l2.44-.24c-.35,1.62-.67,3.16-.98,4.61s-.59,2.83-.86,4.13l-1.84,8.83c-.16.67-.28,1.22-.36,1.68-.11.43-.22.97-.34,1.62-.12.65-.18,1.25-.18,1.78,0,.43.11.78.32,1.06.21.28.48.42.8.42.45,0,.83-.17,1.12-.52.29-.35.53-.77.72-1.28.19-.51.33-1.02.44-1.54.11-.52.2-.94.28-1.26.27-1.22.51-2.42.74-3.57.23-1.16.47-2.39.72-3.69.25-1.3.54-2.81.86-4.51.21-1.17.43-2.36.66-3.58.23-1.21.45-2.44.66-3.69l6.07-.4c-.48,2.56-.95,5.13-1.4,7.71-.19.99-.39,2.09-.62,3.31-.23,1.23-.47,2.46-.74,3.71-.27,1.25-.51,2.44-.74,3.55-.23,1.12-.43,2.08-.62,2.88-.53,2.18-1.36,3.89-2.48,5.13-1.12,1.24-2.35,2.11-3.69,2.62-1.34.51-2.63.76-3.85.76Z"/>
        <path class="cls-9" d="M1172.26,837.29c.05-.45.11-.89.16-1.32s.11-.85.16-1.28l.24-2.24c.03-.37.05-.72.08-1.04.03-.32.05-.61.08-.88h-3.47l-1.6,5.75c-.59.08-1.28.17-2.08.26-.8.09-1.54.18-2.24.26-.43.05-.85.11-1.26.16-.41.05-.83.11-1.26.16l3.15-10.46c.37-1.25.8-2.68,1.28-4.27.48-1.6.96-3.23,1.46-4.91.49-1.68.96-3.26,1.4-4.73.44-1.48.79-2.72,1.06-3.73,1.81-.13,3.65-.29,5.53-.48s3.71-.44,5.49-.76c-.13,1.49-.26,3.18-.38,5.05s-.23,3.81-.32,5.81c-.09,2-.19,3.97-.3,5.91-.05,1.84-.12,3.73-.2,5.69s-.16,3.96-.24,6.01c-.4.05-.8.11-1.2.16-.4.05-.8.11-1.2.16-.67.11-1.4.23-2.2.36-.8.13-1.52.25-2.16.36ZM1170.46,826.54c.16,0,.46-.01.9-.04.44-.03.86-.05,1.26-.08.4-.03.64-.04.72-.04,0-.35.05-1.05.16-2.12.11-1.06.21-2.18.32-3.35.05-.69.11-1.4.18-2.14s.14-1.48.22-2.26l.24-3.47-.6.04-.92,3.43-2.48,10.02Z"/>
        <path class="cls-9" d="M1186.47,837.45c-1.68,0-3.05-.79-4.11-2.36-1.06-1.57-1.6-3.73-1.6-6.47,0-2.5.35-4.97,1.04-7.41s1.66-4.63,2.92-6.57c1.25-1.94,2.74-3.51,4.45-4.69,1.72-1.18,3.61-1.78,5.69-1.78,1.3,0,2.42.51,3.35,1.52.93,1.01,1.4,2.37,1.4,4.07v.76c0,.08-.01.17-.04.28l-5.23,1.4c-.32-.67-.69-1-1.12-1-.64,0-1.31.52-2.02,1.56-.71,1.04-1.38,2.28-2.02,3.71-.43.96-.81,1.94-1.14,2.96-.33,1.01-.59,1.96-.78,2.84s-.28,1.6-.28,2.16c0,.83.12,1.42.36,1.8.19.35.48.52.88.52s.84-.19,1.32-.58c.48-.39.92-.87,1.34-1.46.41-.59.68-1.17.82-1.76l4.55,1.84c-1.3,2.98-2.86,5.17-4.65,6.57-1.8,1.4-3.51,2.1-5.13,2.1Z"/>
        <path class="cls-9" d="M1195.94,837.33c.37-1.54.75-3.3,1.12-5.25.37-1.96.75-3.99,1.12-6.09.37-2.1.72-4.13,1.04-6.07.29-1.7.58-3.43.86-5.19.28-1.76.55-3.53.82-5.31l6.23-1-1.8,10.5c-.4,2.48-.75,4.7-1.06,6.67-.31,1.97-.6,3.83-.88,5.59-.28,1.76-.57,3.55-.86,5.39-.51,0-1.12.03-1.84.1-.72.07-1.44.15-2.16.24-.72.09-1.33.18-1.82.26s-.75.13-.78.16Z"/>
        <path class="cls-9" d="M1211.04,837.53c-1.76,0-3.19-.68-4.31-2.04-1.12-1.36-1.68-3.41-1.68-6.15,0-1.52.19-3.12.56-4.79.37-1.68.89-3.33,1.56-4.95.67-1.62,1.44-3.13,2.32-4.51,1.41-2.24,3.04-4.06,4.87-5.47,1.84-1.41,3.77-2.12,5.79-2.12,1.6,0,2.83.41,3.69,1.22s1.47,1.85,1.82,3.11c.35,1.26.52,2.58.52,3.93,0,3.17-.49,6.12-1.46,8.85-.97,2.73-2.23,5.04-3.77,6.93-1.54,1.94-3.19,3.43-4.93,4.45-1.74,1.02-3.4,1.54-4.97,1.54ZM1213.19,830.94c1.2,0,2.26-.4,3.17-1.2.92-.8,1.7-1.82,2.34-3.06.64-1.24,1.12-2.54,1.44-3.89.32-1.36.48-2.58.48-3.67,0-.43-.04-.89-.12-1.38s-.25-.92-.52-1.3c-.27-.37-.68-.56-1.24-.56-1.22,0-2.33.45-3.31,1.34s-1.81,2.02-2.48,3.37c-.67,1.38-1.16,2.74-1.48,4.07-.32,1.33-.48,2.54-.48,3.63,0,.56.2,1.14.6,1.74.4.6.93.9,1.6.9ZM1214.71,806.82c-.03-.13-.04-.27-.04-.42v-1.76c0-.23.01-.45.04-.66v-1.36c.91-.93,1.78-1.8,2.64-2.62.85-.81,1.68-1.58,2.48-2.3.8-.72,1.57-1.45,2.32-2.2s1.46-1.49,2.16-2.24c.13,1.81.21,3.47.24,4.99,0,.77.03,1.55.08,2.34.05.79.13,1.59.24,2.42-.77.32-1.58.64-2.44.96-.85.32-1.73.64-2.64.96-.91.35-1.78.67-2.64.98-.85.31-1.66.61-2.44.9Z"/>
        <path class="cls-9" d="M1223.7,837.57c.8-3.83,1.56-7.55,2.28-11.14.59-3.38,1.16-6.63,1.72-9.74.56-3.11.96-5.98,1.2-8.59.19.03.35.04.5.04h1.22c.69,0,1.46-.02,2.32-.06.85-.04,1.64-.07,2.36-.1.19.93.37,1.85.54,2.76.17.91.33,1.78.46,2.64.13.75.28,1.51.44,2.3.16.79.32,1.58.48,2.38.13.8.27,1.54.42,2.22.15.68.27,1.3.38,1.86.32-1.57.62-3.11.9-4.63s.55-2.89.82-4.11l1.16-5.35,4.87-.6c-.45,2.02-.88,4.01-1.28,5.95-.4,1.94-.77,3.82-1.12,5.63-.67,3.25-1.25,6.31-1.76,9.19s-.89,5.38-1.16,7.51c.29,0,.25.03-.14.1-.39.07-.95.16-1.7.28-.75.12-1.54.27-2.4.46-.85.19-1.61.41-2.28.68-.08-1.06-.16-2.1-.24-3.11-.08-1.01-.17-2-.28-2.96-.16-1.7-.35-3.39-.56-5.07-.21-1.68-.43-3.01-.64-3.99-.19,1.17-.41,2.51-.68,4.01-.27,1.5-.56,3.02-.88,4.53l-1.12,5.59-5.83,1.36Z"/>
      </g>
    </g>
  </g>
</svg>