<?xml version="1.0" encoding="UTF-8"?>
<svg id="Capa_2" data-name="Capa 2" xmlns="http://www.w3.org/2000/svg" xmlns:xlink="http://www.w3.org/1999/xlink" viewBox="0 0 1922.08 1080.25">
  <defs>
    <style>
      .cls-1 {
        stroke: #ceeae9;
        stroke-width: 5.79px;
      }

      .cls-1, .cls-2, .cls-3, .cls-4, .cls-5 {
        fill: none;
      }

      .cls-1, .cls-2, .cls-4, .cls-5 {
        stroke-miterlimit: 10;
      }

      .cls-6 {
        fill: #24293f;
      }

      .cls-7 {
        fill: #805b54;
      }

      .cls-8 {
        fill: #c68859;
      }

      .cls-9 {
        fill: #fff;
      }

      .cls-10 {
        fill: #1a8e1c;
      }

      .cls-2 {
        stroke: #995222;
        stroke-width: 8.13px;
      }

      .cls-11 {
        fill: #edf4f4;
      }

      .cls-12 {
        fill: #995222;
      }

      .cls-13 {
        fill: #86444f;
      }

      .cls-14 {
        clip-path: url(#clippath-1);
      }

      .cls-15 {
        fill: #a9c245;
      }

      .cls-16 {
        fill: #42668c;
      }

      .cls-4 {
        stroke-width: 2.17px;
      }

      .cls-4, .cls-5 {
        stroke: #1d1d1b;
      }

      .cls-17 {
        fill: #db6b7e;
      }

      .cls-18 {
        fill: #9ac146;
      }

      .cls-19 {
        fill: #76b956;
      }

      .cls-20 {
        fill: #d89f79;
      }

      .cls-5 {
        stroke-width: 1.96px;
      }

      .cls-21 {
        fill: #5f869b;
      }

      .cls-22 {
        fill: url(#Degradado_sin_nombre_30);
      }

      .cls-23 {
        fill: #f3d490;
      }

      .cls-24 {
        clip-path: url(#clippath);
      }

      .cls-25 {
        fill: #5f8e9e;
      }
    </style>
    <linearGradient id="Degradado_sin_nombre_30" data-name="Degradado sin nombre 30" x1="961.34" y1="1079.5" x2="961.34" y2=".25" gradientUnits="userSpaceOnUse">
      <stop offset="0" stop-color="#d1fdfe"/>
      <stop offset="1" stop-color="#97ddef"/>
    </linearGradient>
    <clipPath id="clippath">
      <polygon class="cls-3" points="1920 1080 2.67 1078.25 0 0 1920 0 1920 1080"/>
    </clipPath>
    <clipPath id="clippath-1">
      <path class="cls-3" d="M379.43,911.33c325.38-19.67,137.26-340.11,94.22-397.72-21.07-28.21-38.14-76.22-39.16-116.76-8.18,4.97-27.31,15.08-53.67,15.42-27.95.36-48.25-10.47-56.41-15.42.43,42.09-17.21,87.31-39.2,116.76-43.03,57.61-231.16,378.05,94.22,397.72Z"/>
    </clipPath>
  </defs>
  <g id="Capa_4" data-name="Capa 4">
    <g>
      <polygon class="cls-22" points="1921.34 1079.5 1.34 1079.5 1.67 .25 1920.67 .25 1921.34 1079.5"/>
      <path class="cls-11" d="M748.79,996.84c0-26.2-47.19-48.56-113.65-57.4,1.41-2.29,2.15-4.65,2.15-7.07,0-13.83-24.15-25.92-60.08-32.43.55-1.68.85-3.38.85-5.11,0-24.41-56.94-44.19-127.17-44.19-20,0-38.92,1.61-55.76,4.47-.49-27.58-54.11-49.87-120.19-49.87-45.06,0-84.33,10.37-104.91,25.71-27.58-8.38-66.38-13.6-109.37-13.6-19.02,0-37.23,1.02-54,2.89v82.59s0,0,0,0h0s-4.88,177.4-4.88,177.4l699.22-2.16-17.62-33.54c39.9-11.27,65.4-28.45,65.4-47.71Z"/>
      <path class="cls-11" d="M806.96,144.8c0-11.32-64.69-20.5-144.5-20.5-28.32,0-54.73,1.16-77.03,3.15-20.39-13.7-63.54-23.15-113.47-23.15-69.59,0-126,18.36-126,41,0,7.52,6.22,14.56,17.07,20.62-51.3,3.04-90.07,17.06-90.07,33.88,0,19.05,49.7,34.5,111,34.5,46.39,0,86.13-8.85,102.72-21.41,28.04,2.17,59.94,3.41,93.78,3.41,111.84,0,202.5-13.43,202.5-30,0-8.91-26.22-16.91-67.85-22.4,53.77-2.99,91.85-10.41,91.85-19.1Z"/>
      <g class="cls-24">
        <path class="cls-11" d="M1920,727.86c-43.4-9.8-117.92-3.02-165.73,14.97-52.31-55.04-232.78-43.68-232.18,34.07,0,.07,0,.13,0,.2-77.37-15.58-188.24,2.61-187.36,54.56-.04,2.61.2,5.13.7,7.57-35.64,7.7-61.92,22.59-61.37,44.67-.1,3.98.69,7.72,2.23,11.23-64.96,10.19-117.14,36.35-116.43,78.5-.51,30.64,26.94,52.83,66.92,66.57l-25.88,67.79,719.1-34.54v-230.64h0s0,0,0,0v-114.94Z"/>
      </g>
      <path class="cls-11" d="M1634.07,194.8c41.66-5.23,67.93-13.07,67.99-21.98.1-16.57-90.47-30.57-202.31-31.27-33.84-.21-65.75.82-93.8,2.82-16.51-12.66-56.19-21.76-102.58-22.05-61.3-.38-111.09,14.75-111.21,33.8-.11,16.83,38.58,31.08,89.86,34.45-10.89,5.99-17.15,12.99-17.2,20.51-.14,22.64,56.15,41.35,125.74,41.79,49.93.31,93.13-8.87,113.61-22.44,22.29,2.14,48.69,3.46,77.01,3.64,79.8.5,144.55-8.27,144.63-19.59.05-8.69-37.98-16.35-91.72-19.67Z"/>
      <path class="cls-11" d="M1920.35,397.14c-43.4-8.29-117.92-2.55-165.73,12.67-52.31-46.58-232.78-36.96-232.18,28.83,0,.06,0,.11,0,.17-77.37-13.18-188.24,2.21-187.36,46.17-.04,2.21.2,4.34.7,6.4-35.64,6.52-61.92,19.12-61.37,37.8-.1,3.36.69,6.53,2.23,9.5-64.96,8.62-117.14,30.76-116.43,66.43-.51,25.93,26.94,44.71,66.92,56.34l-25.88,57.37,719.1-29.23v-195.18h0s0,0,0,0v-97.27Z"/>
      <path class="cls-11" d="M1626.47,189.99c41.66-4.43,67.93-11.06,67.99-18.6.1-14.02-90.47-25.87-202.31-26.46-33.84-.18-65.75.69-93.8,2.38-16.51-10.72-56.19-18.41-102.58-18.66-61.3-.33-111.09,12.48-111.21,28.61-.11,14.24,38.58,26.31,89.86,29.15-10.89,5.07-17.15,10.99-17.2,17.35-.14,19.16,56.15,35,125.74,35.36,49.93.27,93.13-7.5,113.61-18.99,22.29,1.81,48.69,2.93,77.01,3.08,79.8.42,144.55-7,144.63-16.58.05-7.35-37.98-13.83-91.72-16.65Z"/>
      <path class="cls-11" d="M763,713.02c0-36.46-48.39-67.58-116.54-79.88,1.44-3.19,2.21-6.47,2.21-9.84,0-19.25-24.76-36.07-61.61-45.13.57-2.33.87-4.7.87-7.11,0-33.96-58.38-61.5-130.41-61.5-20.51,0-39.91,2.24-57.18,6.21-.5-38.37-55.48-69.4-123.25-69.4-46.21,0-86.47,14.43-107.58,35.77-28.28-11.66-68.07-18.92-112.15-18.92-19.51,0-38.18,1.42-55.38,4.03v114.94s0,0,0,0h0v230.64l719.91,34.54-25.98-67.98c40.92-15.68,67.07-39.59,67.07-66.39Z"/>
      <polygon class="cls-15" points="1921.67 1074.11 1.65 1074.11 1.08 684.11 1922.08 684.11 1921.67 1074.11"/>
      <path class="cls-25" d="M1208.08,848.85l-18.63-26.27c-5.77-.99-12.23-2-16.37-2.35-5.17-.44,3.52-2.42,11.85-4.02l-2.98-4.2-30.87-4.15h27.92l-2.92-4.12-40-18.31h27.01l-5.38-7.59c-14.39-6.31-33.03-14.53-36.62-16.39-3.73-1.92,14.96,2.73,29.63,6.53l-4.63-6.53h503l-71-77.34H301.08l-76,78.89h615l-11.01,16.87,28.01-6.05-35.16,17-1.53,2.34h49.69l-46,11.6,27,9.28-41,2.32-5.41.89-17.59,26.96L1.08,847.3l.59,232.95h1920l-.59-231.4h-713Z"/>
      <path class="cls-18" d="M1864.64,734.93c56.45-25.44,50.45-21.47-22.55-32.6-73-11.13-224-8.75-215,7.16,9,15.9,14,42.93,61,51.68,45.61,8.49-57,13.52-163,18.29,0,0,60,14.31-70,15.9-130,1.59-209-18.29-225-1.59s-97,10.34,2,21.47c99,11.13,133,17.49,98,19.88s-105,11.13,12,10.34,347,6.36,370,0-48-8.75,7-14.31c55-5.57,179-4.77,182-19.88s-8-13.52-26-43.73c-18-30.21-66.89-7.16-10.45-32.6ZM1656.08,810.46c-10,6.36-19,5.57-100,.8-81-4.77-2-2.39,48-7.16,50-4.77-3-3.98-31-10.34s40-3.18,40-3.18c33-7.95,34-2.39,6,1.59s-3,3.18,26,4.77c29,1.59,21,7.16,11,13.52Z"/>
      <path class="cls-18" d="M488.08,775.11s-165,7-137,20,26-3,131,10,135,51,176,29,145-58,17-48-224,11-163,1,139-27-24-12Z"/>
      <path class="cls-18" d="M77.83,701.11s150.96,0,89.29,8.59c-61.67,8.59-101.61,11.17-41.6,22.34,60.01,11.17,149.3,20.63,66.45,30.94-82.84,10.31-146.36,19.77-32.22,23.2,114.14,3.44,229.2,26.64,136.23,31.8-92.97,5.16-162.93-3.44-92.05,6.02,70.88,9.45,138.07,17.19-11.97,12.89-150.04-4.3-243.01-15.47-149.12-18.91s186.86-3.44,116.9-13.75c-69.96-10.31-142.68-27.5-97.57-38.67,45.1-11.17,102.18-18.05,47.87-28.36-54.31-10.31-95.73-25.78-56.15-27.5,39.58-1.72,114.14,4.3,23.93-8.59Z"/>
      <path class="cls-18" d="M1706.08,807.11s42,23,34,28-6,6,49,2,108-17,55-19"/>
      <path class="cls-21" d="M1668.08,968.11c-40.04,0-77.61,1.97-110.13,5.42,15.45-6.31,24.13-13.41,24.13-20.92,0-26.23-105.88-47.5-236.5-47.5s-236.5,21.27-236.5,47.5,105.88,47.5,236.5,47.5c41.92,0,81.28-2.19,115.42-6.04-10.9,4.94-16.92,10.36-16.92,16.04,0,23.2,100.29,42,224,42s224-18.8,224-42-100.29-42-224-42Z"/>
      <path class="cls-21" d="M1074.14,884.16c-11.35-6.54-54.3-11.41-105.56-11.41-59.92,0-108.5,6.65-108.5,14.85,0,6.21,27.85,11.53,67.39,13.75-4.15,2.29-6.39,4.73-6.39,7.25,0,13.53,64.25,24.5,143.5,24.5s143.5-10.97,143.5-24.5-59.15-23.6-133.94-24.44Z"/>
      <path class="cls-21" d="M445.58,964.11c-14.32,0-28.21.52-41.5,1.48-.03-24.02-57.1-43.48-127.5-43.48s-127.5,19.48-127.5,43.5,56.66,43.35,126.71,43.5c-.46,1.48-.71,2.98-.71,4.5,0,27.34,76.34,49.5,170.5,49.5s170.5-22.16,170.5-49.5-76.34-49.5-170.5-49.5Z"/>
      <path class="cls-1" d="M1006.47,745c90.85,0,164.5-26.75,164.5-59.75,0-.08,0-.17,0-.25h-328.98c0,.08,0,.17,0,.25,0,33,73.65,59.75,164.5,59.75Z"/>
      <path class="cls-1" d="M1006.97,709c39.21,0,70-19.37,71-24h-142c-1,4.63,31.79,24,71,24Z"/>
      <ellipse class="cls-11" cx="1003.81" cy="579.68" rx="164" ry="24.5"/>
      <ellipse class="cls-11" cx="1003.81" cy="580.68" rx="164" ry="24.5"/>
      <ellipse class="cls-11" cx="1003.81" cy="581.68" rx="164" ry="24.5"/>
      <ellipse class="cls-11" cx="1003.81" cy="582.68" rx="164" ry="24.5"/>
      <ellipse class="cls-11" cx="1003.81" cy="583.68" rx="164" ry="24.5"/>
      <ellipse class="cls-11" cx="1003.81" cy="584.68" rx="164" ry="24.5"/>
      <ellipse class="cls-11" cx="1003.81" cy="585.68" rx="164" ry="24.5"/>
      <ellipse class="cls-11" cx="1003.81" cy="586.68" rx="164" ry="24.5"/>
      <ellipse class="cls-11" cx="1003.81" cy="587.68" rx="164" ry="24.5"/>
      <ellipse class="cls-11" cx="1003.81" cy="588.68" rx="164" ry="24.5"/>
      <ellipse class="cls-11" cx="1003.81" cy="589.68" rx="164" ry="24.5"/>
      <ellipse class="cls-11" cx="1003.81" cy="590.68" rx="164" ry="24.5"/>
      <ellipse class="cls-11" cx="1003.81" cy="591.68" rx="164" ry="24.5"/>
      <ellipse class="cls-11" cx="1003.81" cy="592.68" rx="164" ry="24.5"/>
      <ellipse class="cls-11" cx="1003.81" cy="593.68" rx="164" ry="24.5"/>
      <ellipse class="cls-11" cx="1003.81" cy="594.68" rx="164" ry="24.5"/>
      <ellipse class="cls-11" cx="1003.81" cy="595.68" rx="164" ry="24.5"/>
    </g>
    <polygon class="cls-20" points="1718.8 209.54 768.52 209.54 866.55 68.6 1622.77 68.6 1718.8 209.54"/>
    <g>
      <rect class="cls-8" x="744.23" y="182.11" width="998.85" height="699.36"/>
      <rect class="cls-2" x="768.52" y="210.16" width="950.29" height="643.26"/>
    </g>
    <g>
      <path d="M867.11,370.7c.61-3.22,1.2-6.41,1.79-9.56.58-3.15,1.18-6.29,1.79-9.42.65-3.87,1.27-7.51,1.85-10.92.58-3.41,1.17-6.79,1.75-10.15.58-3.36,1.15-6.88,1.71-10.57l11.34-.77c-.79,3.27-1.57,6.67-2.34,10.22-.77,3.55-1.48,7-2.14,10.36l6.93-.77c.33-1.63.64-3.25.94-4.86.3-1.61.57-3.21.81-4.79.23-1.54.52-3.12.88-4.73s.73-3.23,1.15-4.87c1.68-.28,3.38-.5,5.11-.67,1.73-.16,3.76-.31,6.09-.45-.61,1.87-1.21,4.06-1.82,6.58-.61,2.52-1.19,5.18-1.75,7.98-.56,2.8-1.1,5.59-1.61,8.37-.51,2.78-.98,5.35-1.4,7.73-.51,2.99-1,5.99-1.47,9-.47,3.01-.93,6.08-1.4,9.21l-10.92,1.26c.33-1.4.62-2.79.88-4.17.26-1.38.5-2.72.73-4.02.47-2.24.95-4.57,1.44-7,.49-2.43.88-4.5,1.16-6.23l-6.79.63c-.19.89-.36,1.84-.52,2.87-.16,1.03-.36,2.12-.6,3.29-.23,1.17-.46,2.3-.67,3.4-.21,1.1-.41,2.18-.59,3.25-.23,1.26-.49,2.52-.77,3.78-.28,1.26-.54,2.52-.77,3.78l-10.78,2.24Z"/>
      <path d="M915.55,370.42c.09-.79.19-1.56.28-2.31.09-.75.19-1.49.28-2.24l.42-3.92c.05-.65.09-1.26.14-1.82.05-.56.09-1.07.14-1.54h-6.09l-2.8,10.08c-1.03.14-2.24.29-3.64.46-1.4.16-2.71.31-3.92.46-.75.09-1.48.19-2.21.28-.72.09-1.46.19-2.21.28l5.53-18.34c.65-2.19,1.4-4.69,2.24-7.49.84-2.8,1.69-5.67,2.56-8.61.86-2.94,1.68-5.71,2.45-8.29.77-2.59,1.39-4.77,1.85-6.55,3.17-.23,6.4-.51,9.69-.84,3.29-.33,6.5-.77,9.62-1.33-.23,2.61-.46,5.56-.67,8.85s-.4,6.69-.56,10.19c-.16,3.5-.34,6.95-.52,10.36-.09,3.22-.21,6.55-.35,9.98-.14,3.43-.28,6.94-.42,10.54-.7.09-1.4.19-2.1.28-.7.09-1.4.19-2.1.28-1.17.19-2.45.4-3.85.63-1.4.23-2.66.44-3.78.63ZM912.4,351.59c.28,0,.81-.02,1.58-.07.77-.05,1.5-.09,2.2-.14.7-.05,1.12-.07,1.26-.07,0-.61.09-1.84.28-3.71.19-1.87.37-3.83.56-5.88.09-1.21.2-2.46.31-3.75.12-1.28.25-2.6.39-3.96l.42-6.09-1.05.07-1.61,6.02-4.34,17.57Z"/>
      <path d="M939.7,370.7c-1.87,0-3.73-.5-5.6-1.51-1.87-1-3.66-2.6-5.39-4.79l5.18-10.15c.51.89,1.27,1.73,2.27,2.52,1,.79,2.06,1.42,3.19,1.89,1.12.47,2.08.7,2.87.7,1.21,0,2.37-.37,3.46-1.12,1.1-.75,1.65-1.75,1.65-3.01,0-1.63-.75-3.13-2.24-4.48-1.49-1.35-3.17-2.68-5.04-3.99-1.82-1.31-3.49-2.79-5-4.45-1.52-1.66-2.27-3.56-2.27-5.71,0-2.43.7-4.68,2.1-6.75,1.4-2.08,3.22-3.9,5.46-5.46,2.24-1.56,4.63-2.78,7.17-3.64,2.54-.86,4.96-1.29,7.25-1.29,1.63,0,3.15.27,4.55.81,1.4.54,2.52,1.41,3.36,2.62.84,1.21,1.26,2.85,1.26,4.9,0,.33-.01.65-.04.98-.02.33-.06.65-.11.98-.05.33-.1.67-.17,1.02-.07.35-.13.71-.17,1.08l-10.15,2.94c.09-.37.18-.75.25-1.12.07-.37.1-.75.1-1.12,0-1.4-.25-2.42-.73-3.05-.49-.63-1.13-.94-1.92-.94-.42,0-1.03.22-1.82.67-.79.44-1.5,1.05-2.13,1.82-.63.77-.95,1.62-.95,2.56,0,1.54.64,2.81,1.93,3.81,1.28,1,2.76,2.02,4.44,3.04.79.47,1.68,1.2,2.66,2.21.98,1,1.83,2.36,2.55,4.06.72,1.7,1.08,3.88,1.08,6.54,0,3.45-.85,6.49-2.55,9.1-1.7,2.61-4,4.65-6.9,6.12-2.89,1.47-6.09,2.21-9.59,2.21Z"/>
      <path d="M972.04,370.7c1.35-6.53,2.61-12.9,3.78-19.11.65-3.78,1.32-7.61,2-11.48.68-3.87,1.29-7.58,1.86-11.13.56-3.55.98-6.72,1.26-9.52,1.26.05,2.3.1,3.12.18.82.07,1.59.13,2.31.17.72.05,1.54.08,2.45.1.91.02,2.07.04,3.46.04-.79,3.31-1.58,6.63-2.34,9.94-.77,3.31-1.48,6.65-2.13,10.01l6.93-.77c.33-1.63.64-3.25.95-4.86.3-1.61.57-3.21.8-4.79.23-1.54.53-3.12.88-4.73s.74-3.23,1.16-4.87c1.68-.28,3.38-.5,5.11-.67,1.73-.16,3.76-.31,6.09-.45-.61,1.87-1.21,4.06-1.82,6.58-.61,2.52-1.19,5.18-1.75,7.98-.56,2.8-1.1,5.59-1.61,8.37-.51,2.78-.98,5.35-1.4,7.73-.51,2.99-1,5.99-1.47,9-.47,3.01-.93,6.08-1.4,9.21l-10.92,1.26c.33-1.4.62-2.79.88-4.17.26-1.38.5-2.72.73-4.02.47-2.24.95-4.57,1.44-7,.49-2.43.88-4.5,1.15-6.23l-6.79.63c-.19.89-.36,1.84-.52,2.87-.16,1.03-.36,2.12-.59,3.29-.23,1.17-.46,2.3-.67,3.4-.21,1.1-.41,2.18-.6,3.25-.23,1.26-.49,2.52-.77,3.78-.28,1.26-.54,2.52-.77,3.78l-10.78,2.24Z"/>
      <path d="M1002.91,370.63l9.17-49.77,22.12-1.89c-.33,1.03-.61,2.08-.84,3.15-.23.89-.46,1.81-.67,2.77-.21.96-.38,1.81-.53,2.55-.61.05-1.47.08-2.59.1-1.12.02-2.26.05-3.43.07-1.17.02-2.17.03-3.01.03h-1.33l-2.45,12.53,4.06-.21c.51-.05,1.04-.07,1.58-.07h2.98c.42,0,.75-.02.98-.07-.09.65-.17,1.29-.25,1.92-.07.63-.15,1.27-.25,1.93l-.63,3.85c-.23.05-.54.07-.91.07h-1.33c-.51.05-1.05.07-1.61.07s-1.1.02-1.61.07c-.61.05-1.24.07-1.89.07s-1.35.02-2.1.07l-2.38,12.88,10.22-1.61-.7,7.98-22.61,3.5Z"/>
      <path d="M1038.96,370.7c-2.94,0-5.34-1.38-7.21-4.13-1.87-2.75-2.8-6.53-2.8-11.34,0-4.39.61-8.71,1.82-12.98,1.21-4.27,2.92-8.11,5.11-11.52,2.19-3.41,4.79-6.15,7.8-8.23,3.01-2.08,6.33-3.11,9.97-3.11,2.29,0,4.25.89,5.88,2.66,1.63,1.77,2.45,4.15,2.45,7.14v1.33c0,.14-.02.3-.07.49l-9.17,2.45c-.56-1.17-1.21-1.75-1.96-1.75-1.12,0-2.3.91-3.53,2.73-1.24,1.82-2.42,3.99-3.54,6.51-.75,1.68-1.41,3.41-2,5.18-.58,1.77-1.04,3.43-1.37,4.97-.33,1.54-.49,2.8-.49,3.78,0,1.45.21,2.5.63,3.15.33.61.84.91,1.54.91s1.47-.34,2.31-1.01c.84-.68,1.62-1.53,2.34-2.56.72-1.03,1.2-2.05,1.44-3.08l7.98,3.22c-2.29,5.23-5,9.06-8.16,11.51-3.15,2.45-6.15,3.68-8.99,3.68Z"/>
      <path d="M1055.76,370.7c1.35-6.53,2.61-12.9,3.78-19.11.65-3.78,1.32-7.61,2-11.48.68-3.87,1.29-7.58,1.86-11.13.56-3.55.98-6.72,1.26-9.52,1.26.05,2.3.1,3.12.18.82.07,1.59.13,2.31.17.72.05,1.54.08,2.45.1.91.02,2.07.04,3.46.04-.79,3.31-1.58,6.63-2.34,9.94-.77,3.31-1.48,6.65-2.13,10.01l6.93-.77c.33-1.63.64-3.25.95-4.86.3-1.61.57-3.21.8-4.79.23-1.54.53-3.12.88-4.73s.74-3.23,1.16-4.87c1.68-.28,3.38-.5,5.11-.67,1.73-.16,3.76-.31,6.09-.45-.61,1.87-1.21,4.06-1.82,6.58-.61,2.52-1.19,5.18-1.75,7.98-.56,2.8-1.1,5.59-1.61,8.37-.51,2.78-.98,5.35-1.4,7.73-.51,2.99-1,5.99-1.47,9-.47,3.01-.93,6.08-1.4,9.21l-10.92,1.26c.33-1.4.62-2.79.88-4.17.26-1.38.5-2.72.73-4.02.47-2.24.95-4.57,1.44-7,.49-2.43.88-4.5,1.15-6.23l-6.79.63c-.19.89-.36,1.84-.52,2.87-.16,1.03-.36,2.12-.59,3.29-.23,1.17-.46,2.3-.67,3.4-.21,1.1-.41,2.18-.6,3.25-.23,1.26-.49,2.52-.77,3.78-.28,1.26-.54,2.52-.77,3.78l-10.78,2.24Z"/>
      <path d="M1098.74,370.84c-3.08,0-5.6-1.19-7.56-3.57s-2.94-5.97-2.94-10.78c0-2.66.33-5.46.98-8.4.65-2.94,1.56-5.83,2.73-8.68,1.17-2.85,2.52-5.48,4.06-7.91,2.47-3.92,5.32-7.12,8.54-9.59,3.22-2.47,6.6-3.71,10.15-3.71,2.8,0,4.96.71,6.47,2.13,1.52,1.42,2.58,3.24,3.19,5.46.61,2.22.91,4.52.91,6.9,0,5.55-.85,10.72-2.56,15.5-1.7,4.78-3.91,8.83-6.62,12.15-2.71,3.41-5.59,6.01-8.64,7.81-3.06,1.8-5.96,2.69-8.71,2.69ZM1102.52,359.29c2.1,0,3.95-.7,5.56-2.1s2.98-3.19,4.09-5.35c1.12-2.17,1.96-4.44,2.52-6.82.56-2.38.84-4.53.84-6.44,0-.75-.07-1.55-.21-2.41-.14-.86-.44-1.62-.91-2.28-.47-.65-1.19-.98-2.17-.98-2.15,0-4.08.78-5.81,2.35-1.73,1.56-3.17,3.54-4.34,5.92-1.17,2.43-2.03,4.81-2.59,7.14-.56,2.33-.84,4.46-.84,6.37,0,.98.35,2,1.05,3.04.7,1.05,1.63,1.58,2.8,1.58Z"/>
      <path d="M1145.78,371.82c-1.4,0-2.82-.3-4.27-.91s-2.66-1.54-3.64-2.8c-.98-1.26-1.47-2.87-1.47-4.83v-.56c0-.23.02-.42.07-.56.14-1.21.34-2.8.59-4.76.26-1.96.57-4.09.94-6.4.37-2.31.76-4.61,1.16-6.9.4-2.29.76-4.36,1.08-6.23.7-3.73,1.26-6.74,1.68-9.03.42-2.29.76-4.05,1.01-5.28.26-1.24.46-2.16.59-2.77.51-.05,1.06-.1,1.65-.17.58-.07,1.2-.13,1.85-.18.65-.09,1.29-.16,1.92-.21.63-.05,1.25-.09,1.86-.14l4.27-.42c-.61,2.85-1.18,5.54-1.71,8.08-.54,2.54-1.04,4.96-1.5,7.25l-3.22,15.47c-.28,1.17-.49,2.15-.63,2.94-.19.75-.39,1.69-.6,2.83-.21,1.14-.31,2.18-.31,3.11,0,.75.19,1.37.56,1.85.37.49.84.74,1.4.74.79,0,1.45-.3,1.96-.91.51-.61.93-1.35,1.26-2.24.33-.89.58-1.79.77-2.7.19-.91.35-1.65.49-2.21.47-2.15.9-4.23,1.3-6.26.4-2.03.82-4.19,1.26-6.48.44-2.29.94-4.92,1.5-7.91.37-2.05.76-4.14,1.16-6.27.4-2.12.78-4.28,1.15-6.47l10.64-.7c-.84,4.48-1.66,8.98-2.45,13.51-.33,1.73-.69,3.66-1.08,5.81-.4,2.15-.83,4.32-1.29,6.51-.47,2.19-.9,4.27-1.29,6.23-.4,1.96-.76,3.64-1.08,5.04-.93,3.83-2.38,6.82-4.34,9-1.96,2.17-4.12,3.7-6.47,4.58-2.36.89-4.61,1.33-6.75,1.33Z"/>
      <path d="M1163.91,370.91c1.4-6.72,2.73-13.23,3.99-19.53,1.03-5.93,2.03-11.62,3.01-17.08.98-5.46,1.68-10.48,2.1-15.05.33.05.62.07.88.07h2.13c1.21,0,2.57-.03,4.06-.1,1.49-.07,2.87-.13,4.13-.17.33,1.63.64,3.24.95,4.83.3,1.59.57,3.13.8,4.62.23,1.31.49,2.65.77,4.02.28,1.38.56,2.77.84,4.17.23,1.4.48,2.69.74,3.88.26,1.19.48,2.27.67,3.25.56-2.75,1.08-5.46,1.58-8.12.49-2.66.97-5.06,1.43-7.21l2.03-9.38,8.54-1.05c-.79,3.55-1.54,7.02-2.24,10.43-.7,3.41-1.35,6.7-1.96,9.87-1.17,5.69-2.19,11.06-3.08,16.1-.89,5.04-1.56,9.43-2.03,13.16.51,0,.43.06-.25.17-.68.12-1.67.28-2.98.49s-2.71.48-4.2.8c-1.49.33-2.82.72-3.99,1.19-.14-1.87-.28-3.69-.42-5.46-.14-1.77-.3-3.5-.49-5.18-.28-2.99-.61-5.95-.98-8.89-.37-2.94-.75-5.27-1.12-7-.33,2.05-.72,4.4-1.19,7.04-.47,2.64-.98,5.28-1.54,7.94l-1.96,9.8-10.22,2.38Z"/>
      <path d="M1206.74,370.14c2.05-6.25,4.01-12.34,5.88-18.27.79-2.43,1.61-5.02,2.45-7.77.84-2.75,1.68-5.52,2.52-8.29.84-2.78,1.63-5.45,2.38-8.02.75-2.57,1.38-4.85,1.89-6.86,2.57,0,4.99-.14,7.28-.42,1.17-.14,2.37-.28,3.61-.42,1.24-.14,2.51-.26,3.82-.35l-.42,3.43c-.09.65-.19,1.32-.28,2-.09.68-.19,1.37-.28,2.06-.09.7-.21,1.41-.35,2.14-.14.72-.26,1.46-.35,2.2-.19,1.45-.47,3.47-.84,6.06-.37,2.59-.82,5.4-1.33,8.44h.91c1.35-3.55,2.47-6.5,3.36-8.85.89-2.36,1.61-4.28,2.17-5.77.79-2.19,1.66-4.41,2.59-6.65.93-2.24,1.7-3.97,2.31-5.18,1.12-.09,2.46-.25,4.03-.46,1.56-.21,3.15-.46,4.76-.73,1.61-.28,3-.51,4.17-.7-.65,3.92-1.25,7.88-1.79,11.87-.54,3.99-1,7.79-1.4,11.41-.4,3.62-.73,6.87-1.02,9.77-.28,2.89-.54,5.75-.77,8.58-.23,2.82-.47,5.61-.7,8.36l-12.18,2.17c0-.09.07-1.14.21-3.15.14-2.01.37-4.5.7-7.49.33-2.99.65-5.82.98-8.51.33-2.68.65-4.89.98-6.61h-.63c-1.17,3.55-2.58,7.42-4.23,11.62-1.66,4.2-3.28,8.84-4.87,13.93-1.63.05-3.03.1-4.2.18-1.17.07-2.52.15-4.06.24l2.24-25.97h-1.05c-.05.51-.26,1.5-.63,2.98-.37,1.47-.82,3.15-1.33,5.04-.51,1.89-1.05,3.77-1.61,5.63-2.1,7.33-3.22,11.2-3.36,11.62l-11.55.77Z"/>
      <path d="M1263.72,371.82c-1.4,0-2.82-.3-4.27-.91-1.45-.61-2.66-1.54-3.64-2.8-.98-1.26-1.47-2.87-1.47-4.83v-.56c0-.23.02-.42.07-.56.14-1.21.34-2.8.59-4.76.26-1.96.57-4.09.95-6.4.37-2.31.76-4.61,1.15-6.9.4-2.29.76-4.36,1.08-6.23.7-3.73,1.26-6.74,1.68-9.03.42-2.29.76-4.05,1.01-5.28.26-1.24.46-2.16.59-2.77.51-.05,1.06-.1,1.65-.17.58-.07,1.2-.13,1.85-.18.65-.09,1.3-.16,1.93-.21.63-.05,1.25-.09,1.85-.14l4.27-.42c-.61,2.85-1.18,5.54-1.72,8.08-.54,2.54-1.04,4.96-1.5,7.25l-3.22,15.47c-.28,1.17-.49,2.15-.63,2.94-.19.75-.38,1.69-.59,2.83-.21,1.14-.32,2.18-.32,3.11,0,.75.19,1.37.56,1.85.37.49.84.74,1.4.74.79,0,1.45-.3,1.96-.91.51-.61.93-1.35,1.26-2.24.33-.89.58-1.79.77-2.7.19-.91.35-1.65.49-2.21.47-2.15.9-4.23,1.29-6.26.4-2.03.82-4.19,1.26-6.48.44-2.29.95-4.92,1.5-7.91.37-2.05.76-4.14,1.16-6.27.4-2.12.78-4.28,1.16-6.47l10.64-.7c-.84,4.48-1.66,8.98-2.45,13.51-.33,1.73-.69,3.66-1.08,5.81-.4,2.15-.83,4.32-1.29,6.51-.47,2.19-.9,4.27-1.29,6.23-.4,1.96-.76,3.64-1.08,5.04-.93,3.83-2.38,6.82-4.34,9-1.96,2.17-4.12,3.7-6.48,4.58-2.36.89-4.61,1.33-6.75,1.33Z"/>
      <path d="M1286.89,369.51l3.22-14.07c0-3.31-.08-6.71-.25-10.19-.16-3.48-.36-6.94-.6-10.4-.19-3.45-.44-7.28-.77-11.48l11.41-4.34v8.54c0,2.71-.01,5.15-.04,7.31-.02,2.17-.04,4.07-.04,5.71.61-1.59,1.34-3.55,2.21-5.88.86-2.33,1.67-4.6,2.42-6.79.47-1.31.92-2.62,1.37-3.96.44-1.33.9-2.72,1.37-4.17l10.85,2.45c-2.01,3.97-3.97,7.96-5.88,11.97-1.12,2.47-2.34,5.08-3.67,7.81s-2.57,5.27-3.71,7.63c-1.14,2.36-2.04,4.23-2.7,5.64-.23,1.21-.53,2.54-.88,3.99-.35,1.45-.69,2.82-1.01,4.13-.19.75-.4,1.51-.63,2.27-.23.77-.47,1.55-.7,2.35l-11.97,1.47Z"/>
      <path d="M1326.79,370.84c-1.73,0-3.34-.14-4.83-.42,2.24-8.17,4.03-16.39,5.36-24.67,1.33-8.28,2.6-16.62,3.81-25.02,2.43-.51,4.95-.97,7.56-1.37,2.61-.4,5.32-.59,8.12-.59,1.54,0,3.17.27,4.9.8,1.73.54,3.19,1.49,4.38,2.87,1.19,1.38,1.79,3.33,1.79,5.85,0,2.33-.49,4.48-1.47,6.44-.98,1.96-2.22,3.64-3.71,5.04-1.49,1.4-3.03,2.4-4.62,3.01.65.33,1.42.91,2.31,1.75s1.66,1.96,2.31,3.36c.65,1.4.98,3.1.98,5.11,0,2.8-.83,5.33-2.48,7.59-1.66,2.26-3.86,4.14-6.62,5.64-2.66,1.49-5.53,2.64-8.61,3.43-3.08.79-6.14,1.19-9.17,1.19ZM1335.68,356.7c.93-.09,1.96-.26,3.08-.49,1.12-.23,2.19-.59,3.22-1.08,1.03-.49,1.88-1.14,2.55-1.96.68-.82,1.01-1.81,1.01-2.98s-.37-2.01-1.12-2.66c-.75-.65-1.65-1.13-2.7-1.44-1.05-.3-2.04-.46-2.97-.46h-.56c-.23,0-.42.02-.56.07-.28,1.73-.61,3.55-.98,5.46-.37,1.91-.7,3.76-.98,5.53ZM1339.25,337.03c1.45-.28,2.82-.65,4.13-1.12,1.31-.47,2.37-1,3.19-1.61.82-.61,1.22-1.26,1.22-1.96,0-.89-.35-1.59-1.05-2.1-.7-.51-1.54-.89-2.52-1.12-.98-.23-1.89-.35-2.73-.35h-.7c-.33,1.87-.63,3.49-.91,4.87-.28,1.38-.49,2.51-.63,3.4Z"/>
      <path d="M1363.54,371.82c-1.4,0-2.82-.3-4.27-.91-1.45-.61-2.66-1.54-3.64-2.8-.98-1.26-1.47-2.87-1.47-4.83v-.56c0-.23.02-.42.07-.56.14-1.21.34-2.8.59-4.76.26-1.96.57-4.09.95-6.4.37-2.31.76-4.61,1.15-6.9.4-2.29.76-4.36,1.08-6.23.7-3.73,1.26-6.74,1.68-9.03.42-2.29.76-4.05,1.01-5.28.26-1.24.46-2.16.59-2.77.51-.05,1.06-.1,1.65-.17.58-.07,1.2-.13,1.85-.18.65-.09,1.3-.16,1.93-.21.63-.05,1.25-.09,1.85-.14l4.27-.42c-.61,2.85-1.18,5.54-1.72,8.08-.54,2.54-1.04,4.96-1.5,7.25l-3.22,15.47c-.28,1.17-.49,2.15-.63,2.94-.19.75-.38,1.69-.59,2.83-.21,1.14-.32,2.18-.32,3.11,0,.75.19,1.37.56,1.85.37.49.84.74,1.4.74.79,0,1.45-.3,1.96-.91.51-.61.93-1.35,1.26-2.24.33-.89.58-1.79.77-2.7.19-.91.35-1.65.49-2.21.47-2.15.9-4.23,1.29-6.26.4-2.03.82-4.19,1.26-6.48.44-2.29.95-4.92,1.5-7.91.37-2.05.76-4.14,1.16-6.27.4-2.12.78-4.28,1.16-6.47l10.64-.7c-.84,4.48-1.66,8.98-2.45,13.51-.33,1.73-.69,3.66-1.08,5.81-.4,2.15-.83,4.32-1.29,6.51-.47,2.19-.9,4.27-1.29,6.23-.4,1.96-.76,3.64-1.08,5.04-.93,3.83-2.38,6.82-4.34,9-1.96,2.17-4.12,3.7-6.48,4.58-2.36.89-4.61,1.33-6.75,1.33Z"/>
      <path d="M1381.88,370.63l9.17-49.77,22.12-1.89c-.33,1.03-.61,2.08-.84,3.15-.23.89-.46,1.81-.67,2.77-.21.96-.38,1.81-.52,2.55-.61.05-1.47.08-2.59.1-1.12.02-2.26.05-3.43.07-1.17.02-2.17.03-3.01.03h-1.33l-2.45,12.53,4.06-.21c.51-.05,1.04-.07,1.57-.07h2.98c.42,0,.75-.02.98-.07-.09.65-.17,1.29-.24,1.92-.07.63-.15,1.27-.25,1.93l-.63,3.85c-.23.05-.54.07-.91.07h-1.33c-.51.05-1.05.07-1.61.07s-1.1.02-1.61.07c-.61.05-1.24.07-1.89.07s-1.35.02-2.1.07l-2.38,12.88,10.22-1.61-.7,7.98-22.61,3.5Z"/>
      <path d="M1405.54,370.91c1.4-6.72,2.73-13.23,3.99-19.53,1.03-5.93,2.03-11.62,3.01-17.08.98-5.46,1.68-10.48,2.1-15.05.33.05.62.07.88.07h2.13c1.21,0,2.57-.03,4.06-.1,1.49-.07,2.87-.13,4.13-.17.33,1.63.64,3.24.94,4.83.3,1.59.57,3.13.81,4.62.23,1.31.49,2.65.77,4.02.28,1.38.56,2.77.84,4.17.23,1.4.48,2.69.74,3.88.26,1.19.48,2.27.67,3.25.56-2.75,1.08-5.46,1.58-8.12.49-2.66.97-5.06,1.43-7.21l2.03-9.38,8.54-1.05c-.79,3.55-1.54,7.02-2.24,10.43-.7,3.41-1.35,6.7-1.96,9.87-1.17,5.69-2.19,11.06-3.08,16.1-.89,5.04-1.56,9.43-2.03,13.16.51,0,.43.06-.25.17-.68.12-1.67.28-2.97.49-1.31.21-2.71.48-4.2.8-1.49.33-2.82.72-3.99,1.19-.14-1.87-.28-3.69-.42-5.46-.14-1.77-.3-3.5-.49-5.18-.28-2.99-.61-5.95-.98-8.89-.37-2.94-.75-5.27-1.12-7-.33,2.05-.72,4.4-1.19,7.04-.47,2.64-.98,5.28-1.54,7.94l-1.96,9.8-10.22,2.38Z"/>
      <path d="M1456.78,370.63c.51-2.57,1.04-5.12,1.58-7.67.54-2.54,1.04-5.05,1.5-7.52,1.77-8.87,3.22-17.36,4.34-25.48-.51-.09-1.05-.15-1.61-.17-.56-.02-1.1-.01-1.61.03-1.12.09-2.22-.05-3.29-.42.05-.37.07-.78.07-1.22v-2.87c0-.49.02-.97.07-1.44.05-.51.07-1.06.07-1.65s.02-1.18.07-1.79c1.21.09,2.43.16,3.64.21,1.21.05,2.43.07,3.64.07,3.45,0,6.76-.12,9.91-.35,3.15-.23,6.06-.51,8.71-.84l-.77,3.78-.63,3.29c-.23,1.21-.44,2.17-.63,2.87-.51.14-1.03.26-1.54.35-.51.09-1.03.16-1.54.21-.51.05-1.04.12-1.58.21-.54.09-1.06.19-1.58.28-.7,3.45-1.27,6.44-1.71,8.96-.44,2.52-.84,4.94-1.19,7.25-.35,2.31-.76,4.84-1.22,7.59-.79,4.71-1.49,9.5-2.1,14.35l-12.6,1.96Z"/>
      <path d="M1476.1,370.63l3.64-18.2c.56-3.36,1.17-6.81,1.82-10.36.65-3.55,1.27-7.05,1.85-10.5.58-3.45,1.04-6.7,1.37-9.73,2.66-.84,5.53-1.46,8.61-1.85,3.08-.4,6.14-.59,9.17-.59,3.55,0,5.96.77,7.25,2.31,1.28,1.54,1.92,3.62,1.92,6.23,0,2.38-.56,4.77-1.68,7.17-1.12,2.4-2.58,4.57-4.38,6.51-1.8,1.94-3.77,3.46-5.92,4.58.84,1.87,1.74,3.91,2.69,6.12.96,2.22,1.86,4.33,2.7,6.33.47,1.17.95,2.33,1.43,3.5.49,1.17.97,2.33,1.44,3.5l-10.85,3.78-2.52-8.4c-.7-2.33-1.34-4.58-1.92-6.75-.58-2.17-.92-3.7-1.02-4.58l-.91.28c-.14.75-.29,1.55-.46,2.42-.16.86-.34,1.81-.53,2.83-.19,1.03-.37,2.02-.56,2.98-.19.96-.37,1.9-.56,2.83l-1.26,6.65-11.34,2.94ZM1492.55,340.25c.84-.09,1.88-.46,3.11-1.08s2.47-1.41,3.71-2.35c1.24-.93,2.28-1.89,3.12-2.87s1.26-1.84,1.26-2.59c0-.93-.55-1.55-1.64-1.85-1.1-.3-2.53-.45-4.3-.45h-1.54c-.28.05-.54.07-.77.07h-.7l-2.24,11.13Z"/>
      <path d="M1525.03,370.42c.09-.79.19-1.56.28-2.31.09-.75.19-1.49.28-2.24l.42-3.92c.05-.65.09-1.26.14-1.82.05-.56.09-1.07.14-1.54h-6.09l-2.8,10.08c-1.03.14-2.24.29-3.64.46-1.4.16-2.71.31-3.92.46-.75.09-1.48.19-2.21.28-.72.09-1.46.19-2.21.28l5.53-18.34c.65-2.19,1.4-4.69,2.24-7.49s1.69-5.67,2.56-8.61c.86-2.94,1.68-5.71,2.45-8.29.77-2.59,1.39-4.77,1.86-6.55,3.17-.23,6.41-.51,9.7-.84,3.29-.33,6.5-.77,9.62-1.33-.23,2.61-.46,5.56-.67,8.85s-.4,6.69-.56,10.19c-.16,3.5-.34,6.95-.52,10.36-.09,3.22-.21,6.55-.35,9.98-.14,3.43-.28,6.94-.42,10.54-.7.09-1.4.19-2.1.28-.7.09-1.4.19-2.1.28-1.17.19-2.45.4-3.85.63-1.4.23-2.66.44-3.78.63ZM1521.88,351.59c.28,0,.8-.02,1.57-.07.77-.05,1.5-.09,2.21-.14.7-.05,1.12-.07,1.26-.07,0-.61.09-1.84.28-3.71.19-1.87.37-3.83.56-5.88.09-1.21.2-2.46.31-3.75.12-1.28.25-2.6.38-3.96l.42-6.09-1.05.07-1.61,6.02-4.34,17.57Z"/>
      <path d="M1541.97,370.84c-1.73,0-3.34-.14-4.83-.42,2.24-8.17,4.03-16.39,5.36-24.67,1.33-8.28,2.6-16.62,3.81-25.02,2.43-.51,4.95-.97,7.56-1.37,2.61-.4,5.32-.59,8.12-.59,1.54,0,3.17.27,4.9.8,1.73.54,3.19,1.49,4.38,2.87,1.19,1.38,1.79,3.33,1.79,5.85,0,2.33-.49,4.48-1.47,6.44-.98,1.96-2.22,3.64-3.71,5.04-1.49,1.4-3.03,2.4-4.62,3.01.65.33,1.42.91,2.31,1.75s1.66,1.96,2.31,3.36c.65,1.4.98,3.1.98,5.11,0,2.8-.83,5.33-2.48,7.59-1.66,2.26-3.86,4.14-6.62,5.64-2.66,1.49-5.53,2.64-8.61,3.43-3.08.79-6.14,1.19-9.17,1.19ZM1550.86,356.7c.93-.09,1.96-.26,3.08-.49,1.12-.23,2.19-.59,3.22-1.08,1.03-.49,1.88-1.14,2.55-1.96.68-.82,1.01-1.81,1.01-2.98s-.37-2.01-1.12-2.66c-.75-.65-1.65-1.13-2.7-1.44-1.05-.3-2.04-.46-2.97-.46h-.56c-.23,0-.42.02-.56.07-.28,1.73-.61,3.55-.98,5.46-.37,1.91-.7,3.76-.98,5.53ZM1554.43,337.03c1.45-.28,2.82-.65,4.13-1.12,1.31-.47,2.37-1,3.19-1.61.82-.61,1.22-1.26,1.22-1.96,0-.89-.35-1.59-1.05-2.1-.7-.51-1.54-.89-2.52-1.12-.98-.23-1.89-.35-2.73-.35h-.7c-.33,1.87-.63,3.49-.91,4.87-.28,1.38-.49,2.51-.63,3.4Z"/>
      <path d="M1585.3,370.42c.09-.79.19-1.56.28-2.31.09-.75.19-1.49.28-2.24l.42-3.92c.05-.65.09-1.26.14-1.82.05-.56.09-1.07.14-1.54h-6.09l-2.8,10.08c-1.03.14-2.24.29-3.64.46-1.4.16-2.71.31-3.92.46-.75.09-1.48.19-2.21.28-.72.09-1.46.19-2.21.28l5.53-18.34c.65-2.19,1.4-4.69,2.24-7.49s1.69-5.67,2.56-8.61c.86-2.94,1.68-5.71,2.45-8.29.77-2.59,1.39-4.77,1.86-6.55,3.17-.23,6.41-.51,9.7-.84,3.29-.33,6.5-.77,9.62-1.33-.23,2.61-.46,5.56-.67,8.85s-.4,6.69-.56,10.19c-.16,3.5-.34,6.95-.52,10.36-.09,3.22-.21,6.55-.35,9.98-.14,3.43-.28,6.94-.42,10.54-.7.09-1.4.19-2.1.28-.7.09-1.4.19-2.1.28-1.17.19-2.45.4-3.85.63-1.4.23-2.66.44-3.78.63ZM1582.15,351.59c.28,0,.8-.02,1.57-.07.77-.05,1.5-.09,2.21-.14.7-.05,1.12-.07,1.26-.07,0-.61.09-1.84.28-3.71.19-1.87.37-3.83.56-5.88.09-1.21.2-2.46.31-3.75.12-1.28.25-2.6.38-3.96l.42-6.09-1.05.07-1.61,6.02-4.34,17.57Z"/>
      <path d="M1604.83,370.63c-1.31,0-2.72-.28-4.23-.84-1.52-.56-3.19-1.52-5-2.87l4.83-10.78c.23.47.69.88,1.36,1.23.68.35,1.41.52,2.21.52.61,0,1.14-.49,1.61-1.47.47-.98.85-2.17,1.16-3.57.3-1.4.55-2.72.73-3.96.19-1.24.3-2.11.35-2.62.47-2.29.91-4.55,1.33-6.79.42-2.24.82-4.5,1.19-6.79.37-2.24.8-4.48,1.29-6.72.49-2.24.99-4.48,1.5-6.72,2.1-.19,4.17-.48,6.2-.88,2.03-.4,4.07-.88,6.12-1.44-.7,2.38-1.42,5.08-2.17,8.08-.75,3.01-1.47,6.12-2.17,9.35-.7,3.22-1.37,6.35-2,9.38-.63,3.03-1.18,5.76-1.65,8.19-.42,1.96-.93,4.02-1.54,6.2-.61,2.17-1.4,4.2-2.38,6.09-.98,1.89-2.18,3.43-3.6,4.62-1.42,1.19-3.14,1.78-5.15,1.78Z"/>
      <path d="M1629.68,370.84c-3.08,0-5.6-1.19-7.56-3.57s-2.94-5.97-2.94-10.78c0-2.66.33-5.46.98-8.4.65-2.94,1.56-5.83,2.73-8.68,1.17-2.85,2.52-5.48,4.06-7.91,2.47-3.92,5.32-7.12,8.54-9.59,3.22-2.47,6.6-3.71,10.15-3.71,2.8,0,4.96.71,6.48,2.13,1.52,1.42,2.58,3.24,3.18,5.46.61,2.22.91,4.52.91,6.9,0,5.55-.85,10.72-2.56,15.5-1.7,4.78-3.91,8.83-6.61,12.15-2.71,3.41-5.59,6.01-8.65,7.81-3.06,1.8-5.96,2.69-8.71,2.69ZM1633.46,359.29c2.1,0,3.96-.7,5.56-2.1,1.61-1.4,2.98-3.19,4.1-5.35s1.96-4.44,2.52-6.82c.56-2.38.84-4.53.84-6.44,0-.75-.07-1.55-.21-2.41-.14-.86-.44-1.62-.91-2.28-.47-.65-1.19-.98-2.17-.98-2.15,0-4.08.78-5.81,2.35-1.73,1.56-3.17,3.54-4.34,5.92-1.17,2.43-2.03,4.81-2.59,7.14-.56,2.33-.84,4.46-.84,6.37,0,.98.35,2,1.05,3.04.7,1.05,1.63,1.58,2.8,1.58Z"/>
      <path d="M1034.23,454.14c2.05-6.25,4.01-12.34,5.88-18.27.79-2.43,1.61-5.02,2.45-7.77.84-2.75,1.68-5.52,2.52-8.29.84-2.78,1.63-5.45,2.38-8.02.75-2.57,1.38-4.85,1.89-6.86,2.57,0,4.99-.14,7.28-.42,1.17-.14,2.37-.28,3.6-.42,1.24-.14,2.51-.26,3.82-.35l-.42,3.43c-.09.65-.19,1.32-.28,2-.09.68-.19,1.37-.28,2.06-.09.7-.21,1.41-.35,2.14-.14.72-.26,1.46-.35,2.2-.19,1.45-.47,3.47-.84,6.06-.37,2.59-.82,5.4-1.33,8.44h.91c1.35-3.55,2.47-6.5,3.36-8.85.89-2.36,1.61-4.28,2.17-5.77.79-2.19,1.66-4.41,2.59-6.65.93-2.24,1.7-3.97,2.31-5.18,1.12-.09,2.46-.25,4.02-.46s3.15-.46,4.76-.73c1.61-.28,3-.51,4.17-.7-.65,3.92-1.25,7.88-1.79,11.87-.54,3.99-1,7.79-1.4,11.41-.4,3.62-.73,6.87-1.01,9.77s-.54,5.75-.77,8.57c-.23,2.82-.47,5.61-.7,8.37l-12.18,2.17c0-.09.07-1.14.21-3.15.14-2.01.37-4.5.7-7.49.33-2.99.65-5.82.98-8.5.33-2.68.65-4.89.98-6.62h-.63c-1.17,3.55-2.58,7.42-4.24,11.62s-3.28,8.84-4.86,13.93c-1.63.05-3.03.11-4.2.17-1.17.07-2.52.15-4.06.25l2.24-25.97h-1.05c-.05.51-.26,1.5-.63,2.97-.37,1.47-.82,3.15-1.33,5.04-.51,1.89-1.05,3.77-1.61,5.64-2.1,7.33-3.22,11.2-3.36,11.62l-11.55.77Z"/>
      <path d="M1080.01,454.49c.65-2.71,1.31-5.77,1.96-9.21.65-3.43,1.31-6.99,1.96-10.67.65-3.69,1.26-7.23,1.82-10.64.51-2.99,1.01-6.02,1.5-9.1s.97-6.18,1.43-9.31l10.92-1.75-3.15,18.41c-.7,4.34-1.32,8.24-1.86,11.69-.54,3.45-1.05,6.72-1.54,9.8-.49,3.08-.99,6.23-1.5,9.45-.89,0-1.96.06-3.22.18s-2.52.26-3.78.42c-1.26.16-2.32.31-3.18.46-.86.14-1.32.23-1.37.28Z"/>
      <path d="M1123.06,456.24c-1.73,0-3.37-.37-4.93-1.12-1.56-.75-2.91-1.89-4.03-3.43-1.17-1.49-2.08-3.38-2.73-5.67-.65-2.29-.98-4.97-.98-8.05,0-6.02.86-11.27,2.59-15.75s3.92-8.21,6.58-11.2c2.61-2.99,5.43-5.2,8.44-6.65,3.01-1.45,5.82-2.17,8.43-2.17s4.57.55,6.16,1.65c1.59,1.1,2.75,2.55,3.5,4.38.75,1.82,1.12,3.85,1.12,6.09l-9.59,1.82c-.42-1.87-.98-3.2-1.68-3.99-.7-.79-1.49-1.19-2.38-1.19-1.03,0-2.09.56-3.18,1.68-1.1,1.12-2.17,2.62-3.22,4.52-1.05,1.89-2,4-2.83,6.33-.84,2.33-1.53,4.74-2.07,7.21-.54,2.47-.85,4.81-.95,7,0,2.89.43,4.96,1.29,6.2.86,1.24,1.97,1.85,3.33,1.85s2.6-.42,3.89-1.26c1.28-.84,2.36-1.97,3.22-3.39.86-1.42,1.32-3.02,1.37-4.79l-7.49,1.12,1.33-6.93,6.44-.84c1.77-.23,3.65-.51,5.64-.84,1.98-.33,3.72-.63,5.21-.91-.33,4.76-1.25,8.92-2.77,12.5-1.52,3.57-3.39,6.52-5.63,8.85-2.24,2.33-4.58,4.08-7.04,5.25s-4.79,1.75-7.04,1.75Z"/>
      <path d="M1142.66,454.63l3.64-18.2c.56-3.36,1.17-6.81,1.82-10.36.65-3.55,1.27-7.05,1.85-10.5.58-3.45,1.04-6.7,1.37-9.73,2.66-.84,5.53-1.46,8.61-1.85,3.08-.4,6.14-.59,9.17-.59,3.55,0,5.96.77,7.24,2.31s1.93,3.62,1.93,6.23c0,2.38-.56,4.77-1.68,7.17-1.12,2.4-2.58,4.57-4.38,6.51-1.8,1.94-3.77,3.46-5.92,4.58.84,1.87,1.74,3.91,2.7,6.12.96,2.22,1.86,4.33,2.7,6.33.47,1.17.94,2.33,1.43,3.5.49,1.17.97,2.33,1.44,3.5l-10.85,3.78-2.52-8.4c-.7-2.33-1.34-4.59-1.93-6.76-.58-2.17-.92-3.7-1.01-4.58l-.91.28c-.14.75-.29,1.55-.46,2.42-.16.86-.34,1.81-.52,2.83-.19,1.03-.37,2.02-.56,2.97-.19.96-.37,1.9-.56,2.84l-1.26,6.65-11.34,2.94ZM1159.11,424.25c.84-.09,1.88-.46,3.12-1.08,1.24-.63,2.47-1.41,3.71-2.35,1.24-.93,2.28-1.89,3.12-2.87s1.26-1.84,1.26-2.59c0-.93-.55-1.55-1.64-1.85-1.1-.3-2.53-.45-4.31-.45h-1.54c-.28.05-.54.07-.77.07h-.7l-2.24,11.13Z"/>
      <path d="M1191.59,454.42c.09-.79.19-1.56.28-2.31.09-.75.19-1.49.28-2.24l.42-3.92c.05-.65.09-1.26.14-1.82.05-.56.09-1.07.14-1.54h-6.09l-2.8,10.08c-1.03.14-2.24.29-3.64.46-1.4.16-2.71.31-3.92.45-.75.09-1.48.19-2.21.28-.72.09-1.46.19-2.21.28l5.53-18.34c.65-2.19,1.4-4.69,2.24-7.49s1.69-5.67,2.55-8.61c.86-2.94,1.68-5.71,2.45-8.29.77-2.59,1.39-4.77,1.86-6.55,3.17-.23,6.4-.51,9.69-.84,3.29-.33,6.5-.77,9.62-1.33-.23,2.61-.46,5.56-.67,8.85s-.4,6.69-.56,10.19c-.16,3.5-.34,6.95-.53,10.36-.09,3.22-.21,6.54-.35,9.97s-.28,6.94-.42,10.54c-.7.09-1.4.19-2.1.28-.7.09-1.4.19-2.1.28-1.17.19-2.45.4-3.85.63-1.4.23-2.66.44-3.78.63ZM1188.44,435.59c.28,0,.81-.02,1.58-.07.77-.05,1.5-.09,2.21-.14.7-.05,1.12-.07,1.26-.07,0-.61.09-1.84.28-3.71.19-1.87.37-3.83.56-5.88.09-1.21.2-2.46.32-3.75.12-1.28.25-2.6.38-3.96l.42-6.09-1.05.07-1.61,6.02-4.34,17.57Z"/>
      <path d="M1204.12,454.91c1.4-6.72,2.73-13.23,3.99-19.53,1.03-5.93,2.03-11.62,3.01-17.08.98-5.46,1.68-10.48,2.1-15.05.33.05.62.07.88.07h2.13c1.21,0,2.57-.03,4.06-.1,1.49-.07,2.87-.13,4.13-.17.33,1.63.64,3.24.95,4.83.3,1.59.57,3.13.8,4.62.23,1.31.49,2.65.77,4.02.28,1.38.56,2.77.84,4.17.23,1.4.48,2.69.74,3.88.26,1.19.48,2.27.67,3.25.56-2.75,1.08-5.46,1.58-8.12.49-2.66.97-5.06,1.43-7.21l2.03-9.38,8.54-1.05c-.79,3.55-1.54,7.02-2.24,10.43-.7,3.41-1.35,6.7-1.96,9.87-1.17,5.69-2.19,11.06-3.08,16.1-.89,5.04-1.56,9.43-2.03,13.16.51,0,.43.06-.25.18-.68.12-1.67.28-2.98.49s-2.71.48-4.2.81c-1.49.33-2.82.72-3.99,1.19-.14-1.87-.28-3.69-.42-5.46-.14-1.77-.3-3.5-.49-5.18-.28-2.99-.61-5.95-.98-8.89-.37-2.94-.75-5.27-1.12-7-.33,2.05-.72,4.4-1.19,7.03-.47,2.64-.98,5.29-1.54,7.95l-1.96,9.8-10.22,2.38Z"/>
      <path d="M1264.67,456.24c-1.73,0-3.37-.37-4.94-1.12-1.56-.75-2.91-1.89-4.02-3.43-1.17-1.49-2.08-3.38-2.73-5.67-.65-2.29-.98-4.97-.98-8.05,0-6.02.86-11.27,2.59-15.75,1.73-4.48,3.92-8.21,6.58-11.2,2.61-2.99,5.42-5.2,8.43-6.65,3.01-1.45,5.82-2.17,8.44-2.17s4.57.55,6.16,1.65c1.59,1.1,2.75,2.55,3.5,4.38.75,1.82,1.12,3.85,1.12,6.09l-9.59,1.82c-.42-1.87-.98-3.2-1.68-3.99-.7-.79-1.49-1.19-2.38-1.19-1.03,0-2.09.56-3.19,1.68-1.1,1.12-2.17,2.62-3.22,4.52s-2,4-2.83,6.33c-.84,2.33-1.53,4.74-2.07,7.21-.54,2.47-.85,4.81-.94,7,0,2.89.43,4.96,1.29,6.2.86,1.24,1.97,1.85,3.33,1.85s2.6-.42,3.88-1.26c1.28-.84,2.36-1.97,3.22-3.39.86-1.42,1.32-3.02,1.37-4.79l-7.49,1.12,1.33-6.93,6.44-.84c1.77-.23,3.65-.51,5.63-.84,1.98-.33,3.72-.63,5.21-.91-.33,4.76-1.25,8.92-2.76,12.5-1.52,3.57-3.4,6.52-5.64,8.85-2.24,2.33-4.58,4.08-7.04,5.25-2.45,1.17-4.79,1.75-7.03,1.75Z"/>
      <path d="M1295.54,455.82c-1.4,0-2.82-.3-4.27-.91-1.45-.61-2.66-1.54-3.64-2.8-.98-1.26-1.47-2.87-1.47-4.83v-.56c0-.23.02-.42.07-.56.14-1.21.34-2.8.59-4.76.26-1.96.57-4.09.95-6.41.37-2.31.76-4.61,1.15-6.89.4-2.29.76-4.36,1.08-6.23.7-3.73,1.26-6.74,1.68-9.03.42-2.29.76-4.05,1.01-5.28.26-1.24.46-2.16.59-2.77.51-.05,1.06-.1,1.65-.17.58-.07,1.2-.13,1.85-.18.65-.09,1.3-.16,1.93-.21.63-.05,1.25-.09,1.85-.14l4.27-.42c-.61,2.85-1.18,5.54-1.72,8.08-.54,2.54-1.04,4.96-1.5,7.25l-3.22,15.47c-.28,1.17-.49,2.15-.63,2.94-.19.75-.38,1.69-.59,2.83-.21,1.14-.32,2.18-.32,3.12,0,.75.19,1.37.56,1.86.37.49.84.73,1.4.73.79,0,1.45-.3,1.96-.91.51-.61.93-1.35,1.26-2.24.33-.89.58-1.79.77-2.7.19-.91.35-1.64.49-2.21.47-2.15.9-4.23,1.29-6.26.4-2.03.82-4.19,1.26-6.48.44-2.29.95-4.92,1.5-7.91.37-2.05.76-4.14,1.16-6.27.4-2.12.78-4.28,1.16-6.47l10.64-.7c-.84,4.48-1.66,8.98-2.45,13.51-.33,1.73-.69,3.66-1.08,5.81-.4,2.15-.83,4.32-1.29,6.51-.47,2.19-.9,4.27-1.29,6.23-.4,1.96-.76,3.64-1.08,5.04-.93,3.83-2.38,6.83-4.34,9s-4.12,3.7-6.48,4.58c-2.36.89-4.61,1.33-6.75,1.33Z"/>
      <path d="M1331.45,454.42c.09-.79.19-1.56.28-2.31.09-.75.19-1.49.28-2.24l.42-3.92c.05-.65.09-1.26.14-1.82.05-.56.09-1.07.14-1.54h-6.09l-2.8,10.08c-1.03.14-2.24.29-3.64.46-1.4.16-2.71.31-3.92.45-.75.09-1.48.19-2.21.28-.72.09-1.46.19-2.21.28l5.53-18.34c.65-2.19,1.4-4.69,2.24-7.49s1.69-5.67,2.56-8.61c.86-2.94,1.68-5.71,2.45-8.29.77-2.59,1.39-4.77,1.86-6.55,3.17-.23,6.41-.51,9.7-.84,3.29-.33,6.5-.77,9.62-1.33-.23,2.61-.46,5.56-.67,8.85s-.4,6.69-.56,10.19c-.16,3.5-.34,6.95-.52,10.36-.09,3.22-.21,6.54-.35,9.97s-.28,6.94-.42,10.54c-.7.09-1.4.19-2.1.28-.7.09-1.4.19-2.1.28-1.17.19-2.45.4-3.85.63-1.4.23-2.66.44-3.78.63ZM1328.3,435.59c.28,0,.8-.02,1.57-.07.77-.05,1.5-.09,2.21-.14.7-.05,1.12-.07,1.26-.07,0-.61.09-1.84.28-3.71.19-1.87.37-3.83.56-5.88.09-1.21.2-2.46.31-3.75.12-1.28.25-2.6.38-3.96l.42-6.09-1.05.07-1.61,6.02-4.34,17.57Z"/>
      <path d="M1343.91,454.63l3.64-18.2c.56-3.36,1.17-6.81,1.82-10.36.65-3.55,1.27-7.05,1.85-10.5.58-3.45,1.04-6.7,1.37-9.73,2.66-.84,5.53-1.46,8.61-1.85,3.08-.4,6.14-.59,9.17-.59,3.55,0,5.96.77,7.25,2.31,1.28,1.54,1.92,3.62,1.92,6.23,0,2.38-.56,4.77-1.68,7.17-1.12,2.4-2.58,4.57-4.38,6.51-1.8,1.94-3.77,3.46-5.92,4.58.84,1.87,1.74,3.91,2.69,6.12.96,2.22,1.86,4.33,2.7,6.33.47,1.17.95,2.33,1.43,3.5.49,1.17.97,2.33,1.44,3.5l-10.85,3.78-2.52-8.4c-.7-2.33-1.34-4.59-1.92-6.76-.58-2.17-.92-3.7-1.02-4.58l-.91.28c-.14.75-.29,1.55-.46,2.42-.16.86-.34,1.81-.53,2.83-.19,1.03-.37,2.02-.56,2.97-.19.96-.37,1.9-.56,2.84l-1.26,6.65-11.34,2.94ZM1360.36,424.25c.84-.09,1.88-.46,3.11-1.08s2.47-1.41,3.71-2.35c1.24-.93,2.28-1.89,3.12-2.87s1.26-1.84,1.26-2.59c0-.93-.55-1.55-1.64-1.85-1.1-.3-2.53-.45-4.3-.45h-1.54c-.28.05-.54.07-.77.07h-.7l-2.24,11.13Z"/>
      <path d="M1378.91,454.91c-.65,0-1.31-.03-1.96-.1-.65-.07-1.31-.15-1.96-.25l3.71-18.83c.47-2.57.97-5.29,1.5-8.15.54-2.87,1.06-5.72,1.58-8.54.51-2.82.97-5.45,1.36-7.88.4-2.43.71-4.48.95-6.16,2.01-.37,4.04-.72,6.09-1.05,2.05-.33,4.15-.49,6.3-.49,3.45,0,6.18.71,8.19,2.14,2.01,1.42,3.45,3.29,4.34,5.6.89,2.31,1.33,4.84,1.33,7.6,0,2.47-.35,5.08-1.05,7.81-.7,2.73-1.69,5.44-2.97,8.12-1.28,2.68-2.81,5.21-4.59,7.59-2.75,3.69-6.1,6.71-10.04,9.07s-8.2,3.53-12.77,3.53ZM1387.24,446.09c1.63-1.07,3.18-2.71,4.65-4.9,1.47-2.19,2.86-4.83,4.17-7.91,1.17-2.85,2.08-5.54,2.73-8.08.65-2.54.98-4.65.98-6.33s-.48-3.08-1.43-4.06c-.96-.98-2.46-1.47-4.51-1.47-.75,4.01-1.5,7.72-2.28,11.13-.77,3.41-1.52,6.84-2.24,10.29-.72,3.45-1.41,7.23-2.06,11.34Z"/>
      <path d="M1405.93,454.49c.65-2.71,1.31-5.77,1.96-9.21.65-3.43,1.31-6.99,1.96-10.67.65-3.69,1.26-7.23,1.82-10.64.51-2.99,1.02-6.02,1.5-9.1.49-3.08.97-6.18,1.44-9.31l10.92-1.75-3.15,18.41c-.7,4.34-1.32,8.24-1.85,11.69-.54,3.45-1.05,6.72-1.54,9.8-.49,3.08-.99,6.23-1.5,9.45-.89,0-1.96.06-3.22.18-1.26.12-2.52.26-3.78.42-1.26.16-2.32.31-3.19.46-.86.14-1.32.23-1.37.28Z"/>
      <path d="M1437.85,454.42c.09-.79.19-1.56.28-2.31.09-.75.19-1.49.28-2.24l.42-3.92c.05-.65.09-1.26.14-1.82.05-.56.09-1.07.14-1.54h-6.09l-2.8,10.08c-1.03.14-2.24.29-3.64.46-1.4.16-2.71.31-3.92.45-.75.09-1.48.19-2.21.28-.72.09-1.46.19-2.21.28l5.53-18.34c.65-2.19,1.4-4.69,2.24-7.49s1.69-5.67,2.56-8.61c.86-2.94,1.68-5.71,2.45-8.29.77-2.59,1.39-4.77,1.86-6.55,3.17-.23,6.41-.51,9.7-.84,3.29-.33,6.5-.77,9.62-1.33-.23,2.61-.46,5.56-.67,8.85s-.4,6.69-.56,10.19c-.16,3.5-.34,6.95-.52,10.36-.09,3.22-.21,6.54-.35,9.97s-.28,6.94-.42,10.54c-.7.09-1.4.19-2.1.28-.7.09-1.4.19-2.1.28-1.17.19-2.45.4-3.85.63-1.4.23-2.66.44-3.78.63ZM1433.02,401.01c-.05-.23-.07-.48-.07-.74v-3.08c0-.4.02-.78.07-1.15v-2.38c1.59-1.63,3.13-3.16,4.62-4.58,1.49-1.42,2.94-2.77,4.34-4.02,1.4-1.26,2.75-2.54,4.06-3.85,1.31-1.31,2.57-2.61,3.78-3.92.23,3.17.37,6.09.42,8.75,0,1.35.05,2.72.14,4.09.09,1.38.23,2.79.42,4.23-1.35.56-2.78,1.12-4.27,1.68s-3.03,1.12-4.62,1.68c-1.59.61-3.13,1.18-4.62,1.71-1.49.54-2.92,1.06-4.27,1.58ZM1434.7,435.59c.28,0,.8-.02,1.57-.07.77-.05,1.5-.09,2.21-.14.7-.05,1.12-.07,1.26-.07,0-.61.09-1.84.28-3.71.19-1.87.37-3.83.56-5.88.09-1.21.2-2.46.31-3.75.12-1.28.25-2.6.38-3.96l.42-6.09-1.05.07-1.61,6.02-4.34,17.57Z"/>
      <path d="M1450.37,454.91c1.4-6.72,2.73-13.23,3.99-19.53,1.03-5.93,2.03-11.62,3.01-17.08.98-5.46,1.68-10.48,2.1-15.05.33.05.62.07.88.07h2.13c1.21,0,2.57-.03,4.06-.1,1.49-.07,2.87-.13,4.13-.17.33,1.63.64,3.24.94,4.83.3,1.59.57,3.13.81,4.62.23,1.31.49,2.65.77,4.02.28,1.38.56,2.77.84,4.17.23,1.4.48,2.69.74,3.88.26,1.19.48,2.27.67,3.25.56-2.75,1.08-5.46,1.58-8.12.49-2.66.97-5.06,1.43-7.21l2.03-9.38,8.54-1.05c-.79,3.55-1.54,7.02-2.24,10.43-.7,3.41-1.35,6.7-1.96,9.87-1.17,5.69-2.19,11.06-3.08,16.1-.89,5.04-1.56,9.43-2.03,13.16.51,0,.43.06-.25.18s-1.67.28-2.97.49c-1.31.21-2.71.48-4.2.81-1.49.33-2.82.72-3.99,1.19-.14-1.87-.28-3.69-.42-5.46-.14-1.77-.3-3.5-.49-5.18-.28-2.99-.61-5.95-.98-8.89-.37-2.94-.75-5.27-1.12-7-.33,2.05-.72,4.4-1.19,7.03-.47,2.64-.98,5.29-1.54,7.95l-1.96,9.8-10.22,2.38Z"/>
    </g>
    <rect class="cls-16" x="756.54" y="942.11" width="974.24" height="49.31" rx="24.65" ry="24.65"/>
    <ellipse class="cls-16" cx="375.29" cy="966.76" rx="164" ry="24.5"/>
    <rect class="cls-12" x="796.28" y="780.47" width="386.52" height="182.3" rx="45.59" ry="45.59"/>
    <rect class="cls-20" x="796.28" y="765.65" width="386.52" height="182.3" rx="45.59" ry="45.59"/>
    <g>
      <path class="cls-10" d="M903.64,818.48l1.98-11.34,2.04-12.24h9.36l-4.32,23.04-9.06.54ZM916,817.94c.08-.6.18-1.2.3-1.8.12-.6.24-1.22.36-1.86.08-.52.18-1.05.3-1.59.12-.54.24-1.09.36-1.65.08-.56.18-1.1.3-1.62.12-.52.22-1,.3-1.44.48-2.76.89-5.18,1.23-7.26.34-2.08.63-3.98.87-5.7h9.3l-3.78,22.8h-4.92l-4.62.12Z"/>
      <path class="cls-10" d="M923.68,840.26l3.12-15.6c.48-2.88,1-5.84,1.56-8.88.56-3.04,1.09-6.04,1.59-9,.5-2.96.89-5.74,1.17-8.34,2.28-.72,4.74-1.25,7.38-1.59,2.64-.34,5.26-.51,7.86-.51,3.04,0,5.11.66,6.21,1.98,1.1,1.32,1.65,3.1,1.65,5.34,0,2.04-.48,4.09-1.44,6.15-.96,2.06-2.21,3.92-3.75,5.58-1.54,1.66-3.23,2.97-5.07,3.93.72,1.6,1.49,3.35,2.31,5.25.82,1.9,1.59,3.71,2.31,5.43.4,1,.81,2,1.23,3,.42,1,.83,2,1.23,3l-9.3,3.24-2.16-7.2c-.6-2-1.15-3.93-1.65-5.79-.5-1.86-.79-3.17-.87-3.93l-.78.24c-.12.64-.25,1.33-.39,2.07-.14.74-.29,1.55-.45,2.43-.16.88-.32,1.73-.48,2.55-.16.82-.32,1.63-.48,2.43l-1.08,5.7-9.72,2.52ZM937.78,814.22c.72-.08,1.61-.39,2.67-.93,1.06-.54,2.12-1.21,3.18-2.01,1.06-.8,1.95-1.62,2.67-2.46.72-.84,1.08-1.58,1.08-2.22,0-.8-.47-1.33-1.41-1.59-.94-.26-2.17-.39-3.69-.39h-1.32c-.24.04-.46.06-.66.06h-.6l-1.92,9.54Z"/>
      <path class="cls-10" d="M954.88,816.62l1.56-10.32,2.04-12.54h9.66l-4.26,21.96-9,.9ZM966.94,816.56l2.1-10.14,2.52-12.66,9.06-.54-4.32,23.34h-9.36Z"/>
      <path class="cls-10" d="M985.6,840.26c1.2-5.4,2.34-10.68,3.42-15.84.44-2.08.89-4.31,1.35-6.69.46-2.38.93-4.79,1.41-7.23.48-2.44.92-4.75,1.32-6.93.4-2.18.72-4.09.96-5.73,1.6-.48,3.33-.92,5.19-1.32,1.86-.4,3.53-.6,5.01-.6,2.4,0,4.3.51,5.7,1.53,1.4,1.02,2.4,2.39,3,4.11.6,1.72.9,3.6.9,5.64,0,2.24-.41,4.39-1.23,6.45-.82,2.06-1.92,3.91-3.3,5.55-1.38,1.64-2.96,2.94-4.74,3.9-1.78.96-3.63,1.44-5.55,1.44h-.66c-.32,1.36-.62,2.84-.9,4.44-.28,1.6-.52,3.08-.72,4.44-.16.8-.3,1.6-.42,2.4l-.36,2.4-10.38,2.04ZM999.58,818.24c.92-.24,1.84-.85,2.76-1.83.92-.98,1.68-2.23,2.28-3.75.6-1.52.9-3.18.9-4.98,0-1.48-.33-2.6-.99-3.36s-1.39-1.14-2.19-1.14c-.44,2.64-.88,5.14-1.32,7.5-.44,2.36-.92,4.88-1.44,7.56Z"/>
      <path class="cls-10" d="M1024.06,840.08c.08-.68.16-1.34.24-1.98.08-.64.16-1.28.24-1.92l.36-3.36c.04-.56.08-1.08.12-1.56.04-.48.08-.92.12-1.32h-5.22l-2.4,8.64c-.88.12-1.92.25-3.12.39-1.2.14-2.32.27-3.36.39-.64.08-1.27.16-1.89.24-.62.08-1.25.16-1.89.24l4.74-15.72c.56-1.88,1.2-4.02,1.92-6.42.72-2.4,1.45-4.86,2.19-7.38.74-2.52,1.44-4.89,2.1-7.11s1.19-4.09,1.59-5.61c2.72-.2,5.49-.44,8.31-.72,2.82-.28,5.57-.66,8.25-1.14-.2,2.24-.39,4.77-.57,7.59-.18,2.82-.34,5.73-.48,8.73-.14,3-.29,5.96-.45,8.88-.08,2.76-.18,5.61-.3,8.55-.12,2.94-.24,5.95-.36,9.03-.6.08-1.2.16-1.8.24-.6.08-1.2.16-1.8.24-1,.16-2.1.34-3.3.54-1.2.2-2.28.38-3.24.54ZM1021.36,823.94c.24,0,.69-.02,1.35-.06.66-.04,1.29-.08,1.89-.12.6-.04.96-.06,1.08-.06,0-.52.08-1.58.24-3.18.16-1.6.32-3.28.48-5.04.08-1.04.17-2.11.27-3.21.1-1.1.21-2.23.33-3.39l.36-5.22-.9.06-1.38,5.16-3.72,15.06Z"/>
      <path class="cls-10" d="M1034.74,840.26l3.12-15.6c.48-2.88,1-5.84,1.56-8.88.56-3.04,1.09-6.04,1.59-9s.89-5.74,1.17-8.34c2.28-.72,4.74-1.25,7.38-1.59,2.64-.34,5.26-.51,7.86-.51,3.04,0,5.11.66,6.21,1.98,1.1,1.32,1.65,3.1,1.65,5.34,0,2.04-.48,4.09-1.44,6.15-.96,2.06-2.21,3.92-3.75,5.58-1.54,1.66-3.23,2.97-5.07,3.93.72,1.6,1.49,3.35,2.31,5.25.82,1.9,1.59,3.71,2.31,5.43.4,1,.81,2,1.23,3,.42,1,.83,2,1.23,3l-9.3,3.24-2.16-7.2c-.6-2-1.15-3.93-1.65-5.79-.5-1.86-.79-3.17-.87-3.93l-.78.24c-.12.64-.25,1.33-.39,2.07-.14.74-.29,1.55-.45,2.43-.16.88-.32,1.73-.48,2.55-.16.82-.32,1.63-.48,2.43l-1.08,5.7-9.72,2.52ZM1048.84,814.22c.72-.08,1.61-.39,2.67-.93s2.12-1.21,3.18-2.01c1.06-.8,1.95-1.62,2.67-2.46.72-.84,1.08-1.58,1.08-2.22,0-.8-.47-1.33-1.41-1.59-.94-.26-2.17-.39-3.69-.39h-1.32c-.24.04-.46.06-.66.06h-.6l-1.92,9.54Z"/>
      <path class="cls-10" d="M1076.68,840.08c.08-.68.16-1.34.24-1.98.08-.64.16-1.28.24-1.92l.36-3.36c.04-.56.08-1.08.12-1.56.04-.48.08-.92.12-1.32h-5.22l-2.4,8.64c-.88.12-1.92.25-3.12.39-1.2.14-2.32.27-3.36.39-.64.08-1.27.16-1.89.24-.62.08-1.25.16-1.89.24l4.74-15.72c.56-1.88,1.2-4.02,1.92-6.42.72-2.4,1.45-4.86,2.19-7.38.74-2.52,1.44-4.89,2.1-7.11s1.19-4.09,1.59-5.61c2.72-.2,5.49-.44,8.31-.72,2.82-.28,5.57-.66,8.25-1.14-.2,2.24-.39,4.77-.57,7.59-.18,2.82-.34,5.73-.48,8.73-.14,3-.29,5.96-.45,8.88-.08,2.76-.18,5.61-.3,8.55-.12,2.94-.24,5.95-.36,9.03-.6.08-1.2.16-1.8.24-.6.08-1.2.16-1.8.24-1,.16-2.1.34-3.3.54-1.2.2-2.28.38-3.24.54ZM1073.98,823.94c.24,0,.69-.02,1.35-.06.66-.04,1.29-.08,1.89-.12.6-.04.96-.06,1.08-.06,0-.52.08-1.58.24-3.18.16-1.6.32-3.28.48-5.04.08-1.04.17-2.11.27-3.21.1-1.1.21-2.23.33-3.39l.36-5.22-.9.06-1.38,5.16-3.72,15.06Z"/>
      <path class="cls-10" d="M899.41,912.26l3.12-15.6c.48-2.88,1-5.84,1.56-8.88.56-3.04,1.09-6.04,1.59-9,.5-2.96.89-5.74,1.17-8.34,2.28-.72,4.74-1.25,7.38-1.59s5.26-.51,7.86-.51c3.04,0,5.11.66,6.21,1.98,1.1,1.32,1.65,3.1,1.65,5.34,0,2.04-.48,4.09-1.44,6.15-.96,2.06-2.21,3.92-3.75,5.58-1.54,1.66-3.23,2.97-5.07,3.93.72,1.6,1.49,3.35,2.31,5.25.82,1.9,1.59,3.71,2.31,5.43.4,1,.81,2,1.23,3,.42,1,.83,2,1.23,3l-9.3,3.24-2.16-7.2c-.6-2-1.15-3.93-1.65-5.79-.5-1.86-.79-3.17-.87-3.93l-.78.24c-.12.64-.25,1.33-.39,2.07-.14.74-.29,1.55-.45,2.43-.16.88-.32,1.73-.48,2.55-.16.82-.32,1.63-.48,2.43l-1.08,5.7-9.72,2.52ZM913.51,886.22c.72-.08,1.61-.39,2.67-.93,1.06-.54,2.12-1.21,3.18-2.01,1.06-.8,1.95-1.62,2.67-2.46.72-.84,1.08-1.58,1.08-2.22,0-.8-.47-1.33-1.41-1.59-.94-.26-2.17-.39-3.69-.39h-1.32c-.24.04-.46.06-.66.06h-.6l-1.92,9.54Z"/>
      <path class="cls-10" d="M926.29,912.26l7.86-42.66,18.96-1.62c-.28.88-.52,1.78-.72,2.7-.2.76-.39,1.55-.57,2.37-.18.82-.33,1.55-.45,2.19-.52.04-1.26.07-2.22.09-.96.02-1.94.04-2.94.06-1,.02-1.86.03-2.58.03h-1.14l-2.1,10.74,3.48-.18c.44-.04.89-.06,1.35-.06h2.55c.36,0,.64-.02.84-.06-.08.56-.15,1.11-.21,1.65s-.13,1.09-.21,1.65l-.54,3.3c-.2.04-.46.06-.78.06h-1.14c-.44.04-.9.06-1.38.06s-.94.02-1.38.06c-.52.04-1.06.06-1.62.06s-1.16.02-1.8.06l-2.04,11.04,8.76-1.38-.6,6.84-19.38,3Z"/>
      <path class="cls-10" d="M946.57,912.14c.56-2.32,1.12-4.95,1.68-7.89.56-2.94,1.12-5.99,1.68-9.15.56-3.16,1.08-6.2,1.56-9.12.44-2.56.87-5.16,1.29-7.8.42-2.64.83-5.3,1.23-7.98l9.36-1.5-2.7,15.78c-.6,3.72-1.13,7.06-1.59,10.02-.46,2.96-.9,5.76-1.32,8.4-.42,2.64-.85,5.34-1.29,8.1-.76,0-1.68.05-2.76.15-1.08.1-2.16.22-3.24.36-1.08.14-1.99.27-2.73.39-.74.12-1.13.2-1.17.24Z"/>
      <path class="cls-10" d="M958.69,912.5c1.2-5.76,2.34-11.34,3.42-16.74.88-5.08,1.74-9.96,2.58-14.64.84-4.68,1.44-8.98,1.8-12.9.28.04.53.06.75.06h1.83c1.04,0,2.2-.03,3.48-.09,1.28-.06,2.46-.11,3.54-.15.28,1.4.55,2.78.81,4.14.26,1.36.49,2.68.69,3.96.2,1.12.42,2.27.66,3.45s.48,2.37.72,3.57c.2,1.2.41,2.31.63,3.33.22,1.02.41,1.95.57,2.79.48-2.36.93-4.68,1.35-6.96s.83-4.34,1.23-6.18l1.74-8.04,7.32-.9c-.68,3.04-1.32,6.02-1.92,8.94-.6,2.92-1.16,5.74-1.68,8.46-1,4.88-1.88,9.48-2.64,13.8-.76,4.32-1.34,8.08-1.74,11.28.44,0,.37.05-.21.15-.58.1-1.43.24-2.55.42-1.12.18-2.32.41-3.6.69-1.28.28-2.42.62-3.42,1.02-.12-1.6-.24-3.16-.36-4.68-.12-1.52-.26-3-.42-4.44-.24-2.56-.52-5.1-.84-7.62-.32-2.52-.64-4.52-.96-6-.28,1.76-.62,3.77-1.02,6.03-.4,2.26-.84,4.53-1.32,6.81l-1.68,8.4-8.76,2.04Z"/>
      <path class="cls-10" d="M985.81,912.14c.56-2.32,1.12-4.95,1.68-7.89.56-2.94,1.12-5.99,1.68-9.15.56-3.16,1.08-6.2,1.56-9.12.44-2.56.87-5.16,1.29-7.8.42-2.64.83-5.3,1.23-7.98l9.36-1.5-2.7,15.78c-.6,3.72-1.13,7.06-1.59,10.02-.46,2.96-.9,5.76-1.32,8.4-.42,2.64-.85,5.34-1.29,8.1-.76,0-1.68.05-2.76.15-1.08.1-2.16.22-3.24.36-1.08.14-1.99.27-2.73.39-.74.12-1.13.2-1.17.24Z"/>
      <path class="cls-10" d="M1008.55,912.32c-2.52,0-4.58-1.18-6.18-3.54-1.6-2.36-2.4-5.6-2.4-9.72,0-3.76.52-7.47,1.56-11.13,1.04-3.66,2.5-6.95,4.38-9.87,1.88-2.92,4.11-5.27,6.69-7.05,2.58-1.78,5.43-2.67,8.55-2.67,1.96,0,3.64.76,5.04,2.28,1.4,1.52,2.1,3.56,2.1,6.12v1.14c0,.12-.02.26-.06.42l-7.86,2.1c-.48-1-1.04-1.5-1.68-1.5-.96,0-1.97.78-3.03,2.34-1.06,1.56-2.07,3.42-3.03,5.58-.64,1.44-1.21,2.92-1.71,4.44-.5,1.52-.89,2.94-1.17,4.26-.28,1.32-.42,2.4-.42,3.24,0,1.24.18,2.14.54,2.7.28.52.72.78,1.32.78s1.26-.29,1.98-.87c.72-.58,1.39-1.31,2.01-2.19s1.03-1.76,1.23-2.64l6.84,2.76c-1.96,4.48-4.29,7.77-6.99,9.87-2.7,2.1-5.27,3.15-7.71,3.15Z"/>
      <path class="cls-10" d="M1022.77,912.14c.56-2.32,1.12-4.95,1.68-7.89.56-2.94,1.12-5.99,1.68-9.15.56-3.16,1.08-6.2,1.56-9.12.44-2.56.87-5.16,1.29-7.8.42-2.64.83-5.3,1.23-7.98l9.36-1.5-2.7,15.78c-.6,3.72-1.13,7.06-1.59,10.02-.46,2.96-.9,5.76-1.32,8.4-.42,2.64-.85,5.34-1.29,8.1-.76,0-1.68.05-2.76.15-1.08.1-2.16.22-3.24.36-1.08.14-1.99.27-2.73.39-.74.12-1.13.2-1.17.24Z"/>
      <path class="cls-10" d="M1050.13,912.08c.08-.68.16-1.34.24-1.98.08-.64.16-1.28.24-1.92l.36-3.36c.04-.56.08-1.08.12-1.56.04-.48.08-.92.12-1.32h-5.22l-2.4,8.64c-.88.12-1.92.25-3.12.39-1.2.14-2.32.27-3.36.39-.64.08-1.27.16-1.89.24s-1.25.16-1.89.24l4.74-15.72c.56-1.88,1.2-4.02,1.92-6.42.72-2.4,1.45-4.86,2.19-7.38.74-2.52,1.44-4.89,2.1-7.11.66-2.22,1.19-4.09,1.59-5.61,2.72-.2,5.49-.44,8.31-.72,2.82-.28,5.57-.66,8.25-1.14-.2,2.24-.39,4.77-.57,7.59-.18,2.82-.34,5.73-.48,8.73-.14,3-.29,5.96-.45,8.88-.08,2.76-.18,5.61-.3,8.55-.12,2.94-.24,5.95-.36,9.03-.6.08-1.2.16-1.8.24-.6.08-1.2.16-1.8.24-1,.16-2.1.34-3.3.54-1.2.2-2.28.38-3.24.54ZM1047.43,895.94c.24,0,.69-.02,1.35-.06s1.29-.08,1.89-.12c.6-.04.96-.06,1.08-.06,0-.52.08-1.58.24-3.18.16-1.6.32-3.28.48-5.04.08-1.04.17-2.11.27-3.21.1-1.1.21-2.23.33-3.39l.36-5.22-.9.06-1.38,5.16-3.72,15.06Z"/>
      <path class="cls-10" d="M1060.81,912.26l3.12-15.6c.48-2.88,1-5.84,1.56-8.88.56-3.04,1.09-6.04,1.59-9,.5-2.96.89-5.74,1.17-8.34,2.28-.72,4.74-1.25,7.38-1.59,2.64-.34,5.26-.51,7.86-.51,3.04,0,5.11.66,6.21,1.98,1.1,1.32,1.65,3.1,1.65,5.34,0,2.04-.48,4.09-1.44,6.15-.96,2.06-2.21,3.92-3.75,5.58-1.54,1.66-3.23,2.97-5.07,3.93.72,1.6,1.49,3.35,2.31,5.25.82,1.9,1.59,3.71,2.31,5.43.4,1,.81,2,1.23,3,.42,1,.83,2,1.23,3l-9.3,3.24-2.16-7.2c-.6-2-1.15-3.93-1.65-5.79-.5-1.86-.79-3.17-.87-3.93l-.78.24c-.12.64-.25,1.33-.39,2.07-.14.74-.29,1.55-.45,2.43-.16.88-.32,1.73-.48,2.55-.16.82-.32,1.63-.48,2.43l-1.08,5.7-9.72,2.52ZM1074.91,886.22c.72-.08,1.61-.39,2.67-.93,1.06-.54,2.12-1.21,3.18-2.01,1.06-.8,1.95-1.62,2.67-2.46.72-.84,1.08-1.58,1.08-2.22,0-.8-.47-1.33-1.41-1.59-.94-.26-2.17-.39-3.69-.39h-1.32c-.24.04-.46.06-.66.06h-.6l-1.92,9.54Z"/>
    </g>
    <rect class="cls-12" x="1293.64" y="780.47" width="386.52" height="182.3" rx="45.59" ry="45.59"/>
    <rect class="cls-20" x="1293.64" y="765.65" width="386.52" height="182.3" rx="45.59" ry="45.59"/>
    <g>
      <path class="cls-10" d="M1370.53,818.48l1.98-11.34,2.04-12.24h9.36l-4.32,23.04-9.06.54ZM1382.89,817.94c.08-.6.18-1.2.3-1.8.12-.6.24-1.22.36-1.86.08-.52.18-1.05.3-1.59.12-.54.24-1.09.36-1.65.08-.56.18-1.1.3-1.62.12-.52.22-1,.3-1.44.48-2.76.89-5.18,1.23-7.26.34-2.08.63-3.98.87-5.7h9.3l-3.78,22.8h-4.92l-4.62.12Z"/>
      <path class="cls-10" d="M1388.53,839.84c1.76-5.36,3.44-10.58,5.04-15.66.68-2.08,1.38-4.3,2.1-6.66.72-2.36,1.44-4.73,2.16-7.11.72-2.38,1.4-4.67,2.04-6.87.64-2.2,1.18-4.16,1.62-5.88,2.2,0,4.28-.12,6.24-.36,1-.12,2.03-.24,3.09-.36,1.06-.12,2.15-.22,3.27-.3l-.36,2.94c-.08.56-.16,1.13-.24,1.71-.08.58-.16,1.17-.24,1.77-.08.6-.18,1.21-.3,1.83-.12.62-.22,1.25-.3,1.89-.16,1.24-.4,2.97-.72,5.19-.32,2.22-.7,4.63-1.14,7.23h.78c1.16-3.04,2.12-5.57,2.88-7.59s1.38-3.67,1.86-4.95c.68-1.88,1.42-3.78,2.22-5.7.8-1.92,1.46-3.4,1.98-4.44.96-.08,2.11-.21,3.45-.39s2.7-.39,4.08-.63,2.57-.44,3.57-.6c-.56,3.36-1.07,6.75-1.53,10.17s-.86,6.68-1.2,9.78c-.34,3.1-.63,5.89-.87,8.37-.24,2.48-.46,4.93-.66,7.35-.2,2.42-.4,4.81-.6,7.17l-10.44,1.86c0-.08.06-.98.18-2.7s.32-3.86.6-6.42c.28-2.56.56-4.99.84-7.29.28-2.3.56-4.19.84-5.67h-.54c-1,3.04-2.21,6.36-3.63,9.96-1.42,3.6-2.81,7.58-4.17,11.94-1.4.04-2.6.09-3.6.15-1,.06-2.16.13-3.48.21l1.92-22.26h-.9c-.04.44-.22,1.29-.54,2.55-.32,1.26-.7,2.7-1.14,4.32-.44,1.62-.9,3.23-1.38,4.83-1.8,6.28-2.76,9.6-2.88,9.96l-9.9.66Z"/>
      <path class="cls-10" d="M1432.27,816.62l1.56-10.32,2.04-12.54h9.66l-4.26,21.96-9,.9ZM1444.32,816.56l2.1-10.14,2.52-12.66,9.06-.54-4.32,23.34h-9.36Z"/>
      <path class="cls-10" d="M1462.98,840.26c1.2-5.4,2.34-10.68,3.42-15.84.44-2.08.89-4.31,1.35-6.69.46-2.38.93-4.79,1.41-7.23.48-2.44.92-4.75,1.32-6.93.4-2.18.72-4.09.96-5.73,1.6-.48,3.33-.92,5.19-1.32,1.86-.4,3.53-.6,5.01-.6,2.4,0,4.3.51,5.7,1.53,1.4,1.02,2.4,2.39,3,4.11.6,1.72.9,3.6.9,5.64,0,2.24-.41,4.39-1.23,6.45-.82,2.06-1.92,3.91-3.3,5.55-1.38,1.64-2.96,2.94-4.74,3.9-1.78.96-3.63,1.44-5.55,1.44h-.66c-.32,1.36-.62,2.84-.9,4.44-.28,1.6-.52,3.08-.72,4.44-.16.8-.3,1.6-.42,2.4s-.24,1.6-.36,2.4l-10.38,2.04ZM1476.96,818.24c.92-.24,1.84-.85,2.76-1.83.92-.98,1.68-2.23,2.28-3.75.6-1.52.9-3.18.9-4.98,0-1.48-.33-2.6-.99-3.36s-1.39-1.14-2.19-1.14c-.44,2.64-.88,5.14-1.32,7.5-.44,2.36-.92,4.88-1.44,7.56Z"/>
      <path class="cls-10" d="M1501.44,840.08c.08-.68.16-1.34.24-1.98.08-.64.16-1.28.24-1.92l.36-3.36c.04-.56.08-1.08.12-1.56.04-.48.08-.92.12-1.32h-5.22l-2.4,8.64c-.88.12-1.92.25-3.12.39-1.2.14-2.32.27-3.36.39-.64.08-1.27.16-1.89.24-.62.08-1.25.16-1.89.24l4.74-15.72c.56-1.88,1.2-4.02,1.92-6.42.72-2.4,1.45-4.86,2.19-7.38.74-2.52,1.44-4.89,2.1-7.11s1.19-4.09,1.59-5.61c2.72-.2,5.49-.44,8.31-.72,2.82-.28,5.57-.66,8.25-1.14-.2,2.24-.39,4.77-.57,7.59-.18,2.82-.34,5.73-.48,8.73-.14,3-.29,5.96-.45,8.88-.08,2.76-.18,5.61-.3,8.55-.12,2.94-.24,5.95-.36,9.03-.6.08-1.2.16-1.8.24-.6.08-1.2.16-1.8.24-1,.16-2.1.34-3.3.54s-2.28.38-3.24.54ZM1498.74,823.94c.24,0,.69-.02,1.35-.06.66-.04,1.29-.08,1.89-.12.6-.04.96-.06,1.08-.06,0-.52.08-1.58.24-3.18.16-1.6.32-3.28.48-5.04.08-1.04.17-2.11.27-3.21.1-1.1.21-2.23.33-3.39l.36-5.22-.9.06-1.38,5.16-3.72,15.06Z"/>
      <path class="cls-10" d="M1512.12,840.26l3.12-15.6c.48-2.88,1-5.84,1.56-8.88.56-3.04,1.09-6.04,1.59-9,.5-2.96.89-5.74,1.17-8.34,2.28-.72,4.74-1.25,7.38-1.59,2.64-.34,5.26-.51,7.86-.51,3.04,0,5.11.66,6.21,1.98,1.1,1.32,1.65,3.1,1.65,5.34,0,2.04-.48,4.09-1.44,6.15-.96,2.06-2.21,3.92-3.75,5.58-1.54,1.66-3.23,2.97-5.07,3.93.72,1.6,1.49,3.35,2.31,5.25.82,1.9,1.59,3.71,2.31,5.43.4,1,.81,2,1.23,3,.42,1,.83,2,1.23,3l-9.3,3.24-2.16-7.2c-.6-2-1.15-3.93-1.65-5.79-.5-1.86-.79-3.17-.87-3.93l-.78.24c-.12.64-.25,1.33-.39,2.07-.14.74-.29,1.55-.45,2.43-.16.88-.32,1.73-.48,2.55-.16.82-.32,1.63-.48,2.43l-1.08,5.7-9.72,2.52ZM1526.22,814.22c.72-.08,1.61-.39,2.67-.93,1.06-.54,2.12-1.21,3.18-2.01,1.06-.8,1.95-1.62,2.67-2.46.72-.84,1.08-1.58,1.08-2.22,0-.8-.47-1.33-1.41-1.59-.94-.26-2.17-.39-3.69-.39h-1.32c-.24.04-.46.06-.66.06h-.6l-1.92,9.54Z"/>
      <path class="cls-10" d="M1554.06,840.08c.08-.68.16-1.34.24-1.98.08-.64.16-1.28.24-1.92l.36-3.36c.04-.56.08-1.08.12-1.56.04-.48.08-.92.12-1.32h-5.22l-2.4,8.64c-.88.12-1.92.25-3.12.39-1.2.14-2.32.27-3.36.39-.64.08-1.27.16-1.89.24-.62.08-1.25.16-1.89.24l4.74-15.72c.56-1.88,1.2-4.02,1.92-6.42.72-2.4,1.45-4.86,2.19-7.38.74-2.52,1.44-4.89,2.1-7.11s1.19-4.09,1.59-5.61c2.72-.2,5.49-.44,8.31-.72,2.82-.28,5.57-.66,8.25-1.14-.2,2.24-.39,4.77-.57,7.59-.18,2.82-.34,5.73-.48,8.73-.14,3-.29,5.96-.45,8.88-.08,2.76-.18,5.61-.3,8.55-.12,2.94-.24,5.95-.36,9.03-.6.08-1.2.16-1.8.24-.6.08-1.2.16-1.8.24-1,.16-2.1.34-3.3.54s-2.28.38-3.24.54ZM1551.36,823.94c.24,0,.69-.02,1.35-.06.66-.04,1.29-.08,1.89-.12.6-.04.96-.06,1.08-.06,0-.52.08-1.58.24-3.18.16-1.6.32-3.28.48-5.04.08-1.04.17-2.11.27-3.21.1-1.1.21-2.23.33-3.39l.36-5.22-.9.06-1.38,5.16-3.72,15.06Z"/>
      <path class="cls-10" d="M1576.5,840.14c.56-2.32,1.12-4.95,1.68-7.89.56-2.94,1.12-5.99,1.68-9.15.56-3.16,1.08-6.2,1.56-9.12.44-2.56.87-5.16,1.29-7.8.42-2.64.83-5.3,1.23-7.98l9.36-1.5-2.7,15.78c-.6,3.72-1.13,7.06-1.59,10.02-.46,2.96-.9,5.76-1.32,8.4-.42,2.64-.85,5.34-1.29,8.1-.76,0-1.68.05-2.76.15s-2.16.22-3.24.36c-1.08.14-1.99.27-2.73.39-.74.12-1.13.2-1.17.24Z"/>
      <path class="cls-10" d="M1588.56,840.26l3.12-15.6c.48-2.88,1-5.84,1.56-8.88.56-3.04,1.09-6.04,1.59-9,.5-2.96.89-5.74,1.17-8.34,2.28-.72,4.74-1.25,7.38-1.59,2.64-.34,5.26-.51,7.86-.51,3.04,0,5.11.66,6.21,1.98,1.1,1.32,1.65,3.1,1.65,5.34,0,2.04-.48,4.09-1.44,6.15-.96,2.06-2.21,3.92-3.75,5.58-1.54,1.66-3.23,2.97-5.07,3.93.72,1.6,1.49,3.35,2.31,5.25.82,1.9,1.59,3.71,2.31,5.43.4,1,.81,2,1.23,3,.42,1,.83,2,1.23,3l-9.3,3.24-2.16-7.2c-.6-2-1.15-3.93-1.65-5.79-.5-1.86-.79-3.17-.87-3.93l-.78.24c-.12.64-.25,1.33-.39,2.07-.14.74-.29,1.55-.45,2.43-.16.88-.32,1.73-.48,2.55-.16.82-.32,1.63-.48,2.43l-1.08,5.7-9.72,2.52ZM1602.66,814.22c.72-.08,1.61-.39,2.67-.93,1.06-.54,2.12-1.21,3.18-2.01,1.06-.8,1.95-1.62,2.67-2.46.72-.84,1.08-1.58,1.08-2.22,0-.8-.47-1.33-1.41-1.59-.94-.26-2.17-.39-3.69-.39h-1.32c-.24.04-.46.06-.66.06h-.6l-1.92,9.54Z"/>
      <path class="cls-10" d="M1423.27,912.08c.08-.68.16-1.34.24-1.98.08-.64.16-1.28.24-1.92l.36-3.36c.04-.56.08-1.08.12-1.56.04-.48.08-.92.12-1.32h-5.22l-2.4,8.64c-.88.12-1.92.25-3.12.39-1.2.14-2.32.27-3.36.39-.64.08-1.27.16-1.89.24s-1.25.16-1.89.24l4.74-15.72c.56-1.88,1.2-4.02,1.92-6.42.72-2.4,1.45-4.86,2.19-7.38.74-2.52,1.44-4.89,2.1-7.11.66-2.22,1.19-4.09,1.59-5.61,2.72-.2,5.49-.44,8.31-.72,2.82-.28,5.57-.66,8.25-1.14-.2,2.24-.39,4.77-.57,7.59-.18,2.82-.34,5.73-.48,8.73-.14,3-.29,5.96-.45,8.88-.08,2.76-.18,5.61-.3,8.55-.12,2.94-.24,5.95-.36,9.03-.6.08-1.2.16-1.8.24-.6.08-1.2.16-1.8.24-1,.16-2.1.34-3.3.54-1.2.2-2.28.38-3.24.54ZM1420.57,895.94c.24,0,.69-.02,1.35-.06s1.29-.08,1.89-.12c.6-.04.96-.06,1.08-.06,0-.52.08-1.58.24-3.18.16-1.6.32-3.28.48-5.04.08-1.04.17-2.11.27-3.21.1-1.1.21-2.23.33-3.39l.36-5.22-.9.06-1.38,5.16-3.72,15.06Z"/>
      <path class="cls-10" d="M1434.43,912.32c.44-3.16.91-6.34,1.41-9.54.5-3.2,1.02-6.29,1.56-9.27.54-2.98,1.05-5.67,1.53-8.07.52-2.6,1.04-5.24,1.56-7.92.52-2.68,1.06-5.38,1.62-8.1l10.5-1.38-3.12,13.56c-.56,2.36-1.13,4.89-1.71,7.59s-1.11,5.31-1.59,7.83c-.48,2.52-.86,4.76-1.14,6.72,1-.08,2.07-.13,3.21-.15s2.15-.03,3.03-.03c.04.92.12,1.89.24,2.91.12,1.02.25,1.9.39,2.64.14.74.21,1.15.21,1.23h-.45c-.14,0-.29-.02-.45-.06h-.96c-1.56,0-3.29.07-5.19.21-1.9.14-3.78.36-5.64.66-1.86.3-3.53.69-5.01,1.17Z"/>
      <path class="cls-10" d="M1461.72,911.84c1.76-5.36,3.44-10.58,5.04-15.66.68-2.08,1.38-4.3,2.1-6.66.72-2.36,1.44-4.73,2.16-7.11.72-2.38,1.4-4.67,2.04-6.87.64-2.2,1.18-4.16,1.62-5.88,2.2,0,4.28-.12,6.24-.36,1-.12,2.03-.24,3.09-.36,1.06-.12,2.15-.22,3.27-.3l-.36,2.94c-.08.56-.16,1.13-.24,1.71-.08.58-.16,1.17-.24,1.77-.08.6-.18,1.21-.3,1.83s-.22,1.25-.3,1.89c-.16,1.24-.4,2.97-.72,5.19-.32,2.22-.7,4.63-1.14,7.23h.78c1.16-3.04,2.12-5.57,2.88-7.59.76-2.02,1.38-3.67,1.86-4.95.68-1.88,1.42-3.78,2.22-5.7.8-1.92,1.46-3.4,1.98-4.44.96-.08,2.11-.21,3.45-.39,1.34-.18,2.7-.39,4.08-.63,1.38-.24,2.57-.44,3.57-.6-.56,3.36-1.07,6.75-1.53,10.17s-.86,6.68-1.2,9.78c-.34,3.1-.63,5.89-.87,8.37-.24,2.48-.46,4.93-.66,7.35-.2,2.42-.4,4.81-.6,7.17l-10.44,1.86c0-.08.06-.98.18-2.7s.32-3.86.6-6.42c.28-2.56.56-4.99.84-7.29.28-2.3.56-4.19.84-5.67h-.54c-1,3.04-2.21,6.36-3.63,9.96-1.42,3.6-2.81,7.58-4.17,11.94-1.4.04-2.6.09-3.6.15-1,.06-2.16.13-3.48.21l1.92-22.26h-.9c-.04.44-.22,1.29-.54,2.55s-.7,2.7-1.14,4.32c-.44,1.62-.9,3.23-1.38,4.83-1.8,6.28-2.76,9.6-2.88,9.96l-9.9.66Z"/>
      <path class="cls-10" d="M1501.14,912.26l7.86-42.66,18.96-1.62c-.28.88-.52,1.78-.72,2.7-.2.76-.39,1.55-.57,2.37-.18.82-.33,1.55-.45,2.19-.52.04-1.26.07-2.22.09-.96.02-1.94.04-2.94.06-1,.02-1.86.03-2.58.03h-1.14l-2.1,10.74,3.48-.18c.44-.04.89-.06,1.35-.06h2.55c.36,0,.64-.02.84-.06-.08.56-.15,1.11-.21,1.65-.06.54-.13,1.09-.21,1.65l-.54,3.3c-.2.04-.46.06-.78.06h-1.14c-.44.04-.9.06-1.38.06s-.94.02-1.38.06c-.52.04-1.06.06-1.62.06s-1.16.02-1.8.06l-2.04,11.04,8.76-1.38-.6,6.84-19.38,3Z"/>
      <path class="cls-10" d="M1521.42,912.5c1.2-5.76,2.34-11.34,3.42-16.74.88-5.08,1.74-9.96,2.58-14.64.84-4.68,1.44-8.98,1.8-12.9.28.04.53.06.75.06h1.83c1.04,0,2.2-.03,3.48-.09,1.28-.06,2.46-.11,3.54-.15.28,1.4.55,2.78.81,4.14.26,1.36.49,2.68.69,3.96.2,1.12.42,2.27.66,3.45s.48,2.37.72,3.57c.2,1.2.41,2.31.63,3.33.22,1.02.41,1.95.57,2.79.48-2.36.93-4.68,1.35-6.96s.83-4.34,1.23-6.18l1.74-8.04,7.32-.9c-.68,3.04-1.32,6.02-1.92,8.94-.6,2.92-1.16,5.74-1.68,8.46-1,4.88-1.88,9.48-2.64,13.8-.76,4.32-1.34,8.08-1.74,11.28.44,0,.37.05-.21.15-.58.1-1.43.24-2.55.42-1.12.18-2.32.41-3.6.69-1.28.28-2.42.62-3.42,1.02-.12-1.6-.24-3.16-.36-4.68-.12-1.52-.26-3-.42-4.44-.24-2.56-.52-5.1-.84-7.62-.32-2.52-.64-4.52-.96-6-.28,1.76-.62,3.77-1.02,6.03-.4,2.26-.84,4.53-1.32,6.81l-1.68,8.4-8.76,2.04Z"/>
      <path class="cls-10" d="M1558.14,913.28c-1.2,0-2.42-.26-3.66-.78-1.24-.52-2.28-1.32-3.12-2.4-.84-1.08-1.26-2.46-1.26-4.14v-.48c0-.2.02-.36.06-.48.12-1.04.29-2.4.51-4.08.22-1.68.49-3.51.81-5.49.32-1.98.65-3.95.99-5.91.34-1.96.65-3.74.93-5.34.6-3.2,1.08-5.78,1.44-7.74.36-1.96.65-3.47.87-4.53.22-1.06.39-1.85.51-2.37.44-.04.91-.09,1.41-.15.5-.06,1.03-.11,1.59-.15.56-.08,1.11-.14,1.65-.18.54-.04,1.07-.08,1.59-.12l3.66-.36c-.52,2.44-1.01,4.75-1.47,6.93-.46,2.18-.89,4.25-1.29,6.21l-2.76,13.26c-.24,1-.42,1.84-.54,2.52-.16.64-.33,1.45-.51,2.43-.18.98-.27,1.87-.27,2.67,0,.64.16,1.17.48,1.59s.72.63,1.2.63c.68,0,1.24-.26,1.68-.78.44-.52.8-1.16,1.08-1.92.28-.76.5-1.53.66-2.31.16-.78.3-1.41.42-1.89.4-1.84.77-3.63,1.11-5.37.34-1.74.7-3.59,1.08-5.55.38-1.96.81-4.22,1.29-6.78.32-1.76.65-3.55.99-5.37s.67-3.67.99-5.55l9.12-.6c-.72,3.84-1.42,7.7-2.1,11.58-.28,1.48-.59,3.14-.93,4.98s-.71,3.7-1.11,5.58c-.4,1.88-.77,3.66-1.11,5.34-.34,1.68-.65,3.12-.93,4.32-.8,3.28-2.04,5.85-3.72,7.71-1.68,1.86-3.53,3.17-5.55,3.93-2.02.76-3.95,1.14-5.79,1.14ZM1563.42,868.04c-.04-.2-.06-.41-.06-.63v-2.64c0-.34.02-.67.06-.99v-2.04c1.36-1.4,2.68-2.71,3.96-3.93,1.28-1.22,2.52-2.37,3.72-3.45,1.2-1.08,2.36-2.18,3.48-3.3s2.2-2.24,3.24-3.36c.2,2.72.32,5.22.36,7.5,0,1.16.04,2.33.12,3.51.08,1.18.2,2.39.36,3.63-1.16.48-2.38.96-3.66,1.44-1.28.48-2.6.96-3.96,1.44-1.36.52-2.68,1.01-3.96,1.47-1.28.46-2.5.91-3.66,1.35Z"/>
    </g>
    <g>
      <ellipse class="cls-7" cx="380.95" cy="643.76" rx="230.61" ry="251.96"/>
      <path class="cls-19" d="M192.17,700.58c-3.95.67-30.46,4.72-52.6-13.79-27.61-23.08-22.26-59.38-21.97-61.11,30.63-30.59,63.8-62.02,99.64-93.82,37.09-32.91,73.45-63.05,108.59-90.6,11.01,1.94,20.13,9.63,23.76,20.07,5.3,15.27-4.11,27.89-4.82,28.8-24.6,29.88-49.67,62-74.83,96.42-28.62,39.16-54.46,77.34-77.77,114.04Z"/>
      <path class="cls-19" d="M690.4,416.75c1.28-3.79,9.41-29.35-5.42-54.11-18.5-30.88-55.18-31.25-56.94-31.23-35,25.48-71.21,53.35-108.21,83.79-38.3,31.5-73.74,62.72-106.43,93.14.2,11.18,6.37,21.39,16.12,26.6,14.25,7.62,28.19.28,29.2-.27,33.35-19.64,68.99-39.4,106.91-58.88,43.14-22.16,84.89-41.73,124.77-59.03Z"/>
      <path class="cls-19" d="M567.19,750.25s-24.07,151.13-43.62,205.62c-3.85,10.73-13.95,17.93-25.34,17.93h-60.61c-11.7,0-22.06-7.58-25.61-18.73l-24.93-78.44,180.12-126.38Z"/>
      <path class="cls-19" d="M192.59,750.25s24.07,151.13,43.62,205.62c3.85,10.73,13.95,17.93,25.34,17.93h60.61c11.7,0,22.06-7.58,25.61-18.73l24.93-78.44-180.12-126.38Z"/>
      <path class="cls-19" d="M474.05,513.61c-43.03-57.61-69.41-175.61,23.6-212.39,0,0,20.82-9.72,4.16-31.93-16.66-22.21-37.83-82.6-121.99-84.68-84.16,2.08-105.33,62.47-121.99,84.68-16.66,22.21,4.16,31.93,4.16,31.93,93.01,36.79,66.63,154.78,23.6,212.39-43.03,57.61-231.16,378.05,94.22,397.72,325.38-19.67,137.26-340.11,94.22-397.72Z"/>
      <ellipse class="cls-9" cx="318.67" cy="218.21" rx="32.53" ry="54.68"/>
      <ellipse class="cls-6" cx="316.81" cy="219.57" rx="16.81" ry="20.31"/>
      <ellipse class="cls-9" cx="327.07" cy="199.25" rx="10.26" ry="12.4"/>
      <path class="cls-23" d="M379.43,911.33c325.38-19.67,137.26-340.11,94.22-397.72-21.07-28.21-38.14-76.22-39.16-116.76-8.18,4.97-27.31,15.08-53.67,15.42-27.95.36-48.25-10.47-56.41-15.42.43,42.09-17.21,87.31-39.2,116.76-43.03,57.61-231.16,378.05,94.22,397.72Z"/>
      <ellipse class="cls-9" cx="440.98" cy="215.8" rx="32.53" ry="52.28"/>
      <path class="cls-4" d="M193.59,778.41c37.18,16.56,106.69,41.66,196.65,39.73,79.43-1.7,141.14-23.76,176.95-39.73"/>
      <path class="cls-5" d="M227.94,614.64c30.34,16.56,87.08,41.66,160.49,39.73,64.82-1.7,113.12-24.11,142.35-40.08"/>
      <path class="cls-4" d="M307.14,475.99c37.18,16.56,110.1,16.51,148.63,6.88"/>
      <ellipse class="cls-6" cx="441.17" cy="219.57" rx="16.81" ry="20.31"/>
      <ellipse class="cls-9" cx="451.43" cy="199.25" rx="10.26" ry="12.4"/>
      <g class="cls-14">
        <path class="cls-3" d="M193.59,610.84c19.45,15.62,85.48,64.65,183.23,65.82,102.18,1.22,171.48-50.65,190.37-65.82"/>
        <path class="cls-3" d="M193.59,454.07c19.71,15.45,87.3,64.48,186.8,64.48,99.5,0,167.1-49.04,186.8-64.48"/>
      </g>
      <g>
        <path class="cls-13" d="M432.95,308.83c-.57,6.6-3.01,13.72-9.35,19.56-7.74,7.16-21.34,12.41-44.44,12.44h0c-.2.01-.38,0-.57,0-.2,0-.38.01-.58.01h0c-23.1-.04-36.68-5.29-44.44-12.45-6.33-5.84-8.76-12.96-9.35-19.56-1.27-14.81,25.63-19.34,35.02-15.08,3.19,1.45,8.3,3.38,12.53,4.9,4.25,1.53,9.3,1.49,13.51-.09,4.21-1.58,9.29-3.54,12.63-4.81,9.46-3.57,36.3.26,35.02,15.08Z"/>
        <path class="cls-17" d="M423.6,328.39c-7.74,7.16-21.34,12.41-44.44,12.44h0c-.2.01-.38,0-.57,0-.2,0-.38.01-.58.01h0c-23.1-.04-36.68-5.29-44.44-12.45,5.65-9.85,23.67-17.05,45.02-17.05s39.36,7.2,45.01,17.05Z"/>
      </g>
    </g>
    <g>
      <path class="cls-10" d="M953.51,161.61c-1.87,0-3.88-.4-6.05-1.2-2.17-.8-4.55-2.17-7.15-4.1l6.9-15.4c.33.67.98,1.25,1.95,1.75.97.5,2.02.75,3.15.75.87,0,1.63-.7,2.3-2.1.67-1.4,1.22-3.1,1.65-5.1.43-2,.78-3.88,1.05-5.65.27-1.77.43-3.02.5-3.75.67-3.27,1.3-6.5,1.9-9.7.6-3.2,1.17-6.43,1.7-9.7.53-3.2,1.15-6.4,1.85-9.6.7-3.2,1.42-6.4,2.15-9.6,3-.27,5.95-.68,8.85-1.25,2.9-.57,5.82-1.25,8.75-2.05-1,3.4-2.03,7.25-3.1,11.55-1.07,4.3-2.1,8.75-3.1,13.35-1,4.6-1.95,9.07-2.85,13.4-.9,4.33-1.68,8.23-2.35,11.7-.6,2.8-1.33,5.75-2.2,8.85-.87,3.1-2,6-3.4,8.7-1.4,2.7-3.12,4.9-5.15,6.6-2.03,1.7-4.48,2.55-7.35,2.55Z"/>
      <path class="cls-10" d="M987.41,163.31c-2,0-4.03-.43-6.1-1.3s-3.8-2.2-5.2-4c-1.4-1.8-2.1-4.1-2.1-6.9v-.8c0-.33.03-.6.1-.8.2-1.73.48-4,.85-6.8.37-2.8.82-5.85,1.35-9.15.53-3.3,1.08-6.58,1.65-9.85.57-3.27,1.08-6.23,1.55-8.9,1-5.33,1.8-9.63,2.4-12.9.6-3.27,1.08-5.78,1.45-7.55.37-1.77.65-3.08.85-3.95.73-.07,1.52-.15,2.35-.25.83-.1,1.72-.18,2.65-.25.93-.13,1.85-.23,2.75-.3.9-.07,1.78-.13,2.65-.2l6.1-.6c-.87,4.07-1.68,7.92-2.45,11.55-.77,3.63-1.48,7.08-2.15,10.35l-4.6,22.1c-.4,1.67-.7,3.07-.9,4.2-.27,1.07-.55,2.42-.85,4.05-.3,1.63-.45,3.12-.45,4.45,0,1.07.27,1.95.8,2.65.53.7,1.2,1.05,2,1.05,1.13,0,2.07-.43,2.8-1.3.73-.87,1.33-1.93,1.8-3.2.47-1.27.83-2.55,1.1-3.85.27-1.3.5-2.35.7-3.15.67-3.07,1.28-6.05,1.85-8.95.57-2.9,1.17-5.98,1.8-9.25.63-3.27,1.35-7.03,2.15-11.3.53-2.93,1.08-5.92,1.65-8.95.57-3.03,1.12-6.12,1.65-9.25l15.2-1c-1.2,6.4-2.37,12.83-3.5,19.3-.47,2.47-.98,5.23-1.55,8.3-.57,3.07-1.18,6.17-1.85,9.3-.67,3.13-1.28,6.1-1.85,8.9-.57,2.8-1.08,5.2-1.55,7.2-1.33,5.47-3.4,9.75-6.2,12.85-2.8,3.1-5.88,5.28-9.25,6.55-3.37,1.27-6.58,1.9-9.65,1.9Z"/>
      <path class="cls-10" d="M1013.61,161.61l13.1-71.1,31.6-2.7c-.47,1.47-.87,2.97-1.2,4.5-.33,1.27-.65,2.58-.95,3.95-.3,1.37-.55,2.58-.75,3.65-.87.07-2.1.12-3.7.15-1.6.03-3.23.07-4.9.1-1.67.03-3.1.05-4.3.05h-1.9l-3.5,17.9,5.8-.3c.73-.07,1.48-.1,2.25-.1h4.25c.6,0,1.07-.03,1.4-.1-.13.93-.25,1.85-.35,2.75-.1.9-.22,1.82-.35,2.75l-.9,5.5c-.33.07-.77.1-1.3.1h-1.9c-.73.07-1.5.1-2.3.1s-1.57.03-2.3.1c-.87.07-1.77.1-2.7.1s-1.93.03-3,.1l-3.4,18.4,14.6-2.3-1,11.4-32.3,5Z"/>
      <path class="cls-10" d="M1069.21,163.91c-2.47,0-4.82-.53-7.05-1.6-2.23-1.07-4.15-2.7-5.75-4.9-1.67-2.13-2.97-4.83-3.9-8.1-.93-3.27-1.4-7.1-1.4-11.5,0-8.6,1.23-16.1,3.7-22.5,2.47-6.4,5.6-11.73,9.4-16,3.73-4.27,7.75-7.43,12.05-9.5,4.3-2.07,8.32-3.1,12.05-3.1s6.53.78,8.8,2.35c2.27,1.57,3.93,3.65,5,6.25,1.07,2.6,1.6,5.5,1.6,8.7l-13.7,2.6c-.6-2.67-1.4-4.57-2.4-5.7-1-1.13-2.13-1.7-3.4-1.7-1.47,0-2.98.8-4.55,2.4-1.57,1.6-3.1,3.75-4.6,6.45-1.5,2.7-2.85,5.72-4.05,9.05-1.2,3.33-2.18,6.77-2.95,10.3-.77,3.53-1.22,6.87-1.35,10,0,4.13.62,7.08,1.85,8.85,1.23,1.77,2.82,2.65,4.75,2.65s3.72-.6,5.55-1.8c1.83-1.2,3.37-2.82,4.6-4.85,1.23-2.03,1.88-4.32,1.95-6.85l-10.7,1.6,1.9-9.9,9.2-1.2c2.53-.33,5.22-.73,8.05-1.2,2.83-.47,5.32-.9,7.45-1.3-.47,6.8-1.78,12.75-3.95,17.85-2.17,5.1-4.85,9.32-8.05,12.65-3.2,3.33-6.55,5.83-10.05,7.5s-6.85,2.5-10.05,2.5Z"/>
      <path class="cls-10" d="M1114.91,161.91c-4.4,0-8-1.7-10.8-5.1-2.8-3.4-4.2-8.53-4.2-15.4,0-3.8.46-7.8,1.4-12,.93-4.2,2.23-8.33,3.9-12.4,1.67-4.07,3.6-7.83,5.8-11.3,3.53-5.6,7.6-10.17,12.2-13.7,4.6-3.53,9.43-5.3,14.5-5.3,4,0,7.08,1.02,9.25,3.05,2.17,2.03,3.68,4.63,4.55,7.8.87,3.17,1.3,6.45,1.3,9.85,0,7.93-1.22,15.32-3.65,22.15-2.43,6.83-5.58,12.62-9.45,17.35-3.87,4.87-7.98,8.58-12.35,11.15-4.37,2.57-8.52,3.85-12.45,3.85ZM1120.31,145.41c3,0,5.65-1,7.95-3s4.25-4.55,5.85-7.65c1.6-3.1,2.8-6.35,3.6-9.75s1.2-6.47,1.2-9.2c0-1.07-.1-2.22-.3-3.45-.2-1.23-.63-2.32-1.3-3.25-.67-.93-1.7-1.4-3.1-1.4-3.07,0-5.83,1.12-8.3,3.35-2.47,2.23-4.54,5.05-6.2,8.45-1.67,3.47-2.9,6.87-3.7,10.2-.8,3.33-1.2,6.37-1.2,9.1,0,1.4.5,2.85,1.5,4.35s2.33,2.25,4,2.25Z"/>
      <path class="cls-10" d="M1174.61,161.61c.73-3.67,1.48-7.32,2.25-10.95.77-3.63,1.48-7.22,2.15-10.75,2.53-12.67,4.6-24.8,6.2-36.4-.73-.13-1.5-.22-2.3-.25-.8-.03-1.57-.02-2.3.05-1.6.13-3.17-.07-4.7-.6.07-.53.1-1.12.1-1.75v-4.1c0-.7.03-1.38.1-2.05.07-.73.1-1.52.1-2.35s.03-1.68.1-2.55c1.73.13,3.47.23,5.2.3,1.73.07,3.47.1,5.2.1,4.93,0,9.65-.17,14.15-.5,4.5-.33,8.65-.73,12.45-1.2l-1.1,5.4-.9,4.7c-.33,1.73-.63,3.1-.9,4.1-.73.2-1.47.37-2.2.5-.73.13-1.47.23-2.2.3-.73.07-1.48.17-2.25.3-.77.13-1.52.27-2.25.4-1,4.93-1.82,9.2-2.45,12.8-.63,3.6-1.2,7.05-1.7,10.35-.5,3.3-1.08,6.92-1.75,10.85-1.13,6.73-2.13,13.57-3,20.5l-18,2.8Z"/>
      <path class="cls-10" d="M1202.61,161.61l13.1-71.1,31.6-2.7c-.47,1.47-.87,2.97-1.2,4.5-.33,1.27-.65,2.58-.95,3.95-.3,1.37-.55,2.58-.75,3.65-.87.07-2.1.12-3.7.15-1.6.03-3.23.07-4.9.1-1.67.03-3.1.05-4.3.05h-1.9l-3.5,17.9,5.8-.3c.73-.07,1.48-.1,2.25-.1h4.25c.6,0,1.07-.03,1.4-.1-.13.93-.25,1.85-.35,2.75-.1.9-.22,1.82-.35,2.75l-.9,5.5c-.33.07-.77.1-1.3.1h-1.9c-.73.07-1.5.1-2.3.1s-1.57.03-2.3.1c-.87.07-1.77.1-2.7.1s-1.93.03-3,.1l-3.4,18.4,14.6-2.3-1,11.4-32.3,5Z"/>
      <path class="cls-10" d="M1236.31,161.61l5.2-26c.8-4.8,1.67-9.73,2.6-14.8.93-5.07,1.82-10.07,2.65-15,.83-4.93,1.48-9.57,1.95-13.9,3.8-1.2,7.9-2.08,12.3-2.65,4.4-.57,8.77-.85,13.1-.85,5.07,0,8.52,1.1,10.35,3.3,1.83,2.2,2.75,5.17,2.75,8.9,0,3.4-.8,6.82-2.4,10.25-1.6,3.43-3.68,6.53-6.25,9.3-2.57,2.77-5.38,4.95-8.45,6.55,1.2,2.67,2.48,5.58,3.85,8.75,1.37,3.17,2.65,6.18,3.85,9.05.67,1.67,1.35,3.33,2.05,5,.7,1.67,1.38,3.33,2.05,5l-15.5,5.4-3.6-12c-1-3.33-1.92-6.55-2.75-9.65-.83-3.1-1.32-5.28-1.45-6.55l-1.3.4c-.2,1.07-.42,2.22-.65,3.45-.23,1.23-.48,2.58-.75,4.05-.27,1.47-.53,2.88-.8,4.25-.27,1.37-.54,2.72-.8,4.05l-1.8,9.5-16.2,4.2ZM1259.81,118.21c1.2-.13,2.68-.65,4.45-1.55,1.77-.9,3.53-2.02,5.3-3.35,1.77-1.33,3.25-2.7,4.45-4.1,1.2-1.4,1.8-2.63,1.8-3.7,0-1.33-.78-2.22-2.35-2.65-1.57-.43-3.62-.65-6.15-.65h-2.2c-.4.07-.77.1-1.1.1h-1l-3.2,15.9Z"/>
      <path class="cls-10" d="M1277.31,160.91c2.93-8.93,5.73-17.63,8.4-26.1,1.13-3.47,2.3-7.17,3.5-11.1,1.2-3.93,2.4-7.88,3.6-11.85,1.2-3.97,2.33-7.78,3.4-11.45,1.07-3.67,1.97-6.93,2.7-9.8,3.67,0,7.13-.2,10.4-.6,1.67-.2,3.38-.4,5.15-.6,1.77-.2,3.58-.37,5.45-.5l-.6,4.9c-.13.93-.27,1.88-.4,2.85-.13.97-.27,1.95-.4,2.95-.13,1-.3,2.02-.5,3.05-.2,1.03-.37,2.08-.5,3.15-.27,2.07-.67,4.95-1.2,8.65-.53,3.7-1.17,7.72-1.9,12.05h1.3c1.93-5.07,3.53-9.28,4.8-12.65,1.27-3.37,2.3-6.12,3.1-8.25,1.13-3.13,2.37-6.3,3.7-9.5,1.33-3.2,2.43-5.67,3.3-7.4,1.6-.13,3.52-.35,5.75-.65,2.23-.3,4.5-.65,6.8-1.05s4.28-.73,5.95-1c-.93,5.6-1.78,11.25-2.55,16.95-.77,5.7-1.43,11.13-2,16.3-.57,5.17-1.05,9.82-1.45,13.95-.4,4.13-.77,8.22-1.1,12.25-.33,4.03-.67,8.02-1,11.95l-17.4,3.1c0-.13.1-1.63.3-4.5.2-2.87.53-6.43,1-10.7.47-4.27.93-8.32,1.4-12.15.47-3.83.93-6.98,1.4-9.45h-.9c-1.67,5.07-3.68,10.6-6.05,16.6-2.37,6-4.68,12.63-6.95,19.9-2.33.07-4.33.15-6,.25-1.67.1-3.6.22-5.8.35l3.2-37.1h-1.5c-.07.73-.37,2.15-.9,4.25-.53,2.1-1.17,4.5-1.9,7.2-.73,2.7-1.5,5.38-2.3,8.05-3,10.47-4.6,16-4.8,16.6l-16.5,1.1Z"/>
      <path class="cls-10" d="M1342.7,161.41c.93-3.87,1.87-8.25,2.8-13.15s1.87-9.98,2.8-15.25c.93-5.27,1.8-10.33,2.6-15.2.73-4.27,1.45-8.6,2.15-13,.7-4.4,1.38-8.83,2.05-13.3l15.6-2.5-4.5,26.3c-1,6.2-1.88,11.77-2.65,16.7-.77,4.93-1.5,9.6-2.2,14-.7,4.4-1.42,8.9-2.15,13.5-1.27,0-2.8.08-4.6.25-1.8.17-3.6.37-5.4.6-1.8.23-3.32.45-4.55.65-1.23.2-1.88.33-1.95.4Z"/>
      <path class="cls-10" d="M1362.9,162.01c2-9.6,3.9-18.9,5.7-27.9,1.47-8.47,2.9-16.6,4.3-24.4,1.4-7.8,2.4-14.97,3-21.5.47.07.88.1,1.25.1h3.05c1.73,0,3.67-.05,5.8-.15,2.13-.1,4.1-.18,5.9-.25.47,2.33.92,4.63,1.35,6.9.43,2.27.82,4.47,1.15,6.6.33,1.87.7,3.78,1.1,5.75.4,1.97.8,3.95,1.2,5.95.33,2,.68,3.85,1.05,5.55.37,1.7.68,3.25.95,4.65.8-3.93,1.55-7.8,2.25-11.6.7-3.8,1.38-7.23,2.05-10.3l2.9-13.4,12.2-1.5c-1.13,5.07-2.2,10.03-3.2,14.9-1,4.87-1.93,9.57-2.8,14.1-1.67,8.13-3.13,15.8-4.4,23-1.27,7.2-2.23,13.47-2.9,18.8.73,0,.62.08-.35.25-.97.17-2.38.4-4.25.7-1.87.3-3.87.68-6,1.15-2.13.47-4.03,1.03-5.7,1.7-.2-2.67-.4-5.27-.6-7.8-.2-2.53-.43-5-.7-7.4-.4-4.27-.87-8.5-1.4-12.7-.54-4.2-1.07-7.53-1.6-10-.47,2.93-1.03,6.28-1.7,10.05-.67,3.77-1.4,7.55-2.2,11.35l-2.8,14-14.6,3.4Z"/>
      <path class="cls-10" d="M1433.5,161.31c.13-1.13.27-2.23.4-3.3.13-1.07.27-2.13.4-3.2l.6-5.6c.07-.93.13-1.8.2-2.6.07-.8.13-1.53.2-2.2h-8.7l-4,14.4c-1.47.2-3.2.42-5.2.65-2,.23-3.87.45-5.6.65-1.07.13-2.12.27-3.15.4-1.03.13-2.08.27-3.15.4l7.9-26.2c.93-3.13,2-6.7,3.2-10.7s2.42-8.1,3.65-12.3c1.23-4.2,2.4-8.15,3.5-11.85,1.1-3.7,1.98-6.82,2.65-9.35,4.53-.33,9.15-.73,13.85-1.2,4.7-.47,9.28-1.1,13.75-1.9-.33,3.73-.65,7.95-.95,12.65-.3,4.7-.57,9.55-.8,14.55-.23,5-.48,9.93-.75,14.8-.13,4.6-.3,9.35-.5,14.25-.2,4.9-.4,9.92-.6,15.05-1,.13-2,.27-3,.4-1,.13-2,.27-3,.4-1.67.27-3.5.57-5.5.9-2,.33-3.8.63-5.4.9ZM1429,134.41c.4,0,1.15-.03,2.25-.1,1.1-.07,2.15-.13,3.15-.2,1-.07,1.6-.1,1.8-.1,0-.87.13-2.63.4-5.3.27-2.67.53-5.47.8-8.4.13-1.73.28-3.52.45-5.35.17-1.83.35-3.72.55-5.65l.6-8.7-1.5.1-2.3,8.6-6.2,25.1Z"/>
      <path class="cls-10" d="M1456.9,162.01c-.93,0-1.87-.05-2.8-.15-.93-.1-1.87-.22-2.8-.35l5.3-26.9c.67-3.67,1.38-7.55,2.15-11.65.77-4.1,1.52-8.17,2.25-12.2.73-4.03,1.38-7.78,1.95-11.25.57-3.47,1.02-6.4,1.35-8.8,2.87-.53,5.77-1.03,8.7-1.5,2.93-.47,5.93-.7,9-.7,4.93,0,8.83,1.02,11.7,3.05,2.87,2.03,4.93,4.7,6.2,8,1.27,3.3,1.9,6.92,1.9,10.85,0,3.53-.5,7.25-1.5,11.15-1,3.9-2.42,7.77-4.25,11.6-1.83,3.83-4.02,7.45-6.55,10.85-3.93,5.27-8.72,9.58-14.35,12.95-5.63,3.37-11.72,5.05-18.25,5.05ZM1468.8,149.41c2.33-1.53,4.55-3.87,6.65-7,2.1-3.13,4.08-6.9,5.95-11.3,1.67-4.07,2.97-7.92,3.9-11.55.93-3.63,1.4-6.65,1.4-9.05s-.68-4.4-2.05-5.8c-1.37-1.4-3.52-2.1-6.45-2.1-1.07,5.73-2.15,11.03-3.25,15.9-1.1,4.87-2.17,9.77-3.2,14.7-1.03,4.93-2.02,10.33-2.95,16.2Z"/>
      <path class="cls-10" d="M1513.1,161.91c-4.4,0-8-1.7-10.8-5.1-2.8-3.4-4.2-8.53-4.2-15.4,0-3.8.47-7.8,1.4-12,.93-4.2,2.23-8.33,3.9-12.4,1.67-4.07,3.6-7.83,5.8-11.3,3.53-5.6,7.6-10.17,12.2-13.7,4.6-3.53,9.43-5.3,14.5-5.3,4,0,7.08,1.02,9.25,3.05,2.17,2.03,3.68,4.63,4.55,7.8.87,3.17,1.3,6.45,1.3,9.85,0,7.93-1.22,15.32-3.65,22.15-2.43,6.83-5.58,12.62-9.45,17.35-3.87,4.87-7.98,8.58-12.35,11.15-4.37,2.57-8.52,3.85-12.45,3.85ZM1518.5,145.41c3,0,5.65-1,7.95-3s4.25-4.55,5.85-7.65c1.6-3.1,2.8-6.35,3.6-9.75.8-3.4,1.2-6.47,1.2-9.2,0-1.07-.1-2.22-.3-3.45-.2-1.23-.63-2.32-1.3-3.25-.67-.93-1.7-1.4-3.1-1.4-3.07,0-5.83,1.12-8.3,3.35-2.47,2.23-4.53,5.05-6.2,8.45-1.67,3.47-2.9,6.87-3.7,10.2-.8,3.33-1.2,6.37-1.2,9.1,0,1.4.5,2.85,1.5,4.35s2.33,2.25,4,2.25Z"/>
    </g>
  </g>
</svg>