<?xml version="1.0" encoding="UTF-8"?>
<svg id="Capa_2" data-name="Capa 2" xmlns="http://www.w3.org/2000/svg" xmlns:xlink="http://www.w3.org/1999/xlink" viewBox="0 0 1922.08 1080.25">
  <defs>
    <style>
      .cls-1 {
        stroke: #ceeae9;
        stroke-width: 5.79px;
      }

      .cls-1, .cls-2 {
        stroke-miterlimit: 10;
      }

      .cls-1, .cls-2, .cls-3 {
        fill: none;
      }

      .cls-4 {
        fill: #f19c2e;
      }

      .cls-5 {
        fill: #706539;
      }

      .cls-2 {
        stroke: #995222;
        stroke-width: 8.8px;
      }

      .cls-6 {
        fill: #cae3e5;
      }

      .cls-7 {
        fill: #c68859;
      }

      .cls-8 {
        fill: #4793a0;
      }

      .cls-9 {
        fill: #fff;
      }

      .cls-10 {
        fill: #93c2cc;
      }

      .cls-11 {
        fill: #6bb6b8;
      }

      .cls-12 {
        fill: #edf4f4;
      }

      .cls-13 {
        fill: #995222;
      }

      .cls-14 {
        fill: #a3ced6;
      }

      .cls-15 {
        fill: #d56453;
      }

      .cls-16 {
        fill: #a9c245;
      }

      .cls-17 {
        fill: #c0dee2;
      }

      .cls-18 {
        fill: #ad3b2f;
      }

      .cls-19 {
        fill: #9ac146;
      }

      .cls-20 {
        fill: #d89f79;
      }

      .cls-21 {
        fill: #5f869b;
      }

      .cls-22 {
        fill: #87b0c1;
      }

      .cls-23 {
        fill: url(#Degradado_sin_nombre_30);
      }

      .cls-24 {
        fill: #a09c87;
      }

      .cls-25 {
        clip-path: url(#clippath);
      }

      .cls-26 {
        fill: #9bbecc;
      }

      .cls-27 {
        fill: #ffcc2c;
      }

      .cls-28 {
        fill: #5f8e9e;
      }
    </style>
    <linearGradient id="Degradado_sin_nombre_30" data-name="Degradado sin nombre 30" x1="961.34" y1="1079.5" x2="961.34" y2=".25" gradientUnits="userSpaceOnUse">
      <stop offset="0" stop-color="#d1fdfe"/>
      <stop offset="1" stop-color="#97ddef"/>
    </linearGradient>
    <clipPath id="clippath">
      <polygon class="cls-3" points="1920 1080 2.67 1078.25 0 0 1920 0 1920 1080"/>
    </clipPath>
  </defs>
  <g id="Capa_4" data-name="Capa 4">
    <g>
      <polygon class="cls-23" points="1921.34 1079.5 1.34 1079.5 1.67 .25 1920.67 .25 1921.34 1079.5"/>
      <path class="cls-12" d="M748.79,996.84c0-26.2-47.19-48.56-113.65-57.4,1.41-2.29,2.15-4.65,2.15-7.07,0-13.83-24.15-25.92-60.08-32.43.55-1.68.85-3.38.85-5.11,0-24.41-56.94-44.19-127.17-44.19-20,0-38.92,1.61-55.76,4.47-.49-27.58-54.11-49.87-120.19-49.87-45.06,0-84.33,10.37-104.91,25.71-27.58-8.38-66.38-13.6-109.37-13.6-19.02,0-37.23,1.02-54,2.89v82.59s0,0,0,0h0s-4.88,177.4-4.88,177.4l699.22-2.16-17.62-33.54c39.9-11.27,65.4-28.45,65.4-47.71Z"/>
      <path class="cls-12" d="M806.96,144.8c0-11.32-64.69-20.5-144.5-20.5-28.32,0-54.73,1.16-77.03,3.15-20.39-13.7-63.54-23.15-113.47-23.15-69.59,0-126,18.36-126,41,0,7.52,6.22,14.56,17.07,20.62-51.3,3.04-90.07,17.06-90.07,33.88,0,19.05,49.7,34.5,111,34.5,46.39,0,86.13-8.85,102.72-21.41,28.04,2.17,59.94,3.41,93.78,3.41,111.84,0,202.5-13.43,202.5-30,0-8.91-26.22-16.91-67.85-22.4,53.77-2.99,91.85-10.41,91.85-19.1Z"/>
      <g class="cls-25">
        <path class="cls-12" d="M1920,727.86c-43.4-9.8-117.92-3.02-165.73,14.97-52.31-55.04-232.78-43.68-232.18,34.07,0,.07,0,.13,0,.2-77.37-15.58-188.24,2.61-187.36,54.56-.04,2.61.2,5.13.7,7.57-35.64,7.7-61.92,22.59-61.37,44.67-.1,3.98.69,7.72,2.23,11.23-64.96,10.19-117.14,36.35-116.43,78.5-.51,30.64,26.94,52.83,66.92,66.57l-25.88,67.79,719.1-34.54v-230.64h0s0,0,0,0v-114.94Z"/>
      </g>
      <path class="cls-12" d="M1634.07,194.8c41.66-5.23,67.93-13.07,67.99-21.98.1-16.57-90.47-30.57-202.31-31.27-33.84-.21-65.75.82-93.8,2.82-16.51-12.66-56.19-21.76-102.58-22.05-61.3-.38-111.09,14.75-111.21,33.8-.11,16.83,38.58,31.08,89.86,34.45-10.89,5.99-17.15,12.99-17.2,20.51-.14,22.64,56.15,41.35,125.74,41.79,49.93.31,93.13-8.87,113.61-22.44,22.29,2.14,48.69,3.46,77.01,3.64,79.8.5,144.55-8.27,144.63-19.59.05-8.69-37.98-16.35-91.72-19.67Z"/>
      <polygon class="cls-22" points="1608.35 345.27 1631.35 332.58 1631.35 261.49 1608.35 274.19 1608.35 345.27"/>
      <polygon class="cls-26" points="1860.35 345.27 1631.35 332.58 1631.35 261.49 1860.35 274.19 1860.35 345.27"/>
      <path class="cls-12" d="M1917.35,371.14c-43.4-8.29-117.92-2.55-165.73,12.67-52.31-46.58-232.78-36.96-232.18,28.83,0,.06,0,.11,0,.17-77.37-13.18-188.24,2.21-187.36,46.17-.04,2.21.2,4.34.7,6.4-35.64,6.52-61.92,19.12-61.37,37.8-.1,3.36.69,6.53,2.23,9.5-64.96,8.62-117.14,30.76-116.43,66.43-.51,25.93,26.94,44.71,66.92,56.34l-25.88,57.37,719.1-29.23v-195.18h0s0,0,0,0v-97.27Z"/>
      <path class="cls-12" d="M1626.47,189.99c41.66-4.43,67.93-11.06,67.99-18.6.1-14.02-90.47-25.87-202.31-26.46-33.84-.18-65.75.69-93.8,2.38-16.51-10.72-56.19-18.41-102.58-18.66-61.3-.33-111.09,12.48-111.21,28.61-.11,14.24,38.58,26.31,89.86,29.15-10.89,5.07-17.15,10.99-17.2,17.35-.14,19.16,56.15,35,125.74,35.36,49.93.27,93.13-7.5,113.61-18.99,22.29,1.81,48.69,2.93,77.01,3.08,79.8.42,144.55-7,144.63-16.58.05-7.35-37.98-13.83-91.72-16.65Z"/>
      <polygon class="cls-10" points="1595.35 697.32 1418.35 697.32 1418.35 345.27 1595.35 329.2 1595.35 697.32"/>
      <polygon class="cls-14" points="1885.35 682.09 1595.35 682.09 1595.35 329.2 1885.35 345.27 1885.35 682.09"/>
      <polygon class="cls-17" points="1451.35 415.1 1436.35 418.05 1436.35 362.6 1451.35 357.62 1451.35 415.1"/>
      <polygon class="cls-17" points="1485.35 412.4 1470.35 415.36 1470.35 359.9 1485.35 354.92 1485.35 412.4"/>
      <polygon class="cls-17" points="1524.35 408.17 1509.35 411.12 1509.35 355.67 1524.35 350.69 1524.35 408.17"/>
      <polygon class="cls-17" points="1566.35 408.17 1551.35 411.12 1551.35 355.67 1566.35 350.69 1566.35 408.17"/>
      <polygon class="cls-6" points="1855.35 418.05 1631.35 407.9 1631.35 353.74 1855.35 363.89 1855.35 418.05"/>
      <polygon class="cls-6" points="1855 533.56 1631 521.56 1631 457.56 1855 469.56 1855 533.56"/>
      <polygon class="cls-6" points="1855 646.56 1631 634.56 1631 570.56 1855 582.56 1855 646.56"/>
      <path class="cls-12" d="M763,713.02c0-36.46-48.39-67.58-116.54-79.88,1.44-3.19,2.21-6.47,2.21-9.84,0-19.25-24.76-36.07-61.61-45.13.57-2.33.87-4.7.87-7.11,0-33.96-58.38-61.5-130.41-61.5-20.51,0-39.91,2.24-57.18,6.21-.5-38.37-55.48-69.4-123.25-69.4-46.21,0-86.47,14.43-107.58,35.77-28.28-11.66-68.07-18.92-112.15-18.92-19.51,0-38.18,1.42-55.38,4.03v114.94s0,0,0,0h0v230.64l719.91,34.54-25.98-67.98c40.92-15.68,67.07-39.59,67.07-66.39Z"/>
      <g>
        <g>
          <rect class="cls-24" x="152.3" y="582.07" width="179.63" height="10.01"/>
          <rect class="cls-24" x="148.69" y="506.52" width="181.44" height="8.2"/>
          <rect class="cls-24" x="166.01" y="512.63" width="4.33" height="72.52"/>
          <rect class="cls-24" x="188.01" y="512.63" width="3.97" height="72.52"/>
          <rect class="cls-24" x="207.13" y="512.63" width="4.33" height="72.52"/>
          <rect class="cls-24" x="225.34" y="513.04" width="4.33" height="72.52"/>
          <rect class="cls-24" x="247.35" y="513.04" width="3.97" height="72.52"/>
          <rect class="cls-24" x="266.47" y="513.04" width="4.33" height="72.52"/>
          <rect class="cls-24" x="284.68" y="513.04" width="4.33" height="72.52"/>
          <rect class="cls-24" x="306.68" y="513.04" width="3.97" height="72.52"/>
        </g>
        <rect class="cls-18" x="327.15" y="423.61" width="16.5" height="291.51"/>
        <rect class="cls-15" x="339.37" y="423.61" width="20.17" height="291.51"/>
        <g>
          <rect class="cls-5" x="284.26" y="582.95" width="202.9" height="10.01"/>
          <rect class="cls-5" x="280.19" y="507.4" width="204.93" height="8.2"/>
          <rect class="cls-5" x="299.75" y="513.51" width="4.89" height="72.52"/>
          <rect class="cls-5" x="324.6" y="513.51" width="4.48" height="72.52"/>
          <rect class="cls-5" x="346.19" y="513.51" width="4.89" height="72.52"/>
          <rect class="cls-5" x="366.77" y="513.92" width="4.89" height="72.52"/>
          <rect class="cls-5" x="391.62" y="513.92" width="4.48" height="72.52"/>
          <rect class="cls-5" x="413.21" y="513.92" width="4.89" height="72.52"/>
          <rect class="cls-5" x="433.79" y="513.92" width="4.89" height="72.52"/>
          <rect class="cls-5" x="458.64" y="513.92" width="4.48" height="72.52"/>
        </g>
        <rect class="cls-5" x="160.41" y="582.95" width="123.86" height="10.01"/>
        <rect class="cls-18" x="140.44" y="413.89" width="16.5" height="291.51"/>
        <path class="cls-4" d="M485.13,321.05l-94.46,102.06-36.98,26.34c-2.72,1.94-6.53.67-7.55-2.51l-7.42-23.21-45.45,27.05c-2.39,1.42-5.47.59-6.82-1.84l-14.34-25.82-26.85,25.06c-2.52,2.36-6.62,1.45-7.92-1.75l-9.22-22.71-33.18,25.28c-2.64,2.01-6.48.89-7.61-2.23l-8.71-23.96-28.46,25.85c-2.43,2.2-6.29,1.47-7.73-1.48l-12.09-24.67-28.74,25.21c-2.78,2.44-7.15,1.06-8.03-2.53l-5.71-23.29-24.18,25.43c-2.52,2.64-6.93,1.73-8.19-1.7l-8.27-22.51-26.59,22.86c-3.21,2.76-8.18.45-8.14-3.78l.19-19.07h0c-4.83,2.83,78-102.06,80.77-102.06,3.87,0,391.68,0,391.68,0Z"/>
        <rect class="cls-15" x="152.67" y="413.89" width="20.17" height="291.51"/>
        <polygon class="cls-18" points="177.86 394.95 65.88 394.95 65.88 419.39 177.86 419.39 240.26 419.39 240.26 705.41 258.19 705.41 258.19 419.19 278.87 424.49 480.44 424.49 480.44 705.41 499.18 705.41 499.18 408.39 509.37 424.28 546.04 424.28 554.8 418.58 549.29 399.23 177.86 394.95"/>
        <polygon class="cls-15" points="258.19 705.41 258.19 419.19 177.86 419.19 177.86 394.95 554.8 394.95 554.8 418.58 512.42 418.58 512.42 705.41 487.16 705.41 487.16 419.39 284.26 419.39 284.26 705.41 258.19 705.41"/>
        <path class="cls-27" d="M95.49,321l95.52,102.06,37.39,26.34c2.75,1.94,6.61.67,7.63-2.51l7.5-23.21,45.96,27.05c2.41,1.42,5.54.59,6.9-1.84l14.5-25.82,27.16,25.06c2.55,2.36,6.7,1.45,8.01-1.75l9.33-22.71,33.55,25.28c2.67,2.01,6.55.89,7.7-2.23l8.81-23.96,28.78,25.85c2.45,2.2,6.36,1.47,7.82-1.48l12.23-24.67,29.06,25.21c2.81,2.44,7.23,1.06,8.12-2.53l5.77-23.29,24.45,25.43c2.54,2.64,7.01,1.73,8.28-1.7l8.36-22.51,26.89,22.86c3.25,2.76,8.27.45,8.23-3.78l-1.84-26.1s-77.23-95.03-80.03-95.03H95.49Z"/>
        <polygon class="cls-8" points="162.75 577.47 240.26 580.73 148.19 705.41 59.94 697.51 162.75 577.47"/>
        <path class="cls-11" d="M240.26,587.66v-6.71c0-4.02-5.11-5.75-7.55-2.55l-84.45,110.68c-1.7,2.23-3.28,6.04-3.08,8.84l3.01,7.49,92.07-117.75Z"/>
        <path class="cls-11" d="M161.95,578.8h0c0-6.38-8.02-9.21-12.02-4.25l-87.75,108.75c-1.83,2.27-2.73,5.15-2.52,8.06l.28,6.14,102.01-118.71Z"/>
      </g>
      <polygon class="cls-16" points="1921.67 1074.11 1.65 1074.11 1.08 684.11 1922.08 684.11 1921.67 1074.11"/>
      <path class="cls-28" d="M1208.08,848.85l-18.63-26.27c-5.77-.99-12.23-2-16.37-2.35-5.17-.44,3.52-2.42,11.85-4.02l-2.98-4.2-30.87-4.15h27.92l-2.92-4.12-40-18.31h27.01l-5.38-7.59c-14.39-6.31-33.03-14.53-36.62-16.39-3.73-1.92,14.96,2.73,29.63,6.53l-4.63-6.53h503l-71-77.34H301.08l-76,78.89h615l-11.01,16.87,28.01-6.05-35.16,17-1.53,2.34h49.69l-46,11.6,27,9.28-41,2.32-5.41.89-17.59,26.96L1.08,847.3l.59,232.95h1920l-.59-231.4h-713Z"/>
      <path class="cls-19" d="M1864.64,734.93c56.45-25.44,50.45-21.47-22.55-32.6s-224-8.75-215,7.16,14,42.93,61,51.68c45.61,8.49-57,13.52-163,18.29,0,0,60,14.31-70,15.9-130,1.59-209-18.29-225-1.59s-97,10.34,2,21.47,133,17.49,98,19.88c-35,2.39-105,11.13,12,10.34s347,6.36,370,0c23-6.36-48-8.75,7-14.31s179-4.77,182-19.88c3-15.11-8-13.52-26-43.73-18-30.21-66.89-7.16-10.45-32.6ZM1656.08,810.46c-10,6.36-19,5.57-100,.8-81-4.77-2-2.39,48-7.16,50-4.77-3-3.98-31-10.34-28-6.36,40-3.18,40-3.18,33-7.95,34-2.39,6,1.59-28,3.98-3,3.18,26,4.77s21,7.16,11,13.52Z"/>
      <path class="cls-19" d="M488.08,775.11s-165,7-137,20,26-3,131,10,135,51,176,29,145-58,17-48-224,11-163,1,139-27-24-12Z"/>
      <path class="cls-19" d="M77.83,701.11s150.96,0,89.29,8.59-101.61,11.17-41.6,22.34,149.3,20.63,66.45,30.94c-82.84,10.31-146.36,19.77-32.22,23.2s229.2,26.64,136.23,31.8c-92.97,5.16-162.93-3.44-92.05,6.02s138.07,17.19-11.97,12.89c-150.04-4.3-243.01-15.47-149.12-18.91,93.89-3.44,186.86-3.44,116.9-13.75-69.96-10.31-142.68-27.5-97.57-38.67s102.18-18.05,47.87-28.36c-54.31-10.31-95.73-25.78-56.15-27.5,39.58-1.72,114.14,4.3,23.93-8.59Z"/>
      <path class="cls-19" d="M1706.08,807.11s42,23,34,28-6,6,49,2,108-17,55-19"/>
      <path class="cls-21" d="M1668.08,968.11c-40.04,0-77.61,1.97-110.13,5.42,15.45-6.31,24.13-13.41,24.13-20.92,0-26.23-105.88-47.5-236.5-47.5s-236.5,21.27-236.5,47.5,105.88,47.5,236.5,47.5c41.92,0,81.28-2.19,115.42-6.04-10.9,4.94-16.92,10.36-16.92,16.04,0,23.2,100.29,42,224,42s224-18.8,224-42-100.29-42-224-42Z"/>
      <path class="cls-21" d="M1074.14,884.16c-11.35-6.54-54.3-11.41-105.56-11.41-59.92,0-108.5,6.65-108.5,14.85,0,6.21,27.85,11.53,67.39,13.75-4.15,2.29-6.39,4.73-6.39,7.25,0,13.53,64.25,24.5,143.5,24.5s143.5-10.97,143.5-24.5-59.15-23.6-133.94-24.44Z"/>
      <path class="cls-21" d="M445.58,964.11c-14.32,0-28.21.52-41.5,1.48-.03-24.02-57.1-43.48-127.5-43.48s-127.5,19.48-127.5,43.5,56.66,43.35,126.71,43.5c-.46,1.48-.71,2.98-.71,4.5,0,27.34,76.34,49.5,170.5,49.5s170.5-22.16,170.5-49.5-76.34-49.5-170.5-49.5Z"/>
      <path class="cls-1" d="M1006.47,745c90.85,0,164.5-26.75,164.5-59.75,0-.08,0-.17,0-.25h-328.98c0,.08,0,.17,0,.25,0,33,73.65,59.75,164.5,59.75Z"/>
      <path class="cls-1" d="M1006.97,709c39.21,0,70-19.37,71-24h-142c-1,4.63,31.79,24,71,24Z"/>
      <ellipse class="cls-12" cx="1003.81" cy="579.68" rx="164" ry="24.5"/>
      <ellipse class="cls-12" cx="1003.81" cy="580.68" rx="164" ry="24.5"/>
      <ellipse class="cls-12" cx="1003.81" cy="581.68" rx="164" ry="24.5"/>
      <ellipse class="cls-12" cx="1003.81" cy="582.68" rx="164" ry="24.5"/>
      <ellipse class="cls-12" cx="1003.81" cy="583.68" rx="164" ry="24.5"/>
      <ellipse class="cls-12" cx="1003.81" cy="584.68" rx="164" ry="24.5"/>
      <ellipse class="cls-12" cx="1003.81" cy="585.68" rx="164" ry="24.5"/>
      <ellipse class="cls-12" cx="1003.81" cy="586.68" rx="164" ry="24.5"/>
      <ellipse class="cls-12" cx="1003.81" cy="587.68" rx="164" ry="24.5"/>
      <ellipse class="cls-12" cx="1003.81" cy="588.68" rx="164" ry="24.5"/>
      <ellipse class="cls-12" cx="1003.81" cy="589.68" rx="164" ry="24.5"/>
      <ellipse class="cls-12" cx="1003.81" cy="590.68" rx="164" ry="24.5"/>
      <ellipse class="cls-12" cx="1003.81" cy="591.68" rx="164" ry="24.5"/>
      <ellipse class="cls-12" cx="1003.81" cy="592.68" rx="164" ry="24.5"/>
      <ellipse class="cls-12" cx="1003.81" cy="593.68" rx="164" ry="24.5"/>
      <ellipse class="cls-12" cx="1003.81" cy="594.68" rx="164" ry="24.5"/>
      <ellipse class="cls-12" cx="1003.81" cy="595.68" rx="164" ry="24.5"/>
    </g>
    <polygon class="cls-20" points="1494.07 332.13 467.69 332.13 573.57 191.19 1390.35 191.19 1494.07 332.13"/>
    <g>
      <rect class="cls-7" x="235.54" y="324.01" width="1451" height="565.05"/>
      <rect class="cls-2" x="270.81" y="346.67" width="1380.45" height="519.72"/>
    </g>
    <rect class="cls-13" x="331.62" y="544.1" width="576.23" height="182.3" rx="45.59" ry="45.59"/>
    <rect class="cls-13" x="1033.46" y="544.1" width="576.23" height="182.3" rx="45.59" ry="45.59"/>
    <rect class="cls-20" x="331.62" y="529.29" width="576.23" height="182.3" rx="45.59" ry="45.59"/>
    <rect class="cls-20" x="1033.46" y="529.29" width="576.23" height="182.3" rx="45.59" ry="45.59"/>
    <g>
      <path class="cls-9" d="M362.6,666.56l14.61-97.82,35.23-3.71c-.52,2.02-.97,4.08-1.34,6.19-.37,1.74-.72,3.56-1.06,5.43-.33,1.88-.61,3.56-.84,5.02-.97.09-2.34.16-4.12.21-1.78.05-3.61.09-5.46.14-1.86.05-3.46.07-4.79.07h-2.12l-3.9,24.63,6.47-.41c.82-.09,1.65-.14,2.51-.14h4.74c.67,0,1.19-.05,1.56-.14-.15,1.29-.28,2.54-.39,3.78-.11,1.24-.24,2.5-.39,3.78l-1,7.57c-.37.09-.86.14-1.45.14h-2.12c-.82.09-1.67.14-2.56.14s-1.75.05-2.56.14c-.97.09-1.97.14-3.01.14s-2.16.05-3.34.14l-3.79,25.32,16.28-3.17-1.12,15.69-36.01,6.88Z"/>
      <path class="cls-9" d="M418.79,666.7c-2.97,0-5.95-.98-8.92-2.96-2.97-1.97-5.84-5.11-8.58-9.42l8.25-19.95c.82,1.74,2.02,3.39,3.62,4.95,1.6,1.56,3.29,2.8,5.07,3.71,1.78.92,3.31,1.38,4.57,1.38,1.93,0,3.77-.73,5.52-2.2,1.75-1.47,2.62-3.44,2.62-5.92,0-3.21-1.19-6.14-3.57-8.81-2.38-2.66-5.06-5.27-8.03-7.84-2.9-2.57-5.56-5.48-7.97-8.74-2.42-3.25-3.62-6.99-3.62-11.21,0-4.77,1.11-9.19,3.34-13.28,2.23-4.08,5.13-7.66,8.7-10.73,3.57-3.07,7.38-5.46,11.43-7.15,4.05-1.7,7.9-2.54,11.54-2.54,2.6,0,5.02.53,7.25,1.58,2.23,1.06,4.01,2.78,5.35,5.16,1.34,2.39,2.01,5.6,2.01,9.63,0,.64-.02,1.29-.06,1.93-.04.64-.09,1.29-.17,1.93-.07.64-.17,1.31-.28,2-.11.69-.21,1.4-.28,2.13l-16.17,5.78c.15-.73.28-1.47.39-2.2.11-.73.17-1.47.17-2.2,0-2.75-.39-4.75-1.17-5.99s-1.8-1.86-3.07-1.86c-.67,0-1.64.44-2.9,1.31-1.26.87-2.4,2.06-3.4,3.58-1,1.51-1.5,3.19-1.5,5.02,0,3.03,1.02,5.53,3.07,7.5,2.04,1.97,4.4,3.97,7.08,5.99,1.26.92,2.68,2.36,4.24,4.33,1.56,1.97,2.92,4.63,4.07,7.98,1.15,3.35,1.73,7.64,1.73,12.86,0,6.79-1.36,12.75-4.07,17.89-2.71,5.14-6.37,9.15-10.98,12.04-4.61,2.89-9.7,4.33-15.27,4.33Z"/>
      <path class="cls-9" d="M467.96,666.7c-4.68,0-8.51-2.71-11.48-8.12-2.97-5.41-4.46-12.84-4.46-22.29,0-8.62.97-17.13,2.9-25.52,1.93-8.39,4.64-15.94,8.14-22.63,3.49-6.69,7.64-12.08,12.43-16.17,4.79-4.08,10.09-6.12,15.89-6.12,3.64,0,6.76,1.74,9.37,5.23,2.6,3.49,3.9,8.16,3.9,14.03v2.61c0,.28-.04.6-.11.96l-14.6,4.82c-.89-2.29-1.93-3.44-3.12-3.44-1.78,0-3.66,1.79-5.63,5.37-1.97,3.58-3.85,7.84-5.63,12.8-1.19,3.3-2.25,6.7-3.18,10.18-.93,3.49-1.65,6.74-2.17,9.77-.52,3.03-.78,5.5-.78,7.43,0,2.84.33,4.91,1,6.19.52,1.19,1.34,1.79,2.45,1.79s2.34-.66,3.68-2c1.34-1.33,2.58-3,3.74-5.02,1.15-2.02,1.91-4.04,2.29-6.05l12.71,6.33c-3.64,10.27-7.97,17.82-12.99,22.63-5.02,4.82-9.79,7.22-14.33,7.22Z"/>
      <path class="cls-9" d="M510.23,666.53c1.71-9.5,3.33-18.78,4.87-27.85.63-3.66,1.27-7.58,1.92-11.76.66-4.18,1.33-8.42,2.01-12.71.68-4.29,1.31-8.35,1.88-12.19.57-3.83,1.03-7.19,1.37-10.08,2.28-.84,4.75-1.62,7.4-2.32s5.03-1.06,7.14-1.06c3.42,0,6.13.9,8.12,2.69,1.99,1.79,3.42,4.2,4.28,7.23.85,3.03,1.28,6.33,1.28,9.92,0,3.94-.58,7.72-1.75,11.34-1.17,3.62-2.74,6.88-4.7,9.76-1.97,2.89-4.22,5.17-6.75,6.86-2.54,1.69-5.17,2.53-7.91,2.53h-.94c-.46,2.39-.88,5-1.28,7.81-.4,2.81-.74,5.42-1.03,7.81-.23,1.41-.43,2.81-.6,4.22-.17,1.41-.34,2.81-.51,4.22l-14.79,3.59ZM530.15,627.81c1.31-.42,2.62-1.49,3.93-3.22,1.31-1.72,2.39-3.92,3.25-6.59.85-2.67,1.28-5.59,1.28-8.76,0-2.6-.47-4.57-1.41-5.91-.94-1.34-1.98-2-3.12-2-.63,4.64-1.25,9.04-1.88,13.19-.63,4.15-1.31,8.58-2.05,13.29Z"/>
      <path class="cls-9" d="M565.04,666.21c.11-1.2.23-2.36.34-3.48.11-1.12.23-2.25.34-3.38l.51-5.91c.06-.98.11-1.9.17-2.74.06-.84.11-1.62.17-2.32h-7.44l-3.42,15.19c-1.25.21-2.74.44-4.45.69-1.71.25-3.31.47-4.79.69-.91.14-1.81.28-2.69.42-.88.14-1.78.28-2.69.42l6.75-27.64c.8-3.31,1.71-7.07,2.74-11.29,1.03-4.22,2.07-8.55,3.12-12.98,1.05-4.43,2.05-8.6,2.99-12.5.94-3.9,1.7-7.19,2.27-9.87,3.88-.35,7.82-.77,11.84-1.27,4.02-.49,7.94-1.16,11.76-2-.29,3.94-.56,8.39-.81,13.35-.26,4.96-.49,10.08-.68,15.35-.2,5.28-.41,10.48-.64,15.61-.12,4.85-.26,9.87-.43,15.04s-.34,10.46-.51,15.88c-.86.14-1.71.28-2.57.42-.85.14-1.71.28-2.56.42-1.42.28-2.99.6-4.7.95-1.71.35-3.25.67-4.62.95ZM561.19,637.83c.34,0,.98-.03,1.92-.11.94-.07,1.84-.14,2.69-.21.86-.07,1.37-.11,1.54-.11,0-.91.11-2.78.34-5.59.23-2.81.46-5.77.68-8.86.11-1.83.24-3.71.38-5.64.14-1.93.3-3.92.47-5.96l.51-9.18-1.28.11-1.97,9.07-5.3,26.48Z"/>
      <path class="cls-9" d="M580.25,666.53l4.45-27.43c.68-5.06,1.42-10.27,2.22-15.62.8-5.34,1.55-10.62,2.27-15.83.71-5.2,1.27-10.09,1.67-14.67,3.25-1.27,6.75-2.2,10.52-2.8,3.76-.6,7.49-.9,11.2-.9,4.33,0,7.28,1.16,8.85,3.48,1.57,2.32,2.35,5.45,2.35,9.39,0,3.59-.68,7.19-2.05,10.81-1.37,3.62-3.15,6.89-5.34,9.81-2.2,2.92-4.6,5.22-7.22,6.91,1.03,2.81,2.12,5.89,3.29,9.23,1.17,3.34,2.27,6.52,3.29,9.55.57,1.76,1.15,3.52,1.75,5.28.6,1.76,1.18,3.52,1.75,5.28l-13.25,5.7-3.08-12.66c-.85-3.52-1.64-6.91-2.35-10.18s-1.13-5.57-1.24-6.91l-1.11.42c-.17,1.13-.36,2.34-.56,3.64-.2,1.3-.41,2.73-.64,4.27-.23,1.55-.46,3.04-.68,4.48-.23,1.44-.46,2.87-.68,4.27l-1.54,10.02-13.85,4.43ZM600.34,620.74c1.03-.14,2.29-.69,3.8-1.64,1.51-.95,3.02-2.13,4.53-3.53,1.51-1.41,2.78-2.85,3.8-4.33,1.03-1.48,1.54-2.78,1.54-3.9,0-1.41-.67-2.34-2.01-2.8-1.34-.46-3.09-.69-5.26-.69h-1.88c-.34.07-.66.11-.94.11h-.86l-2.74,16.78Z"/>
      <path class="cls-9" d="M640.01,666.21c.11-1.2.23-2.36.34-3.48.11-1.12.23-2.25.34-3.38l.51-5.91c.06-.98.11-1.9.17-2.74.06-.84.11-1.62.17-2.32h-7.44l-3.42,15.19c-1.25.21-2.74.44-4.45.69-1.71.25-3.31.47-4.79.69-.91.14-1.81.28-2.69.42-.88.14-1.78.28-2.69.42l6.75-27.64c.8-3.31,1.71-7.07,2.74-11.29,1.03-4.22,2.07-8.55,3.12-12.98,1.05-4.43,2.05-8.6,2.99-12.5.94-3.9,1.7-7.19,2.27-9.87,3.88-.35,7.82-.77,11.84-1.27,4.02-.49,7.94-1.16,11.76-2-.29,3.94-.56,8.39-.81,13.35-.26,4.96-.49,10.08-.68,15.35-.2,5.28-.41,10.48-.64,15.61-.12,4.85-.26,9.87-.43,15.04s-.34,10.46-.51,15.88c-.86.14-1.71.28-2.57.42-.85.14-1.71.28-2.56.42-1.42.28-2.99.6-4.7.95-1.71.35-3.25.67-4.62.95ZM636.17,637.83c.34,0,.98-.03,1.92-.11.94-.07,1.84-.14,2.69-.21.86-.07,1.37-.11,1.54-.11,0-.91.11-2.78.34-5.59.23-2.81.46-5.77.68-8.86.11-1.83.24-3.71.38-5.64.14-1.93.3-3.92.47-5.96l.51-9.18-1.28.11-1.97,9.07-5.3,26.48Z"/>
      <path class="cls-9" d="M686.18,666.64c-2.28,0-4.56-.75-6.84-2.27-2.28-1.51-4.48-3.92-6.58-7.23l6.33-15.3c.63,1.34,1.55,2.6,2.78,3.8,1.23,1.2,2.52,2.15,3.89,2.85,1.37.7,2.54,1.06,3.5,1.06,1.48,0,2.89-.56,4.23-1.69,1.34-1.12,2.01-2.64,2.01-4.54,0-2.46-.91-4.71-2.74-6.75-1.82-2.04-3.88-4.04-6.16-6.01-2.22-1.97-4.26-4.2-6.11-6.7-1.85-2.5-2.78-5.36-2.78-8.6,0-3.66.86-7.05,2.57-10.18,1.71-3.13,3.93-5.87,6.67-8.23,2.74-2.36,5.66-4.18,8.76-5.49,3.11-1.3,6.06-1.95,8.85-1.95,1.99,0,3.85.41,5.56,1.21,1.71.81,3.08,2.13,4.1,3.96,1.03,1.83,1.54,4.29,1.54,7.39,0,.49-.01.99-.04,1.48-.03.49-.07.99-.13,1.48-.06.49-.13,1-.21,1.53-.09.53-.16,1.07-.21,1.63l-12.4,4.43c.11-.56.21-1.12.3-1.69.08-.56.13-1.12.13-1.69,0-2.11-.3-3.64-.9-4.59s-1.38-1.42-2.35-1.42c-.51,0-1.25.33-2.22,1-.97.67-1.84,1.58-2.61,2.74s-1.15,2.44-1.15,3.85c0,2.32.78,4.24,2.35,5.75,1.57,1.51,3.38,3.04,5.43,4.59.97.7,2.05,1.81,3.25,3.32,1.2,1.51,2.24,3.55,3.12,6.12.88,2.57,1.33,5.86,1.33,9.86,0,5.21-1.04,9.78-3.12,13.72-2.08,3.94-4.89,7.02-8.42,9.23-3.53,2.22-7.44,3.32-11.71,3.32Z"/>
      <path class="cls-9" d="M709.01,666.53l11.2-75.02,27.02-2.85c-.4,1.55-.74,3.13-1.03,4.75-.29,1.34-.56,2.73-.81,4.17-.26,1.44-.47,2.73-.64,3.85-.74.07-1.8.12-3.16.16-1.37.04-2.77.07-4.19.11-1.43.04-2.65.05-3.68.05h-1.62l-2.99,18.89,4.96-.32c.63-.07,1.27-.11,1.92-.11h3.63c.51,0,.91-.04,1.2-.11-.12.99-.21,1.95-.3,2.9-.08.95-.19,1.92-.3,2.9l-.77,5.8c-.29.07-.66.11-1.11.11h-1.62c-.63.07-1.28.11-1.97.11s-1.34.04-1.97.11c-.74.07-1.51.11-2.31.11s-1.65.04-2.57.11l-2.91,19.41,12.48-2.43-.85,12.03-27.62,5.28Z"/>
      <path class="cls-9" d="M756.54,668.96c-2.11,0-4.12-.56-6.03-1.69-1.91-1.12-3.55-2.85-4.92-5.17-1.43-2.25-2.54-5.1-3.33-8.55-.8-3.45-1.2-7.49-1.2-12.13,0-9.07,1.05-16.99,3.16-23.74,2.11-6.75,4.79-12.38,8.04-16.88,3.19-4.5,6.62-7.84,10.3-10.02,3.68-2.18,7.11-3.27,10.3-3.27s5.58.83,7.52,2.48c1.94,1.65,3.36,3.85,4.28,6.59.91,2.74,1.37,5.8,1.37,9.18l-11.71,2.74c-.51-2.81-1.2-4.82-2.05-6.01-.85-1.2-1.82-1.79-2.91-1.79-1.25,0-2.55.84-3.89,2.53-1.34,1.69-2.65,3.96-3.93,6.8s-2.44,6.03-3.46,9.55c-1.03,3.52-1.87,7.14-2.52,10.87-.66,3.73-1.04,7.25-1.15,10.55,0,4.36.53,7.47,1.58,9.34,1.05,1.86,2.41,2.8,4.06,2.8s3.18-.63,4.75-1.9c1.57-1.27,2.88-2.97,3.93-5.12,1.05-2.14,1.61-4.55,1.67-7.23l-9.15,1.69,1.62-10.44,7.87-1.27c2.17-.35,4.46-.77,6.88-1.27,2.42-.49,4.54-.95,6.37-1.37-.4,7.17-1.53,13.45-3.38,18.83-1.85,5.38-4.15,9.83-6.88,13.35-2.74,3.52-5.6,6.16-8.59,7.91-2.99,1.76-5.86,2.64-8.59,2.64Z"/>
      <path class="cls-9" d="M794.24,668.32c-1.71,0-3.45-.46-5.21-1.37-1.77-.91-3.25-2.32-4.45-4.22-1.2-1.9-1.79-4.33-1.79-7.28v-.84c0-.35.03-.63.08-.84.17-1.83.41-4.22.73-7.17.31-2.95.7-6.17,1.15-9.65.46-3.48.92-6.95,1.41-10.39.48-3.45.93-6.58,1.33-9.39.85-5.63,1.54-10.16,2.05-13.61.51-3.45.93-6.1,1.24-7.97.31-1.86.56-3.25.73-4.17.63-.07,1.3-.16,2.01-.26.71-.11,1.47-.19,2.27-.26.8-.14,1.58-.25,2.35-.32.77-.07,1.52-.14,2.26-.21l5.22-.63c-.74,4.29-1.44,8.35-2.09,12.19-.66,3.83-1.27,7.47-1.84,10.92l-3.93,23.32c-.34,1.76-.6,3.24-.77,4.43-.23,1.13-.47,2.55-.73,4.27-.26,1.72-.38,3.29-.38,4.7,0,1.13.23,2.06.68,2.8.46.74,1.03,1.11,1.71,1.11.97,0,1.77-.46,2.39-1.37.63-.91,1.14-2.04,1.54-3.38.4-1.33.71-2.69.94-4.06.23-1.37.43-2.48.6-3.32.57-3.23,1.1-6.38,1.58-9.44s1-6.31,1.54-9.76c.54-3.45,1.15-7.42,1.84-11.92.46-3.09.93-6.24,1.41-9.44.48-3.2.95-6.45,1.41-9.76l13-1.05c-1.03,6.75-2.02,13.54-2.99,20.36-.4,2.6-.84,5.52-1.33,8.76-.48,3.24-1.01,6.51-1.58,9.81-.57,3.31-1.1,6.44-1.58,9.39-.48,2.95-.93,5.49-1.33,7.6-1.14,5.77-2.91,10.29-5.3,13.56-2.39,3.27-5.03,5.58-7.91,6.91s-5.63,2-8.25,2Z"/>
      <path class="cls-9" d="M816.38,666.32c.8-4.08,1.59-8.7,2.39-13.87.8-5.17,1.59-10.53,2.39-16.09.8-5.56,1.54-10.9,2.22-16.04.63-4.5,1.24-9.07,1.84-13.72s1.18-9.32,1.75-14.03l13.34-2.64-3.85,27.75c-.85,6.54-1.61,12.42-2.27,17.62-.66,5.21-1.28,10.13-1.88,14.77s-1.21,9.39-1.84,14.24c-1.08,0-2.39.09-3.93.26-1.54.18-3.08.39-4.62.63-1.54.25-2.84.47-3.89.69-1.06.21-1.61.35-1.67.42Z"/>
      <path class="cls-9" d="M833.57,666.53l4.45-27.43c.68-5.06,1.42-10.27,2.22-15.62.8-5.34,1.55-10.62,2.27-15.83.71-5.2,1.27-10.09,1.67-14.67,3.25-1.27,6.75-2.2,10.52-2.8,3.76-.6,7.49-.9,11.2-.9,4.33,0,7.28,1.16,8.85,3.48,1.57,2.32,2.35,5.45,2.35,9.39,0,3.59-.68,7.19-2.05,10.81-1.37,3.62-3.15,6.89-5.34,9.81-2.2,2.92-4.6,5.22-7.22,6.91,1.03,2.81,2.12,5.89,3.29,9.23,1.17,3.34,2.27,6.52,3.29,9.55.57,1.76,1.15,3.52,1.75,5.28.6,1.76,1.18,3.52,1.75,5.28l-13.25,5.7-3.08-12.66c-.85-3.52-1.64-6.91-2.35-10.18s-1.13-5.57-1.24-6.91l-1.11.42c-.17,1.13-.36,2.34-.56,3.64-.2,1.3-.41,2.73-.64,4.27-.23,1.55-.46,3.04-.68,4.48-.23,1.44-.46,2.87-.68,4.27l-1.54,10.02-13.85,4.43ZM853.66,620.74c1.03-.14,2.29-.69,3.8-1.64,1.51-.95,3.02-2.13,4.53-3.53,1.51-1.41,2.78-2.85,3.8-4.33,1.03-1.48,1.54-2.78,1.54-3.9,0-1.41-.67-2.34-2.01-2.8-1.34-.46-3.09-.69-5.26-.69h-1.88c-.34.07-.66.11-.94.11h-.86l-2.74,16.78Z"/>
    </g>
    <g>
      <path class="cls-9" d="M871.27,293.43c1.71-9.5,3.33-18.78,4.87-27.85.63-3.66,1.27-7.58,1.92-11.76.66-4.18,1.33-8.42,2.01-12.71.68-4.29,1.31-8.35,1.88-12.19.57-3.83,1.03-7.19,1.37-10.08,2.28-.84,4.75-1.62,7.4-2.32s5.03-1.06,7.14-1.06c3.42,0,6.13.9,8.12,2.69,1.99,1.79,3.42,4.2,4.28,7.23.85,3.03,1.28,6.33,1.28,9.92,0,3.94-.58,7.72-1.75,11.34-1.17,3.62-2.74,6.88-4.7,9.76-1.97,2.89-4.22,5.17-6.75,6.86-2.54,1.69-5.17,2.53-7.91,2.53h-.94c-.46,2.39-.88,5-1.28,7.81-.4,2.81-.74,5.42-1.03,7.81-.23,1.41-.43,2.81-.6,4.22-.17,1.41-.34,2.81-.51,4.22l-14.79,3.59ZM891.19,254.71c1.31-.42,2.62-1.49,3.93-3.22,1.31-1.72,2.39-3.92,3.25-6.59.85-2.67,1.28-5.59,1.28-8.76,0-2.6-.47-4.57-1.41-5.91-.94-1.34-1.98-2-3.12-2-.63,4.64-1.25,9.04-1.88,13.19-.63,4.15-1.31,8.58-2.05,13.29Z"/>
      <path class="cls-9" d="M926.08,293.11c.11-1.2.23-2.36.34-3.48.11-1.12.23-2.25.34-3.38l.51-5.91c.06-.98.11-1.9.17-2.74.06-.84.11-1.62.17-2.32h-7.44l-3.42,15.19c-1.25.21-2.74.44-4.45.69-1.71.25-3.31.47-4.79.69-.91.14-1.81.28-2.69.42-.88.14-1.78.28-2.69.42l6.75-27.64c.8-3.31,1.71-7.07,2.74-11.29,1.03-4.22,2.07-8.55,3.12-12.98,1.05-4.43,2.05-8.6,2.99-12.5.94-3.9,1.7-7.19,2.27-9.87,3.88-.35,7.82-.77,11.84-1.27,4.02-.49,7.94-1.16,11.76-2-.29,3.94-.56,8.39-.81,13.35-.26,4.96-.49,10.08-.68,15.35-.2,5.28-.41,10.48-.64,15.61-.12,4.85-.26,9.87-.43,15.04s-.34,10.46-.51,15.88c-.86.14-1.71.28-2.57.42-.85.14-1.71.28-2.56.42-1.42.28-2.99.6-4.7.95-1.71.35-3.25.67-4.62.95ZM922.23,264.73c.34,0,.98-.03,1.92-.11.94-.07,1.84-.14,2.69-.21.86-.07,1.37-.11,1.54-.11,0-.91.11-2.78.34-5.59.23-2.81.46-5.77.68-8.86.11-1.83.24-3.71.38-5.64.14-1.93.3-3.92.47-5.96l.51-9.18-1.28.11-1.97,9.07-5.3,26.48Z"/>
      <path class="cls-9" d="M955.06,295.22c-1.71,0-3.45-.46-5.21-1.37-1.77-.91-3.25-2.32-4.45-4.22-1.2-1.9-1.79-4.33-1.79-7.28v-.84c0-.35.03-.63.08-.84.17-1.83.41-4.22.73-7.17.31-2.95.7-6.17,1.15-9.65.46-3.48.92-6.95,1.41-10.39.48-3.45.93-6.58,1.33-9.39.85-5.63,1.54-10.16,2.05-13.61.51-3.45.93-6.1,1.24-7.97.31-1.86.56-3.25.73-4.17.63-.07,1.3-.16,2.01-.26.71-.11,1.47-.19,2.27-.26.8-.14,1.58-.25,2.35-.32.77-.07,1.52-.14,2.26-.21l5.22-.63c-.74,4.29-1.44,8.35-2.09,12.19-.66,3.83-1.27,7.47-1.84,10.92l-3.93,23.32c-.34,1.76-.6,3.24-.77,4.43-.23,1.13-.47,2.55-.73,4.27-.26,1.72-.38,3.29-.38,4.7,0,1.13.23,2.06.68,2.8.46.74,1.03,1.11,1.71,1.11.97,0,1.77-.46,2.39-1.37.63-.91,1.14-2.04,1.54-3.38.4-1.33.71-2.69.94-4.06.23-1.37.43-2.48.6-3.32.57-3.23,1.1-6.38,1.58-9.44s1-6.31,1.54-9.76c.54-3.45,1.15-7.42,1.84-11.92.46-3.09.93-6.24,1.41-9.44.48-3.2.95-6.45,1.41-9.76l13-1.05c-1.03,6.75-2.02,13.54-2.99,20.36-.4,2.6-.84,5.52-1.33,8.76-.48,3.24-1.01,6.51-1.58,9.81-.57,3.31-1.1,6.44-1.58,9.39-.48,2.95-.93,5.49-1.33,7.6-1.14,5.77-2.91,10.29-5.3,13.56-2.39,3.27-5.03,5.58-7.91,6.91s-5.63,2-8.25,2Z"/>
      <path class="cls-9" d="M991.39,293.53c-2.28,0-4.56-.75-6.84-2.27-2.28-1.51-4.48-3.92-6.58-7.23l6.33-15.3c.63,1.34,1.55,2.6,2.78,3.8,1.23,1.2,2.52,2.15,3.89,2.85,1.37.7,2.54,1.06,3.5,1.06,1.48,0,2.89-.56,4.23-1.69,1.34-1.12,2.01-2.64,2.01-4.54,0-2.46-.91-4.71-2.74-6.75-1.82-2.04-3.88-4.04-6.16-6.01-2.22-1.97-4.26-4.2-6.11-6.7-1.85-2.5-2.78-5.36-2.78-8.6,0-3.66.86-7.05,2.57-10.18,1.71-3.13,3.93-5.87,6.67-8.23,2.74-2.36,5.66-4.18,8.76-5.49,3.11-1.3,6.06-1.95,8.85-1.95,1.99,0,3.85.41,5.56,1.21,1.71.81,3.08,2.13,4.1,3.96,1.03,1.83,1.54,4.29,1.54,7.39,0,.49-.01.99-.04,1.48-.03.49-.07.99-.13,1.48-.06.49-.13,1-.21,1.53-.09.53-.16,1.07-.21,1.63l-12.4,4.43c.11-.56.21-1.12.3-1.69.08-.56.13-1.12.13-1.69,0-2.11-.3-3.64-.9-4.59s-1.38-1.42-2.35-1.42c-.51,0-1.25.33-2.22,1-.97.67-1.84,1.58-2.61,2.74s-1.15,2.44-1.15,3.85c0,2.32.78,4.24,2.35,5.75,1.57,1.51,3.38,3.04,5.43,4.59.97.7,2.05,1.81,3.25,3.32,1.2,1.51,2.24,3.55,3.12,6.12.88,2.57,1.33,5.86,1.33,9.86,0,5.21-1.04,9.78-3.12,13.72-2.08,3.94-4.89,7.02-8.42,9.23-3.53,2.22-7.44,3.32-11.71,3.32Z"/>
      <path class="cls-9" d="M1035.68,293.11c.11-1.2.23-2.36.34-3.48.11-1.12.23-2.25.34-3.38l.51-5.91c.06-.98.11-1.9.17-2.74.06-.84.11-1.62.17-2.32h-7.44l-3.42,15.19c-1.25.21-2.74.44-4.45.69-1.71.25-3.31.47-4.79.69-.91.14-1.81.28-2.69.42-.88.14-1.78.28-2.69.42l6.75-27.64c.8-3.31,1.71-7.07,2.74-11.29,1.03-4.22,2.07-8.55,3.12-12.98,1.05-4.43,2.05-8.6,2.99-12.5.94-3.9,1.7-7.19,2.27-9.87,3.88-.35,7.82-.77,11.84-1.27,4.02-.49,7.94-1.16,11.76-2-.29,3.94-.56,8.39-.81,13.35-.26,4.96-.49,10.08-.68,15.35-.2,5.28-.41,10.48-.64,15.61-.12,4.85-.26,9.87-.43,15.04s-.34,10.46-.51,15.88c-.86.14-1.71.28-2.57.42-.85.14-1.71.28-2.56.42-1.42.28-2.99.6-4.7.95-1.71.35-3.25.67-4.62.95ZM1031.83,264.73c.34,0,.98-.03,1.92-.11.94-.07,1.84-.14,2.69-.21.86-.07,1.37-.11,1.54-.11,0-.91.11-2.78.34-5.59.23-2.81.46-5.77.68-8.86.11-1.83.24-3.71.38-5.64.14-1.93.3-3.92.47-5.96l.51-9.18-1.28.11-1.97,9.07-5.3,26.48Z"/>
    </g>
    <g>
      <path class="cls-9" d="M1107.17,676.28c3.72-13.99,7.27-27.61,10.66-40.87,1.44-5.43,2.92-11.22,4.44-17.38,1.52-6.16,3.05-12.34,4.57-18.56,1.52-6.21,2.96-12.19,4.31-17.93,1.35-5.74,2.49-10.86,3.43-15.35,4.65,0,9.05-.31,13.2-.94,2.11-.31,4.29-.63,6.54-.94,2.24-.31,4.55-.57,6.92-.78l-.76,7.67c-.17,1.46-.34,2.95-.51,4.46-.17,1.51-.34,3.05-.51,4.62-.17,1.57-.38,3.16-.63,4.78-.25,1.62-.47,3.26-.63,4.93-.34,3.24-.85,7.75-1.52,13.55-.68,5.79-1.48,12.08-2.41,18.87h1.65c2.45-7.93,4.48-14.54,6.09-19.81,1.61-5.27,2.92-9.58,3.93-12.92,1.44-4.91,3-9.87,4.7-14.88,1.69-5.01,3.09-8.87,4.19-11.59,2.03-.21,4.46-.55,7.3-1.02,2.83-.47,5.71-1.02,8.63-1.64,2.92-.63,5.43-1.15,7.55-1.57-1.19,8.77-2.26,17.62-3.24,26.54-.97,8.93-1.82,17.44-2.54,25.53-.72,8.09-1.33,15.37-1.84,21.84-.51,6.47-.97,12.87-1.4,19.18-.42,6.32-.85,12.55-1.27,18.71l-22.08,4.85c0-.21.13-2.56.38-7.05.25-4.49.68-10.07,1.27-16.76.59-6.68,1.18-13.02,1.78-19.03.59-6,1.18-10.93,1.78-14.8h-1.14c-2.12,7.94-4.67,16.6-7.68,26-3,9.4-5.94,19.79-8.82,31.16-2.96.11-5.5.24-7.61.39-2.12.16-4.57.34-7.36.55l4.06-58.1h-1.9c-.08,1.15-.47,3.37-1.14,6.66-.68,3.29-1.48,7.05-2.41,11.28-.93,4.23-1.9,8.43-2.92,12.61-3.81,16.39-5.84,25.06-6.09,26l-20.94,1.72Z"/>
      <path class="cls-9" d="M1214.01,677.33c1.71-9.5,3.33-18.78,4.87-27.85.63-3.66,1.27-7.58,1.92-11.76.66-4.18,1.33-8.42,2.01-12.71.68-4.29,1.31-8.35,1.88-12.19.57-3.83,1.03-7.19,1.37-10.08,2.28-.84,4.75-1.62,7.4-2.32,2.65-.7,5.03-1.05,7.14-1.05,3.42,0,6.13.9,8.12,2.69s3.42,4.2,4.28,7.23c.85,3.03,1.28,6.33,1.28,9.92,0,3.94-.58,7.72-1.75,11.34-1.17,3.62-2.74,6.88-4.7,9.76-1.97,2.88-4.22,5.17-6.75,6.86-2.54,1.69-5.17,2.53-7.91,2.53h-.94c-.46,2.39-.88,5-1.28,7.81-.4,2.81-.74,5.42-1.03,7.81-.23,1.41-.43,2.81-.6,4.22-.17,1.41-.34,2.81-.51,4.22l-14.79,3.59ZM1233.93,638.6c1.31-.42,2.62-1.49,3.93-3.22,1.31-1.72,2.39-3.92,3.25-6.59.86-2.67,1.28-5.59,1.28-8.76,0-2.6-.47-4.57-1.41-5.91-.94-1.34-1.98-2-3.12-2-.63,4.64-1.25,9.04-1.88,13.19-.63,4.15-1.31,8.58-2.05,13.29Z"/>
      <path class="cls-9" d="M1268.81,677.01c.11-1.2.23-2.36.34-3.48.11-1.12.23-2.25.34-3.38l.51-5.91c.06-.98.11-1.9.17-2.74.06-.84.11-1.62.17-2.32h-7.44l-3.42,15.19c-1.25.21-2.74.44-4.45.69-1.71.25-3.31.47-4.79.69-.91.14-1.81.28-2.69.42-.88.14-1.78.28-2.69.42l6.75-27.64c.8-3.31,1.71-7.07,2.74-11.29,1.03-4.22,2.07-8.55,3.12-12.98,1.05-4.43,2.05-8.6,2.99-12.5s1.7-7.19,2.27-9.87c3.88-.35,7.82-.77,11.84-1.27s7.94-1.16,11.76-2c-.29,3.94-.56,8.39-.81,13.35s-.49,10.08-.68,15.35c-.2,5.28-.41,10.48-.64,15.62-.12,4.85-.26,9.87-.43,15.04-.17,5.17-.34,10.46-.51,15.88-.86.14-1.71.28-2.57.42-.85.14-1.71.28-2.56.42-1.43.28-2.99.6-4.7.95-1.71.35-3.25.67-4.62.95ZM1264.97,648.63c.34,0,.98-.04,1.92-.11.94-.07,1.84-.14,2.69-.21.86-.07,1.37-.11,1.54-.11,0-.91.11-2.78.34-5.59.23-2.81.46-5.77.68-8.86.11-1.83.24-3.71.38-5.65.14-1.93.3-3.92.47-5.96l.51-9.18-1.28.11-1.97,9.07-5.3,26.48Z"/>
      <path class="cls-9" d="M1284.03,677.33l4.45-27.43c.68-5.06,1.42-10.27,2.22-15.62.8-5.34,1.55-10.62,2.27-15.83.71-5.2,1.27-10.09,1.67-14.67,3.25-1.27,6.75-2.2,10.52-2.8,3.76-.6,7.49-.9,11.2-.9,4.33,0,7.28,1.16,8.85,3.48,1.57,2.32,2.35,5.45,2.35,9.39,0,3.59-.68,7.19-2.05,10.82-1.37,3.62-3.15,6.89-5.34,9.81-2.2,2.92-4.6,5.22-7.22,6.91,1.03,2.81,2.12,5.89,3.29,9.23,1.17,3.34,2.27,6.53,3.29,9.55.57,1.76,1.15,3.52,1.75,5.28.6,1.76,1.18,3.52,1.75,5.28l-13.25,5.7-3.08-12.66c-.86-3.52-1.64-6.91-2.35-10.18-.71-3.27-1.13-5.57-1.24-6.91l-1.11.42c-.17,1.13-.36,2.34-.56,3.64-.2,1.3-.41,2.73-.64,4.27-.23,1.55-.46,3.04-.68,4.48-.23,1.44-.46,2.87-.68,4.27l-1.54,10.02-13.85,4.43ZM1304.12,631.53c1.03-.14,2.29-.69,3.8-1.64,1.51-.95,3.02-2.13,4.53-3.53,1.51-1.41,2.78-2.85,3.8-4.33,1.03-1.48,1.54-2.78,1.54-3.9,0-1.41-.67-2.34-2.01-2.8-1.34-.46-3.09-.69-5.26-.69h-1.88c-.34.07-.66.11-.94.11h-.85l-2.74,16.78Z"/>
      <path class="cls-9" d="M1343.79,677.01c.11-1.2.23-2.36.34-3.48.11-1.12.23-2.25.34-3.38l.51-5.91c.06-.98.11-1.9.17-2.74.06-.84.11-1.62.17-2.32h-7.44l-3.42,15.19c-1.25.21-2.74.44-4.45.69-1.71.25-3.31.47-4.79.69-.91.14-1.81.28-2.69.42-.88.14-1.78.28-2.69.42l6.75-27.64c.8-3.31,1.71-7.07,2.74-11.29,1.03-4.22,2.07-8.55,3.12-12.98,1.05-4.43,2.05-8.6,2.99-12.5s1.7-7.19,2.27-9.87c3.88-.35,7.82-.77,11.84-1.27s7.94-1.16,11.76-2c-.29,3.94-.56,8.39-.81,13.35s-.49,10.08-.68,15.35c-.2,5.28-.41,10.48-.64,15.62-.12,4.85-.26,9.87-.43,15.04-.17,5.17-.34,10.46-.51,15.88-.86.14-1.71.28-2.57.42-.85.14-1.71.28-2.56.42-1.43.28-2.99.6-4.7.95-1.71.35-3.25.67-4.62.95ZM1339.95,648.63c.34,0,.98-.04,1.92-.11.94-.07,1.84-.14,2.69-.21.86-.07,1.37-.11,1.54-.11,0-.91.11-2.78.34-5.59.23-2.81.46-5.77.68-8.86.11-1.83.24-3.71.38-5.65.14-1.93.3-3.92.47-5.96l.51-9.18-1.28.11-1.97,9.07-5.3,26.48Z"/>
      <path class="cls-9" d="M1389.96,677.43c-2.28,0-4.56-.75-6.84-2.27-2.28-1.51-4.48-3.92-6.58-7.23l6.33-15.3c.63,1.34,1.55,2.6,2.78,3.8,1.22,1.2,2.52,2.15,3.89,2.85,1.37.7,2.54,1.05,3.51,1.05,1.48,0,2.89-.56,4.23-1.69,1.34-1.12,2.01-2.64,2.01-4.54,0-2.46-.91-4.71-2.74-6.75-1.82-2.04-3.88-4.04-6.16-6.01-2.22-1.97-4.26-4.2-6.11-6.7-1.85-2.5-2.78-5.36-2.78-8.6,0-3.66.85-7.05,2.56-10.18,1.71-3.13,3.93-5.87,6.67-8.23,2.74-2.36,5.66-4.18,8.76-5.49,3.11-1.3,6.06-1.95,8.85-1.95,1.99,0,3.85.41,5.56,1.21,1.71.81,3.08,2.13,4.1,3.96,1.03,1.83,1.54,4.29,1.54,7.39,0,.49-.01.99-.04,1.48-.03.49-.07.99-.13,1.48-.06.49-.13,1-.21,1.53-.09.53-.16,1.07-.21,1.64l-12.4,4.43c.11-.56.21-1.12.3-1.69.08-.56.13-1.12.13-1.69,0-2.11-.3-3.64-.9-4.59-.6-.95-1.38-1.42-2.35-1.42-.51,0-1.25.33-2.22,1-.97.67-1.84,1.58-2.61,2.74-.77,1.16-1.15,2.45-1.15,3.85,0,2.32.78,4.24,2.35,5.75,1.57,1.51,3.38,3.04,5.43,4.59.97.7,2.05,1.81,3.25,3.32,1.2,1.51,2.24,3.55,3.12,6.12.88,2.57,1.33,5.86,1.33,9.87,0,5.21-1.04,9.78-3.12,13.72-2.08,3.94-4.89,7.02-8.42,9.23-3.54,2.22-7.44,3.32-11.71,3.32Z"/>
      <path class="cls-9" d="M1434.25,677.01c.11-1.2.23-2.36.34-3.48.11-1.12.23-2.25.34-3.38l.51-5.91c.06-.98.11-1.9.17-2.74.06-.84.11-1.62.17-2.32h-7.44l-3.42,15.19c-1.25.21-2.74.44-4.45.69-1.71.25-3.31.47-4.79.69-.91.14-1.81.28-2.69.42-.88.14-1.78.28-2.69.42l6.75-27.64c.8-3.31,1.71-7.07,2.74-11.29,1.03-4.22,2.07-8.55,3.12-12.98,1.05-4.43,2.05-8.6,2.99-12.5s1.7-7.19,2.27-9.87c3.88-.35,7.82-.77,11.84-1.27s7.94-1.16,11.76-2c-.29,3.94-.56,8.39-.81,13.35s-.49,10.08-.68,15.35c-.2,5.28-.41,10.48-.64,15.62-.12,4.85-.26,9.87-.43,15.04-.17,5.17-.34,10.46-.51,15.88-.86.14-1.71.28-2.57.42-.85.14-1.71.28-2.56.42-1.43.28-2.99.6-4.7.95-1.71.35-3.25.67-4.62.95ZM1430.4,648.63c.34,0,.98-.04,1.92-.11.94-.07,1.84-.14,2.69-.21.86-.07,1.37-.11,1.54-.11,0-.91.11-2.78.34-5.59.23-2.81.46-5.77.68-8.86.11-1.83.24-3.71.38-5.65.14-1.93.3-3.92.47-5.96l.51-9.18-1.28.11-1.97,9.07-5.3,26.48Z"/>
      <path class="cls-9" d="M1450.15,677.43c.63-5.56,1.3-11.15,2.01-16.78.71-5.63,1.45-11.06,2.22-16.3.77-5.24,1.5-9.97,2.18-14.19.74-4.57,1.48-9.21,2.22-13.93.74-4.71,1.51-9.46,2.31-14.24l14.96-2.43-4.45,23.84c-.8,4.15-1.61,8.6-2.44,13.35-.83,4.75-1.58,9.34-2.27,13.77-.68,4.43-1.23,8.37-1.62,11.82,1.42-.14,2.95-.23,4.57-.26,1.62-.04,3.06-.05,4.32-.05.06,1.62.17,3.32.34,5.12s.36,3.34.56,4.64c.2,1.3.3,2.02.3,2.16h-.64c-.2,0-.41-.04-.64-.11h-1.37c-2.22,0-4.69.12-7.4.37-2.71.25-5.39.63-8.04,1.16s-5.03,1.21-7.14,2.06Z"/>
      <path class="cls-9" d="M1475.37,677.11c.8-4.08,1.59-8.71,2.39-13.88.8-5.17,1.59-10.53,2.39-16.09.8-5.56,1.54-10.9,2.22-16.04.63-4.5,1.24-9.07,1.84-13.72s1.18-9.32,1.75-14.03l13.34-2.64-3.85,27.75c-.86,6.54-1.61,12.42-2.27,17.62-.66,5.21-1.28,10.13-1.88,14.77-.6,4.64-1.21,9.39-1.84,14.24-1.08,0-2.39.09-3.93.26-1.54.18-3.08.39-4.62.63-1.54.25-2.84.47-3.89.69-1.06.21-1.61.35-1.67.42Z"/>
      <path class="cls-9" d="M1492.55,677.33l4.45-27.43c.68-5.06,1.42-10.27,2.22-15.62.8-5.34,1.55-10.62,2.27-15.83.71-5.2,1.27-10.09,1.67-14.67,3.25-1.27,6.75-2.2,10.52-2.8,3.76-.6,7.49-.9,11.2-.9,4.33,0,7.28,1.16,8.85,3.48,1.57,2.32,2.35,5.45,2.35,9.39,0,3.59-.68,7.19-2.05,10.82-1.37,3.62-3.15,6.89-5.34,9.81-2.2,2.92-4.6,5.22-7.22,6.91,1.03,2.81,2.12,5.89,3.29,9.23,1.17,3.34,2.27,6.53,3.29,9.55.57,1.76,1.15,3.52,1.75,5.28.6,1.76,1.18,3.52,1.75,5.28l-13.25,5.7-3.08-12.66c-.86-3.52-1.64-6.91-2.35-10.18-.71-3.27-1.13-5.57-1.24-6.91l-1.11.42c-.17,1.13-.36,2.34-.56,3.64-.2,1.3-.41,2.73-.64,4.27-.23,1.55-.46,3.04-.68,4.48-.23,1.44-.46,2.87-.68,4.27l-1.54,10.02-13.85,4.43ZM1512.65,631.53c1.03-.14,2.29-.69,3.8-1.64,1.51-.95,3.02-2.13,4.53-3.53,1.51-1.41,2.78-2.85,3.8-4.33,1.03-1.48,1.54-2.78,1.54-3.9,0-1.41-.67-2.34-2.01-2.8-1.34-.46-3.09-.69-5.26-.69h-1.88c-.34.07-.66.11-.94.11h-.85l-2.74,16.78Z"/>
    </g>
  </g>
</svg>