<svg xmlns="http://www.w3.org/2000/svg" xmlns:xlink="http://www.w3.org/1999/xlink" viewBox="0 0 1921 1081"><defs><style>.cls-1{isolation:isolate;}.cls-2{fill:url(#Degradado_sin_nombre_4);}.cls-3{fill:url(#Degradado_sin_nombre_6);}.cls-4{fill:#def2ff;}.cls-5{fill:#fee4bd;}.cls-6{fill:#fbd5a2;}.cls-7{fill:#cafbfc;}.cls-8{fill:#d75f16;}.cls-9{fill:#3c8e18;}.cls-10{fill:#67c338;}.cls-11{fill:#774928;}.cls-12{fill:#b82211;}.cls-13{fill:#e6e1e3;}.cls-14{fill:#54d841;}.cls-15{fill:#d61827;}.cls-16,.cls-17{fill:#2848a0;}.cls-17{opacity:0.19;mix-blend-mode:multiply;}.cls-18{fill:#eabc86;}.cls-19{fill:#f32937;}.cls-20{fill:#c10e41;}.cls-21{fill:#e58893;}.cls-22{fill:#cd6772;}.cls-23{fill:#6976c4;}.cls-24{fill:#2f4089;}.cls-25{fill:#abcb16;}.cls-26{fill:#73af14;}.cls-27{fill:#eb4d0b;}.cls-28{fill:#ba370f;}.cls-29{fill:#ffbc26;}</style><linearGradient id="Degradado_sin_nombre_4" x1="960.5" y1="1080" x2="960.5" gradientUnits="userSpaceOnUse"><stop offset="0" stop-color="#d1fdfe"/><stop offset="1" stop-color="#5dddef"/></linearGradient><linearGradient id="Degradado_sin_nombre_6" y1="770" x2="1921" y2="770" gradientUnits="userSpaceOnUse"><stop offset="0" stop-color="#2ef7f0"/><stop offset="1" stop-color="#13cbde"/></linearGradient></defs><title>playa</title><g class="cls-1"><g id="Capa_2" data-name="Capa 2"><g id="Capa_3" data-name="Capa 3"><rect class="cls-2" x="1" width="1919" height="1080"/><rect class="cls-3" y="626" width="1921" height="288"/><path class="cls-4" d="M1605.17,625.61c-86.27-1.15-155.23,2-204.17,5.39-4.75.33-27.83,2.55-74,7-106.85,10.29-134.64,13.75-138,27-4.9,19.3,46.74,41.13,41.17,56.26-3.06,8.31-23.67,11.87-81.17,5.74-150-16-191.91-7.62-136,5,62,14,46,31-17,38-107.8,12-143-30-153-12s-20,29-109-4S262,641,265,695s23,56-45,55-81-18-69,13-30,16-79,7-72,5.55-72,5.55v48H1743Z"/><path class="cls-5" d="M1920.38,622.07v455H1.38V781.86s262,37.81,268-42.69,273-48.79,382,11,664,12.2,584.39-59.77c-41.61-37.61,147.27-54.57,337.08-62.18C1746.23,621.24,1920.38,622.07,1920.38,622.07Z"/><path class="cls-6" d="M1602.48,638.71s-216.74,1.21-284.09,22.07-35,15.71-53.89,37.29,37.27,1.4-10.22,41.18-304.85,44.47-409,51.85S727.3,789.85,508,733s-202.54,22-202.54,22C212.18,861.29,77.07,825.29,1.38,792.18V781.86s262,37.81,268-42.69,273-48.79,382,11,664,12.2,584.39-59.77c-41.61-37.61,147.27-54.57,337.08-62.18Z"/><path class="cls-4" d="M130.23,713.94s146.38,68.15,129.83-9.9C260.06,704,235.54,741.43,130.23,713.94Z"/><path class="cls-7" d="M865.94,277c0-6.65-26-12.61-67.13-16.67,18.15-3.12,28.71-6.83,28.71-10.82,0-10.12-67.73-18.47-155.37-19.72a15.48,15.48,0,0,0,1-5.46c0-28.9-84.08-52.33-187.81-52.33s-187.8,23.43-187.8,52.33a15.57,15.57,0,0,0,1,5.4c-73.68,1.16-131.49,12.39-131.49,26.07,0,11.09,38,20.56,91.58,24.37a15.27,15.27,0,0,0-.16,2.13c0,25.79,66.43,46.7,148.38,46.7a418.25,418.25,0,0,0,75.67-6.52c23.29,4.08,52.83,6.52,85,6.52,75.18,0,136.13-13.35,136.13-29.81,0-.12,0-.23,0-.35C795.91,297,865.94,287.91,865.94,277Z"/><path class="cls-6" d="M1920,696.4S1372,605,1461,715s285,153,23,150-55,16-64,64-790-17-843,6-53,60,9,89S60,970,39,1007s-39,37.15-39,37.15L1,1081H1920Z"/><path class="cls-7" d="M1738.87,144.05c10.86-7.3,16.94-15.47,16.94-24.09,0-27.1-60-49.7-139.61-54.83-21.87-15.27-78-26.13-143.93-26.13-84.88,0-153.7,18-153.7,40.28,0,10.41,15.07,19.9,39.81,27.05-61.51,4.72-106.29,19.19-106.29,36.31,0,21,67.06,37.93,149.79,37.93,10.49,0,20.74-.27,30.62-.79,35.09,10.09,120.92,17.22,221.24,17.22,131.54,0,238.17-12.26,238.17-27.38C1891.91,158,1828.36,148,1738.87,144.05Z"/><path class="cls-7" d="M1443,498.65q-8.07,0-16,.08c-1.13-23.64-98.5-42.73-218.47-42.73C1087.83,456,990,475.32,990,499.15c0,3.23,1.82,6.38,5.23,9.41C900.73,512,831,523.77,831,537.83c0,16.71,98.5,30.25,220,30.25,67.44,0,127.78-4.17,168.14-10.74C1262.42,569.65,1346.44,578,1443,578c140.83,0,255-17.76,255-39.67S1583.83,498.65,1443,498.65Z"/><path class="cls-8" d="M1627.4,482.23A359.34,359.34,0,0,1,1728,609c39.89,84.31,35.71,161.51,31.88,195l33.12-7c-4.07-80.31-25.65-155.35-42-192-4.07-9.11-49.25-108-118.87-146.43-6.08-3.35-26.13-14.41-29.24-10.48S1614.8,469,1627.4,482.23Z"/><path class="cls-9" d="M1609.36,449s20.69-28.37,7.65-48.26a51.06,51.06,0,0,0-4.43,11.29s1.07-20.44-8.48-33.74c0,0,3.5,6.58-3.62,20.3,0,0,3.89-25.41-27.3-41.13,0,0,6.72,18.28,6.32,25.94,0,0-21.92-46-59.42-39,0,0,16,12.36,24.6,19.22,0,0-35.49-31.32-77.29-15.58C1467.39,348.06,1587.71,397.91,1609.36,449Z"/><path class="cls-10" d="M1609.11,448.43s-37.53-11.67-51-23.9c0,0,8.73,4.3,16.53,2.15,0,0-36.3-16-44.9-22.85,0,0,19,4.84,25.54,1.34,0,0-51.62-16.79-58.88-24.86,0,0,14.11-.54,21.77-.13,0,0-26.48-7.8-31.32-13.17,0,0,14.79-.85,17.07-1.84,0,0-21.93-11-35.75-16.77C1467.39,348.06,1588.29,376.36,1609.11,448.43Z"/><path class="cls-9" d="M1615,452.28s-30.48-17.43-48.81-2.26a51.58,51.58,0,0,0,11.72,3.16s-20.43,1.2-32.59,12.16c0,0,6.15-4.21,20.57,1.35,0,0-25.68-1.05-37.85,31.69,0,0,17.42-8.71,25.08-9.16,0,0-43.25,26.88-32.14,63.38,0,0,10.51-17.28,16.37-26.59,0,0-27.19,38.75-6.92,78.55C1530.43,604.56,1566.64,479.46,1615,452.28Z"/><path class="cls-10" d="M1614.48,452.58s-7.44,38.6-18.1,53.31c0,0,3.3-9.16.3-16.67,0,0-11.87,37.85-17.73,47.16,0,0,2.71-19.37-1.5-25.53,0,0-11,53.16-18.18,61.27,0,0-2.1-14-2.55-21.62,0,0-4.81,27.18-9.61,32.59,0,0-2.48-14.61-3.72-16.77,0,0-8.47,23-12.71,37.39C1530.43,604.56,1545.16,481.27,1614.48,452.58Z"/><path class="cls-9" d="M1608.33,446.74s-10.86-33.39,7.71-48.25a51,51,0,0,1,.71,12.11s5.33-19.76,18.53-29.44c0,0-5.37,5.18-2.85,20.42,0,0,4.18-25.36,38.71-30.62,0,0-12.06,15.29-14.06,22.7,0,0,35.11-36.89,68.59-18.6,0,0-19.05,6.79-29.36,10.63,0,0,43.46-18.75,78.32,9.19C1774.63,394.88,1644.77,404.91,1608.33,446.74Z"/><path class="cls-10" d="M1608.74,446.29s39.3.56,55.88-6.89c0,0-9.65,1.37-16.39-3.1,0,0,39.47-3.93,49.78-7.77,0,0-19.52-1.29-24.7-6.66,0,0,54.29.07,63.69-5.34,0,0-13.25-4.9-20.65-6.9,0,0,27.59.82,33.86-2.79,0,0-13.8-5.39-15.66-7,0,0,24.26-3.62,39.19-4.85C1774.63,394.88,1650.91,384.25,1608.74,446.29Z"/><path class="cls-9" d="M1609.15,448.28s30.49-17.43,48.81-2.26a51.39,51.39,0,0,1-11.71,3.16s20.42,1.2,32.59,12.16c0,0-6.16-4.21-20.57,1.35,0,0,25.68-1.05,37.85,31.69,0,0-17.43-8.71-25.09-9.16,0,0,43.26,26.88,32.15,63.38,0,0-10.52-17.28-16.37-26.59,0,0,27.18,38.75,6.91,78.55C1693.72,600.56,1657.52,475.46,1609.15,448.28Z"/><path class="cls-10" d="M1609.68,448.58s7.44,38.6,18.1,53.31c0,0-3.3-9.16-.3-16.67,0,0,11.87,37.85,17.73,47.16,0,0-2.71-19.37,1.49-25.53,0,0,11,53.16,18.18,61.27,0,0,2.1-14,2.55-21.62,0,0,4.81,27.18,9.62,32.59,0,0,2.48-14.61,3.72-16.77,0,0,8.46,23,12.7,37.39C1693.72,600.56,1679,477.27,1609.68,448.58Z"/><path class="cls-8" d="M325.25,532.29C302.48,557.36,254.13,617.48,237,709c-21.6,115.44,20.53,205.7,35.2,234l-53.69-13.28C202.59,885.41,185.39,815.88,196,733c13.72-107.19,67.7-187.71,113.39-226.11,6.72-5.64,30.83-25.9,36.1-21.41C350.42,489.69,336.75,513.78,325.25,532.29Z"/><path class="cls-9" d="M336.68,488.41s-39.53-25.48-29.63-52.48a63.9,63.9,0,0,1,10.54,11.4s-9.58-22.94-1.83-41.27c0,0-2.16,8.66,13,21.93,0,0-15.42-27.67,20.92-55.94,0,0-1.91,23.07,1.68,31.67,0,0,11.66-59.67,65.65-64.14,0,0-16.93,19.4-26,30.07,0,0,36-47.47,99.36-43.4C490.43,326.25,346,423,336.68,488.41Z"/><path class="cls-10" d="M336.79,487.69s46.61-25.75,60.11-44.16c0,0-10.23,7.81-21.73,7.94,0,0,43.21-30.27,52.24-40.94,0,0-24,11.8-34.34,10,0,0,63.81-36.27,70.52-47.87,0,0-19.49,4.06-29.79,7.06,0,0,33.06-17.67,37.54-25.4,0,0-20.53,3.94-24,3.57,0,0,25.59-19.78,42.15-31C490.43,326.25,336.59,398.62,336.79,487.69Z"/><path class="cls-9" d="M330.27,494s34.71-30,65.76-18.77a76.38,76.38,0,0,1-14.75,7.48s28.37-5.41,49.34,3.06c0,0-10.08-2.76-27.56,8.36,0,0,34.65-9.72,64.27,23.57,0,0-27.25-4.15-37.88-2.12,0,0,69.74,16.29,69.07,61.59,0,0-21.22-16.2-32.92-24.88,0,0,52.52,35.16,40.65,87.26C506.25,639.59,407.11,509,330.27,494Z"/><path class="cls-10" d="M331.12,494.21S356.6,535.74,377,549c0,0-8.15-9.35-7-18.91,0,0,31.24,39.21,42.94,47.88,0,0-11.39-21.19-8.1-29.6,0,0,36.1,57,49.17,63.82,0,0-2.68-16.62-5.11-25.5,0,0,17.37,29.4,26.08,34,0,0-2.42-17.47-1.59-20.35,0,0,20.71,23.43,32.21,38.41C506.25,639.59,437.16,503.91,331.12,494.21Z"/><path class="cls-9" d="M337.18,485.51s1.57-41.67-29.69-52.45a52.13,52.13,0,0,0,3.84,14s-15.12-20.76-37-27.42c0,0,9.39,4.12,12,22.34,0,0-15.79-27.52-65-22.07,0,0,22.56,13.43,28.23,21.21,0,0-62.6-30.41-101,1.56,0,0,28.7,1.41,44.3,2.38,0,0-66.79-7-103.28,36.45C89.52,481.55,270.81,449.91,337.18,485.51Z"/><path class="cls-10" d="M336.45,485.13s-53.44,13.67-79,10.68c0,0,13.71-1.63,21.14-9,0,0-55.45,8.61-71.05,7.65,0,0,26.14-7.95,31.07-15.78,0,0-74.1,18.08-89.09,15,0,0,16.15-10,25.47-14.71,0,0-37.35,10.08-47.35,8,0,0,16.7-10.73,18.58-13.23,0,0-34.56,3.93-55.43,7.48C89.52,481.55,254.22,428.39,336.45,485.13Z"/><path class="cls-9" d="M336.68,487.53s-48.55-9.75-67.55,13.62a86.58,86.58,0,0,0,17.25-.29S259,509,246.71,525.54c0,0,6.74-6.84,28.63-5.28,0,0-35.48,7.32-39.09,48.68,0,0,20.33-15.71,30.61-18.76,0,0-48.38,45-18.71,82.91,0,0,7.49-23.18,11.79-35.73,0,0-21.73,53.19,21.77,91.84C281.71,689.2,281.44,534.56,336.68,487.53Z"/><path class="cls-10" d="M336.08,488.06s5.18,46.46-3.54,66.78c0,0,.88-11.54-6.21-19.11,0,0-1.17,47.08-5.47,59.64,0,0-4-23-12.19-28.61,0,0,6.15,64.25-.47,75.89,0,0-8.42-15.23-12.08-23.81,0,0,4.24,32.59-.18,40.34,0,0-9.18-15.82-11.73-17.88,0,0-2.42,29.06-2.5,46.85C281.71,689.2,252.83,543.75,336.08,488.06Z"/><path class="cls-11" d="M1635,719h11a0,0,0,0,1,0,0V872.5a5.5,5.5,0,0,1-5.5,5.5h0a5.5,5.5,0,0,1-5.5-5.5V719a0,0,0,0,1,0,0Z" transform="translate(302.66 -442.08) rotate(16.89)"/><path class="cls-12" d="M1743,783h0c-22-29-62-15-62-15-20-31-70-19-70-19-33-29-67-16-67-16,39.52-79,124-59.49,126-59h0l1.14.24,1.89.42c32.61,7.52,50.13,28.2,59.51,49.49C1745.25,753,1743,783,1743,783Z"/><path class="cls-13" d="M1681,768c-20-31-70-19-70-19,3-79,60.14-74.76,60.14-74.76C1716.27,705.48,1681,768,1681,768Z"/><path class="cls-13" d="M1670,674c-1.94-.21-76.61-8.1-126,59C1583.52,654,1668,673.51,1670,674Z"/><path class="cls-13" d="M1743,783h0c-.6-80.23-73-109-73-109l1.14.24,1.89.42c32.61,7.52,50.13,28.2,59.51,49.49C1745.25,753,1743,783,1743,783Z"/><polygon class="cls-12" points="1843 908.71 1828.68 911.22 1807.62 914.92 1788.11 918.34 1767 922.05 1743.87 926.11 1722.78 929.81 1700.61 933.7 1679.49 937.41 1655 941.71 1615 884.71 1637.83 882.1 1659.38 879.64 1682.95 876.94 1682.96 876.94 1704.5 874.48 1729.05 871.68 1750.65 869.21 1771.4 866.84 1771.41 866.84 1790 864.71 1798.76 871.99 1798.77 871.99 1843 908.71"/><polygon class="cls-13" points="1700.61 933.7 1679.49 937.41 1637.83 882.1 1659.38 879.64 1700.61 933.7"/><polygon class="cls-13" points="1743.87 926.11 1722.78 929.81 1682.96 876.94 1704.5 874.48 1743.87 926.11"/><polygon class="cls-13" points="1788.11 918.34 1767 922.05 1729.05 871.68 1750.65 869.21 1788.11 918.34"/><polygon class="cls-13" points="1828.68 911.22 1807.62 914.92 1767.24 867.32 1783.1 865.5 1828.68 911.22"/><path class="cls-4" d="M441.07,809.6a51.18,51.18,0,0,1-3.43,18.55A47.75,47.75,0,0,1,428.56,843a40.58,40.58,0,0,1-30.11,13.77,40,40,0,0,1-26.32-10h0c-9.92-8.63-16.3-22-16.3-37.08,0-1.58.07-3.15.21-4.69a50.51,50.51,0,0,1,1-6.57c3.77-17.05,15.93-30.45,31.36-34.57a38.82,38.82,0,0,1,18.21-.45c17.94,3.85,31.86,20.15,34.13,40.44A53.58,53.58,0,0,1,441.07,809.6Z"/><path class="cls-14" d="M428.56,843a40.58,40.58,0,0,1-30.11,13.77,40,40,0,0,1-26.32-10h0v0c-9.42-26.82,21.94-55.42,22.13-55.54h0C413.06,799.74,424.08,822.81,428.56,843Z"/><path class="cls-15" d="M394.24,791.11c-1.39,1.2-25.51,9.13-37.19,7.23,3.77-17.05,15.93-30.45,31.36-34.57A61.54,61.54,0,0,1,394.24,791.11Z"/><path class="cls-16" d="M440.75,803.76c-23.26-4-46.51-12.65-46.51-12.65s3.26-15.31,12.38-27.79C424.56,767.17,438.48,783.47,440.75,803.76Z"/><path class="cls-17" d="M437.64,828.15A47.75,47.75,0,0,1,428.56,843a40.58,40.58,0,0,1-30.11,13.77,40,40,0,0,1-26.32-10h0c-9.92-8.63-16.3-22-16.3-37.08,0-1.58.07-3.15.21-4.69,1.5,3.18,11.09,22.7,34.25,29.88C414.89,842.42,434.9,829.92,437.64,828.15Z"/><path class="cls-18" d="M1591.47,874.48s29.83-31.66,46.36,1.5"/><path class="cls-18" d="M1743.87,809.43s42.63-46.59,66.26,2.21"/><path class="cls-18" d="M200.16,946.91s49.71-69.33,77.27,3.28"/><path class="cls-19" d="M201.39,935.2c3.23,8.45-21.59,33.72-21.79,40.11a2.06,2.06,0,0,0,0,.42c1.15,7.12,34,30.82,31.11,35.37a1.41,1.41,0,0,1-.78.55c-5.5,1.86-33.13-11-42.54-7.4a4.53,4.53,0,0,0-2.68,2.34c-3.25,7.06-10.37,22.31-15.63,30.77-2.25,3.62-4.16,6-5.27,6a7,7,0,0,1-1-.11,3.92,3.92,0,0,1-2.83-2.14c-1.56-2.81-2.23-9.11-.87-23.19,2.22-23.21-8.77-19.3-8.77-19.3s-41.91,4.29-39.49-7.51a13.24,13.24,0,0,1,.59-2c3.69-9.54,18-8,33.92-14.68a9.35,9.35,0,0,0,2.35-1.39c11.56-9.44-14.59-41.38-3-49.27,14.17-9.69,25.59,26.28,34.67,31.15s37.14-28.05,41.78-20.2A3.47,3.47,0,0,1,201.39,935.2Z"/><path class="cls-20" d="M143.8,994.54c2.75,1.42-2.33,34.23-3.82,46.52-1.56-2.81-2.23-9.11-.87-23.19,2.22-23.21-8.77-19.3-8.77-19.3s-41.91,4.29-39.49-7.51a13.24,13.24,0,0,1,.59-2C107.36,990.07,141.19,993.19,143.8,994.54Z"/><path class="cls-20" d="M161.43,995.82l48.75,12.56s-.11,1.34-.21,3.27c-5.5,1.86-33.13-11-42.54-7.4Z"/><path class="cls-20" d="M201.39,935.2c3.23,8.45-21.59,33.72-21.79,40.11a2.06,2.06,0,0,0,0,.42c-4.32,0-8.71-.5-8-3C172.6,969.06,191.88,946.27,201.39,935.2Z"/><path class="cls-20" d="M139.85,969c10.09,13.9-12.13,4-12.13,4h0c11.56-9.44-14.59-41.38-3-49.27C124.68,923.7,129.77,955.09,139.85,969Z"/><path class="cls-19" d="M326.3,982c-2.52,5.92-27.68,6.58-30.93,9.76a1.11,1.11,0,0,0-.19.23c-2.93,4.2,2.18,32.54-1.55,33.43a1,1,0,0,1-.67-.11c-3.73-1.76-11.53-21.95-18.09-24.77a3.24,3.24,0,0,0-2.53-.12c-5.15,2-16.31,6.28-23.17,8-2.94.74-5.09,1-5.64.44a5.08,5.08,0,0,1-.47-.57,2.78,2.78,0,0,1-.39-2.48c.58-2.21,3.35-5.76,11-12.29,12.59-10.77,5-14.2,5-14.2s-23.54-18.48-16.49-23.32a10.19,10.19,0,0,1,1.3-.74c6.6-3.06,13.13,4.76,24.59,9.23A6.31,6.31,0,0,0,270,965c10.56.88,13-28.35,22.76-26.68,12,2,.11,26.07,2.35,33s32.83,4,31.33,10.29A2.83,2.83,0,0,1,326.3,982Z"/><path class="cls-20" d="M267.58,984c.7,2.08-18.09,16.35-24.91,21.9.58-2.21,3.35-5.76,11-12.29,12.59-10.77,5-14.2,5-14.2s-23.54-18.48-16.49-23.32a10.19,10.19,0,0,1,1.3-.74C251.15,963.69,266.91,982,267.58,984Z"/><path class="cls-20" d="M276,993.32l18.72,30.47s-.72.63-1.72,1.56c-3.73-1.76-11.53-21.95-18.09-24.77Z"/><path class="cls-20" d="M326.3,982c-2.52,5.92-27.68,6.58-30.93,9.76a1.11,1.11,0,0,0-.19.23c-2.23-2.11-4.21-4.55-2.6-5.51C294.87,985.14,316,983,326.3,982Z"/><path class="cls-20" d="M278.16,969c-1.7,12.08-8.16-4-8.16-4h0c10.56.88,13-28.35,22.76-26.68C292.76,938.31,279.87,956.87,278.16,969Z"/><path class="cls-21" d="M1349.83,742.8s5.28.57,7.07-6.65c0,0,3.24-.87,2.69-6.88a6,6,0,0,0,1.09-4.74h-.07a6.11,6.11,0,0,0-2.52-3.62c-1.47-5.86-4.81-5.61-4.81-5.61-4.08-6.22-8.87-3.94-8.87-3.94-6.91-5-13.79,4.81-17.37,11.3a.69.69,0,0,0-.5-.18l-3,.14a.77.77,0,0,0-.63,1l1.27,4.81a2.35,2.35,0,0,0,.14,2.32,2.78,2.78,0,0,0,.68,2.41v.07l.4,5a.77.77,0,0,0,.94.75l2.9-.87a.68.68,0,0,0,.43-.38C1335.15,742.76,1345,749.83,1349.83,742.8Z"/><path class="cls-22" d="M1346.84,711a5.48,5.48,0,0,0-2.43.4,4.81,4.81,0,0,0-.41-.27c-3.07,3.11-7.53,8.52-8.41,14.3C1335.59,725.4,1342.92,713.86,1346.84,711Z"/><path class="cls-22" d="M1358.09,720.92c-.08-.33-.17-.63-.26-.92-2.16.8-6.6,2.7-9.33,5.71,0,0,6.71-3.61,10.52-4A5.78,5.78,0,0,0,1358.09,720.92Z"/><path class="cls-22" d="M1353.48,715.32h-.2c-.28-.41-.55-.79-.83-1.13-2.26,2.19-7.57,7.62-8.44,11.08C1344,725.26,1349.49,718.27,1353.48,715.32Z"/><path class="cls-22" d="M1359.61,729.52a65.28,65.28,0,0,1-10.53-.43c2.53.9,8.27,2.68,10.53,2.53A12.22,12.22,0,0,0,1359.61,729.52Z"/><path class="cls-22" d="M1348.56,744.23a7.44,7.44,0,0,0,1.27-1.43,3.15,3.15,0,0,0,.6,0c-3.08-1.07-10.39-5-13.72-8.53C1338.92,737.16,1344.66,742.9,1348.56,744.23Z"/><path class="cls-22" d="M1356.9,736.15a2.44,2.44,0,0,0,.81-.44,72.07,72.07,0,0,1-12.65-4.31,81.72,81.72,0,0,0,11.42,6.13A11.27,11.27,0,0,0,1356.9,736.15Z"/><path class="cls-22" d="M1328,722.5s-3.86,6.69,1.3,7.62c0,0-5.48,1.91.6,7.11C1329.85,737.23,1320.48,733.33,1328,722.5Z"/><path class="cls-21" d="M152.6,847.48s5.28.57,7.07-6.65c0,0,3.24-.87,2.69-6.88a6,6,0,0,0,1.09-4.74h-.07a6.15,6.15,0,0,0-2.52-3.63c-1.47-5.85-4.81-5.6-4.81-5.6-4.07-6.23-8.87-3.94-8.87-3.94-6.91-5-13.79,4.81-17.37,11.3a.69.69,0,0,0-.5-.18l-3,.13a.77.77,0,0,0-.63,1l1.27,4.81a2.37,2.37,0,0,0,.14,2.33,2.79,2.79,0,0,0,.68,2.41v.06l.4,5.06a.77.77,0,0,0,.94.75l2.9-.87a.68.68,0,0,0,.43-.38C137.92,847.44,147.72,854.51,152.6,847.48Z"/><path class="cls-22" d="M149.61,815.65a5.48,5.48,0,0,0-2.43.4l-.41-.28c-3.07,3.12-7.53,8.53-8.41,14.31C138.36,830.08,145.69,818.54,149.61,815.65Z"/><path class="cls-22" d="M160.86,825.59c-.08-.32-.17-.62-.26-.91-2.16.79-6.6,2.7-9.33,5.71,0,0,6.71-3.61,10.52-4A6.27,6.27,0,0,0,160.86,825.59Z"/><path class="cls-22" d="M156.25,820h-.2a13.83,13.83,0,0,0-.83-1.13c-2.26,2.19-7.57,7.62-8.44,11.08C146.78,829.94,152.26,823,156.25,820Z"/><path class="cls-22" d="M162.38,834.2a65.28,65.28,0,0,1-10.53-.43c2.53.9,8.27,2.68,10.53,2.53A12.23,12.23,0,0,0,162.38,834.2Z"/><path class="cls-22" d="M151.33,848.91a7.44,7.44,0,0,0,1.27-1.43,4.85,4.85,0,0,0,.61,0c-3.09-1.07-10.4-5-13.73-8.53C141.69,841.84,147.43,847.58,151.33,848.91Z"/><path class="cls-22" d="M159.67,840.83a2.7,2.7,0,0,0,.81-.44,73.19,73.19,0,0,1-12.65-4.31,81.26,81.26,0,0,0,11.43,6.13A14.18,14.18,0,0,0,159.67,840.83Z"/><path class="cls-22" d="M130.72,827.18s-3.86,6.68,1.3,7.62c0,0-5.48,1.91.6,7.11C132.62,841.91,123.25,838,130.72,827.18Z"/><path class="cls-21" d="M1844.82,693.58s5.28.57,7.06-6.65c0,0,3.25-.88,2.7-6.88a6,6,0,0,0,1.09-4.74h-.07a6.15,6.15,0,0,0-2.53-3.63c-1.46-5.85-4.81-5.6-4.81-5.6-4.07-6.23-8.87-3.94-8.87-3.94-6.9-5-13.79,4.81-17.36,11.3a.71.71,0,0,0-.5-.19l-3,.14a.78.78,0,0,0-.64,1l1.27,4.81a2.37,2.37,0,0,0,.15,2.33A2.77,2.77,0,0,0,1820,684V684l.39,5.06a.78.78,0,0,0,.94.75l2.91-.87a.7.7,0,0,0,.43-.38C1830.13,693.54,1839.93,700.6,1844.82,693.58Z"/><path class="cls-22" d="M1841.83,661.74a5.59,5.59,0,0,0-2.44.41l-.4-.28c-3.08,3.11-7.54,8.53-8.41,14.31C1830.58,676.18,1837.91,664.63,1841.83,661.74Z"/><path class="cls-22" d="M1853.07,671.69c-.08-.32-.16-.63-.26-.92-2.15.8-6.6,2.71-9.32,5.72,0,0,6.71-3.62,10.51-4A5.73,5.73,0,0,0,1853.07,671.69Z"/><path class="cls-22" d="M1848.47,666.09h-.21c-.27-.42-.55-.79-.82-1.14-2.26,2.19-7.58,7.63-8.44,11.09C1839,676,1844.48,669.05,1848.47,666.09Z"/><path class="cls-22" d="M1854.6,680.3a67.78,67.78,0,0,1-10.54-.43c2.53.89,8.28,2.68,10.53,2.53A12.16,12.16,0,0,0,1854.6,680.3Z"/><path class="cls-22" d="M1843.55,695a8.13,8.13,0,0,0,1.27-1.43,4.65,4.65,0,0,0,.6,0c-3.09-1.07-10.4-5-13.72-8.54C1833.91,687.94,1839.64,693.68,1843.55,695Z"/><path class="cls-22" d="M1851.88,686.93a2.72,2.72,0,0,0,.82-.45,72.43,72.43,0,0,1-12.66-4.31,80.88,80.88,0,0,0,11.43,6.14C1851.62,687.88,1851.76,687.42,1851.88,686.93Z"/><path class="cls-22" d="M1822.94,673.27s-3.87,6.69,1.29,7.63c0,0-5.47,1.9.61,7.11C1824.84,688,1815.46,684.11,1822.94,673.27Z"/><path class="cls-21" d="M1533.37,1052.49s5.28.57,7.06-6.65c0,0,3.25-.88,2.7-6.88a6,6,0,0,0,1.09-4.74h-.07a6.15,6.15,0,0,0-2.53-3.63c-1.46-5.85-4.81-5.6-4.81-5.6-4.07-6.23-8.87-3.94-8.87-3.94-6.9-5-13.79,4.81-17.36,11.3a.71.71,0,0,0-.5-.19l-3,.14a.78.78,0,0,0-.64,1l1.27,4.81a2.37,2.37,0,0,0,.15,2.33,2.77,2.77,0,0,0,.68,2.41v.06l.39,5.06a.78.78,0,0,0,.94.75l2.91-.87a.7.7,0,0,0,.43-.38C1518.68,1052.45,1528.48,1059.51,1533.37,1052.49Z"/><path class="cls-22" d="M1530.38,1020.65a5.59,5.59,0,0,0-2.44.41l-.4-.28c-3.08,3.11-7.54,8.53-8.41,14.31C1519.13,1035.09,1526.46,1023.54,1530.38,1020.65Z"/><path class="cls-22" d="M1541.62,1030.6c-.08-.32-.16-.63-.26-.91-2.15.79-6.6,2.7-9.32,5.71,0,0,6.71-3.61,10.51-4A5.73,5.73,0,0,0,1541.62,1030.6Z"/><path class="cls-22" d="M1537,1025h-.21c-.27-.42-.55-.79-.82-1.14-2.26,2.19-7.58,7.63-8.44,11.09C1527.55,1035,1533,1028,1537,1025Z"/><path class="cls-22" d="M1543.15,1039.21a67.78,67.78,0,0,1-10.54-.43c2.53.89,8.28,2.68,10.53,2.53A12.15,12.15,0,0,0,1543.15,1039.21Z"/><path class="cls-22" d="M1532.1,1053.92a8.13,8.13,0,0,0,1.27-1.43,4.65,4.65,0,0,0,.6,0c-3.09-1.07-10.4-5-13.72-8.54C1522.46,1046.85,1528.19,1052.59,1532.1,1053.92Z"/><path class="cls-22" d="M1540.43,1045.84a2.72,2.72,0,0,0,.82-.45,73.18,73.18,0,0,1-12.66-4.3,81.81,81.81,0,0,0,11.43,6.13C1540.17,1046.79,1540.31,1046.33,1540.43,1045.84Z"/><path class="cls-22" d="M1511.49,1032.18s-3.87,6.69,1.29,7.63c0,0-5.47,1.91.61,7.11C1513.39,1046.92,1504,1043,1511.49,1032.18Z"/><path class="cls-23" d="M1519.15,615.21c-16.06-2-37.14,74.82-38.69,80.55a383.49,383.49,0,0,0-13.07,108l61.1,3.45a317.38,317.38,0,0,0,10.21-97C1537.79,691.71,1534.68,617.13,1519.15,615.21Z"/><path class="cls-23" d="M1529.51,807.21l-31.63-1.79-29.47-1.66c-16.52-33.76,31.47-191.61,51.76-188.55,15.64,2,17.55,54.54,19.55,95A317.38,317.38,0,0,1,1529.51,807.21Z"/><path class="cls-24" d="M1520.17,615.21l-22.29,190.21-29.47-1.66C1451.89,770,1499.88,612.15,1520.17,615.21Z"/><path class="cls-18" d="M1449.51,807.21c2.38-.09,53.69-27.91,100.77,2.39"/><path class="cls-18" d="M1158.68,1057.6s45,10.47,84.11,5.6c0,0-42-87.16-84.11-2.16"/><path class="cls-18" d="M626.61,1008.53s44.95,10.48,84.11,5.6c0,0-42.06-87.16-84.11-2.15"/><path class="cls-18" d="M1285.4,798.73s35.27,7,66,3.74c0,0-33-58.24-66-1.43"/><path class="cls-18" d="M324.06,1064.43s35.27,7,66,3.74c0,0-33-58.25-66-1.44"/><path class="cls-18" d="M293.31,917.26s35.26,7,66,3.74c0,0-33-58.24-66-1.44"/><path class="cls-18" d="M24.77,912.44s35.26,7,66,3.74c0,0-33-58.25-66-1.44"/><path class="cls-18" d="M1817.41,734.55s37.72,5.68,70.57,3c0,0-35.28-47.27-70.57-1.16"/><path class="cls-25" d="M1066.75,807.48a11,11,0,0,1-3.21,4.22c-7.84,6.15-22-3.06-22.33-10.24,0-.72,5.79-15.83,16.86-12.6l15.66-33.7a6.11,6.11,0,0,1,2.7.08h0a2.59,2.59,0,0,1,1.88,2l-15,32.34S1072.87,794.1,1066.75,807.48Z"/><path class="cls-26" d="M1066.75,807.48a11,11,0,0,1-3.21,4.22,12.44,12.44,0,0,1,1-3.69c4.85-12.57-3.57-17.3-3.57-17.3l15.51-35.47h0a2.59,2.59,0,0,1,1.88,2l-15,32.34S1072.87,794.1,1066.75,807.48Z"/><path class="cls-27" d="M1087,814.33l-7.49,18-2.49-.2c-2,10.91-9.08,41.05-9.08,41.05l-13.4-.42-40.73-1.28L1011.9,827l-4.56-.37L1004.28,808l65.93,5Z"/><path class="cls-28" d="M1070.21,813.05l-.4.67s4.19,11.89-2.4,15.25l-60.07-2.38,12.93,1.19,46.65,5.23c-1.3,10-5.26,35.48-12.38,39.79l13.4.42s7.08-30.14,9.08-41.05l2.49.2,7.49-18Z"/><path class="cls-29" d="M1076.38,818.25a3.23,3.23,0,0,0-3.23,3.23,3.17,3.17,0,0,0,.3,1.34c-5.34,7.9-26.49,46.47-59.73,38.92-22.46-5.11-6.64-37.32-6.64-37.32l-.75-3.94s-18.16,41.72,9.54,44.91c27.15,3.13,53.19-23.78,60.1-40.72a2.85,2.85,0,0,0,.41,0,3.23,3.23,0,1,0,0-6.46Z"/><path class="cls-29" d="M1007.84,808.28a22.83,22.83,0,0,1,18.9-10.74c13.28-.4,10.56.28,22,5.22s9.36,2.21,19.92,3.74,10.43,7.22,10.43,7.22"/><path class="cls-18" d="M995.38,876.66s31.66-17.36,88.85,0"/><path class="cls-4" d="M970.11,729.87s66.63,23.22-40.6,21.68C929.51,751.55,989.26,751.07,970.11,729.87Z"/><path class="cls-4" d="M847.55,825.82a1.5,1.5,0,0,0,0-3,1.5,1.5,0,0,0,0,3Z"/><path class="cls-4" d="M1193.85,691.47s18.72,15.8-15.32,22.71C1178.53,714.18,1195.55,702,1193.85,691.47Z"/><path class="cls-4" d="M661.43,704.06C658.38,702.5,819.3,796,831,749.51,831,749.51,750.79,750,661.43,704.06Z"/><path class="cls-4" d="M840.83,709.85S851,737.94,835,740.75C835,740.75,861.6,744.91,840.83,709.85Z"/><path class="cls-4" d="M24.77,724.46s89,89.14,105.46,27.09C130.23,751.55,105.81,778.56,24.77,724.46Z"/></g></g></g></svg>