<?xml version="1.0" encoding="UTF-8"?>
<svg id="Capa_2" data-name="Capa 2" xmlns="http://www.w3.org/2000/svg" viewBox="0 0 1921.2 1110.13">
  <defs>
    <style>
      .cls-1, .cls-2 {
        fill: #79912c;
      }

      .cls-3 {
        fill: #385460;
        font-family: FranklinGothic-Medium, 'Franklin Gothic Medium';
        font-size: 89px;
        font-weight: 500;
      }

      .cls-4 {
        fill: #335287;
      }

      .cls-5 {
        letter-spacing: -.01em;
      }

      .cls-6 {
        fill: #163351;
      }

      .cls-7, .cls-8 {
        fill: #3db64c;
      }

      .cls-9 {
        fill: #00a661;
      }

      .cls-10 {
        fill: #e8eeef;
      }

      .cls-11 {
        fill: #9edc93;
      }

      .cls-12 {
        fill: #cedeed;
      }

      .cls-13 {
        fill: #fed403;
      }

      .cls-14 {
        fill: #38a4dd;
      }

      .cls-15 {
        fill: #a0bfd8;
      }

      .cls-16 {
        fill: #e8a603;
      }

      .cls-8, .cls-2, .cls-17 {
        opacity: .33;
      }

      .cls-18 {
        fill: #2e82c3;
      }

      .cls-19 {
        fill: #feda00;
      }

      .cls-20 {
        fill: #8395b7;
      }

      .cls-21 {
        fill: #825c0f;
      }

      .cls-22 {
        fill: #d80;
      }

      .cls-23, .cls-17 {
        fill: #558522;
      }

      .cls-24 {
        fill: #1873ac;
      }
    </style>
  </defs>
  <g id="Capa_3" data-name="Capa 3">
    <rect class="cls-11" x="1.2" width="1920" height="1080"/>
  </g>
  <g id="Capa_4" data-name="Capa 4">
    <path class="cls-17" d="M1836.66,261.88l-31.15-82.98,15.43,87.42c-92.42-18.11-98.65-96.32-97.46-117.38l16.86,7.52s1.74-74.85,29.37-104.31c0,0,65.67,36.83,79.25,75.41l10.3-18.09s58.51,86.19-22.6,152.41Z"/>
    <path class="cls-2" d="M1892.44,907.97l-84.97-25.24,79.02,40.45c-70.2,62.77-136.34,20.55-152.41,6.89l16.17-8.91s-58.63-46.55-65.46-86.36c0,0,68.99-30.15,107.96-17.69l-8.21-19.13s104.03,5.35,107.9,109.99Z"/>
    <path class="cls-17" d="M156.67,984.32l-39.35-79.42,53.33,70.97c49.88-79.88-3-137.84-19.2-151.36l-6.02,17.45s-55.87-49.84-96.26-49.77c0,0-17.94,73.12.98,109.39l-20.25-4.83s23.01,101.59,126.77,87.57Z"/>
    <path class="cls-2" d="M974.26,1029.32l39.35-79.42-53.33,70.97c-49.88-79.88,3-137.84,19.2-151.36l6.02,17.45s55.87-49.84,96.26-49.77c0,0,17.94,73.12-.98,109.39l20.25-4.83s-23.01,101.59-126.77,87.57Z"/>
    <path class="cls-2" d="M655.44,943.87l-76.36-45.01,83.44,30.29c-1.88-94.16-77.84-113.8-98.79-116.26l4.49,17.91s-74.02-11.21-107.81,10.92c0,0,24.94,71.04,60.6,91.08l-19.6,7.02s74.79,72.51,154.02,4.06Z"/>
    <path class="cls-8" d="M659.68,963.71l55.49-49.94-63.8,38.98c-14.22-78.03,45.18-106.97,62.07-112.52l-.71,15.53s59.22-21.65,90.82-9.05c0,0-8.68,62.82-34.76,85.33l17.35,2.51s-49.58,72.38-126.45,29.15Z"/>
    <path class="cls-8" d="M352.2,1033.14l39.35-79.42-53.33,70.97c-49.88-79.88,3-137.84,19.2-151.36l6.02,17.45s55.87-49.84,96.26-49.77c0,0,17.94,73.12-.98,109.39l20.25-4.83s-23.01,101.59-126.77,87.57Z"/>
    <path class="cls-8" d="M1175.2,978.14l-8.26-59.94,23.64,55.9c71.77-48.75,44.12-95.61,34.2-107.03l-11.31,11.28s-33.09-41.63-69.26-46.8c0,0-40.88,48.2-36.27,75.69l-16.48-5.95s-13.9,73.15,83.74,76.85Z"/>
    <path class="cls-2" d="M1268.03,952.98l48.55-43.13-56.85,31.69c-17.46-77.12,35.88-99.49,51.18-103.24l.2,15.01s53.57-15.31,83.49-.03c0,0-4.56,60.14-27.43,79.48l16.19,4.11s-41.86,65.48-115.33,16.12Z"/>
    <path class="cls-17" d="M1472.97,1041.43l-1.84-88.62,18.08,86.91c79.12-51.08,55.91-126.03,47-145.15l-12.87,13.23s-29.37-68.87-65.95-85.99c0,0-47.34,58.55-45.64,99.42l-16.27-12.98s-22.38,101.74,77.49,133.17Z"/>
    <path class="cls-8" d="M1672.32,1029.06l-40.07-68.98,25.86,75.62c-89.32-.54-105.33-69.47-106.94-88.53l16.84,3.87s-8.07-67.28,14.11-98.33c0,0,66.57,21.83,84.36,54.06l7.34-17.94s66.24,67.21-1.5,140.23Z"/>
    <path class="cls-17" d="M1795.54,530.82l31.15-82.98-15.43,87.42c92.42-18.11,98.65-96.32,97.46-117.38l-16.86,7.52s-1.74-74.85-29.37-104.31c0,0-65.67,36.83-79.25,75.41l-10.3-18.09s-58.51,86.19,22.6,152.41Z"/>
    <path class="cls-17" d="M1260.44,769.67l39.35-79.42-53.33,70.97c-49.88-79.88,3-137.84,19.2-151.36l6.02,17.45s55.87-49.84,96.26-49.77c0,0,17.94,73.12-.98,109.39l20.25-4.83s-23.01,101.59-126.77,87.57Z"/>
    <path class="cls-2" d="M1041.84,775.24l-39.35-79.42,53.33,70.97c49.88-79.88-3-137.84-19.2-151.36l-6.02,17.45s-55.87-49.84-96.26-49.77c0,0-17.94,73.12.98,109.39l-20.25-4.83s23.01,101.59,126.77,87.57Z"/>
    <path class="cls-2" d="M1767.96,719.85l-54.44-69.94,40.76,78.86c-93.62,10.23-122.86-62.57-127.99-83.04l18.33,2.16s-20.62-71.97-3.02-108.32c0,0,73.66,15.6,98.11,48.4l4.44-20.34s81.52,64.85,23.81,152.23Z"/>
    <path class="cls-8" d="M826.6,620.3l-39.35-79.42,53.33,70.97c49.88-79.88-3-137.84-19.2-151.36l-6.02,17.45s-55.87-49.84-96.26-49.77c0,0-17.94,73.12.98,109.39l-20.25-4.83s23.01,101.59,126.77,87.57Z"/>
    <path class="cls-8" d="M180.93,734.72l8.26-59.94-23.64,55.9c-71.77-48.75-44.12-95.61-34.2-107.03l11.31,11.28s33.09-41.63,69.26-46.8c0,0,40.88,48.2,36.27,75.69l16.48-5.95s13.9,73.15-83.74,76.85Z"/>
    <path class="cls-8" d="M370.04,763.97l40.07-68.98-25.86,75.62c89.32-.54,105.33-69.47,106.94-88.53l-16.84,3.87s8.07-67.28-14.11-98.33c0,0-66.57,21.83-84.36,54.06l-7.34-17.94s-66.24,67.21,1.5,140.23Z"/>
    <path class="cls-17" d="M43.01,648.68l31.15-82.98-15.43,87.42c92.42-18.11,98.65-96.32,97.46-117.38l-16.86,7.52s-1.74-74.85-29.37-104.31c0,0-65.67,36.83-79.25,75.41l-10.3-18.09s-58.51,86.19,22.6,152.41Z"/>
    <path class="cls-2" d="M227.58,484.65l84.97-25.24-79.02,40.45c70.2,62.77,136.34,20.55,152.41,6.89l-16.17-8.91s58.63-46.55,65.46-86.36c0,0-68.99-30.15-107.96-17.69l8.21-19.13s-104.03,5.35-107.9,109.99Z"/>
    <path class="cls-17" d="M1098.77,297.01l39.35-79.42-53.33,70.97c-49.88-79.88,3-137.84,19.2-151.36l6.02,17.45s55.87-49.84,96.26-49.77c0,0,17.94,73.12-.98,109.39l20.25-4.83s-23.01,101.59-126.77,87.57Z"/>
    <path class="cls-8" d="M501.04,366.3l-39.35-79.42,53.33,70.97c49.88-79.88-3-137.84-19.2-151.36l-6.02,17.45s-55.87-49.84-96.26-49.77c0,0-17.94,73.12.98,109.39l-20.25-4.83s23.01,101.59,126.77,87.57Z"/>
    <path class="cls-8" d="M1168.81,606.39l-39.35-79.42,53.33,70.97c49.88-79.88-3-137.84-19.2-151.36l-6.02,17.45s-55.87-49.84-96.26-49.77c0,0-17.94,73.12.98,109.39l-20.25-4.83s23.01,101.59,126.77,87.57Z"/>
    <path class="cls-8" d="M1535.74,776.57l8.26-59.94-23.64,55.9c-71.77-48.75-44.12-95.61-34.2-107.03l11.31,11.28s33.09-41.63,69.26-46.8c0,0,40.88,48.2,36.27,75.69l16.48-5.95s13.9,73.15-83.74,76.85Z"/>
    <path class="cls-2" d="M593.34,559.12l-48.55-43.13,56.85,31.69c17.46-77.12-35.88-99.49-51.18-103.24l-.2,15.01s-53.57-15.31-83.49-.03c0,0,4.56,60.14,27.43,79.48l-16.19,4.11s41.86,65.48,115.33,16.12Z"/>
    <path class="cls-17" d="M691.69,817.09l1.84-88.62-18.08,86.91c-79.12-51.08-55.91-126.03-47-145.15l12.87,13.23s29.37-68.87,65.95-85.99c0,0,47.34,58.55,45.64,99.42l16.27-12.98s22.38,101.74-77.49,133.17Z"/>
    <path class="cls-17" d="M91.29,119.49l15.44-87.42-31.15,82.98C28.35,76.49,28.47,31.15,36.8,0h134.59c.42,5.99.51,9.63.51,9.63l16.86-7.52c1.19,21.07-5.05,99.28-97.47,117.38Z"/>
    <path class="cls-2" d="M73.38,251.18l84.97-25.24-79.02,40.45c70.2,62.77,136.34,20.55,152.41,6.89l-16.17-8.91s58.63-46.55,65.46-86.36c0,0-68.99-30.15-107.96-17.69l8.21-19.13s-104.03,5.35-107.9,109.99Z"/>
    <path class="cls-17" d="M677.71,405.96l39.35-79.42-53.33,70.97c-49.88-79.88,3-137.84,19.2-151.36l6.02,17.45s55.87-49.84,96.26-49.77c0,0,17.94,73.12-.98,109.39l20.25-4.83s-23.01,101.59-126.77,87.57Z"/>
    <path class="cls-2" d="M1365.14,463.03l-39.35-79.42,53.33,70.97c49.88-79.88-3-137.84-19.2-151.36l-6.02,17.45s-55.87-49.84-96.26-49.77c0,0-17.94,73.12.98,109.39l-20.25-4.83s23.01,101.59,126.77,87.57Z"/>
    <path class="cls-2" d="M845.4,401.88l76.36-45.01-83.44,30.29c1.88-94.16,77.84-113.8,98.79-116.26l-4.49,17.91s74.02-11.21,107.81,10.92c0,0-24.94,71.04-60.6,91.08l19.6,7.02s-74.79,72.51-154.02,4.06Z"/>
    <path class="cls-8" d="M1437.19,183.17l-55.49-49.94,63.8,38.98c14.22-78.03-45.18-106.97-62.07-112.52l.71,15.53s-59.22-21.65-90.82-9.05c0,0,8.68,62.82,34.76,85.33l-17.35,2.51s49.58,72.38,126.45,29.15Z"/>
    <path class="cls-2" d="M1629.26,256.42l-54.44-69.94,40.76,78.86c-93.62,10.23-122.86-62.57-127.99-83.04l18.33,2.16s-20.62-71.97-3.02-108.32c0,0,73.66,15.6,98.11,48.4l4.44-20.34s81.52,64.85,23.81,152.23Z"/>
    <path class="cls-8" d="M1565.21,606.39l-39.35-79.42,53.33,70.97c49.88-79.88-3-137.84-19.2-151.36l-6.02,17.45s-55.87-49.84-96.26-49.77c0,0-17.94,73.12.98,109.39l-20.25-4.83s23.01,101.59,126.77,87.57Z"/>
    <path class="cls-8" d="M807.22,201.61l8.26-59.94-23.64,55.9c-71.77-48.75-44.12-95.61-34.2-107.03l11.31,11.28s33.09-41.63,69.26-46.8c0,0,40.88,48.2,36.27,75.69l16.48-5.95s13.9,73.15-83.74,76.85Z"/>
    <path class="cls-2" d="M688.05,131.53l-48.55-43.13,56.85,31.69c17.46-77.12-35.88-99.49-51.18-103.24l-.2,15.01s-53.57-15.31-83.49-.03c0,0,4.56,60.14,27.43,79.48l-16.19,4.11s41.86,65.48,115.33,16.12Z"/>
    <path class="cls-8" d="M307.24,179.53l40.07-68.98-25.86,75.62c89.32-.54,105.33-69.47,106.94-88.53l-16.84,3.87s8.07-67.28-14.11-98.33c0,0-66.57,21.83-84.36,54.06l-7.34-17.94s-66.24,67.21,1.5,140.23Z"/>
  </g>
  <g id="Capa_1-2" data-name="Capa 1">
    <path class="cls-22" d="M289.3,192.95s64.3,28.1,111.52-1.75c47.22-29.85,74.57,30.73,5.79,52.11-68.77,21.38-123.08,22.29-126.4-7.03-3.32-29.32,9.09-43.33,9.09-43.33Z"/>
    <path class="cls-22" d="M153.19,226.36c-4.11,16.49-24.42,35.43-58.9,44.76-20.59,5.57-46.23,7.72-76.49,3.87-6.14-.78-11.66-1.69-16.6-2.72v-42.69c.3-.02.61-.04.91-.06,33.02-1.95,109.92-26.55,130.57-33.32,3.32-1.08,5.18-1.71,5.18-1.71,0,0,21.89,5.54,15.33,31.87Z"/>
    <path class="cls-19" d="M494.13,300.04c-.09.26-.2.53-.35.81-.05.09-.1.18-.16.28-.11.18-.23.38-.37.57-.02.05-.05.09-.09.14-.02.01-.03.02-.04.04,0,.01-.01.02-.02.03-.01.01-.01.02-.02.03,0,0,0,.01-.01.01,0,0,0,0-.01,0,0,.01-.01.02-.02.03-2.34,3.08-7.91,6.96-17.47,11.96-.85.45-1.74.9-2.65,1.36-2.34,1.19-4.9,2.43-7.67,3.74-.73.35-1.47.69-2.23,1.05-1.91.88-3.92,1.8-6.02,2.74-.31.14-.63.28-.95.42-3.89,1.74-8.12,3.57-12.69,5.51-170.19,72.11-214.42-86.56-214.42-86.56,0,0-.18.62-.57,1.77-.05.15-.1.3-.16.46-1.05,3.06-3.29,9.11-7.11,17.11-.2.43-.4.85-.61,1.28-3.56,7.35-8.39,16.21-14.76,25.86-.68,1.03-1.38,2.07-2.1,3.12-1.25,1.83-2.56,3.69-3.93,5.58-.86,1.18-1.74,2.37-2.65,3.56-.45.6-.9,1.2-1.37,1.8-.46.6-.93,1.21-1.41,1.81-.94,1.21-1.92,2.42-2.92,3.64-.49.61-1,1.22-1.51,1.83-4.14,4.96-8.68,9.98-13.65,14.99-.93.93-1.87,1.87-2.83,2.8-.47.46-.95.92-1.43,1.38-.8.77-1.61,1.53-2.43,2.29-.89.83-1.79,1.66-2.71,2.49-.67.61-1.35,1.22-2.04,1.82-1.24,1.09-2.49,2.17-3.77,3.25-.48.41-.97.82-1.46,1.22-5.53,4.6-11.48,9.11-17.85,13.47-.71.48-1.43.96-2.15,1.44-.84.57-1.69,1.13-2.55,1.68-.84.55-1.69,1.09-2.55,1.63-2.63,1.66-5.33,3.29-8.1,4.89-.92.53-1.84,1.06-2.78,1.58-.11.06-.23.13-.35.2-1.75.97-3.53,1.94-5.34,2.88-1.17.62-2.35,1.23-3.55,1.83-.83.43-1.67.85-2.52,1.26-.85.42-1.7.83-2.56,1.24-.29.13-.57.27-.86.41-.81.38-1.62.76-2.45,1.14-2.25,1.03-4.55,2.05-6.88,3.04-.85.36-1.71.72-2.57,1.07-.82.34-1.65.67-2.47,1-.67.27-1.35.54-2.03.81-.49.18-.98.37-1.47.56-.71.27-1.41.54-2.13.8-1.43.54-2.87,1.06-4.32,1.57-.89.32-1.78.63-2.68.93-.05.02-.1.04-.14.05-.77.27-1.54.53-2.32.78-.84.29-1.7.56-2.56.84-.08.02-.17.05-.25.08-.9.29-1.8.57-2.71.85-1.51.46-3.02.91-4.55,1.36-1.05.3-2.1.6-3.16.89-.81.22-1.61.44-2.42.65-.84.23-1.68.45-2.52.66-.99.26-1.98.51-2.97.76-.98.24-1.96.48-2.95.71-.29.07-.58.13-.87.2-.9.21-1.8.42-2.7.61-1.86.42-3.73.82-5.62,1.2-1.18.24-2.37.48-3.57.7-4.33.82-8.76,1.57-13.28,2.23-.93.14-1.86.28-2.79.4-1.41.2-2.82.38-4.24.56-3.99.5-8.04.93-12.17,1.3-1.16.1-2.33.2-3.5.29-.29.02-.57.04-.85.06-1.03.08-2.07.16-3.11.23-.3.02-.6.04-.91.06v-76.03c34.98-15.53,70.04-32.99,93.09-52.02h0c11.62-9.59,20.18-19.58,24.14-29.92,6.04-15.76,10.55-30.79,14.24-45,15.77-60.66,16.53-106.24,56.78-128.81.42-.24.84-.47,1.27-.69.39-.22.78-.42,1.18-.63.87-.45,1.76-.89,2.67-1.33.21-.11.43-.21.64-.31,0,0,.32-35.44,11.28-64.43h68.91l9.98,4.37h-.01s-.01.03-.02.04c-.16.23-.94,1.32-2.17,3.05-8.18,11.59-36.5,52.32-38.58,64.1-.18,1.03-.17,1.85.09,2.4,0,0,.34.19.97.62.21.14.46.3.73.5.16.11.32.23.5.36,8.59,6.32,39.82,34.83,48.54,119.87.59,5.76,1.08,11.79,1.45,18.08,1.2,20.47,12.13,35,28.29,45.47,56,36.27,174.77,23.82,168.95,41.18Z"/>
    <path class="cls-16" d="M18.83,338.04s-6.64,5.28-17.63,12.65v-3.46c5.73-2.8,11.61-5.86,17.63-9.19Z"/>
    <path class="cls-16" d="M493.16,301.84s-.03.02-.04.04c0,.01-.01.02-.02.03-.01.01-.01.02-.02.03h-.01s0,.02-.01.02c0,.01-.01.02-.02.03-4.97,5.6-20.03,13.73-49.09,26.05-1.23.52-2.44,1.02-3.65,1.51-.39.16-.78.32-1.16.47-.83.34-1.66.67-2.48.99l-1.32.51c-.78.31-1.57.61-2.35.9-.42.16-.85.32-1.27.48-.87.33-1.74.64-2.6.96-.31.11-.62.22-.93.33-1.16.41-2.3.82-3.45,1.2-.32.11-.64.22-.96.33-.83.28-1.65.55-2.47.82-.44.14-.88.28-1.31.42-.71.23-1.42.45-2.12.67-.46.14-.91.28-1.37.42-.7.21-1.4.42-2.09.62-.43.13-.86.26-1.29.38-.88.25-1.76.5-2.63.74-.4.11-.8.22-1.19.32-.88.24-1.75.47-2.62.69-.46.12-.91.23-1.37.34-.62.16-1.24.31-1.85.46-.5.12-.99.23-1.48.35-.57.13-1.15.26-1.72.39-.5.11-.99.22-1.49.33-.58.13-1.15.24-1.73.36-.47.1-.95.2-1.42.3-.95.19-1.9.37-2.85.54-.51.1-1.02.19-1.53.28-.5.08-1.01.17-1.5.26-.55.09-1.09.17-1.63.26-.45.07-.91.14-1.37.21-.55.09-1.1.17-1.65.25-.43.06-.85.12-1.28.17-.56.08-1.13.16-1.69.23-.35.04-.7.08-1.05.12-1.21.14-2.41.28-3.61.39-.26.03-.52.06-.78.08-.61.06-1.21.11-1.81.16-.34.02-.67.05-1.01.08-.59.04-1.19.08-1.78.12-.32.02-.64.04-.97.06-.6.04-1.21.07-1.81.1-.26.02-.51.02-.77.04-2.15.09-4.27.14-6.36.14h-.56c-.63,0-1.25,0-1.88-.01-.24-.01-.48-.01-.72-.01-.62-.02-1.24-.03-1.85-.05-.21-.01-.43-.01-.64-.02-.65-.03-1.3-.05-1.94-.08,4.25-2.4,10.19-4.51,16.59-6.45h.01c10.72-3.24,22.68-5.98,29.92-8.73,19.77-7.52-35.84-47.22-92.18-63.57-53.44-15.5-35.91-119.05-40.17-145.09v-.02c-.22-1.4-.51-2.58-.89-3.51-1.07-2.66-2.43-4.44-3.96-5.52,0,0,0-.01-.01-.01-.48-.35-.98-.63-1.49-.84-7.09-2.96-17.12,6.08-22.02,11-1.44,1.9-3.42,3.55-4.01,5.77-10.11,37.83-2.13,65.51-4.71,99.83v.03c-.18,2.34-.4,4.72-.69,7.13-14.78,34.81-75.51,149.48-229.78,161.49v-25.81c115.16-26.08,185.39-92.36,207.21-118.71-9.53,4.64-22.92,5.41-36.03,6.16-9.99.58-24.37.41-41.6-3.35,9.1,1.1,26.57,1.99,46.63-5.18,18.69-6.68,31.4-17.4,38.7-24.88-.09-36.58-2.3-121.3-2.92-144.24-.1-3.72-.16-5.82-.16-5.82l9.85,3.65,7-26.72,14.09-46.78.07-6.48h33.62l8.05,3.53.26.11s-.24.34-.69.96c0,.01-.01.02-.02.03-.43.61-1.05,1.48-1.83,2.58t-.01.02c-9.37,13.29-41.26,59.3-38.14,66,0,0,40.86,22.59,50.84,122.32.55,5.47,1,11.17,1.35,17.11,1.23,20.94,12.64,35.66,29.41,46.17,58.99,37.01,184.34,22.03,166.28,43.01Z"/>
    <path class="cls-12" d="M1921.2,398.49v76.69c-.47.06-.95.12-1.44.2-.76.1-1.62.36-2.51.74-.2.09-.41.18-.62.28-.1.05-.22.11-.33.17-.25.12-.5.26-.76.41-.18.09-.37.2-.55.32-.17.1-.35.21-.53.33-.19.12-.38.25-.58.39-.26.18-.52.37-.78.57-.15.11-.3.22-.44.34-1.15.92-2.19,1.96-2.99,3.02-.1.13-.2.26-.29.4-.09.13-.18.27-.26.4-.08.13-.16.25-.24.38-.23.42-.42.84-.56,1.24-.03.07-.05.15-.07.22-.05.17-.09.34-.12.51-1.27,7.05,1.05,10.77.69,15.15-.02.32-.06.64-.12.97-.75,4.3-4.38,9.47-16.37,19-24.43,21.43-22.82,9.32-37.38,9.29-4.11,0-10.34,5.74-11.63,9.72-3.52,10.2-2.45,15.1-24.92,20.82-34.48,8.77-103.85-106.21-103.85-106.21-4.71-7.41,1.55-15.66,1.84-16.04h.01s-104.21-124.77-104.21-124.77l-.04-.05c-2.93,2.44-7,2.92-10.22,1.16-29.52-16.1-63.05-71.13-74.47-90.97-2.64-4.59-3.92-9.88-3.66-15.28l2.52-53.88c.41-8.72-2.4-17.15-7.89-23.73l-7.18-8.6-8.72-10.44,28.04-23.42.65-.55,1.96-1.63,26.09-21.79,8.71,10.44,7.19,8.6c5.49,6.57,13.29,10.83,21.95,11.98l53.47,7.11c5.35.71,10.33,2.91,14.38,6.33,17.49,14.76,65.68,57.56,76.26,89.47,1.16,3.48-.04,7.4-2.96,9.84l.04.05,104.21,124.75h.01s9.52-5.05,16.12,1.04c0,0,36.69,32.3,62.55,65.03Z"/>
    <path class="cls-15" d="M1921.2,398.49v54.15c-9.19-10.59-18.59-13.23-19.01-13.34,9.42,9.03,13.5,23.26,15.06,36.82-.18.08-.36.16-.54.24-.13.06-.27.13-.41.21-1.07.53-2.17,1.23-3.2,2.02-.15.11-.3.22-.44.34-.01.01-.02.02-.03.02-.18.15-.36.3-.53.45-.23.2-.45.4-.66.6-.11.1-.22.2-.32.31-.21.2-.41.41-.6.62-.31.33-.59.67-.85,1.02-.1.13-.2.26-.29.4-.09.13-.18.27-.26.4-.17.25-.31.51-.44.76-.14.29-.26.58-.36.86-.03.07-.05.15-.07.22s-.04.13-.05.2c-.03.1-.05.21-.07.31-1.23,6.83.91,10.54.72,14.74-.01.14-.02.27-.03.41-.02.32-.06.64-.12.97-.75,4.3-4.38,9.47-16.37,19-22.03,16.79-37.56,3.64-37.56,3.64,11.69,1.36,21.72-3.65,26.73-6.81-9.04-35.05-33.94-102.72-51.59-137.91-10.63-.36-35.47,3.05-76.68,32.23l63.62-53.14c-1.34-1.24-2.48-1.78-3.4-1.51h-.01c-13.46,3.92-123.75-86.66-105.8-123.44h.01c1.4-2.86,2.29-5.96,2.75-9.25l-102.22,87.98c73.09-66.55,89.13-110.54,92.62-127.87-16.8-32.46-51-63.53-71.83-59.24-27.37,5.65-59.81-11.67-78.95-24.31-8.86,3.85-23.78,10.97-35.38,19.71l1.96-3.09,17.75-27.98c-.54-.43-.82-.67-.82-.67l-.35-2.92,26.09-21.79,8.71,10.44,7.19,8.6c5.49,6.57,13.29,10.83,21.95,11.98l53.47,7.11c5.35.71,10.33,2.91,14.38,6.33,17.49,14.76,65.68,57.56,76.26,89.47,1.16,3.48-.04,7.4-2.96,9.84l.04.05,104.21,124.75h.01s9.52-5.05,16.12,1.04c0,0,36.69,32.3,62.55,65.03Z"/>
    <path class="cls-6" d="M1507.65,59.4c-17.72,14.81-30.49,28.72-28.52,31.08l28.55,34.18,64.19-53.62-28.55-34.18c-1.97-2.36-17.94,7.73-35.66,22.54Z"/>
    <path class="cls-20" d="M1837.04,341.37s10.52-14.59,22.83-1.66l36.05,39.53c-18.73-13.37-46.57-39.44-58.88-37.87Z"/>
    <rect class="cls-18" x="1645.04" y="241.31" width="164.94" height="162.56" transform="translate(194.9 1182.51) rotate(-39.87)"/>
    <ellipse class="cls-10" cx="1529.02" cy="130.87" rx="4.06" ry="13.98" transform="translate(171.55 846.62) rotate(-32.69)"/>
    <path class="cls-10" d="M1534.07,161.74c-.56,27.74,1.76,58.92,6.18,50.2,3.45-6.81-2.95-79.26-6.18-50.2Z"/>
    <ellipse class="cls-10" cx="1580.25" cy="264.98" rx="12.2" ry="42.87" transform="translate(197.59 1074.71) rotate(-39.87)"/>
    <ellipse class="cls-10" cx="1778.07" cy="497.26" rx="15.1" ry="66.25" transform="translate(94.68 1255.54) rotate(-39.87)"/>
    <path class="cls-24" d="M1788.18,377.83l54.74-45.72-104.22-124.76-53.2,44.44c32.49,30.95,82.35,82.67,102.69,126.04Z"/>
    <path class="cls-21" d="M371.19,340.2h-.01c-98.73-1.16-138.88-97.69-138.88-97.69l-.63-12.97v-.03l-7.15-146.72c5.15-.44,10.81-1.87,16.97-4.64,6.48,7.33,16.03,23.92,22.41,35.6.01,0,.01.01.01.01,1.98,3.63,3.66,6.78,4.85,9.03v.02c1.21,2.27,1.9,3.63,1.9,3.63-.08-20.96-19.55-42.74-26.29-49.66.83-.42,1.68-.87,2.53-1.34-.18-.13-.34-.25-.5-.36-.27-.2-.52-.36-.73-.5-.63-.43-.97-.62-.97-.62-.26-.55-.27-1.37-.09-2.4-.12.04-.25.08-.37.12,3.93-16.36,27.59-49.89,36.91-62.66.76-.46,1.44-.98,2.04-1.56.08-.07.16-.15.23-.23t.01-.02c.77-.77,1.38-1.63,1.83-2.58.01-.01.02-.02.02-.03.03-.06.06-.12.08-.19.01-.01.02-.02.02-.03h.01c.12-.29.23-.57.32-.85.37-1.12.51-2.3.45-3.53h-52.17c2.4,1.69,5.04,3.29,7.88,4.74-4.59,13.3-15.93,47.6-19.13,70.92-8.02.14-16.46-1.49-23.58-6.78-.55-10.92.06-28.17,7.22-47.58,2.68-7.26,5.59-14.67,8.54-21.3h-3.61c-3.29,7.47-6.14,14.97-7.7,20.28-3.11,10.59-6.65,26.14-7.65,45.88-.47-.45-.93-.92-1.38-1.42-.91.44-1.8.88-2.67,1.33-.4.21-.79.41-1.18.63-.43.22-.85.45-1.27.69,1.12,1.32,2.41,2.71,3.88,4.1-8.13,5.57-31.23,22.96-35.42,43.34,0,0,24.98-31.34,37.77-41.27,4.5,3.72,10.32,7.11,17.5,8.59,2.14.45,4.41.72,6.8.78,1.17,23.08,10.48,143.16,1.73,170.66,0,0-36.28,53.58-76.85,87.74-23.15,19.49-74.56,38.26-143.67,45.45v12.39c.31-.02.61-.04.91-.06,1.04-.07,2.08-.15,3.11-.23.28-.02.56-.04.85-.06,1.17-.09,2.34-.19,3.5-.29,4.13-.37,8.18-.8,12.17-1.3,1.42-.18,2.83-.36,4.24-.56.93-.12,1.86-.26,2.79-.4,4.52-.66,8.95-1.41,13.28-2.23,1.2-.22,2.39-.46,3.57-.7,1.89-.38,3.76-.78,5.62-1.2.9-.19,1.8-.4,2.7-.61.29-.07.58-.13.87-.2.99-.23,1.97-.47,2.95-.71.99-.25,1.98-.5,2.97-.76.84-.21,1.68-.43,2.52-.66.81-.21,1.61-.43,2.42-.65,1.06-.29,2.11-.59,3.16-.89,1.53-.45,3.04-.9,4.55-1.36.91-.28,1.81-.56,2.71-.85.08-.03.17-.06.25-.08.86-.28,1.72-.55,2.56-.84.78-.25,1.55-.51,2.32-.78.04-.01.09-.03.14-.05.9-.3,1.79-.61,2.68-.93,1.45-.51,2.89-1.03,4.32-1.57.72-.26,1.42-.53,2.13-.8.49-.19.98-.38,1.47-.56.68-.27,1.36-.54,2.03-.81.82-.33,1.65-.66,2.47-1,.86-.35,1.72-.71,2.57-1.07,2.33-.99,4.63-2.01,6.88-3.04.83-.38,1.64-.76,2.45-1.14.29-.14.57-.28.86-.41.86-.41,1.71-.82,2.56-1.24.85-.41,1.69-.83,2.52-1.26,1.2-.6,2.38-1.21,3.55-1.83,1.81-.94,3.59-1.91,5.34-2.88.12-.07.24-.14.35-.2.94-.52,1.86-1.05,2.78-1.58,2.77-1.6,5.47-3.23,8.1-4.89.86-.54,1.71-1.08,2.55-1.63.86-.55,1.71-1.11,2.55-1.68.72-.48,1.44-.96,2.15-1.44,6.37-4.36,12.32-8.87,17.85-13.47.49-.4.98-.81,1.46-1.22,1.28-1.08,2.53-2.16,3.77-3.25.69-.6,1.37-1.21,2.04-1.82.92-.83,1.82-1.66,2.71-2.49.82-.76,1.63-1.52,2.43-2.29.48-.46.96-.92,1.43-1.38.96-.93,1.9-1.87,2.83-2.8,4.97-5.01,9.51-10.03,13.65-14.99.51-.61,1.02-1.22,1.51-1.83,1-1.22,1.98-2.43,2.92-3.64.48-.6.95-1.21,1.41-1.81.47-.6.92-1.2,1.37-1.8.91-1.19,1.79-2.38,2.65-3.56,1.37-1.89,2.68-3.75,3.93-5.58.72-1.05,1.41-2.09,2.1-3.12,6.37-9.65,11.2-18.51,14.76-25.86.21-.43.41-.85.61-1.28,3.82-8,6.06-14.05,7.11-17.11.06-.16.11-.31.16-.46.39-1.15.57-1.77.57-1.77,0,0,44.23,158.67,214.42,86.56,4.57-1.94,8.8-3.77,12.69-5.51.32-.14.64-.28.95-.42,2.1-.94,4.11-1.86,6.02-2.74.76-.36,1.5-.7,2.23-1.05,2.77-1.31,5.33-2.55,7.67-3.74.92-.46,1.8-.92,2.65-1.36,9.56-5,15.13-8.88,17.47-11.96,0-.01.02-.02.02-.03.01,0,.01,0,.01,0h0s.01-.01.01-.01c.01-.01.01-.02.02-.03,0-.01.02-.02.02-.03.05-.06.09-.12.13-.18.14-.19.26-.39.37-.57.06-.1.11-.19.16-.28.15-.28.26-.55.35-.81-48.36,29.75-89.09,40.56-122.94,40.16ZM246.35,6.83c9.43,4.01,18.75,5.59,26.01,4.85-8.8,12.97-27.43,46.91-32.24,61.27-4.54,1.27-10.06,2.41-15.88,2.67,3.31-11.5,15.47-53.19,22.11-68.79Z"/>
    <ellipse class="cls-4" cx="1510.87" cy="63.24" rx="41.82" ry="5.01" transform="translate(310.79 983.31) rotate(-39.87)"/>
    <rect class="cls-14" x="1669.59" y="289.92" width="19.75" height="151.43" rx="2.67" ry="2.67" transform="translate(156.13 1161.72) rotate(-39.87)"/>
    <path class="cls-20" d="M1682.48,130.98c10.53,7.17,49.43,50.11,53,61.64,2.5,8.07-8.2,15.55-18,23.74.01,2.15,24.96-20.85-35-85.38Z"/>
    <rect class="cls-9" x="618.52" y="35.96" width="692.22" height="199.29" rx="67.05" ry="67.05"/>
    <rect class="cls-9" x="107.98" y="278.3" width="370.03" height="610.8"/>
    <rect class="cls-9" x="562.34" y="278.19" width="370.03" height="610.8"/>
    <rect class="cls-9" x="1000.02" y="278.47" width="370.03" height="610.8"/>
    <rect class="cls-9" x="1442.56" y="278.22" width="370.03" height="610.8"/>
    <text class="cls-3" transform="translate(689.06 110.6) scale(1.1 1)"><tspan x="0" y="0">SE</tspan><tspan class="cls-5" x="98.6" y="0">L</tspan><tspan x="141.71" y="0">C</tspan><tspan class="cls-5" x="193.25" y="0">T</tspan><tspan x="235.02" y="0">OR DE </tspan><tspan x="20.64" y="106.8">PERSONAJE</tspan></text>
  </g>
  <g id="Capa_2-2" data-name="Capa 2">
    <path class="cls-7" d="M66.81,1017.92c-5.31,20.66-17.32,45.28-43.3,63.04H1.2v-179.18c13.08-9.2,23.17-14.86,23.17-14.86,27.63,29.46,29.37,104.31,29.37,104.31l16.86-7.52c.38,6.78,0,19.49-3.79,34.21Z"/>
    <path class="cls-23" d="M181.97,1052.45c-1.6,9.36-6.07,19.1-11.97,28.51H1.2v-27.35c20.7-22.94,48.54-32.09,65.61-35.69,9.31-1.97,15.42-2.28,15.42-2.28l-8.22,19.13c38.97-12.46,107.96,17.68,107.96,17.68Z"/>
    <path class="cls-1" d="M1905.97,1080.96h-186.64c-5.2-8.69-9.1-17.61-10.57-26.21,0,0,68.99-30.15,107.96-17.69l-8.22-19.13s14.91.77,33.64,7.39c21.95,7.77,49.17,23.58,63.83,55.64Z"/>
    <path class="cls-23" d="M956.56,1080.96h-142.52c-3.92-36.62,6.83-80.42,6.83-80.42,40.39-.06,96.26,49.77,96.26,49.77l6.02-17.45c7.23,6.03,21.77,20.92,31.22,42.65.76,1.77,1.5,3.59,2.19,5.45Z"/>
    <path class="cls-1" d="M1094.69,1080.96h-142.52c.69-1.86,1.43-3.68,2.2-5.45,9.44-21.73,23.98-36.62,31.21-42.65l6.02,17.45s55.87-49.83,96.26-49.77c0,0,10.75,43.8,6.83,80.42Z"/>
    <path class="cls-1" d="M1107.13,1107.1s-.25,1.09-.8,3.03c-.53-.83-1.02-1.66-1.48-2.49l2.28-.54Z"/>
    <path class="cls-1" d="M667.99,1080.96h-31.19l-51.63-18.74,31.79,18.74h-108.09c-25.65-28.26-42.36-75.89-42.36-75.89,33.79-22.12,107.81-10.92,107.81-10.92l-4.5-17.9c17.76,2.08,75.03,16.52,93.23,78.19,2.37,8.01,4.07,16.83,4.94,26.52Z"/>
    <path class="cls-7" d="M809.63,1010.07s-5.98,43.31-22.95,70.89h-69.68l4.25-3.83-6.27,3.83h-59.02c1.13-9.95,3.65-18.75,7.09-26.52,14.47-32.78,45.11-47.12,56.47-50.85l-.71,15.53s59.22-21.65,90.82-9.05Z"/>
    <path class="cls-1" d="M321.33,1080.96h-143.68c4.63-48.45,44.02-79.79,44.02-79.79l4.44,20.34c24.46-32.8,98.11-48.4,98.11-48.4,16.77,34.63-1.16,101.6-2.89,107.85Z"/>
    <path class="cls-1" d="M339.53,1081.28c-.13.53-.28,1.08-.44,1.68h-13.88l6.74-.79,7.58-.89Z"/>
    <path class="cls-7" d="M472.98,1078.96h-141.36c.1-.27.21-.53.33-.79,9.43-22.19,24.25-37.37,31.57-43.48l6.02,17.45s55.87-49.84,96.26-49.78c0,0,10.02,40.83,7.18,76.6Z"/>
    <path class="cls-7" d="M1104.85,1107.64l2.28-.54s-.25,1.09-.8,3.03c-.53-.83-1.02-1.66-1.48-2.49Z"/>
    <path class="cls-7" d="M1242.83,1080.96h-145.6c-.97-9.54.32-16.31.32-16.31l16.49,5.95c-4.62-27.49,36.26-75.69,36.26-75.69,36.17,5.17,69.26,46.8,69.26,46.8l11.31-11.28c5.87,6.76,17.94,25.92,11.96,50.53Z"/>
    <path class="cls-1" d="M1400.7,1016.63s-2.96,39.04-16.08,64.33h-70.69l8.74-7.76-13.92,7.76h-46.28c-2.62-57.96,40.95-75.97,54.54-79.31l.2,15.01s53.57-15.31,83.49-.03Z"/>
    <path class="cls-23" d="M1401.57,1073.61l11.72,9.35h-13.1c.62-5.87,1.38-9.35,1.38-9.35Z"/>
    <path class="cls-23" d="M1549.73,1080.96h-131.91c1.05-40.61,45.66-95.79,45.66-95.79,36.58,17.12,65.95,85.99,65.95,85.99l12.87-13.24c2.19,4.7,5.25,12.77,7.43,23.04Z"/>
    <path class="cls-7" d="M1699.09,1080.96h-126.36c.43-21.46,3.65-48.33,15.48-64.89,0,0,66.57,21.82,84.36,54.05l7.34-17.93s10.77,10.93,19.18,28.77Z"/>
    <g>
      <path class="cls-13" d="M280.05,908.64v54.13h-52.77s-30.49-3.14,3.55-52.84l49.21-1.29Z"/>
      <path class="cls-13" d="M208.22,948.31c.09.76-32.17-56.01-32.17-56.01,0,0-5.11-5.96,0-14.3s12.77-20.43,12.77-20.43l-12.77-9.53,51.57-3.06,21.96,44.94-11.4-4.6s-33.02,38.47-29.96,62.99Z"/>
      <path class="cls-13" d="M314.77,858.56l45.3-29.63,28.88,44.16s14.07,27.23-46.16,25.95l-28.02-40.48Z"/>
      <path class="cls-13" d="M387.29,896.96c.58-.49-29.27,57.58-29.27,57.58,0,0-2.19,7.53-11.97,7.83s-24.08.5-24.08.5l-.99,15.9-30.79-41.49,25.59-42.97,2.4,12.06s50.27,6.58,69.11-9.4Z"/>
      <path class="cls-13" d="M250.86,852.66l-44.78-30.4,29.64-43.66s19.72-23.47,41.72,32.61l-26.57,41.44Z"/>
      <path class="cls-13" d="M258.38,770.95c-.68-.35,64.41,4.84,64.41,4.84,0,0,7.8-.88,11.83,8.03s9.73,22.03,9.73,22.03l15.06-5.21-26.43,44.39-49.51-7.07,10.21-6.85s-13.28-48.93-35.29-60.16Z"/>
    </g>
    <g>
      <path class="cls-13" d="M745.33,908.64v54.13h-52.77s-30.49-3.14,3.55-52.84l49.21-1.29Z"/>
      <path class="cls-13" d="M673.5,948.31c.09.76-32.17-56.01-32.17-56.01,0,0-5.11-5.96,0-14.3s12.77-20.43,12.77-20.43l-12.77-9.53,51.57-3.06,21.96,44.94-11.4-4.6s-33.02,38.47-29.96,62.99Z"/>
      <path class="cls-13" d="M780.05,858.56l45.3-29.63,28.88,44.16s14.07,27.23-46.16,25.95l-28.02-40.48Z"/>
      <path class="cls-13" d="M852.56,896.96c.58-.49-29.27,57.58-29.27,57.58,0,0-2.19,7.53-11.97,7.83s-24.08.5-24.08.5l-.99,15.9-30.79-41.49,25.59-42.97,2.4,12.06s50.27,6.58,69.11-9.4Z"/>
      <path class="cls-13" d="M716.13,852.66l-44.78-30.4,29.64-43.66s19.72-23.47,41.72,32.61l-26.57,41.44Z"/>
      <path class="cls-13" d="M723.65,770.95c-.68-.35,64.41,4.84,64.41,4.84,0,0,7.8-.88,11.83,8.03s9.73,22.03,9.73,22.03l15.06-5.21-26.43,44.39-49.51-7.07,10.21-6.85s-13.28-48.93-35.29-60.16Z"/>
    </g>
    <g>
      <path class="cls-13" d="M1183.01,908.64v54.13h-52.77s-30.49-3.14,3.55-52.84l49.21-1.29Z"/>
      <path class="cls-13" d="M1111.18,948.31c.09.76-32.17-56.01-32.17-56.01,0,0-5.11-5.96,0-14.3s12.77-20.43,12.77-20.43l-12.77-9.53,51.57-3.06,21.96,44.94-11.4-4.6s-33.02,38.47-29.96,62.99Z"/>
      <path class="cls-13" d="M1217.73,858.56l45.3-29.63,28.88,44.16s14.07,27.23-46.16,25.95l-28.02-40.48Z"/>
      <path class="cls-13" d="M1290.24,896.96c.58-.49-29.27,57.58-29.27,57.58,0,0-2.19,7.53-11.97,7.83s-24.08.5-24.08.5l-.99,15.9-30.79-41.49,25.59-42.97,2.4,12.06s50.27,6.58,69.11-9.4Z"/>
      <path class="cls-13" d="M1153.81,852.66l-44.78-30.4,29.64-43.66s19.72-23.47,41.72,32.61l-26.57,41.44Z"/>
      <path class="cls-13" d="M1161.33,770.95c-.68-.35,64.41,4.84,64.41,4.84,0,0,7.8-.88,11.83,8.03s9.73,22.03,9.73,22.03l15.06-5.21-26.43,44.39-49.51-7.07,10.21-6.85s-13.28-48.93-35.29-60.16Z"/>
    </g>
    <g>
      <path class="cls-13" d="M1625.54,908.64v54.13h-52.77s-30.49-3.14,3.55-52.84l49.21-1.29Z"/>
      <path class="cls-13" d="M1553.71,948.31c.09.76-32.17-56.01-32.17-56.01,0,0-5.11-5.96,0-14.3,5.11-8.34,12.77-20.43,12.77-20.43l-12.77-9.53,51.57-3.06,21.96,44.94-11.4-4.6s-33.02,38.47-29.96,62.99Z"/>
      <path class="cls-13" d="M1660.26,858.56l45.3-29.63,28.88,44.16s14.07,27.23-46.16,25.95l-28.02-40.48Z"/>
      <path class="cls-13" d="M1732.78,896.96c.58-.49-29.27,57.58-29.27,57.58,0,0-2.19,7.53-11.97,7.83s-24.08.5-24.08.5l-.99,15.9-30.79-41.49,25.59-42.97,2.4,12.06s50.27,6.58,69.11-9.4Z"/>
      <path class="cls-13" d="M1596.35,852.66l-44.78-30.4,29.64-43.66s19.72-23.47,41.72,32.61l-26.57,41.44Z"/>
      <path class="cls-13" d="M1603.87,770.95c-.68-.35,64.41,4.84,64.41,4.84,0,0,7.8-.88,11.83,8.03,4.03,8.91,9.73,22.03,9.73,22.03l15.06-5.21-26.43,44.39-49.51-7.07,10.21-6.85s-13.28-48.93-35.29-60.16Z"/>
    </g>
  </g>
</svg>