<?xml version="1.0" encoding="UTF-8"?>
<svg id="Capa_2" data-name="Capa 2" xmlns="http://www.w3.org/2000/svg" viewBox="0 0 564.5 873.82">
  <defs>
    <style>
      .cls-1 {
        fill: #335287;
      }

      .cls-2 {
        fill: #7e8691;
      }

      .cls-3 {
        fill: #ccaa8d;
      }

      .cls-4 {
        fill: #e0bea4;
      }

      .cls-5 {
        fill: #fffdff;
      }

      .cls-6 {
        fill: #163351;
      }

      .cls-7 {
        fill: #879caa;
      }

      .cls-8 {
        fill: #996556;
      }

      .cls-9 {
        fill: #e8eeef;
      }

      .cls-10 {
        fill: #b28777;
      }

      .cls-11 {
        fill: #b58774;
      }

      .cls-12 {
        fill: #cedeed;
      }

      .cls-13 {
        fill: #626872;
      }

      .cls-14 {
        fill: #38a4dd;
      }

      .cls-15 {
        fill: #a0bfd8;
      }

      .cls-16 {
        fill: #2e82c3;
      }

      .cls-17 {
        fill: #e4f2f4;
      }

      .cls-18 {
        fill: #8395b7;
      }

      .cls-19 {
        fill: #1873ac;
      }
    </style>
  </defs>
  <g id="Capa_1-2" data-name="Capa 1">
    <g>
      <polygon class="cls-4" points="221.82 136.91 286.4 128.78 347.5 136.13 294.91 157.4 246.57 146.57 221.82 136.91"/>
      <path class="cls-3" d="M291.04,211.32v-6.08c.65-.39,1.33-.83,1.93-1.44,2.32-2.32.39-1.55-.72-6.57-.41-1.87-.85-2.83-1.21-3.6v-9.43c.66-1.31,1.42-.9,1.16-1.66-.2-.6-.71-2.24-1.16-3.68v-4.84c.62-2.28,1.2-5.8,0-8.6v-6.1c.38-.74.77-1.13.77-1.13l-.77-.99v-3.87l.77-.55-.77-.56v-3.31l-69.22-11.99v26.68l.35,3.08c.69.61.83,1.62.34,2.39-.44.69-.5,1.54-.18,2.29l.17.39c.31.73.38,1.54.18,2.31l-.82,3.23c-.02.15-.03.3-.03.45v34.14l69.22,19v-13.38c.75-.63,1.56-1.57,1.93-2.87.53-1.85-.57-2.26-1.93-3.31Z"/>
      <path class="cls-10" d="M347.5,136.13l-56.46,12.76v38.97l-1.11.48,1.11,1.72v15.18s-1.16,2.43-.39,3.59c.12.18.25.35.39.51v10.1c-.33.13-.61.35-.65.75-.12,1.02-.12,1.93.65,2.25v2.22c-.89.62-1.57.53-.71,2.18.28.54.52.97.71,1.31v2.73l56.46-16.99v-29.96c-.29-.99-.77-2.86-.77-4.48s.48-2.06.77-2.18v-1l-.77-3.39s.48-.72.77-1.52v-1.68c-.77-.88-1.16,1.12-.39-2.99.44-2.32,0-.77.39-5.21v-25.34Z"/>
    </g>
    <g>
      <path class="cls-10" d="M9.88,149.39l173.83-47.74,62.77,113.37,3.77-.27-.24,6.65,24.46,44.17s7.06,5.33,6.83,9.86c-.04.71-.12,1.41-.22,2.08l16.26,29.37c1.09-.11,2.22.12,2.97,1.19,1.97,2.78,3.44,5.43,1.85,7.52l3.57,6.45c3.41.46,5.12-.8,5.44,5.27.11,2,.16,3.6.17,4.87l4.41,7.96-180.64,35.45-48.26-87.17c-.8-3.31-2.51-9.49-5.12-14.2s-4.63-5.27-5.61-5.19l-1.61-2.9-3.37-11.04s-2.47-1.38-4.54-3.25l-2.71-4.9c.68-3.72,4.96,1.53-3.76-9.27-4.92-6.1-1.25-2.25-9.44-14.58L9.88,149.39Z"/>
      <polygon class="cls-3" points="183.71 101.65 9.88 149.39 .97 217.53 172.01 184.57 183.71 101.65"/>
    </g>
    <g>
      <polygon class="cls-8" points="182.04 203.38 302.95 187.23 417.57 200.12 319.31 240.74 228.56 221.14 182.04 203.38"/>
      <polygon class="cls-3" points="273.95 185.16 293.97 149.61 434.76 160.06 417.57 200.12 273.95 185.16"/>
      <polygon class="cls-11" points="182.04 203.38 160.71 162.23 299.64 180.2 311.94 224.85 182.04 203.38"/>
    </g>
    <g>
      <path class="cls-3" d="M516.94,233.22l2.33-12.75c1.5-.56,3.11-1.24,4.61-2.27,5.76-3.98,1.4-3.1,1.01-14.07-.15-4.09-.69-6.27-1.16-8.02l3.62-19.78c1.88-2.5,3.31-1.33,3.07-3.04-.19-1.34-.64-4.98-1.02-8.18l1.86-10.16c2.17-4.55,4.74-11.71,3.3-18.05l2.34-12.8c1.08-1.4,2.06-2.08,2.06-2.08l-1.24-2.38,1.48-8.11,1.83-.86-1.41-1.47,1.27-6.94-140.62-51.71-10.24,55.98-.44,6.6c1.21,1.53,1.12,3.72-.2,5.15-1.18,1.27-1.65,3.04-1.26,4.73l.2.88c.38,1.65.2,3.38-.51,4.91l-2.97,6.46c-.1.31-.18.62-.24.94l-13.1,71.62,137.93,66.42,5.13-28.06c1.81-1.03,3.88-2.69,5.16-5.27,1.82-3.68-.33-4.95-2.78-7.7Z"/>
      <polygon class="cls-11" points="400.28 50.55 385.21 0 536.67 49.72 540.9 102.26 400.28 50.55"/>
    </g>
  </g>
  <g id="Capa_2-2" data-name="Capa 2">
    <g>
      <path class="cls-12" d="M234.16,219.44c-2.71-4.2-8.55-2.8-8.55-2.8l-38.84-81.78c1.92-.91,3.11-2.86,2.97-4.89-1.27-18.67-21.29-48.45-28.67-58.83-1.71-2.41-4.09-4.28-6.87-5.41l-27.84-11.27c-4.5-1.82-8.12-5.2-10.16-9.51l-5.93-12.48-18.38,8.73-.43.2-18.38,8.73,5.93,12.48c2.05,4.31,2.38,9.24.95,13.89l-8.85,28.7c-.89,2.87-.94,5.9-.15,8.75,3.39,12.28,13.82,46.61,27.49,59.39,1.49,1.4,3.75,1.7,5.67.79l38.84,81.78s-4.77,3.64-3.23,8.4c0,0,21.4,71.62,41.21,71.69,12.91.05,13.01-2.75,16.33-7.76,1.25-1.96,5.4-4.2,7.62-3.62,7.84,2.04,5.29,8.34,21.44.19,16.52-7.37,10.03-9.37,13.4-16.74.95-2.08,5.31-3.89,7.62-3.62,5.98.59,8.21,2.28,16.33-7.76,12.46-15.4-29.53-77.24-29.53-77.24Z"/>
      <path class="cls-15" d="M234.16,219.44c-2.71-4.2-8.55-2.8-8.55-2.8l-38.84-81.78c1.92-.91,3.11-2.86,2.97-4.89-1.27-18.67-21.29-48.45-28.67-58.83-1.71-2.41-4.09-4.28-6.87-5.41l-27.84-11.27c-4.5-1.82-8.12-5.2-10.16-9.51l-5.93-12.48-17.09,8.12-.22,1.63s.12.17.35.48l-14.95,14.01c7.47-3.1,16.5-4.86,21.82-5.71,8.56,9.47,23.64,23.32,39.17,24.09,11.83.58,25.94,22.08,30.49,41.92-4.29,8.86-19.06,30.34-67.71,56.05l67.34-33.21c-.7,1.71-1.62,3.26-2.77,4.6-14.81,17.33,32.08,81.52,39.86,81.26.53-.02,1.08.43,1.62,1.29l-41.68,19.8c26.27-10,40.13-8.38,45.81-6.71,4.62,21.42,8.63,61.37,8.63,81.52-3.14,1.01-9.24,2.32-15.35-.04,0,0,6.54,9.25,20.75,3.26,16.52-7.37,10.03-9.37,13.4-16.74.78-1.7,3.82-3.22,6.17-3.57,1.05-7.53.83-15.77-3-21.95,0,0,10.02,5.58,11.85,22,2.31-.77,4.89-2.86,8.93-7.85,12.46-15.4-29.53-77.24-29.53-77.24Z"/>
      <path class="cls-18" d="M237.81,316.83c1.12-2.48.15-4.88,1.94-8.77.78-1.7,3.82-3.22,6.17-3.57l-13.83-16.12c4.2,10.36,5.73,28.46,5.73,28.46Z"/>
      <path class="cls-6" d="M83.07,22.89c-11.61,5.52-20.43,11.24-19.7,12.79l10.64,22.4,42.06-19.98-10.64-22.4c-.73-1.55-10.74,1.67-22.36,7.19Z"/>
      <path class="cls-18" d="M221.41,220.7s7.7-6.4,12.54,2.28l13.93,26.32c-8.24-9.81-19.62-27.74-26.47-28.6Z"/>
      <rect class="cls-16" x="119.07" y="150.09" width="91.82" height="90.5" transform="translate(-67.85 89.68) rotate(-25.41)"/>
      <ellipse class="cls-9" cx="84.65" cy="64.39" rx="2.26" ry="7.78" transform="translate(-15.89 29.71) rotate(-18.23)"/>
      <path class="cls-9" d="M83.07,81.73c-4.16,14.87-7.25,32.01-3.65,27.92,2.81-3.19,9.43-43.13,3.65-27.92Z"/>
      <ellipse class="cls-9" cx="93.61" cy="143.81" rx="6.79" ry="23.86" transform="translate(-52.65 54.07) rotate(-25.41)"/>
      <ellipse class="cls-9" cx="167.94" cy="296.53" rx="8.41" ry="36.88" transform="translate(-110.98 100.73) rotate(-25.41)"/>
      <path class="cls-19" d="M190,233.55l35.86-17.03-38.83-81.75-34.86,16.56c13.21,21.2,32.89,56.02,37.82,82.22Z"/>
      <ellipse class="cls-1" cx="84.27" cy="25.41" rx="23.28" ry="2.79" transform="translate(-2.75 38.61) rotate(-25.41)"/>
      <rect class="cls-14" x="127.6" y="169.71" width="10.99" height="84.3" rx="5.5" ry="5.5" transform="translate(-78.03 77.59) rotate(-25.41)"/>
      <path class="cls-18" d="M167.35,85.79c4.68,5.33,19.68,33.89,20,40.6.23,4.7-6.58,7.24-13.01,10.3-.29,1.16,16.35-7.77-6.99-50.89Z"/>
    </g>
    <g>
      <path class="cls-12" d="M286.94,309.08c2.71-4.2,8.55-2.8,8.55-2.8l38.84-81.78c-1.92-.91-3.11-2.86-2.97-4.89,1.27-18.67,21.29-48.45,28.67-58.83,1.71-2.41,4.09-4.28,6.87-5.41l27.84-11.27c4.5-1.82,8.12-5.2,10.16-9.51l5.93-12.48,18.38,8.73.43.2,18.38,8.73-5.93,12.48c-2.05,4.31-2.38,9.24-.95,13.89l8.85,28.7c.89,2.87.94,5.9.15,8.75-3.39,12.28-13.82,46.61-27.49,59.39-1.49,1.4-3.75,1.7-5.67.79l-38.84,81.78s4.77,3.64,3.23,8.4c0,0-21.4,71.62-41.21,71.69-12.91.05-13.01-2.75-16.33-7.76-1.25-1.96-5.4-4.2-7.62-3.62-7.84,2.04-5.29,8.34-21.44.19-16.52-7.37-10.03-9.37-13.4-16.74-.95-2.08-5.31-3.89-7.62-3.62-5.98.59-8.21,2.28-16.33-7.76-12.46-15.4,29.53-77.24,29.53-77.24Z"/>
      <path class="cls-15" d="M286.94,309.08c2.71-4.2,8.55-2.8,8.55-2.8l38.84-81.78c-1.92-.91-3.11-2.86-2.97-4.89,1.27-18.67,21.29-48.45,28.67-58.83,1.71-2.41,4.09-4.28,6.87-5.41l27.84-11.27c4.5-1.82,8.12-5.2,10.16-9.51l5.93-12.48,17.09,8.12.22,1.63s-.12.17-.35.48l14.95,14.01c-7.47-3.1-16.5-4.86-21.82-5.71-8.56,9.47-23.64,23.32-39.17,24.09-11.83.58-25.94,22.08-30.49,41.92,4.29,8.86,19.06,30.34,67.71,56.05l-67.34-33.21c.7,1.71,1.62,3.26,2.77,4.6,14.81,17.33-32.08,81.52-39.86,81.26-.53-.02-1.08.43-1.62,1.29l41.68,19.8c-26.27-10-40.13-8.38-45.81-6.71-4.62,21.42-8.63,61.37-8.63,81.52,3.14,1.01,9.24,2.32,15.35-.04,0,0-6.54,9.25-20.75,3.26-16.52-7.37-10.03-9.37-13.4-16.74-.78-1.7-3.82-3.22-6.17-3.57-1.05-7.53-.83-15.77,3-21.95,0,0-10.02,5.58-11.85,22-2.31-.77-4.89-2.86-8.93-7.85-12.46-15.4,29.53-77.24,29.53-77.24Z"/>
      <path class="cls-18" d="M283.29,406.47c-1.12-2.48-.15-4.88-1.94-8.77-.78-1.7-3.82-3.22-6.17-3.57l13.83-16.12c-4.2,10.36-5.73,28.46-5.73,28.46Z"/>
      <path class="cls-6" d="M438.03,112.53c11.61,5.52,20.43,11.24,19.7,12.79l-10.64,22.4-42.06-19.98,10.64-22.4c.73-1.55,10.74,1.67,22.36,7.19Z"/>
      <path class="cls-18" d="M299.69,310.34s-7.7-6.4-12.54,2.28l-13.93,26.32c8.24-9.81,19.62-27.74,26.47-28.6Z"/>
      <rect class="cls-16" x="310.2" y="239.74" width="91.82" height="90.5" transform="translate(555.52 695.2) rotate(-154.59)"/>
      <ellipse class="cls-9" cx="436.45" cy="154.03" rx="7.78" ry="2.26" transform="translate(153.64 520.4) rotate(-71.77)"/>
      <path class="cls-9" d="M438.02,171.38c4.16,14.87,7.25,32.01,3.65,27.92-2.81-3.19-9.43-43.13-3.65-27.92Z"/>
      <ellipse class="cls-9" cx="427.49" cy="233.45" rx="23.86" ry="6.79" transform="translate(33.2 519.43) rotate(-64.59)"/>
      <ellipse class="cls-9" cx="353.16" cy="386.17" rx="36.88" ry="8.41" transform="translate(-147.19 539.49) rotate(-64.59)"/>
      <path class="cls-19" d="M331.1,323.2l-35.86-17.03,38.83-81.75,34.86,16.56c-13.21,21.2-32.89,56.02-37.82,82.22Z"/>
      <ellipse class="cls-1" cx="436.83" cy="115.05" rx="2.79" ry="23.28" transform="translate(145.49 460.27) rotate(-64.59)"/>
      <rect class="cls-14" x="382.51" y="259.35" width="10.99" height="84.3" rx="5.5" ry="5.5" transform="translate(609.12 740.32) rotate(-154.59)"/>
      <path class="cls-18" d="M353.74,175.44c-4.68,5.33-19.68,33.89-20,40.6-.23,4.7,6.58,7.24,13.01,10.3.29,1.16-16.35-7.77,6.99-50.89Z"/>
    </g>
    <g>
      <path class="cls-12" d="M228.49,260.28c4.16-1.67,3.92-7.04,3.92-7.04l78.51-20.19c.47,1.84,1.98,3.22,3.8,3.44,16.63,2.07,46.22-10.45,56.61-15.16,2.41-1.09,4.46-2.86,5.93-5.12l14.66-22.55c2.37-3.65,5.96-6.25,10.09-7.31l11.98-3.08-4.54-17.64-.11-.41-4.54-17.64-11.98,3.08c-4.13,1.06-8.53.52-12.37-1.53l-23.71-12.68c-2.37-1.27-5.03-1.83-7.66-1.62-11.37.89-43.33,4.19-56.9,14.03-1.48,1.07-2.14,3.01-1.66,4.85l-78.51,20.19s-2.39-4.82-6.83-4.27c0,0-66.61,6.59-70.05,23.99-2.24,11.34.2,11.91,4.03,15.68,1.51,1.43,2.77,5.47,1.88,7.32-3.13,6.54-8.24,3.23-3.83,18.82,3.66,15.78,6.53,10.41,12.43,14.64,1.67,1.19,2.52,5.33,1.88,7.32-1.54,5.15-3.4,6.83,4.03,15.68,11.41,13.58,72.94-12.78,72.94-12.78Z"/>
      <path class="cls-15" d="M228.49,260.28c4.16-1.67,3.92-7.04,3.92-7.04l78.51-20.19c.47,1.84,1.98,3.22,3.8,3.44,16.63,2.07,46.22-10.45,56.61-15.16,2.41-1.09,4.46-2.86,5.93-5.12l14.66-22.55c2.37-3.65,5.96-6.25,10.09-7.31l11.98-3.08-4.22-16.41-1.39-.47s-.17.08-.48.23l-9.76-15.53c1.45,7.1,1.46,15.34,1.29,20.15-9.79,5.91-24.53,16.8-27.86,30.33-2.53,10.3-23.84,19.04-42.05,19.65-7.05-5.29-23.42-21.93-37.72-69.08l17.7,64.86c-1.38-.91-2.59-1.98-3.57-3.22-12.7-15.97-77.13,14.29-78.23,21.17-.07.47-.56.87-1.41,1.21l-10.29-40.02c4.31,24.8.52,36.71-1.92,41.42-19.62.41-55.42-2.88-73.13-6.32-.35-2.93-.46-8.52,2.66-13.49,0,0-9.24,4.17-6.41,17.69,3.66,15.78,6.53,10.41,12.43,14.64,1.36.97,2.17,3.9,2.09,6.03,6.44,2.2,13.72,3.42,19.81,1.11,0,0-6.62,7.85-21.36,6.66.28,2.16,1.68,4.79,5.38,9.19,11.41,13.58,72.94-12.78,72.94-12.78Z"/>
      <path class="cls-18" d="M142.26,246.87c1.99,1.41,4.26.97,7.38,3.2,1.36.97,2.17,3.9,2.09,6.03l16.53-9.41c-9.82,1.93-26,.18-26,.18Z"/>
      <path class="cls-6" d="M427.05,161c-2.87-11.15-6.4-19.88-7.88-19.5l-21.5,5.53,10.38,40.38,21.5-5.53c1.48-.38.36-9.73-2.5-20.88Z"/>
      <path class="cls-18" d="M229.57,248.86s4.31,7.86-4.14,10.63l-25.51,7.76c10.03-5.57,27.73-12.51,29.66-18.39Z"/>
      <rect class="cls-16" x="220.37" y="163.06" width="82.22" height="81.04" transform="translate(393.52 -100.36) rotate(75.58)"/>
      <ellipse class="cls-9" cx="390.3" cy="155.31" rx="6.97" ry="2.03" transform="translate(-16.46 50.44) rotate(-7.24)"/>
      <path class="cls-9" d="M375.32,150.97c-12.37-6.19-26.9-11.83-23.92-7.97,2.32,3.01,36.31,15.65,23.92,7.97Z"/>
      <ellipse class="cls-9" cx="318.96" cy="149.64" rx="21.37" ry="6.08" transform="translate(-27.22 84.16) rotate(-14.42)"/>
      <ellipse class="cls-9" cx="172.03" cy="188.92" rx="33.03" ry="7.53" transform="translate(-41.63 48.8) rotate(-14.42)"/>
      <path class="cls-19" d="M223.62,219.06l8.85,34.43,78.48-20.18-8.61-33.47c-20.89,7.99-54.85,19.36-78.73,19.22Z"/>
      <ellipse class="cls-1" cx="424.63" cy="161.63" rx="2.5" ry="20.85" transform="translate(-26.87 110.85) rotate(-14.42)"/>
      <rect class="cls-14" x="247.48" y="134.99" width="9.84" height="75.49" rx="4.92" ry="4.92" transform="translate(356.83 -114.74) rotate(75.58)"/>
      <path class="cls-18" d="M357.38,224.36c-5.48,3.2-33.15,11.51-39.1,10.65-4.17-.6-5.24-7.02-6.83-13.19-.97-.46,4.04,15.7,45.93,2.54Z"/>
    </g>
    <g>
      <polygon class="cls-7" points="535.74 260.39 493.74 873.82 77.95 873.82 39.5 312.31 35.96 260.39 535.74 260.39"/>
      <polygon class="cls-17" points="146.24 861.83 85.14 861.83 55.13 416.2 71.91 416.2 146.24 861.83"/>
      <path class="cls-13" d="M535.74,260.39l-42,613.42h-53.41l43.15-560.69s-325.47-1.68-443.98-.82l-3.55-51.92h499.78Z"/>
      <polygon class="cls-7" points="564.5 281.97 0 281.97 .1 198.48 564.4 198.48 564.5 281.97"/>
      <path class="cls-2" d="M564.5,281.97h-75.41s-27.95-41.28-55.8-83.49h131.12l.1,83.49Z"/>
      <g>
        <g>
          <path class="cls-5" d="M241.81,435.15c-1.7.42,56.05,43.79,68.31,91.09l-22.77,15.76h71.06l30.54-68.31-19.27,10.51-22.77-36.78s-19.27-33.28-105.1-12.26Z"/>
          <path class="cls-5" d="M206.77,452.66l-20.64,47.45,59.18,27.87,24.52-54.3s-28.03-54.3-63.06-21.02Z"/>
        </g>
        <g>
          <path class="cls-5" d="M420.39,606.11c.51-1.68-66.26,25.87-113.19,12.29l-1.94-27.63-36.25,61.11,43.18,61.12.79-21.93,43.25-.82s38.45.41,64.16-84.14Z"/>
          <path class="cls-5" d="M423.19,567.04l-30.28-41.96-54.16,36.68,34.19,48.79s61,3.6,50.25-43.51Z"/>
        </g>
        <g>
          <path class="cls-5" d="M178.14,669.44c1.15,1.32,13.39-69.86,49.88-102.35l24.42,13.07-32.42-63.23-74.72,4,18.14,12.35-22.34,37.05s-20.82,32.33,37.05,99.11Z"/>
          <path class="cls-5" d="M209.71,692.62l51.64-3.29-2.2-65.37-59.51,2.96s-35.53,49.72,10.07,65.7Z"/>
        </g>
      </g>
    </g>
  </g>
</svg>