<?xml version="1.0" encoding="UTF-8"?>
<svg id="Capa_2" data-name="Capa 2" xmlns="http://www.w3.org/2000/svg" viewBox="0 0 754.5 489.82">
  <defs>
    <style>
      .cls-1 {
        fill: #e8a603;
      }

      .cls-2 {
        fill: #feda00;
      }

      .cls-3 {
        fill: #825c0f;
      }

      .cls-4 {
        fill: #d80;
      }
    </style>
  </defs>
  <g id="Capa_4" data-name="Capa 4">
    <g>
      <path class="cls-4" d="M520.04,280.08s73.98,43.2,135.48,13.71c61.5-29.49,86.06,47.86-.38,64.02-86.44,16.16-152.42,9.55-152.28-26.47.14-36.03,17.17-51.26,17.17-51.26Z"/>
      <path class="cls-4" d="M336.18,260.44s-122.81,25.91-169.59,23.21-84.12,33.4,12.57,57.37c96.69,23.97,159.39-8.74,171.09-39.74,11.7-31-14.07-40.83-14.07-40.83Z"/>
      <path class="cls-2" d="M424.21,110.87s9.38-74.19,43.01-103.85l74.87,43.82s-62.54,68.59-59.22,78.61c0,0,51.57,36.94,43.49,176.49-8.08,139.55,377.88,97.44,161.25,160.72-216.63,63.28-247.74-135.41-247.74-135.41,0,0-83.46,196.4-352.72,152.05-269.26-44.35,166.64-69.22,218.87-168.97,52.23-99.75,46.25-179.67,118.2-203.46Z"/>
      <path class="cls-1" d="M527.16,305.14c8.08-139.55-43.49-176.49-43.49-176.49-3.31-10.02,59.22-78.61,59.22-78.61l-48.05-28.12-3.29,25.6-23.72,54.73-12.29,31.4-11.43-5.82s-11.65,130.84-17.57,182.42c-9.92,8.03-26.85,19.23-50.46,24.67-25.35,5.85-46.41,2.29-57.29-.34,20.37,7,37.78,9.26,49.97,9.98,16,.95,32.36,1.91,44.57-2.36-34.79,33.23-154.94,121.57-336.65,117.36,51.27-14.93,94.76-41.92,94.76-41.92-79.38,32.49-136.52,32.54-166.27,28.8-9.02,7.59-4.75,14.9,19.72,22.54h0c.85.26,1.72.53,2.61.79.05.01.09.03.14.04.41.12.84.25,1.26.37.07.02.14.04.22.06.43.12.86.24,1.29.37.04.01.09.02.13.04,1.85.52,3.81,1.04,5.85,1.56.11.03.23.06.34.09.43.11.87.22,1.3.33.15.04.31.08.46.12.43.11.86.21,1.29.32.17.04.35.08.52.13.44.11.88.21,1.32.32.14.03.27.06.41.1,1.49.35,3.03.71,4.61,1.07.2.05.4.09.6.14.42.09.85.19,1.28.28.27.06.53.12.8.18.41.09.83.18,1.25.27.29.06.59.13.89.19.41.09.81.17,1.23.26.32.07.65.14.98.21.4.08.81.17,1.21.25.37.08.74.15,1.11.23.67.14,1.34.27,2.02.41.42.08.84.17,1.26.25.37.07.76.15,1.14.22.42.08.83.16,1.26.25.38.07.76.15,1.14.22.44.08.88.17,1.32.25.37.07.74.14,1.12.21.47.09.94.18,1.41.27.36.07.73.14,1.1.21.54.1,1.09.2,1.63.3.3.06.6.11.91.17.84.15,1.69.31,2.55.46.24.04.49.09.73.13.65.12,1.29.23,1.95.35.33.06.66.12,1,.18.58.1,1.16.2,1.75.31.35.06.71.12,1.06.18.59.1,1.18.2,1.78.31.35.06.71.12,1.06.18.64.11,1.29.22,1.94.33.3.05.6.1.91.15.96.16,1.93.32,2.92.48,1.81.3,3.6.58,5.39.86,221.87,33.89,325.05-115.15,349.78-158.54,10.76-45.13,2.9-81.48,21.74-128.98,1.03-2.61,3.66-4.32,5.69-6.42,6.63-5.27,20.09-14.81,28.26-10.22,2.48,1.39,4.5,4.05,5.72,8.51,6.25,22.93-37.32,158.24,28.69,186.06,66,27.82,127.81,83.87,102.76,90.17-14.63,3.68-43.84,5.63-58.56,11.8h0c.77.13,1.56.25,2.34.37.26.04.51.08.77.12.74.11,1.49.22,2.24.32.29.04.58.08.88.12.76.1,1.51.2,2.28.29.22.03.45.05.67.08,2.53.29,5.11.53,7.73.73.31.02.63.05.94.07.73.05,1.47.09,2.21.14.39.02.79.04,1.18.06.72.04,1.45.07,2.18.1.41.02.82.03,1.23.04.74.03,1.48.05,2.22.07.32,0,.64.01.96.02,1.47.03,2.95.04,4.44.04.43,0,.85,0,1.29,0,.69,0,1.39-.02,2.08-.03.53,0,1.05-.02,1.58-.03.68-.02,1.36-.04,2.04-.06.56-.02,1.12-.04,1.69-.06.67-.03,1.33-.06,2.01-.09.62-.03,1.24-.07,1.86-.1.63-.04,1.26-.07,1.9-.11,1.17-.08,2.35-.16,3.54-.26.59-.05,1.18-.1,1.77-.15.71-.06,1.43-.13,2.14-.19.62-.06,1.24-.12,1.86-.19.71-.07,1.42-.15,2.14-.23.61-.07,1.23-.14,1.84-.21.77-.09,1.54-.19,2.31-.29.57-.07,1.14-.14,1.71-.22,1.08-.15,2.18-.3,3.27-.46.5-.07.99-.15,1.49-.22,1.1-.17,2.19-.34,3.3-.52.53-.09,1.07-.18,1.61-.27.87-.15,1.75-.3,2.63-.46.57-.1,1.14-.21,1.72-.32.88-.16,1.77-.33,2.66-.51.55-.11,1.1-.21,1.65-.32,1.04-.21,2.08-.43,3.12-.65.4-.09.81-.17,1.21-.25,1.44-.31,2.89-.63,4.34-.97.39-.09.79-.19,1.18-.28,1.09-.26,2.19-.52,3.29-.79.54-.13,1.07-.27,1.61-.4.99-.25,1.98-.5,2.98-.76.56-.14,1.11-.29,1.67-.44,1.04-.28,2.09-.56,3.15-.85.49-.13.98-.27,1.47-.4,1.54-.43,3.08-.87,4.64-1.32,216.63-63.28-169.33-21.17-161.25-160.72Z"/>
      <path class="cls-3" d="M443.89,332.08l13.25-194.79c6.31.2,13.37-.74,21.24-3.22,11.07,15.95,28.51,62.7,28.51,62.7,2.88-25.43-17.64-54.61-24.83-63.95,1.07-.39,2.16-.82,3.27-1.27-1.55-1.45-2.46-2.1-2.46-2.1-.23-.7-.13-1.7.24-2.93-.15.03-.31.07-.47.1,7.09-19.28,40.55-56.59,53.66-70.75,2.52-1.16,4.51-2.83,5.8-5.03,6.11-10.43-5.7-28.7-26.38-40.8-20.67-12.1-42.38-13.45-48.49-3.02-1.4,2.39-1.85,5.2-1.47,8.24-9.07,12.18-20.25,31.86-25.09,43.25-5.28,12.41-11.78,30.75-15.8,54.56-.5-.62-.99-1.25-1.47-1.92-2.27.77-4.47,1.6-6.59,2.48,1.17,1.76,2.54,3.62,4.13,5.52-10.66,5.61-41.13,23.41-49.12,47.53,0,0,34.75-34.46,51.67-44.69,6.4,6.68,15.58,13.03,28.13,14.82-1.86,28.16-7.61,175.09-22.13,207.2,0,0-51.6,59.83-105.66,95.49-46.39,30.6-170.05,50.16-322.2,18.93,19.66,8.21,48.89,18.83,85.51,24.86,269.26,44.35,352.72-152.05,352.72-152.05,0,0,31.11,198.69,247.74,135.41,43.35-12.66,62.57-21.1,65.64-27.63-246.26,114.43-309.35-106.95-309.35-106.95ZM477.45,127.58c-5.69.9-12.54,1.49-19.64.98,5.65-13.47,26.31-62.3,36.58-80.28,10.86,6.2,21.95,9.44,30.85,9.57-12.52,14.48-39.92,53-47.8,69.73ZM428.36,116.82c.88-13.32,4.08-34.15,15.52-56.68,7.46-14.68,15.83-29.8,23.24-39.62,3.15,8.14,11.09,17.2,22.15,24.58-7.45,15.47-26.07,55.47-33.27,83.29-9.74-.97-19.75-4.15-27.63-11.57Z"/>
    </g>
  </g>
</svg>