<?xml version="1.0" encoding="UTF-8"?>
<svg id="Capa_2" data-name="Capa 2" xmlns="http://www.w3.org/2000/svg" viewBox="0 0 249.33 746.03">
  <defs>
    <style>
      .cls-1 {
        fill: #335287;
      }

      .cls-2 {
        fill: #163351;
      }

      .cls-3 {
        fill: #e8eeef;
      }

      .cls-4 {
        fill: #cedeed;
      }

      .cls-5 {
        fill: #38a4dd;
      }

      .cls-6 {
        fill: #a0bfd8;
      }

      .cls-7 {
        fill: #2e82c3;
      }

      .cls-8 {
        fill: #8395b7;
      }

      .cls-9 {
        fill: #1873ac;
      }
    </style>
  </defs>
  <g id="Capa_2-2" data-name="Capa 2">
    <g>
      <path class="cls-4" d="M241.92,541.68c-1.38-11.08-14.47-13.92-14.47-13.92l1.19-202.08c4.73.03,9.01-2.73,10.71-6.96,15.55-38.78,4.16-118.05-.6-146.08-1.1-6.5-4.06-12.58-8.57-17.55l-45.04-49.65c-7.29-8.03-11.27-18.33-11.21-28.97l.18-30.83-45.41-.27h-1.05s-45.41-.27-45.41-.27l-.18,30.83c-.06,10.64-4.17,20.89-11.55,28.84l-45.62,49.11c-4.57,4.92-7.6,10.96-8.78,17.44-5.08,27.98-17.41,107.11-2.32,146.07,1.65,4.25,5.9,7.06,10.63,7.09l-1.19,202.08s-13.13,2.69-14.64,13.75c0,0-26.41,164.76,13.35,184.1,25.91,12.61,28.83,7.09,40.35.24,4.41-2.74,14.93-3.2,18.83.11,13.79,11.7,2.55,21.91,42.93,21.17,40.36,1.21,29.25-9.13,43.17-20.67,3.94-3.26,14.45-2.68,18.83.11,11.44,6.99,14.29,12.54,40.35.24,39.99-18.88,15.52-183.93,15.52-183.93Z"/>
      <path class="cls-6" d="M241.92,541.68c-1.38-11.08-14.47-13.92-14.47-13.92l1.19-202.08c4.73.03,9.01-2.73,10.71-6.96,15.55-38.78,4.16-118.05-.6-146.08-1.1-6.5-4.06-12.58-8.57-17.55l-45.04-49.65c-7.29-8.03-11.27-18.33-11.21-28.97l.18-30.83-42.24-.25-2.02,3.05s.08.46.24,1.3l-43.63,13.67c18.03,1.02,37.9,6.23,49.39,9.68,8.03,27.35,24.91,69.8,55.41,86.41,23.21,12.64,30.75,69.55,20.65,113.84-17.22,13.65-67.74,42.52-190.48,47.05l167.58-1.48c-3.07,2.75-6.41,4.98-10.02,6.56-46.57,20.48-14.55,195.01,1.36,202.02,1.09.48,1.74,1.91,2.02,4.16l-103-.61c62.51,5.36,88.82,22.06,98.62,30.92-11.47,47.56-42.14,131.76-61.68,172.26-7.29-1.02-20.83-4.31-30.83-14.98,0,0,4.18,24.93,38.56,26.68,40.36,1.21,29.25-9.13,43.17-20.67,3.21-2.66,10.79-2.76,15.86-1.2,9.4-14.12,16.95-30.91,15.25-47.05,0,0,14.73,20.94,2.5,55.71,5.39.7,12.61-1,25.57-7.12,39.99-18.88,15.52-183.93,15.52-183.93Z"/>
      <path class="cls-8" d="M154.83,741.02c4.67-3.9,5.04-9.66,12.4-15.76,3.21-2.66,10.79-2.76,15.86-1.2l-12.19-45.82c-1.59,24.9-16.07,62.78-16.07,62.78Z"/>
      <path class="cls-2" d="M128.7,0c-28.7-.17-51.98,2.79-52,6.61l-.33,55.34,103.92.61.33-55.34c.02-3.82-23.22-7.05-51.92-7.22Z"/>
      <path class="cls-8" d="M215.06,531.84s21.68-5.41,23,16.74l2.5,66.43c-7.05-27.71-12.55-74.79-25.49-83.17Z"/>
      <rect class="cls-7" x="23.71" y="325.15" width="204.96" height="202.01" transform="translate(2.51 -.74) rotate(.34)"/>
      <ellipse class="cls-3" cx="91.64" cy="84.97" rx="17.38" ry="5.05" transform="translate(-4.59 164.7) rotate(-82.48)"/>
      <path class="cls-3" d="M71.66,118.32c-22.78,25.87-45.6,57.33-34.41,52.59,8.73-3.69,60.78-77.58,34.41-52.59Z"/>
      <ellipse class="cls-3" cx="32.66" cy="253.34" rx="53.27" ry="15.16" transform="translate(-220.87 284.51) rotate(-89.66)"/>
      <ellipse class="cls-3" cx="34.04" cy="632.47" rx="82.33" ry="18.76" transform="translate(-598.62 662.78) rotate(-89.66)"/>
      <path class="cls-9" d="M139.45,527.24l88.62.52,1.19-202.01-86.14-.51c6,55.43,11.82,144.52-3.67,201.99Z"/>
      <ellipse class="cls-1" cx="128.66" cy="6.23" rx="6.23" ry="51.96" transform="translate(121.67 134.86) rotate(-89.66)"/>
      <rect class="cls-5" x="33.79" y="334.36" width="24.54" height="188.17" rx="8.5" ry="8.5" transform="translate(2.52 -.26) rotate(.34)"/>
      <path class="cls-8" d="M237.17,208.19c4.24,15.25,6.7,87.21.85,101.01-4.1,9.67-20.26,8.18-36.13,8.09-1.71,2.05,40.41.24,35.28-109.1Z"/>
    </g>
  </g>
</svg>