<?xml version="1.0" encoding="UTF-8"?>
<svg id="Capa_2" data-name="Capa 2" xmlns="http://www.w3.org/2000/svg" viewBox="0 0 906.15 738">
  <defs>
    <style>
      .cls-1 {
        fill: #ccaa8d;
      }

      .cls-2 {
        fill: #996556;
      }

      .cls-3 {
        fill: #b28777;
      }

      .cls-4 {
        fill: #b58774;
      }
    </style>
  </defs>
  <g id="Capa_1-2" data-name="Capa 1">
    <g>
      <polygon class="cls-2" points="67.73 170.49 457.75 121.44 826.75 165.82 509.13 294.27 217.2 228.87 67.73 170.49"/>
      <path class="cls-1" d="M485.77,619.89v-36.7c3.9-2.33,8.03-5.02,11.68-8.68,14.01-14.01,2.34-9.34-4.36-39.7-2.5-11.32-5.12-17.12-7.31-21.76v-56.94c3.96-7.92,8.55-5.41,7.01-10.04-1.21-3.63-4.31-13.55-7.01-22.25v-29.25c3.72-13.77,7.22-35.04,0-51.95v-36.84c2.29-4.46,4.67-6.84,4.67-6.84l-4.67-6.01v-23.35l4.67-3.34-4.67-3.38v-19.98L67.73,170.49v161.15l2.14,18.62c4.15,3.66,5.03,9.79,2.06,14.46-2.63,4.14-3.04,9.32-1.11,13.82l1.01,2.35c1.89,4.4,2.27,9.31,1.08,13.95l-4.98,19.51c-.13.91-.2,1.82-.2,2.74v206.17l418.04,114.74v-80.78c4.52-3.8,9.44-9.47,11.68-17.31,3.19-11.17-3.44-13.62-11.68-20.02Z"/>
      <polygon class="cls-1" points="364.33 114.04 429.72 0 883.14 37.17 826.75 165.82 364.33 114.04"/>
      <path class="cls-3" d="M826.75,165.82l-340.97,77.07v235.34l-6.68,2.9,6.68,10.36v91.7s-7.01,14.68-2.34,21.69c.73,1.1,1.52,2.13,2.34,3.11v60.97c-1.97.78-3.66,2.14-3.94,4.51-.73,6.15-.73,11.65,3.94,13.57v13.4c-5.37,3.72-9.47,3.22-4.3,13.15,1.71,3.28,3.12,5.86,4.3,7.89v16.52l340.97-102.59v-180.95c-1.76-5.96-4.67-17.29-4.67-27.07s2.91-12.45,4.67-13.18v-6.03l-4.67-20.5s2.91-4.37,4.67-9.16v-10.17c-4.67-5.31-7,6.79-2.34-18.04,2.63-14.01,0-4.67,2.34-31.47v-153.03Z"/>
      <polygon class="cls-1" points="485.77 242.89 826.75 165.82 906.15 266.24 583.86 364.33 485.77 242.89"/>
      <polygon class="cls-4" points="67.73 170.49 0 37.37 447.24 98.7 485.77 242.89 67.73 170.49"/>
    </g>
  </g>
</svg>