<?xml version="1.0" encoding="UTF-8"?>
<svg id="Capa_2" data-name="Capa 2" xmlns="http://www.w3.org/2000/svg" viewBox="0 0 725.73 242.94">
  <defs>
    <style>
      .cls-1 {
        fill: #fff;
      }

      .cls-2 {
        fill: #bcbec0;
      }

      .cls-3 {
        fill: #e7e6e9;
      }
    </style>
  </defs>
  <g id="Capa_4" data-name="Capa 4">
    <g>
      <path class="cls-3" d="M20.27,15.48S-9.73,55.48,3.27,88.48s24,30,24,30c0,0-39.27,33.91-13.63,78.96,25.63,45.04,47.77,23.65,73.7,8.35s92.93-52.3,118.93-54.3,196.74-11.79,253.87,5.1c57.13,16.9,110.95,20.93,166.04,67.91,55.09,46.99,100.96-6.11,99.52-44.56-1.43-38.45-46.43-38.23-46.43-38.23,0,0,46.41-14.74,27.2-69.48-19.2-54.74-86.2,17.26-112.2,21.26s-325,5-399-9-86.13-26.26-105.57-57.63S44.27-8.52,20.27,15.48Z"/>
      <path class="cls-2" d="M91.27,65.48s-28-29-38-6-16,56-31,27-9-43,11-52,35-13,47,5,26,28,11,26Z"/>
      <path class="cls-2" d="M82.27,101.48l-5.09-3.64s-63.91,1.64-15.91,12.64,63,13,65,11,5-14,5-17-4-10-18-4-31,1-31,1Z"/>
      <path class="cls-2" d="M59.27,133.48s-33.22,33-30.61,45c2.61,12,7.61,3,6.61,11s-14.26,27-19.13-11c-4.87-38,31.13-68,43.13-45Z"/>
      <path class="cls-2" d="M687.27,92.48s-43-8-42-13,20-27,36-21,24,21,25,24-1,39-22,42,6,1,3-32Z"/>
      <path class="cls-2" d="M576.27,136.48s58,12,72,4,24.19-12.83,27.59-11.91-15.59,16.91-26.59,18.91-77,14-73-11Z"/>
      <path class="cls-2" d="M668.27,155.48s33,42,32,50-30,18-30,20,32,10,40-19,7-61-42-51Z"/>
      <path class="cls-1" d="M109.27,152.48s29-11,31-5-23,27-34,23-4-15,3-18Z"/>
      <path class="cls-1" d="M184.27,136.48s18.74-12.63,35.87-14.31c17.13-1.69,290.13-1.69,316.13,24.31s-11.17,12.26-15.09,7.13-319.91-21.13-336.91-17.13Z"/>
      <path class="cls-1" d="M573.27,158.48s-10,29,19,37,46.82,15.96,33.91-9.52-40.91-33.48-52.91-27.48Z"/>
    </g>
  </g>
</svg>