<?xml version="1.0" encoding="UTF-8"?>
<svg id="Capa_2" data-name="Capa 2" xmlns="http://www.w3.org/2000/svg" viewBox="0 0 573.61 818.34">
  <defs>
    <style>
      .cls-1 {
        fill: #1e7c27;
      }

      .cls-2 {
        fill: #298e2b;
      }

      .cls-3 {
        fill: #fff;
      }

      .cls-4 {
        fill: #fffdff;
      }

      .cls-5 {
        fill: #bcbec0;
      }

      .cls-6 {
        fill: #3da543;
      }

      .cls-7 {
        fill: #e8a603;
      }

      .cls-8 {
        fill: #e7e6e9;
      }

      .cls-9 {
        fill: #feda00;
      }

      .cls-10 {
        fill: #5aba5c;
      }

      .cls-11 {
        fill: #825c0f;
      }
    </style>
  </defs>
  <g id="Capa_4" data-name="Capa 4">
    <g>
      <path class="cls-9" d="M261.97,70.02s17.41-24.98,35.14-29.31l18.71,29.95s-35.51,12.91-36.21,17.15c0,0,11.61,23.07-17.69,71.85-29.3,48.78,117.81,106.57,27.75,88.43-90.06-18.14-63.72-95.65-63.72-95.65,0,0-67.22,55.03-155.91-11.86-88.69-66.89,73.16,6.55,110.85-19.54,37.69-26.09,50.64-56.03,81.08-51Z"/>
      <path class="cls-7" d="M262.36,159.52c29.3-48.78,17.69-71.85,17.69-71.85.7-4.24,36.21-17.15,36.21-17.15l-12.01-19.22-6.03,8.61-18.9,15.25-10.37,9-3.02-4.26s-28.94,44.97-40.82,62.44c-5.09,1.02-13.32,1.85-22.85-.65-10.25-2.68-17.17-7.95-20.59-10.95,6.02,6.37,11.87,10.48,16.13,13.04,5.59,3.37,11.3,6.81,16.51,7.57-18.82,5.4-78.84,14.54-143.55-21.33,21.31,4.31,42.09,2.8,42.09,2.8-34.76-3.3-55.37-14.08-65.39-21.05-4.69,1.03-4.53,4.47,2.85,11.85h0c.26.26.52.52.79.78.01.01.03.03.04.04.13.12.25.25.38.37.02.02.04.04.07.06.13.12.26.25.4.38.01.01.03.02.04.04.57.54,1.18,1.09,1.81,1.67.04.03.07.06.11.1.13.12.27.24.41.36.05.04.1.09.15.13.13.12.27.24.41.36.05.05.11.1.16.14.14.12.28.24.42.36.04.04.09.08.13.11.47.41.96.83,1.46,1.26.06.05.13.11.19.16.13.11.27.23.41.34.09.07.17.14.26.22.13.11.26.22.4.33.09.08.19.16.28.24.13.11.26.22.39.33.1.09.21.17.31.26.13.11.26.21.39.32.12.1.24.19.36.29.21.18.43.35.65.53.14.11.27.22.41.33.12.1.24.2.37.3.13.11.27.22.41.33.12.1.25.2.37.3.14.11.28.23.43.34.12.1.24.19.36.29.15.12.3.24.46.36.12.09.24.19.36.28.18.14.35.28.53.42.1.08.2.15.3.23.27.22.55.43.83.65.08.06.16.12.24.19.21.16.42.33.64.49.11.08.22.17.33.25.19.15.38.29.57.44.12.09.23.18.35.27.19.15.39.3.58.45.12.09.23.18.35.27.21.16.42.32.64.48.1.08.2.15.3.23.32.24.64.48.96.73.6.45,1.19.89,1.78,1.33,73.58,54.16,138.95,19.94,156.07,8.97,12.41-14.23,16.45-28.83,32.22-42.39.87-.75,2.14-.86,3.26-1.24,3.39-.65,10.04-1.54,12.12,1.66.63.97.86,2.31.45,4.15-2.08,9.45-43.37,49.99-24.83,72.5,18.54,22.51,30.22,54.4,20,51.94-5.97-1.44-16.87-6.26-23.34-6.82h0c.25.19.51.39.77.58.09.06.17.13.26.19.25.18.49.36.75.54.1.07.2.14.29.21.25.18.51.36.77.53.08.05.15.1.23.15.86.58,1.74,1.16,2.65,1.72.11.07.22.14.33.2.25.16.51.31.77.47.14.08.28.16.41.25.25.15.51.3.77.45.14.08.29.17.44.25.26.15.52.3.79.44.11.06.23.12.34.19.52.29,1.05.57,1.59.85.15.08.31.16.46.24.25.13.5.26.76.38.19.1.38.19.58.29.25.12.5.24.75.36.21.1.41.2.62.3.25.12.49.23.74.35.23.11.46.21.69.31.23.11.47.21.71.32.44.19.88.39,1.32.58.22.09.44.19.67.28.27.11.54.22.81.34.23.09.47.19.7.28.27.11.54.21.82.32.23.09.47.18.7.27.29.11.59.22.89.33.22.08.44.16.66.24.42.15.84.3,1.27.45.19.07.39.13.58.2.43.15.86.29,1.29.44.21.07.42.14.63.21.34.11.69.22,1.04.33.22.07.45.14.68.21.35.11.7.21,1.06.32.22.07.44.13.66.19.41.12.83.24,1.25.36.16.05.32.09.48.14.58.16,1.16.32,1.75.47.16.04.32.08.48.12.44.11.89.23,1.34.34.22.05.44.11.66.16.4.1.81.19,1.22.29.23.05.46.11.68.16.43.1.86.19,1.3.29.2.04.4.09.61.13.64.14,1.28.27,1.92.4,90.06,18.14-57.04-39.64-27.75-88.43Z"/>
      <path class="cls-11" d="M227.24,153.49l41.6-67.72c2.24,1.26,4.96,2.26,8.27,2.86.97,7.84-1.57,28-1.57,28,5.85-8.62,3.96-23.02,3.14-27.75.46.06.94.11,1.42.16-.29-.82-.49-1.22-.49-1.22.05-.3.27-.64.64-1.01-.06-.02-.13-.04-.19-.05,6.2-5.61,25.32-12.74,32.72-15.36,1.13.06,2.16-.17,3.04-.72,4.17-2.61,3.37-11.43-1.8-19.7s-12.74-12.86-16.91-10.25c-.96.6-1.65,1.52-2.09,2.69-5.57,2.67-13.32,7.66-17.22,10.85-4.25,3.48-10.06,8.86-16.01,16.68-.06-.32-.12-.64-.17-.97-.97-.15-1.91-.27-2.84-.35.09.85.23,1.79.45,2.77-4.9,0-19.25.67-26.69,7.85,0,0,19.04-5.85,27.08-6.34,1.04,3.62,3.16,7.64,7.34,10.66-5.99,9.8-35.84,61.68-47.15,70.51,0,0-29.91,11.81-56.14,14.45-22.51,2.26-70.79-14.07-119.74-54.09,5.54,6.68,14.07,16.03,26.13,25.13,88.69,66.89,155.91,11.86,155.91,11.86,0,0-26.35,77.51,63.72,95.65,18.02,3.63,26.55,4.22,28.89,2.45-110.41-5.3-91.31-97.04-91.31-97.04ZM278.01,86.11c-2.22-.75-4.8-1.83-7.26-3.36,4.58-3.79,21.26-17.49,28.36-22.03,2.74,4.29,6.13,7.55,9.31,9.28-7.25,2.85-24.41,11.56-30.41,16.1ZM262.34,72.95c2.84-4.63,7.93-11.54,16.31-17.5,5.46-3.88,11.34-7.75,15.87-9.89-.4,3.53.75,8.3,3.34,13.05-5.61,4.17-19.89,15.07-27.74,23.74-3.33-2.19-6.34-5.23-7.77-9.39Z"/>
    </g>
    <g>
      <path class="cls-9" d="M401.75,249.61s-3.64,30.22-17.26,42.38l-30.58-17.66s25.29-28.07,23.92-32.14c0,0-21.08-14.91-18.13-71.74,2.96-56.83-154.06-38.76-66.02-65.04,88.03-26.28,101.17,54.53,101.17,54.53,0,0,33.5-80.15,143.22-62.74,109.71,17.41-67.67,28.58-88.69,69.31-21.02,40.73-18.39,73.25-47.63,83.11Z"/>
      <path class="cls-7" d="M359.37,170.78c-2.96,56.83,18.13,71.74,18.13,71.74,1.37,4.07-23.92,32.14-23.92,32.14l19.63,11.33,1.28-10.43,9.53-22.34,4.93-12.81,4.67,2.34s4.43-53.29,6.72-74.3c4.02-3.29,10.89-7.89,20.48-10.16,10.31-2.44,18.89-1.05,23.32,0-8.31-2.8-15.4-3.68-20.37-3.94-6.52-.35-13.18-.7-18.14,1.07,14.08-13.61,62.78-49.86,136.76-48.58-20.84,6.2-38.47,17.29-38.47,17.29,32.24-13.41,55.49-13.57,67.62-12.12,3.66-3.11,1.9-6.08-8.08-9.13h0c-.35-.11-.7-.21-1.07-.32-.02,0-.04-.01-.06-.02-.17-.05-.34-.1-.51-.15-.03,0-.06-.02-.09-.02-.17-.05-.35-.1-.53-.15-.02,0-.04,0-.05-.01-.76-.21-1.55-.41-2.39-.62-.05-.01-.09-.02-.14-.03-.18-.04-.35-.09-.53-.13-.06-.02-.13-.03-.19-.05-.17-.04-.35-.08-.53-.13-.07-.02-.14-.03-.21-.05-.18-.04-.36-.08-.54-.13-.06-.01-.11-.03-.17-.04-.61-.14-1.24-.28-1.88-.42-.08-.02-.16-.04-.25-.05-.17-.04-.35-.07-.52-.11-.11-.02-.22-.05-.33-.07-.17-.04-.34-.07-.51-.11-.12-.03-.24-.05-.36-.08-.17-.03-.33-.07-.5-.1-.13-.03-.27-.05-.4-.08-.16-.03-.33-.07-.49-.1-.15-.03-.3-.06-.45-.09-.27-.05-.55-.11-.82-.16-.17-.03-.34-.07-.51-.1-.15-.03-.31-.06-.46-.09-.17-.03-.34-.07-.51-.1-.15-.03-.31-.06-.46-.09-.18-.03-.36-.07-.54-.1-.15-.03-.3-.06-.46-.08-.19-.04-.38-.07-.58-.11-.15-.03-.3-.05-.45-.08-.22-.04-.44-.08-.67-.12-.12-.02-.25-.04-.37-.07-.34-.06-.69-.12-1.04-.18-.1-.02-.2-.03-.3-.05-.26-.05-.53-.09-.79-.14-.13-.02-.27-.05-.41-.07-.24-.04-.47-.08-.71-.12-.14-.02-.29-.05-.43-.07-.24-.04-.48-.08-.73-.12-.14-.02-.29-.05-.43-.07-.26-.04-.53-.09-.79-.13-.12-.02-.25-.04-.37-.06-.39-.06-.79-.13-1.19-.19-.74-.12-1.47-.23-2.2-.34-90.4-13.27-132.04,47.65-142.01,65.37-4.27,18.39-.99,33.18-8.54,52.56-.42,1.06-1.48,1.77-2.3,2.63-2.69,2.16-8.14,6.08-11.48,4.23-1.01-.56-1.84-1.64-2.35-3.45-2.6-9.32,14.81-64.5-12.12-75.67s-52.23-33.83-42.05-36.46c5.95-1.53,17.83-2.4,23.81-4.94h0c-.32-.05-.63-.1-.95-.15-.1-.02-.21-.03-.31-.05-.3-.04-.61-.08-.91-.12-.12-.02-.24-.03-.36-.05-.31-.04-.62-.08-.93-.11-.09-.01-.18-.02-.27-.03-1.03-.11-2.08-.2-3.15-.28-.13,0-.26-.02-.38-.03-.3-.02-.6-.03-.9-.05-.16,0-.32-.02-.48-.02-.29-.01-.59-.03-.89-.04-.17,0-.33-.01-.5-.01-.3,0-.6-.02-.9-.02-.13,0-.26,0-.39,0-.6,0-1.2,0-1.81,0-.17,0-.35,0-.52,0-.28,0-.56.01-.85.02-.21,0-.43,0-.64.02-.28,0-.55.02-.83.03-.23,0-.46.02-.69.03-.27.01-.54.03-.82.04-.25.01-.5.03-.76.05-.26.02-.51.03-.77.05-.48.03-.96.07-1.44.11-.24.02-.48.04-.72.07-.29.03-.58.05-.87.08-.25.03-.5.05-.75.08-.29.03-.58.06-.87.1-.25.03-.5.06-.75.09-.31.04-.63.08-.94.12-.23.03-.46.06-.69.09-.44.06-.89.13-1.33.2-.2.03-.4.06-.61.09-.45.07-.89.14-1.34.22-.22.04-.44.08-.65.12-.36.06-.71.13-1.07.19-.23.04-.46.09-.7.13-.36.07-.72.14-1.08.21-.22.04-.45.09-.67.14-.42.09-.84.18-1.27.27-.16.04-.33.07-.49.11-.59.13-1.17.26-1.77.4-.16.04-.32.08-.48.12-.44.11-.89.22-1.34.33-.22.05-.44.11-.66.17-.4.1-.8.21-1.21.31-.23.06-.45.12-.68.18-.42.11-.85.23-1.28.35-.2.06-.4.11-.6.17-.63.18-1.25.36-1.89.55-88.03,26.28,68.98,8.21,66.02,65.04Z"/>
      <path class="cls-11" d="M393.21,159.61l-4.93,79.32c-2.57-.06-5.44.33-8.64,1.36-4.54-6.47-11.76-25.46-11.76-25.46-1.11,10.36,7.31,22.19,10.26,25.97-.44.16-.88.34-1.33.53.63.59,1.01.85,1.01.85.1.28.06.69-.09,1.19.06-.01.13-.03.19-.04-2.84,7.87-16.37,23.13-21.67,28.93-1.02.48-1.83,1.16-2.35,2.06-2.46,4.26,2.39,11.67,10.84,16.55s17.29,5.37,19.75,1.11c.56-.98.74-2.12.58-3.36,3.66-4.98,8.16-13.02,10.11-17.67,2.12-5.06,4.72-12.55,6.3-22.25.21.25.41.51.6.78.92-.32,1.81-.66,2.68-1.03-.48-.71-1.04-1.47-1.7-2.24,4.33-2.31,16.69-9.63,19.88-19.47,0,0-14.06,14.11-20.93,18.31-2.62-2.7-6.37-5.26-11.49-5.96.69-11.47,2.68-71.29,8.51-84.4,0,0,20.86-24.48,42.78-39.12,18.81-12.57,69.1-20.82,131.11-8.48-8.02-3.3-19.95-7.55-34.87-9.92-109.71-17.41-143.22,62.74-143.22,62.74,0,0-13.14-80.81-101.17-54.53-17.62,5.26-25.42,8.74-26.65,11.4,99.97-47.17,126.18,42.8,126.18,42.8ZM380.03,242.94c2.31-.38,5.1-.64,7.99-.45-2.27,5.5-10.56,25.43-14.7,32.77-4.44-2.5-8.96-3.79-12.58-3.82,5.06-5.92,16.12-21.67,19.29-28.5ZM400.04,247.2c-.33,5.42-1.58,13.91-6.18,23.11-3,6-6.37,12.17-9.36,16.19-1.3-3.3-4.56-6.97-9.07-9.95,3-6.32,10.48-22.64,13.34-33.98,3.97.37,8.05,1.64,11.28,4.64Z"/>
    </g>
    <g>
      <path class="cls-8" d="M181.32,202.16s1.33,20.27,13.73,28.26c12.4,7.98,14.92,4.44,14.92,4.44,0,0-3.01,20.39,16.27,29.46,19.28,9.07,20.39-3.18,24.21-14.29s14.34-38.95,21.6-45.63c7.27-6.69,55.85-49.49,77.31-57.09,21.46-7.6,38.6-18.72,67.21-15.83,28.6,2.9,28.65-25.42,18.3-37.89-10.34-12.48-23.75-1.98-23.75-1.98,0,0,10.09-15.66-9.77-29.45-19.86-13.79-21.35,25.71-28.11,33.07-6.75,7.35-95.99,76.93-121.75,89.4-25.76,12.47-32.55,11.2-46.45,5.25s-22.72-1.26-23.71,12.29Z"/>
      <path class="cls-5" d="M215.46,202.38s-15.86-3.18-12.92,6.8,9.64,22.36-2.32,16.17c-11.96-6.19-13.78-12.24-10.11-19.87s7.13-12.44,15.36-9.22,15,3.31,9.99,6.11Z"/>
      <path class="cls-5" d="M222.05,216.46l-2.46-.04s-18.71,15.35-1.5,7.9c17.2-7.45,22.21-10.26,22.29-11.39s-2.11-5.82-2.89-6.82-3.77-2.41-6.42,2.84c-2.64,5.24-9.02,7.51-9.02,7.51Z"/>
      <path class="cls-5" d="M223.41,232.44s-1.44,18.69,2.44,22.08,3.05-.76,4.81,2.13c1.76,2.9,2.69,12.3-8.56.77s-8.21-29.86,1.31-24.98Z"/>
      <path class="cls-5" d="M400.82,73.35s-14.93,7.29-15.92,5.4-.97-13.63,5.36-15.33,12.6,1.44,13.67,2.21,9.75,13.22,4.24,19.09c-5.51,5.86,2.05-1.06-7.35-11.36Z"/>
      <path class="cls-5" d="M378.94,113.72s20.45-9.43,22.58-15.34,3.93-9.87,5.19-10.36-.31,9.25-3.09,12.46c-2.78,3.21-19.44,22.5-24.69,13.24Z"/>
      <path class="cls-5" d="M411.37,98.74s20.7,6.35,22.47,9.25-4.34,12.94-3.82,13.61,12.16-4.08,7.08-15.59c-5.08-11.51-13.63-21.94-25.72-7.26Z"/>
      <path class="cls-3" d="M243.27,227.2s5.85-10.38,7.99-8.84.07,14.32-4.25,15.54-5.06-4.07-3.74-6.69Z"/>
      <path class="cls-3" d="M261.6,204.5s2.35-8.55,7.05-13.08,86.41-67.75,100.89-65.11c14.48,2.64-.18,6.67-2.68,5.87s-101.21,67.05-105.26,72.32Z"/>
      <path class="cls-3" d="M383.71,121.74s4.48,11.98,15.22,7.93,18.13-5.53,7.7-11.03-20.87-1.68-22.92,3.1Z"/>
    </g>
    <g>
      <path class="cls-8" d="M234.59,252.62s20.12-2.81,27.18-15.76,3.34-15.2,3.34-15.2c0,0,20.56,1.51,28.19-18.38,7.64-19.89-4.66-20.11-16.02-23.1s-39.89-11.45-47.09-18.21-53.44-52.09-62.59-72.93-21.49-37.13-20.7-65.87c.8-28.74-27.44-26.71-39.13-15.49-11.69,11.22-.24,23.84-.24,23.84,0,0-16.35-8.92-28.65,11.89-12.3,20.81,27.21,19.42,35.03,25.61s83.74,90.12,98.06,114.9c14.32,24.78,13.55,31.64,8.63,45.95s.4,22.75,13.99,22.75Z"/>
      <path class="cls-5" d="M232.31,218.55s-2.01,16.05,7.73,12.39,21.6-11.25,16.3,1.13-11.2,14.63-19.08,11.54-12.92-6.2-10.32-14.64c2.61-8.44,2.2-15.2,5.37-10.41Z"/>
      <path class="cls-5" d="M245.87,210.96l.14,2.46s16.67,17.54,7.99.92c-8.69-16.61-11.85-21.4-12.99-21.4s-5.65,2.53-6.59,3.38-2.12,3.94,3.3,6.19c5.42,2.25,8.15,8.45,8.15,8.45Z"/>
      <path class="cls-5" d="M261.72,208.43s18.74.07,21.84-4.04-.98-2.99,1.78-4.96,12.07-3.58,1.39,8.48c-10.68,12.06-29.18,10.37-25.01.52Z"/>
      <path class="cls-5" d="M90.09,43.11s8.36,14.36,6.54,15.49-13.52,1.97-15.68-4.23c-2.16-6.19.51-12.67,1.2-13.79s12.48-10.69,18.73-5.62c6.25,5.07-1.2-1.97-10.79,8.16Z"/>
      <path class="cls-5" d="M131.94,61.99s-10.9-19.71-16.95-21.4-10.14-3.2-10.71-4.42,9.24-.37,12.65,2.17,23.86,17.74,15.01,23.65Z"/>
      <path class="cls-5" d="M114.64,30.74s4.82-21.11,7.58-23.08,13.23,3.38,13.85,2.82-4.96-11.83-16.07-5.92c-11.11,5.91-20.89,15.19-5.37,26.18Z"/>
      <path class="cls-3" d="M255.03,189s-10.78-5.07-9.41-7.32,14.28-1.12,15.81,3.1c1.53,4.22-3.69,5.35-6.4,4.22Z"/>
      <path class="cls-3" d="M231.05,172.38s-8.7-1.72-13.56-6.07-73.88-81.23-72.31-95.87c1.58-14.64,6.67-.3,6.05,2.24s74.26,96.04,79.81,99.7Z"/>
      <path class="cls-3" d="M139.6,56.64s11.62-5.34,6.79-15.76-6.84-17.68-11.56-6.87c-4.72,10.81-.15,20.94,4.76,22.63Z"/>
    </g>
  </g>
  <g id="Capa_2-2" data-name="Capa 2">
    <g>
      <polygon class="cls-6" points="535.74 204.92 493.74 818.34 77.95 818.34 39.5 256.84 35.96 204.92 535.74 204.92"/>
      <polygon class="cls-10" points="146.24 806.36 85.14 806.36 55.13 360.72 71.91 360.72 146.24 806.36"/>
      <path class="cls-1" d="M535.74,204.92l-42,613.42h-53.41l43.15-560.69s-325.47-1.68-443.98-.82l-3.55-51.92h499.78Z"/>
      <polygon class="cls-6" points="564.5 226.49 0 226.49 .1 143 564.4 143 564.5 226.49"/>
      <path class="cls-2" d="M564.5,226.49h-75.41s-27.95-41.28-55.8-83.49h131.12l.1,83.49Z"/>
      <g>
        <g>
          <path class="cls-4" d="M241.81,379.67c-1.7.42,56.05,43.79,68.31,91.09l-22.77,15.76h71.06l30.54-68.31-19.27,10.51-22.77-36.78s-19.27-33.28-105.1-12.26Z"/>
          <path class="cls-4" d="M206.77,397.19l-20.64,47.45,59.18,27.87,24.52-54.3s-28.03-54.3-63.06-21.02Z"/>
        </g>
        <g>
          <path class="cls-4" d="M420.39,550.64c.51-1.68-66.26,25.87-113.19,12.29l-1.94-27.63-36.25,61.11,43.18,61.12.79-21.93,43.25-.82s38.45.41,64.16-84.14Z"/>
          <path class="cls-4" d="M423.19,511.57l-30.28-41.96-54.16,36.68,34.19,48.79s61,3.6,50.25-43.51Z"/>
        </g>
        <g>
          <path class="cls-4" d="M178.14,613.96c1.15,1.32,13.39-69.86,49.88-102.35l24.42,13.07-32.42-63.23-74.72,4,18.14,12.35-22.34,37.05s-20.82,32.33,37.05,99.11Z"/>
          <path class="cls-4" d="M209.71,637.14l51.64-3.29-2.2-65.37-59.51,2.96s-35.53,49.72,10.07,65.7Z"/>
        </g>
      </g>
    </g>
  </g>
</svg>