<svg xmlns="http://www.w3.org/2000/svg" xmlns:xlink="http://www.w3.org/1999/xlink" viewBox="0 0 149.38 210.78"><defs><style>.cls-1{fill:none;}.cls-2{fill:url(#Degradado_sin_nombre_32);}.cls-3{fill:#8f5858;}.cls-4{fill:#fef2eb;}.cls-5{clip-path:url(#clip-path);}.cls-6{fill:url(#Degradado_sin_nombre_83);}.cls-7{fill:#dbaa3b;}.cls-8{fill:#7bbb56;}.cls-9{fill:#29a14c;}.cls-10{fill:url(#Degradado_sin_nombre_71);}.cls-11{fill:url(#Degradado_sin_nombre_69);}.cls-12{fill:url(#Degradado_sin_nombre_77);}.cls-13{fill:#efd1c3;}.cls-14{fill:#834d4b;}.cls-15{clip-path:url(#clip-path-2);}.cls-16{fill:url(#Degradado_sin_nombre_75);}.cls-17{fill:#6cb96e;}.cls-18{fill:#f9e992;}</style><linearGradient id="Degradado_sin_nombre_32" x1="23.35" y1="40.69" x2="72.42" y2="40.69" gradientUnits="userSpaceOnUse"><stop offset="0.35" stop-color="#efe27e"/><stop offset="0.51" stop-color="#eee07c"/><stop offset="0.58" stop-color="#ecda75"/><stop offset="0.64" stop-color="#e9d068"/><stop offset="0.68" stop-color="#e4c257"/><stop offset="0.72" stop-color="#deaf40"/><stop offset="0.72" stop-color="#ddad3d"/></linearGradient><clipPath id="clip-path" transform="translate(10.24 16.51)"><path class="cls-1" d="M105.57,85.53c5.91,1.53,11.16-3.75,11.16-3.75-3.77-.17-6.73-3.23-9.85-35.57-3-30.74-43.3-35.18-47.29-35.55v0l-.16,0-.16,0v0C55.28,11,14.94,15.47,12,46.21,8.86,78.55,5.91,81.61,2.13,81.78c0,0,5.25,5.28,11.16,3.75,0,0,1.81,5.1-4.92,7.83,0,0,6.73,10.38,21.67,5.61,0,0,2.79,1.37.82,7.92,0,0,10.51-.26,13.79-7.75,0,0,9.43,0,3,9.2,0,0,8.81,3.44,11.79-5.7,3,9.14,11.79,5.7,11.79,5.7-6.43-9.2,3-9.2,3-9.2C77.5,106.63,88,106.89,88,106.89c-2-6.55.82-7.92.82-7.92,14.94,4.77,21.68-5.61,21.68-5.61C103.76,90.63,105.57,85.53,105.57,85.53Z"/></clipPath><linearGradient id="Degradado_sin_nombre_83" x1="72.17" y1="12.96" x2="72.17" y2="123.94" gradientUnits="userSpaceOnUse"><stop offset="0.63" stop-color="#f9e763"/><stop offset="0.81" stop-color="#f8e562"/><stop offset="0.88" stop-color="#f5de5d"/><stop offset="0.93" stop-color="#efd356"/><stop offset="0.97" stop-color="#e7c24b"/><stop offset="1" stop-color="#ddad3d"/></linearGradient><linearGradient id="Degradado_sin_nombre_71" x1="38.52" y1="20.6" x2="38.52" y2="95" gradientUnits="userSpaceOnUse"><stop offset="0.24" stop-color="#f6e662"/><stop offset="0.84" stop-color="#f6e662"/><stop offset="1" stop-color="#ddad3d"/></linearGradient><linearGradient id="Degradado_sin_nombre_69" x1="79.95" y1="20.16" x2="79.95" y2="94.56" gradientUnits="userSpaceOnUse"><stop offset="0.69" stop-color="#f6e662"/><stop offset="1" stop-color="#ddad3d"/></linearGradient><linearGradient id="Degradado_sin_nombre_77" x1="81.61" y1="18.18" x2="81.61" y2="62.7" gradientUnits="userSpaceOnUse"><stop offset="0.42" stop-color="#f6e662"/><stop offset="0.93" stop-color="#deb03f"/><stop offset="0.94" stop-color="#ddad3d"/></linearGradient><clipPath id="clip-path-2" transform="translate(10.24 16.51)"><path class="cls-2" d="M55.08,19.24C54.66,19.39,9.16,29.82,27.86,64c0,0,3.2-18.07,12.17-24.56C40,39.42,28,52,46.41,62c0,0-5-7.48-4.25-11.43,0,0,3.8,12.28,30.26,7.62,0,0-6.39-14.39-4.26-23.14C68.16,35.05,79.41,10.63,55.08,19.24Z"/></clipPath><linearGradient id="Degradado_sin_nombre_75" x1="77.21" x2="77.21" y2="110.98" gradientUnits="userSpaceOnUse"><stop offset="0.42" stop-color="#f6e662"/><stop offset="0.91" stop-color="#ddad3d"/></linearGradient></defs><title>ada</title><g id="Capa_2" data-name="Capa 2"><g id="Capa_1-2" data-name="Capa 1"><ellipse class="cls-3" cx="69.68" cy="143.59" rx="45.57" ry="49.97"/><path class="cls-4" d="M85.61,152.29,85,187.53s4.72,4.08,2,5.87-12.12.51-13.27-1.15-5.18-45.46-5.18-45.46L75.4,143Z" transform="translate(10.24 16.51)"/><path class="cls-4" d="M34.6,152.29l.64,35.24s-4.72,4.08-2,5.87,12.13.51,13.27-1.15,5-48.14,5-48.14L44.82,143Z" transform="translate(10.24 16.51)"/><path class="cls-4" d="M87.34,99.12c1,.85,23.82,31.6,23.82,31.6s5.87-1.67,7.71-.57-.74,8.12-6.09,8.51c0,0,2.65,2.9.76,3.3s-6.84-1.82-5.87-4.68c0,0-28.63-32.44-28.55-32.65S87.34,99.12,87.34,99.12Z" transform="translate(10.24 16.51)"/><g class="cls-5"><rect class="cls-6" y="12.96" width="144.34" height="110.98"/></g><path class="cls-7" d="M96.12,81.37c4.7,1.26,8.88-3.07,8.88-3.07-3-.14-5.36-2.66-7.84-29.2-2.35-25.24-34.43-28.88-37.6-29.18v0l-.13,0-.13,0v0c-3.17.3-35.24,3.94-37.6,29.18-2.48,26.54-4.83,29.06-7.83,29.2,0,0,4.17,4.33,8.87,3.07,0,0,1.44,4.2-3.91,6.43,0,0,5.35,8.52,17.23,4.61,0,0,2.22,1.12.65,6.5,0,0,8.36-.21,11-6.36,0,0,7.49,0,2.38,7.55,0,0,7,2.83,9.37-4.68,2.37,7.51,9.38,4.68,9.38,4.68-5.12-7.55,2.37-7.55,2.37-7.55,2.62,6.15,11,6.36,11,6.36-1.57-5.38.65-6.5.65-6.5C94.68,96.32,100,87.8,100,87.8,94.68,85.57,96.12,81.37,96.12,81.37Z" transform="translate(10.24 16.51)"/><path class="cls-8" d="M72,90.11s21.7,3.77,20,15.47-3.07,12.16-7.41,9S75.36,101.35,72,90.11Z" transform="translate(10.24 16.51)"/><path class="cls-9" d="M84.55,114.61a17.12,17.12,0,0,0,1.88,1.2c2.66,0,1.3-2.25.3-3.11-2.08-1.78-5.15-13.83-6.67-20.3A49.47,49.47,0,0,0,72,90.11C75.36,101.35,80.21,111.48,84.55,114.61Z" transform="translate(10.24 16.51)"/><path class="cls-4" d="M32.12,99.12c-1,.85-23.83,31.6-23.83,31.6s-5.86-1.67-7.7-.57.74,8.12,6.08,8.51c0,0-2.64,2.9-.76,3.3s6.85-1.82,5.88-4.68c0,0,28.63-32.44,28.55-32.65S32.12,99.12,32.12,99.12Z" transform="translate(10.24 16.51)"/><path class="cls-8" d="M47.5,90.11s-21.7,3.77-20,15.47,3.07,12.16,7.41,9S44.1,101.35,47.5,90.11Z" transform="translate(10.24 16.51)"/><path class="cls-9" d="M34.91,114.61a16.26,16.26,0,0,1-1.89,1.2c-2.65,0-1.29-2.25-.3-3.11,2.09-1.78,5.16-13.83,6.68-20.3a49.47,49.47,0,0,1,8.1-2.29C44.1,101.35,39.25,111.48,34.91,114.61Z" transform="translate(10.24 16.51)"/><path class="cls-8" d="M95.78,162.54s-8.42-20.72-10.52-22.93S78.94,96.5,74,91.81c-3.92-3.76-11.65-3.63-14.6-3.43-2.94-.2-10.67-.33-14.6,3.43-4.91,4.69-9.12,45.59-11.22,47.8s-10.52,22.93-10.52,22.93,20.34-3.32,27.35-9.95l7.81,12.3,1.18,1.87,1.19-1.87,7.8-12.3C75.43,159.22,95.78,162.54,95.78,162.54Z" transform="translate(10.24 16.51)"/><path class="cls-4" d="M73.56,23.51H45.93C13.42,27,26.18,63.86,26.18,63.86l1,5.38s-1.51,20.47,31.38,21.4v0l1.16,0,1.17,0v0c32.89-.93,31.38-21.4,31.38-21.4l1-5.38S106.07,27,73.56,23.51Z" transform="translate(10.24 16.51)"/><path class="cls-10" d="M38.63,41.37c-.52.65-26.22,31-5.45,53.63,0,0-22-9-18.73-30.81s12.6-45,39.49-43.52S38.63,41.37,38.63,41.37Z" transform="translate(10.24 16.51)"/><path class="cls-11" d="M79.84,40.93c.51.65,26.21,31,5.45,53.63,0,0,21.95-9,18.72-30.81s-12.6-45-39.49-43.52S79.84,40.93,79.84,40.93Z" transform="translate(10.24 16.51)"/><path class="cls-12" d="M64.06,27.56c.23.45,16.25,36.9,36.42,35.07,0,0-11.38-36.2-16.83-41.28C80,18,57.08,14.29,64.06,27.56Z" transform="translate(10.24 16.51)"/><ellipse class="cls-13" cx="90.04" cy="93.62" rx="7.15" ry="3.55"/><path class="cls-14" d="M52.91,77.11a12,12,0,0,0,3.31,2.21,9.22,9.22,0,0,0,3.75.8,9.39,9.39,0,0,0,3.75-.8A12.13,12.13,0,0,0,67,77.11a8.1,8.1,0,0,1-3,2.91,8.36,8.36,0,0,1-4.1,1.1A8.24,8.24,0,0,1,55.87,80,8,8,0,0,1,52.91,77.11Z" transform="translate(10.24 16.51)"/><path class="cls-2" d="M55.08,19.24C54.66,19.39,9.16,29.82,27.86,64c0,0,3.2-18.07,12.17-24.56C40,39.42,28,52,46.41,62c0,0-5-7.48-4.25-11.43,0,0,3.8,12.28,30.26,7.62,0,0-6.39-14.39-4.26-23.14C68.16,35.05,79.41,10.63,55.08,19.24Z" transform="translate(10.24 16.51)"/><g class="cls-15"><rect class="cls-16" x="5.04" width="144.34" height="110.98"/></g><ellipse class="cls-9" cx="87.23" cy="80.01" rx="6.96" ry="9.16"/><ellipse class="cls-14" cx="87.23" cy="80.01" rx="2.81" ry="3.7"/><path class="cls-14" d="M68.37,60.62c.26-.26,11.5-10.69,17-2.68,4.81,7,3.38,7.78,3.38,7.78s1.15.39,2.18-3.95l1.53-2.11-1.79-.45S88.42,53.53,80,52.83,68.37,60.62,68.37,60.62Z" transform="translate(10.24 16.51)"/><ellipse class="cls-4" cx="91.7" cy="75.04" rx="2.65" ry="1.73"/><ellipse class="cls-17" cx="87.3" cy="86.98" rx="3.26" ry="2.19"/><path class="cls-14" d="M69.42,50.75s15.14-1.45,19.66,0C89.08,50.75,70.78,46.58,69.42,50.75Z" transform="translate(10.24 16.51)"/><ellipse class="cls-13" cx="48.49" cy="93.62" rx="7.15" ry="3.55"/><ellipse class="cls-9" cx="51.3" cy="80.01" rx="6.96" ry="9.16"/><ellipse class="cls-14" cx="51.3" cy="80.01" rx="2.81" ry="3.7"/><path class="cls-14" d="M49.67,60.62c-.25-.26-11.49-10.69-17-2.68-4.81,7-3.38,7.78-3.38,7.78s-1.15.39-2.17-3.95l-1.53-2.11,1.78-.45s2.24-5.68,10.66-6.38S49.67,60.62,49.67,60.62Z" transform="translate(10.24 16.51)"/><ellipse class="cls-4" cx="46.83" cy="75.04" rx="2.65" ry="1.73"/><ellipse class="cls-17" cx="51.23" cy="86.98" rx="3.26" ry="2.19"/><path class="cls-14" d="M48.63,50.75S33.48,49.3,29,50.75C29,50.75,47.27,46.58,48.63,50.75Z" transform="translate(10.24 16.51)"/><path class="cls-8" d="M33.2,193.4c2.68,1.79,12.13.51,13.27-1.15a20.59,20.59,0,0,0,.88-4.72H35.24S30.52,191.61,33.2,193.4Z" transform="translate(10.24 16.51)"/><path class="cls-8" d="M87,193.4c-2.68,1.79-12.12.51-13.27-1.15a20.59,20.59,0,0,1-.88-4.72H85S89.69,191.61,87,193.4Z" transform="translate(10.24 16.51)"/><path class="cls-8" d="M75.08,14.79S77.12-8.06,90.78,3s19.19,23.37,5,22.86A26.13,26.13,0,0,1,75.08,14.79Z" transform="translate(10.24 16.51)"/><path class="cls-18" d="M27.2,42.49S42.73,33.56,47.54,33c0,0-10.29,8.89-8.74,15.85,0,0,4.57-7.76,7.25-10.1,0,0,5.83,11.27,14.77,14,0,0-2.77-24,4.47-28.38C65.29,24.41,35,20.36,27.2,42.49Z" transform="translate(10.24 16.51)"/><path class="cls-18" d="M73.8,32.79c-.28-.37.7,11,14.54,21.55,0,0-1.2-10.24,5.82,0,0,0-4.34-18.74-10.72-23.08C83.44,31.26,91,55.19,73.8,32.79Z" transform="translate(10.24 16.51)"/><path class="cls-18" d="M27.2,26.68S15,43.1,16.93,52.44C16.93,52.44,9.88,36,27.2,26.68Z" transform="translate(10.24 16.51)"/><path class="cls-18" d="M92.44,32.33s9.71,4.42,10.21,24C102.65,56.3,110.52,36.56,92.44,32.33Z" transform="translate(10.24 16.51)"/></g></g></svg>