<?xml version="1.0" encoding="UTF-8"?>
<svg id="Capa_2" data-name="Capa 2" xmlns="http://www.w3.org/2000/svg" xmlns:xlink="http://www.w3.org/1999/xlink" viewBox="0 0 289.4 316.22">
  <defs>
    <style>
      .cls-1 {
        fill: #7bba56;
      }

      .cls-2 {
        fill: #29a04c;
      }

      .cls-3 {
        fill: #efd1c2;
      }

      .cls-4 {
        fill: url(#Degradado_sin_nombre_83);
      }

      .cls-5 {
        fill: url(#Degradado_sin_nombre_69);
      }

      .cls-6 {
        fill: #fdf1ea;
      }

      .cls-7 {
        fill: none;
      }

      .cls-8 {
        fill: #f8e990;
      }

      .cls-9 {
        fill: url(#Degradado_sin_nombre_71);
      }

      .cls-10 {
        clip-path: url(#clippath-1);
      }

      .cls-11 {
        fill: url(#Degradado_sin_nombre_32);
      }

      .cls-12 {
        fill: url(#Degradado_sin_nombre_75);
      }

      .cls-13 {
        fill: url(#Degradado_sin_nombre_77);
      }

      .cls-14 {
        fill: #dba93b;
      }

      .cls-15 {
        fill: #6cb86e;
      }

      .cls-16 {
        fill: #f4b54b;
      }

      .cls-17 {
        clip-path: url(#clippath);
      }

      .cls-18 {
        fill: #834d4b;
      }
    </style>
    <clipPath id="clippath">
      <path class="cls-7" d="M261.21,215.97c14.93,3.87,28.19-9.46,28.19-9.46-9.54-.43-17-8.17-24.88-89.83-7.49-77.62-109.34-88.84-119.42-89.76v-.07s-.15.01-.41.03c-.26-.02-.41-.03-.41-.03v.07c-10.08.92-111.93,12.14-119.42,89.76-7.88,81.67-15.34,89.4-24.88,89.83,0,0,13.27,13.32,28.19,9.46,0,0,4.56,12.89-12.44,19.77,0,0,17,26.22,54.73,14.18,0,0,7.05,3.45,2.07,19.99,0,0,26.53-.65,34.83-19.56,0,0,23.8,0,7.55,23.21,0,0,22.24,8.7,29.78-14.38,7.53,23.09,29.78,14.38,29.78,14.38-16.25-23.21,7.55-23.21,7.55-23.21,8.29,18.91,34.83,19.56,34.83,19.56-4.98-16.54,2.07-19.99,2.07-19.99,37.73,12.03,54.73-14.18,54.73-14.18-17-6.88-12.44-19.77-12.44-19.77Z"/>
    </clipPath>
    <linearGradient id="Degradado_sin_nombre_83" data-name="Degradado sin nombre 83" x1="151" y1="-8.97" x2="151" y2="271.28" gradientUnits="userSpaceOnUse">
      <stop offset=".63" stop-color="#f8e664"/>
      <stop offset=".81" stop-color="#f7e462"/>
      <stop offset=".88" stop-color="#f3dd5e"/>
      <stop offset=".93" stop-color="#eed155"/>
      <stop offset=".97" stop-color="#e6c04a"/>
      <stop offset="1" stop-color="#dcac3c"/>
    </linearGradient>
    <linearGradient id="Degradado_sin_nombre_71" data-name="Degradado sin nombre 71" x1="91.89" y1="52.02" x2="91.89" y2="239.9" gradientUnits="userSpaceOnUse">
      <stop offset=".24" stop-color="#f5e662"/>
      <stop offset=".84" stop-color="#f5e662"/>
      <stop offset="1" stop-color="#dcac3c"/>
    </linearGradient>
    <linearGradient id="Degradado_sin_nombre_69" data-name="Degradado sin nombre 69" x1="196.51" y1="50.92" x2="196.51" y2="238.79" gradientUnits="userSpaceOnUse">
      <stop offset=".69" stop-color="#f5e662"/>
      <stop offset="1" stop-color="#dcac3c"/>
    </linearGradient>
    <linearGradient id="Degradado_sin_nombre_77" data-name="Degradado sin nombre 77" x1="200.71" y1="45.9" x2="200.71" y2="158.32" gradientUnits="userSpaceOnUse">
      <stop offset=".42" stop-color="#f5e662"/>
      <stop offset=".93" stop-color="#ddb03e"/>
      <stop offset=".94" stop-color="#dcac3c"/>
    </linearGradient>
    <linearGradient id="Degradado_sin_nombre_32" data-name="Degradado sin nombre 32" x1="53.59" y1="102.75" x2="177.5" y2="102.75" gradientUnits="userSpaceOnUse">
      <stop offset=".35" stop-color="#eee17e"/>
      <stop offset=".51" stop-color="#eddf7b"/>
      <stop offset=".58" stop-color="#ebd974"/>
      <stop offset=".64" stop-color="#e8cf68"/>
      <stop offset=".68" stop-color="#e3c156"/>
      <stop offset=".72" stop-color="#ddae3f"/>
      <stop offset=".72" stop-color="#dcac3c"/>
    </linearGradient>
    <clipPath id="clippath-1">
      <path class="cls-11" d="M133.72,48.59c-1.08.38-115.97,26.73-68.74,112.97,0,0,8.06-45.62,30.72-62.01,0,0-30.34,31.72,16.13,57.02,0,0-12.67-18.89-10.75-28.87,0,0,9.6,31,76.42,19.24,0,0-16.13-36.35-10.75-58.44,0,0,28.42-61.65-33.03-39.91Z"/>
    </clipPath>
    <linearGradient id="Degradado_sin_nombre_75" data-name="Degradado sin nombre 75" x1="163.73" y1="-41.7" x2="163.73" y2="238.54" gradientUnits="userSpaceOnUse">
      <stop offset=".42" stop-color="#f5e662"/>
      <stop offset=".91" stop-color="#dcac3c"/>
    </linearGradient>
  </defs>
  <g id="Capa_4" data-name="Capa 4">
    <g>
      <path class="cls-16" d="M13.23,314.71l.94,1.5c-.39-.43-.7-.93-.94-1.5Z"/>
      <g class="cls-17">
        <rect class="cls-4" x="-31.24" y="-8.97" width="364.49" height="280.24"/>
      </g>
      <path class="cls-14" d="M237.34,205.48c11.87,3.18,22.42-7.76,22.42-7.76-7.58-.35-13.52-6.7-19.78-73.74-5.95-63.72-86.94-72.93-94.96-73.68v-.06s-.12,0-.32.03c-.21-.02-.32-.03-.32-.03v.06c-8.01.76-89,9.97-94.96,73.68-6.26,67.04-12.2,73.39-19.78,73.74,0,0,10.55,10.94,22.42,7.76,0,0,3.63,10.58-9.89,16.23,0,0,13.52,21.52,43.52,11.64,0,0,5.6,2.83,1.65,16.41,0,0,21.1-.53,27.69-16.06,0,0,18.92,0,6,19.05,0,0,17.69,7.14,23.68-11.81,5.99,18.95,23.68,11.81,23.68,11.81-12.92-19.05,6-19.05,6-19.05,6.59,15.52,27.69,16.06,27.69,16.06-3.96-13.58,1.65-16.41,1.65-16.41,30,9.88,43.52-11.64,43.52-11.64-13.52-5.65-9.89-16.23-9.89-16.23Z"/>
      <path class="cls-6" d="M180.38,59.37h-69.79c-82.1,8.79-49.86,101.89-49.86,101.89l2.58,13.58s-3.83,51.69,79.24,54.03v.11c1.01,0,1.95-.04,2.93-.06.99.01,1.92.06,2.93.06v-.11c83.07-2.34,79.24-54.03,79.24-54.03l2.58-13.58s32.24-93.1-49.86-101.89Z"/>
      <path class="cls-9" d="M92.16,104.47c-1.29,1.65-66.19,78.21-13.75,135.43,0,0-55.45-22.64-47.28-77.8,8.17-55.16,31.81-113.61,99.72-109.91,67.91,3.7-38.68,52.28-38.68,52.28Z"/>
      <path class="cls-5" d="M196.24,103.36c1.29,1.65,66.19,78.21,13.75,135.43,0,0,55.45-22.64,47.28-77.8-8.17-55.16-31.81-113.61-99.72-109.91-67.91,3.7,38.68,52.28,38.68,52.28Z"/>
      <path class="cls-13" d="M156.38,69.59c.6,1.14,41.05,93.19,91.98,88.56,0,0-28.75-91.41-42.5-104.24-9.14-8.52-67.1-17.82-49.48,15.68Z"/>
      <ellipse class="cls-3" cx="196.13" cy="194.71" rx="18.05" ry="8.97"/>
      <path class="cls-18" d="M128.22,194.71c10.56,10.08,25.12,10.06,35.67,0-7.84,13.42-27.84,13.4-35.67,0h0Z"/>
      <g>
        <path class="cls-11" d="M133.72,48.59c-1.08.38-115.97,26.73-68.74,112.97,0,0,8.06-45.62,30.72-62.01,0,0-30.34,31.72,16.13,57.02,0,0-12.67-18.89-10.75-28.87,0,0,9.6,31,76.42,19.24,0,0-16.13-36.35-10.75-58.44,0,0,28.42-61.65-33.03-39.91Z"/>
        <g class="cls-10">
          <rect class="cls-12" x="-18.51" y="-41.7" width="364.49" height="280.24"/>
        </g>
      </g>
      <g>
        <ellipse class="cls-2" cx="189.04" cy="160.35" rx="17.57" ry="23.13"/>
        <ellipse class="cls-18" cx="189.04" cy="160.35" rx="7.09" ry="9.34"/>
        <path class="cls-18" d="M167.28,153.07c.64-.64,29.02-26.99,42.87-6.77,12.14,17.73,8.54,19.66,8.54,19.66,0,0,2.9.97,5.48-9.99l3.87-5.32-4.51-1.13s-5.64-14.35-26.92-16.12c-21.28-1.77-29.34,19.66-29.34,19.66Z"/>
        <ellipse class="cls-6" cx="200.32" cy="147.78" rx="6.69" ry="4.38"/>
        <ellipse class="cls-15" cx="189.2" cy="177.95" rx="8.22" ry="5.53"/>
        <path class="cls-18" d="M169.91,128.15s38.25-3.65,49.64,0c0,0-46.21-10.53-49.64,0Z"/>
      </g>
      <ellipse class="cls-3" cx="91.2" cy="194.71" rx="18.05" ry="8.97"/>
      <g>
        <ellipse class="cls-2" cx="98.29" cy="160.35" rx="17.57" ry="23.13"/>
        <ellipse class="cls-18" cx="98.29" cy="160.35" rx="7.09" ry="9.34"/>
        <path class="cls-18" d="M120.05,153.07c-.64-.64-29.02-26.99-42.87-6.77-12.14,17.73-8.54,19.66-8.54,19.66,0,0-2.9.97-5.48-9.99l-3.87-5.32,4.51-1.13s5.64-14.35,26.92-16.12c21.28-1.77,29.34,19.66,29.34,19.66Z"/>
        <ellipse class="cls-6" cx="87.01" cy="147.78" rx="6.69" ry="4.38"/>
        <ellipse class="cls-15" cx="98.13" cy="177.95" rx="8.22" ry="5.53"/>
        <path class="cls-18" d="M117.42,128.15s-38.25-3.65-49.64,0c0,0,46.21-10.53,49.64,0Z"/>
      </g>
      <path class="cls-1" d="M184.2,37.35s5.16-57.7,39.65-29.66c34.49,28.05,48.46,58.99,12.63,57.7-35.84-1.29-52.28-28.05-52.28-28.05Z"/>
      <path class="cls-8" d="M63.32,107.3s39.22-22.57,51.36-23.86c0,0-26,22.45-22.08,40.02,0,0,11.55-19.6,18.32-25.51,0,0,14.72,28.47,37.29,35.35,0,0-6.98-60.6,11.28-71.67,0,0-76.62-10.21-96.17,45.67Z"/>
      <path class="cls-8" d="M180.98,82.8c-.71-.92,1.77,27.88,36.71,54.42,0,0-3.03-25.85,14.7,0,0,0-10.96-47.33-27.08-58.29,0,0,19.02,60.44-24.34,3.87Z"/>
      <path class="cls-8" d="M63.32,67.38s-30.81,41.46-25.94,65.03c0,0-17.8-41.58,25.94-65.03Z"/>
      <path class="cls-8" d="M228.05,81.65s24.54,11.16,25.79,60.51c0,0,19.87-49.84-25.79-60.51Z"/>
    </g>
  </g>
</svg>