<svg xmlns="http://www.w3.org/2000/svg" viewBox="0 0 271.13 495.14"><defs><style>.cls-1{fill:#cc8c69;}.cls-2,.cls-6{fill:#dda783;}.cls-3{fill:#b27966;}.cls-4{fill:#774430;}.cls-5{fill:#fff;}.cls-6{stroke:#af6e4a;stroke-miterlimit:10;stroke-width:2px;}</style></defs><title>Recurso 2</title><g id="Capa_2" data-name="Capa 2"><g id="Capa_1-2" data-name="Capa 1"><path class="cls-1" d="M173.47,427.77c-4.52,33.3-13.28,59.33,27.64,67.09,30.46,5.78,47.2-78.74,51.72-112s-15.59-4.81-35.37-8.56S178,394.47,173.47,427.77Z"/><path class="cls-1" d="M98.53,423.77c7.1,32.67,17.86,57.63-22.27,69.83C46.38,502.69,23.09,420.36,16,387.7s15.15-6.5,34.55-12.39S91.43,391.1,98.53,423.77Z"/><path class="cls-2" d="M179.8,35.42s28-61.55,61.55-22.38-39.17,56-39.17,56"/><path class="cls-3" d="M184.27,38.63s18.85-41.47,41.47-15.08-26.39,37.7-26.39,37.7"/><path class="cls-2" d="M74.81,35.42S46.83-26.13,13.26,13,52.43,69,52.43,69"/><path class="cls-3" d="M65.69,38.6S47.75-.86,26.22,24.25,51.34,60.12,51.34,60.12"/><path class="cls-2" d="M263.09,305.13C263.09,391.2,227.15,461,131.55,461,46.68,461,0,391.2,0,305.13c0-36.48,21.41-70.82,39.75-96.95,2.34-3.35,4.64-6.56,6.84-9.63a150.12,150.12,0,0,1,22.59-25.49h0c16.84-14.8,36.9-23.72,62.36-23.72,24.38,0,42.88,8.29,59,21.95a156.54,156.54,0,0,1,17.9,18.18c2.6,3.06,5.29,6.3,8,9.7C238.45,226.49,263.09,264.26,263.09,305.13Z"/><path class="cls-1" d="M216.47,199.16c-12.24,27.83-38.08,47-90.89,47-48.31,0-73.17-15.12-85.83-38,2.34-3.35,4.64-6.56,6.84-9.63a150.12,150.12,0,0,1,22.59-25.49h0a131.62,131.62,0,0,1,121.35-1.77,156.54,156.54,0,0,1,17.9,18.18C211,192.52,213.73,195.76,216.47,199.16Z"/><path class="cls-2" d="M26.39,358S5.55,354.9,2.89,382"/><path class="cls-2" d="M22.68,362.14s-19.33,6-15,31.32"/><path class="cls-2" d="M27.48,360.2s-18.16,9-9.94,33.25"/><path class="cls-2" d="M249,260.58s21-1.91,22.11,25.29"/><path class="cls-2" d="M252.5,264.94s19,7.12,13.17,32.11"/><path class="cls-2" d="M247.81,262.73s17.63,10,8,33.76"/><path class="cls-2" d="M228,101.24c0,57.86-13,111.36-101.19,111.36-90.91,0-98.75-53.5-98.75-111.36s68.39-86.8,98.75-86.8C164.4,14.44,228,43.39,228,101.24Z"/><path class="cls-2" d="M55.63,147.57s-17.35-12-31.67,11.19"/><path class="cls-2" d="M50.46,149.65s-20-3.09-27.23,21.52"/><path class="cls-2" d="M55.63,150s-20.25,0-23.57,25.48"/><path class="cls-2" d="M204.39,147.57s17.35-12,31.67,11.19"/><path class="cls-2" d="M209.56,149.65s20-3.09,27.23,21.52"/><path class="cls-2" d="M204.39,150s20.25,0,23.57,25.48"/><path class="cls-3" d="M157.11,141c-3.21-4.39-18.25-24-30.29-23.31-13.56.81-30,23.09-30,23.09l0,0c-3,1.75-4.86,4.29-4.86,7.15l10.75,53c0,5.26,5.61,9.52,13.38,9.52h21.51c7.77,0,13.27-4.26,13.27-9.52l10.75-53C161.65,145.24,159.89,142.77,157.11,141Z"/><ellipse class="cls-4" cx="110.22" cy="151.12" rx="3.63" ry="8.88" transform="translate(-76.13 167.24) rotate(-58.84)"/><ellipse class="cls-4" cx="144.38" cy="151.12" rx="8.88" ry="3.63" transform="matrix(0.86, -0.52, 0.52, 0.86, -57.36, 96.51)"/><path class="cls-4" d="M144.38,195.9c-4.17,4.25-9.27,3-12.16,1.89a7.22,7.22,0,0,1-4.18-4.62L126.82,156l-1.61,37s-1.54,4.33-4.71,5.39c-2.93,1-6.47,1.76-10.73-2.22-3.71-3.46-3.13-3-8.34-9.48,0,0,5.7,9.13,8.1,11.22,4.9,4.26,14.12,2.35,17.35,1.33,3.22,1,12.33,2.94,17.23-1.32,2.4-2.09,8.1-11.22,8.1-11.22C147,192.86,149.87,190.3,144.38,195.9Z"/><ellipse class="cls-4" cx="179.8" cy="83.86" rx="12.01" ry="22.42" transform="translate(22.26 204.45) rotate(-62.44)"/><ellipse class="cls-5" cx="192.47" cy="84.93" rx="2.4" ry="4.58" transform="translate(15.04 197.96) rotate(-56.31)"/><ellipse class="cls-5" cx="170.14" cy="83.86" rx="3.33" ry="7.37" transform="translate(5.99 178.91) rotate(-56.31)"/><ellipse class="cls-4" cx="77.66" cy="87.08" rx="22.42" ry="12.01" transform="translate(-31.48 45.82) rotate(-27.56)"/><ellipse class="cls-5" cx="64.99" cy="88.15" rx="4.58" ry="2.4" transform="translate(-37.98 50.85) rotate(-33.69)"/><ellipse class="cls-5" cx="87.32" cy="87.08" rx="7.37" ry="3.33" transform="translate(-33.64 63.06) rotate(-33.69)"/><path class="cls-1" d="M115,322.5c9.78,31.68,13.28,59.33-27.64,67.09-30.46,5.77-47.7-78.66-51.71-112C35.28,274.73,51.2,272.73,71,269S94.88,257.39,115,322.5Z"/><path class="cls-6" d="M116.36,308.2c12.18,30.65,17.79,57.87-22.38,69.45-29.91,8.63-53.58-73.87-60.15-106.76C33.28,268.12,49,264.63,68.41,259S91.33,245.22,116.36,308.2Z"/><ellipse class="cls-2" cx="64.23" cy="260.56" rx="32.18" ry="16.24"/><path class="cls-1" d="M164.69,322.5c-9.78,31.68-13.28,59.33,27.64,67.09,30.46,5.77,47.7-78.66,51.72-112,.34-2.81-15.59-4.81-35.37-8.56S184.78,257.39,164.69,322.5Z"/><path class="cls-6" d="M163.31,308.2c-12.18,30.65-17.79,57.87,22.38,69.45,29.91,8.63,53.57-73.87,60.14-106.76.56-2.77-15.16-6.26-34.58-11.86S188.33,245.22,163.31,308.2Z"/><ellipse class="cls-2" cx="217.18" cy="260.56" rx="32.18" ry="16.24"/></g></g></svg>