<?xml version="1.0" encoding="UTF-8"?>
<svg id="Capa_2" data-name="Capa 2" xmlns="http://www.w3.org/2000/svg" viewBox="0 0 752.3 752.3">
  <defs>
    <style>
      .cls-1 {
        fill: #b27966;
      }

      .cls-2 {
        fill: #fff;
      }

      .cls-3 {
        fill: #774430;
      }

      .cls-4 {
        fill: #9b633d;
      }

      .cls-5 {
        fill: #dda783;
      }

      .cls-6 {
        fill: #f4b54b;
      }
    </style>
  </defs>
  <g id="Capa_4" data-name="Capa 4">
    <g>
      <circle class="cls-4" cx="376.15" cy="376.15" r="376.15"/>
      <g>
        <path class="cls-6" d="M215.15,510.29l1.17,1.88c-.49-.53-.88-1.16-1.17-1.88Z"/>
        <g>
          <path class="cls-5" d="M462.44,187.86s45.99-101.18,101.18-36.79c55.19,64.38-64.38,91.98-64.38,91.98"/>
          <path class="cls-1" d="M469.78,193.13s30.98-68.17,68.17-24.79c37.18,43.38-43.38,61.97-43.38,61.97"/>
        </g>
        <g>
          <path class="cls-5" d="M289.87,187.86s-45.99-101.18-101.18-36.79c-55.19,64.38,64.38,91.98,64.38,91.98"/>
          <path class="cls-1" d="M274.87,193.08s-29.48-64.87-64.87-23.59c-35.38,41.28,41.28,58.97,41.28,58.97"/>
        </g>
        <g>
          <path class="cls-5" d="M541.69,296.05c0,95.09-21.39,183.05-166.34,183.05s-162.33-87.96-162.33-183.05,112.42-142.68,162.33-142.68c61.78,0,166.34,47.59,166.34,142.68Z"/>
          <g>
            <path class="cls-5" d="M258.33,372.19s-28.51-19.66-52.06,18.4"/>
            <path class="cls-5" d="M249.84,375.62s-32.9-5.09-44.76,35.37"/>
            <path class="cls-5" d="M258.33,376.23s-33.29.07-38.74,41.88"/>
          </g>
          <g>
            <path class="cls-5" d="M502.86,372.19s28.51-19.66,52.06,18.4"/>
            <path class="cls-5" d="M511.35,375.62s32.9-5.09,44.76,35.37"/>
            <path class="cls-5" d="M502.86,376.23s33.29.07,38.74,41.88"/>
          </g>
        </g>
        <g>
          <path class="cls-1" d="M425.14,361.45c-5.28-7.22-30-39.51-49.79-38.32-22.28,1.34-49.29,37.96-49.29,37.96l.03.06c-4.86,2.87-7.99,7.04-7.99,11.75l17.67,87.08c0,8.65,9.23,15.66,22,15.66h35.35c12.77,0,21.81-7.01,21.81-15.66l17.67-87.08c0-4.54-2.9-8.6-7.46-11.46Z"/>
          <path class="cls-3" d="M360.37,385.85c-2.08,2.59-9.28,1.19-16.07-3.13-6.79-4.32-10.61-9.92-8.53-12.51s9.28-1.19,16.07,3.13c6.79,4.32,10.61,9.92,8.53,12.51Z"/>
          <path class="cls-3" d="M391.92,385.85c2.08,2.59,9.28,1.19,16.07-3.13,6.79-4.32,10.61-9.92,8.53-12.51-2.08-2.59-9.28-1.19-16.07,3.13s-10.61,9.92-8.53,12.51Z"/>
          <path class="cls-3" d="M404.22,451.63c-6.87,7-15.24,4.91-19.99,3.11-5.45-2.06-6.87-7.59-6.87-7.59l-2.01-61.15-2.63,60.83s-2.54,7.12-7.76,8.86c-4.81,1.6-10.63,2.91-17.63-3.64-6.09-5.7-5.14-4.97-13.72-15.58,0,0,9.37,15.01,13.33,18.45,8.05,6.99,23.21,3.85,28.51,2.18,5.3,1.68,20.27,4.83,28.32-2.16,3.96-3.43,13.33-18.45,13.33-18.45-8.51,10.16-3.84,5.95-12.87,15.15Z"/>
        </g>
        <g>
          <ellipse class="cls-3" cx="462.44" cy="267.47" rx="19.74" ry="36.85" transform="translate(11.34 553.66) rotate(-62.44)"/>
          <ellipse class="cls-2" cx="483.27" cy="269.23" rx="3.95" ry="7.52" transform="translate(-8.81 521.99) rotate(-56.31)"/>
          <ellipse class="cls-2" cx="446.57" cy="267.47" rx="5.47" ry="12.11" transform="translate(-23.7 490.67) rotate(-56.31)"/>
        </g>
        <g>
          <ellipse class="cls-3" cx="294.55" cy="272.77" rx="36.85" ry="19.74" transform="translate(-92.78 167.25) rotate(-27.56)"/>
          <ellipse class="cls-2" cx="273.72" cy="274.52" rx="7.52" ry="3.95" transform="translate(-106.3 197.94) rotate(-33.69)"/>
          <ellipse class="cls-2" cx="310.42" cy="272.77" rx="12.11" ry="5.47" transform="translate(-99.17 218) rotate(-33.69)"/>
        </g>
      </g>
      <g>
        <path class="cls-2" d="M290.45,633.47c.97-6.94,2-13.92,3.1-20.95,1.1-7.03,2.24-13.81,3.43-20.36,1.19-6.54,2.31-12.45,3.36-17.72,1.14-5.71,2.28-11.51,3.43-17.39,1.14-5.88,2.33-11.81,3.56-17.79l23.06-3.03-6.85,29.78c-1.23,5.18-2.48,10.74-3.76,16.67-1.27,5.93-2.44,11.66-3.49,17.19-1.05,5.53-1.89,10.45-2.5,14.76,2.19-.17,4.55-.28,7.05-.33,2.5-.04,4.72-.07,6.65-.07.09,2.02.26,4.15.53,6.39.26,2.24.55,4.17.86,5.8.31,1.63.46,2.53.46,2.7h-.99c-.31,0-.64-.04-.99-.13h-2.11c-3.43,0-7.23.15-11.4.46-4.17.31-8.3.79-12.39,1.45s-7.75,1.51-11,2.57Z"/>
        <path class="cls-2" d="M370.68,632.95c.18-1.49.35-2.94.53-4.35.17-1.4.35-2.81.53-4.22l.79-7.38c.09-1.23.17-2.37.26-3.43.09-1.05.17-2.02.26-2.9h-11.46l-5.27,18.97c-1.93.26-4.22.55-6.85.86-2.64.31-5.1.59-7.38.86-1.41.18-2.79.35-4.15.53-1.36.18-2.74.35-4.15.53l10.41-34.52c1.23-4.13,2.63-8.83,4.22-14.1,1.58-5.27,3.18-10.67,4.81-16.21,1.62-5.53,3.16-10.74,4.61-15.61s2.61-8.98,3.49-12.32c5.97-.44,12.06-.97,18.25-1.58,6.19-.61,12.23-1.45,18.12-2.5-.44,4.92-.86,10.47-1.25,16.67-.4,6.19-.75,12.58-1.05,19.17-.31,6.59-.64,13.09-.99,19.5-.18,6.06-.4,12.32-.66,18.78-.26,6.46-.53,13.07-.79,19.83-1.32.18-2.64.35-3.95.53-1.32.18-2.64.35-3.95.53-2.2.35-4.61.75-7.25,1.19-2.64.44-5.01.84-7.12,1.19ZM364.76,597.51c.53,0,1.52-.04,2.96-.13,1.45-.09,2.83-.17,4.15-.26,1.32-.09,2.11-.13,2.37-.13,0-1.14.17-3.47.53-6.98.35-3.51.7-7.2,1.05-11.07.17-2.28.37-4.63.59-7.05.22-2.42.46-4.9.72-7.44l.79-11.46-1.98.13-3.03,11.33-8.17,33.07Z"/>
        <path class="cls-2" d="M402.04,633.34c1.23-4.22,2.42-9.03,3.56-14.43,1.14-5.4,2.22-10.91,3.23-16.54,1.01-5.62,1.95-10.85,2.83-15.68.88-4.83,1.58-8.83,2.11-11.99.97-5.88,1.91-11.84,2.83-17.85.92-6.02,1.82-12.14,2.7-18.38l44.14-2.24-3.82,16.21h-20.69l-4.08,23.45c1.4-.09,2.74-.13,4.02-.13h12.71c.79,0,1.49-.04,2.11-.13-.09,1.23-.22,2.44-.4,3.62-.18,1.19-.35,2.39-.53,3.62l-1.19,7.11c-1.84,0-4.5-.07-7.97-.2-3.47-.13-7.14-.24-11-.33l-6.06,38.87c-1.49.26-2.96.53-4.41.79-1.45.26-2.92.57-4.41.92-2.46.44-5.14.97-8.04,1.58-2.9.62-5.45,1.19-7.64,1.71Z"/>
      </g>
    </g>
  </g>
</svg>