<?xml version="1.0" encoding="UTF-8"?>
<svg id="Capa_2" data-name="Capa 2" xmlns="http://www.w3.org/2000/svg" viewBox="0 0 752.3 752.3">
  <defs>
    <style>
      .cls-1 {
        fill: #f4f3e6;
      }

      .cls-2 {
        fill: #fff;
      }

      .cls-3 {
        fill: none;
        stroke-miterlimit: 10;
        stroke-width: .79px;
      }

      .cls-3, .cls-4 {
        stroke: #1d1d1b;
      }

      .cls-5 {
        fill: #9b633d;
      }

      .cls-4 {
        fill: #1d1d1b;
        stroke-miterlimit: 10;
        stroke-width: .79px;
      }

      .cls-6 {
        fill: #f1a8ca;
      }

      .cls-7 {
        fill: #f4b54b;
      }
    </style>
  </defs>
  <g id="Capa_4" data-name="Capa 4">
    <g>
      <circle class="cls-5" cx="376.15" cy="376.15" r="376.15"/>
      <g>
        <path class="cls-2" d="M190.12,633.27c-3.25,0-6.28-.26-9.09-.79,4.22-15.37,7.58-30.85,10.08-46.44,2.5-15.59,4.9-31.29,7.18-47.1,4.57-.96,9.31-1.82,14.23-2.57,4.92-.75,10.01-1.12,15.28-1.12,2.9,0,5.97.51,9.22,1.51,3.25,1.01,6,2.81,8.23,5.4,2.24,2.59,3.36,6.26,3.36,11,0,4.39-.92,8.43-2.77,12.12-1.84,3.69-4.17,6.85-6.98,9.49-2.81,2.64-5.71,4.53-8.7,5.67,1.23.62,2.68,1.71,4.35,3.29,1.67,1.58,3.12,3.69,4.35,6.32,1.23,2.63,1.84,5.84,1.84,9.62,0,5.27-1.56,10.04-4.68,14.3-3.12,4.26-7.27,7.8-12.45,10.61-5.01,2.81-10.41,4.96-16.21,6.46-5.8,1.5-11.55,2.24-17.26,2.24ZM206.85,606.65c1.76-.17,3.69-.48,5.8-.92,2.11-.44,4.13-1.12,6.06-2.04,1.93-.92,3.54-2.15,4.81-3.69,1.27-1.54,1.91-3.4,1.91-5.6s-.7-3.78-2.11-5.01c-1.41-1.23-3.1-2.13-5.07-2.7-1.98-.57-3.84-.86-5.6-.86h-1.05c-.44,0-.79.04-1.05.13-.53,3.25-1.14,6.68-1.84,10.28-.7,3.6-1.32,7.07-1.84,10.41ZM213.57,569.63c2.72-.53,5.31-1.23,7.77-2.11,2.46-.88,4.46-1.89,6-3.03,1.54-1.14,2.31-2.37,2.31-3.69,0-1.67-.66-2.99-1.98-3.95-1.32-.96-2.9-1.67-4.74-2.11-1.84-.44-3.56-.66-5.14-.66h-1.32c-.62,3.51-1.19,6.57-1.71,9.16-.53,2.59-.92,4.72-1.19,6.39Z"/>
        <path class="cls-2" d="M244.67,632.61c1.49-5.18,2.96-11.07,4.41-17.66s2.85-13.33,4.22-20.22c1.36-6.89,2.66-13.42,3.89-19.57,1.14-5.62,2.24-11.33,3.29-17.13,1.05-5.8,2.11-11.64,3.16-17.52l20.55-3.29c-1.14,5.89-2.29,11.71-3.43,17.46-1.14,5.75-2.29,11.49-3.42,17.19-1.23,6.15-2.5,12.65-3.82,19.5s-2.59,13.59-3.82,20.22c-1.23,6.63-2.37,12.8-3.43,18.51-1.58,0-3.56.11-5.93.33-2.37.22-4.74.48-7.12.79-2.37.31-4.37.59-6,.86-1.63.26-2.48.44-2.57.53Z"/>
        <path class="cls-2" d="M309.1,635.9c-3.25,0-6.35-.7-9.29-2.11-2.94-1.4-5.47-3.56-7.58-6.46-2.2-2.81-3.91-6.37-5.14-10.67-1.23-4.3-1.84-9.35-1.84-15.15,0-11.33,1.62-21.21,4.88-29.65,3.25-8.43,7.38-15.46,12.38-21.08,4.92-5.62,10.21-9.79,15.88-12.52,5.67-2.72,10.96-4.08,15.88-4.08s8.61,1.03,11.59,3.1c2.98,2.06,5.18,4.81,6.59,8.23,1.4,3.43,2.11,7.25,2.11,11.46l-18.05,3.43c-.79-3.51-1.84-6.02-3.16-7.51-1.32-1.49-2.81-2.24-4.48-2.24-1.93,0-3.93,1.05-6,3.16-2.06,2.11-4.08,4.94-6.06,8.5-1.98,3.56-3.75,7.53-5.34,11.92-1.58,4.39-2.88,8.92-3.89,13.57-1.01,4.66-1.6,9.05-1.78,13.18,0,5.45.81,9.33,2.44,11.66,1.62,2.33,3.71,3.49,6.26,3.49s4.9-.79,7.31-2.37c2.42-1.58,4.43-3.71,6.06-6.39,1.62-2.68,2.48-5.69,2.57-9.03l-14.1,2.11,2.5-13.04,12.12-1.58c3.34-.44,6.87-.97,10.61-1.58,3.73-.61,7-1.19,9.82-1.71-.62,8.96-2.35,16.8-5.2,23.52-2.86,6.72-6.39,12.28-10.61,16.67-4.22,4.39-8.63,7.69-13.24,9.88-4.61,2.19-9.03,3.29-13.24,3.29Z"/>
        <path class="cls-2" d="M377.21,633.27c-5.8,0-10.54-2.24-14.23-6.72s-5.53-11.24-5.53-20.29c0-5.01.61-10.28,1.84-15.81,1.23-5.53,2.94-10.98,5.14-16.34,2.19-5.36,4.74-10.32,7.64-14.89,4.65-7.38,10.01-13.39,16.07-18.05,6.06-4.66,12.43-6.98,19.1-6.98,5.27,0,9.33,1.34,12.19,4.02,2.85,2.68,4.85,6.11,6,10.28,1.14,4.17,1.71,8.5,1.71,12.98,0,10.46-1.6,20.18-4.81,29.18-3.21,9-7.36,16.62-12.45,22.86-5.1,6.41-10.52,11.31-16.27,14.69-5.75,3.38-11.22,5.07-16.4,5.07ZM384.33,611.53c3.95,0,7.44-1.32,10.47-3.95,3.03-2.63,5.6-5.99,7.71-10.08,2.11-4.08,3.69-8.37,4.74-12.85,1.05-4.48,1.58-8.52,1.58-12.12,0-1.4-.13-2.92-.4-4.55-.26-1.62-.84-3.05-1.71-4.28-.88-1.23-2.24-1.84-4.08-1.84-4.04,0-7.69,1.47-10.94,4.41-3.25,2.94-5.97,6.65-8.17,11.13-2.2,4.57-3.82,9.05-4.88,13.44-1.05,4.39-1.58,8.39-1.58,11.99,0,1.84.66,3.75,1.98,5.73,1.32,1.98,3.07,2.96,5.27,2.96Z"/>
        <path class="cls-2" d="M435.58,632.87c.96-4.83,1.95-9.64,2.96-14.43,1.01-4.79,1.95-9.51,2.83-14.16,3.34-16.69,6.06-32.68,8.17-47.96-.97-.18-1.98-.28-3.03-.33-1.05-.04-2.06-.02-3.03.07-2.11.18-4.17-.09-6.19-.79.09-.7.13-1.47.13-2.31v-5.4c0-.92.04-1.82.13-2.7.09-.97.13-2,.13-3.1s.04-2.22.13-3.36c2.28.18,4.57.31,6.85.39,2.28.09,4.57.13,6.85.13,6.5,0,12.71-.22,18.64-.66,5.93-.44,11.4-.97,16.4-1.58l-1.45,7.11-1.19,6.19c-.44,2.29-.84,4.08-1.19,5.4-.97.26-1.93.48-2.9.66-.97.18-1.93.31-2.9.4-.97.09-1.96.22-2.96.39-1.01.18-2,.35-2.96.53-1.32,6.5-2.39,12.12-3.23,16.87-.84,4.74-1.58,9.29-2.24,13.64s-1.43,9.11-2.31,14.3c-1.5,8.87-2.81,17.88-3.95,27.01l-23.72,3.69Z"/>
        <path class="cls-2" d="M477.88,632.61c1.49-5.18,2.96-11.07,4.41-17.66s2.85-13.33,4.22-20.22c1.36-6.89,2.66-13.42,3.89-19.57,1.14-5.62,2.24-11.33,3.29-17.13,1.05-5.8,2.11-11.64,3.16-17.52l20.55-3.29c-1.14,5.89-2.29,11.71-3.43,17.46-1.14,5.75-2.29,11.49-3.42,17.19-1.23,6.15-2.5,12.65-3.82,19.5s-2.59,13.59-3.82,20.22c-1.23,6.63-2.37,12.8-3.43,18.51-1.58,0-3.56.11-5.93.33-2.37.22-4.74.48-7.12.79-2.37.31-4.37.59-6,.86-1.63.26-2.48.44-2.57.53Z"/>
        <path class="cls-2" d="M513.71,633.4c1.23-6.24,2.44-12.36,3.62-18.38,1.19-6.02,2.35-11.97,3.49-17.85,1.23-6.85,2.48-13.79,3.75-20.82,1.27-7.03,2.46-13.88,3.56-20.55,1.1-6.67,1.95-12.87,2.57-18.58,1.4-.09,2.77-.17,4.08-.26,1.32-.09,2.59-.17,3.82-.26,1.14-.09,2.31-.18,3.49-.26,1.19-.09,2.35-.17,3.49-.26l6.32-.4c.61,3.34,1.16,6.63,1.65,9.88.48,3.25.94,6.41,1.38,9.49.35,2.11.77,4.57,1.25,7.38.48,2.81.97,5.69,1.45,8.63.48,2.94.97,5.69,1.45,8.24.48,2.55.9,4.61,1.25,6.19.88-4.66,1.6-8.5,2.17-11.53.57-3.03,1.14-5.97,1.71-8.83.57-2.85,1.25-6.21,2.04-10.08l4.08-19.24,16.07-1.98c-1.49,6.59-2.9,13-4.22,19.24-1.32,6.24-2.55,12.3-3.69,18.18-2.2,10.63-4.13,20.58-5.8,29.84-1.67,9.27-2.94,17.37-3.82,24.31l-21.48,5.01-1.98-20.29c-.18-2.02-.44-4.46-.79-7.31-.35-2.85-.7-5.8-1.05-8.83-.35-3.03-.7-5.8-1.05-8.3-.35-2.5-.62-4.37-.79-5.6-.88,5.18-1.71,10.21-2.5,15.09-.79,4.88-1.67,9.6-2.63,14.16-.62,3.08-1.21,6.26-1.78,9.55-.57,3.29-1.21,6.61-1.91,9.95l-19.24,4.48Z"/>
      </g>
    </g>
    <g>
      <path class="cls-7" d="M223.49,506.45l1.17,1.88c-.49-.53-.88-1.16-1.17-1.88Z"/>
      <g>
        <path class="cls-1" d="M450.16,220.5c2.89-6.58,79.56-88.83,104.2-95.62,0,0,34.33,35.23-44.27,160.85-78.6,125.63-59.93-65.24-59.93-65.24Z"/>
        <path class="cls-6" d="M468.29,223.49c1.84-4.17,50.74-56.66,66.44-60.95,0,0,21.9,22.47-28.22,102.54-50.12,80.07-38.22-41.59-38.22-41.59Z"/>
        <path class="cls-1" d="M348.25,212.45c-.84-7.1-50.06-108.28-71.63-121.93,0,0-43.15,23.63-4.78,166.76,38.37,143.12,76.4-44.82,76.4-44.82Z"/>
        <path class="cls-6" d="M332.75,209.1c-.53-4.53-31.93-69.03-45.68-77.73,0,0-27.51,15.07-3.04,106.35,24.47,91.28,48.72-28.62,48.72-28.62Z"/>
        <path class="cls-1" d="M520.32,327.09s12.13-122.18-134.67-120.69v-.09c-1.04.05-5.59.2-6.86.24l-.02.11c-146.82,9.52-136.16,130.85-136.16,130.85,0,0-109.6,135.01,137.06,132.47l1.92-.07c246.75-15.96,138.72-142.81,138.72-142.81Z"/>
        <path class="cls-3" d="M342.41,427.02c20.95,38.79,37.17-4.69,37.17-4.69,0,0,18.86,43.17,36.91,9.13"/>
        <path class="cls-6" d="M377.32,420.39l-15.66-13.64c-1.41-1.23-1.55-3.36-.32-4.77.62-.71,1.52-1.13,2.46-1.16l31.76-.69c1.87-.04,3.41,1.44,3.45,3.31.02.99-.39,1.93-1.13,2.59l-16.1,14.33c-1.27,1.13-3.18,1.14-4.46.02Z"/>
        <ellipse class="cls-4" cx="311.06" cy="339.3" rx="39.04" ry="33.04" transform="translate(-64.67 73.38) rotate(-12.2)"/>
        <ellipse class="cls-2" cx="327.78" cy="329.98" rx="6.68" ry="10.14" transform="translate(-47.08 605.3) rotate(-81.49)"/>
        <circle class="cls-2" cx="294.76" cy="350.98" r="9.49" transform="translate(-95.99 590.54) rotate(-81.49)"/>
        <ellipse class="cls-4" cx="451.59" cy="335.32" rx="39.04" ry="33.04" transform="translate(-60.65 102.99) rotate(-12.2)"/>
        <ellipse class="cls-2" cx="468.32" cy="326" rx="6.68" ry="10.14" transform="translate(76.58 740.91) rotate(-81.49)"/>
        <circle class="cls-2" cx="435.3" cy="347.02" r="9.49"/>
      </g>
    </g>
  </g>
</svg>