<?xml version="1.0" encoding="UTF-8"?>
<svg id="Capa_2" data-name="Capa 2" xmlns="http://www.w3.org/2000/svg" viewBox="0 0 752.3 752.3">
  <defs>
    <style>
      .cls-1 {
        fill: #fbdbc6;
      }

      .cls-2 {
        fill: #82491d;
      }

      .cls-3 {
        fill: #fff;
      }

      .cls-4 {
        fill: #9b633d;
      }

      .cls-5 {
        fill: #fbd397;
      }

      .cls-6 {
        fill: #ffecd4;
      }

      .cls-7 {
        fill: #591814;
      }

      .cls-8 {
        fill: #ffecd3;
      }

      .cls-9 {
        fill: #b47270;
      }

      .cls-10 {
        fill: #f4b54b;
      }

      .cls-11 {
        fill: #247c48;
      }

      .cls-12 {
        fill: #379150;
      }
    </style>
  </defs>
  <g id="Capa_4" data-name="Capa 4">
    <g>
      <circle class="cls-4" cx="376.15" cy="376.15" r="376.15"/>
      <g>
        <path class="cls-3" d="M165.08,632.87l6.85-34.26c1.05-6.32,2.2-12.82,3.43-19.5,1.23-6.67,2.39-13.26,3.49-19.76,1.1-6.5,1.95-12.6,2.57-18.31,5.01-1.58,10.41-2.74,16.21-3.49,5.8-.75,11.55-1.12,17.26-1.12,6.67,0,11.22,1.45,13.64,4.35,2.42,2.9,3.62,6.81,3.62,11.73,0,4.48-1.05,8.98-3.16,13.5-2.11,4.53-4.85,8.61-8.24,12.25-3.38,3.65-7.09,6.52-11.13,8.63,1.58,3.51,3.27,7.36,5.07,11.53,1.8,4.17,3.49,8.15,5.07,11.92.88,2.2,1.78,4.39,2.7,6.59.92,2.2,1.82,4.39,2.7,6.59l-20.42,7.11c-.88-3.07-1.71-6.02-2.5-8.83-.79-2.81-1.54-5.58-2.24-8.3-.88-3.25-1.71-6.39-2.5-9.42-.79-3.03-1.47-5.73-2.04-8.1-.57-2.37-.9-4.04-.99-5.01l-1.71.53c-.53,2.81-1.17,6.24-1.91,10.28-.75,4.04-1.43,7.95-2.04,11.73l-2.37,13.83-21.34,5.53ZM196.04,575.69c1.58-.17,3.53-.86,5.86-2.04,2.33-1.19,4.65-2.66,6.98-4.41,2.33-1.76,4.28-3.56,5.86-5.4s2.37-3.47,2.37-4.88c0-1.76-1.03-2.92-3.1-3.49-2.06-.57-4.77-.86-8.1-.86h-2.9c-.53.09-1.01.13-1.45.13h-1.32l-4.22,20.95Z"/>
        <path class="cls-3" d="M232.01,632.87l17.26-93.68,41.63-3.56c-.62,1.93-1.14,3.91-1.58,5.93-.44,1.67-.86,3.4-1.25,5.2-.4,1.8-.72,3.41-.99,4.81-1.14.09-2.77.15-4.88.2-2.11.04-4.26.09-6.46.13-2.2.04-4.08.07-5.67.07h-2.5l-4.61,23.58,7.64-.4c.97-.09,1.95-.13,2.96-.13h5.6c.79,0,1.4-.04,1.84-.13-.18,1.23-.33,2.44-.46,3.62-.13,1.19-.29,2.39-.46,3.62l-1.19,7.25c-.44.09-1.01.13-1.71.13h-2.5c-.97.09-1.98.13-3.03.13s-2.06.05-3.03.13c-1.14.09-2.33.13-3.56.13s-2.55.05-3.95.13l-4.48,24.24,19.24-3.03-1.32,15.02-42.56,6.59Z"/>
        <path class="cls-3" d="M279.84,631.95c3.87-11.77,7.55-23.23,11.07-34.39,1.49-4.57,3.03-9.44,4.61-14.62,1.58-5.18,3.16-10.39,4.74-15.61,1.58-5.22,3.07-10.25,4.48-15.09,1.4-4.83,2.59-9.13,3.56-12.91,4.83,0,9.4-.26,13.7-.79,2.19-.26,4.46-.53,6.79-.79,2.33-.26,4.72-.48,7.18-.66l-.79,6.46c-.18,1.23-.35,2.48-.53,3.76-.18,1.27-.35,2.57-.53,3.89-.18,1.32-.39,2.66-.66,4.02-.26,1.36-.48,2.75-.66,4.15-.35,2.72-.88,6.52-1.58,11.4-.7,4.88-1.54,10.17-2.5,15.88h1.71c2.55-6.67,4.65-12.23,6.32-16.67,1.67-4.43,3.03-8.06,4.08-10.87,1.49-4.13,3.12-8.3,4.88-12.52,1.76-4.22,3.21-7.46,4.35-9.75,2.11-.18,4.63-.46,7.58-.86,2.94-.4,5.93-.86,8.96-1.38s5.64-.97,7.84-1.32c-1.23,7.38-2.35,14.82-3.36,22.33-1.01,7.51-1.89,14.67-2.63,21.48-.75,6.81-1.38,12.94-1.91,18.38-.53,5.45-1.01,10.83-1.45,16.14-.44,5.32-.88,10.56-1.32,15.75l-22.93,4.08c0-.17.13-2.15.4-5.93.26-3.78.7-8.48,1.32-14.1.61-5.62,1.23-10.96,1.84-16.01.61-5.05,1.23-9.2,1.84-12.45h-1.19c-2.2,6.68-4.85,13.97-7.97,21.87-3.12,7.91-6.17,16.65-9.16,26.22-3.08.09-5.71.2-7.91.33-2.2.13-4.74.29-7.64.46l4.22-48.88h-1.98c-.09.97-.48,2.83-1.19,5.6-.7,2.77-1.54,5.93-2.5,9.49-.97,3.56-1.98,7.09-3.03,10.61-3.95,13.79-6.06,21.08-6.32,21.87l-21.74,1.45Z"/>
        <path class="cls-3" d="M397.1,633.27c-5.8,0-10.54-2.24-14.23-6.72s-5.53-11.24-5.53-20.29c0-5.01.61-10.28,1.84-15.81,1.23-5.53,2.94-10.98,5.14-16.34,2.19-5.36,4.74-10.32,7.64-14.89,4.65-7.38,10.01-13.39,16.07-18.05,6.06-4.66,12.43-6.98,19.1-6.98,5.27,0,9.33,1.34,12.19,4.02,2.85,2.68,4.85,6.11,6,10.28,1.14,4.17,1.71,8.5,1.71,12.98,0,10.46-1.6,20.18-4.81,29.18-3.21,9-7.36,16.62-12.45,22.86-5.1,6.41-10.52,11.31-16.27,14.69-5.75,3.38-11.22,5.07-16.4,5.07ZM404.21,611.53c3.95,0,7.44-1.32,10.47-3.95,3.03-2.63,5.6-5.99,7.71-10.08,2.11-4.08,3.69-8.37,4.74-12.85,1.05-4.48,1.58-8.52,1.58-12.12,0-1.4-.13-2.92-.4-4.55-.26-1.62-.84-3.05-1.71-4.28-.88-1.23-2.24-1.84-4.08-1.84-4.04,0-7.69,1.47-10.94,4.41-3.25,2.94-5.97,6.65-8.17,11.13-2.2,4.57-3.82,9.05-4.88,13.44-1.05,4.39-1.58,8.39-1.58,11.99,0,1.84.66,3.75,1.98,5.73,1.32,1.98,3.07,2.96,5.27,2.96Z"/>
        <path class="cls-3" d="M447.69,633c.97-6.94,2-13.92,3.1-20.95,1.1-7.03,2.24-13.81,3.43-20.36,1.19-6.54,2.31-12.45,3.36-17.72,1.14-5.71,2.28-11.51,3.43-17.39,1.14-5.88,2.33-11.81,3.56-17.79l23.06-3.03-6.85,29.78c-1.23,5.18-2.48,10.74-3.75,16.67-1.27,5.93-2.44,11.66-3.49,17.19-1.05,5.53-1.89,10.45-2.5,14.76,2.19-.17,4.55-.28,7.05-.33,2.5-.04,4.72-.07,6.65-.07.09,2.02.26,4.15.53,6.39.26,2.24.55,4.17.86,5.8.31,1.63.46,2.53.46,2.7h-.99c-.31,0-.64-.04-.99-.13h-2.11c-3.43,0-7.23.15-11.4.46-4.17.31-8.3.79-12.38,1.45-4.08.66-7.75,1.51-11,2.57Z"/>
        <path class="cls-3" d="M493.02,632.61c1.49-5.18,2.96-11.07,4.41-17.66s2.85-13.33,4.22-20.22c1.36-6.89,2.66-13.42,3.89-19.57,1.14-5.62,2.24-11.33,3.29-17.13,1.05-5.8,2.11-11.64,3.16-17.52l20.55-3.29c-1.14,5.89-2.29,11.71-3.43,17.46-1.14,5.75-2.29,11.49-3.42,17.19-1.23,6.15-2.5,12.65-3.82,19.5s-2.59,13.59-3.82,20.22c-1.23,6.63-2.37,12.8-3.43,18.51-1.58,0-3.56.11-5.93.33-2.37.22-4.74.48-7.12.79-2.37.31-4.37.59-6,.86-1.63.26-2.48.44-2.57.53ZM514.1,534.05c-.09-.44-.13-.9-.13-1.38v-5.8c0-.75.04-1.47.13-2.17v-4.48c2.98-3.07,5.88-5.95,8.7-8.63,2.81-2.68,5.53-5.2,8.17-7.58,2.64-2.37,5.18-4.79,7.64-7.25,2.46-2.46,4.83-4.92,7.11-7.38.44,5.97.7,11.46.79,16.47,0,2.55.09,5.12.26,7.71.17,2.59.44,5.25.79,7.97-2.55,1.05-5.23,2.11-8.04,3.16-2.81,1.05-5.71,2.11-8.7,3.16-2.99,1.14-5.89,2.22-8.7,3.23-2.81,1.01-5.49,2-8.04,2.96Z"/>
        <path class="cls-3" d="M528.85,633.4c1.23-6.24,2.44-12.36,3.62-18.38,1.19-6.02,2.35-11.97,3.49-17.85,1.23-6.85,2.48-13.79,3.75-20.82,1.27-7.03,2.46-13.88,3.56-20.55,1.1-6.67,1.95-12.87,2.57-18.58,1.4-.09,2.77-.17,4.08-.26,1.32-.09,2.59-.17,3.82-.26,1.14-.09,2.31-.18,3.49-.26,1.19-.09,2.35-.17,3.49-.26l6.32-.4c.61,3.34,1.16,6.63,1.65,9.88.48,3.25.94,6.41,1.38,9.49.35,2.11.77,4.57,1.25,7.38.48,2.81.97,5.69,1.45,8.63.48,2.94.97,5.69,1.45,8.24.48,2.55.9,4.61,1.25,6.19.88-4.66,1.6-8.5,2.17-11.53.57-3.03,1.14-5.97,1.71-8.83.57-2.85,1.25-6.21,2.04-10.08l4.08-19.24,16.07-1.98c-1.49,6.59-2.9,13-4.22,19.24-1.32,6.24-2.55,12.3-3.69,18.18-2.2,10.63-4.13,20.58-5.8,29.84-1.67,9.27-2.94,17.37-3.82,24.31l-21.48,5.01-1.98-20.29c-.18-2.02-.44-4.46-.79-7.31-.35-2.85-.7-5.8-1.05-8.83-.35-3.03-.7-5.8-1.05-8.3-.35-2.5-.62-4.37-.79-5.6-.88,5.18-1.71,10.21-2.5,15.09-.79,4.88-1.67,9.6-2.63,14.16-.62,3.08-1.21,6.26-1.78,9.55-.57,3.29-1.21,6.61-1.91,9.95l-19.24,4.48Z"/>
      </g>
    </g>
    <g>
      <path class="cls-10" d="M217.93,530.75l1.17,1.88c-.49-.53-.88-1.16-1.17-1.88Z"/>
      <path class="cls-2" d="M545.13,458.17H207.13c48.69-41.4-8.64-69.21-8.64-69.21,63.7-49.25,6.64-107.96,6.64-107.96,114.26,2.78,57.97-100.98,57.97-100.98,110.65,13.06,112.87-51.03,112.87-56.24l.13,1.61.22-1.95s-2.43,70.21,112.82,56.59c0,0-56.24,103.75,58.02,100.98,0,0-57.06,58.71,6.64,107.96,0,0-57.28,27.82-8.68,69.21Z"/>
      <ellipse class="cls-8" cx="375.97" cy="356.11" rx="114.94" ry="117.39"/>
      <ellipse class="cls-8" cx="465.06" cy="274.7" rx="21.66" ry="33.19"/>
      <ellipse class="cls-8" cx="282.69" cy="274.7" rx="21.66" ry="33.19"/>
      <g>
        <path class="cls-12" d="M366.44,446.97l-53.48-10.81c-4.54-1.31-9.08,2.09-9.08,6.82v31.59c0,4.89,4.83,8.32,9.45,6.71l51.19-10.71c6.53-2.28,8.57-21.68,1.92-23.6Z"/>
        <path class="cls-11" d="M366.44,446.97l-28.37-5.73c2.75,6.76,2.36,14.42-12.85,15.3-27.78,1.62,3.05,5.08,11.98,5.77,6.31.49,10.76,7.64,5.72,12.78l21.6-4.52c6.53-2.28,8.57-21.68,1.92-23.6Z"/>
      </g>
      <g>
        <path class="cls-12" d="M387.61,446.97l53.48-10.81c4.54-1.31,9.08,2.09,9.08,6.82v31.59c0,4.89-4.83,8.32-9.45,6.71l-51.19-10.71c-6.53-2.28-8.57-21.68-1.92-23.6Z"/>
        <path class="cls-11" d="M387.25,446.97l28.37-5.73c-2.75,6.76-2.36,14.42,12.85,15.3,27.78,1.62-3.05,5.08-11.98,5.77-6.31.49-10.76,7.64-5.72,12.78l-21.6-4.52c-6.53-2.28-8.57-21.68-1.92-23.6Z"/>
      </g>
      <path class="cls-12" d="M400.85,460.61c0,13.66.44,24.61-24.73,24.73-24.73.11-24.73-11.07-24.73-24.73s0-24.73,24.73-24.73c30.26,0,24.73,11.07,24.73,24.73Z"/>
      <g>
        <ellipse class="cls-1" cx="320.34" cy="382.16" rx="31.43" ry="14.41"/>
        <ellipse class="cls-1" cx="431.6" cy="382.16" rx="31.43" ry="14.41"/>
        <ellipse class="cls-5" cx="376.9" cy="386.52" rx="49" ry="33.03"/>
        <path class="cls-9" d="M367.85,353.49h18.09c3.4,0,5.6,2.9,4.07,5.36l-9.05,14.47c-1.69,2.7-6.45,2.7-8.14,0l-9.05-14.47c-1.54-2.46.67-5.36,4.07-5.36Z"/>
      </g>
      <ellipse class="cls-7" cx="338.9" cy="329.3" rx="18.55" ry="24.2"/>
      <ellipse class="cls-6" cx="345.31" cy="319.68" rx="4.63" ry="7.95"/>
      <ellipse class="cls-7" cx="413.04" cy="329.3" rx="18.55" ry="24.2"/>
      <ellipse class="cls-6" cx="419.45" cy="319.68" rx="4.63" ry="7.95"/>
    </g>
  </g>
</svg>