<?xml version="1.0" encoding="UTF-8"?>
<svg id="Capa_2" data-name="Capa 2" xmlns="http://www.w3.org/2000/svg" xmlns:xlink="http://www.w3.org/1999/xlink" viewBox="0 0 752.3 752.3">
  <defs>
    <style>
      .cls-1 {
        fill: #7bba56;
      }

      .cls-2 {
        fill: #29a04c;
      }

      .cls-3 {
        fill: #efd1c2;
      }

      .cls-4 {
        fill: url(#Degradado_sin_nombre_83);
      }

      .cls-5 {
        fill: url(#Degradado_sin_nombre_69);
      }

      .cls-6 {
        fill: #fff;
      }

      .cls-7 {
        fill: #fdf1ea;
      }

      .cls-8 {
        fill: none;
      }

      .cls-9 {
        fill: #f8e990;
      }

      .cls-10 {
        fill: url(#Degradado_sin_nombre_71);
      }

      .cls-11 {
        clip-path: url(#clippath-1);
      }

      .cls-12 {
        fill: url(#Degradado_sin_nombre_32);
      }

      .cls-13 {
        fill: #9b633d;
      }

      .cls-14 {
        fill: url(#Degradado_sin_nombre_75);
      }

      .cls-15 {
        fill: url(#Degradado_sin_nombre_77);
      }

      .cls-16 {
        fill: #dba93b;
      }

      .cls-17 {
        fill: #6cb86e;
      }

      .cls-18 {
        fill: #f4b54b;
      }

      .cls-19 {
        clip-path: url(#clippath);
      }

      .cls-20 {
        fill: #834d4b;
      }
    </style>
    <clipPath id="clippath">
      <path class="cls-8" d="M521.64,409.34c18.64,4.83,35.21-11.81,35.21-11.81-11.91-.54-21.23-10.2-31.06-112.18-9.35-96.93-136.54-110.94-149.13-112.09v-.09s-.18.01-.51.04c-.32-.03-.51-.04-.51-.04v.09c-12.58,1.15-139.78,15.17-149.13,112.09-9.84,101.98-19.16,111.64-31.06,112.18,0,0,16.57,16.64,35.21,11.81,0,0,5.69,16.1-15.53,24.69,0,0,21.23,32.74,68.34,17.71,0,0,8.8,4.31,2.59,24.97,0,0,33.13-.81,43.49-24.43,0,0,29.72,0,9.42,28.98,0,0,27.78,10.87,37.18-17.96,9.41,28.83,37.18,17.96,37.18,17.96-20.29-28.98,9.42-28.98,9.42-28.98,10.35,23.62,43.49,24.43,43.49,24.43-6.21-20.66,2.59-24.97,2.59-24.97,47.11,15.03,68.34-17.71,68.34-17.71-21.23-8.59-15.53-24.69-15.53-24.69Z"/>
    </clipPath>
    <linearGradient id="Degradado_sin_nombre_83" data-name="Degradado sin nombre 83" x1="384.02" y1="128.44" x2="384.02" y2="478.4" gradientUnits="userSpaceOnUse">
      <stop offset=".63" stop-color="#f8e664"/>
      <stop offset=".81" stop-color="#f7e462"/>
      <stop offset=".88" stop-color="#f3dd5e"/>
      <stop offset=".93" stop-color="#eed155"/>
      <stop offset=".97" stop-color="#e6c04a"/>
      <stop offset="1" stop-color="#dcac3c"/>
    </linearGradient>
    <linearGradient id="Degradado_sin_nombre_71" data-name="Degradado sin nombre 71" x1="310.2" y1="204.61" x2="310.2" y2="439.22" gradientUnits="userSpaceOnUse">
      <stop offset=".24" stop-color="#f5e662"/>
      <stop offset=".84" stop-color="#f5e662"/>
      <stop offset="1" stop-color="#dcac3c"/>
    </linearGradient>
    <linearGradient id="Degradado_sin_nombre_69" data-name="Degradado sin nombre 69" x1="440.85" y1="203.23" x2="440.85" y2="437.84" gradientUnits="userSpaceOnUse">
      <stop offset=".69" stop-color="#f5e662"/>
      <stop offset="1" stop-color="#dcac3c"/>
    </linearGradient>
    <linearGradient id="Degradado_sin_nombre_77" data-name="Degradado sin nombre 77" x1="446.1" y1="196.96" x2="446.1" y2="337.35" gradientUnits="userSpaceOnUse">
      <stop offset=".42" stop-color="#f5e662"/>
      <stop offset=".93" stop-color="#ddb03e"/>
      <stop offset=".94" stop-color="#dcac3c"/>
    </linearGradient>
    <linearGradient id="Degradado_sin_nombre_32" data-name="Degradado sin nombre 32" x1="262.38" y1="267.95" x2="417.11" y2="267.95" gradientUnits="userSpaceOnUse">
      <stop offset=".35" stop-color="#eee17e"/>
      <stop offset=".51" stop-color="#eddf7b"/>
      <stop offset=".58" stop-color="#ebd974"/>
      <stop offset=".64" stop-color="#e8cf68"/>
      <stop offset=".68" stop-color="#e3c156"/>
      <stop offset=".72" stop-color="#ddae3f"/>
      <stop offset=".72" stop-color="#dcac3c"/>
    </linearGradient>
    <clipPath id="clippath-1">
      <path class="cls-12" d="M362.44,200.31c-1.34.48-144.82,33.38-85.84,141.07,0,0,10.07-56.96,38.36-77.43,0,0-37.88,39.61,20.14,71.2,0,0-15.83-23.59-13.43-36.05,0,0,11.99,38.72,95.43,24.03,0,0-20.14-45.39-13.43-72.98,0,0,35.49-76.99-41.24-49.84Z"/>
    </clipPath>
    <linearGradient id="Degradado_sin_nombre_75" data-name="Degradado sin nombre 75" x1="399.92" y1="87.57" x2="399.92" y2="437.52" gradientUnits="userSpaceOnUse">
      <stop offset=".42" stop-color="#f5e662"/>
      <stop offset=".91" stop-color="#dcac3c"/>
    </linearGradient>
  </defs>
  <g id="Capa_4" data-name="Capa 4">
    <g>
      <circle class="cls-13" cx="376.15" cy="376.15" r="376.15"/>
      <g>
        <path class="cls-6" d="M298.94,634c.97-6.94,2-13.92,3.1-20.95,1.1-7.03,2.24-13.81,3.43-20.36,1.19-6.54,2.31-12.45,3.36-17.72,1.14-5.71,2.28-11.51,3.43-17.39,1.14-5.88,2.33-11.81,3.56-17.79l23.06-3.03-6.85,29.78c-1.23,5.18-2.48,10.74-3.75,16.67-1.27,5.93-2.44,11.66-3.49,17.19-1.05,5.53-1.89,10.45-2.5,14.76,2.19-.17,4.55-.28,7.05-.33,2.5-.04,4.72-.07,6.65-.07.09,2.02.26,4.15.53,6.39.26,2.24.55,4.17.86,5.8.31,1.63.46,2.53.46,2.7h-.99c-.31,0-.64-.04-.99-.13h-2.11c-3.43,0-7.23.15-11.4.46-4.17.31-8.3.79-12.38,1.45-4.08.66-7.75,1.51-11,2.57Z"/>
        <path class="cls-6" d="M379.18,633.47c.17-1.49.35-2.94.53-4.35.17-1.4.35-2.81.53-4.22l.79-7.38c.09-1.23.17-2.37.26-3.43.09-1.05.17-2.02.26-2.9h-11.46l-5.27,18.97c-1.93.26-4.22.55-6.85.86-2.63.31-5.09.59-7.38.86-1.41.18-2.79.35-4.15.53-1.36.18-2.74.35-4.15.53l10.41-34.52c1.23-4.13,2.64-8.83,4.22-14.1s3.18-10.67,4.81-16.21c1.62-5.53,3.16-10.74,4.61-15.61,1.45-4.88,2.61-8.98,3.49-12.32,5.97-.44,12.06-.97,18.25-1.58,6.19-.61,12.23-1.45,18.12-2.5-.44,4.92-.86,10.47-1.25,16.67s-.75,12.58-1.05,19.17c-.31,6.59-.64,13.09-.99,19.5-.18,6.06-.4,12.32-.66,18.78s-.53,13.07-.79,19.83c-1.32.18-2.64.35-3.95.53-1.32.18-2.63.35-3.95.53-2.2.35-4.61.75-7.25,1.19-2.64.44-5.01.84-7.12,1.19ZM373.25,598.03c.53,0,1.51-.04,2.96-.13,1.45-.09,2.83-.17,4.15-.26,1.32-.09,2.11-.13,2.37-.13,0-1.14.17-3.47.53-6.98.35-3.51.7-7.2,1.05-11.07.17-2.28.37-4.63.59-7.05.22-2.42.46-4.9.72-7.44l.79-11.46-1.98.13-3.03,11.33-8.17,33.07Z"/>
        <path class="cls-6" d="M410.54,633.87c1.23-4.22,2.42-9.03,3.56-14.43,1.14-5.4,2.22-10.91,3.23-16.54,1.01-5.62,1.95-10.85,2.83-15.68.88-4.83,1.58-8.83,2.11-11.99.96-5.88,1.91-11.84,2.83-17.85.92-6.02,1.82-12.14,2.7-18.38l44.14-2.24-3.82,16.21h-20.69l-4.08,23.45c1.4-.09,2.74-.13,4.02-.13h12.71c.79,0,1.49-.04,2.11-.13-.09,1.23-.22,2.44-.4,3.62-.18,1.19-.35,2.39-.53,3.62l-1.19,7.11c-1.84,0-4.5-.07-7.97-.2-3.47-.13-7.14-.24-11-.33l-6.06,38.87c-1.5.26-2.96.53-4.41.79-1.45.26-2.92.57-4.41.92-2.46.44-5.14.97-8.04,1.58-2.9.62-5.45,1.19-7.64,1.71Z"/>
      </g>
    </g>
    <g>
      <path class="cls-18" d="M211.97,532.65l1.17,1.88c-.49-.53-.88-1.16-1.17-1.88Z"/>
      <g class="cls-19">
        <rect class="cls-4" x="156.44" y="128.44" width="455.16" height="349.96"/>
      </g>
      <path class="cls-16" d="M491.84,396.24c14.82,3.97,27.99-9.69,27.99-9.69-9.47-.44-16.88-8.37-24.7-92.09-7.43-79.57-108.57-91.07-118.58-92.02v-.07s-.15.01-.4.03c-.26-.02-.4-.03-.4-.03v.07c-10.01.94-111.15,12.45-118.58,92.02-7.82,83.71-15.23,91.65-24.7,92.09,0,0,13.17,13.66,27.99,9.69,0,0,4.53,13.22-12.35,20.27,0,0,16.88,26.88,54.34,14.54,0,0,7,3.54,2.06,20.49,0,0,26.35-.67,34.58-20.05,0,0,23.63,0,7.49,23.79,0,0,22.09,8.92,29.57-14.74,7.48,23.67,29.57,14.74,29.57,14.74-16.14-23.79,7.49-23.79,7.49-23.79,8.23,19.39,34.58,20.05,34.58,20.05-4.94-16.96,2.06-20.49,2.06-20.49,37.46,12.34,54.34-14.54,54.34-14.54-16.88-7.05-12.35-20.27-12.35-20.27Z"/>
      <path class="cls-7" d="M420.71,213.79h-87.15c-102.52,10.98-62.26,127.23-62.26,127.23l3.22,16.96s-4.78,64.55,98.95,67.47v.14c1.26,0,2.43-.05,3.66-.07,1.23.02,2.4.07,3.66.07v-.14c103.73-2.93,98.95-67.47,98.95-67.47l3.22-16.96s40.25-116.26-62.26-127.23Z"/>
      <path class="cls-10" d="M310.54,270.1c-1.61,2.06-82.66,97.67-17.18,169.12,0,0-69.24-28.27-59.04-97.15,10.2-68.88,39.72-141.88,124.52-137.25,84.81,4.63-48.31,65.28-48.31,65.28Z"/>
      <path class="cls-5" d="M440.51,268.72c1.61,2.06,82.66,97.67,17.18,169.12,0,0,69.24-28.27,59.04-97.15-10.2-68.88-39.72-141.88-124.52-137.25-84.81,4.63,48.31,65.28,48.31,65.28Z"/>
      <path class="cls-15" d="M390.73,226.55c.75,1.43,51.26,116.37,114.86,110.59,0,0-35.9-114.15-53.08-130.17-11.41-10.64-83.79-22.25-61.79,19.58Z"/>
      <ellipse class="cls-3" cx="440.38" cy="382.79" rx="22.54" ry="11.2"/>
      <path class="cls-20" d="M355.57,382.79c9.08,8.74,22.42,12.29,34.1,6.97,3.75-1.68,7.28-4.03,10.45-6.97-2.15,3.78-5.47,6.92-9.33,9.17-11.85,7.12-28.38,2.8-35.22-9.17h0Z"/>
      <g>
        <path class="cls-12" d="M362.44,200.31c-1.34.48-144.82,33.38-85.84,141.07,0,0,10.07-56.96,38.36-77.43,0,0-37.88,39.61,20.14,71.2,0,0-15.83-23.59-13.43-36.05,0,0,11.99,38.72,95.43,24.03,0,0-20.14-45.39-13.43-72.98,0,0,35.49-76.99-41.24-49.84Z"/>
        <g class="cls-11">
          <rect class="cls-14" x="172.34" y="87.57" width="455.16" height="349.96"/>
        </g>
      </g>
      <g>
        <ellipse class="cls-2" cx="431.52" cy="339.88" rx="21.94" ry="28.88"/>
        <ellipse class="cls-20" cx="431.52" cy="339.88" rx="8.86" ry="11.66"/>
        <path class="cls-20" d="M404.35,330.79c.81-.81,36.25-33.71,53.54-8.45,15.16,22.14,10.67,24.56,10.67,24.56,0,0,3.62,1.21,6.84-12.48l4.83-6.64-5.64-1.41s-7.04-17.91-33.61-20.13c-26.57-2.21-36.63,24.56-36.63,24.56Z"/>
        <ellipse class="cls-7" cx="445.61" cy="324.19" rx="8.35" ry="5.47"/>
        <ellipse class="cls-17" cx="431.72" cy="361.86" rx="10.27" ry="6.91"/>
        <path class="cls-20" d="M407.63,299.67s47.77-4.56,61.99,0c0,0-57.7-13.15-61.99,0Z"/>
      </g>
      <ellipse class="cls-3" cx="309.34" cy="382.79" rx="22.54" ry="11.2"/>
      <g>
        <ellipse class="cls-2" cx="318.2" cy="339.88" rx="21.94" ry="28.88"/>
        <ellipse class="cls-20" cx="318.2" cy="339.88" rx="8.86" ry="11.66"/>
        <path class="cls-20" d="M345.37,330.79c-.81-.81-36.25-33.71-53.54-8.45-15.16,22.14-10.67,24.56-10.67,24.56,0,0-3.62,1.21-6.84-12.48l-4.83-6.64,5.64-1.41s7.04-17.91,33.61-20.13c26.57-2.21,36.63,24.56,36.63,24.56Z"/>
        <ellipse class="cls-7" cx="304.11" cy="324.19" rx="8.35" ry="5.47"/>
        <ellipse class="cls-17" cx="318" cy="361.86" rx="10.27" ry="6.91"/>
        <path class="cls-20" d="M342.08,299.67s-47.77-4.56-61.99,0c0,0,57.7-13.15,61.99,0Z"/>
      </g>
      <path class="cls-1" d="M425.48,186.28s6.44-72.06,49.51-37.04c43.07,35.02,60.52,73.67,15.77,72.06-44.75-1.61-65.28-35.02-65.28-35.02Z"/>
      <path class="cls-9" d="M274.52,273.63s48.98-28.18,64.14-29.79c0,0-32.47,28.03-27.58,49.98,0,0,14.43-24.48,22.88-31.86,0,0,18.38,35.55,46.56,44.14,0,0-8.72-75.68,14.09-89.5,0,0-95.67-12.75-120.1,57.03Z"/>
      <path class="cls-9" d="M421.46,243.04c-.88-1.15,2.21,34.82,45.85,67.96,0,0-3.78-32.28,18.36,0,0,0-13.69-59.1-33.81-72.79,0,0,23.75,75.48-30.39,4.83Z"/>
      <path class="cls-9" d="M274.52,223.79s-38.47,51.77-32.39,81.21c0,0-22.23-51.93,32.39-81.21Z"/>
      <path class="cls-9" d="M480.23,241.6s30.64,13.93,32.21,75.56c0,0,24.82-62.24-32.21-75.56Z"/>
    </g>
  </g>
</svg>