<?xml version="1.0" encoding="UTF-8"?>
<svg id="Capa_2" data-name="Capa 2" xmlns="http://www.w3.org/2000/svg" viewBox="0 0 752.3 752.3">
  <defs>
    <style>
      .cls-1 {
        fill: #fbdbc6;
      }

      .cls-2 {
        fill: #82491d;
      }

      .cls-3 {
        fill: #fff;
      }

      .cls-4 {
        fill: #9b633d;
      }

      .cls-5 {
        fill: #fbd397;
      }

      .cls-6 {
        fill: #ffecd4;
      }

      .cls-7 {
        fill: #591814;
      }

      .cls-8 {
        fill: #ffecd3;
      }

      .cls-9 {
        fill: #b47270;
      }

      .cls-10 {
        fill: #f4b54b;
      }

      .cls-11 {
        fill: #247c48;
      }

      .cls-12 {
        fill: #379150;
      }
    </style>
  </defs>
  <g id="Capa_4" data-name="Capa 4">
    <g>
      <circle class="cls-4" cx="376.15" cy="376.15" r="376.15"/>
      <g>
        <path class="cls-3" d="M298.94,633c.97-6.94,2-13.92,3.1-20.95,1.1-7.03,2.24-13.81,3.43-20.36,1.19-6.54,2.31-12.45,3.36-17.72,1.14-5.71,2.28-11.51,3.43-17.39,1.14-5.88,2.33-11.81,3.56-17.79l23.06-3.03-6.85,29.78c-1.23,5.18-2.48,10.74-3.75,16.67-1.27,5.93-2.44,11.66-3.49,17.19-1.05,5.53-1.89,10.45-2.5,14.76,2.19-.17,4.55-.28,7.05-.33,2.5-.04,4.72-.07,6.65-.07.09,2.02.26,4.15.53,6.39.26,2.24.55,4.17.86,5.8.31,1.63.46,2.53.46,2.7h-.99c-.31,0-.64-.04-.99-.13h-2.11c-3.43,0-7.23.15-11.4.46-4.17.31-8.3.79-12.38,1.45-4.08.66-7.75,1.51-11,2.57Z"/>
        <path class="cls-3" d="M379.18,632.48c.17-1.49.35-2.94.53-4.35.17-1.4.35-2.81.53-4.22l.79-7.38c.09-1.23.17-2.37.26-3.43.09-1.05.17-2.02.26-2.9h-11.46l-5.27,18.97c-1.93.26-4.22.55-6.85.86-2.63.31-5.09.59-7.38.86-1.41.18-2.79.35-4.15.53-1.36.18-2.74.35-4.15.53l10.41-34.52c1.23-4.13,2.64-8.83,4.22-14.1s3.18-10.67,4.81-16.21c1.62-5.53,3.16-10.74,4.61-15.61,1.45-4.88,2.61-8.98,3.49-12.32,5.97-.44,12.06-.97,18.25-1.58,6.19-.61,12.23-1.45,18.12-2.5-.44,4.92-.86,10.47-1.25,16.67s-.75,12.58-1.05,19.17c-.31,6.59-.64,13.09-.99,19.5-.18,6.06-.4,12.32-.66,18.78s-.53,13.07-.79,19.83c-1.32.18-2.64.35-3.95.53-1.32.18-2.63.35-3.95.53-2.2.35-4.61.75-7.25,1.19-2.64.44-5.01.84-7.12,1.19ZM373.25,597.03c.53,0,1.51-.04,2.96-.13,1.45-.09,2.83-.17,4.15-.26,1.32-.09,2.11-.13,2.37-.13,0-1.14.17-3.47.53-6.98.35-3.51.7-7.2,1.05-11.07.17-2.28.37-4.63.59-7.05.22-2.42.46-4.9.72-7.44l.79-11.46-1.98.13-3.03,11.33-8.17,33.07Z"/>
        <path class="cls-3" d="M410.54,632.87c1.23-4.22,2.42-9.03,3.56-14.43,1.14-5.4,2.22-10.91,3.23-16.54,1.01-5.62,1.95-10.85,2.83-15.68.88-4.83,1.58-8.83,2.11-11.99.96-5.88,1.91-11.84,2.83-17.85.92-6.02,1.82-12.14,2.7-18.38l44.14-2.24-3.82,16.21h-20.69l-4.08,23.45c1.4-.09,2.74-.13,4.02-.13h12.71c.79,0,1.49-.04,2.11-.13-.09,1.23-.22,2.44-.4,3.62-.18,1.19-.35,2.39-.53,3.62l-1.19,7.11c-1.84,0-4.5-.07-7.97-.2-3.47-.13-7.14-.24-11-.33l-6.06,38.87c-1.5.26-2.96.53-4.41.79-1.45.26-2.92.57-4.41.92-2.46.44-5.14.97-8.04,1.58-2.9.62-5.45,1.19-7.64,1.71Z"/>
      </g>
    </g>
    <g>
      <path class="cls-10" d="M217.93,530.75l1.17,1.88c-.49-.53-.88-1.16-1.17-1.88Z"/>
      <path class="cls-2" d="M545.13,458.17H207.13c48.69-41.4-8.64-69.21-8.64-69.21,63.7-49.25,6.64-107.96,6.64-107.96,114.26,2.78,57.97-100.98,57.97-100.98,110.65,13.06,112.87-51.03,112.87-56.24l.13,1.61.22-1.95s-2.43,70.21,112.82,56.59c0,0-56.24,103.75,58.02,100.98,0,0-57.06,58.71,6.64,107.96,0,0-57.28,27.82-8.68,69.21Z"/>
      <ellipse class="cls-8" cx="375.97" cy="356.11" rx="114.94" ry="117.39"/>
      <ellipse class="cls-8" cx="465.06" cy="274.7" rx="21.66" ry="33.19"/>
      <ellipse class="cls-8" cx="282.69" cy="274.7" rx="21.66" ry="33.19"/>
      <g>
        <path class="cls-12" d="M366.44,446.97l-53.48-10.81c-4.54-1.31-9.08,2.09-9.08,6.82v31.59c0,4.89,4.83,8.32,9.45,6.71l51.19-10.71c6.53-2.28,8.57-21.68,1.92-23.6Z"/>
        <path class="cls-11" d="M366.44,446.97l-28.37-5.73c2.75,6.76,2.36,14.42-12.85,15.3-27.78,1.62,3.05,5.08,11.98,5.77,6.31.49,10.76,7.64,5.72,12.78l21.6-4.52c6.53-2.28,8.57-21.68,1.92-23.6Z"/>
      </g>
      <g>
        <path class="cls-12" d="M387.61,446.97l53.48-10.81c4.54-1.31,9.08,2.09,9.08,6.82v31.59c0,4.89-4.83,8.32-9.45,6.71l-51.19-10.71c-6.53-2.28-8.57-21.68-1.92-23.6Z"/>
        <path class="cls-11" d="M387.25,446.97l28.37-5.73c-2.75,6.76-2.36,14.42,12.85,15.3,27.78,1.62-3.05,5.08-11.98,5.77-6.31.49-10.76,7.64-5.72,12.78l-21.6-4.52c-6.53-2.28-8.57-21.68-1.92-23.6Z"/>
      </g>
      <path class="cls-12" d="M400.85,460.61c0,13.66.44,24.61-24.73,24.73-24.73.11-24.73-11.07-24.73-24.73s0-24.73,24.73-24.73c30.26,0,24.73,11.07,24.73,24.73Z"/>
      <g>
        <ellipse class="cls-1" cx="320.34" cy="382.16" rx="31.43" ry="14.41"/>
        <ellipse class="cls-1" cx="431.6" cy="382.16" rx="31.43" ry="14.41"/>
        <ellipse class="cls-5" cx="376.9" cy="386.52" rx="49" ry="33.03"/>
        <path class="cls-9" d="M367.85,353.49h18.09c3.4,0,5.6,2.9,4.07,5.36l-9.05,14.47c-1.69,2.7-6.45,2.7-8.14,0l-9.05-14.47c-1.54-2.46.67-5.36,4.07-5.36Z"/>
      </g>
      <ellipse class="cls-7" cx="338.9" cy="329.3" rx="18.55" ry="24.2"/>
      <ellipse class="cls-6" cx="345.31" cy="319.68" rx="4.63" ry="7.95"/>
      <ellipse class="cls-7" cx="413.04" cy="329.3" rx="18.55" ry="24.2"/>
      <ellipse class="cls-6" cx="419.45" cy="319.68" rx="4.63" ry="7.95"/>
    </g>
  </g>
</svg>