<svg xmlns="http://www.w3.org/2000/svg" viewBox="0 0 105.71 158.03"><defs><style>.cls-1{fill:#834a1e;}.cls-10,.cls-2{fill:#ffedd4;}.cls-3{fill:#379250;}.cls-4{fill:#257c48;}.cls-5{fill:#fcdcc7;}.cls-6{fill:#fcd498;}.cls-7{fill:#b5726f;}.cls-8{fill:#591814;}.cls-9{fill:#ffedd5;}.cls-10{stroke:#e2b791;stroke-miterlimit:10;stroke-width:0.81px;}</style></defs><title>spin</title><g id="Capa_2" data-name="Capa 2"><g id="Capa_1-2" data-name="Capa 1"><path class="cls-1" d="M105.71,120.36C92.27,112.56,101,99.75,101,99.75,79.63,95.16,93,78.1,93,78.1,79.71,68,93.8,61.19,93.8,61.19c-14.68-11.35-1.53-24.88-1.53-24.88C65.94,37,78.9,13,78.9,13c-26.57,3.14-26-13-26-13l-.06.45,0-.45s.56,16.18-26,13c0,0,13,23.91-13.36,23.27,0,0,13.14,13.53-1.53,24.88,0,0,14.09,6.84.8,16.91,0,0,13.37,17.06-8,21.65,0,0,8.78,12.81-4.67,20.61,0,0,9.42,2,6.52,10.23,0,0,15.78-4.19,10.47,9.77,0,0,22.88,1.8,36.13.28,15.51.73,35.6-.28,35.6-.28-5.31-14,10.47-9.77,10.47-9.77C96.29,122.38,105.71,120.36,105.71,120.36Z"/><path class="cls-2" d="M89.13,110.7c0,23.26-8,42.12-34.95,42.11C23.1,152.8,19.24,134,19.24,110.7S34.89,68.6,54.18,68.6,89.13,87.45,89.13,110.7Z"/><ellipse class="cls-2" cx="52.82" cy="53.62" rx="26.49" ry="27.05"/><ellipse class="cls-2" cx="73.35" cy="34.86" rx="4.99" ry="7.65"/><ellipse class="cls-2" cx="31.32" cy="34.86" rx="4.99" ry="7.65"/><path class="cls-3" d="M40.32,147.73s-30.89-11.24-30.9,2.43c0,5.63,1.94,7.87,1.94,7.87h33.3c.66-.33,2.84-1.5,3.17-3.44C48.27,152,45.9,150.29,40.32,147.73Z"/><path class="cls-3" d="M64.93,147.73s30.89-11.24,30.9,2.43c0,5.63-1.94,7.87-1.94,7.87H60.58c-.65-.33-2.83-1.5-3.16-3.44C57,152,59.35,150.29,64.93,147.73Z"/><path class="cls-3" d="M50.62,74.56,38.3,72.07a1.64,1.64,0,0,0-2.1,1.57v7.28a1.64,1.64,0,0,0,2.18,1.55L50.18,80C51.68,79.47,52.15,75,50.62,74.56Z"/><path class="cls-4" d="M50.62,74.56l-6.54-1.32c.64,1.56.55,3.32-3,3.53-6.4.37.7,1.17,2.76,1.33A1.75,1.75,0,0,1,45.2,81l5-1C51.68,79.47,52.15,75,50.62,74.56Z"/><path class="cls-3" d="M55.5,74.56l12.32-2.49a1.64,1.64,0,0,1,2.1,1.57v7.28a1.64,1.64,0,0,1-2.18,1.55L55.94,80C54.44,79.47,54,75,55.5,74.56Z"/><path class="cls-4" d="M55.42,74.56,62,73.24c-.63,1.56-.54,3.32,3,3.53,6.41.37-.7,1.17-2.76,1.33A1.76,1.76,0,0,0,60.83,81l-5-1C54.35,79.47,53.88,75,55.42,74.56Z"/><path class="cls-3" d="M58.55,77.7c0,3.15.1,5.67-5.7,5.7s-5.7-2.55-5.7-5.7,0-5.7,5.7-5.7C59.82,72,58.55,74.56,58.55,77.7Z"/><ellipse class="cls-5" cx="40" cy="59.63" rx="7.24" ry="3.32"/><ellipse class="cls-5" cx="65.63" cy="59.63" rx="7.24" ry="3.32"/><ellipse class="cls-6" cx="53.03" cy="60.63" rx="11.29" ry="7.61"/><path class="cls-7" d="M50.94,53h4.17c.79,0,1.3.67.94,1.23L54,57.59a1.18,1.18,0,0,1-1.88,0L50,54.25C49.65,53.69,50.16,53,50.94,53Z"/><ellipse class="cls-8" cx="44.27" cy="47.44" rx="4.28" ry="5.58"/><ellipse class="cls-9" cx="45.75" cy="45.23" rx="1.07" ry="1.83"/><ellipse class="cls-8" cx="61.36" cy="47.44" rx="4.28" ry="5.58"/><path class="cls-10" d="M31.92,95c3.09,16.62,7.73,28.49,14,27.08,6.78-1.52,7-13.13,3-30.9"/><line class="cls-10" x1="40.49" y1="114.42" x2="44.05" y2="122.06"/><line class="cls-10" x1="44.65" y1="113.57" x2="47.76" y2="121.28"/><line class="cls-10" x1="48.88" y1="112.59" x2="50.22" y2="118.24"/><path class="cls-10" d="M73.71,95c-3.09,16.62-7.73,28.49-14,27.08-6.78-1.52-7-13.13-3-30.9"/><line class="cls-10" x1="64.18" y1="114.42" x2="60.62" y2="122.06"/><line class="cls-10" x1="61.08" y1="113.57" x2="57.97" y2="121.28"/><line class="cls-10" x1="56.85" y1="112.59" x2="55.51" y2="118.24"/><ellipse class="cls-9" cx="62.84" cy="45.23" rx="1.07" ry="1.83"/></g></g></svg>