<?xml version="1.0" encoding="UTF-8"?>
<svg id="Capa_2" data-name="Capa 2" xmlns="http://www.w3.org/2000/svg" viewBox="0 0 752.3 752.3">
  <defs>
    <style>
      .cls-1 {
        fill: #24293f;
      }

      .cls-2, .cls-3 {
        fill: #fff;
      }

      .cls-4 {
        fill: #86444f;
      }

      .cls-5 {
        fill: #9b633d;
      }

      .cls-3 {
        stroke: #fff;
        stroke-miterlimit: 10;
        stroke-width: .33px;
      }

      .cls-6 {
        fill: #db6b7e;
      }

      .cls-7 {
        fill: #76b956;
      }
    </style>
  </defs>
  <g id="Capa_4" data-name="Capa 4">
    <g>
      <circle class="cls-5" cx="376.15" cy="376.15" r="376.15"/>
      <g>
        <path class="cls-1" d="M336.15,206.45c0,42.77-20.94,77.44-46.77,77.44s-48-34.78-48-77.55,22.17-77.33,48-77.33,46.77,34.67,46.77,77.44Z"/>
        <path class="cls-1" d="M511.22,205.68c0,42.77-22.03,78.05-47.86,78.05s-46.77-34.67-46.77-77.44,20.94-77.44,46.77-77.44,47.86,34.07,47.86,76.84Z"/>
        <g>
          <path class="cls-7" d="M543.96,327.44c-70.35,27.82-93.23,66.87-89.56,129.73,0,0-.28,6.52-.37,6.48-11.66,7.08-38.91,21.48-76.45,21.97-39.19.51-67.82-14.43-79.78-21.62-.47-57.47-24.56-110.91-89.47-136.57,0,0-29.66-13.84-5.94-45.48,23.74-31.64,53.89-117.65,173.76-120.61,119.87,2.96,150.04,88.98,173.76,120.61,23.74,31.64-5.94,45.48-5.94,45.48Z"/>
          <ellipse class="cls-3" cx="289.04" cy="209.2" rx="46.33" ry="77.88"/>
          <ellipse class="cls-1" cx="286.39" cy="211.13" rx="23.94" ry="28.93"/>
          <ellipse class="cls-2" cx="301.01" cy="182.2" rx="14.62" ry="17.67"/>
          <ellipse class="cls-3" cx="463.26" cy="205.78" rx="46.33" ry="74.46"/>
          <ellipse class="cls-1" cx="463.53" cy="211.13" rx="23.94" ry="28.93"/>
          <ellipse class="cls-2" cx="478.15" cy="182.2" rx="14.62" ry="17.67"/>
          <g>
            <path class="cls-4" d="M451.81,338.28c-.81,9.4-4.29,19.54-13.31,27.86-11.03,10.2-30.39,17.68-63.3,17.72h0c-.29.01-.54,0-.81,0-.29,0-.54.01-.83.01h0c-32.9-.06-52.25-7.54-63.3-17.74-9.02-8.32-12.48-18.46-13.31-27.86-1.8-21.1,36.51-27.54,49.88-21.48,4.54,2.07,11.82,4.81,17.85,6.98,6.05,2.18,13.25,2.12,19.24-.13,5.99-2.25,13.23-5.04,18-6.85,13.48-5.08,51.71.38,49.88,21.48Z"/>
            <path class="cls-6" d="M438.5,366.14c-11.03,10.2-30.39,17.68-63.3,17.72h0c-.29.01-.54,0-.81,0-.29,0-.54.01-.83.01h0c-32.9-.06-52.25-7.54-63.3-17.74,8.04-14.02,33.71-24.28,64.13-24.28s56.06,10.25,64.11,24.28Z"/>
          </g>
        </g>
      </g>
      <g>
        <path class="cls-2" d="M236.05,634.48c-3.51,0-7.03-.94-10.54-2.83-3.51-1.89-6.9-4.9-10.15-9.03l9.75-19.1c.97,1.67,2.39,3.25,4.28,4.74,1.89,1.49,3.89,2.68,5.99,3.56,2.11.88,3.91,1.32,5.4,1.32,2.28,0,4.46-.7,6.52-2.11,2.06-1.4,3.1-3.29,3.1-5.67,0-3.07-1.41-5.88-4.22-8.43-2.81-2.55-5.97-5.05-9.49-7.51-3.43-2.46-6.57-5.25-9.42-8.37-2.86-3.12-4.28-6.7-4.28-10.74,0-4.57,1.32-8.8,3.95-12.71,2.63-3.91,6.06-7.33,10.28-10.28,4.22-2.94,8.72-5.23,13.51-6.85,4.79-1.62,9.33-2.44,13.64-2.44,3.07,0,5.93.51,8.56,1.51,2.64,1.01,4.74,2.66,6.32,4.94,1.58,2.29,2.37,5.36,2.37,9.22,0,.62-.02,1.23-.07,1.84-.05.62-.11,1.23-.2,1.84-.09.62-.2,1.25-.33,1.91-.13.66-.24,1.34-.33,2.04l-19.1,5.53c.18-.7.33-1.4.46-2.11.13-.7.2-1.4.2-2.11,0-2.64-.46-4.55-1.38-5.73-.92-1.19-2.13-1.78-3.62-1.78-.79,0-1.93.42-3.43,1.25-1.49.84-2.83,1.98-4.02,3.43-1.19,1.45-1.78,3.05-1.78,4.81,0,2.9,1.21,5.29,3.62,7.18,2.42,1.89,5.2,3.8,8.37,5.73,1.49.88,3.16,2.26,5.01,4.15,1.84,1.89,3.45,4.44,4.81,7.64,1.36,3.21,2.04,7.31,2.04,12.32,0,6.5-1.6,12.21-4.81,17.13-3.21,4.92-7.53,8.76-12.98,11.53-5.45,2.77-11.46,4.15-18.05,4.15Z"/>
        <path class="cls-2" d="M279.26,634.48c1.14-6.06,2.26-12.06,3.36-17.99,1.1-5.93,2.22-11.83,3.36-17.72,1.23-7.29,2.39-14.14,3.49-20.55,1.1-6.41,2.19-12.78,3.29-19.1,1.1-6.32,2.17-12.96,3.23-19.9l21.34-1.45c-1.49,6.15-2.96,12.56-4.41,19.24-1.45,6.68-2.79,13.18-4.02,19.5l13.04-1.45c.61-3.07,1.21-6.13,1.78-9.16.57-3.03,1.07-6.04,1.52-9.03.44-2.9.99-5.86,1.65-8.89.66-3.03,1.38-6.08,2.17-9.16,3.16-.53,6.37-.94,9.62-1.25,3.25-.31,7.07-.59,11.46-.86-1.14,3.51-2.29,7.64-3.43,12.38-1.14,4.74-2.24,9.75-3.29,15.02-1.05,5.27-2.06,10.52-3.03,15.75-.97,5.23-1.84,10.08-2.64,14.56-.97,5.62-1.89,11.27-2.77,16.93-.88,5.67-1.76,11.44-2.64,17.33l-20.55,2.37c.61-2.63,1.16-5.25,1.65-7.84.48-2.59.94-5.12,1.38-7.58.88-4.22,1.78-8.61,2.7-13.18.92-4.57,1.65-8.48,2.17-11.73l-12.78,1.19c-.35,1.67-.68,3.47-.99,5.4-.31,1.93-.68,4-1.12,6.19-.44,2.2-.86,4.33-1.25,6.39-.4,2.07-.77,4.11-1.12,6.13-.44,2.37-.92,4.74-1.45,7.12-.53,2.37-1.01,4.74-1.45,7.11l-20.29,4.22Z"/>
        <path class="cls-2" d="M345.27,634.34l17.26-93.68,41.64-3.56c-.62,1.93-1.14,3.91-1.58,5.93-.44,1.67-.86,3.4-1.25,5.2-.4,1.8-.72,3.41-.99,4.81-1.14.09-2.77.15-4.88.2-2.11.04-4.26.09-6.46.13-2.2.04-4.08.07-5.67.07h-2.5l-4.61,23.58,7.64-.4c.97-.09,1.95-.13,2.96-.13h5.6c.79,0,1.4-.04,1.84-.13-.18,1.23-.33,2.44-.46,3.62-.13,1.19-.29,2.39-.46,3.62l-1.19,7.25c-.44.09-1.01.13-1.71.13h-2.5c-.97.09-1.98.13-3.03.13s-2.06.05-3.03.13c-1.14.09-2.33.13-3.56.13s-2.55.05-3.95.13l-4.48,24.24,19.24-3.03-1.32,15.02-42.56,6.59Z"/>
        <path class="cls-2" d="M398.63,634.48c.97-6.94,2-13.92,3.1-20.95,1.1-7.03,2.24-13.81,3.43-20.36,1.19-6.54,2.31-12.45,3.36-17.72,1.14-5.71,2.28-11.51,3.43-17.39,1.14-5.88,2.33-11.81,3.56-17.79l23.06-3.03-6.85,29.78c-1.23,5.18-2.48,10.74-3.76,16.67-1.27,5.93-2.44,11.66-3.49,17.19-1.05,5.53-1.89,10.45-2.5,14.76,2.19-.17,4.55-.28,7.05-.33,2.5-.04,4.72-.07,6.65-.07.09,2.02.26,4.15.53,6.39.26,2.24.55,4.17.86,5.8.31,1.63.46,2.53.46,2.7h-.99c-.31,0-.64-.04-.99-.13h-2.11c-3.43,0-7.23.15-11.4.46-4.17.31-8.3.79-12.39,1.45s-7.75,1.51-11,2.57Z"/>
        <path class="cls-2" d="M445.54,634.48c.97-6.94,2-13.92,3.1-20.95,1.1-7.03,2.24-13.81,3.43-20.36,1.19-6.54,2.31-12.45,3.36-17.72,1.14-5.71,2.28-11.51,3.43-17.39,1.14-5.88,2.33-11.81,3.56-17.79l23.06-3.03-6.85,29.78c-1.23,5.18-2.48,10.74-3.76,16.67-1.27,5.93-2.44,11.66-3.49,17.19-1.05,5.53-1.89,10.45-2.5,14.76,2.19-.17,4.55-.28,7.05-.33,2.5-.04,4.72-.07,6.65-.07.09,2.02.26,4.15.53,6.39.26,2.24.55,4.17.86,5.8.31,1.63.46,2.53.46,2.7h-.99c-.31,0-.64-.04-.99-.13h-2.11c-3.43,0-7.23.15-11.4.46-4.17.31-8.3.79-12.39,1.45s-7.75,1.51-11,2.57Z"/>
        <path class="cls-2" d="M494.81,632.24l6.06-26.48c0-6.24-.15-12.63-.46-19.17-.31-6.54-.68-13.07-1.12-19.57-.35-6.5-.84-13.7-1.45-21.61l21.48-8.17v16.07c0,5.1-.02,9.68-.07,13.77-.05,4.08-.07,7.67-.07,10.74,1.14-2.98,2.52-6.67,4.15-11.07,1.62-4.39,3.14-8.65,4.55-12.78.88-2.46,1.73-4.94,2.57-7.44.83-2.5,1.69-5.12,2.57-7.84l20.42,4.61c-3.78,7.47-7.47,14.98-11.07,22.53-2.11,4.66-4.41,9.55-6.92,14.69s-4.83,9.93-6.98,14.36c-2.15,4.44-3.84,7.97-5.07,10.61-.44,2.29-.99,4.79-1.65,7.51-.66,2.72-1.3,5.32-1.91,7.77-.35,1.41-.75,2.83-1.19,4.28-.44,1.45-.88,2.92-1.32,4.41l-22.53,2.77Z"/>
      </g>
    </g>
  </g>
</svg>