<?xml version="1.0" encoding="UTF-8"?>
<svg id="Capa_2" data-name="Capa 2" xmlns="http://www.w3.org/2000/svg" viewBox="0 0 293.02 285.72">
  <defs>
    <style>
      .cls-1 {
        fill: #24293f;
      }

      .cls-2, .cls-3 {
        fill: #fff;
      }

      .cls-4 {
        fill: #86444f;
      }

      .cls-5 {
        fill: #db6b7e;
      }

      .cls-6 {
        fill: #76b956;
      }

      .cls-3 {
        stroke: #fff;
        stroke-miterlimit: 10;
        stroke-width: .26px;
      }
    </style>
  </defs>
  <g id="Capa_4" data-name="Capa 4">
    <g>
      <path class="cls-1" d="M114.48,62.15c0,34.25-16.77,62.01-37.45,62.01s-38.44-27.85-38.44-62.1S56.34.13,77.03.13s37.45,27.76,37.45,62.01Z"/>
      <path class="cls-1" d="M254.67,61.53c0,34.25-17.64,62.5-38.33,62.5s-37.45-27.76-37.45-62.01S195.66,0,216.34,0s38.33,27.28,38.33,61.53Z"/>
      <g>
        <path class="cls-6" d="M280.89,159.03c-56.34,22.27-74.66,53.55-71.72,103.89,0,0-.22,5.22-.3,5.19-9.34,5.67-31.16,17.2-61.22,17.6-31.38.41-54.31-11.55-63.89-17.31-.38-46.03-19.67-88.82-71.64-109.36,0,0-23.75-11.08-4.76-36.42C26.37,97.27,50.52,28.39,146.51,26.02c95.99,2.37,120.15,71.25,139.14,96.59,19.01,25.34-4.76,36.42-4.76,36.42Z"/>
        <ellipse class="cls-3" cx="76.75" cy="64.34" rx="37.1" ry="62.37"/>
        <ellipse class="cls-1" cx="74.63" cy="65.89" rx="19.17" ry="23.17"/>
        <ellipse class="cls-2" cx="86.34" cy="42.73" rx="11.71" ry="14.15"/>
        <ellipse class="cls-3" cx="216.27" cy="61.6" rx="37.1" ry="59.63"/>
        <ellipse class="cls-1" cx="216.48" cy="65.89" rx="19.17" ry="23.17"/>
        <ellipse class="cls-2" cx="228.19" cy="42.73" rx="11.71" ry="14.15"/>
        <g>
          <path class="cls-4" d="M207.1,167.71c-.65,7.53-3.44,15.65-10.66,22.31-8.83,8.17-24.34,14.16-50.69,14.19h0c-.23.01-.43,0-.65,0-.23,0-.43.01-.66.01h0c-26.35-.05-41.84-6.04-50.69-14.2-7.22-6.66-9.99-14.78-10.66-22.31-1.44-16.9,29.24-22.06,39.95-17.2,3.64,1.65,9.46,3.85,14.3,5.59,4.85,1.75,10.61,1.7,15.41-.1,4.8-1.8,10.59-4.04,14.41-5.48,10.79-4.07,41.41.3,39.95,17.2Z"/>
          <path class="cls-5" d="M196.44,190.02c-8.83,8.17-24.34,14.16-50.69,14.19h0c-.23.01-.43,0-.65,0-.23,0-.43.01-.66.01h0c-26.35-.05-41.84-6.04-50.69-14.2,6.44-11.23,27-19.44,51.35-19.44s44.89,8.21,51.34,19.44Z"/>
        </g>
      </g>
    </g>
  </g>
</svg>