<?xml version="1.0" encoding="UTF-8"?>
<svg id="Capa_2" data-name="Capa 2" xmlns="http://www.w3.org/2000/svg" viewBox="0 0 752.3 752.3">
  <defs>
    <style>
      .cls-1 {
        fill: #24293f;
      }

      .cls-2, .cls-3 {
        fill: #fff;
      }

      .cls-4 {
        fill: #86444f;
      }

      .cls-5 {
        fill: #9b633d;
      }

      .cls-6 {
        fill: #db6b7e;
      }

      .cls-3 {
        stroke: #fff;
        stroke-miterlimit: 10;
        stroke-width: .33px;
      }

      .cls-7 {
        fill: #76b956;
      }
    </style>
  </defs>
  <g id="Capa_4" data-name="Capa 4">
    <g>
      <circle class="cls-5" cx="376.15" cy="376.15" r="376.15"/>
      <g>
        <path class="cls-1" d="M336.15,206.45c0,42.77-20.94,77.44-46.77,77.44s-48-34.78-48-77.55,22.17-77.33,48-77.33,46.77,34.67,46.77,77.44Z"/>
        <path class="cls-1" d="M511.22,205.68c0,42.77-22.03,78.05-47.86,78.05s-46.77-34.67-46.77-77.44,20.94-77.44,46.77-77.44,47.86,34.07,47.86,76.84Z"/>
        <g>
          <path class="cls-7" d="M543.96,327.44c-70.35,27.82-93.23,66.87-89.56,129.73,0,0-.28,6.52-.37,6.48-11.66,7.08-38.91,21.48-76.45,21.97-39.19.51-67.82-14.43-79.78-21.62-.47-57.47-24.56-110.91-89.47-136.57,0,0-29.66-13.84-5.94-45.48,23.74-31.64,53.89-117.65,173.76-120.61,119.87,2.96,150.04,88.98,173.76,120.61,23.74,31.64-5.94,45.48-5.94,45.48Z"/>
          <ellipse class="cls-3" cx="289.04" cy="209.2" rx="46.33" ry="77.88"/>
          <ellipse class="cls-1" cx="286.39" cy="211.13" rx="23.94" ry="28.93"/>
          <ellipse class="cls-2" cx="301.01" cy="182.2" rx="14.62" ry="17.67"/>
          <ellipse class="cls-3" cx="463.26" cy="205.78" rx="46.33" ry="74.46"/>
          <ellipse class="cls-1" cx="463.53" cy="211.13" rx="23.94" ry="28.93"/>
          <ellipse class="cls-2" cx="478.15" cy="182.2" rx="14.62" ry="17.67"/>
          <g>
            <path class="cls-4" d="M451.81,338.28c-.81,9.4-4.29,19.54-13.31,27.86-11.03,10.2-30.39,17.68-63.3,17.72h0c-.29.01-.54,0-.81,0-.29,0-.54.01-.83.01h0c-32.9-.06-52.25-7.54-63.3-17.74-9.02-8.32-12.48-18.46-13.31-27.86-1.8-21.1,36.51-27.54,49.88-21.48,4.54,2.07,11.82,4.81,17.85,6.98,6.05,2.18,13.25,2.12,19.24-.13,5.99-2.25,13.23-5.04,18-6.85,13.48-5.08,51.71.38,49.88,21.48Z"/>
            <path class="cls-6" d="M438.5,366.14c-11.03,10.2-30.39,17.68-63.3,17.72h0c-.29.01-.54,0-.81,0-.29,0-.54.01-.83.01h0c-32.9-.06-52.25-7.54-63.3-17.74,8.04-14.02,33.71-24.28,64.13-24.28s56.06,10.25,64.11,24.28Z"/>
          </g>
        </g>
      </g>
      <g>
        <path class="cls-2" d="M297.18,634.48c.97-6.94,2-13.92,3.1-20.95,1.1-7.03,2.24-13.81,3.43-20.36,1.19-6.54,2.31-12.45,3.36-17.72,1.14-5.71,2.28-11.51,3.43-17.39,1.14-5.88,2.33-11.81,3.56-17.79l23.06-3.03-6.85,29.78c-1.23,5.18-2.48,10.74-3.76,16.67-1.27,5.93-2.44,11.66-3.49,17.19-1.05,5.53-1.89,10.45-2.5,14.76,2.19-.17,4.55-.28,7.05-.33,2.5-.04,4.72-.07,6.65-.07.09,2.02.26,4.15.53,6.39.26,2.24.55,4.17.86,5.8.31,1.63.46,2.53.46,2.7h-.99c-.31,0-.64-.04-.99-.13h-2.11c-3.43,0-7.23.15-11.4.46-4.17.31-8.3.79-12.39,1.45s-7.75,1.51-11,2.57Z"/>
        <path class="cls-2" d="M377.42,633.95c.18-1.49.35-2.94.53-4.35.17-1.4.35-2.81.53-4.22l.79-7.38c.09-1.23.17-2.37.26-3.43.09-1.05.17-2.02.26-2.9h-11.46l-5.27,18.97c-1.93.26-4.22.55-6.85.86-2.64.31-5.1.59-7.38.86-1.41.18-2.79.35-4.15.53-1.36.18-2.74.35-4.15.53l10.41-34.52c1.23-4.13,2.63-8.83,4.22-14.1,1.58-5.27,3.18-10.67,4.81-16.21,1.62-5.53,3.16-10.74,4.61-15.61s2.61-8.98,3.49-12.32c5.97-.44,12.06-.97,18.25-1.58,6.19-.61,12.23-1.45,18.12-2.5-.44,4.92-.86,10.47-1.25,16.67-.4,6.19-.75,12.58-1.05,19.17-.31,6.59-.64,13.09-.99,19.5-.18,6.06-.4,12.32-.66,18.78-.26,6.46-.53,13.07-.79,19.83-1.32.18-2.64.35-3.95.53-1.32.18-2.64.35-3.95.53-2.2.35-4.61.75-7.25,1.19-2.64.44-5.01.84-7.12,1.19ZM371.49,598.51c.53,0,1.52-.04,2.96-.13,1.45-.09,2.83-.17,4.15-.26,1.32-.09,2.11-.13,2.37-.13,0-1.14.17-3.47.53-6.98.35-3.51.7-7.2,1.05-11.07.17-2.28.37-4.63.59-7.05.22-2.42.46-4.9.72-7.44l.79-11.46-1.98.13-3.03,11.33-8.17,33.07Z"/>
        <path class="cls-2" d="M408.78,634.34c1.23-4.22,2.42-9.03,3.56-14.43,1.14-5.4,2.22-10.91,3.23-16.54,1.01-5.62,1.95-10.85,2.83-15.68.88-4.83,1.58-8.83,2.11-11.99.97-5.88,1.91-11.84,2.83-17.85.92-6.02,1.82-12.14,2.7-18.38l44.14-2.24-3.82,16.21h-20.69l-4.08,23.45c1.4-.09,2.74-.13,4.02-.13h12.71c.79,0,1.49-.04,2.11-.13-.09,1.23-.22,2.44-.4,3.62-.18,1.19-.35,2.39-.53,3.62l-1.19,7.11c-1.84,0-4.5-.07-7.97-.2-3.47-.13-7.14-.24-11-.33l-6.06,38.87c-1.49.26-2.96.53-4.41.79-1.45.26-2.92.57-4.41.92-2.46.44-5.14.97-8.04,1.58-2.9.62-5.45,1.19-7.64,1.71Z"/>
      </g>
    </g>
  </g>
</svg>