<?xml version="1.0" encoding="UTF-8"?>
<svg id="Capa_2" data-name="Capa 2" xmlns="http://www.w3.org/2000/svg" viewBox="0 0 489.8464859281 782.5730711243">
  <defs>
    <style>
      .cls-1 {
        fill: none;
      }

      .cls-1, .cls-2, .cls-3, .cls-4, .cls-5 {
        stroke: #000;
        stroke-miterlimit: 10;
      }

      .cls-6 {
        fill: #24293f;
      }

      .cls-2 {
        fill: #74ba56;
      }

      .cls-7 {
        fill: #805b54;
      }

      .cls-3 {
        fill: #258f36;
        stroke-width: .25px;
      }

      .cls-4 {
        fill: #f2f8f2;
      }

      .cls-8 {
        fill: #f2f9fc;
      }

      .cls-5 {
        fill: #f3d591;
      }
    </style>
  </defs>
  <ellipse class="cls-7" cx="244.0405401022" cy="470.5622015582" rx="219.0233371303" ry="236.3152173913"/>
  <path class="cls-2" d="M330.5208721156,76.9886268959c-19.1863139014-25.0193938151-58.0977397041-34.6216446661-76.4681773931-37.690781577-5.6107244971-.9373800419-11.3246057049-.9373800718-16.9353302268-.0000001798-18.3704394537,3.0691367012-61.68849218,14.9143035711-80.3783545302,37.6907817568-41.1254597096,50.117711859-50.785588215,55.9658632281-4.7611740365,80.8617543027,48.1351761675,26.0376216993,43.2471348581,82.8534454708,43.2471348581,82.8534454708,0,0,26.9798418053,13.3441941366,48.4050011968,13.5433881061,21.4251593915-.1991939695,48.4049393103-13.5433881061,48.4049393103-13.5433881061,0,0-4.8880413095-56.8158237715,43.2471348581-82.8534454708,46.0244141785-24.8958910746,34.6953897993-29.4094892-4.7611740365-80.8617543027Z"/>
  <path class="cls-2" d="M195.8030076673,276.8991580799L5.7727619671,439.3076555382c-6.3653037937,5.4400783475-7.0682689466,15.0248860964-1.5587661353,21.330195255,20.3204673998,23.2556064659,66.4931223325,73.0770768079,85.1542292268,68.2613072868l112.6956521739-201.1304347826-6.2608695652-50.8695652174Z"/>
  <path class="cls-2" d="M294.0434782687,276.8991580757l190.0302456929,162.4084974668c6.3653037935,5.4400783478,7.0682689459,15.0248860968,1.5587661343,21.3301952551-20.3204674009,23.255606465-66.4931223358,73.0770768049-85.1542292298,68.2613072829l-112.6956521649-201.1304347877,6.2608695675-50.8695652171Z"/>
  <path class="cls-2" d="M69.8865169629,620.4451112424l37.4544767185,142.2100203245c3.0138258351,11.4431243154,13.3609568982,19.4179395565,25.194309773,19.4179395565h57.8491589111c11.187352727,0,21.1258555728-7.1421383785,24.6933221424-17.7454417937l22.2034840288-65.9936886411-167.3947515739-77.8888294462Z"/>
  <polygon class="cls-3" points="98.8618880171 359.7494468027 143.4782820601 432.3276938731 196.1060896773 338.4016684824 201.1327010054 320.2032431895 196.6244002242 283.5730552012 185.8299666304 285.4225425059 98.8618880171 359.7494468027"/>
  <polygon class="cls-3" points="393.0534216877 359.749446805 348.4370276415 432.3276938733 295.8092200285 338.4016684804 290.7826087012 320.2032431872 295.2909094841 283.5730551991 306.0853430777 285.4225425043 393.0534216877 359.749446805"/>
  <path class="cls-2" d="M416.8812419434,620.4451112462l-37.4544767249,142.2100203229c-3.0138258356,11.4431243152-13.360956899,19.4179395559-25.1943097739,19.4179395553l-57.8491589111-.0000000026c-11.187352727-.0000000005-21.1258555725-7.1421383795-24.6933221416-17.7454417948l-22.2034840258-65.9936886421,167.3947515774-77.8888294387Z"/>
  <polygon class="cls-3" points="237.2812605757 698.333919459 69.8865462203 620.4451255137 91.6479597945 703.0704917246 220.7116804976 747.5823935801 237.2812605757 698.333919459"/>
  <polygon class="cls-3" points="416.8812361617 620.4451255137 249.486460771 698.333919459 265.1571150679 744.9106406504 395.9835921187 699.7908286387 416.8812361617 620.4451255137"/>
  <path class="cls-5" d="M337.0638931547,354.3774375254c-40.6956787109-54.7826538086-45.5958862305-113.6735839844-45.5958862305-113.6735839844,0,0-29.0493880656,6.6104195672-43.4151686518,8.3844006206-3.0370999593.3750410744-6.1001053049.3468037273-9.1331381586-.0598210118-14.3519167715-1.9240953507-43.6947351818-8.3245796088-43.6947351818-8.3245796088,0,0-4.9002075195,58.8909301758-45.5958862305,113.6735839844-40.6956176758,54.7825927734-210.1304321289,361.5651855469,93.7174072266,371.7391357422,303.8478393555-10.1739501953,134.4130249023-316.9565429688,93.7174072266-371.7391357422Z"/>
  <ellipse class="cls-4" cx="301.889964189" cy="49.7756659965" rx="32.6086956522" ry="49.2756659965"/>
  <ellipse class="cls-6" cx="301.889964189" cy="51.9643754712" rx="10.5652173913" ry="14.8695652174"/>
  <ellipse class="cls-8" cx="308.0734468878" cy="38.7904624277" rx="9.1956521739" ry="8.2173913043"/>
  <ellipse class="cls-4" cx="184.7160511455" cy="49.7756659965" rx="32.6086956522" ry="49.2756659965"/>
  <ellipse class="cls-6" cx="184.7160511455" cy="51.9643754712" rx="10.5652173913" ry="14.8695652174"/>
  <ellipse class="cls-8" cx="190.8995338443" cy="38.7904624277" rx="9.1956521739" ry="8.2173913043"/>
  <path d="M154.8464859281,151.9426634919c11.2972174006.0896319037,23.9467871432-.0250418662,35.3193173934-.1993609652.0000795793.0000201449,2.9433779191-.0413006559,2.9433779191-.0413006559,3.0230249154-.1042946962,6.0857992495.6196012044,8.7441435981,2.1042548138,5.7815115522,3.6726251869,14.2653105575,8.6661837544,20.2401507451,12.1859250885,3.3910718678,1.9937556445,6.7611280201,4.0180476367,10.0896497487,6.1030696094l2.4860229492,1.5770263672c3.43618788,2.124675293,7.7529595234,2.6995200196,11.5970861936,1.423971854,1.6038759469-.4788554497,3.1245725942-1.4107612871,4.5098626184-2.3399569801,6.5901714923-4.2843677013,13.4392103606-8.2064248101,20.0703335205-12.4265960573,3.3960495821-2.0479923774,6.5265209188-4.7846272676,10.4671718862-5.6977233288,1.7560963107-.4848005545,4.1190782965-.526607557,5.9210964934-.6831680842,5.6546388455-.4218566738,11.9816635618-.8597410567,17.6106955349-1.3250831858,7.8240589287-.6250282021,15.646446624-1.2683997841,23.4598621514-2.0163856239.0000000095-.0000000014.0389709404.4531860361.0389709473.4531860352-14.6339324658,1.1265084983-29.3549155278,2.5577211691-43.9673389199,4.0100179231-5.0381152112.2255869829-8.7436055007,3.7673552542-12.4417129133,6.7667027714-3.0467587137,2.4840825281-6.0414181375,5.0403569422-9.0350704812,7.5980351648-3.8512400381,3.1857132872-7.5552479049,6.6017387123-11.6603961155,9.4462296355-5.9016846555,3.7712591791-14.0189809368,3.4247779018-19.6310353952-.734697458-.0000113604.0000767092-2.3717459796-1.7475429197-2.3717459796-1.7475429197-9.4128667395-7.0144047334-18.4999192608-14.7379927624-27.9999480498-21.5514412196-2.4061465702-1.536549066-5.2614887863-2.3021570133-8.1277996713-2.2732369343-2.2493870842-.0451735578-12.3321974168-.1586589018-14.7165731069-.1998868298-7.848611301-.0537431218-15.6973661838-.1111161686-23.5461210666-.0407426335v-.3912963867h0Z"/>
  <path class="cls-1" d="M166.0873153959,328.8409995371c17.9875946045,5.8821105957,45.1576385498,12.5049438477,78.6287384033,12.3625183105,32.4193725586-.1379699707,58.797454834-6.5718688965,76.5047912598-12.3625183105"/>
  <path class="cls-1" d="M98.8019150053,446.6490439707c27.7572174072,12.5837097168,79.5698242188,31.7145690918,146.9576263428,31.2501220703,64.779876709-.446472168,114.6701660156-18.7990722656,142.132232666-31.2501220703"/>
  <path class="cls-1" d="M67.2675979887,557.1268729502c37.3684997559,14.486907959,99.6519317627,33.3367614746,178.4919433594,32.9461975098,76.3385620117-.3781738281,136.7637329102-18.639465332,173.6657104492-32.9461975098"/>
  <path class="cls-1" d="M80.9797256742,650.8469199473c38.5235290527,11.7783889771,94.7045288086,24.3737792969,163.2145996094,24.2696304321,67.6875-.102897644,123.2456054688-12.5654830933,161.5261535645-24.2696304321"/>
  <path class="cls-3" d="M243.3464859281,226.6817667756c-19.2384033203-.3295288086-36.6016023055-10.8341754416-50.9260651962-14.6577228048,3.8875732422,16.0645751953,2.8045654297,28.6798095703,2.8045654297,28.6798095703,0,0,26.9797973633,13.3441772461,48.4049682617,13.5433349609,21.4251708984-.1991577148,48.4049682617-13.5433349609,48.4049682617-13.5433349609,0,0-1.012512207-11.7947998047,2.4348144531-27.0975952148-14.7473754883,3.4505615234-31.7434904679,13.4074176291-51.1232512101,13.0755084494Z"/>
</svg>