<?xml version="1.0" encoding="UTF-8"?>
<svg id="Capa_2" data-name="Capa 2" xmlns="http://www.w3.org/2000/svg" viewBox="0 0 752.3 752.3">
  <defs>
    <style>
      .cls-1 {
        fill: #f4f3e6;
      }

      .cls-2 {
        fill: #fff;
      }

      .cls-3 {
        fill: #9b633d;
      }

      .cls-4 {
        fill: #1d1d1b;
        stroke-miterlimit: 10;
        stroke-width: .79px;
      }

      .cls-4, .cls-5 {
        stroke: #1d1d1b;
      }

      .cls-5 {
        fill: none;
        stroke-miterlimit: 10;
        stroke-width: .79px;
      }

      .cls-6 {
        fill: #f1a8ca;
      }

      .cls-7 {
        fill: #f4b54b;
      }
    </style>
  </defs>
  <g id="Capa_4" data-name="Capa 4">
    <g>
      <circle class="cls-3" cx="376.15" cy="376.15" r="376.15"/>
      <g>
        <path class="cls-2" d="M299.68,633c.97-6.94,2-13.92,3.1-20.95,1.1-7.03,2.24-13.81,3.43-20.36,1.19-6.54,2.31-12.45,3.36-17.72,1.14-5.71,2.28-11.51,3.43-17.39,1.14-5.88,2.33-11.81,3.56-17.79l23.06-3.03-6.85,29.78c-1.23,5.18-2.48,10.74-3.75,16.67-1.27,5.93-2.44,11.66-3.49,17.19-1.05,5.53-1.89,10.45-2.5,14.76,2.19-.17,4.55-.28,7.05-.33,2.5-.04,4.72-.07,6.65-.07.09,2.02.26,4.15.53,6.39.26,2.24.55,4.17.86,5.8.31,1.63.46,2.53.46,2.7h-.99c-.31,0-.64-.04-.99-.13h-2.11c-3.43,0-7.23.15-11.4.46-4.17.31-8.3.79-12.38,1.45-4.08.66-7.75,1.51-11,2.57Z"/>
        <path class="cls-2" d="M379.91,632.48c.17-1.49.35-2.94.53-4.35.17-1.4.35-2.81.53-4.22l.79-7.38c.09-1.23.17-2.37.26-3.43.09-1.05.17-2.02.26-2.9h-11.46l-5.27,18.97c-1.93.26-4.22.55-6.85.86-2.63.31-5.09.59-7.38.86-1.41.18-2.79.35-4.15.53-1.36.18-2.74.35-4.15.53l10.41-34.52c1.23-4.13,2.64-8.83,4.22-14.1s3.18-10.67,4.81-16.21c1.62-5.53,3.16-10.74,4.61-15.61,1.45-4.88,2.61-8.98,3.49-12.32,5.97-.44,12.06-.97,18.25-1.58,6.19-.61,12.23-1.45,18.12-2.5-.44,4.92-.86,10.47-1.25,16.67s-.75,12.58-1.05,19.17c-.31,6.59-.64,13.09-.99,19.5-.18,6.06-.4,12.32-.66,18.78s-.53,13.07-.79,19.83c-1.32.18-2.64.35-3.95.53-1.32.18-2.63.35-3.95.53-2.2.35-4.61.75-7.25,1.19-2.64.44-5.01.84-7.12,1.19ZM373.99,597.03c.53,0,1.51-.04,2.96-.13,1.45-.09,2.83-.17,4.15-.26,1.32-.09,2.11-.13,2.37-.13,0-1.14.17-3.47.53-6.98.35-3.51.7-7.2,1.05-11.07.17-2.28.37-4.63.59-7.05.22-2.42.46-4.9.72-7.44l.79-11.46-1.98.13-3.03,11.33-8.17,33.07Z"/>
        <path class="cls-2" d="M411.27,632.87c1.23-4.22,2.42-9.03,3.56-14.43,1.14-5.4,2.22-10.91,3.23-16.54,1.01-5.62,1.95-10.85,2.83-15.68.88-4.83,1.58-8.83,2.11-11.99.96-5.88,1.91-11.84,2.83-17.85.92-6.02,1.82-12.14,2.7-18.38l44.14-2.24-3.82,16.21h-20.69l-4.08,23.45c1.4-.09,2.74-.13,4.02-.13h12.71c.79,0,1.49-.04,2.11-.13-.09,1.23-.22,2.44-.4,3.62-.18,1.19-.35,2.39-.53,3.62l-1.19,7.11c-1.84,0-4.5-.07-7.97-.2-3.47-.13-7.14-.24-11-.33l-6.06,38.87c-1.5.26-2.96.53-4.41.79-1.45.26-2.92.57-4.41.92-2.46.44-5.14.97-8.04,1.58-2.9.62-5.45,1.19-7.64,1.71Z"/>
      </g>
    </g>
    <g>
      <path class="cls-7" d="M223.49,506.45l1.17,1.88c-.49-.53-.88-1.16-1.17-1.88Z"/>
      <g>
        <path class="cls-1" d="M450.16,220.5c2.89-6.58,79.56-88.83,104.2-95.62,0,0,34.33,35.23-44.27,160.85-78.6,125.63-59.93-65.24-59.93-65.24Z"/>
        <path class="cls-6" d="M468.29,223.49c1.84-4.17,50.74-56.66,66.44-60.95,0,0,21.9,22.47-28.22,102.54-50.12,80.07-38.22-41.59-38.22-41.59Z"/>
        <path class="cls-1" d="M348.25,212.45c-.84-7.1-50.06-108.28-71.63-121.93,0,0-43.15,23.63-4.78,166.76,38.37,143.12,76.4-44.82,76.4-44.82Z"/>
        <path class="cls-6" d="M332.75,209.1c-.53-4.53-31.93-69.03-45.68-77.73,0,0-27.51,15.07-3.04,106.35,24.47,91.28,48.72-28.62,48.72-28.62Z"/>
        <path class="cls-1" d="M520.32,327.09s12.13-122.18-134.67-120.69v-.09c-1.04.05-5.59.2-6.86.24l-.02.11c-146.82,9.52-136.16,130.85-136.16,130.85,0,0-109.6,135.01,137.06,132.47l1.92-.07c246.75-15.96,138.72-142.81,138.72-142.81Z"/>
        <path class="cls-5" d="M342.41,427.02c20.95,38.79,37.17-4.69,37.17-4.69,0,0,18.86,43.17,36.91,9.13"/>
        <path class="cls-6" d="M377.32,420.39l-15.66-13.64c-1.41-1.23-1.55-3.36-.32-4.77.62-.71,1.52-1.13,2.46-1.16l31.76-.69c1.87-.04,3.41,1.44,3.45,3.31.02.99-.39,1.93-1.13,2.59l-16.1,14.33c-1.27,1.13-3.18,1.14-4.46.02Z"/>
        <ellipse class="cls-4" cx="311.06" cy="339.3" rx="39.04" ry="33.04" transform="translate(-64.67 73.38) rotate(-12.2)"/>
        <ellipse class="cls-2" cx="327.78" cy="329.98" rx="6.68" ry="10.14" transform="translate(-47.08 605.3) rotate(-81.49)"/>
        <circle class="cls-2" cx="294.76" cy="350.98" r="9.49" transform="translate(-95.99 590.54) rotate(-81.49)"/>
        <ellipse class="cls-4" cx="451.59" cy="335.32" rx="39.04" ry="33.04" transform="translate(-60.65 102.99) rotate(-12.2)"/>
        <ellipse class="cls-2" cx="468.32" cy="326" rx="6.68" ry="10.14" transform="translate(76.58 740.91) rotate(-81.49)"/>
        <circle class="cls-2" cx="435.3" cy="347.02" r="9.49"/>
      </g>
    </g>
  </g>
</svg>