<svg xmlns="http://www.w3.org/2000/svg" viewBox="0 0 497.04 764.32"><defs><style>.cls-1{isolation:isolate;}.cls-2{fill:#f4f3e6;}.cls-3{fill:#f1a8ca;}.cls-4{fill:#dcdfea;}.cls-5,.cls-7{fill:#d98a4a;}.cls-6{fill:#5cab31;}.cls-7{opacity:0.65;mix-blend-mode:multiply;}.cls-8{fill:none;}.cls-8,.cls-9{stroke:#1d1d1b;stroke-miterlimit:10;stroke-width:0.93px;}.cls-9{fill:#1d1d1b;}.cls-10{fill:#fff;}</style></defs><title>wonejoquieto</title><g class="cls-1"><g id="Capa_2" data-name="Capa 2"><g id="Capa_2-2" data-name="Capa 2"><path class="cls-2" d="M278.25,130.21C280.48,122,355.84,12.26,383.49,0c0,0,46.37,35.23-23.64,196.09S278.25,130.21,278.25,130.21Z"/><path class="cls-3" d="M300,130.53c1.42-5.21,49.48-75.23,67.11-83,0,0,29.58,22.47-15.07,125S300,130.53,300,130.53Z"/><path class="cls-2" d="M461.52,703.92c-18.65,27-85.94,59.74-188.66,57.7-37.23-.74-79.12-6-125-17.87a116.7,116.7,0,0,1-28.23-11c-32-18-44.75-48.86-46-84.78C71.52,592.17,97,524.34,120.6,474q2.57-5.44,5.07-10.61c17.3-35.59,32.34-60.2,32.86-61.51,35.37-88.13,154.29-80.68,241.33,4.06a303,303,0,0,1,49.62,63.55C532.42,610.47,486.94,667.15,461.52,703.92Z"/><path class="cls-2" d="M219.1,721.44c-2.28,19.09-39.84,28.43-39.84,28.43L47.83,764.19c-12.59,1.37-23.94-8.31-26.55-22.24-.14-.75-.26-1.51-.35-2.29-4.33-37.68-9-102.41,8.39-111.72a9.59,9.59,0,0,1,4.58-1.13c31.66,0,41.47,57.19,41.47,57.19a29.35,29.35,0,0,1,2-3C104.77,645.4,204.75,697.23,206,698.3,216.51,707.18,219.88,714.88,219.1,721.44Z"/><path class="cls-2" d="M157.52,138.64c-2.23-8.17-77.59-118-105.23-130.21,0,0-46.38,35.23,23.63,196.08S157.52,138.64,157.52,138.64Z"/><path class="cls-4" d="M160.27,478c-11.65-8.39-25.66-9-39.67-3.92-23.58,50.3-49.08,118.13-47,173.88A139.37,139.37,0,0,0,94.06,671s38.29,30.16,81.47,51.89c-15.08,2.92-34.83,6.53-55.93,9.83A110.27,110.27,0,0,0,138.69,741c-19.26,5-41.1,8.7-63.1,8.66A198.75,198.75,0,0,1,21.28,742c2.61,13.93,14,23.61,26.55,22.24l127.94-13.94a529,529,0,0,0,97.09,11.37c-.1-7.56-.41-17.26-1.35-22.59,8.91-5,15.83-13.52,19.86-26.69C319.46,620.43,197,504.43,160.27,478Z"/><path class="cls-4" d="M399.86,406C373.22,425.9,329.6,444.65,261,459.5l-2.24.43c-59.76,9.57-102.63,9.55-133.06,3.5,17.3-35.59,32.34-60.2,32.86-61.51C193.9,313.79,312.82,321.24,399.86,406Z"/><path class="cls-3" d="M138.79,137.43c-1.42-5.21-49.48-75.23-67.11-83,0,0-29.57,22.47,15.08,125.05S138.79,137.43,138.79,137.43Z"/><path class="cls-4" d="M437.84,587.42s-205.47,91.21-220.53,38.4S370.55,487.17,370.55,487.17C425.35,501.81,440.45,521.29,437.84,587.42Z"/><path class="cls-4" d="M437.42,684.61C436.08,683.43,327,624.76,302,669.24c0,0-10.16-61.51-43-61.51-23.56,0-18.28,77.63-13.44,121.36,1.81,16.28,14.13,27.93,27.88,26.38l136.19-15.4S479.92,722,437.42,684.61Z"/><path class="cls-2" d="M379.07,242.71S371.86,97.53,200.24,125l0-.11c-1.23.24-6.52,1.22-8,1.49l0,.13C22,163.38,55.75,303.57,55.75,303.57S-48.92,480.85,239.44,434.65l2.24-.42C527.78,372.3,379.07,242.71,379.07,242.71Z"/><path class="cls-5" d="M300.56,684.77a59.46,59.46,0,0,1-3.83,9.6c-37,72.28-193.48-51-193.48-51C63.73,607.5,56.35,564.3,65.42,527.24a128.34,128.34,0,0,1,6.27-19.05c11.46-27.44,31.58-49.48,52.44-59.34,15.85-7.52,32.12-8,45.34,1.53C206.2,476.86,328.65,592.85,300.56,684.77Z"/><path class="cls-6" d="M123.22,472.09c-1.2,9.92-3.73,23.76-25.84,38.81h0c-7.83,5.34-18.11,10.82-31.66,16.34h-.29c-4.76.06-66.54.34-65.4-25.2.34-7.6,4.55-13.85,10.38-18.91C25,470.49,49.66,465.28,49.66,465.28s-64.85-44.51-37.45-68.77C53.55,359.92,82.74,423,83.54,424.73c-.4-1.38-11.09-39.42,15.17-37.75,19.61,1.24,24.92,35.73,25.42,61.87A179.92,179.92,0,0,1,123.22,472.09Z"/><path class="cls-7" d="M186.33,667c22.76-23.11,63.73-72.09,53.86-102.29,0,0-29,84.41-76.16,84.26a194,194,0,0,1-29.44-36.44c20.82-20,69.83-74.8,59.13-107.52,0,0-27.37,79.6-72.11,84.07a282.2,282.2,0,0,1-18.1-48.88c13.69-5.42,41.79-24,33.78-84,0,0-3.71,55.05-37.89,66.61-1.5-7.47-2-11.89-2-11.89h0a193.08,193.08,0,0,1-25.68-2.71c-26.59-4.67-46.58-14.43-61.29-25.06C4.57,488.19.36,494.44,0,502c-1.14,25.54,60.64,25.26,65.4,25.2-9.07,37.06-1.69,80.26,37.83,116.17,0,0,156.49,123.24,193.48,51C250,697.18,214,685.58,186.33,667Z"/><path class="cls-2" d="M436.71,560.64s-205.47,91.22-220.52,38.41S369.43,460.4,369.43,460.4C424.22,475,439.32,494.52,436.71,560.64Z"/><path class="cls-2" d="M401.77,749.87l-128.31,14-3.12.34c-13.27,1.44-25.16-9.39-26.9-24.53-4.67-40.67-9.77-112.85,13-112.85,31.66,0,41.47,57.19,41.47,57.19,24.08-41.36,129.35,13.2,130.65,14.3,5,4.22,8.36,8.17,10.44,11.86h0C454.08,736.87,401.77,749.87,401.77,749.87Z"/><path class="cls-8" d="M188.29,390.89c31.33,41.75,42.7-12,42.7-12s29.65,47.24,44.81,4.22"/><path class="cls-3" d="M228,377l-20.73-13.23a4,4,0,0,1,1.47-7.31l37.07-6.37a4,4,0,0,1,3.75,6.5l-16.34,19.6A4,4,0,0,1,228,377Z"/><path class="cls-4" d="M78,729.11c3.62-24-3.24-74.85-48.66-101.17a9.59,9.59,0,0,1,4.58-1.13c31.66,0,41.47,57.19,41.47,57.19a29.35,29.35,0,0,1,2-3A167.75,167.75,0,0,1,78,729.11Z"/><ellipse class="cls-9" cx="136.19" cy="293.68" rx="46.22" ry="39.11" transform="translate(-95.04 67.13) rotate(-20.71)"/><ellipse class="cls-10" cx="154.15" cy="279.83" rx="12" ry="7.91"/><circle class="cls-10" cx="119.17" cy="310.21" r="11.23"/><ellipse class="cls-9" cx="300.04" cy="264.41" rx="46.22" ry="39.11" transform="translate(-74.11 123.17) rotate(-20.71)"/><ellipse class="cls-10" cx="318" cy="250.55" rx="12" ry="7.91"/><circle class="cls-10" cx="283.02" cy="280.94" r="11.23"/></g></g></g></svg>